<svg xmlns="http://www.w3.org/2000/svg" viewBox="0 0 1933.94 1106.19"><defs><style>.cls-1{fill:#fff;}</style></defs><g id="Layer_2" data-name="Layer 2"><g id="Accordion_menu_expanded" data-name="Accordion menu expanded"><path class="cls-1" d="M16.37,1108l-13.74-2.1v-5.51a6.62,6.62,0,0,1,.94-4.06,2.7,2.7,0,0,1,2.69-.92,3.57,3.57,0,0,1,1.68.75,5.26,5.26,0,0,1,1.36,2,3.58,3.58,0,0,1,.67-1.33,2.26,2.26,0,0,1,.88-.62,2.55,2.55,0,0,1,.93-.17c.3,0,.59,0,.85.06a3.9,3.9,0,0,1,2.83,1.72,8.37,8.37,0,0,1,.91,4.4Zm-8.38-5v-2.34a1.64,1.64,0,0,0-.1-.6,1.77,1.77,0,0,0-.26-.49,1.32,1.32,0,0,0-.4-.34,1.45,1.45,0,0,0-.49-.18,1,1,0,0,0-1,.29,1.56,1.56,0,0,0-.35,1.08v2.18Zm5.6.84v-2.22a1.81,1.81,0,0,0-.44-1.29,1.59,1.59,0,0,0-1-.57,1.11,1.11,0,0,0-.68.09,1,1,0,0,0-.47.47,1.55,1.55,0,0,0-.18.78v2.32Z" transform="translate(-2.44 -1.86)"/><path class="cls-1" d="M16.37,1094.69l-13.74-2.1v-6.26a5.61,5.61,0,0,1,.59-2.8,2.84,2.84,0,0,1,1.59-1.34,4.64,4.64,0,0,1,2.25-.15,5.6,5.6,0,0,1,1.8.56,4.6,4.6,0,0,1,1.27,1,6.55,6.55,0,0,1,.92,1.27l5.32-1.61V1087l-4.73,1.28v2l4.73.71Zm-7.49-4.87v-2.13a1.58,1.58,0,0,0-.26-.88,2.44,2.44,0,0,0-.67-.69,2.06,2.06,0,0,0-.85-.34,1.41,1.41,0,0,0-1.22.32,1.34,1.34,0,0,0-.51,1.06v2.13Z" transform="translate(-2.44 -1.86)"/><path class="cls-1" d="M16.37,1082.09l-13.74-7v-3.78l13.74-2.78v3.66l-2.66.5V1077l2.66,1.35Zm-5.82-6.31v-2.73l-4.38.68Z" transform="translate(-2.44 -1.86)"/><path class="cls-1" d="M16.56,1061.07a6.58,6.58,0,0,1-.74,3.42,3.43,3.43,0,0,1-2.06,1.54,7.4,7.4,0,0,1-3.07.09l-8.06-1.22v-3.77l8.21,1.26a3.08,3.08,0,0,0,1.52-.07,1.57,1.57,0,0,0,.84-.68,2.15,2.15,0,0,0,.26-1.05,2.54,2.54,0,0,0-.6-1.61,3,3,0,0,0-2-1l-8.21-1.24V1053l8.06,1.22a8.77,8.77,0,0,1,3.07,1,5.35,5.35,0,0,1,2.06,2.18A7.83,7.83,0,0,1,16.56,1061.07Z" transform="translate(-2.44 -1.86)"/><path class="cls-1" d="M16.56,1046.61a5.84,5.84,0,0,1-.74,3,5,5,0,0,1-2.05,1.91,6.7,6.7,0,0,1-3,.67,9.68,9.68,0,0,1-3-.49,8.46,8.46,0,0,1-2.67-1.46,7,7,0,0,1-1.9-2.43,7.68,7.68,0,0,1-.71-3.38,6,6,0,0,1,.6-2.78,4.21,4.21,0,0,1,1.71-1.81,5.54,5.54,0,0,1,2.73-.63v3.87a2.53,2.53,0,0,0-1.11.23,1.53,1.53,0,0,0-.71.64,2.07,2.07,0,0,0-.25,1.07,2.22,2.22,0,0,0,.52,1.51,3.71,3.71,0,0,0,1.36,1,8,8,0,0,0,1.8.52,11.67,11.67,0,0,0,1.83.15,3.24,3.24,0,0,0,2.05-.52,1.7,1.7,0,0,0,.62-1.38,2.1,2.1,0,0,0-.32-1.15,3,3,0,0,0-.86-.88,4.88,4.88,0,0,0-1.17-.57v-3.87a11.45,11.45,0,0,1,2,.79,6.45,6.45,0,0,1,1.71,1.27,5.7,5.7,0,0,1,1.17,1.93A8.3,8.3,0,0,1,16.56,1046.61Z" transform="translate(-2.44 -1.86)"/><path class="cls-1" d="M16.37,1038.38l-13.74-2.1v-3.73l13.74,2.1Z" transform="translate(-2.44 -1.86)"/><path class="cls-1" d="M16.37,1031.93l-13.74-2.12v-10.17l3.06.48v6.43l2.28.34v-5.36l3,.45v5.39l2.34.37v-6.49l3.08.48Z" transform="translate(-2.44 -1.86)"/><path class="cls-1" d="M16.37,1019.42,2.63,1017.3v-3.74l7.66-4.2-7.66-1.16v-3.73l13.74,2.12v3.34l-8.19,4.51,8.19,1.25Z" transform="translate(-2.44 -1.86)"/><path class="cls-1" d="M16.56,998.18a9.3,9.3,0,0,1-.25,2.11,5.76,5.76,0,0,1-.79,1.84,3.71,3.71,0,0,1-1.36,1.25,3.56,3.56,0,0,1-2,.36v-3.86a1.4,1.4,0,0,0,.82-.29,1.61,1.61,0,0,0,.53-.71,2.87,2.87,0,0,0,.19-1.11,5.13,5.13,0,0,0-.12-1.12,2.28,2.28,0,0,0-.38-.91,1.12,1.12,0,0,0-.76-.44.6.6,0,0,0-.64.23,2.17,2.17,0,0,0-.35.81,10.49,10.49,0,0,0-.22,1.09l-.36,2.08a3.74,3.74,0,0,1-1.28,2.42,3.53,3.53,0,0,1-2.77.6,4.14,4.14,0,0,1-2.37-1.14A5.94,5.94,0,0,1,3,999.06a8.37,8.37,0,0,1-.52-3,6.38,6.38,0,0,1,.61-2.91,4.71,4.71,0,0,1,1.6-1.85,3.55,3.55,0,0,1,2.12-.6v3.77a1.43,1.43,0,0,0-.86.19,1.18,1.18,0,0,0-.47.66,4,4,0,0,0,0,2.25,1.62,1.62,0,0,0,.41.65,1,1,0,0,0,.5.24.86.86,0,0,0,.75-.19,2.21,2.21,0,0,0,.45-1.14L8,995.07a5.86,5.86,0,0,1,.79-2.25A3,3,0,0,1,10,991.75a3.44,3.44,0,0,1,1.34-.31,8.17,8.17,0,0,1,1.17.07,3.66,3.66,0,0,1,2.1,1.1A6.57,6.57,0,0,1,16,995,9.32,9.32,0,0,1,16.56,998.18Z" transform="translate(-2.44 -1.86)"/><path class="cls-1" d="M12.25,983a2.79,2.79,0,0,1-.39,1.45,3,3,0,0,1-1,1.05,2.78,2.78,0,0,1-1.44.39A2.72,2.72,0,0,1,8,985.48a3,3,0,0,1-1-1.05,2.89,2.89,0,0,1,0-2.9,3,3,0,0,1,1-1,2.64,2.64,0,0,1,1.43-.4,2.7,2.7,0,0,1,1.44.4,3,3,0,0,1,1,1A2.76,2.76,0,0,1,12.25,983Z" transform="translate(-2.44 -1.86)"/><path class="cls-1" d="M16.37,975.06,2.63,973v-5.52a6.64,6.64,0,0,1,.94-4.06,2.67,2.67,0,0,1,2.69-.91,3.55,3.55,0,0,1,1.68.74,5.35,5.35,0,0,1,1.36,2,3.66,3.66,0,0,1,.67-1.33,2.26,2.26,0,0,1,.88-.62,2.53,2.53,0,0,1,.93-.16,5.67,5.67,0,0,1,.85.06,3.92,3.92,0,0,1,2.83,1.71,8.39,8.39,0,0,1,.91,4.41Zm-8.38-5v-2.34a1.64,1.64,0,0,0-.1-.6,1.59,1.59,0,0,0-.26-.48,1.35,1.35,0,0,0-.4-.35,1.45,1.45,0,0,0-.49-.18,1,1,0,0,0-1,.3,1.53,1.53,0,0,0-.35,1.07v2.18Zm5.6.85v-2.23a1.81,1.81,0,0,0-.44-1.29,1.69,1.69,0,0,0-1-.57,1.11,1.11,0,0,0-.68.09,1.07,1.07,0,0,0-.47.47,1.61,1.61,0,0,0-.18.78v2.32Z" transform="translate(-2.44 -1.86)"/><path class="cls-1" d="M16.37,961.69l-13.74-2.1v-6.25a5.58,5.58,0,0,1,.59-2.8,2.9,2.9,0,0,1,1.59-1.35A4.64,4.64,0,0,1,7.06,949a5.86,5.86,0,0,1,1.8.56,4.8,4.8,0,0,1,1.27,1,6.86,6.86,0,0,1,.92,1.27l5.32-1.61V954l-4.73,1.28v2l4.73.72Zm-7.49-4.86V954.7a1.56,1.56,0,0,0-.26-.88,2.21,2.21,0,0,0-.67-.69,2.08,2.08,0,0,0-.85-.35,1.44,1.44,0,0,0-1.22.32,1.37,1.37,0,0,0-.51,1.06v2.13Z" transform="translate(-2.44 -1.86)"/><path class="cls-1" d="M16.37,949.07l-13.74-7v-3.78l13.74-2.78v3.66l-2.66.5V944l2.66,1.35Zm-5.82-6.31V940l-4.38.68Z" transform="translate(-2.44 -1.86)"/><path class="cls-1" d="M16.56,928.07a6.58,6.58,0,0,1-.74,3.42A3.43,3.43,0,0,1,13.76,933a7.4,7.4,0,0,1-3.07.09L2.63,931.9v-3.77l8.21,1.26a3.08,3.08,0,0,0,1.52-.07,1.57,1.57,0,0,0,.84-.68,2.15,2.15,0,0,0,.26-1,2.54,2.54,0,0,0-.6-1.61,3,3,0,0,0-2-1l-8.21-1.24V920l8.06,1.22a8.77,8.77,0,0,1,3.07,1,5.35,5.35,0,0,1,2.06,2.18A7.83,7.83,0,0,1,16.56,928.07Z" transform="translate(-2.44 -1.86)"/><path class="cls-1" d="M16.56,913.6a5.81,5.81,0,0,1-.74,3,5,5,0,0,1-2.05,1.92,6.7,6.7,0,0,1-3,.66,9.4,9.4,0,0,1-3-.49,8.08,8.08,0,0,1-2.67-1.46,7.08,7.08,0,0,1-1.9-2.42,7.68,7.68,0,0,1-.71-3.38,6,6,0,0,1,.6-2.79,4.13,4.13,0,0,1,1.71-1.8,5.54,5.54,0,0,1,2.73-.63v3.86a2.84,2.84,0,0,0-1.11.23,1.6,1.6,0,0,0-.71.65A2.07,2.07,0,0,0,5.41,912a2.24,2.24,0,0,0,.52,1.51,3.71,3.71,0,0,0,1.36,1,7.48,7.48,0,0,0,1.8.51,11.71,11.71,0,0,0,1.83.16,3.17,3.17,0,0,0,2.05-.53,1.68,1.68,0,0,0,.62-1.37,2.06,2.06,0,0,0-.32-1.15,2.88,2.88,0,0,0-.86-.88,4.23,4.23,0,0,0-1.17-.57v-3.88a11.48,11.48,0,0,1,2,.8A6.45,6.45,0,0,1,15,908.86a5.6,5.6,0,0,1,1.17,1.93A8.28,8.28,0,0,1,16.56,913.6Z" transform="translate(-2.44 -1.86)"/><path class="cls-1" d="M16.37,905.39l-13.74-2.1v-3.72l13.74,2.09Z" transform="translate(-2.44 -1.86)"/><path class="cls-1" d="M16.37,898.91,2.63,896.79V886.63l3.06.48v6.42l2.28.35v-5.36l3,.45v5.39l2.34.36v-6.48l3.08.48Z" transform="translate(-2.44 -1.86)"/><path class="cls-1" d="M16.37,886.43,2.63,884.31v-3.74l7.66-4.2-7.66-1.16v-3.74l13.74,2.12v3.35l-8.19,4.51,8.19,1.25Z" transform="translate(-2.44 -1.86)"/><path class="cls-1" d="M16.56,865.16a9.23,9.23,0,0,1-.25,2.11,5.76,5.76,0,0,1-.79,1.84,3.63,3.63,0,0,1-1.36,1.25,3.48,3.48,0,0,1-2,.36v-3.85a1.47,1.47,0,0,0,.82-.29,1.58,1.58,0,0,0,.53-.72,2.85,2.85,0,0,0,.19-1.1,5.22,5.22,0,0,0-.12-1.13,2.23,2.23,0,0,0-.38-.9,1.09,1.09,0,0,0-.76-.45.63.63,0,0,0-.64.24,2.17,2.17,0,0,0-.35.81,10.83,10.83,0,0,0-.22,1.08l-.36,2.08a3.74,3.74,0,0,1-1.28,2.42,3.45,3.45,0,0,1-2.77.6,4.19,4.19,0,0,1-2.37-1.13A6,6,0,0,1,3,866.05a8.41,8.41,0,0,1-.52-3,6.38,6.38,0,0,1,.61-2.91,4.74,4.74,0,0,1,1.6-1.86,3.54,3.54,0,0,1,2.12-.59v3.77a1.43,1.43,0,0,0-.86.18,1.25,1.25,0,0,0-.47.66,3.41,3.41,0,0,0-.15,1.09,3.34,3.34,0,0,0,.17,1.16,1.55,1.55,0,0,0,.41.65,1.12,1.12,0,0,0,.5.25.87.87,0,0,0,.75-.2,2.21,2.21,0,0,0,.45-1.14L8,862.05a5.81,5.81,0,0,1,.79-2.24A3,3,0,0,1,10,858.73a3.42,3.42,0,0,1,1.34-.3,7,7,0,0,1,1.17.06,3.73,3.73,0,0,1,2.1,1.11A6.49,6.49,0,0,1,16,862,9.22,9.22,0,0,1,16.56,865.16Z" transform="translate(-2.44 -1.86)"/><path class="cls-1" d="M12.25,850a2.79,2.79,0,0,1-.39,1.45,3,3,0,0,1-1,1.05,2.78,2.78,0,0,1-1.44.39A2.72,2.72,0,0,1,8,852.47a3,3,0,0,1-1-1.05,2.89,2.89,0,0,1,0-2.9,3,3,0,0,1,1-1,2.64,2.64,0,0,1,1.43-.4,2.7,2.7,0,0,1,1.44.4,3,3,0,0,1,1,1A2.76,2.76,0,0,1,12.25,850Z" transform="translate(-2.44 -1.86)"/><path class="cls-1" d="M16.37,842l-13.74-2.1v-5.52a6.62,6.62,0,0,1,.94-4.06,2.67,2.67,0,0,1,2.69-.91,3.55,3.55,0,0,1,1.68.74,5.35,5.35,0,0,1,1.36,2,3.66,3.66,0,0,1,.67-1.33,2.26,2.26,0,0,1,.88-.62,2.53,2.53,0,0,1,.93-.16,5.67,5.67,0,0,1,.85.06,3.92,3.92,0,0,1,2.83,1.71,8.39,8.39,0,0,1,.91,4.41ZM8,837V834.7a1.64,1.64,0,0,0-.1-.6,1.59,1.59,0,0,0-.26-.48,1.35,1.35,0,0,0-.4-.35,1.45,1.45,0,0,0-.49-.18,1,1,0,0,0-1,.3,1.53,1.53,0,0,0-.35,1.07v2.18Zm5.6.85v-2.23a1.81,1.81,0,0,0-.44-1.29,1.69,1.69,0,0,0-1-.57,1.11,1.11,0,0,0-.68.09,1.07,1.07,0,0,0-.47.47,1.58,1.58,0,0,0-.18.78v2.32Z" transform="translate(-2.44 -1.86)"/><path class="cls-1" d="M16.37,828.7,2.63,826.6v-6.25a5.65,5.65,0,0,1,.59-2.81,2.84,2.84,0,0,1,1.59-1.34,4.64,4.64,0,0,1,2.25-.15,5.6,5.6,0,0,1,1.8.56,4.8,4.8,0,0,1,1.27,1,6.55,6.55,0,0,1,.92,1.27l5.32-1.61V821l-4.73,1.27v2l4.73.72Zm-7.49-4.86v-2.13a1.54,1.54,0,0,0-.26-.88,2.35,2.35,0,0,0-.67-.7,2.06,2.06,0,0,0-.85-.34,1.41,1.41,0,0,0-1.22.32,1.34,1.34,0,0,0-.51,1.06v2.13Z" transform="translate(-2.44 -1.86)"/><path class="cls-1" d="M16.37,816.1l-13.74-7v-3.78l13.74-2.78v3.66l-2.66.5v4.35l2.66,1.34Zm-5.82-6.31v-2.73l-4.38.67Z" transform="translate(-2.44 -1.86)"/><path class="cls-1" d="M16.56,795.08a6.51,6.51,0,0,1-.74,3.41A3.44,3.44,0,0,1,13.76,800a7.75,7.75,0,0,1-3.07.09L2.63,798.9v-3.77l8.21,1.27a3,3,0,0,0,1.52-.08,1.49,1.49,0,0,0,.84-.68,2.08,2.08,0,0,0,.26-1,2.58,2.58,0,0,0-.6-1.62,3,3,0,0,0-2-1l-8.21-1.25V787l8.06,1.23a8.57,8.57,0,0,1,3.07,1,5.29,5.29,0,0,1,2.06,2.18A7.83,7.83,0,0,1,16.56,795.08Z" transform="translate(-2.44 -1.86)"/><path class="cls-1" d="M16.56,780.62a5.81,5.81,0,0,1-.74,3,5.06,5.06,0,0,1-2.05,1.92,6.7,6.7,0,0,1-3,.66,9.4,9.4,0,0,1-3-.49,8.08,8.08,0,0,1-2.67-1.46,7,7,0,0,1-1.9-2.43,7.61,7.61,0,0,1-.71-3.38,6,6,0,0,1,.6-2.78,4.13,4.13,0,0,1,1.71-1.8,5.54,5.54,0,0,1,2.73-.63v3.86a2.67,2.67,0,0,0-1.11.23,1.55,1.55,0,0,0-.71.65,2,2,0,0,0-.25,1.07,2.19,2.19,0,0,0,.52,1.5,3.62,3.62,0,0,0,1.36,1,7.48,7.48,0,0,0,1.8.51,11.67,11.67,0,0,0,1.83.15,3.18,3.18,0,0,0,2.05-.52,1.69,1.69,0,0,0,.62-1.37,2.06,2.06,0,0,0-.32-1.15,2.88,2.88,0,0,0-.86-.88,4.23,4.23,0,0,0-1.17-.57v-3.88a11.48,11.48,0,0,1,2,.8A6.42,6.42,0,0,1,15,775.87a5.74,5.74,0,0,1,1.17,1.94A8.28,8.28,0,0,1,16.56,780.62Z" transform="translate(-2.44 -1.86)"/><path class="cls-1" d="M16.37,772.38l-13.74-2.1v-3.72l13.74,2.09Z" transform="translate(-2.44 -1.86)"/><path class="cls-1" d="M16.37,765.91,2.63,763.79V753.63l3.06.48v6.42l2.28.35v-5.36l3,.45v5.39l2.34.36v-6.48l3.08.48Z" transform="translate(-2.44 -1.86)"/><path class="cls-1" d="M16.37,753.43,2.63,751.31v-3.74l7.66-4.2-7.66-1.16v-3.73l13.74,2.12v3.34l-8.19,4.51,8.19,1.25Z" transform="translate(-2.44 -1.86)"/><path class="cls-1" d="M16.56,732.17a9.23,9.23,0,0,1-.25,2.11,5.76,5.76,0,0,1-.79,1.84,3.63,3.63,0,0,1-1.36,1.25,3.48,3.48,0,0,1-2,.36v-3.85a1.47,1.47,0,0,0,.82-.29,1.58,1.58,0,0,0,.53-.72,2.85,2.85,0,0,0,.19-1.1,5.22,5.22,0,0,0-.12-1.13,2.23,2.23,0,0,0-.38-.9,1.09,1.09,0,0,0-.76-.45.61.61,0,0,0-.64.24,2.17,2.17,0,0,0-.35.81,10.83,10.83,0,0,0-.22,1.08l-.36,2.08a3.74,3.74,0,0,1-1.28,2.42,3.45,3.45,0,0,1-2.77.6,4.19,4.19,0,0,1-2.37-1.13A6,6,0,0,1,3,733.06a8.45,8.45,0,0,1-.52-3,6.38,6.38,0,0,1,.61-2.91,4.74,4.74,0,0,1,1.6-1.86,3.47,3.47,0,0,1,2.12-.59v3.77a1.43,1.43,0,0,0-.86.18,1.25,1.25,0,0,0-.47.66,3.41,3.41,0,0,0-.15,1.09,3.34,3.34,0,0,0,.17,1.16,1.55,1.55,0,0,0,.41.65,1.12,1.12,0,0,0,.5.25.9.9,0,0,0,.75-.2,2.21,2.21,0,0,0,.45-1.14L8,729.06a5.75,5.75,0,0,1,.79-2.24A3,3,0,0,1,10,725.74a3.26,3.26,0,0,1,1.34-.3,7,7,0,0,1,1.17.06,3.73,3.73,0,0,1,2.1,1.11A6.53,6.53,0,0,1,16,729,9.32,9.32,0,0,1,16.56,732.17Z" transform="translate(-2.44 -1.86)"/><path class="cls-1" d="M12.25,717a2.79,2.79,0,0,1-.39,1.45,3,3,0,0,1-1,1,2.78,2.78,0,0,1-1.44.39A2.72,2.72,0,0,1,8,719.49a3,3,0,0,1-1-1,2.89,2.89,0,0,1,0-2.9,3,3,0,0,1,1-1,2.64,2.64,0,0,1,1.43-.4,2.7,2.7,0,0,1,1.44.4,3,3,0,0,1,1,1A2.76,2.76,0,0,1,12.25,717Z" transform="translate(-2.44 -1.86)"/><path class="cls-1" d="M16.37,709.06,2.63,707v-5.52a6.62,6.62,0,0,1,.94-4.06,2.7,2.7,0,0,1,2.69-.92,3.57,3.57,0,0,1,1.68.75,5.26,5.26,0,0,1,1.36,2,3.58,3.58,0,0,1,.67-1.33,2.26,2.26,0,0,1,.88-.62,2.77,2.77,0,0,1,.93-.17,7.31,7.31,0,0,1,.85.07,3.89,3.89,0,0,1,2.83,1.71,8.39,8.39,0,0,1,.91,4.41Zm-8.38-5v-2.34a1.64,1.64,0,0,0-.1-.6,1.59,1.59,0,0,0-.26-.48,1.35,1.35,0,0,0-.4-.35,1.45,1.45,0,0,0-.49-.18,1,1,0,0,0-1,.3,1.52,1.52,0,0,0-.35,1.07v2.18Zm5.6.84v-2.22a1.81,1.81,0,0,0-.44-1.29,1.69,1.69,0,0,0-1-.57,1.11,1.11,0,0,0-.68.09,1.07,1.07,0,0,0-.47.47,1.55,1.55,0,0,0-.18.78v2.32Z" transform="translate(-2.44 -1.86)"/><path class="cls-1" d="M16.37,695.7,2.63,693.6v-6.26a5.61,5.61,0,0,1,.59-2.8,2.84,2.84,0,0,1,1.59-1.34,4.64,4.64,0,0,1,2.25-.15,5.6,5.6,0,0,1,1.8.56,4.6,4.6,0,0,1,1.27,1,6.55,6.55,0,0,1,.92,1.27l5.32-1.61V688l-4.73,1.28v2l4.73.72Zm-7.49-4.87v-2.12a1.59,1.59,0,0,0-.26-.89,2.44,2.44,0,0,0-.67-.69,2.06,2.06,0,0,0-.85-.34,1.41,1.41,0,0,0-1.22.32,1.34,1.34,0,0,0-.51,1.06v2.13Z" transform="translate(-2.44 -1.86)"/><path class="cls-1" d="M16.37,683.08l-13.74-7V672.3l13.74-2.78v3.66l-2.66.5V678l2.66,1.34Zm-5.82-6.31v-2.72l-4.38.67Z" transform="translate(-2.44 -1.86)"/><path class="cls-1" d="M16.56,662.08a6.51,6.51,0,0,1-.74,3.41A3.4,3.4,0,0,1,13.76,667a7.57,7.57,0,0,1-3.07.09l-8.06-1.22v-3.77l8.21,1.26a3.08,3.08,0,0,0,1.52-.07,1.54,1.54,0,0,0,.84-.69,2.08,2.08,0,0,0,.26-1,2.58,2.58,0,0,0-.6-1.62,3,3,0,0,0-2-1l-8.21-1.25V654l8.06,1.23a8.77,8.77,0,0,1,3.07,1,5.35,5.35,0,0,1,2.06,2.18A7.83,7.83,0,0,1,16.56,662.08Z" transform="translate(-2.44 -1.86)"/><path class="cls-1" d="M16.56,647.62a5.81,5.81,0,0,1-.74,3,5,5,0,0,1-2.05,1.92,6.7,6.7,0,0,1-3,.66,9.4,9.4,0,0,1-3-.49,8.08,8.08,0,0,1-2.67-1.46,7.08,7.08,0,0,1-1.9-2.42,7.68,7.68,0,0,1-.71-3.38,6,6,0,0,1,.6-2.79,4.13,4.13,0,0,1,1.71-1.8,5.54,5.54,0,0,1,2.73-.63v3.86a2.84,2.84,0,0,0-1.11.23,1.6,1.6,0,0,0-.71.65,2.07,2.07,0,0,0-.25,1.07,2.24,2.24,0,0,0,.52,1.51,3.71,3.71,0,0,0,1.36,1,7.48,7.48,0,0,0,1.8.51,11.71,11.71,0,0,0,1.83.16,3.17,3.17,0,0,0,2.05-.53,1.68,1.68,0,0,0,.62-1.37,2.06,2.06,0,0,0-.32-1.15,2.88,2.88,0,0,0-.86-.88,4.23,4.23,0,0,0-1.17-.57v-3.88a11.48,11.48,0,0,1,2,.8A6.45,6.45,0,0,1,15,642.88a5.6,5.6,0,0,1,1.17,1.93A8.28,8.28,0,0,1,16.56,647.62Z" transform="translate(-2.44 -1.86)"/><path class="cls-1" d="M16.37,639.38l-13.74-2.1v-3.72l13.74,2.09Z" transform="translate(-2.44 -1.86)"/><path class="cls-1" d="M16.37,632.92,2.63,630.8V620.63l3.06.48v6.43l2.28.34v-5.36l3,.45v5.39l2.34.37v-6.49l3.08.48Z" transform="translate(-2.44 -1.86)"/><path class="cls-1" d="M16.37,620.45,2.63,618.33v-3.74l7.66-4.2-7.66-1.16V605.5l13.74,2.12V611l-8.19,4.51,8.19,1.24Z" transform="translate(-2.44 -1.86)"/><path class="cls-1" d="M16.56,599.18a9.23,9.23,0,0,1-.25,2.11,5.76,5.76,0,0,1-.79,1.84,3.63,3.63,0,0,1-1.36,1.25,3.48,3.48,0,0,1-2,.36v-3.85a1.47,1.47,0,0,0,.82-.29,1.58,1.58,0,0,0,.53-.72,2.85,2.85,0,0,0,.19-1.1,5.22,5.22,0,0,0-.12-1.13,2.23,2.23,0,0,0-.38-.9,1.09,1.09,0,0,0-.76-.45.63.63,0,0,0-.64.24,2.17,2.17,0,0,0-.35.81,10.83,10.83,0,0,0-.22,1.08l-.36,2.08a3.74,3.74,0,0,1-1.28,2.42,3.45,3.45,0,0,1-2.77.6,4.19,4.19,0,0,1-2.37-1.13A6,6,0,0,1,3,600.07a8.41,8.41,0,0,1-.52-3,6.38,6.38,0,0,1,.61-2.91,4.74,4.74,0,0,1,1.6-1.86,3.54,3.54,0,0,1,2.12-.59v3.77a1.43,1.43,0,0,0-.86.18,1.25,1.25,0,0,0-.47.66,3.41,3.41,0,0,0-.15,1.09,3.34,3.34,0,0,0,.17,1.16,1.55,1.55,0,0,0,.41.65,1.12,1.12,0,0,0,.5.25.87.87,0,0,0,.75-.2,2.21,2.21,0,0,0,.45-1.14L8,596.07a5.81,5.81,0,0,1,.79-2.24A3,3,0,0,1,10,592.75a3.42,3.42,0,0,1,1.34-.3,7,7,0,0,1,1.17.06,3.73,3.73,0,0,1,2.1,1.11A6.49,6.49,0,0,1,16,596,9.22,9.22,0,0,1,16.56,599.18Z" transform="translate(-2.44 -1.86)"/><path class="cls-1" d="M12.25,584a2.8,2.8,0,0,1-.39,1.46,3,3,0,0,1-1,1,2.78,2.78,0,0,1-1.44.39A2.72,2.72,0,0,1,8,586.5a2.93,2.93,0,0,1-1-1,2.91,2.91,0,0,1,0-2.91,3,3,0,0,1,1-1,2.72,2.72,0,0,1,1.43-.39,2.78,2.78,0,0,1,1.44.39,3,3,0,0,1,1,1A2.79,2.79,0,0,1,12.25,584Z" transform="translate(-2.44 -1.86)"/><path class="cls-1" d="M16.37,576.06,2.63,574v-5.51a6.6,6.6,0,0,1,.94-4.06,2.68,2.68,0,0,1,2.69-.92,3.55,3.55,0,0,1,1.68.74,5.4,5.4,0,0,1,1.36,2,3.5,3.5,0,0,1,.67-1.33,2.29,2.29,0,0,1,.88-.63,2.76,2.76,0,0,1,.93-.16,5.67,5.67,0,0,1,.85.06,3.92,3.92,0,0,1,2.83,1.71,8.44,8.44,0,0,1,.91,4.41Zm-8.38-5v-2.34a1.64,1.64,0,0,0-.1-.6,1.53,1.53,0,0,0-.26-.49,1.32,1.32,0,0,0-.4-.34,1.45,1.45,0,0,0-.49-.18,1,1,0,0,0-1,.29,1.56,1.56,0,0,0-.35,1.08v2.17Zm5.6.84v-2.22a1.81,1.81,0,0,0-.44-1.29,1.66,1.66,0,0,0-1-.58,1.18,1.18,0,0,0-.68.1,1,1,0,0,0-.47.47,1.55,1.55,0,0,0-.18.78v2.32Z" transform="translate(-2.44 -1.86)"/><path class="cls-1" d="M16.37,562.7,2.63,560.6v-6.25a5.58,5.58,0,0,1,.59-2.8,2.9,2.9,0,0,1,1.59-1.35,4.9,4.9,0,0,1,2.25-.15,5.86,5.86,0,0,1,1.8.56,4.8,4.8,0,0,1,1.27,1,6.86,6.86,0,0,1,.92,1.27l5.32-1.61V555l-4.73,1.28v1.95l4.73.72Zm-7.49-4.86v-2.13a1.56,1.56,0,0,0-.26-.88,2.21,2.21,0,0,0-.67-.69,2.08,2.08,0,0,0-.85-.35,1.44,1.44,0,0,0-1.22.32,1.37,1.37,0,0,0-.51,1.06v2.13Z" transform="translate(-2.44 -1.86)"/><path class="cls-1" d="M16.37,550.1l-13.74-7v-3.77l13.74-2.79v3.67l-2.66.5v4.35l2.66,1.34Zm-5.82-6.31v-2.73l-4.38.67Z" transform="translate(-2.44 -1.86)"/><path class="cls-1" d="M16.56,529.09a6.53,6.53,0,0,1-.74,3.42,3.39,3.39,0,0,1-2.06,1.54,7.56,7.56,0,0,1-3.07.1l-8.06-1.23v-3.77l8.21,1.27a3.06,3.06,0,0,0,1.52-.08,1.53,1.53,0,0,0,.84-.68,2.11,2.11,0,0,0,.26-1,2.58,2.58,0,0,0-.6-1.62,3,3,0,0,0-2-1l-8.21-1.25V521l8.06,1.23a8.76,8.76,0,0,1,3.07,1,5.35,5.35,0,0,1,2.06,2.18A7.89,7.89,0,0,1,16.56,529.09Z" transform="translate(-2.44 -1.86)"/><path class="cls-1" d="M16.56,514.61a5.81,5.81,0,0,1-.74,3,5,5,0,0,1-2.05,1.92,6.7,6.7,0,0,1-3,.66,9.67,9.67,0,0,1-3-.48,8.29,8.29,0,0,1-2.67-1.47,7.08,7.08,0,0,1-1.9-2.42,7.68,7.68,0,0,1-.71-3.38,6,6,0,0,1,.6-2.79,4.13,4.13,0,0,1,1.71-1.8,5.54,5.54,0,0,1,2.73-.63v3.86a2.84,2.84,0,0,0-1.11.23,1.6,1.6,0,0,0-.71.65A2.07,2.07,0,0,0,5.41,513a2.24,2.24,0,0,0,.52,1.51,3.71,3.71,0,0,0,1.36,1,7.48,7.48,0,0,0,1.8.51,10.62,10.62,0,0,0,1.83.16,3.17,3.17,0,0,0,2.05-.53,1.67,1.67,0,0,0,.62-1.37,2.08,2.08,0,0,0-.32-1.15,3,3,0,0,0-.86-.88,4.23,4.23,0,0,0-1.17-.57V507.8a11.48,11.48,0,0,1,2,.8A6.45,6.45,0,0,1,15,509.87a5.6,5.6,0,0,1,1.17,1.93A8.28,8.28,0,0,1,16.56,514.61Z" transform="translate(-2.44 -1.86)"/><path class="cls-1" d="M16.37,506.4,2.63,504.3v-3.72l13.74,2.09Z" transform="translate(-2.44 -1.86)"/><path class="cls-1" d="M16.37,500,2.63,497.83V487.66l3.06.48v6.43l2.28.34v-5.36l3,.45v5.39l2.34.37v-6.49l3.08.48Z" transform="translate(-2.44 -1.86)"/><path class="cls-1" d="M16.37,487.44,2.63,485.32v-3.74l7.66-4.2-7.66-1.16v-3.73l13.74,2.12V478l-8.19,4.5,8.19,1.25Z" transform="translate(-2.44 -1.86)"/><path class="cls-1" d="M16.56,466.18a9.38,9.38,0,0,1-.25,2.12,5.7,5.7,0,0,1-.79,1.83,3.45,3.45,0,0,1-3.33,1.62v-3.86a1.47,1.47,0,0,0,.82-.29,1.58,1.58,0,0,0,.53-.72,2.78,2.78,0,0,0,.19-1.1,5.13,5.13,0,0,0-.12-1.12,2.28,2.28,0,0,0-.38-.91,1.08,1.08,0,0,0-.76-.44.6.6,0,0,0-.64.23,2.17,2.17,0,0,0-.35.81,10.83,10.83,0,0,0-.22,1.08l-.36,2.09a3.77,3.77,0,0,1-1.28,2.42,3.53,3.53,0,0,1-2.77.6,4.27,4.27,0,0,1-2.37-1.14A5.94,5.94,0,0,1,3,467.07a8.37,8.37,0,0,1-.52-3,6.38,6.38,0,0,1,.61-2.91,4.64,4.64,0,0,1,1.6-1.85,3.55,3.55,0,0,1,2.12-.6v3.77a1.36,1.36,0,0,0-.86.19,1.19,1.19,0,0,0-.47.65,3.48,3.48,0,0,0-.15,1.1,3.38,3.38,0,0,0,.17,1.16,1.51,1.51,0,0,0,.41.64,1.12,1.12,0,0,0,.5.25.87.87,0,0,0,.75-.2,2.13,2.13,0,0,0,.45-1.13L8,463.08a5.86,5.86,0,0,1,.79-2.25A3,3,0,0,1,10,459.76a3.44,3.44,0,0,1,1.34-.31,6.94,6.94,0,0,1,1.17.07,3.66,3.66,0,0,1,2.1,1.1A6.49,6.49,0,0,1,16,463,9.26,9.26,0,0,1,16.56,466.18Z" transform="translate(-2.44 -1.86)"/><path class="cls-1" d="M12.25,451a2.76,2.76,0,0,1-.39,1.45,3,3,0,0,1-1,1.05,2.78,2.78,0,0,1-1.44.39A2.72,2.72,0,0,1,8,453.5a3,3,0,0,1-1-1.05,2.89,2.89,0,0,1,0-2.9,3,3,0,0,1,1-1.05,2.64,2.64,0,0,1,1.43-.4,2.7,2.7,0,0,1,1.44.4,3,3,0,0,1,1,1.05A2.79,2.79,0,0,1,12.25,451Z" transform="translate(-2.44 -1.86)"/><path class="cls-1" d="M16.37,443.07,2.63,441v-5.51a6.6,6.6,0,0,1,.94-4.06,2.68,2.68,0,0,1,2.69-.92,3.55,3.55,0,0,1,1.68.74,5.44,5.44,0,0,1,1.36,2,3.53,3.53,0,0,1,.67-1.32,2.19,2.19,0,0,1,.88-.63,2.76,2.76,0,0,1,.93-.16,5.67,5.67,0,0,1,.85.06,3.92,3.92,0,0,1,2.83,1.71,8.44,8.44,0,0,1,.91,4.41Zm-8.38-5v-2.34a1.64,1.64,0,0,0-.1-.6,1.53,1.53,0,0,0-.26-.49,1.32,1.32,0,0,0-.4-.34,1.72,1.72,0,0,0-.49-.19,1,1,0,0,0-1,.3,1.56,1.56,0,0,0-.35,1.08v2.17Zm5.6.84v-2.23a1.84,1.84,0,0,0-.44-1.29,1.69,1.69,0,0,0-1-.57,1.18,1.18,0,0,0-.68.1,1,1,0,0,0-.47.47,1.55,1.55,0,0,0-.18.78v2.32Z" transform="translate(-2.44 -1.86)"/><path class="cls-1" d="M16.37,429.73l-13.74-2.1v-6.26a5.61,5.61,0,0,1,.59-2.8,2.84,2.84,0,0,1,1.59-1.34,4.64,4.64,0,0,1,2.25-.15,5.6,5.6,0,0,1,1.8.56,4.6,4.6,0,0,1,1.27,1,6.55,6.55,0,0,1,.92,1.27l5.32-1.61v3.79l-4.73,1.28v2l4.73.71Zm-7.49-4.87v-2.13a1.58,1.58,0,0,0-.26-.88,2.44,2.44,0,0,0-.67-.69,2.06,2.06,0,0,0-.85-.34,1.41,1.41,0,0,0-1.22.32,1.34,1.34,0,0,0-.51,1.06v2.13Z" transform="translate(-2.44 -1.86)"/><path class="cls-1" d="M16.37,417.11l-13.74-7v-3.78l13.74-2.78v3.66l-2.66.5v4.36l2.66,1.34Zm-5.82-6.31v-2.72l-4.38.67Z" transform="translate(-2.44 -1.86)"/><path class="cls-1" d="M16.56,396.09a6.58,6.58,0,0,1-.74,3.42,3.43,3.43,0,0,1-2.06,1.54,7.56,7.56,0,0,1-3.07.1l-8.06-1.23v-3.77l8.21,1.26a3.08,3.08,0,0,0,1.52-.07,1.57,1.57,0,0,0,.84-.68,2.15,2.15,0,0,0,.26-1.05,2.54,2.54,0,0,0-.6-1.61,3,3,0,0,0-2-1l-8.21-1.24V388l8.06,1.22a8.77,8.77,0,0,1,3.07,1,5.35,5.35,0,0,1,2.06,2.18A7.83,7.83,0,0,1,16.56,396.09Z" transform="translate(-2.44 -1.86)"/><path class="cls-1" d="M16.56,381.64a5.88,5.88,0,0,1-.74,3,5,5,0,0,1-2.05,1.91,6.7,6.7,0,0,1-3,.67,9.68,9.68,0,0,1-3-.49,8.29,8.29,0,0,1-2.67-1.47,7,7,0,0,1-1.9-2.42,7.68,7.68,0,0,1-.71-3.38A6,6,0,0,1,3,376.7a4.16,4.16,0,0,1,1.71-1.81,5.54,5.54,0,0,1,2.73-.63v3.86a2.84,2.84,0,0,0-1.11.23,1.6,1.6,0,0,0-.71.65,2.07,2.07,0,0,0-.25,1.07,2.24,2.24,0,0,0,.52,1.51,3.71,3.71,0,0,0,1.36,1,7.48,7.48,0,0,0,1.8.51,10.62,10.62,0,0,0,1.83.16,3.17,3.17,0,0,0,2.05-.53,1.67,1.67,0,0,0,.62-1.37,2.08,2.08,0,0,0-.32-1.15,3,3,0,0,0-.86-.88,4.23,4.23,0,0,0-1.17-.57v-3.88a11.48,11.48,0,0,1,2,.8A6.45,6.45,0,0,1,15,376.9a5.6,5.6,0,0,1,1.17,1.93A8.28,8.28,0,0,1,16.56,381.64Z" transform="translate(-2.44 -1.86)"/><path class="cls-1" d="M16.37,373.4,2.63,371.29v-3.72l13.74,2.09Z" transform="translate(-2.44 -1.86)"/><path class="cls-1" d="M16.37,367,2.63,364.84V354.67l3.06.48v6.42l2.28.35v-5.36l3,.45v5.39l2.34.36v-6.48l3.08.48Z" transform="translate(-2.44 -1.86)"/><path class="cls-1" d="M16.37,354.46,2.63,352.34V348.6l7.66-4.2-7.66-1.16v-3.73l13.74,2.12V345l-8.19,4.51,8.19,1.25Z" transform="translate(-2.44 -1.86)"/><path class="cls-1" d="M16.56,333.18a9.23,9.23,0,0,1-.25,2.11,5.76,5.76,0,0,1-.79,1.84,3.55,3.55,0,0,1-1.36,1.25,3.48,3.48,0,0,1-2,.36v-3.85a1.47,1.47,0,0,0,.82-.29,1.58,1.58,0,0,0,.53-.72,2.81,2.81,0,0,0,.19-1.1,5.06,5.06,0,0,0-.12-1.12,2.28,2.28,0,0,0-.38-.91,1.09,1.09,0,0,0-.76-.45.63.63,0,0,0-.64.24,2.17,2.17,0,0,0-.35.81,10.83,10.83,0,0,0-.22,1.08l-.36,2.08a3.79,3.79,0,0,1-1.28,2.43,3.49,3.49,0,0,1-2.77.59,4.19,4.19,0,0,1-2.37-1.13A6,6,0,0,1,3,334.07a8.41,8.41,0,0,1-.52-3,6.38,6.38,0,0,1,.61-2.91,4.74,4.74,0,0,1,1.6-1.86,3.61,3.61,0,0,1,2.12-.59v3.77a1.43,1.43,0,0,0-.86.18,1.25,1.25,0,0,0-.47.66,3.48,3.48,0,0,0-.15,1.1,3.43,3.43,0,0,0,.17,1.16,1.51,1.51,0,0,0,.41.64,1.12,1.12,0,0,0,.5.25.87.87,0,0,0,.75-.2,2.17,2.17,0,0,0,.45-1.14L8,330.07a5.81,5.81,0,0,1,.79-2.24A3,3,0,0,1,10,326.75a3.42,3.42,0,0,1,1.34-.3,6,6,0,0,1,1.17.07,3.66,3.66,0,0,1,2.1,1.1A6.49,6.49,0,0,1,16,330,9.22,9.22,0,0,1,16.56,333.18Z" transform="translate(-2.44 -1.86)"/><path class="cls-1" d="M12.25,318a2.83,2.83,0,0,1-.39,1.46,3,3,0,0,1-1,1,2.78,2.78,0,0,1-1.44.39A2.72,2.72,0,0,1,8,320.5a2.93,2.93,0,0,1-1-1A2.83,2.83,0,0,1,6.53,318a2.79,2.79,0,0,1,.39-1.45,3,3,0,0,1,1-1.05,2.72,2.72,0,0,1,1.43-.39,2.78,2.78,0,0,1,1.44.39,3,3,0,0,1,1,1.05A2.79,2.79,0,0,1,12.25,318Z" transform="translate(-2.44 -1.86)"/><path class="cls-1" d="M16.37,310.08,2.63,308v-5.51a6.65,6.65,0,0,1,.94-4.07,2.69,2.69,0,0,1,2.69-.91,3.55,3.55,0,0,1,1.68.74,5.35,5.35,0,0,1,1.36,2,3.66,3.66,0,0,1,.67-1.33,2.26,2.26,0,0,1,.88-.62,2.76,2.76,0,0,1,.93-.16,5.67,5.67,0,0,1,.85.06,3.92,3.92,0,0,1,2.83,1.71,8.41,8.41,0,0,1,.91,4.41Zm-8.38-5v-2.34a1.72,1.72,0,0,0-.1-.6,1.59,1.59,0,0,0-.26-.48,1.35,1.35,0,0,0-.4-.35,1.7,1.7,0,0,0-.49-.18,1,1,0,0,0-1,.3,1.55,1.55,0,0,0-.35,1.07v2.18Zm5.6.85V303.7a1.84,1.84,0,0,0-.44-1.29,1.69,1.69,0,0,0-1-.57,1.11,1.11,0,0,0-.68.09,1.07,1.07,0,0,0-.47.47,1.62,1.62,0,0,0-.18.79v2.32Z" transform="translate(-2.44 -1.86)"/><path class="cls-1" d="M16.37,296.73l-13.74-2.1v-6.25a5.58,5.58,0,0,1,.59-2.8,2.9,2.9,0,0,1,1.59-1.35,4.64,4.64,0,0,1,2.25-.15,5.86,5.86,0,0,1,1.8.56,4.8,4.8,0,0,1,1.27,1,6.55,6.55,0,0,1,.92,1.27l5.32-1.61v3.8l-4.73,1.27v2l4.73.72Zm-7.49-4.86v-2.13a1.56,1.56,0,0,0-.26-.88,2.21,2.21,0,0,0-.67-.69,2.08,2.08,0,0,0-.85-.35,1.41,1.41,0,0,0-1.22.32,1.35,1.35,0,0,0-.51,1.06v2.13Z" transform="translate(-2.44 -1.86)"/><path class="cls-1" d="M16.37,284.11l-13.74-7v-3.78l13.74-2.78v3.66l-2.66.5v4.35l2.66,1.35Zm-5.82-6.31v-2.73l-4.38.68Z" transform="translate(-2.44 -1.86)"/><path class="cls-1" d="M16.56,263.12a6.51,6.51,0,0,1-.74,3.41,3.44,3.44,0,0,1-2.06,1.55,7.75,7.75,0,0,1-3.07.09l-8.06-1.23v-3.77l8.21,1.27a3,3,0,0,0,1.52-.08,1.49,1.49,0,0,0,.84-.68,2.08,2.08,0,0,0,.26-1,2.58,2.58,0,0,0-.6-1.62,3,3,0,0,0-2-1L2.63,258.8V255l8.06,1.23a8.57,8.57,0,0,1,3.07,1,5.29,5.29,0,0,1,2.06,2.18A7.83,7.83,0,0,1,16.56,263.12Z" transform="translate(-2.44 -1.86)"/><path class="cls-1" d="M16.56,248.65a5.84,5.84,0,0,1-.74,3,5,5,0,0,1-2.05,1.91,6.58,6.58,0,0,1-3,.67,9.68,9.68,0,0,1-3-.49,8.46,8.46,0,0,1-2.67-1.46,7,7,0,0,1-1.9-2.43,7.68,7.68,0,0,1-.71-3.38A6,6,0,0,1,3,243.7a4.21,4.21,0,0,1,1.71-1.81,5.54,5.54,0,0,1,2.73-.63v3.87a2.53,2.53,0,0,0-1.11.23,1.53,1.53,0,0,0-.71.64,2.09,2.09,0,0,0-.25,1.07,2.22,2.22,0,0,0,.52,1.51,3.71,3.71,0,0,0,1.36,1,8,8,0,0,0,1.8.52,11.67,11.67,0,0,0,1.83.15,3.18,3.18,0,0,0,2.05-.52,1.7,1.7,0,0,0,.62-1.38,2.1,2.1,0,0,0-.32-1.15,3,3,0,0,0-.86-.88,4.88,4.88,0,0,0-1.17-.57v-3.87a11.45,11.45,0,0,1,2,.79A6.45,6.45,0,0,1,15,243.9a5.7,5.7,0,0,1,1.17,1.93A8.3,8.3,0,0,1,16.56,248.65Z" transform="translate(-2.44 -1.86)"/><path class="cls-1" d="M16.37,240.42l-13.74-2.1V234.6l13.74,2.09Z" transform="translate(-2.44 -1.86)"/><path class="cls-1" d="M16.37,234,2.63,231.83V221.67l3.06.48v6.42l2.28.35v-5.36l3,.45v5.39l2.34.36v-6.48l3.08.48Z" transform="translate(-2.44 -1.86)"/><path class="cls-1" d="M16.37,221.47,2.63,219.35v-3.74l7.66-4.2-7.66-1.16v-3.73l13.74,2.12V212L8.18,216.5l8.19,1.24Z" transform="translate(-2.44 -1.86)"/><path class="cls-1" d="M16.56,200.21a9.3,9.3,0,0,1-.25,2.11,5.76,5.76,0,0,1-.79,1.84,3.71,3.71,0,0,1-1.36,1.25,3.48,3.48,0,0,1-2,.36v-3.86a1.47,1.47,0,0,0,.82-.28,1.7,1.7,0,0,0,.53-.72,2.87,2.87,0,0,0,.19-1.11,5.13,5.13,0,0,0-.12-1.12,2.28,2.28,0,0,0-.38-.91,1.12,1.12,0,0,0-.76-.44.6.6,0,0,0-.64.23,2.33,2.33,0,0,0-.35.81,10.49,10.49,0,0,0-.22,1.09l-.36,2.08A3.74,3.74,0,0,1,9.62,204a3.53,3.53,0,0,1-2.77.6,4.14,4.14,0,0,1-2.37-1.14A5.94,5.94,0,0,1,3,201.09a8.36,8.36,0,0,1-.52-3,6.32,6.32,0,0,1,.61-2.91,4.74,4.74,0,0,1,1.6-1.86,3.55,3.55,0,0,1,2.12-.6v3.77a1.43,1.43,0,0,0-.86.19,1.18,1.18,0,0,0-.47.66,3.41,3.41,0,0,0-.15,1.09,3.34,3.34,0,0,0,.17,1.16,1.55,1.55,0,0,0,.41.65,1,1,0,0,0,.5.24.86.86,0,0,0,.75-.19,2.21,2.21,0,0,0,.45-1.14L8,197.1a5.86,5.86,0,0,1,.79-2.25A3,3,0,0,1,10,193.78a3.44,3.44,0,0,1,1.34-.31,8.17,8.17,0,0,1,1.17.07,3.72,3.72,0,0,1,2.1,1.1A6.57,6.57,0,0,1,16,197,9.32,9.32,0,0,1,16.56,200.21Z" transform="translate(-2.44 -1.86)"/><path class="cls-1" d="M12.25,185a2.79,2.79,0,0,1-.39,1.45,3,3,0,0,1-1,1.05,2.78,2.78,0,0,1-1.44.39A2.72,2.72,0,0,1,8,187.52a3,3,0,0,1-1-1.05,2.89,2.89,0,0,1,0-2.9,3,3,0,0,1,1-1,2.64,2.64,0,0,1,1.43-.4,2.7,2.7,0,0,1,1.44.4,3,3,0,0,1,1,1A2.76,2.76,0,0,1,12.25,185Z" transform="translate(-2.44 -1.86)"/><path class="cls-1" d="M16.37,177.09,2.63,175v-5.51a6.6,6.6,0,0,1,.94-4.06,2.68,2.68,0,0,1,2.69-.92,3.55,3.55,0,0,1,1.68.74,5.4,5.4,0,0,1,1.36,2,3.5,3.5,0,0,1,.67-1.33,2.29,2.29,0,0,1,.88-.63,2.76,2.76,0,0,1,.93-.16,5.67,5.67,0,0,1,.85.06,3.92,3.92,0,0,1,2.83,1.71,8.44,8.44,0,0,1,.91,4.41ZM8,172.1v-2.34a1.64,1.64,0,0,0-.1-.6,1.53,1.53,0,0,0-.26-.49,1.32,1.32,0,0,0-.4-.34,1.45,1.45,0,0,0-.49-.18,1,1,0,0,0-1,.29,1.56,1.56,0,0,0-.35,1.08v2.17Zm5.6.84v-2.22a1.81,1.81,0,0,0-.44-1.29,1.66,1.66,0,0,0-1-.58,1.18,1.18,0,0,0-.68.1,1,1,0,0,0-.47.47,1.55,1.55,0,0,0-.18.78v2.32Z" transform="translate(-2.44 -1.86)"/><path class="cls-1" d="M16.37,163.73l-13.74-2.1v-6.25a5.61,5.61,0,0,1,.59-2.8,2.9,2.9,0,0,1,1.59-1.35,4.9,4.9,0,0,1,2.25-.15,5.6,5.6,0,0,1,1.8.57,4.57,4.57,0,0,1,1.27,1,6.86,6.86,0,0,1,.92,1.27l5.32-1.61v3.8l-4.73,1.28v2l4.73.72Zm-7.49-4.86v-2.13a1.58,1.58,0,0,0-.26-.88,2.44,2.44,0,0,0-.67-.69,2.08,2.08,0,0,0-.85-.35,1.45,1.45,0,0,0-1.22.33,1.34,1.34,0,0,0-.51,1.06v2.12Z" transform="translate(-2.44 -1.86)"/><path class="cls-1" d="M16.37,151.12l-13.74-7v-3.77l13.74-2.79v3.67l-2.66.5v4.35l2.66,1.34Zm-5.82-6.32v-2.72l-4.38.67Z" transform="translate(-2.44 -1.86)"/><path class="cls-1" d="M16.56,130.11a6.51,6.51,0,0,1-.74,3.41,3.39,3.39,0,0,1-2.06,1.54,7.56,7.56,0,0,1-3.07.1l-8.06-1.23v-3.77l8.21,1.27a3,3,0,0,0,1.52-.08,1.49,1.49,0,0,0,.84-.68,2.08,2.08,0,0,0,.26-1,2.58,2.58,0,0,0-.6-1.62,3,3,0,0,0-2-1l-8.21-1.25V122l8.06,1.23a8.76,8.76,0,0,1,3.07,1,5.38,5.38,0,0,1,2.06,2.19A7.83,7.83,0,0,1,16.56,130.11Z" transform="translate(-2.44 -1.86)"/><path class="cls-1" d="M16.56,115.64a5.81,5.81,0,0,1-.74,3,5,5,0,0,1-2.05,1.92,6.7,6.7,0,0,1-3,.66,9.67,9.67,0,0,1-3-.48,8.29,8.29,0,0,1-2.67-1.47,7.08,7.08,0,0,1-1.9-2.42,7.68,7.68,0,0,1-.71-3.38,6,6,0,0,1,.6-2.79,4.13,4.13,0,0,1,1.71-1.8,5.54,5.54,0,0,1,2.73-.63v3.86a2.84,2.84,0,0,0-1.11.23,1.6,1.6,0,0,0-.71.65,2.07,2.07,0,0,0-.25,1.07,2.24,2.24,0,0,0,.52,1.51,3.71,3.71,0,0,0,1.36,1,7.48,7.48,0,0,0,1.8.51,10.62,10.62,0,0,0,1.83.16,3.17,3.17,0,0,0,2.05-.53,1.67,1.67,0,0,0,.62-1.37,2.08,2.08,0,0,0-.32-1.15,3,3,0,0,0-.86-.88,4.23,4.23,0,0,0-1.17-.57v-3.88a11.48,11.48,0,0,1,2,.8A6.45,6.45,0,0,1,15,110.9a5.6,5.6,0,0,1,1.17,1.93A8.28,8.28,0,0,1,16.56,115.64Z" transform="translate(-2.44 -1.86)"/><path class="cls-1" d="M16.37,107.41l-13.74-2.1v-3.72l13.74,2.09Z" transform="translate(-2.44 -1.86)"/><path class="cls-1" d="M16.37,101,2.63,98.84V88.67l3.06.48v6.43L8,95.92V90.56L11,91V96.4l2.34.37V90.28l3.08.48Z" transform="translate(-2.44 -1.86)"/><path class="cls-1" d="M16.37,88.48,2.63,86.37V82.62l7.66-4.2L2.63,77.26V73.53l13.74,2.12V79L8.18,83.51l8.19,1.24Z" transform="translate(-2.44 -1.86)"/><path class="cls-1" d="M16.74,67.64a9.21,9.21,0,0,1-.41,2.09,5.7,5.7,0,0,1-.91,1.77A3.76,3.76,0,0,1,14,72.66a3.54,3.54,0,0,1-2,.21L12.26,69a1.47,1.47,0,0,0,.84-.23,1.7,1.7,0,0,0,.58-.68A3.06,3.06,0,0,0,13.94,67a5.19,5.19,0,0,0,0-1.12,2.37,2.37,0,0,0-.32-.94,1.15,1.15,0,0,0-.72-.49.63.63,0,0,0-.67.18,2.25,2.25,0,0,0-.4.79c-.11.33-.21.68-.3,1.06l-.51,2a3.73,3.73,0,0,1-1.44,2.33,3.55,3.55,0,0,1-2.81.4A4.23,4.23,0,0,1,4.46,70a6.11,6.11,0,0,1-1.33-2.43,8.61,8.61,0,0,1-.31-3,6.46,6.46,0,0,1,.82-2.86A4.59,4.59,0,0,1,5.37,60a3.49,3.49,0,0,1,2.15-.44l-.26,3.76a1.39,1.39,0,0,0-.87.12,1.24,1.24,0,0,0-.53.63,3.66,3.66,0,0,0-.22,1.08,3.5,3.5,0,0,0,.08,1.17,1.57,1.57,0,0,0,.37.67,1.1,1.1,0,0,0,.48.28.87.87,0,0,0,.77-.14A2.18,2.18,0,0,0,7.86,66l.51-2.06a5.78,5.78,0,0,1,1-2.18,2.91,2.91,0,0,1,1.29-1A3.23,3.23,0,0,1,12,60.55a6.19,6.19,0,0,1,1.17.15,3.68,3.68,0,0,1,2,1.25,6.37,6.37,0,0,1,1.28,2.47A9.13,9.13,0,0,1,16.74,67.64Z" transform="translate(-2.44 -1.86)"/><path class="cls-1" d="M14.64,52.57a2.76,2.76,0,0,1-.72,1.32,2.88,2.88,0,0,1-1.25.78,2.79,2.79,0,0,1-1.49,0A2.72,2.72,0,0,1,9.88,54a2.91,2.91,0,0,1-.76-1.26,2.72,2.72,0,0,1,0-1.5,2.68,2.68,0,0,1,.72-1.32A3,3,0,0,1,11,49.14a2.72,2.72,0,0,1,1.47,0,2.76,2.76,0,0,1,1.31.71,3,3,0,0,1,.77,1.27A2.82,2.82,0,0,1,14.64,52.57Z" transform="translate(-2.44 -1.86)"/><path class="cls-1" d="M20.3,46.78,8.56,39.35l2.21-5.05A6.79,6.79,0,0,1,13.26,31a2.71,2.71,0,0,1,2.84.25,3.57,3.57,0,0,1,1.24,1.35,5.41,5.41,0,0,1,.46,2.34A3.38,3.38,0,0,1,19,34,2.07,2.07,0,0,1,20,33.73a2.48,2.48,0,0,1,.91.22,5.25,5.25,0,0,1,.75.4,3.85,3.85,0,0,1,1.91,2.7,8.29,8.29,0,0,1-.93,4.4Zm-5.67-7.93.94-2.15a1.61,1.61,0,0,0,.15-.58,1.64,1.64,0,0,0,0-.55,1.42,1.42,0,0,0-.23-.48,1.67,1.67,0,0,0-.38-.37,1,1,0,0,0-1-.11,1.55,1.55,0,0,0-.76.84l-.87,2Zm4.8,3,.89-2a1.82,1.82,0,0,0,.11-1.36,1.7,1.7,0,0,0-.67-.92,1.07,1.07,0,0,0-.66-.18,1.13,1.13,0,0,0-.62.23,1.75,1.75,0,0,0-.48.65l-.93,2.13Z" transform="translate(-2.44 -1.86)"/><path class="cls-1" d="M25.15,35.56l-9.94-9.72,3.65-5.08A5.63,5.63,0,0,1,21,18.83a2.91,2.91,0,0,1,2.08-.17A4.69,4.69,0,0,1,25,19.85a5.61,5.61,0,0,1,1.14,1.51,4.83,4.83,0,0,1,.47,1.53,6.78,6.78,0,0,1,0,1.56l5.26,1.8-2.21,3.08L25,27.61,23.89,29.2l3.42,3.34ZM21.9,27.24l1.25-1.73a1.62,1.62,0,0,0,.3-.87,2.39,2.39,0,0,0-.14-.95,2.1,2.1,0,0,0-.5-.78,1.42,1.42,0,0,0-1.18-.45,1.37,1.37,0,0,0-1,.57l-1.24,1.73Z" transform="translate(-2.44 -1.86)"/><path class="cls-1" d="M31.22,26.22,28.47,11l3-2.28L42,18,39.1,20.22l-2-1.81L33.62,21,34.17,24Zm1.5-8.45,2.17-1.65L31.69,13Z" transform="translate(-2.44 -1.86)"/><path class="cls-1" d="M47,17.07A6.54,6.54,0,0,1,43.54,17a3.39,3.39,0,0,1-1.91-1.73,7.53,7.53,0,0,1-.68-3l-.33-8.15,3.7-.71.32,8.3A3.05,3.05,0,0,0,45,13.19a1.53,1.53,0,0,0,.83.69,2.13,2.13,0,0,0,1.07.06,2.56,2.56,0,0,0,1.47-.9A3,3,0,0,0,49,10.87l-.34-8.3,3.69-.71L52.64,10a8.67,8.67,0,0,1-.44,3.21,5.26,5.26,0,0,1-1.75,2.44A7.82,7.82,0,0,1,47,17.07Z" transform="translate(-2.44 -1.86)"/><path class="cls-1" d="M60.35,16.56a5.84,5.84,0,0,1-3-.74,5,5,0,0,1-1.91-2.05,6.69,6.69,0,0,1-.67-3,9.69,9.69,0,0,1,.49-3,8.46,8.46,0,0,1,1.46-2.67,7,7,0,0,1,2.43-1.9,7.68,7.68,0,0,1,3.38-.71A6,6,0,0,1,65.3,3a4.21,4.21,0,0,1,1.81,1.71,5.54,5.54,0,0,1,.63,2.73H63.87a2.56,2.56,0,0,0-.23-1.11A1.58,1.58,0,0,0,63,5.66a2.07,2.07,0,0,0-1.07-.25,2.22,2.22,0,0,0-1.51.52,3.71,3.71,0,0,0-1,1.36,8,8,0,0,0-.52,1.8,11.67,11.67,0,0,0-.15,1.83A3.24,3.24,0,0,0,59.31,13a1.7,1.7,0,0,0,1.38.62,2.1,2.1,0,0,0,1.15-.32,3,3,0,0,0,.88-.86,4.88,4.88,0,0,0,.57-1.17h3.87a11.45,11.45,0,0,1-.79,2A6.45,6.45,0,0,1,65.1,15a5.7,5.7,0,0,1-1.93,1.17A8.3,8.3,0,0,1,60.35,16.56Z" transform="translate(-2.44 -1.86)"/><path class="cls-1" d="M68.57,16.37l2.1-13.74h3.72L72.3,16.37Z" transform="translate(-2.44 -1.86)"/><path class="cls-1" d="M75,16.37,77.16,2.63H87.33l-.48,3.06H80.42L80.08,8h5.36L85,11H79.6l-.37,2.34h6.49l-.48,3.08Z" transform="translate(-2.44 -1.86)"/><path class="cls-1" d="M87.54,16.37,89.66,2.63H93.4l4.2,7.66,1.16-7.66h3.73l-2.12,13.74H97l-4.5-8.19-1.25,8.19Z" transform="translate(-2.44 -1.86)"/><path class="cls-1" d="M108.79,16.56a9.23,9.23,0,0,1-2.11-.25,5.76,5.76,0,0,1-1.84-.79,3.55,3.55,0,0,1-1.25-1.36,3.46,3.46,0,0,1-.36-2h3.85a1.54,1.54,0,0,0,.29.83,1.64,1.64,0,0,0,.72.52,2.81,2.81,0,0,0,1.1.19,5.22,5.22,0,0,0,1.13-.12,2.23,2.23,0,0,0,.9-.38,1.09,1.09,0,0,0,.45-.76.63.63,0,0,0-.24-.64,2.17,2.17,0,0,0-.81-.35,10.83,10.83,0,0,0-1.08-.22l-2.08-.36A3.74,3.74,0,0,1,105,9.62a3.45,3.45,0,0,1-.6-2.77,4.19,4.19,0,0,1,1.13-2.37A6,6,0,0,1,107.9,3a8.41,8.41,0,0,1,3-.52,6.51,6.51,0,0,1,2.91.61,4.74,4.74,0,0,1,1.86,1.6,3.54,3.54,0,0,1,.59,2.12h-3.77a1.43,1.43,0,0,0-.18-.86,1.25,1.25,0,0,0-.66-.47,3.46,3.46,0,0,0-1.09-.15,3.34,3.34,0,0,0-1.16.17,1.47,1.47,0,0,0-.65.42,1,1,0,0,0-.25.49.87.87,0,0,0,.2.75,2.17,2.17,0,0,0,1.14.45L111.9,8a5.64,5.64,0,0,1,2.24.8A2.92,2.92,0,0,1,115.22,10a3.42,3.42,0,0,1,.3,1.34,7,7,0,0,1-.06,1.17,3.73,3.73,0,0,1-1.11,2.1A6.49,6.49,0,0,1,112,16,9.22,9.22,0,0,1,108.79,16.56Z" transform="translate(-2.44 -1.86)"/><path class="cls-1" d="M124,12.25a2.83,2.83,0,0,1-1.46-.39,3,3,0,0,1-1-1,2.78,2.78,0,0,1-.39-1.44A2.72,2.72,0,0,1,121.47,8a3,3,0,0,1,1-1A2.83,2.83,0,0,1,124,6.53a2.79,2.79,0,0,1,1.45.39,3,3,0,0,1,1,1,2.72,2.72,0,0,1,.39,1.43,2.78,2.78,0,0,1-.39,1.44,3,3,0,0,1-1,1A2.79,2.79,0,0,1,124,12.25Z" transform="translate(-2.44 -1.86)"/><path class="cls-1" d="M131.91,16.37,134,2.63h5.52a6.64,6.64,0,0,1,4.06.94,2.67,2.67,0,0,1,.91,2.69,3.55,3.55,0,0,1-.74,1.68,5.35,5.35,0,0,1-2,1.36,3.52,3.52,0,0,1,1.33.68,2.17,2.17,0,0,1,.62.87,2.53,2.53,0,0,1,.16.93,5.67,5.67,0,0,1-.06.85,3.9,3.9,0,0,1-1.71,2.83,8.39,8.39,0,0,1-4.41.91Zm4.15-2.78h2.23a1.81,1.81,0,0,0,1.29-.44,1.69,1.69,0,0,0,.57-1,1.11,1.11,0,0,0-.09-.68,1.07,1.07,0,0,0-.47-.47,1.61,1.61,0,0,0-.78-.18h-2.32Zm.85-5.6h2.34a1.72,1.72,0,0,0,.6-.1,1.59,1.59,0,0,0,.48-.26,1.35,1.35,0,0,0,.35-.4,1.45,1.45,0,0,0,.18-.49,1,1,0,0,0-.3-1,1.55,1.55,0,0,0-1.07-.35h-2.18Z" transform="translate(-2.44 -1.86)"/><path class="cls-1" d="M145.27,16.37l2.1-13.74h6.25a5.65,5.65,0,0,1,2.81.59,2.84,2.84,0,0,1,1.34,1.59,4.64,4.64,0,0,1,.15,2.25,5.6,5.6,0,0,1-.56,1.8,4.6,4.6,0,0,1-1,1.27,6.55,6.55,0,0,1-1.27.92l1.61,5.32h-3.8l-1.27-4.73h-2L149,16.37Zm4.86-7.49h2.13a1.59,1.59,0,0,0,.89-.26,2.44,2.44,0,0,0,.69-.67,2.06,2.06,0,0,0,.34-.85,1.41,1.41,0,0,0-.32-1.22,1.34,1.34,0,0,0-1.06-.51h-2.13Z" transform="translate(-2.44 -1.86)"/><path class="cls-1" d="M157.87,16.37l7-13.74h3.78l2.78,13.74h-3.66l-.5-2.66h-4.35l-1.35,2.66Zm6.31-5.82h2.73l-.67-4.38Z" transform="translate(-2.44 -1.86)"/><path class="cls-1" d="M178.88,16.56a6.51,6.51,0,0,1-3.41-.74,3.4,3.4,0,0,1-1.55-2.06,7.57,7.57,0,0,1-.09-3.07l1.22-8.06h3.77l-1.26,8.21a3,3,0,0,0,.08,1.52,1.49,1.49,0,0,0,.68.84,2.08,2.08,0,0,0,1,.26,2.58,2.58,0,0,0,1.62-.6,3,3,0,0,0,1-2l1.25-8.21H187l-1.23,8.06a8.57,8.57,0,0,1-1,3.07,5.35,5.35,0,0,1-2.18,2.06A7.83,7.83,0,0,1,178.88,16.56Z" transform="translate(-2.44 -1.86)"/><path class="cls-1" d="M193.36,16.56a5.81,5.81,0,0,1-3-.74,5,5,0,0,1-1.92-2.05,6.69,6.69,0,0,1-.66-3,9.41,9.41,0,0,1,.49-3,8.08,8.08,0,0,1,1.46-2.67,7.08,7.08,0,0,1,2.42-1.9,7.69,7.69,0,0,1,3.39-.71,6,6,0,0,1,2.78.6,4.13,4.13,0,0,1,1.8,1.71,5.54,5.54,0,0,1,.63,2.73h-3.86a2.88,2.88,0,0,0-.23-1.11,1.66,1.66,0,0,0-.65-.71,2,2,0,0,0-1.07-.25,2.24,2.24,0,0,0-1.51.52,3.71,3.71,0,0,0-1,1.36,7.48,7.48,0,0,0-.51,1.8,11.71,11.71,0,0,0-.16,1.83,3.17,3.17,0,0,0,.53,2.05,1.68,1.68,0,0,0,1.37.62,2.06,2.06,0,0,0,1.15-.32,2.88,2.88,0,0,0,.88-.86,4.23,4.23,0,0,0,.57-1.17h3.88a11.48,11.48,0,0,1-.8,2A6.45,6.45,0,0,1,198.1,15a5.6,5.6,0,0,1-1.93,1.17A8.28,8.28,0,0,1,193.36,16.56Z" transform="translate(-2.44 -1.86)"/><path class="cls-1" d="M201.57,16.37l2.1-13.74h3.72L205.3,16.37Z" transform="translate(-2.44 -1.86)"/><path class="cls-1" d="M208,16.37l2.12-13.74h10.17l-.48,3.06h-6.43L213.07,8h5.36L218,11h-5.39l-.36,2.34h6.48l-.48,3.08Z" transform="translate(-2.44 -1.86)"/><path class="cls-1" d="M220.52,16.37l2.12-13.74h3.74l4.2,7.66,1.16-7.66h3.73l-2.11,13.74H230L225.5,8.18l-1.25,8.19Z" transform="translate(-2.44 -1.86)"/><path class="cls-1" d="M241.79,16.56a9.3,9.3,0,0,1-2.11-.25,5.76,5.76,0,0,1-1.84-.79,3.63,3.63,0,0,1-1.25-1.36,3.46,3.46,0,0,1-.36-2h3.86a1.45,1.45,0,0,0,.28.83,1.76,1.76,0,0,0,.72.52,2.87,2.87,0,0,0,1.11.19,5.13,5.13,0,0,0,1.12-.12,2.17,2.17,0,0,0,.9-.38,1.09,1.09,0,0,0,.45-.76.62.62,0,0,0-.23-.64,2.3,2.3,0,0,0-.82-.35,10.28,10.28,0,0,0-1.08-.22l-2.08-.36A3.74,3.74,0,0,1,238,9.62a3.52,3.52,0,0,1-.6-2.77,4.14,4.14,0,0,1,1.14-2.37A5.94,5.94,0,0,1,240.91,3a8.36,8.36,0,0,1,3-.52,6.45,6.45,0,0,1,2.91.61,4.74,4.74,0,0,1,1.86,1.6,3.47,3.47,0,0,1,.59,2.12h-3.76a1.51,1.51,0,0,0-.19-.86,1.22,1.22,0,0,0-.66-.47,3.41,3.41,0,0,0-1.09-.15,3.34,3.34,0,0,0-1.16.17,1.47,1.47,0,0,0-.65.42.94.94,0,0,0-.24.49.86.86,0,0,0,.19.75,2.21,2.21,0,0,0,1.14.45L244.9,8a5.58,5.58,0,0,1,2.24.8A2.92,2.92,0,0,1,248.22,10a3.44,3.44,0,0,1,.31,1.34,8.17,8.17,0,0,1-.07,1.17,3.72,3.72,0,0,1-1.1,2.1A6.57,6.57,0,0,1,245,16,9.32,9.32,0,0,1,241.79,16.56Z" transform="translate(-2.44 -1.86)"/><path class="cls-1" d="M257,12.25a2.79,2.79,0,0,1-1.45-.39,2.88,2.88,0,0,1-1-1,2.78,2.78,0,0,1-.39-1.44A2.72,2.72,0,0,1,254.48,8a2.85,2.85,0,0,1,1-1A2.79,2.79,0,0,1,257,6.53a2.83,2.83,0,0,1,1.46.39,3.13,3.13,0,0,1,1.05,1,2.72,2.72,0,0,1,.39,1.43,2.78,2.78,0,0,1-.39,1.44,3.16,3.16,0,0,1-1.05,1A2.83,2.83,0,0,1,257,12.25Z" transform="translate(-2.44 -1.86)"/><path class="cls-1" d="M264.92,16.37,267,2.63h5.51a6.6,6.6,0,0,1,4.06.94,2.68,2.68,0,0,1,.92,2.69,3.55,3.55,0,0,1-.74,1.68,5.44,5.44,0,0,1-2,1.36,3.39,3.39,0,0,1,1.32.68,2.1,2.1,0,0,1,.63.87,2.76,2.76,0,0,1,.16.93,5.67,5.67,0,0,1-.06.85,3.9,3.9,0,0,1-1.71,2.83,8.44,8.44,0,0,1-4.41.91Zm4.15-2.78h2.23a1.8,1.8,0,0,0,1.28-.44,1.66,1.66,0,0,0,.58-1,1.18,1.18,0,0,0-.1-.68,1,1,0,0,0-.47-.47,1.55,1.55,0,0,0-.78-.18h-2.32Zm.84-5.6h2.34a1.64,1.64,0,0,0,.6-.1,1.53,1.53,0,0,0,.49-.26,1.32,1.32,0,0,0,.34-.4,1.72,1.72,0,0,0,.19-.49,1,1,0,0,0-.3-1,1.56,1.56,0,0,0-1.08-.35h-2.17Z" transform="translate(-2.44 -1.86)"/><path class="cls-1" d="M278.26,16.37l2.1-13.74h6.25a5.58,5.58,0,0,1,2.8.59,2.9,2.9,0,0,1,1.35,1.59,4.9,4.9,0,0,1,.15,2.25,5.86,5.86,0,0,1-.56,1.8,4.8,4.8,0,0,1-1,1.27,6.86,6.86,0,0,1-1.27.92l1.61,5.32h-3.8l-1.28-4.73h-1.95L282,16.37Zm4.86-7.49h2.13a1.56,1.56,0,0,0,.88-.26,2.21,2.21,0,0,0,.69-.67,2.08,2.08,0,0,0,.35-.85,1.42,1.42,0,0,0-.33-1.22,1.33,1.33,0,0,0-1-.51h-2.13Z" transform="translate(-2.44 -1.86)"/><path class="cls-1" d="M290.87,16.37l7-13.74h3.78l2.78,13.74h-3.66l-.5-2.66h-4.35l-1.35,2.66Zm6.31-5.82h2.72l-.67-4.38Z" transform="translate(-2.44 -1.86)"/><path class="cls-1" d="M311.87,16.56a6.51,6.51,0,0,1-3.41-.74,3.44,3.44,0,0,1-1.55-2.06,7.75,7.75,0,0,1-.09-3.07l1.23-8.06h3.76l-1.26,8.21a3,3,0,0,0,.08,1.52,1.49,1.49,0,0,0,.68.84,2.08,2.08,0,0,0,1,.26,2.58,2.58,0,0,0,1.62-.6,3,3,0,0,0,1-2l1.25-8.21H320l-1.23,8.06a8.57,8.57,0,0,1-1,3.07,5.29,5.29,0,0,1-2.18,2.06A7.83,7.83,0,0,1,311.87,16.56Z" transform="translate(-2.44 -1.86)"/><path class="cls-1" d="M326.33,16.56a5.81,5.81,0,0,1-3-.74,5,5,0,0,1-1.91-2.05,6.56,6.56,0,0,1-.67-3,9.41,9.41,0,0,1,.49-3,8.08,8.08,0,0,1,1.46-2.67,7,7,0,0,1,2.43-1.9,7.65,7.65,0,0,1,3.38-.71,6,6,0,0,1,2.78.6,4.13,4.13,0,0,1,1.8,1.71,5.54,5.54,0,0,1,.63,2.73h-3.86a2.71,2.71,0,0,0-.23-1.11,1.6,1.6,0,0,0-.65-.71,2,2,0,0,0-1.07-.25,2.19,2.19,0,0,0-1.5.52,3.62,3.62,0,0,0-1,1.36,7.48,7.48,0,0,0-.51,1.8,11.67,11.67,0,0,0-.15,1.83,3.18,3.18,0,0,0,.52,2.05,1.7,1.7,0,0,0,1.38.62,2,2,0,0,0,1.14-.32,2.88,2.88,0,0,0,.88-.86,4.23,4.23,0,0,0,.57-1.17h3.88a11.48,11.48,0,0,1-.8,2A6.21,6.21,0,0,1,331.08,15a5.65,5.65,0,0,1-1.94,1.17A8.24,8.24,0,0,1,326.33,16.56Z" transform="translate(-2.44 -1.86)"/><path class="cls-1" d="M334.56,16.37l2.1-13.74h3.72l-2.09,13.74Z" transform="translate(-2.44 -1.86)"/><path class="cls-1" d="M341,16.37l2.12-13.74h10.17l-.48,3.06h-6.42L346.06,8h5.36L351,11h-5.39l-.36,2.34h6.48l-.48,3.08Z" transform="translate(-2.44 -1.86)"/><path class="cls-1" d="M353.51,16.37l2.12-13.74h3.74l4.2,7.66,1.16-7.66h3.73l-2.12,13.74H363l-4.51-8.19-1.25,8.19Z" transform="translate(-2.44 -1.86)"/><path class="cls-1" d="M374.78,16.56a9.3,9.3,0,0,1-2.11-.25,5.76,5.76,0,0,1-1.84-.79,3.71,3.71,0,0,1-1.25-1.36,3.46,3.46,0,0,1-.36-2h3.86a1.53,1.53,0,0,0,.28.83,1.76,1.76,0,0,0,.72.52,2.87,2.87,0,0,0,1.11.19,5.13,5.13,0,0,0,1.12-.12,2.28,2.28,0,0,0,.91-.38,1.12,1.12,0,0,0,.44-.76.6.6,0,0,0-.23-.64,2.33,2.33,0,0,0-.81-.35,10.49,10.49,0,0,0-1.09-.22l-2.08-.36A3.74,3.74,0,0,1,371,9.62a3.52,3.52,0,0,1-.6-2.77,4.14,4.14,0,0,1,1.14-2.37A5.94,5.94,0,0,1,373.9,3a8.37,8.37,0,0,1,3-.52,6.51,6.51,0,0,1,2.91.61,4.78,4.78,0,0,1,1.85,1.6,3.55,3.55,0,0,1,.6,2.12h-3.77a1.43,1.43,0,0,0-.19-.86,1.18,1.18,0,0,0-.66-.47,3.41,3.41,0,0,0-1.09-.15,3.34,3.34,0,0,0-1.16.17,1.47,1.47,0,0,0-.65.42.94.94,0,0,0-.24.49.86.86,0,0,0,.19.75,2.21,2.21,0,0,0,1.14.45l2.08.36a5.69,5.69,0,0,1,2.25.8A3,3,0,0,1,381.21,10a3.44,3.44,0,0,1,.31,1.34,8.17,8.17,0,0,1-.07,1.17,3.72,3.72,0,0,1-1.1,2.1A6.57,6.57,0,0,1,378,16,9.32,9.32,0,0,1,374.78,16.56Z" transform="translate(-2.44 -1.86)"/><path class="cls-1" d="M390,12.25a2.76,2.76,0,0,1-1.45-.39,3,3,0,0,1-1-1,2.78,2.78,0,0,1-.39-1.44A2.72,2.72,0,0,1,387.48,8a3,3,0,0,1,1-1,2.89,2.89,0,0,1,2.9,0,3,3,0,0,1,1.05,1,2.73,2.73,0,0,1,.4,1.43,2.79,2.79,0,0,1-.4,1.44,3,3,0,0,1-1.05,1A2.79,2.79,0,0,1,390,12.25Z" transform="translate(-2.44 -1.86)"/><path class="cls-1" d="M397.89,16.37,400,2.63h5.52a6.62,6.62,0,0,1,4.06.94,2.67,2.67,0,0,1,.91,2.69,3.55,3.55,0,0,1-.74,1.68,5.35,5.35,0,0,1-2,1.36,3.52,3.52,0,0,1,1.33.68,2.17,2.17,0,0,1,.62.87,2.77,2.77,0,0,1,.17.93,7.31,7.31,0,0,1-.07.85,3.9,3.9,0,0,1-1.71,2.83,8.39,8.39,0,0,1-4.41.91Zm4.16-2.78h2.22a1.81,1.81,0,0,0,1.29-.44,1.69,1.69,0,0,0,.57-1,1.11,1.11,0,0,0-.09-.68,1.07,1.07,0,0,0-.47-.47,1.58,1.58,0,0,0-.78-.18h-2.32Zm.84-5.6h2.34a1.64,1.64,0,0,0,.6-.1,1.59,1.59,0,0,0,.48-.26,1.35,1.35,0,0,0,.35-.4,1.45,1.45,0,0,0,.18-.49,1,1,0,0,0-.3-1,1.53,1.53,0,0,0-1.07-.35h-2.18Z" transform="translate(-2.44 -1.86)"/><path class="cls-1" d="M411.26,16.37l2.1-13.74h6.25a5.61,5.61,0,0,1,2.8.59,2.9,2.9,0,0,1,1.35,1.59,4.9,4.9,0,0,1,.15,2.25,5.6,5.6,0,0,1-.57,1.8,4.57,4.57,0,0,1-1,1.27,6.62,6.62,0,0,1-1.28.92l1.62,5.32h-3.8l-1.28-4.73h-1.95L415,16.37Zm4.86-7.49h2.13a1.58,1.58,0,0,0,.88-.26,2.44,2.44,0,0,0,.69-.67,2.06,2.06,0,0,0,.34-.85,1.41,1.41,0,0,0-.32-1.22,1.34,1.34,0,0,0-1.06-.51h-2.13Z" transform="translate(-2.44 -1.86)"/><path class="cls-1" d="M423.88,16.37l7-13.74h3.77l2.79,13.74h-3.67l-.5-2.66h-4.35l-1.34,2.66Zm6.31-5.82h2.72l-.67-4.38Z" transform="translate(-2.44 -1.86)"/><path class="cls-1" d="M444.9,16.56a6.55,6.55,0,0,1-3.42-.74,3.43,3.43,0,0,1-1.54-2.06,7.56,7.56,0,0,1-.1-3.07l1.23-8.06h3.77l-1.27,8.21a3.06,3.06,0,0,0,.08,1.52,1.53,1.53,0,0,0,.68.84,2.15,2.15,0,0,0,1.05.26,2.56,2.56,0,0,0,1.61-.6,3,3,0,0,0,1-2l1.24-8.21H453l-1.23,8.06a8.56,8.56,0,0,1-1,3.07,5.35,5.35,0,0,1-2.18,2.06A7.89,7.89,0,0,1,444.9,16.56Z" transform="translate(-2.44 -1.86)"/><path class="cls-1" d="M459.35,16.56a5.84,5.84,0,0,1-3-.74,5,5,0,0,1-1.91-2.05,6.56,6.56,0,0,1-.67-3,9.41,9.41,0,0,1,.49-3,8.26,8.26,0,0,1,1.46-2.67,7,7,0,0,1,2.43-1.9,7.65,7.65,0,0,1,3.38-.71,6,6,0,0,1,2.78.6,4.13,4.13,0,0,1,1.8,1.71,5.43,5.43,0,0,1,.64,2.73h-3.87a2.56,2.56,0,0,0-.23-1.11,1.6,1.6,0,0,0-.65-.71,2,2,0,0,0-1.06-.25,2.2,2.2,0,0,0-1.51.52,3.71,3.71,0,0,0-1,1.36,7.49,7.49,0,0,0-.52,1.8,11.67,11.67,0,0,0-.15,1.83,3.18,3.18,0,0,0,.52,2.05,1.7,1.7,0,0,0,1.38.62,2,2,0,0,0,1.14-.32,2.91,2.91,0,0,0,.89-.86,4.88,4.88,0,0,0,.57-1.17h3.87a11.45,11.45,0,0,1-.79,2A6.45,6.45,0,0,1,464.1,15a5.7,5.7,0,0,1-1.93,1.17A8.3,8.3,0,0,1,459.35,16.56Z" transform="translate(-2.44 -1.86)"/><path class="cls-1" d="M467.56,16.37l2.1-13.74h3.72l-2.09,13.74Z" transform="translate(-2.44 -1.86)"/><path class="cls-1" d="M474,16.37l2.12-13.74h10.17l-.48,3.06h-6.43L479.07,8h5.36L484,11h-5.39l-.37,2.34h6.49l-.48,3.08Z" transform="translate(-2.44 -1.86)"/><path class="cls-1" d="M486.53,16.37l2.12-13.74h3.74l4.2,7.66,1.17-7.66h3.73l-2.12,13.74H496l-4.51-8.19-1.24,8.19Z" transform="translate(-2.44 -1.86)"/><path class="cls-1" d="M507.78,16.56a9.23,9.23,0,0,1-2.11-.25,5.76,5.76,0,0,1-1.84-.79,3.63,3.63,0,0,1-1.25-1.36,3.46,3.46,0,0,1-.36-2h3.85a1.54,1.54,0,0,0,.29.83,1.7,1.7,0,0,0,.72.52,2.85,2.85,0,0,0,1.1.19,5.22,5.22,0,0,0,1.13-.12,2.23,2.23,0,0,0,.9-.38,1.09,1.09,0,0,0,.45-.76.61.61,0,0,0-.24-.64,2.17,2.17,0,0,0-.81-.35,10.83,10.83,0,0,0-1.08-.22l-2.08-.36A3.74,3.74,0,0,1,504,9.62a3.45,3.45,0,0,1-.6-2.77,4.19,4.19,0,0,1,1.13-2.37A6,6,0,0,1,506.89,3a8.45,8.45,0,0,1,3-.52,6.51,6.51,0,0,1,2.91.61,4.74,4.74,0,0,1,1.86,1.6,3.47,3.47,0,0,1,.59,2.12h-3.77a1.43,1.43,0,0,0-.18-.86,1.25,1.25,0,0,0-.66-.47,3.41,3.41,0,0,0-1.09-.15,3.34,3.34,0,0,0-1.16.17,1.47,1.47,0,0,0-.65.42.94.94,0,0,0-.24.49.86.86,0,0,0,.19.75,2.21,2.21,0,0,0,1.14.45l2.08.36a5.58,5.58,0,0,1,2.24.8A2.92,2.92,0,0,1,514.21,10a3.26,3.26,0,0,1,.3,1.34,7,7,0,0,1-.06,1.17,3.73,3.73,0,0,1-1.11,2.1A6.53,6.53,0,0,1,511,16,9.32,9.32,0,0,1,507.78,16.56Z" transform="translate(-2.44 -1.86)"/><path class="cls-1" d="M523,12.25a2.79,2.79,0,0,1-1.45-.39,3,3,0,0,1-1-1,2.78,2.78,0,0,1-.39-1.44A2.72,2.72,0,0,1,520.48,8a3,3,0,0,1,1-1,2.89,2.89,0,0,1,2.9,0,3,3,0,0,1,1.05,1,2.64,2.64,0,0,1,.4,1.43,2.7,2.7,0,0,1-.4,1.44,3,3,0,0,1-1.05,1A2.76,2.76,0,0,1,523,12.25Z" transform="translate(-2.44 -1.86)"/><path class="cls-1" d="M530.91,16.37,533,2.63h5.52a6.62,6.62,0,0,1,4.06.94,2.7,2.7,0,0,1,.92,2.69,3.57,3.57,0,0,1-.75,1.68,5.26,5.26,0,0,1-2,1.36,3.44,3.44,0,0,1,1.33.68,2.17,2.17,0,0,1,.62.87,2.77,2.77,0,0,1,.17.93,7.31,7.31,0,0,1-.07.85,3.87,3.87,0,0,1-1.71,2.83,8.39,8.39,0,0,1-4.41.91Zm4.16-2.78h2.22a1.81,1.81,0,0,0,1.29-.44,1.69,1.69,0,0,0,.57-1,1.11,1.11,0,0,0-.09-.68,1.07,1.07,0,0,0-.47-.47,1.55,1.55,0,0,0-.78-.18h-2.32Zm.84-5.6h2.34a1.64,1.64,0,0,0,.6-.1,1.59,1.59,0,0,0,.48-.26,1.35,1.35,0,0,0,.35-.4,1.45,1.45,0,0,0,.18-.49,1,1,0,0,0-.3-1,1.52,1.52,0,0,0-1.07-.35h-2.18Z" transform="translate(-2.44 -1.86)"/><path class="cls-1" d="M544.25,16.37l2.1-13.74h6.25a5.61,5.61,0,0,1,2.8.59,2.9,2.9,0,0,1,1.35,1.59,4.9,4.9,0,0,1,.15,2.25,5.6,5.6,0,0,1-.57,1.8,4.57,4.57,0,0,1-1,1.27,6.86,6.86,0,0,1-1.27.92l1.61,5.32h-3.8l-1.28-4.73h-2L548,16.37Zm4.86-7.49h2.13a1.58,1.58,0,0,0,.88-.26,2.44,2.44,0,0,0,.69-.67,2.08,2.08,0,0,0,.35-.85,1.45,1.45,0,0,0-.33-1.22,1.34,1.34,0,0,0-1.06-.51h-2.12Z" transform="translate(-2.44 -1.86)"/><path class="cls-1" d="M556.87,16.37l7-13.74h3.78l2.78,13.74h-3.67l-.5-2.66h-4.35l-1.34,2.66Zm6.31-5.82h2.72l-.67-4.38Z" transform="translate(-2.44 -1.86)"/><path class="cls-1" d="M577.88,16.56a6.58,6.58,0,0,1-3.42-.74,3.43,3.43,0,0,1-1.54-2.06,7.56,7.56,0,0,1-.1-3.07l1.23-8.06h3.77l-1.27,8.21a3.06,3.06,0,0,0,.08,1.52,1.57,1.57,0,0,0,.68.84,2.15,2.15,0,0,0,1.05.26,2.54,2.54,0,0,0,1.61-.6,3,3,0,0,0,1-2l1.24-8.21H586l-1.22,8.06a8.77,8.77,0,0,1-1,3.07,5.35,5.35,0,0,1-2.18,2.06A7.83,7.83,0,0,1,577.88,16.56Z" transform="translate(-2.44 -1.86)"/><path class="cls-1" d="M592.34,16.56a5.84,5.84,0,0,1-3-.74,5,5,0,0,1-1.91-2.05,6.69,6.69,0,0,1-.67-3,9.69,9.69,0,0,1,.49-3,8.29,8.29,0,0,1,1.47-2.67,6.9,6.9,0,0,1,2.42-1.9,7.68,7.68,0,0,1,3.38-.71,6,6,0,0,1,2.78.6,4.21,4.21,0,0,1,1.81,1.71,5.54,5.54,0,0,1,.63,2.73h-3.87a2.56,2.56,0,0,0-.23-1.11,1.58,1.58,0,0,0-.64-.71,2.07,2.07,0,0,0-1.07-.25,2.22,2.22,0,0,0-1.51.52,3.71,3.71,0,0,0-1,1.36,8,8,0,0,0-.52,1.8,11.67,11.67,0,0,0-.15,1.83A3.24,3.24,0,0,0,591.3,13a1.7,1.7,0,0,0,1.38.62,2.1,2.1,0,0,0,1.15-.32,3,3,0,0,0,.88-.86,4.53,4.53,0,0,0,.57-1.17h3.87a11.45,11.45,0,0,1-.79,2A6.45,6.45,0,0,1,597.09,15a5.7,5.7,0,0,1-1.93,1.17A8.3,8.3,0,0,1,592.34,16.56Z" transform="translate(-2.44 -1.86)"/><path class="cls-1" d="M600.58,16.37l2.1-13.74h3.72l-2.09,13.74Z" transform="translate(-2.44 -1.86)"/><path class="cls-1" d="M607,16.37l2.12-13.74h10.16l-.48,3.06h-6.42L612.07,8h5.36L617,11h-5.39l-.36,2.34h6.48l-.48,3.08Z" transform="translate(-2.44 -1.86)"/><path class="cls-1" d="M619.52,16.37l2.12-13.74h3.74l4.2,7.66,1.16-7.66h3.73l-2.12,13.74H629L624.5,8.18l-1.25,8.19Z" transform="translate(-2.44 -1.86)"/><path class="cls-1" d="M640.79,16.56a9.23,9.23,0,0,1-2.11-.25,5.76,5.76,0,0,1-1.84-.79,3.63,3.63,0,0,1-1.25-1.36,3.46,3.46,0,0,1-.36-2h3.85a1.54,1.54,0,0,0,.29.83,1.64,1.64,0,0,0,.72.52,2.85,2.85,0,0,0,1.1.19,5.22,5.22,0,0,0,1.13-.12,2.23,2.23,0,0,0,.9-.38,1.09,1.09,0,0,0,.45-.76.63.63,0,0,0-.24-.64,2.17,2.17,0,0,0-.81-.35,10.83,10.83,0,0,0-1.08-.22l-2.08-.36A3.74,3.74,0,0,1,637,9.62a3.45,3.45,0,0,1-.6-2.77,4.19,4.19,0,0,1,1.13-2.37A6,6,0,0,1,639.9,3a8.41,8.41,0,0,1,3-.52,6.51,6.51,0,0,1,2.91.61,4.74,4.74,0,0,1,1.86,1.6,3.54,3.54,0,0,1,.59,2.12h-3.77a1.43,1.43,0,0,0-.18-.86,1.25,1.25,0,0,0-.66-.47,3.41,3.41,0,0,0-1.09-.15,3.34,3.34,0,0,0-1.16.17,1.47,1.47,0,0,0-.65.42,1,1,0,0,0-.25.49.87.87,0,0,0,.2.75,2.21,2.21,0,0,0,1.14.45L643.9,8a5.64,5.64,0,0,1,2.24.8A2.92,2.92,0,0,1,647.22,10a3.42,3.42,0,0,1,.3,1.34,7,7,0,0,1-.06,1.17,3.73,3.73,0,0,1-1.11,2.1A6.49,6.49,0,0,1,644,16,9.22,9.22,0,0,1,640.79,16.56Z" transform="translate(-2.44 -1.86)"/><path class="cls-1" d="M656,12.25a2.76,2.76,0,0,1-1.45-.39,3,3,0,0,1-1-1,2.78,2.78,0,0,1-.39-1.44A2.72,2.72,0,0,1,653.47,8a3,3,0,0,1,1-1,2.89,2.89,0,0,1,2.9,0,3,3,0,0,1,1.05,1,2.72,2.72,0,0,1,.39,1.43,2.78,2.78,0,0,1-.39,1.44,3,3,0,0,1-1.05,1A2.79,2.79,0,0,1,656,12.25Z" transform="translate(-2.44 -1.86)"/><path class="cls-1" d="M663.9,16.37,666,2.63h5.52a6.62,6.62,0,0,1,4.06.94,2.7,2.7,0,0,1,.92,2.69,3.57,3.57,0,0,1-.75,1.68,5.26,5.26,0,0,1-2,1.36,3.44,3.44,0,0,1,1.33.68,2.17,2.17,0,0,1,.62.87,2.55,2.55,0,0,1,.17.93,7.31,7.31,0,0,1-.07.85,3.84,3.84,0,0,1-1.71,2.83,8.37,8.37,0,0,1-4.4.91Zm4.16-2.78h2.22a1.81,1.81,0,0,0,1.29-.44,1.64,1.64,0,0,0,.57-1,1.11,1.11,0,0,0-.09-.68,1,1,0,0,0-.47-.47,1.55,1.55,0,0,0-.78-.18h-2.32ZM668.9,8h2.34a1.64,1.64,0,0,0,.6-.1,1.59,1.59,0,0,0,.48-.26,1.22,1.22,0,0,0,.35-.4,1.45,1.45,0,0,0,.18-.49,1,1,0,0,0-.29-1,1.56,1.56,0,0,0-1.08-.35H669.3Z" transform="translate(-2.44 -1.86)"/><path class="cls-1" d="M677.27,16.37l2.1-13.74h6.25a5.61,5.61,0,0,1,2.8.59,2.9,2.9,0,0,1,1.35,1.59,4.9,4.9,0,0,1,.15,2.25,5.6,5.6,0,0,1-.57,1.8,4.57,4.57,0,0,1-1,1.27,6.86,6.86,0,0,1-1.27.92l1.61,5.32h-3.8l-1.28-4.73H681.7L681,16.37Zm4.86-7.49h2.13a1.58,1.58,0,0,0,.88-.26,2.44,2.44,0,0,0,.69-.67,2.08,2.08,0,0,0,.35-.85,1.42,1.42,0,0,0-.33-1.22,1.34,1.34,0,0,0-1.06-.51h-2.12Z" transform="translate(-2.44 -1.86)"/><path class="cls-1" d="M689.87,16.37l7-13.74h3.78l2.78,13.74h-3.66l-.5-2.66h-4.35l-1.35,2.66Zm6.31-5.82h2.73l-.67-4.38Z" transform="translate(-2.44 -1.86)"/><path class="cls-1" d="M710.88,16.56a6.51,6.51,0,0,1-3.41-.74,3.39,3.39,0,0,1-1.54-2.06,7.56,7.56,0,0,1-.1-3.07l1.23-8.06h3.77l-1.27,8.21a3,3,0,0,0,.08,1.52,1.49,1.49,0,0,0,.68.84,2.11,2.11,0,0,0,1,.26,2.58,2.58,0,0,0,1.62-.6,3,3,0,0,0,1-2l1.25-8.21H719l-1.23,8.06a8.76,8.76,0,0,1-1,3.07,5.38,5.38,0,0,1-2.19,2.06A7.83,7.83,0,0,1,710.88,16.56Z" transform="translate(-2.44 -1.86)"/><path class="cls-1" d="M725.35,16.56a5.81,5.81,0,0,1-3-.74,5,5,0,0,1-1.92-2.05,6.69,6.69,0,0,1-.66-3,9.68,9.68,0,0,1,.48-3,8.29,8.29,0,0,1,1.47-2.67,7.08,7.08,0,0,1,2.42-1.9,7.68,7.68,0,0,1,3.38-.71,6,6,0,0,1,2.79.6,4.13,4.13,0,0,1,1.8,1.71,5.54,5.54,0,0,1,.63,2.73h-3.86a2.88,2.88,0,0,0-.23-1.11,1.66,1.66,0,0,0-.65-.71,2.07,2.07,0,0,0-1.07-.25,2.24,2.24,0,0,0-1.51.52,3.71,3.71,0,0,0-1,1.36,7.48,7.48,0,0,0-.51,1.8,10.62,10.62,0,0,0-.16,1.83,3.17,3.17,0,0,0,.53,2.05,1.67,1.67,0,0,0,1.37.62,2.08,2.08,0,0,0,1.15-.32,3,3,0,0,0,.88-.86,4.23,4.23,0,0,0,.57-1.17h3.88a11.48,11.48,0,0,1-.8,2A6.45,6.45,0,0,1,730.09,15a5.6,5.6,0,0,1-1.93,1.17A8.28,8.28,0,0,1,725.35,16.56Z" transform="translate(-2.44 -1.86)"/><path class="cls-1" d="M733.58,16.37l2.1-13.74h3.72l-2.09,13.74Z" transform="translate(-2.44 -1.86)"/><path class="cls-1" d="M740,16.37l2.12-13.74h10.16l-.48,3.06h-6.42L745.07,8h5.36L750,11h-5.39l-.36,2.34h6.48l-.48,3.08Z" transform="translate(-2.44 -1.86)"/><path class="cls-1" d="M752.52,16.37l2.12-13.74h3.74l4.2,7.66,1.16-7.66h3.73l-2.12,13.74H762L757.5,8.18l-1.25,8.19Z" transform="translate(-2.44 -1.86)"/><path class="cls-1" d="M773.79,16.56a9.32,9.32,0,0,1-2.12-.25,5.76,5.76,0,0,1-1.84-.79,3.71,3.71,0,0,1-1.25-1.36,3.63,3.63,0,0,1-.36-2h3.86a1.46,1.46,0,0,0,.29.83,1.64,1.64,0,0,0,.72.52,2.78,2.78,0,0,0,1.1.19,5.13,5.13,0,0,0,1.12-.12,2.28,2.28,0,0,0,.91-.38,1.12,1.12,0,0,0,.44-.76.6.6,0,0,0-.23-.64,2.17,2.17,0,0,0-.81-.35,10.49,10.49,0,0,0-1.09-.22l-2.08-.36A3.74,3.74,0,0,1,770,9.62a3.52,3.52,0,0,1-.6-2.77,4.27,4.27,0,0,1,1.14-2.37A5.94,5.94,0,0,1,772.9,3a8.37,8.37,0,0,1,3-.52,6.51,6.51,0,0,1,2.91.61,4.64,4.64,0,0,1,1.85,1.6,3.55,3.55,0,0,1,.6,2.12h-3.77a1.36,1.36,0,0,0-.19-.86,1.18,1.18,0,0,0-.66-.47,4,4,0,0,0-2.25,0,1.53,1.53,0,0,0-.65.42,1,1,0,0,0-.24.49.84.84,0,0,0,.2.75,2.13,2.13,0,0,0,1.13.45l2.08.36a5.69,5.69,0,0,1,2.25.8A2.89,2.89,0,0,1,780.21,10a3.44,3.44,0,0,1,.31,1.34,6.94,6.94,0,0,1-.07,1.17,3.66,3.66,0,0,1-1.1,2.1A6.49,6.49,0,0,1,777,16,9.31,9.31,0,0,1,773.79,16.56Z" transform="translate(-2.44 -1.86)"/><path class="cls-1" d="M789,12.25a2.79,2.79,0,0,1-1.45-.39,3,3,0,0,1-1-1,2.78,2.78,0,0,1-.39-1.44A2.72,2.72,0,0,1,786.47,8a2.93,2.93,0,0,1,1-1,2.91,2.91,0,0,1,2.91,0,3,3,0,0,1,1.05,1,2.72,2.72,0,0,1,.39,1.43,2.78,2.78,0,0,1-.39,1.44,3,3,0,0,1-1.05,1A2.8,2.8,0,0,1,789,12.25Z" transform="translate(-2.44 -1.86)"/><path class="cls-1" d="M796.9,16.37,799,2.63h5.51a6.6,6.6,0,0,1,4.06.94,2.68,2.68,0,0,1,.92,2.69,3.55,3.55,0,0,1-.74,1.68,5.4,5.4,0,0,1-2,1.36,3.37,3.37,0,0,1,1.33.68,2.2,2.2,0,0,1,.63.87,2.76,2.76,0,0,1,.16.93,5.67,5.67,0,0,1-.06.85,3.88,3.88,0,0,1-1.72,2.83,8.37,8.37,0,0,1-4.4.91Zm4.15-2.78h2.22a1.81,1.81,0,0,0,1.29-.44,1.66,1.66,0,0,0,.58-1,1.18,1.18,0,0,0-.1-.68,1,1,0,0,0-.47-.47,1.55,1.55,0,0,0-.78-.18h-2.32Zm.84-5.6h2.34a1.64,1.64,0,0,0,.6-.1,1.53,1.53,0,0,0,.49-.26,1.32,1.32,0,0,0,.34-.4,1.45,1.45,0,0,0,.18-.49,1,1,0,0,0-.29-1,1.56,1.56,0,0,0-1.08-.35H802.3Z" transform="translate(-2.44 -1.86)"/><path class="cls-1" d="M810.26,16.37l2.1-13.74h6.25a5.58,5.58,0,0,1,2.8.59,2.9,2.9,0,0,1,1.35,1.59,4.9,4.9,0,0,1,.15,2.25,5.86,5.86,0,0,1-.56,1.8,4.8,4.8,0,0,1-1,1.27,6.86,6.86,0,0,1-1.27.92l1.61,5.32h-3.8l-1.28-4.73h-1.95L814,16.37Zm4.86-7.49h2.13a1.58,1.58,0,0,0,.88-.26,2.32,2.32,0,0,0,.69-.67,2.08,2.08,0,0,0,.35-.85,1.42,1.42,0,0,0-.33-1.22,1.34,1.34,0,0,0-1.06-.51h-2.12Z" transform="translate(-2.44 -1.86)"/><path class="cls-1" d="M822.86,16.37l7-13.74h3.77l2.78,13.74h-3.66l-.5-2.66h-4.35l-1.34,2.66Zm6.31-5.82h2.73l-.67-4.38Z" transform="translate(-2.44 -1.86)"/><path class="cls-1" d="M843.88,16.56a6.55,6.55,0,0,1-3.42-.74,3.39,3.39,0,0,1-1.54-2.06,7.56,7.56,0,0,1-.1-3.07l1.23-8.06h3.77l-1.27,8.21a3.06,3.06,0,0,0,.08,1.52,1.53,1.53,0,0,0,.68.84,2.15,2.15,0,0,0,1.05.26,2.56,2.56,0,0,0,1.61-.6,3,3,0,0,0,1-2l1.24-8.21H852l-1.23,8.06a8.56,8.56,0,0,1-1,3.07,5.35,5.35,0,0,1-2.18,2.06A7.89,7.89,0,0,1,843.88,16.56Z" transform="translate(-2.44 -1.86)"/><path class="cls-1" d="M858.33,16.56a5.81,5.81,0,0,1-3-.74,5.06,5.06,0,0,1-1.92-2.05,6.69,6.69,0,0,1-.66-3,9.41,9.41,0,0,1,.49-3,8.08,8.08,0,0,1,1.46-2.67,7,7,0,0,1,2.43-1.9,7.61,7.61,0,0,1,3.38-.71,6,6,0,0,1,2.78.6,4.13,4.13,0,0,1,1.8,1.71,5.54,5.54,0,0,1,.63,2.73h-3.86a2.71,2.71,0,0,0-.23-1.11,1.6,1.6,0,0,0-.65-.71,2,2,0,0,0-1.07-.25,2.19,2.19,0,0,0-1.5.52,3.62,3.62,0,0,0-1,1.36,7.48,7.48,0,0,0-.51,1.8,11.67,11.67,0,0,0-.15,1.83,3.18,3.18,0,0,0,.52,2.05,1.69,1.69,0,0,0,1.37.62,2.06,2.06,0,0,0,1.15-.32,2.88,2.88,0,0,0,.88-.86,4.23,4.23,0,0,0,.57-1.17h3.88a11.48,11.48,0,0,1-.8,2A6.42,6.42,0,0,1,863.08,15a5.74,5.74,0,0,1-1.94,1.17A8.24,8.24,0,0,1,858.33,16.56Z" transform="translate(-2.44 -1.86)"/><path class="cls-1" d="M866.56,16.37l2.1-13.74h3.72l-2.09,13.74Z" transform="translate(-2.44 -1.86)"/><path class="cls-1" d="M873,16.37l2.12-13.74h10.17l-.48,3.06h-6.43L878.08,8h5.36L883,11H877.6l-.37,2.34h6.49l-.48,3.08Z" transform="translate(-2.44 -1.86)"/><path class="cls-1" d="M885.52,16.37l2.12-13.74h3.74l4.2,7.66,1.16-7.66h3.73l-2.12,13.74H895L890.5,8.18l-1.25,8.19Z" transform="translate(-2.44 -1.86)"/><path class="cls-1" d="M906.78,16.56a9.3,9.3,0,0,1-2.11-.25,5.76,5.76,0,0,1-1.84-.79,3.71,3.71,0,0,1-1.25-1.36,3.46,3.46,0,0,1-.36-2h3.86a1.46,1.46,0,0,0,.29.83,1.67,1.67,0,0,0,.71.52,2.87,2.87,0,0,0,1.11.19,5.13,5.13,0,0,0,1.12-.12,2.28,2.28,0,0,0,.91-.38,1.12,1.12,0,0,0,.44-.76.6.6,0,0,0-.23-.64,2.17,2.17,0,0,0-.81-.35,10.49,10.49,0,0,0-1.09-.22l-2.08-.36A3.74,3.74,0,0,1,903,9.62a3.52,3.52,0,0,1-.6-2.77,4.14,4.14,0,0,1,1.14-2.37A5.94,5.94,0,0,1,905.9,3a8.37,8.37,0,0,1,3-.52,6.51,6.51,0,0,1,2.91.61,4.78,4.78,0,0,1,1.85,1.6,3.55,3.55,0,0,1,.6,2.12h-3.77a1.43,1.43,0,0,0-.19-.86,1.18,1.18,0,0,0-.66-.47,3.41,3.41,0,0,0-1.09-.15,3.34,3.34,0,0,0-1.16.17,1.53,1.53,0,0,0-.65.42.94.94,0,0,0-.24.49.86.86,0,0,0,.19.75,2.21,2.21,0,0,0,1.14.45l2.08.36a5.69,5.69,0,0,1,2.25.8A3,3,0,0,1,913.21,10a3.44,3.44,0,0,1,.31,1.34,8.17,8.17,0,0,1-.07,1.17,3.72,3.72,0,0,1-1.1,2.1A6.57,6.57,0,0,1,910,16,9.32,9.32,0,0,1,906.78,16.56Z" transform="translate(-2.44 -1.86)"/><path class="cls-1" d="M922,12.25a2.76,2.76,0,0,1-1.45-.39,3,3,0,0,1-1-1,2.78,2.78,0,0,1-.39-1.44A2.72,2.72,0,0,1,919.47,8a3,3,0,0,1,1-1,2.89,2.89,0,0,1,2.9,0,3,3,0,0,1,1.05,1,2.72,2.72,0,0,1,.39,1.43,2.78,2.78,0,0,1-.39,1.44,3,3,0,0,1-1.05,1A2.79,2.79,0,0,1,922,12.25Z" transform="translate(-2.44 -1.86)"/><path class="cls-1" d="M929.89,16.37,932,2.63h5.52a6.62,6.62,0,0,1,4.06.94,2.7,2.7,0,0,1,.92,2.69,3.57,3.57,0,0,1-.75,1.68,5.26,5.26,0,0,1-2,1.36,3.44,3.44,0,0,1,1.33.68,2.17,2.17,0,0,1,.62.87,2.77,2.77,0,0,1,.17.93,7.31,7.31,0,0,1-.07.85,3.87,3.87,0,0,1-1.71,2.83,8.39,8.39,0,0,1-4.41.91Zm4.16-2.78h2.22a1.81,1.81,0,0,0,1.29-.44,1.69,1.69,0,0,0,.57-1,1.11,1.11,0,0,0-.09-.68,1.07,1.07,0,0,0-.47-.47,1.55,1.55,0,0,0-.78-.18h-2.32Zm.84-5.6h2.34a1.64,1.64,0,0,0,.6-.1,1.59,1.59,0,0,0,.48-.26,1.35,1.35,0,0,0,.35-.4,1.45,1.45,0,0,0,.18-.49,1,1,0,0,0-.3-1,1.52,1.52,0,0,0-1.07-.35h-2.18Z" transform="translate(-2.44 -1.86)"/><path class="cls-1" d="M943.25,16.37l2.1-13.74h6.25a5.58,5.58,0,0,1,2.8.59,2.9,2.9,0,0,1,1.35,1.59,4.64,4.64,0,0,1,.15,2.25,5.86,5.86,0,0,1-.56,1.8,4.8,4.8,0,0,1-1,1.27,6.55,6.55,0,0,1-1.27.92l1.61,5.32h-3.8l-1.27-4.73h-2L947,16.37Zm4.86-7.49h2.13a1.56,1.56,0,0,0,.88-.26,2.21,2.21,0,0,0,.69-.67,2.08,2.08,0,0,0,.35-.85,1.41,1.41,0,0,0-.32-1.22,1.35,1.35,0,0,0-1.06-.51h-2.13Z" transform="translate(-2.44 -1.86)"/><path class="cls-1" d="M955.88,16.37l7-13.74h3.78l2.78,13.74h-3.67l-.49-2.66h-4.36l-1.34,2.66Zm6.31-5.82h2.72l-.67-4.38Z" transform="translate(-2.44 -1.86)"/><path class="cls-1" d="M976.87,16.56a6.55,6.55,0,0,1-3.42-.74,3.39,3.39,0,0,1-1.54-2.06,7.56,7.56,0,0,1-.1-3.07L973,2.63h3.77l-1.27,8.21a3.06,3.06,0,0,0,.08,1.52,1.53,1.53,0,0,0,.68.84,2.15,2.15,0,0,0,1.05.26,2.56,2.56,0,0,0,1.61-.6,3,3,0,0,0,1-2l1.24-8.21h3.76l-1.23,8.06a8.56,8.56,0,0,1-1,3.07,5.35,5.35,0,0,1-2.18,2.06A7.89,7.89,0,0,1,976.87,16.56Z" transform="translate(-2.44 -1.86)"/><path class="cls-1" d="M991.33,16.56a5.84,5.84,0,0,1-3-.74,5,5,0,0,1-1.91-2.05,6.56,6.56,0,0,1-.67-3,9.69,9.69,0,0,1,.49-3,8.26,8.26,0,0,1,1.46-2.67,7,7,0,0,1,2.43-1.9,7.68,7.68,0,0,1,3.38-.71,6,6,0,0,1,2.78.6,4.13,4.13,0,0,1,1.8,1.71,5.43,5.43,0,0,1,.64,2.73h-3.87a2.56,2.56,0,0,0-.23-1.11,1.58,1.58,0,0,0-.64-.71,2.09,2.09,0,0,0-1.07-.25,2.22,2.22,0,0,0-1.51.52,3.71,3.71,0,0,0-1,1.36,8,8,0,0,0-.52,1.8,11.67,11.67,0,0,0-.15,1.83,3.18,3.18,0,0,0,.52,2.05,1.7,1.7,0,0,0,1.38.62,2.1,2.1,0,0,0,1.15-.32,3,3,0,0,0,.88-.86,4.88,4.88,0,0,0,.57-1.17h3.87a11.45,11.45,0,0,1-.79,2A6.45,6.45,0,0,1,996.08,15a5.7,5.7,0,0,1-1.93,1.17A8.3,8.3,0,0,1,991.33,16.56Z" transform="translate(-2.44 -1.86)"/><path class="cls-1" d="M999.56,16.37l2.1-13.74h3.72l-2.09,13.74Z" transform="translate(-2.44 -1.86)"/><path class="cls-1" d="M1006,16.37l2.12-13.74h10.16l-.48,3.06h-6.42L1011.07,8h5.36l-.45,3h-5.39l-.36,2.34h6.48l-.48,3.08Z" transform="translate(-2.44 -1.86)"/><path class="cls-1" d="M1018.53,16.37l2.12-13.74h3.74l4.2,7.66,1.16-7.66h3.73l-2.12,13.74H1028l-4.51-8.19-1.25,8.19Z" transform="translate(-2.44 -1.86)"/><path class="cls-1" d="M1039.78,16.56a9.3,9.3,0,0,1-2.11-.25,5.76,5.76,0,0,1-1.84-.79,3.71,3.71,0,0,1-1.25-1.36,3.54,3.54,0,0,1-.36-2h3.86a1.46,1.46,0,0,0,.29.83,1.67,1.67,0,0,0,.71.52,2.87,2.87,0,0,0,1.11.19,5.13,5.13,0,0,0,1.12-.12,2.28,2.28,0,0,0,.91-.38,1.12,1.12,0,0,0,.44-.76.6.6,0,0,0-.23-.64,2.17,2.17,0,0,0-.81-.35,10.49,10.49,0,0,0-1.09-.22l-2.08-.36A3.74,3.74,0,0,1,1036,9.62a3.52,3.52,0,0,1-.6-2.77,4.14,4.14,0,0,1,1.14-2.37A5.94,5.94,0,0,1,1038.9,3a8.37,8.37,0,0,1,3-.52,6.51,6.51,0,0,1,2.91.61,4.71,4.71,0,0,1,1.85,1.6,3.55,3.55,0,0,1,.6,2.12h-3.77a1.43,1.43,0,0,0-.19-.86,1.18,1.18,0,0,0-.66-.47,4,4,0,0,0-2.25,0,1.53,1.53,0,0,0-.65.42.94.94,0,0,0-.24.49.86.86,0,0,0,.19.75,2.21,2.21,0,0,0,1.14.45l2.08.36a5.69,5.69,0,0,1,2.25.8,3,3,0,0,1,1.07,1.21,3.44,3.44,0,0,1,.31,1.34,8.17,8.17,0,0,1-.07,1.17,3.66,3.66,0,0,1-1.1,2.1A6.57,6.57,0,0,1,1043,16,9.32,9.32,0,0,1,1039.78,16.56Z" transform="translate(-2.44 -1.86)"/><path class="cls-1" d="M1055,12.25a2.79,2.79,0,0,1-1.45-.39,3,3,0,0,1-1-1,2.87,2.87,0,0,1-.38-1.44,2.81,2.81,0,0,1,.38-1.43,3,3,0,0,1,1-1,2.79,2.79,0,0,1,1.45-.39,2.83,2.83,0,0,1,1.46.39,3.13,3.13,0,0,1,1,1,2.72,2.72,0,0,1,.39,1.43,2.78,2.78,0,0,1-.39,1.44,3.16,3.16,0,0,1-1,1A2.83,2.83,0,0,1,1055,12.25Z" transform="translate(-2.44 -1.86)"/><path class="cls-1" d="M1062.9,16.37,1065,2.63h5.51a6.65,6.65,0,0,1,4.07.94,2.69,2.69,0,0,1,.91,2.69,3.55,3.55,0,0,1-.74,1.68,5.44,5.44,0,0,1-2,1.36,3.52,3.52,0,0,1,1.33.68,2.17,2.17,0,0,1,.62.87,2.76,2.76,0,0,1,.16.93,5.67,5.67,0,0,1-.06.85,3.9,3.9,0,0,1-1.71,2.83,8.41,8.41,0,0,1-4.41.91Zm4.15-2.78h2.23a1.84,1.84,0,0,0,1.29-.44,1.69,1.69,0,0,0,.57-1,1.11,1.11,0,0,0-.09-.68,1.07,1.07,0,0,0-.47-.47,1.62,1.62,0,0,0-.79-.18h-2.32Zm.85-5.6h2.34a1.72,1.72,0,0,0,.6-.1,1.59,1.59,0,0,0,.48-.26,1.35,1.35,0,0,0,.35-.4,1.7,1.7,0,0,0,.18-.49,1,1,0,0,0-.3-1,1.55,1.55,0,0,0-1.07-.35h-2.18Z" transform="translate(-2.44 -1.86)"/><path class="cls-1" d="M1076.25,16.37l2.1-13.74h6.26a5.63,5.63,0,0,1,2.8.59,2.84,2.84,0,0,1,1.34,1.59,4.64,4.64,0,0,1,.15,2.25,5.6,5.6,0,0,1-.56,1.8,4.6,4.6,0,0,1-1,1.27,6.55,6.55,0,0,1-1.27.92l1.61,5.32h-3.79l-1.28-4.73h-2l-.72,4.73Zm4.86-7.49h2.13a1.59,1.59,0,0,0,.89-.26,2.44,2.44,0,0,0,.69-.67,2.06,2.06,0,0,0,.34-.85,1.41,1.41,0,0,0-.32-1.22,1.34,1.34,0,0,0-1.06-.51h-2.13Z" transform="translate(-2.44 -1.86)"/><path class="cls-1" d="M1088.87,16.37l7-13.74h3.77l2.78,13.74h-3.66l-.5-2.66h-4.35l-1.34,2.66Zm6.31-5.82h2.73l-.67-4.38Z" transform="translate(-2.44 -1.86)"/><path class="cls-1" d="M1109.87,16.56a6.51,6.51,0,0,1-3.41-.74,3.39,3.39,0,0,1-1.54-2.06,7.56,7.56,0,0,1-.1-3.07l1.23-8.06h3.77l-1.27,8.21a3,3,0,0,0,.08,1.52,1.49,1.49,0,0,0,.68.84,2.08,2.08,0,0,0,1,.26,2.58,2.58,0,0,0,1.62-.6,3,3,0,0,0,1-2l1.25-8.21H1118l-1.23,8.06a8.76,8.76,0,0,1-1,3.07,5.38,5.38,0,0,1-2.19,2.06A7.83,7.83,0,0,1,1109.87,16.56Z" transform="translate(-2.44 -1.86)"/><path class="cls-1" d="M1124.35,16.56a5.88,5.88,0,0,1-3-.74,5,5,0,0,1-1.91-2.05,6.69,6.69,0,0,1-.67-3,9.69,9.69,0,0,1,.49-3,8.29,8.29,0,0,1,1.47-2.67,7,7,0,0,1,2.42-1.9,7.68,7.68,0,0,1,3.38-.71,6,6,0,0,1,2.78.6,4.16,4.16,0,0,1,1.81,1.71,5.54,5.54,0,0,1,.63,2.73h-3.86a2.88,2.88,0,0,0-.23-1.11,1.66,1.66,0,0,0-.65-.71,2.07,2.07,0,0,0-1.07-.25,2.24,2.24,0,0,0-1.51.52,3.71,3.71,0,0,0-1,1.36,7.48,7.48,0,0,0-.51,1.8,10.62,10.62,0,0,0-.16,1.83,3.17,3.17,0,0,0,.53,2.05,1.67,1.67,0,0,0,1.37.62,2.08,2.08,0,0,0,1.15-.32,3,3,0,0,0,.88-.86,4.23,4.23,0,0,0,.57-1.17h3.88a11.48,11.48,0,0,1-.8,2,6.45,6.45,0,0,1-1.27,1.71,5.6,5.6,0,0,1-1.93,1.17A8.28,8.28,0,0,1,1124.35,16.56Z" transform="translate(-2.44 -1.86)"/><path class="cls-1" d="M1132.56,16.37l2.1-13.74h3.72l-2.09,13.74Z" transform="translate(-2.44 -1.86)"/><path class="cls-1" d="M1139,16.37l2.12-13.74h10.17l-.48,3.06h-6.43L1144.06,8h5.36l-.45,3h-5.39l-.37,2.34h6.49l-.48,3.08Z" transform="translate(-2.44 -1.86)"/><path class="cls-1" d="M1151.52,16.37l2.12-13.74h3.74l4.2,7.66,1.17-7.66h3.73l-2.12,13.74H1161l-4.51-8.19-1.25,8.19Z" transform="translate(-2.44 -1.86)"/><path class="cls-1" d="M1172.77,16.56a9.3,9.3,0,0,1-2.11-.25,5.76,5.76,0,0,1-1.84-.79,3.71,3.71,0,0,1-1.25-1.36,3.46,3.46,0,0,1-.36-2h3.86a1.46,1.46,0,0,0,.29.83,1.67,1.67,0,0,0,.71.52,2.87,2.87,0,0,0,1.11.19,5.13,5.13,0,0,0,1.12-.12,2.28,2.28,0,0,0,.91-.38,1.12,1.12,0,0,0,.44-.76.6.6,0,0,0-.23-.64,2.17,2.17,0,0,0-.81-.35,10.49,10.49,0,0,0-1.09-.22l-2.08-.36A3.74,3.74,0,0,1,1169,9.62a3.52,3.52,0,0,1-.6-2.77,4.14,4.14,0,0,1,1.14-2.37,5.94,5.94,0,0,1,2.33-1.5,8.37,8.37,0,0,1,3-.52,6.51,6.51,0,0,1,2.91.61,4.78,4.78,0,0,1,1.85,1.6,3.55,3.55,0,0,1,.6,2.12h-3.77a1.43,1.43,0,0,0-.19-.86,1.18,1.18,0,0,0-.66-.47,4,4,0,0,0-2.25,0,1.53,1.53,0,0,0-.65.42.94.94,0,0,0-.24.49.86.86,0,0,0,.19.75,2.21,2.21,0,0,0,1.14.45l2.08.36a5.69,5.69,0,0,1,2.25.8A3,3,0,0,1,1179.2,10a3.44,3.44,0,0,1,.31,1.34,8.17,8.17,0,0,1-.07,1.17,3.66,3.66,0,0,1-1.1,2.1A6.57,6.57,0,0,1,1176,16,9.32,9.32,0,0,1,1172.77,16.56Z" transform="translate(-2.44 -1.86)"/><path class="cls-1" d="M1188,12.25a2.83,2.83,0,0,1-1.46-.39,3,3,0,0,1-1-1,2.78,2.78,0,0,1-.39-1.44,2.72,2.72,0,0,1,.39-1.43,3,3,0,0,1,1-1,2.83,2.83,0,0,1,1.46-.39,2.79,2.79,0,0,1,1.45.39,3,3,0,0,1,1,1,2.72,2.72,0,0,1,.39,1.43,2.78,2.78,0,0,1-.39,1.44,3,3,0,0,1-1,1A2.79,2.79,0,0,1,1188,12.25Z" transform="translate(-2.44 -1.86)"/><path class="cls-1" d="M1195.89,16.37,1198,2.63h5.52a6.62,6.62,0,0,1,4.06.94,2.7,2.7,0,0,1,.92,2.69,3.57,3.57,0,0,1-.75,1.68,5.26,5.26,0,0,1-2,1.36,3.44,3.44,0,0,1,1.33.68,2.17,2.17,0,0,1,.62.87,2.77,2.77,0,0,1,.17.93,7.31,7.31,0,0,1-.07.85,3.87,3.87,0,0,1-1.71,2.83,8.39,8.39,0,0,1-4.41.91Zm4.16-2.78h2.22a1.81,1.81,0,0,0,1.29-.44,1.69,1.69,0,0,0,.57-1,1.11,1.11,0,0,0-.09-.68,1.07,1.07,0,0,0-.47-.47,1.55,1.55,0,0,0-.78-.18h-2.32Zm.84-5.6h2.34a1.64,1.64,0,0,0,.6-.1,1.59,1.59,0,0,0,.48-.26,1.35,1.35,0,0,0,.35-.4,1.45,1.45,0,0,0,.18-.49,1,1,0,0,0-.3-1,1.52,1.52,0,0,0-1.07-.35h-2.18Z" transform="translate(-2.44 -1.86)"/><path class="cls-1" d="M1209.24,16.37l2.1-13.74h6.26a5.61,5.61,0,0,1,2.8.59,2.84,2.84,0,0,1,1.34,1.59,4.64,4.64,0,0,1,.15,2.25,5.6,5.6,0,0,1-.56,1.8,4.6,4.6,0,0,1-1,1.27,6.55,6.55,0,0,1-1.27.92l1.61,5.32h-3.79l-1.28-4.73h-2l-.72,4.73Zm4.86-7.49h2.13a1.59,1.59,0,0,0,.89-.26,2.44,2.44,0,0,0,.69-.67,2.06,2.06,0,0,0,.34-.85,1.41,1.41,0,0,0-.32-1.22,1.34,1.34,0,0,0-1.06-.51h-2.13Z" transform="translate(-2.44 -1.86)"/><path class="cls-1" d="M1221.87,16.37l7-13.74h3.78l2.78,13.74h-3.66l-.5-2.66h-4.36l-1.34,2.66Zm6.31-5.82h2.72l-.67-4.38Z" transform="translate(-2.44 -1.86)"/><path class="cls-1" d="M1242.88,16.56a6.51,6.51,0,0,1-3.41-.74,3.4,3.4,0,0,1-1.55-2.06,7.57,7.57,0,0,1-.09-3.07l1.23-8.06h3.76l-1.26,8.21a3.08,3.08,0,0,0,.07,1.52,1.54,1.54,0,0,0,.69.84,2.08,2.08,0,0,0,1,.26,2.58,2.58,0,0,0,1.62-.6,3,3,0,0,0,1-2l1.25-8.21H1251l-1.23,8.06a8.57,8.57,0,0,1-1,3.07,5.35,5.35,0,0,1-2.18,2.06A7.83,7.83,0,0,1,1242.88,16.56Z" transform="translate(-2.44 -1.86)"/><path class="cls-1" d="M1257.34,16.56a5.88,5.88,0,0,1-3-.74,5,5,0,0,1-1.91-2.05,6.69,6.69,0,0,1-.67-3,9.69,9.69,0,0,1,.49-3,8.29,8.29,0,0,1,1.47-2.67,6.9,6.9,0,0,1,2.42-1.9,7.68,7.68,0,0,1,3.38-.71,6,6,0,0,1,2.78.6,4.16,4.16,0,0,1,1.81,1.71,5.54,5.54,0,0,1,.63,2.73h-3.87a2.56,2.56,0,0,0-.23-1.11,1.58,1.58,0,0,0-.64-.71,2.07,2.07,0,0,0-1.07-.25,2.24,2.24,0,0,0-1.51.52,3.71,3.71,0,0,0-1,1.36,7.48,7.48,0,0,0-.51,1.8,10.62,10.62,0,0,0-.16,1.83,3.24,3.24,0,0,0,.52,2.05,1.7,1.7,0,0,0,1.38.62,2.08,2.08,0,0,0,1.15-.32,3,3,0,0,0,.88-.86,4.23,4.23,0,0,0,.57-1.17h3.87a11.45,11.45,0,0,1-.79,2,6.45,6.45,0,0,1-1.27,1.71,5.7,5.7,0,0,1-1.93,1.17A8.28,8.28,0,0,1,1257.34,16.56Z" transform="translate(-2.44 -1.86)"/><path class="cls-1" d="M1265.56,16.37l2.1-13.74h3.73l-2.1,13.74Z" transform="translate(-2.44 -1.86)"/><path class="cls-1" d="M1272,16.37l2.12-13.74h10.17l-.48,3.06h-6.42L1277.06,8h5.36l-.45,3h-5.39l-.36,2.34h6.48l-.48,3.08Z" transform="translate(-2.44 -1.86)"/><path class="cls-1" d="M1284.53,16.37l2.12-13.74h3.74l4.2,7.66,1.16-7.66h3.73l-2.12,13.74H1294l-4.51-8.19-1.24,8.19Z" transform="translate(-2.44 -1.86)"/><path class="cls-1" d="M1305.79,16.56a9.32,9.32,0,0,1-2.12-.25,5.61,5.61,0,0,1-1.83-.79,3.45,3.45,0,0,1-1.62-3.33h3.86a1.46,1.46,0,0,0,.29.83,1.64,1.64,0,0,0,.72.52,2.78,2.78,0,0,0,1.1.19,5.13,5.13,0,0,0,1.12-.12,2.28,2.28,0,0,0,.91-.38,1.12,1.12,0,0,0,.44-.76.6.6,0,0,0-.23-.64,2.17,2.17,0,0,0-.81-.35,10.83,10.83,0,0,0-1.08-.22l-2.09-.36A3.74,3.74,0,0,1,1302,9.62a3.52,3.52,0,0,1-.6-2.77,4.27,4.27,0,0,1,1.14-2.37A5.94,5.94,0,0,1,1304.9,3a8.37,8.37,0,0,1,3-.52,6.51,6.51,0,0,1,2.91.61,4.64,4.64,0,0,1,1.85,1.6,3.55,3.55,0,0,1,.6,2.12h-3.77a1.36,1.36,0,0,0-.19-.86,1.19,1.19,0,0,0-.65-.47,3.48,3.48,0,0,0-1.1-.15,3.38,3.38,0,0,0-1.16.17,1.53,1.53,0,0,0-.65.42,1.12,1.12,0,0,0-.24.49.87.87,0,0,0,.2.75,2.13,2.13,0,0,0,1.13.45l2.08.36a5.69,5.69,0,0,1,2.25.8,2.89,2.89,0,0,1,1.07,1.21,3.44,3.44,0,0,1,.31,1.34,6.94,6.94,0,0,1-.07,1.17,3.66,3.66,0,0,1-1.1,2.1A6.49,6.49,0,0,1,1309,16,9.26,9.26,0,0,1,1305.79,16.56Z" transform="translate(-2.44 -1.86)"/><path class="cls-1" d="M1321,12.25a2.79,2.79,0,0,1-1.45-.39,3,3,0,0,1-1-1,2.78,2.78,0,0,1-.39-1.44,2.72,2.72,0,0,1,.39-1.43,2.93,2.93,0,0,1,1-1,2.79,2.79,0,0,1,1.45-.39,2.83,2.83,0,0,1,1.46.39,3,3,0,0,1,1,1,2.72,2.72,0,0,1,.39,1.43,2.78,2.78,0,0,1-.39,1.44,3,3,0,0,1-1,1A2.83,2.83,0,0,1,1321,12.25Z" transform="translate(-2.44 -1.86)"/><path class="cls-1" d="M1328.89,16.37,1331,2.63h5.52a6.64,6.64,0,0,1,4.06.94,2.67,2.67,0,0,1,.91,2.69,3.55,3.55,0,0,1-.74,1.68,5.35,5.35,0,0,1-2,1.36,3.52,3.52,0,0,1,1.33.68,2.17,2.17,0,0,1,.62.87,2.53,2.53,0,0,1,.16.93,5.67,5.67,0,0,1-.06.85,3.9,3.9,0,0,1-1.71,2.83,8.39,8.39,0,0,1-4.41.91Zm4.15-2.78h2.23a1.81,1.81,0,0,0,1.29-.44,1.69,1.69,0,0,0,.57-1,1.11,1.11,0,0,0-.09-.68,1.07,1.07,0,0,0-.47-.47,1.61,1.61,0,0,0-.78-.18h-2.32Zm.85-5.6h2.34a1.64,1.64,0,0,0,.6-.1,1.59,1.59,0,0,0,.48-.26,1.35,1.35,0,0,0,.35-.4,1.45,1.45,0,0,0,.18-.49,1,1,0,0,0-.3-1,1.53,1.53,0,0,0-1.07-.35h-2.18Z" transform="translate(-2.44 -1.86)"/><path class="cls-1" d="M1342.23,16.37l2.1-13.74h6.26a5.61,5.61,0,0,1,2.8.59,2.84,2.84,0,0,1,1.34,1.59,4.64,4.64,0,0,1,.15,2.25,5.6,5.6,0,0,1-.56,1.8,4.6,4.6,0,0,1-1,1.27,6.55,6.55,0,0,1-1.27.92l1.61,5.32h-3.79l-1.28-4.73h-2l-.71,4.73Zm4.87-7.49h2.13a1.58,1.58,0,0,0,.88-.26,2.44,2.44,0,0,0,.69-.67,2.06,2.06,0,0,0,.34-.85,1.41,1.41,0,0,0-.32-1.22,1.34,1.34,0,0,0-1.06-.51h-2.13Z" transform="translate(-2.44 -1.86)"/><path class="cls-1" d="M1354.85,16.37l7-13.74h3.77l2.79,13.74h-3.67l-.5-2.66h-4.35l-1.34,2.66Zm6.31-5.82h2.72l-.67-4.38Z" transform="translate(-2.44 -1.86)"/><path class="cls-1" d="M1375.88,16.56a6.53,6.53,0,0,1-3.42-.74,3.39,3.39,0,0,1-1.54-2.06,7.56,7.56,0,0,1-.1-3.07l1.23-8.06h3.77l-1.27,8.21a3.06,3.06,0,0,0,.08,1.52,1.49,1.49,0,0,0,.68.84,2.11,2.11,0,0,0,1,.26,2.58,2.58,0,0,0,1.62-.6,3,3,0,0,0,1-2l1.25-8.21H1384l-1.23,8.06a8.76,8.76,0,0,1-1,3.07,5.32,5.32,0,0,1-2.19,2.06A7.82,7.82,0,0,1,1375.88,16.56Z" transform="translate(-2.44 -1.86)"/><path class="cls-1" d="M1390.35,16.56a5.88,5.88,0,0,1-3-.74,5,5,0,0,1-1.91-2.05,6.69,6.69,0,0,1-.67-3,9.69,9.69,0,0,1,.49-3,8.29,8.29,0,0,1,1.47-2.67,6.9,6.9,0,0,1,2.42-1.9,7.68,7.68,0,0,1,3.38-.71,6,6,0,0,1,2.78.6,4.16,4.16,0,0,1,1.81,1.71,5.54,5.54,0,0,1,.63,2.73h-3.86a2.88,2.88,0,0,0-.23-1.11,1.66,1.66,0,0,0-.65-.71,2.07,2.07,0,0,0-1.07-.25,2.24,2.24,0,0,0-1.51.52,3.71,3.71,0,0,0-1,1.36,7.48,7.48,0,0,0-.51,1.8,10.62,10.62,0,0,0-.16,1.83,3.17,3.17,0,0,0,.53,2.05,1.67,1.67,0,0,0,1.37.62,2.08,2.08,0,0,0,1.15-.32,3,3,0,0,0,.88-.86,4.23,4.23,0,0,0,.57-1.17h3.87a10.73,10.73,0,0,1-.79,2,6.45,6.45,0,0,1-1.27,1.71,5.6,5.6,0,0,1-1.93,1.17A8.28,8.28,0,0,1,1390.35,16.56Z" transform="translate(-2.44 -1.86)"/><path class="cls-1" d="M1398.56,16.37l2.1-13.74h3.72l-2.09,13.74Z" transform="translate(-2.44 -1.86)"/><path class="cls-1" d="M1405,16.37l2.12-13.74h10.17l-.48,3.06h-6.43L1410.06,8h5.36l-.45,3h-5.39l-.37,2.34h6.49l-.48,3.08Z" transform="translate(-2.44 -1.86)"/><path class="cls-1" d="M1417.49,16.37l2.12-13.74h3.74l4.21,7.66,1.16-7.66h3.73l-2.12,13.74H1427l-4.51-8.19-1.24,8.19Z" transform="translate(-2.44 -1.86)"/><path class="cls-1" d="M1438.77,16.56a9.32,9.32,0,0,1-2.12-.25,5.61,5.61,0,0,1-1.83-.79,3.45,3.45,0,0,1-1.62-3.33h3.86a1.46,1.46,0,0,0,.29.83,1.64,1.64,0,0,0,.72.52,2.78,2.78,0,0,0,1.1.19,5.13,5.13,0,0,0,1.12-.12,2.28,2.28,0,0,0,.91-.38,1.12,1.12,0,0,0,.44-.76.6.6,0,0,0-.23-.64,2.17,2.17,0,0,0-.81-.35,10.83,10.83,0,0,0-1.08-.22l-2.09-.36A3.74,3.74,0,0,1,1435,9.62a3.52,3.52,0,0,1-.6-2.77,4.27,4.27,0,0,1,1.14-2.37,5.94,5.94,0,0,1,2.33-1.5,8.37,8.37,0,0,1,3-.52,6.51,6.51,0,0,1,2.91.61,4.64,4.64,0,0,1,1.85,1.6,3.55,3.55,0,0,1,.6,2.12h-3.77a1.36,1.36,0,0,0-.19-.86,1.19,1.19,0,0,0-.65-.47,3.48,3.48,0,0,0-1.1-.15,3.38,3.38,0,0,0-1.16.17,1.53,1.53,0,0,0-.65.42,1.12,1.12,0,0,0-.24.49.87.87,0,0,0,.2.75,2.13,2.13,0,0,0,1.13.45l2.08.36a5.69,5.69,0,0,1,2.25.8,2.89,2.89,0,0,1,1.07,1.21,3.44,3.44,0,0,1,.31,1.34,6.94,6.94,0,0,1-.07,1.17,3.66,3.66,0,0,1-1.1,2.1A6.49,6.49,0,0,1,1442,16,9.26,9.26,0,0,1,1438.77,16.56Z" transform="translate(-2.44 -1.86)"/><path class="cls-1" d="M1454,12.25a2.8,2.8,0,0,1-1.46-.39,3,3,0,0,1-1-1,2.78,2.78,0,0,1-.39-1.44,2.72,2.72,0,0,1,.39-1.43,2.93,2.93,0,0,1,1-1,2.91,2.91,0,0,1,2.91,0,3,3,0,0,1,1,1,2.72,2.72,0,0,1,.39,1.43,2.78,2.78,0,0,1-.39,1.44,3,3,0,0,1-1,1A2.79,2.79,0,0,1,1454,12.25Z" transform="translate(-2.44 -1.86)"/><path class="cls-1" d="M1461.9,16.37,1464,2.63h5.51a6.62,6.62,0,0,1,4.06.94,2.7,2.7,0,0,1,.92,2.69,3.47,3.47,0,0,1-.75,1.68,5.26,5.26,0,0,1-2,1.36,3.44,3.44,0,0,1,1.33.68,2.07,2.07,0,0,1,.62.87,2.55,2.55,0,0,1,.17.93c0,.3,0,.59-.06.85a3.88,3.88,0,0,1-1.72,2.83,8.37,8.37,0,0,1-4.4.91Zm4.15-2.78h2.22a1.81,1.81,0,0,0,1.29-.44,1.59,1.59,0,0,0,.57-1,1.11,1.11,0,0,0-.09-.68,1,1,0,0,0-.47-.47,1.55,1.55,0,0,0-.78-.18h-2.32Zm.84-5.6h2.34a1.81,1.81,0,0,0,1.09-.36,1.32,1.32,0,0,0,.34-.4,1.45,1.45,0,0,0,.18-.49,1,1,0,0,0-.29-1,1.56,1.56,0,0,0-1.08-.35h-2.18Z" transform="translate(-2.44 -1.86)"/><path class="cls-1" d="M1475.24,16.37l2.1-13.74h6.25a5.61,5.61,0,0,1,2.8.59,2.9,2.9,0,0,1,1.35,1.59,4.9,4.9,0,0,1,.15,2.25,5.6,5.6,0,0,1-.57,1.8,4.57,4.57,0,0,1-1,1.27,6.86,6.86,0,0,1-1.27.92l1.61,5.32h-3.8l-1.28-4.73h-1.95l-.72,4.73Zm4.86-7.49h2.13a1.58,1.58,0,0,0,.88-.26,2.44,2.44,0,0,0,.69-.67,2.08,2.08,0,0,0,.35-.85,1.45,1.45,0,0,0-.33-1.22,1.34,1.34,0,0,0-1.06-.51h-2.12Z" transform="translate(-2.44 -1.86)"/><path class="cls-1" d="M1487.87,16.37l7-13.74h3.78l2.78,13.74h-3.67l-.49-2.66h-4.36l-1.34,2.66Zm6.31-5.82h2.72l-.67-4.38Z" transform="translate(-2.44 -1.86)"/><path class="cls-1" d="M1508.88,16.56a6.53,6.53,0,0,1-3.42-.74,3.39,3.39,0,0,1-1.54-2.06,7.56,7.56,0,0,1-.1-3.07l1.23-8.06h3.77l-1.27,8.21a3.06,3.06,0,0,0,.08,1.52,1.53,1.53,0,0,0,.68.84,2.15,2.15,0,0,0,1,.26,2.58,2.58,0,0,0,1.61-.6,3,3,0,0,0,1-2l1.25-8.21H1517l-1.23,8.06a8.76,8.76,0,0,1-1,3.07,5.35,5.35,0,0,1-2.18,2.06A7.89,7.89,0,0,1,1508.88,16.56Z" transform="translate(-2.44 -1.86)"/><path class="cls-1" d="M1523.34,16.56a5.81,5.81,0,0,1-3-.74,5,5,0,0,1-1.91-2.05,6.56,6.56,0,0,1-.67-3,9.41,9.41,0,0,1,.49-3,8.08,8.08,0,0,1,1.46-2.67,7,7,0,0,1,2.43-1.9,7.65,7.65,0,0,1,3.38-.71,6,6,0,0,1,2.78.6,4.13,4.13,0,0,1,1.8,1.71,5.54,5.54,0,0,1,.64,2.73h-3.87a2.71,2.71,0,0,0-.23-1.11,1.6,1.6,0,0,0-.65-.71,2,2,0,0,0-1.07-.25,2.19,2.19,0,0,0-1.5.52,3.62,3.62,0,0,0-1,1.36,7.48,7.48,0,0,0-.51,1.8,11.67,11.67,0,0,0-.15,1.83,3.18,3.18,0,0,0,.52,2.05,1.7,1.7,0,0,0,1.38.62,2,2,0,0,0,1.14-.32,3,3,0,0,0,.89-.86,4.88,4.88,0,0,0,.57-1.17h3.87a10.76,10.76,0,0,1-.8,2,6.21,6.21,0,0,1-1.26,1.71,5.7,5.7,0,0,1-1.93,1.17A8.3,8.3,0,0,1,1523.34,16.56Z" transform="translate(-2.44 -1.86)"/><path class="cls-1" d="M1531.57,16.37l2.1-13.74h3.72l-2.09,13.74Z" transform="translate(-2.44 -1.86)"/><path class="cls-1" d="M1538,16.37l2.12-13.74h10.17l-.48,3.06h-6.43L1543,8h5.36l-.45,3h-5.39l-.37,2.34h6.49l-.48,3.08Z" transform="translate(-2.44 -1.86)"/><path class="cls-1" d="M1550.5,16.37l2.12-13.74h3.74l4.2,7.66,1.16-7.66h3.73l-2.12,13.74H1560l-4.51-8.19-1.25,8.19Z" transform="translate(-2.44 -1.86)"/><path class="cls-1" d="M1571.78,16.56a9.3,9.3,0,0,1-2.11-.25,5.76,5.76,0,0,1-1.84-.79,3.71,3.71,0,0,1-1.25-1.36,3.46,3.46,0,0,1-.36-2h3.86a1.46,1.46,0,0,0,.29.83,1.67,1.67,0,0,0,.71.52,2.87,2.87,0,0,0,1.11.19,5.13,5.13,0,0,0,1.12-.12,2.28,2.28,0,0,0,.91-.38,1.12,1.12,0,0,0,.44-.76.6.6,0,0,0-.23-.64,2.17,2.17,0,0,0-.81-.35,10.49,10.49,0,0,0-1.09-.22l-2.08-.36A3.74,3.74,0,0,1,1568,9.62a3.52,3.52,0,0,1-.6-2.77,4.14,4.14,0,0,1,1.14-2.37A5.94,5.94,0,0,1,1570.9,3a8.37,8.37,0,0,1,3-.52,6.51,6.51,0,0,1,2.91.61,4.78,4.78,0,0,1,1.85,1.6,3.55,3.55,0,0,1,.6,2.12h-3.77a1.43,1.43,0,0,0-.19-.86,1.18,1.18,0,0,0-.66-.47,3.41,3.41,0,0,0-1.09-.15,3.34,3.34,0,0,0-1.16.17,1.53,1.53,0,0,0-.65.42.94.94,0,0,0-.24.49.86.86,0,0,0,.19.75,2.21,2.21,0,0,0,1.14.45l2.08.36a5.69,5.69,0,0,1,2.25.8,3,3,0,0,1,1.07,1.21,3.44,3.44,0,0,1,.31,1.34,8.17,8.17,0,0,1-.07,1.17,3.72,3.72,0,0,1-1.1,2.1A6.57,6.57,0,0,1,1575,16,9.32,9.32,0,0,1,1571.78,16.56Z" transform="translate(-2.44 -1.86)"/><path class="cls-1" d="M1587,12.25a2.76,2.76,0,0,1-1.45-.39,3,3,0,0,1-1-1,2.78,2.78,0,0,1-.39-1.44,2.72,2.72,0,0,1,.39-1.43,3,3,0,0,1,1-1,2.89,2.89,0,0,1,2.9,0,3,3,0,0,1,1,1,2.72,2.72,0,0,1,.39,1.43,2.78,2.78,0,0,1-.39,1.44,3,3,0,0,1-1,1A2.79,2.79,0,0,1,1587,12.25Z" transform="translate(-2.44 -1.86)"/><path class="cls-1" d="M1594.88,16.37,1597,2.63h5.51a6.6,6.6,0,0,1,4.06.94,2.68,2.68,0,0,1,.92,2.69,3.55,3.55,0,0,1-.74,1.68,5.4,5.4,0,0,1-2,1.36,3.37,3.37,0,0,1,1.33.68,2.2,2.2,0,0,1,.63.87,2.76,2.76,0,0,1,.16.93,7.39,7.39,0,0,1-.06.85,3.88,3.88,0,0,1-1.72,2.83,8.37,8.37,0,0,1-4.4.91Zm4.15-2.78h2.22a1.81,1.81,0,0,0,1.29-.44,1.59,1.59,0,0,0,.57-1,1.11,1.11,0,0,0-.09-.68,1,1,0,0,0-.47-.47,1.55,1.55,0,0,0-.78-.18h-2.32Zm.84-5.6h2.34a1.81,1.81,0,0,0,1.09-.36,1.32,1.32,0,0,0,.34-.4,1.45,1.45,0,0,0,.18-.49,1,1,0,0,0-.29-1,1.56,1.56,0,0,0-1.08-.35h-2.17Z" transform="translate(-2.44 -1.86)"/><path class="cls-1" d="M1608.24,16.37l2.1-13.74h6.25a5.65,5.65,0,0,1,2.81.59,2.84,2.84,0,0,1,1.34,1.59,4.64,4.64,0,0,1,.15,2.25,5.6,5.6,0,0,1-.56,1.8,4.8,4.8,0,0,1-1,1.27,6.55,6.55,0,0,1-1.27.92l1.61,5.32h-3.8l-1.27-4.73h-2l-.72,4.73Zm4.86-7.49h2.13a1.54,1.54,0,0,0,.88-.26,2.35,2.35,0,0,0,.7-.67,2.06,2.06,0,0,0,.34-.85,1.41,1.41,0,0,0-.32-1.22,1.34,1.34,0,0,0-1.06-.51h-2.13Z" transform="translate(-2.44 -1.86)"/><path class="cls-1" d="M1620.84,16.37l7-13.74h3.78l2.78,13.74h-3.66l-.5-2.66h-4.36l-1.34,2.66Zm6.31-5.82h2.72l-.67-4.38Z" transform="translate(-2.44 -1.86)"/><path class="cls-1" d="M1641.86,16.56a6.55,6.55,0,0,1-3.42-.74,3.39,3.39,0,0,1-1.54-2.06,7.56,7.56,0,0,1-.1-3.07L1638,2.63h3.77l-1.27,8.21a3.06,3.06,0,0,0,.08,1.52,1.53,1.53,0,0,0,.68.84,2.15,2.15,0,0,0,1,.26,2.56,2.56,0,0,0,1.61-.6,3,3,0,0,0,1-2l1.24-8.21h3.76l-1.23,8.06a8.56,8.56,0,0,1-1,3.07,5.35,5.35,0,0,1-2.18,2.06A7.89,7.89,0,0,1,1641.86,16.56Z" transform="translate(-2.44 -1.86)"/><path class="cls-1" d="M1656.32,16.56a5.81,5.81,0,0,1-3-.74,5.06,5.06,0,0,1-1.92-2.05,6.69,6.69,0,0,1-.66-3,9.41,9.41,0,0,1,.49-3,8.08,8.08,0,0,1,1.46-2.67,7,7,0,0,1,2.43-1.9,7.61,7.61,0,0,1,3.38-.71,6,6,0,0,1,2.78.6,4.13,4.13,0,0,1,1.8,1.71,5.54,5.54,0,0,1,.63,2.73h-3.86a2.71,2.71,0,0,0-.23-1.11,1.6,1.6,0,0,0-.65-.71,2,2,0,0,0-1.07-.25,2.19,2.19,0,0,0-1.5.52,3.62,3.62,0,0,0-1,1.36,7.48,7.48,0,0,0-.51,1.8,11.67,11.67,0,0,0-.15,1.83,3.18,3.18,0,0,0,.52,2.05,1.69,1.69,0,0,0,1.37.62,2.06,2.06,0,0,0,1.15-.32,2.88,2.88,0,0,0,.88-.86,4.23,4.23,0,0,0,.57-1.17h3.88a11.48,11.48,0,0,1-.8,2,6.42,6.42,0,0,1-1.26,1.71,5.74,5.74,0,0,1-1.94,1.17A8.28,8.28,0,0,1,1656.32,16.56Z" transform="translate(-2.44 -1.86)"/><path class="cls-1" d="M1664.56,16.37l2.1-13.74h3.73l-2.1,13.74Z" transform="translate(-2.44 -1.86)"/><path class="cls-1" d="M1671,16.37l2.11-13.74h10.17l-.48,3.06h-6.42L1676,8h5.36l-.45,3h-5.39l-.36,2.34h6.48l-.48,3.08Z" transform="translate(-2.44 -1.86)"/><path class="cls-1" d="M1683.5,16.37l2.12-13.74h3.74l4.2,7.66,1.16-7.66h3.73l-2.12,13.74H1693l-4.51-8.19-1.25,8.19Z" transform="translate(-2.44 -1.86)"/><path class="cls-1" d="M1704.77,16.56a9.23,9.23,0,0,1-2.11-.25,5.76,5.76,0,0,1-1.84-.79,3.63,3.63,0,0,1-1.25-1.36,3.46,3.46,0,0,1-.36-2h3.85a1.54,1.54,0,0,0,.29.83,1.64,1.64,0,0,0,.72.52,2.85,2.85,0,0,0,1.1.19,5.22,5.22,0,0,0,1.13-.12,2.23,2.23,0,0,0,.9-.38,1.09,1.09,0,0,0,.45-.76.61.61,0,0,0-.24-.64,2.17,2.17,0,0,0-.81-.35,10.83,10.83,0,0,0-1.08-.22l-2.08-.36A3.74,3.74,0,0,1,1701,9.62a3.45,3.45,0,0,1-.6-2.77,4.19,4.19,0,0,1,1.13-2.37,6,6,0,0,1,2.33-1.5,8.41,8.41,0,0,1,3-.52,6.51,6.51,0,0,1,2.91.61,4.74,4.74,0,0,1,1.86,1.6,3.47,3.47,0,0,1,.59,2.12h-3.77a1.43,1.43,0,0,0-.18-.86,1.25,1.25,0,0,0-.66-.47,3.41,3.41,0,0,0-1.09-.15,3.34,3.34,0,0,0-1.16.17,1.47,1.47,0,0,0-.65.42,1,1,0,0,0-.25.49.9.9,0,0,0,.2.75,2.21,2.21,0,0,0,1.14.45l2.08.36a5.58,5.58,0,0,1,2.24.8A2.92,2.92,0,0,1,1711.2,10a3.26,3.26,0,0,1,.3,1.34,7,7,0,0,1-.06,1.17,3.73,3.73,0,0,1-1.11,2.1A6.53,6.53,0,0,1,1708,16,9.32,9.32,0,0,1,1704.77,16.56Z" transform="translate(-2.44 -1.86)"/><path class="cls-1" d="M1720,12.25a2.79,2.79,0,0,1-1.45-.39,3,3,0,0,1-1-1,2.78,2.78,0,0,1-.39-1.44,2.72,2.72,0,0,1,.39-1.43,3,3,0,0,1,1-1,2.89,2.89,0,0,1,2.9,0,3,3,0,0,1,1,1,2.64,2.64,0,0,1,.4,1.43,2.7,2.7,0,0,1-.4,1.44,3,3,0,0,1-1,1A2.79,2.79,0,0,1,1720,12.25Z" transform="translate(-2.44 -1.86)"/><path class="cls-1" d="M1727.88,16.37,1730,2.63h5.51a6.6,6.6,0,0,1,4.06.94,2.68,2.68,0,0,1,.92,2.69,3.55,3.55,0,0,1-.74,1.68,5.4,5.4,0,0,1-2,1.36,3.37,3.37,0,0,1,1.33.68,2.2,2.2,0,0,1,.63.87,2.76,2.76,0,0,1,.16.93,7.39,7.39,0,0,1-.06.85,3.88,3.88,0,0,1-1.72,2.83,8.37,8.37,0,0,1-4.4.91Zm4.15-2.78h2.22a1.81,1.81,0,0,0,1.29-.44,1.59,1.59,0,0,0,.57-1,1.11,1.11,0,0,0-.09-.68,1,1,0,0,0-.47-.47,1.55,1.55,0,0,0-.78-.18h-2.32Zm.84-5.6h2.34a1.81,1.81,0,0,0,1.09-.36,1.32,1.32,0,0,0,.34-.4,1.45,1.45,0,0,0,.18-.49,1,1,0,0,0-.29-1,1.56,1.56,0,0,0-1.08-.35h-2.17Z" transform="translate(-2.44 -1.86)"/><path class="cls-1" d="M1741.24,16.37l2.1-13.74h6.25a5.65,5.65,0,0,1,2.81.59,2.84,2.84,0,0,1,1.34,1.59,4.64,4.64,0,0,1,.15,2.25,5.6,5.6,0,0,1-.56,1.8,4.8,4.8,0,0,1-1,1.27,6.55,6.55,0,0,1-1.27.92l1.61,5.32h-3.8l-1.27-4.73h-2l-.72,4.73Zm4.86-7.49h2.13a1.59,1.59,0,0,0,.89-.26,2.44,2.44,0,0,0,.69-.67,2.06,2.06,0,0,0,.34-.85,1.41,1.41,0,0,0-.32-1.22,1.34,1.34,0,0,0-1.06-.51h-2.13Z" transform="translate(-2.44 -1.86)"/><path class="cls-1" d="M1753.85,16.37l7-13.74h3.78l2.78,13.74h-3.66l-.5-2.66h-4.36l-1.34,2.66Zm6.31-5.82h2.72l-.67-4.38Z" transform="translate(-2.44 -1.86)"/><path class="cls-1" d="M1774.87,16.56a6.53,6.53,0,0,1-3.42-.74,3.39,3.39,0,0,1-1.54-2.06,7.56,7.56,0,0,1-.1-3.07L1771,2.63h3.77l-1.27,8.21a3.06,3.06,0,0,0,.08,1.52,1.53,1.53,0,0,0,.68.84,2.15,2.15,0,0,0,1,.26,2.58,2.58,0,0,0,1.61-.6,3,3,0,0,0,1-2l1.24-8.21h3.76l-1.23,8.06a8.76,8.76,0,0,1-1,3.07,5.35,5.35,0,0,1-2.18,2.06A7.89,7.89,0,0,1,1774.87,16.56Z" transform="translate(-2.44 -1.86)"/><path class="cls-1" d="M1789.33,16.56a5.84,5.84,0,0,1-3-.74,5,5,0,0,1-1.91-2.05,6.69,6.69,0,0,1-.67-3,9.69,9.69,0,0,1,.49-3,8.29,8.29,0,0,1,1.47-2.67,6.9,6.9,0,0,1,2.42-1.9,7.68,7.68,0,0,1,3.38-.71,6,6,0,0,1,2.78.6,4.21,4.21,0,0,1,1.81,1.71,5.54,5.54,0,0,1,.63,2.73h-3.87a2.56,2.56,0,0,0-.23-1.11,1.58,1.58,0,0,0-.64-.71,2.07,2.07,0,0,0-1.07-.25,2.22,2.22,0,0,0-1.51.52,3.71,3.71,0,0,0-1,1.36,7.48,7.48,0,0,0-.51,1.8,10.62,10.62,0,0,0-.16,1.83,3.24,3.24,0,0,0,.52,2.05,1.7,1.7,0,0,0,1.38.62,2.1,2.1,0,0,0,1.15-.32,3,3,0,0,0,.88-.86,4.53,4.53,0,0,0,.57-1.17h3.87a11.45,11.45,0,0,1-.79,2,6.45,6.45,0,0,1-1.27,1.71,5.7,5.7,0,0,1-1.93,1.17A8.3,8.3,0,0,1,1789.33,16.56Z" transform="translate(-2.44 -1.86)"/><path class="cls-1" d="M1797.56,16.37l2.1-13.74h3.72l-2.09,13.74Z" transform="translate(-2.44 -1.86)"/><path class="cls-1" d="M1804,16.37l2.12-13.74h10.16l-.48,3.06h-6.42L1809.05,8h5.36l-.45,3h-5.39l-.36,2.34h6.48l-.48,3.08Z" transform="translate(-2.44 -1.86)"/><path class="cls-1" d="M1816.51,16.37l2.12-13.74h3.74l4.2,7.66,1.16-7.66h3.73l-2.12,13.74H1826l-4.51-8.19-1.25,8.19Z" transform="translate(-2.44 -1.86)"/><path class="cls-1" d="M1837.78,16.56a9.23,9.23,0,0,1-2.11-.25,5.76,5.76,0,0,1-1.84-.79,3.63,3.63,0,0,1-1.25-1.36,3.46,3.46,0,0,1-.36-2h3.85a1.54,1.54,0,0,0,.29.83,1.64,1.64,0,0,0,.72.52,2.85,2.85,0,0,0,1.1.19,5.22,5.22,0,0,0,1.13-.12,2.23,2.23,0,0,0,.9-.38,1.09,1.09,0,0,0,.45-.76.63.63,0,0,0-.24-.64,2.17,2.17,0,0,0-.81-.35,10.83,10.83,0,0,0-1.08-.22l-2.08-.36A3.74,3.74,0,0,1,1834,9.62a3.45,3.45,0,0,1-.6-2.77,4.19,4.19,0,0,1,1.13-2.37,6,6,0,0,1,2.33-1.5,8.41,8.41,0,0,1,3-.52,6.51,6.51,0,0,1,2.91.61,4.74,4.74,0,0,1,1.86,1.6,3.54,3.54,0,0,1,.59,2.12h-3.77a1.43,1.43,0,0,0-.18-.86,1.25,1.25,0,0,0-.66-.47,3.41,3.41,0,0,0-1.09-.15,3.34,3.34,0,0,0-1.16.17,1.47,1.47,0,0,0-.65.42,1,1,0,0,0-.25.49.87.87,0,0,0,.2.75,2.21,2.21,0,0,0,1.14.45l2.08.36a5.64,5.64,0,0,1,2.24.8,2.92,2.92,0,0,1,1.08,1.21,3.42,3.42,0,0,1,.3,1.34,7,7,0,0,1-.06,1.17,3.73,3.73,0,0,1-1.11,2.1A6.49,6.49,0,0,1,1841,16,9.22,9.22,0,0,1,1837.78,16.56Z" transform="translate(-2.44 -1.86)"/><path class="cls-1" d="M1853,12.25a2.79,2.79,0,0,1-1.45-.39,2.88,2.88,0,0,1-1-1,2.78,2.78,0,0,1-.39-1.44,2.72,2.72,0,0,1,.39-1.43,2.85,2.85,0,0,1,1-1,2.79,2.79,0,0,1,1.45-.39,2.83,2.83,0,0,1,1.46.39,3.13,3.13,0,0,1,1,1,2.72,2.72,0,0,1,.39,1.43,2.78,2.78,0,0,1-.39,1.44,3.16,3.16,0,0,1-1,1A2.83,2.83,0,0,1,1853,12.25Z" transform="translate(-2.44 -1.86)"/><path class="cls-1" d="M1860.89,16.37,1863,2.63h5.51a6.62,6.62,0,0,1,4.06.94,2.68,2.68,0,0,1,.92,2.69,3.47,3.47,0,0,1-.75,1.68,5.26,5.26,0,0,1-2,1.36,3.44,3.44,0,0,1,1.33.68,2.2,2.2,0,0,1,.63.87,2.76,2.76,0,0,1,.16.93c0,.3,0,.59-.06.85a3.88,3.88,0,0,1-1.72,2.83,8.37,8.37,0,0,1-4.4.91Zm4.15-2.78h2.22a1.81,1.81,0,0,0,1.29-.44,1.59,1.59,0,0,0,.57-1,1.11,1.11,0,0,0-.09-.68,1,1,0,0,0-.47-.47,1.55,1.55,0,0,0-.78-.18h-2.32Zm.84-5.6h2.34a1.81,1.81,0,0,0,1.09-.36,1.32,1.32,0,0,0,.34-.4,1.45,1.45,0,0,0,.18-.49,1,1,0,0,0-.29-1,1.56,1.56,0,0,0-1.08-.35h-2.17Z" transform="translate(-2.44 -1.86)"/><path class="cls-1" d="M1874.23,16.37l2.1-13.74h6.26a5.61,5.61,0,0,1,2.8.59,2.9,2.9,0,0,1,1.35,1.59,4.77,4.77,0,0,1,.14,2.25,5.37,5.37,0,0,1-.56,1.8,4.6,4.6,0,0,1-1,1.27,6.55,6.55,0,0,1-1.27.92l1.61,5.32h-3.79l-1.28-4.73h-1.95l-.72,4.73Zm4.87-7.49h2.13a1.58,1.58,0,0,0,.88-.26,2.44,2.44,0,0,0,.69-.67,2.06,2.06,0,0,0,.34-.85,1.41,1.41,0,0,0-.32-1.22,1.34,1.34,0,0,0-1.06-.51h-2.13Z" transform="translate(-2.44 -1.86)"/><path class="cls-1" d="M1886.86,16.37l7-13.74h3.78l2.78,13.74h-3.66l-.5-2.66h-4.36l-1.34,2.66Zm6.31-5.82h2.72l-.67-4.38Z" transform="translate(-2.44 -1.86)"/><path class="cls-1" d="M1907.86,16.56a6.58,6.58,0,0,1-3.42-.74,3.43,3.43,0,0,1-1.54-2.06,7.56,7.56,0,0,1-.1-3.07L1904,2.63h3.77l-1.27,8.21a3.06,3.06,0,0,0,.08,1.52,1.57,1.57,0,0,0,.68.84,2.15,2.15,0,0,0,1,.26,2.54,2.54,0,0,0,1.61-.6,3,3,0,0,0,1-2l1.24-8.21h3.76l-1.22,8.06a8.77,8.77,0,0,1-1,3.07,5.35,5.35,0,0,1-2.18,2.06A7.89,7.89,0,0,1,1907.86,16.56Z" transform="translate(-2.44 -1.86)"/><path class="cls-1" d="M1922.32,16.56a5.81,5.81,0,0,1-3-.74,5,5,0,0,1-1.92-2.05,6.69,6.69,0,0,1-.66-3,9.68,9.68,0,0,1,.48-3,8.29,8.29,0,0,1,1.47-2.67,7.08,7.08,0,0,1,2.42-1.9,7.68,7.68,0,0,1,3.38-.71,6,6,0,0,1,2.79.6,4.13,4.13,0,0,1,1.8,1.71,5.54,5.54,0,0,1,.63,2.73h-3.86a2.88,2.88,0,0,0-.23-1.11,1.66,1.66,0,0,0-.65-.71,2.07,2.07,0,0,0-1.07-.25,2.24,2.24,0,0,0-1.51.52,3.71,3.71,0,0,0-1,1.36,7.48,7.48,0,0,0-.51,1.8,10.62,10.62,0,0,0-.16,1.83,3.17,3.17,0,0,0,.53,2.05,1.67,1.67,0,0,0,1.37.62,2.08,2.08,0,0,0,1.15-.32,3,3,0,0,0,.88-.86,4.23,4.23,0,0,0,.57-1.17h3.88a11.48,11.48,0,0,1-.8,2,6.45,6.45,0,0,1-1.27,1.71,5.6,5.6,0,0,1-1.93,1.17A8.28,8.28,0,0,1,1922.32,16.56Z" transform="translate(-2.44 -1.86)"/><path class="cls-1" d="M1930.56,16.37l2.1-13.74h3.72l-2.09,13.74Z" transform="translate(-2.44 -1.86)"/></g></g></svg>