<svg xmlns="http://www.w3.org/2000/svg" viewBox="0 0 1199.52 437.52"><defs><style>.cls-1{opacity:0.6;}.cls-2{fill:#fff;}</style></defs><g id="Layer_2" data-name="Layer 2"><g id="Accordion_menu_expanded" data-name="Accordion menu expanded"><g id="Layer_5_copy_2" data-name="Layer 5 copy 2"><g class="cls-1"><path class="cls-2" d="M12.64,439.41,2,437.78V433.5a5.21,5.21,0,0,1,.72-3.15,2.09,2.09,0,0,1,2.08-.71,2.7,2.7,0,0,1,1.3.58,4,4,0,0,1,1,1.52,2.74,2.74,0,0,1,.52-1,1.75,1.75,0,0,1,.67-.49,2.27,2.27,0,0,1,.72-.12,4.43,4.43,0,0,1,.66,0,3,3,0,0,1,2.18,1.32,6.49,6.49,0,0,1,.71,3.42Zm-6.47-3.88v-1.81a1.4,1.4,0,0,0-.08-.47,1.2,1.2,0,0,0-.2-.37,1,1,0,0,0-.31-.27,1,1,0,0,0-.38-.14.74.74,0,0,0-.75.23,1.18,1.18,0,0,0-.28.83v1.69Zm4.32.66v-1.73a1.41,1.41,0,0,0-.34-1,1.25,1.25,0,0,0-.76-.44.82.82,0,0,0-.52.07.91.91,0,0,0-.37.36,1.28,1.28,0,0,0-.13.61v1.8Z" transform="translate(-1.88 -1.88)"/><path class="cls-2" d="M12.64,428.78,2,427.15V422.3a4.28,4.28,0,0,1,.46-2.18,2.2,2.2,0,0,1,1.22-1A3.57,3.57,0,0,1,5.45,419a4.45,4.45,0,0,1,1.39.44,3.69,3.69,0,0,1,1,.75,5.08,5.08,0,0,1,.71,1l4.11-1.25v2.94l-3.66,1v1.52l3.66.56ZM6.86,425v-1.65a1.21,1.21,0,0,0-.21-.68,1.87,1.87,0,0,0-.51-.54,1.55,1.55,0,0,0-.66-.26,1.11,1.11,0,0,0-.94.24,1,1,0,0,0-.4.83v1.65Z" transform="translate(-1.88 -1.88)"/><path class="cls-2" d="M12.64,418.84,2,413.41v-2.93l10.61-2.16v2.84l-2.06.39v3.38l2.06,1ZM8.15,414v-2.12l-3.39.52Z" transform="translate(-1.88 -1.88)"/><path class="cls-2" d="M12.78,403.06a5,5,0,0,1-.57,2.64,2.59,2.59,0,0,1-1.59,1.2,5.94,5.94,0,0,1-2.37.08L2,406V403.1l6.34,1A2.19,2.19,0,0,0,9.54,404a1.16,1.16,0,0,0,.65-.53,1.62,1.62,0,0,0,.2-.81,2,2,0,0,0-.46-1.25,2.36,2.36,0,0,0-1.56-.76l-6.34-1v-2.92l6.22.95a6.64,6.64,0,0,1,2.37.81,4.06,4.06,0,0,1,1.59,1.69A6.1,6.1,0,0,1,12.78,403.06Z" transform="translate(-1.88 -1.88)"/><path class="cls-2" d="M12.78,391.85a4.56,4.56,0,0,1-.57,2.34,3.89,3.89,0,0,1-1.58,1.48,5.17,5.17,0,0,1-2.34.52A7.39,7.39,0,0,1,6,395.81a6.4,6.4,0,0,1-2.06-1.14,5.47,5.47,0,0,1-1.47-1.88,6,6,0,0,1-.55-2.62A4.81,4.81,0,0,1,2.34,388a3.33,3.33,0,0,1,1.33-1.4,4.29,4.29,0,0,1,2.1-.49v3a1.87,1.87,0,0,0-.85.18,1.21,1.21,0,0,0-.55.5,1.62,1.62,0,0,0-.2.83,1.72,1.72,0,0,0,.41,1.17,2.73,2.73,0,0,0,1,.74,5.65,5.65,0,0,0,1.38.4,9,9,0,0,0,1.42.12,2.46,2.46,0,0,0,1.58-.4,1.34,1.34,0,0,0,.48-1.07,1.62,1.62,0,0,0-.25-.89,2.14,2.14,0,0,0-.66-.68,3.79,3.79,0,0,0-.9-.45v-3a8.74,8.74,0,0,1,1.56.62,4.83,4.83,0,0,1,1.31,1,4.16,4.16,0,0,1,.91,1.5A6.56,6.56,0,0,1,12.78,391.85Z" transform="translate(-1.88 -1.88)"/><path class="cls-2" d="M12.64,385.44,2,383.82v-2.89l10.61,1.62Z" transform="translate(-1.88 -1.88)"/><path class="cls-2" d="M12.64,380.46,2,378.81v-7.88l2.36.37v5l1.76.27v-4.16l2.31.35v4.18l1.8.29v-5l2.38.37Z" transform="translate(-1.88 -1.88)"/><path class="cls-2" d="M12.64,370.75,2,369.11v-2.9L7.94,363,2,362.05v-2.9l10.61,1.65v2.59l-6.33,3.5,6.33,1Z" transform="translate(-1.88 -1.88)"/><path class="cls-2" d="M12.78,354.26a6.88,6.88,0,0,1-.19,1.64,4.33,4.33,0,0,1-.61,1.42,2.79,2.79,0,0,1-1.05,1,2.65,2.65,0,0,1-1.52.28v-3a1.15,1.15,0,0,0,.64-.22,1.25,1.25,0,0,0,.4-.56,2.19,2.19,0,0,0,.15-.85,4,4,0,0,0-.09-.87,1.84,1.84,0,0,0-.3-.71.85.85,0,0,0-.58-.34.47.47,0,0,0-.5.18,1.67,1.67,0,0,0-.27.63c-.07.26-.12.54-.17.84l-.28,1.61a2.88,2.88,0,0,1-1,1.88,2.7,2.7,0,0,1-2.13.47,3.23,3.23,0,0,1-1.83-.89A4.67,4.67,0,0,1,2.3,355a6.56,6.56,0,0,1-.4-2.31,5.06,5.06,0,0,1,.47-2.26,3.6,3.6,0,0,1,1.24-1.44,2.68,2.68,0,0,1,1.63-.46v2.92a1.12,1.12,0,0,0-.66.15,1,1,0,0,0-.37.51,2.85,2.85,0,0,0-.11.84,2.45,2.45,0,0,0,.13.9,1.15,1.15,0,0,0,.32.51.88.88,0,0,0,.39.19.66.66,0,0,0,.57-.16,1.59,1.59,0,0,0,.35-.88l.28-1.61a4.34,4.34,0,0,1,.61-1.74,2.38,2.38,0,0,1,.94-.84,2.56,2.56,0,0,1,1-.23,5.14,5.14,0,0,1,.91,0,2.85,2.85,0,0,1,1.62.85,5.06,5.06,0,0,1,1.12,1.85A7,7,0,0,1,12.78,354.26Z" transform="translate(-1.88 -1.88)"/><path class="cls-2" d="M9.45,342.47a2.2,2.2,0,0,1-.3,1.13,2.3,2.3,0,0,1-.8.81,2.15,2.15,0,0,1-1.11.3,2.09,2.09,0,0,1-1.1-.3,2.3,2.3,0,0,1-.8-.81,2.28,2.28,0,0,1,0-2.26,2.3,2.3,0,0,1,.8-.81,2.1,2.1,0,0,1,1.1-.31,2.16,2.16,0,0,1,1.11.31,2.3,2.3,0,0,1,.8.81A2.2,2.2,0,0,1,9.45,342.47Z" transform="translate(-1.88 -1.88)"/><path class="cls-2" d="M12.64,336.35,2,334.72v-4.28a5.21,5.21,0,0,1,.72-3.15,2.09,2.09,0,0,1,2.08-.71,2.7,2.7,0,0,1,1.3.58,4,4,0,0,1,1,1.52,2.74,2.74,0,0,1,.52-1,1.62,1.62,0,0,1,.67-.48,2,2,0,0,1,.72-.13,4.43,4.43,0,0,1,.66,0,3,3,0,0,1,2.18,1.33,6.44,6.44,0,0,1,.71,3.41Zm-6.47-3.88v-1.81a1.4,1.4,0,0,0-.08-.47,1.2,1.2,0,0,0-.2-.37,1,1,0,0,0-.31-.27,1,1,0,0,0-.38-.14.74.74,0,0,0-.75.23,1.18,1.18,0,0,0-.28.83v1.69Zm4.32.66V331.4a1.43,1.43,0,0,0-.34-1,1.25,1.25,0,0,0-.76-.44.82.82,0,0,0-.52.07.91.91,0,0,0-.37.36,1.28,1.28,0,0,0-.13.61v1.8Z" transform="translate(-1.88 -1.88)"/><path class="cls-2" d="M12.64,325.69,2,324.06v-4.85A4.24,4.24,0,0,1,2.49,317,2.26,2.26,0,0,1,3.71,316a3.7,3.7,0,0,1,1.74-.11,4.46,4.46,0,0,1,1.39.43,3.92,3.92,0,0,1,1,.75,5.4,5.4,0,0,1,.71,1l4.11-1.25v2.95l-3.66,1v1.52l3.66.56Zm-5.78-3.77v-1.65a1.22,1.22,0,0,0-.21-.69,1.72,1.72,0,0,0-.51-.53,1.45,1.45,0,0,0-.66-.27,1.08,1.08,0,0,0-.94.25,1,1,0,0,0-.4.82v1.65Z" transform="translate(-1.88 -1.88)"/><path class="cls-2" d="M12.64,315.75,2,310.32v-2.93l10.61-2.16v2.84l-2.06.39v3.38l2.06,1Zm-4.49-4.9v-2.11l-3.39.52Z" transform="translate(-1.88 -1.88)"/><path class="cls-2" d="M12.78,300a5.09,5.09,0,0,1-.57,2.65,2.66,2.66,0,0,1-1.59,1.2,6,6,0,0,1-2.37.07L2,302.94V300l6.34,1a2.41,2.41,0,0,0,1.17-.06,1.2,1.2,0,0,0,.65-.53,1.68,1.68,0,0,0,.2-.81,2,2,0,0,0-.46-1.26,2.35,2.35,0,0,0-1.56-.75l-6.34-1v-2.91l6.22,1a6.84,6.84,0,0,1,2.37.8,4.09,4.09,0,0,1,1.59,1.7A6.08,6.08,0,0,1,12.78,300Z" transform="translate(-1.88 -1.88)"/><path class="cls-2" d="M12.78,288.75a4.51,4.51,0,0,1-.57,2.34,3.82,3.82,0,0,1-1.58,1.48,5,5,0,0,1-2.34.52A7.39,7.39,0,0,1,6,292.71a6.37,6.37,0,0,1-2.06-1.13,5.51,5.51,0,0,1-1.47-1.89,6,6,0,0,1-.55-2.62,4.77,4.77,0,0,1,.46-2.15,3.22,3.22,0,0,1,1.33-1.4,4.18,4.18,0,0,1,2.1-.49v3a2.18,2.18,0,0,0-.85.18,1.27,1.27,0,0,0-.55.5,1.62,1.62,0,0,0-.2.83,1.72,1.72,0,0,0,.41,1.17,2.86,2.86,0,0,0,1,.75,6.12,6.12,0,0,0,1.38.4,9,9,0,0,0,1.42.12,2.45,2.45,0,0,0,1.58-.41,1.34,1.34,0,0,0,.48-1.07,1.64,1.64,0,0,0-.25-.89,2.24,2.24,0,0,0-.66-.68,3.42,3.42,0,0,0-.9-.44v-3a9.56,9.56,0,0,1,1.56.62,4.83,4.83,0,0,1,1.31,1,4.16,4.16,0,0,1,.91,1.5A6.64,6.64,0,0,1,12.78,288.75Z" transform="translate(-1.88 -1.88)"/><path class="cls-2" d="M12.64,282.36,2,280.73v-2.89l10.61,1.63Z" transform="translate(-1.88 -1.88)"/><path class="cls-2" d="M12.64,277.36,2,275.71v-7.88l2.36.37v5l1.76.27v-4.16l2.31.35v4.18l1.8.28v-5l2.38.37Z" transform="translate(-1.88 -1.88)"/><path class="cls-2" d="M12.64,267.66,2,266v-2.9l5.91-3.26L2,259v-2.89l10.61,1.64v2.6L6.31,263.8l6.33,1Z" transform="translate(-1.88 -1.88)"/><path class="cls-2" d="M12.78,251.2a6.94,6.94,0,0,1-.19,1.64,4.43,4.43,0,0,1-.61,1.42,2.79,2.79,0,0,1-1.05,1,2.65,2.65,0,0,1-1.52.28v-3a1.15,1.15,0,0,0,.64-.22,1.3,1.3,0,0,0,.4-.56,2.21,2.21,0,0,0,.15-.86,4.14,4.14,0,0,0-.09-.87,1.86,1.86,0,0,0-.3-.7.86.86,0,0,0-.58-.35.49.49,0,0,0-.5.19,1.53,1.53,0,0,0-.27.63c-.07.26-.12.54-.17.84l-.28,1.61a2.9,2.9,0,0,1-1,1.88,2.66,2.66,0,0,1-2.13.46,3.16,3.16,0,0,1-1.83-.88,4.63,4.63,0,0,1-1.16-1.81,6.51,6.51,0,0,1-.4-2.3,5.06,5.06,0,0,1,.47-2.26,3.6,3.6,0,0,1,1.24-1.44,2.68,2.68,0,0,1,1.63-.46v2.92a1,1,0,0,0-.66.15,1,1,0,0,0-.37.51,2.85,2.85,0,0,0-.11.84,2.52,2.52,0,0,0,.13.9,1.15,1.15,0,0,0,.32.51.76.76,0,0,0,.39.18.62.62,0,0,0,.57-.15,1.59,1.59,0,0,0,.35-.88l.28-1.61a4.34,4.34,0,0,1,.61-1.74,2.31,2.31,0,0,1,.94-.84,2.76,2.76,0,0,1,1-.24,6.22,6.22,0,0,1,.91.06,2.85,2.85,0,0,1,1.62.85,5.06,5.06,0,0,1,1.12,1.85A7,7,0,0,1,12.78,251.2Z" transform="translate(-1.88 -1.88)"/><path class="cls-2" d="M9.45,239.39a2.2,2.2,0,0,1-.3,1.13,2.3,2.3,0,0,1-.8.81,2.15,2.15,0,0,1-1.11.3,2.09,2.09,0,0,1-1.1-.3,2.3,2.3,0,0,1-.8-.81,2.28,2.28,0,0,1,0-2.26,2.3,2.3,0,0,1,.8-.81,2.1,2.1,0,0,1,1.1-.31,2.16,2.16,0,0,1,1.11.31,2.3,2.3,0,0,1,.8.81A2.2,2.2,0,0,1,9.45,239.39Z" transform="translate(-1.88 -1.88)"/><path class="cls-2" d="M12.64,233.26,2,231.63v-4.28a5.21,5.21,0,0,1,.72-3.15,2.07,2.07,0,0,1,2.08-.71,2.7,2.7,0,0,1,1.3.58,4,4,0,0,1,1,1.52,2.74,2.74,0,0,1,.52-1,1.75,1.75,0,0,1,.67-.49,2,2,0,0,1,.72-.12,3.41,3.41,0,0,1,.66.05,3,3,0,0,1,2.18,1.32,6.46,6.46,0,0,1,.71,3.42Zm-6.47-3.88v-1.81a1.4,1.4,0,0,0-.08-.47,1.25,1.25,0,0,0-.2-.38,1.13,1.13,0,0,0-.31-.26,1,1,0,0,0-.38-.14.74.74,0,0,0-.75.23,1.16,1.16,0,0,0-.28.83v1.69Zm4.32.66v-1.73a1.41,1.41,0,0,0-.34-1,1.25,1.25,0,0,0-.76-.44.82.82,0,0,0-.52.07.8.8,0,0,0-.37.36,1.28,1.28,0,0,0-.13.61v1.8Z" transform="translate(-1.88 -1.88)"/><path class="cls-2" d="M12.64,222.6,2,221v-4.85A4.24,4.24,0,0,1,2.49,214a2.26,2.26,0,0,1,1.22-1,3.7,3.7,0,0,1,1.74-.11,4.46,4.46,0,0,1,1.39.43,3.92,3.92,0,0,1,1,.75,5.4,5.4,0,0,1,.71,1l4.11-1.25v2.94l-3.66,1v1.52l3.66.56Zm-5.78-3.77v-1.66a1.21,1.21,0,0,0-.21-.68,1.72,1.72,0,0,0-.51-.53,1.45,1.45,0,0,0-.66-.27,1.08,1.08,0,0,0-.94.25,1,1,0,0,0-.4.82v1.65Z" transform="translate(-1.88 -1.88)"/><path class="cls-2" d="M12.64,212.65,2,207.22v-2.93l10.61-2.16V205l-2.06.38v3.38l2.06,1Zm-4.49-4.89v-2.12l-3.39.53Z" transform="translate(-1.88 -1.88)"/><path class="cls-2" d="M12.78,196.91a5,5,0,0,1-.57,2.64,2.59,2.59,0,0,1-1.59,1.2,5.76,5.76,0,0,1-2.37.08l-6.22-1V197l6.34,1a2.19,2.19,0,0,0,1.17-.06,1.19,1.19,0,0,0,.65-.52,1.68,1.68,0,0,0,.2-.81,2,2,0,0,0-.46-1.26,2.35,2.35,0,0,0-1.56-.75l-6.34-1v-2.92l6.22,1a6.45,6.45,0,0,1,2.37.8,4.12,4.12,0,0,1,1.59,1.69A6.1,6.1,0,0,1,12.78,196.91Z" transform="translate(-1.88 -1.88)"/><path class="cls-2" d="M12.78,185.67a4.56,4.56,0,0,1-.57,2.34,3.82,3.82,0,0,1-1.58,1.48,5.17,5.17,0,0,1-2.34.52A7.39,7.39,0,0,1,6,189.63a6.21,6.21,0,0,1-2.06-1.14,5.47,5.47,0,0,1-1.47-1.88A6,6,0,0,1,1.88,184a4.84,4.84,0,0,1,.46-2.16,3.33,3.33,0,0,1,1.33-1.4,4.29,4.29,0,0,1,2.1-.49v3a2,2,0,0,0-.85.18,1.21,1.21,0,0,0-.55.5,1.62,1.62,0,0,0-.2.83,1.72,1.72,0,0,0,.41,1.17,2.86,2.86,0,0,0,1,.75,6.11,6.11,0,0,0,1.38.39,9,9,0,0,0,1.42.12,2.46,2.46,0,0,0,1.58-.4,1.34,1.34,0,0,0,.48-1.07,1.62,1.62,0,0,0-.25-.89,2.24,2.24,0,0,0-.66-.68,3.79,3.79,0,0,0-.9-.45v-3a8.74,8.74,0,0,1,1.56.62,4.83,4.83,0,0,1,1.31,1,4.16,4.16,0,0,1,.91,1.5A6.56,6.56,0,0,1,12.78,185.67Z" transform="translate(-1.88 -1.88)"/><path class="cls-2" d="M12.64,179.29,2,177.66v-2.88l10.61,1.62Z" transform="translate(-1.88 -1.88)"/><path class="cls-2" d="M12.64,174.27,2,172.62v-7.88l2.36.37v5l1.76.27V166.2l2.31.35v4.18l1.8.28v-5l2.38.37Z" transform="translate(-1.88 -1.88)"/><path class="cls-2" d="M12.64,164.59,2,163v-2.9l5.91-3.26L2,155.89V153l10.61,1.64v2.6l-6.33,3.49,6.33,1Z" transform="translate(-1.88 -1.88)"/><path class="cls-2" d="M12.78,148.08a6.88,6.88,0,0,1-.19,1.64,4.39,4.39,0,0,1-.61,1.43,2.87,2.87,0,0,1-1.05,1,2.73,2.73,0,0,1-1.52.28v-3a1.15,1.15,0,0,0,.64-.23,1.27,1.27,0,0,0,.4-.55,2.24,2.24,0,0,0,.15-.86,4.14,4.14,0,0,0-.09-.87,1.79,1.79,0,0,0-.3-.7.86.86,0,0,0-.58-.35.5.5,0,0,0-.5.18,1.67,1.67,0,0,0-.27.63c-.07.27-.12.55-.17.84l-.28,1.62a2.9,2.9,0,0,1-1,1.88,2.7,2.7,0,0,1-2.13.46,3.22,3.22,0,0,1-1.83-.88,4.71,4.71,0,0,1-1.16-1.81,6.52,6.52,0,0,1-.4-2.31,5.06,5.06,0,0,1,.47-2.26,3.74,3.74,0,0,1,1.24-1.44,2.75,2.75,0,0,1,1.63-.46v2.93a1,1,0,0,0-.66.14,1,1,0,0,0-.37.51,2.92,2.92,0,0,0-.11.85,2.52,2.52,0,0,0,.13.9,1.06,1.06,0,0,0,.32.5.79.79,0,0,0,.39.19.62.62,0,0,0,.57-.15,1.63,1.63,0,0,0,.35-.88l.28-1.62a4.4,4.4,0,0,1,.61-1.74,2.28,2.28,0,0,1,.94-.83,2.76,2.76,0,0,1,1-.24,6.31,6.31,0,0,1,.91,0,2.87,2.87,0,0,1,1.62.86,5.1,5.1,0,0,1,1.12,1.84A7,7,0,0,1,12.78,148.08Z" transform="translate(-1.88 -1.88)"/><path class="cls-2" d="M9.45,136.32a2.17,2.17,0,0,1-.3,1.13,2.3,2.3,0,0,1-.8.81,2.15,2.15,0,0,1-1.11.3,2.09,2.09,0,0,1-1.1-.3,2.3,2.3,0,0,1-.8-.81,2.26,2.26,0,0,1,0-2.25,2.41,2.41,0,0,1,.8-.82,2.09,2.09,0,0,1,1.1-.3,2.15,2.15,0,0,1,1.11.3,2.41,2.41,0,0,1,.8.82A2.16,2.16,0,0,1,9.45,136.32Z" transform="translate(-1.88 -1.88)"/><path class="cls-2" d="M12.64,130.17,2,128.54v-4.28a5.21,5.21,0,0,1,.72-3.15,2.11,2.11,0,0,1,2.08-.71,2.7,2.7,0,0,1,1.3.58,4,4,0,0,1,1,1.52,2.83,2.83,0,0,1,.52-1,1.71,1.71,0,0,1,.67-.48,2,2,0,0,1,.72-.13,4.43,4.43,0,0,1,.66,0,3,3,0,0,1,2.18,1.33,6.44,6.44,0,0,1,.71,3.41Zm-6.47-3.88v-1.81a1.45,1.45,0,0,0-.08-.47,1.2,1.2,0,0,0-.2-.37,1,1,0,0,0-.31-.27,1,1,0,0,0-.38-.14.74.74,0,0,0-.75.23,1.19,1.19,0,0,0-.28.83V126Zm4.32.66v-1.73a1.43,1.43,0,0,0-.34-1,1.25,1.25,0,0,0-.76-.44.82.82,0,0,0-.52.07.91.91,0,0,0-.37.36,1.28,1.28,0,0,0-.13.61v1.8Z" transform="translate(-1.88 -1.88)"/><path class="cls-2" d="M12.64,119.51,2,117.88V113a4.24,4.24,0,0,1,.46-2.17,2.26,2.26,0,0,1,1.22-1,3.7,3.7,0,0,1,1.74-.11,4.46,4.46,0,0,1,1.39.43,3.92,3.92,0,0,1,1,.75,5.4,5.4,0,0,1,.71,1l4.11-1.25v2.95l-3.66,1v1.51l3.66.56Zm-5.78-3.77v-1.65a1.24,1.24,0,0,0-.21-.69,1.72,1.72,0,0,0-.51-.53,1.45,1.45,0,0,0-.66-.27,1.08,1.08,0,0,0-.94.25,1,1,0,0,0-.4.82v1.65Z" transform="translate(-1.88 -1.88)"/><path class="cls-2" d="M12.64,109.59,2,104.16v-2.93l10.61-2.15v2.84l-2.06.38v3.38l2.06,1ZM8.15,104.7v-2.11l-3.39.52Z" transform="translate(-1.88 -1.88)"/><path class="cls-2" d="M12.78,93.8a5.09,5.09,0,0,1-.57,2.65,2.61,2.61,0,0,1-1.59,1.19,5.76,5.76,0,0,1-2.37.08L2,96.77V93.84l6.34,1a2.41,2.41,0,0,0,1.17-.06,1.2,1.2,0,0,0,.65-.53,1.68,1.68,0,0,0,.2-.81,2,2,0,0,0-.46-1.26,2.35,2.35,0,0,0-1.56-.75L2,90.45V87.54l6.22.95a6.64,6.64,0,0,1,2.37.8A4.12,4.12,0,0,1,12.21,91,6.1,6.1,0,0,1,12.78,93.8Z" transform="translate(-1.88 -1.88)"/><path class="cls-2" d="M12.78,82.59a4.56,4.56,0,0,1-.57,2.34,3.82,3.82,0,0,1-1.58,1.48,5,5,0,0,1-2.34.52A7.39,7.39,0,0,1,6,86.55,6.37,6.37,0,0,1,3.9,85.42a5.61,5.61,0,0,1-1.47-1.89,6,6,0,0,1-.55-2.62,4.84,4.84,0,0,1,.46-2.16,3.33,3.33,0,0,1,1.33-1.4,4.29,4.29,0,0,1,2.1-.49v3a2.18,2.18,0,0,0-.85.18,1.21,1.21,0,0,0-.55.5,1.62,1.62,0,0,0-.2.83,1.72,1.72,0,0,0,.41,1.17,2.86,2.86,0,0,0,1,.75,6.12,6.12,0,0,0,1.38.4,10.26,10.26,0,0,0,1.42.11A2.46,2.46,0,0,0,10,83.4a1.34,1.34,0,0,0,.48-1.07,1.62,1.62,0,0,0-.25-.89,2.24,2.24,0,0,0-.66-.68,3.42,3.42,0,0,0-.9-.44v-3a8.74,8.74,0,0,1,1.56.62,4.83,4.83,0,0,1,1.31,1,4.16,4.16,0,0,1,.91,1.5A6.6,6.6,0,0,1,12.78,82.59Z" transform="translate(-1.88 -1.88)"/><path class="cls-2" d="M12.64,76.2,2,74.57V71.68L12.64,73.3Z" transform="translate(-1.88 -1.88)"/><path class="cls-2" d="M12.64,71.2,2,69.55V61.67L4.39,62v5l1.76.26V63.13l2.31.35v4.19l1.8.28v-5l2.38.37Z" transform="translate(-1.88 -1.88)"/><path class="cls-2" d="M12.64,61.5,2,59.86V57L7.94,53.7,2,52.8V49.91l10.61,1.64v2.6L6.31,57.64l6.33,1Z" transform="translate(-1.88 -1.88)"/><path class="cls-2" d="M12.78,45a7,7,0,0,1-.19,1.65A4.43,4.43,0,0,1,12,48.09a2.79,2.79,0,0,1-1.05,1,2.73,2.73,0,0,1-1.52.28v-3a1.23,1.23,0,0,0,.64-.22,1.3,1.3,0,0,0,.4-.56,2.24,2.24,0,0,0,.15-.86,4.14,4.14,0,0,0-.09-.87,1.79,1.79,0,0,0-.3-.7.86.86,0,0,0-.58-.35.49.49,0,0,0-.5.19,1.55,1.55,0,0,0-.27.62c-.07.27-.12.55-.17.84l-.28,1.62a2.9,2.9,0,0,1-1,1.88,2.66,2.66,0,0,1-2.13.46,3.22,3.22,0,0,1-1.83-.88A4.71,4.71,0,0,1,2.3,45.71a6.52,6.52,0,0,1-.4-2.31,5,5,0,0,1,.47-2.25,3.6,3.6,0,0,1,1.24-1.44,2.62,2.62,0,0,1,1.63-.46v2.92a1,1,0,0,0-.66.14,1,1,0,0,0-.37.51,2.92,2.92,0,0,0-.11.85,2.52,2.52,0,0,0,.13.9,1.06,1.06,0,0,0,.32.5.79.79,0,0,0,.39.19.62.62,0,0,0,.57-.15,1.63,1.63,0,0,0,.35-.88l.28-1.61a4.45,4.45,0,0,1,.61-1.75A2.35,2.35,0,0,1,7.69,40a2.76,2.76,0,0,1,1-.24,6.22,6.22,0,0,1,.91.06,2.8,2.8,0,0,1,1.62.85,5.06,5.06,0,0,1,1.12,1.85A6.94,6.94,0,0,1,12.78,45Z" transform="translate(-1.88 -1.88)"/><path class="cls-2" d="M9.45,33.23a2.2,2.2,0,0,1-.3,1.13,2.3,2.3,0,0,1-.8.81,2.15,2.15,0,0,1-1.11.3,2.09,2.09,0,0,1-1.1-.3,2.3,2.3,0,0,1-.8-.81,2.28,2.28,0,0,1,0-2.26,2.3,2.3,0,0,1,.8-.81,2.09,2.09,0,0,1,1.1-.3,2.15,2.15,0,0,1,1.11.3,2.3,2.3,0,0,1,.8.81A2.2,2.2,0,0,1,9.45,33.23Z" transform="translate(-1.88 -1.88)"/><path class="cls-2" d="M11.89,28.46,2.54,23.19l1.52-4A5.12,5.12,0,0,1,5.84,16.5a2.06,2.06,0,0,1,2.2.07,2.62,2.62,0,0,1,1,1,4,4,0,0,1,.44,1.79,2.75,2.75,0,0,1,.86-.78,1.55,1.55,0,0,1,.8-.21,1.87,1.87,0,0,1,.71.13,5.62,5.62,0,0,1,.6.28,3,3,0,0,1,1.57,2,6.47,6.47,0,0,1-.55,3.45ZM7.21,22.55l.64-1.7a1.29,1.29,0,0,0,.09-.46A1.16,1.16,0,0,0,7.89,20a1.07,1.07,0,0,0-.2-.36,1,1,0,0,0-.31-.27.76.76,0,0,0-.78-.05,1.19,1.19,0,0,0-.55.68l-.6,1.58ZM11,24.69l.61-1.61a1.45,1.45,0,0,0,0-1.06,1.32,1.32,0,0,0-.56-.68.8.8,0,0,0-.51-.12.87.87,0,0,0-.47.21,1.15,1.15,0,0,0-.34.52l-.64,1.68Z" transform="translate(-1.88 -1.88)"/><path class="cls-2" d="M14.81,20.33,9.3,11.12,13,8a4.27,4.27,0,0,1,2-1,2.23,2.23,0,0,1,1.58.27,3.59,3.59,0,0,1,1.2,1.27,4.47,4.47,0,0,1,.55,1.34,3.73,3.73,0,0,1,.05,1.24,5.32,5.32,0,0,1-.31,1.17l3.58,2.37-2.27,1.88-3.09-2.18-1.17,1L17,18.49ZM14,13.47l1.28-1.05a1.3,1.3,0,0,0,.4-.59,2.06,2.06,0,0,0,.08-.74,1.7,1.7,0,0,0-.22-.68,1.1,1.1,0,0,0-.79-.57,1.06,1.06,0,0,0-.88.23l-1.27,1Z" transform="translate(-1.88 -1.88)"/><path class="cls-2" d="M20.86,14.68l2.71-11.6,2.84-.71,4.66,9.77-2.76.69-.87-1.9-3.28.81L23.65,14Zm3.67-5.54,2-.51L25.25,5.47Z" transform="translate(-1.88 -1.88)"/><path class="cls-2" d="M35.31,12.78a5.09,5.09,0,0,1-2.65-.57,2.61,2.61,0,0,1-1.19-1.59,5.76,5.76,0,0,1-.08-2.37l1-6.22h2.93l-1,6.34a2.19,2.19,0,0,0,.06,1.17,1.19,1.19,0,0,0,.52.65,1.68,1.68,0,0,0,.81.2,2,2,0,0,0,1.26-.46,2.35,2.35,0,0,0,.75-1.56l1-6.34h2.92l-1,6.22a6.64,6.64,0,0,1-.8,2.37,4.12,4.12,0,0,1-1.69,1.59A6.1,6.1,0,0,1,35.31,12.78Z" transform="translate(-1.88 -1.88)"/><path class="cls-2" d="M46.53,12.78a4.5,4.5,0,0,1-2.33-.57,3.85,3.85,0,0,1-1.49-1.58,5.16,5.16,0,0,1-.51-2.34A7.15,7.15,0,0,1,42.58,6,6.37,6.37,0,0,1,43.71,3.9a5.47,5.47,0,0,1,1.88-1.47,6,6,0,0,1,2.62-.55,4.78,4.78,0,0,1,2.16.46,3.27,3.27,0,0,1,1.4,1.33,4.18,4.18,0,0,1,.49,2.1h-3a2,2,0,0,0-.17-.85,1.29,1.29,0,0,0-.51-.55,1.59,1.59,0,0,0-.83-.2,1.71,1.71,0,0,0-1.16.41,2.72,2.72,0,0,0-.75,1A5.65,5.65,0,0,0,45.44,7a9,9,0,0,0-.12,1.42A2.43,2.43,0,0,0,45.73,10a1.32,1.32,0,0,0,1.06.48,1.67,1.67,0,0,0,.89-.24,2.31,2.31,0,0,0,.69-.67,3.27,3.27,0,0,0,.44-.9h3a8.7,8.7,0,0,1-.61,1.56,5,5,0,0,1-1,1.31,4.34,4.34,0,0,1-1.5.91A6.66,6.66,0,0,1,46.53,12.78Z" transform="translate(-1.88 -1.88)"/><path class="cls-2" d="M52.93,12.64,54.56,2h2.89L55.83,12.64Z" transform="translate(-1.88 -1.88)"/><path class="cls-2" d="M57.93,12.64,59.58,2h7.88l-.37,2.36h-5l-.27,1.76H66l-.35,2.31H61.47l-.29,1.8h5l-.37,2.38Z" transform="translate(-1.88 -1.88)"/><path class="cls-2" d="M67.63,12.64,69.27,2h2.9l3.26,5.91L76.33,2h2.9L77.58,12.64H75l-3.5-6.33-1,6.33Z" transform="translate(-1.88 -1.88)"/><path class="cls-2" d="M84.12,12.78a6.88,6.88,0,0,1-1.64-.19A4.39,4.39,0,0,1,81.05,12a2.87,2.87,0,0,1-1-1.05,2.73,2.73,0,0,1-.28-1.52h3a1.15,1.15,0,0,0,.23.64,1.25,1.25,0,0,0,.56.4,2.15,2.15,0,0,0,.85.15,4.14,4.14,0,0,0,.87-.09,1.79,1.79,0,0,0,.7-.3.86.86,0,0,0,.35-.58.5.5,0,0,0-.18-.5,1.67,1.67,0,0,0-.63-.27c-.26-.06-.54-.12-.84-.17l-1.62-.28a2.89,2.89,0,0,1-1.87-1,2.69,2.69,0,0,1-.47-2.14,3.29,3.29,0,0,1,.88-1.83A4.78,4.78,0,0,1,83.43,2.3a6.52,6.52,0,0,1,2.31-.4A5.06,5.06,0,0,1,88,2.37a3.74,3.74,0,0,1,1.44,1.24,2.75,2.75,0,0,1,.46,1.63H87a1,1,0,0,0-.14-.66,1,1,0,0,0-.51-.37,2.92,2.92,0,0,0-.85-.11,2.52,2.52,0,0,0-.9.13,1.11,1.11,0,0,0-.5.32.79.79,0,0,0-.19.39.67.67,0,0,0,.15.57,1.63,1.63,0,0,0,.88.35l1.62.28a4.34,4.34,0,0,1,1.74.61,2.28,2.28,0,0,1,.83.94,2.58,2.58,0,0,1,.24,1,6.23,6.23,0,0,1,0,.91,2.87,2.87,0,0,1-.86,1.62,5,5,0,0,1-1.84,1.12A7,7,0,0,1,84.12,12.78Z" transform="translate(-1.88 -1.88)"/><path class="cls-2" d="M95.91,9.45a2.2,2.2,0,0,1-1.13-.3,2.3,2.3,0,0,1-.81-.8,2.15,2.15,0,0,1-.3-1.11,2.09,2.09,0,0,1,.3-1.1,2.3,2.3,0,0,1,.81-.8A2.2,2.2,0,0,1,95.91,5a2.16,2.16,0,0,1,1.12.3,2.41,2.41,0,0,1,.82.8,2.09,2.09,0,0,1,.3,1.1,2.15,2.15,0,0,1-.3,1.11,2.41,2.41,0,0,1-.82.8A2.16,2.16,0,0,1,95.91,9.45Z" transform="translate(-1.88 -1.88)"/><path class="cls-2" d="M102.06,12.64,103.69,2H108a5.21,5.21,0,0,1,3.15.72,2.09,2.09,0,0,1,.71,2.08,2.7,2.7,0,0,1-.58,1.3,4,4,0,0,1-1.52,1,2.74,2.74,0,0,1,1,.52,1.7,1.7,0,0,1,.49.68,1.93,1.93,0,0,1,.12.71,4.43,4.43,0,0,1-.05.66A3,3,0,0,1,110,11.93a6.49,6.49,0,0,1-3.42.71Zm3.22-2.15H107a1.41,1.41,0,0,0,1-.34,1.25,1.25,0,0,0,.44-.76.82.82,0,0,0-.07-.52A.85.85,0,0,0,108,8.5a1.28,1.28,0,0,0-.61-.13h-1.8Zm.66-4.32h1.81a1.4,1.4,0,0,0,.47-.08,1,1,0,0,0,.37-.2.91.91,0,0,0,.27-.31A1,1,0,0,0,109,5.2a.74.74,0,0,0-.23-.75,1.18,1.18,0,0,0-.83-.28h-1.69Z" transform="translate(-1.88 -1.88)"/><path class="cls-2" d="M112.71,12.64,114.34,2h4.85a4.24,4.24,0,0,1,2.17.46,2.26,2.26,0,0,1,1,1.22,3.7,3.7,0,0,1,.11,1.74,4.37,4.37,0,0,1-.43,1.39,3.92,3.92,0,0,1-.75,1,5.4,5.4,0,0,1-1,.71l1.25,4.11h-2.95l-1-3.66h-1.51l-.56,3.66Zm3.77-5.78h1.65a1.32,1.32,0,0,0,.69-.2,1.87,1.87,0,0,0,.53-.52,1.45,1.45,0,0,0,.27-.66,1.08,1.08,0,0,0-.25-.94,1,1,0,0,0-.82-.4H116.9Z" transform="translate(-1.88 -1.88)"/><path class="cls-2" d="M122.65,12.64,128.08,2H131l2.16,10.61h-2.84l-.39-2.06h-3.37l-1,2.06Zm4.9-4.49h2.11l-.52-3.39Z" transform="translate(-1.88 -1.88)"/><path class="cls-2" d="M138.4,12.78a5.09,5.09,0,0,1-2.65-.57,2.61,2.61,0,0,1-1.19-1.59,5.76,5.76,0,0,1-.08-2.37l1-6.22h2.93l-1,6.34a2.41,2.41,0,0,0,.06,1.17,1.2,1.2,0,0,0,.53.65,1.68,1.68,0,0,0,.81.2A2,2,0,0,0,140,9.93a2.35,2.35,0,0,0,.75-1.56l1-6.34h2.91l-.95,6.22a6.64,6.64,0,0,1-.8,2.37,4.12,4.12,0,0,1-1.69,1.59A6.12,6.12,0,0,1,138.4,12.78Z" transform="translate(-1.88 -1.88)"/><path class="cls-2" d="M149.63,12.78a4.5,4.5,0,0,1-2.33-.57,3.85,3.85,0,0,1-1.49-1.58,5.16,5.16,0,0,1-.51-2.34A7.42,7.42,0,0,1,145.67,6a6.59,6.59,0,0,1,1.14-2.06,5.47,5.47,0,0,1,1.88-1.47,6,6,0,0,1,2.62-.55,4.78,4.78,0,0,1,2.16.46,3.27,3.27,0,0,1,1.4,1.33,4.18,4.18,0,0,1,.49,2.1h-3a1.87,1.87,0,0,0-.18-.85,1.21,1.21,0,0,0-.5-.55,1.62,1.62,0,0,0-.83-.2,1.76,1.76,0,0,0-1.17.41,2.81,2.81,0,0,0-.74,1,5.65,5.65,0,0,0-.4,1.38,9,9,0,0,0-.12,1.42,2.44,2.44,0,0,0,.4,1.58,1.35,1.35,0,0,0,1.07.48,1.67,1.67,0,0,0,.89-.24,2.44,2.44,0,0,0,.69-.67,3.58,3.58,0,0,0,.44-.9h3a9.52,9.52,0,0,1-.61,1.56,4.87,4.87,0,0,1-1,1.31,4.16,4.16,0,0,1-1.5.91A6.56,6.56,0,0,1,149.63,12.78Z" transform="translate(-1.88 -1.88)"/><path class="cls-2" d="M156,12.64,157.63,2h2.89L158.9,12.64Z" transform="translate(-1.88 -1.88)"/><path class="cls-2" d="M161,12.64,162.66,2h7.88l-.37,2.36h-5l-.27,1.76h4.16l-.35,2.31h-4.18l-.28,1.8h5l-.37,2.38Z" transform="translate(-1.88 -1.88)"/><path class="cls-2" d="M170.71,12.64,172.35,2h2.9l3.26,5.91.9-5.91h2.89l-1.64,10.61h-2.6l-3.49-6.33-1,6.33Z" transform="translate(-1.88 -1.88)"/><path class="cls-2" d="M187.21,12.78a6.88,6.88,0,0,1-1.64-.19,4.48,4.48,0,0,1-1.43-.61,2.87,2.87,0,0,1-1-1.05,2.73,2.73,0,0,1-.28-1.52h3a1.15,1.15,0,0,0,.23.64,1.25,1.25,0,0,0,.56.4,2.15,2.15,0,0,0,.85.15,4.14,4.14,0,0,0,.87-.09,1.79,1.79,0,0,0,.7-.3.83.83,0,0,0,.35-.58.48.48,0,0,0-.18-.5,1.67,1.67,0,0,0-.63-.27c-.26-.06-.54-.12-.84-.17l-1.61-.28a2.91,2.91,0,0,1-1.88-1,2.69,2.69,0,0,1-.47-2.14,3.29,3.29,0,0,1,.88-1.83,4.78,4.78,0,0,1,1.81-1.16,6.52,6.52,0,0,1,2.31-.4,5.06,5.06,0,0,1,2.26.47,3.6,3.6,0,0,1,1.44,1.24A2.75,2.75,0,0,1,193,5.24h-2.92a1.12,1.12,0,0,0-.15-.66,1,1,0,0,0-.51-.37,2.92,2.92,0,0,0-.85-.11,2.52,2.52,0,0,0-.9.13,1.11,1.11,0,0,0-.5.32.79.79,0,0,0-.19.39.67.67,0,0,0,.15.57,1.63,1.63,0,0,0,.88.35l1.62.28a4.34,4.34,0,0,1,1.74.61,2.28,2.28,0,0,1,.83.94,2.42,2.42,0,0,1,.24,1,5.09,5.09,0,0,1-.05.91,2.87,2.87,0,0,1-.86,1.62,5,5,0,0,1-1.84,1.12A7,7,0,0,1,187.21,12.78Z" transform="translate(-1.88 -1.88)"/><path class="cls-2" d="M199,9.45a2.2,2.2,0,0,1-1.13-.3,2.3,2.3,0,0,1-.81-.8,2.15,2.15,0,0,1-.3-1.11,2.09,2.09,0,0,1,.3-1.1,2.3,2.3,0,0,1,.81-.8,2.28,2.28,0,0,1,2.26,0,2.3,2.3,0,0,1,.81.8,2,2,0,0,1,.31,1.1,2.07,2.07,0,0,1-.31,1.11,2.3,2.3,0,0,1-.81.8A2.2,2.2,0,0,1,199,9.45Z" transform="translate(-1.88 -1.88)"/><path class="cls-2" d="M205.15,12.64,206.77,2h4.28a5.21,5.21,0,0,1,3.15.72,2.07,2.07,0,0,1,.71,2.08,2.7,2.7,0,0,1-.58,1.3,4,4,0,0,1-1.52,1,2.67,2.67,0,0,1,1,.52,1.7,1.7,0,0,1,.49.68,1.93,1.93,0,0,1,.12.71,4.5,4.5,0,0,1,0,.66,3,3,0,0,1-1.33,2.18,6.46,6.46,0,0,1-3.42.71Zm3.22-2.15h1.72a1.41,1.41,0,0,0,1-.34,1.25,1.25,0,0,0,.44-.76.82.82,0,0,0-.07-.52.8.8,0,0,0-.36-.37,1.28,1.28,0,0,0-.61-.13h-1.8ZM209,6.17h1.82a1.39,1.39,0,0,0,.46-.08,1.07,1.07,0,0,0,.38-.2,1,1,0,0,0,.26-.31,1,1,0,0,0,.14-.38.74.74,0,0,0-.23-.75,1.16,1.16,0,0,0-.83-.28h-1.69Z" transform="translate(-1.88 -1.88)"/><path class="cls-2" d="M215.81,12.64,217.43,2h4.85a4.28,4.28,0,0,1,2.18.46,2.24,2.24,0,0,1,1,1.22,3.57,3.57,0,0,1,.12,1.74,4.37,4.37,0,0,1-.44,1.39,3.5,3.5,0,0,1-.75,1,5.08,5.08,0,0,1-1,.71l1.25,4.11h-2.94l-1-3.66h-1.52l-.56,3.66Zm3.77-5.78h1.65a1.28,1.28,0,0,0,.68-.2,2.05,2.05,0,0,0,.54-.52,1.71,1.71,0,0,0,.27-.66,1.14,1.14,0,0,0-.25-.94,1,1,0,0,0-.83-.4H220Z" transform="translate(-1.88 -1.88)"/><path class="cls-2" d="M225.73,12.64,231.17,2h2.93l2.15,10.61h-2.84L233,10.58h-3.37l-1,2.06Zm4.9-4.49h2.11l-.52-3.39Z" transform="translate(-1.88 -1.88)"/><path class="cls-2" d="M241.51,12.78a5.09,5.09,0,0,1-2.65-.57,2.66,2.66,0,0,1-1.2-1.59,6,6,0,0,1-.07-2.37L238.54,2h2.92l-1,6.34a2.41,2.41,0,0,0,.06,1.17,1.2,1.2,0,0,0,.53.65,1.68,1.68,0,0,0,.81.2,2,2,0,0,0,1.25-.46,2.32,2.32,0,0,0,.76-1.56l1-6.34h2.91l-1,6.22a6.84,6.84,0,0,1-.8,2.37,4.09,4.09,0,0,1-1.7,1.59A6.08,6.08,0,0,1,241.51,12.78Z" transform="translate(-1.88 -1.88)"/><path class="cls-2" d="M252.73,12.78a4.53,4.53,0,0,1-2.34-.57,3.82,3.82,0,0,1-1.48-1.58,5,5,0,0,1-.52-2.34A7.43,7.43,0,0,1,248.77,6,6.37,6.37,0,0,1,249.9,3.9a5.51,5.51,0,0,1,1.89-1.47,6,6,0,0,1,2.62-.55,4.77,4.77,0,0,1,2.15.46A3.22,3.22,0,0,1,258,3.67a4.18,4.18,0,0,1,.49,2.1h-3a2.18,2.18,0,0,0-.18-.85,1.27,1.27,0,0,0-.5-.55,1.64,1.64,0,0,0-.83-.2,1.72,1.72,0,0,0-1.17.41,2.94,2.94,0,0,0-.75,1,5.65,5.65,0,0,0-.4,1.38,9,9,0,0,0-.12,1.42,2.43,2.43,0,0,0,.41,1.58,1.32,1.32,0,0,0,1.07.48,1.72,1.72,0,0,0,.89-.24,2.41,2.41,0,0,0,.68-.67,3.27,3.27,0,0,0,.44-.9h3a9.56,9.56,0,0,1-.62,1.56,4.83,4.83,0,0,1-1,1.31,4.16,4.16,0,0,1-1.5.91A6.64,6.64,0,0,1,252.73,12.78Z" transform="translate(-1.88 -1.88)"/><path class="cls-2" d="M259.11,12.64,260.73,2h2.89L262,12.64Z" transform="translate(-1.88 -1.88)"/><path class="cls-2" d="M264.11,12.64,265.76,2h7.88l-.37,2.36h-5L268,6.15h4.16l-.35,2.31h-4.18l-.29,1.8h5L272,12.64Z" transform="translate(-1.88 -1.88)"/><path class="cls-2" d="M273.81,12.64,275.45,2h2.9l3.26,5.91.9-5.91h2.89l-1.64,10.61h-2.6l-3.49-6.33-1,6.33Z" transform="translate(-1.88 -1.88)"/><path class="cls-2" d="M290.29,12.78a6.94,6.94,0,0,1-1.64-.19,4.33,4.33,0,0,1-1.42-.61,2.79,2.79,0,0,1-1-1.05A2.65,2.65,0,0,1,286,9.41h3a1.15,1.15,0,0,0,.22.64,1.3,1.3,0,0,0,.56.4,2.19,2.19,0,0,0,.85.15,4,4,0,0,0,.87-.09,1.84,1.84,0,0,0,.71-.3.85.85,0,0,0,.34-.58.47.47,0,0,0-.18-.5,1.53,1.53,0,0,0-.63-.27c-.26-.06-.54-.12-.84-.17l-1.61-.28a2.94,2.94,0,0,1-1.88-1,2.69,2.69,0,0,1-.46-2.14,3.16,3.16,0,0,1,.88-1.83,4.67,4.67,0,0,1,1.8-1.16,6.6,6.6,0,0,1,2.31-.4,5.06,5.06,0,0,1,2.26.47,3.6,3.6,0,0,1,1.44,1.24,2.68,2.68,0,0,1,.46,1.63h-2.92a1.12,1.12,0,0,0-.15-.66,1,1,0,0,0-.51-.37,2.85,2.85,0,0,0-.84-.11,2.45,2.45,0,0,0-.9.13,1.15,1.15,0,0,0-.51.32.88.88,0,0,0-.19.39.65.65,0,0,0,.16.57,1.59,1.59,0,0,0,.88.35l1.61.28a4.34,4.34,0,0,1,1.74.61,2.38,2.38,0,0,1,.84.94,2.56,2.56,0,0,1,.23,1,5.09,5.09,0,0,1-.05.91,2.85,2.85,0,0,1-.85,1.62,5.06,5.06,0,0,1-1.85,1.12A7,7,0,0,1,290.29,12.78Z" transform="translate(-1.88 -1.88)"/><path class="cls-2" d="M302.07,9.45a2.13,2.13,0,0,1-1.12-.3,2.41,2.41,0,0,1-.82-.8,2.15,2.15,0,0,1-.3-1.11,2.09,2.09,0,0,1,.3-1.1,2.41,2.41,0,0,1,.82-.8,2.13,2.13,0,0,1,1.12-.3,2.2,2.2,0,0,1,1.13.3,2.3,2.3,0,0,1,.81.8,2,2,0,0,1,.31,1.1A2.07,2.07,0,0,1,304,8.35a2.3,2.3,0,0,1-.81.8A2.2,2.2,0,0,1,302.07,9.45Z" transform="translate(-1.88 -1.88)"/><path class="cls-2" d="M308.23,12.64,309.86,2h4.28a5.21,5.21,0,0,1,3.15.72A2.09,2.09,0,0,1,318,4.83a2.7,2.7,0,0,1-.58,1.3,4,4,0,0,1-1.52,1,2.74,2.74,0,0,1,1,.52,1.58,1.58,0,0,1,.48.68,1.94,1.94,0,0,1,.13.71,4.43,4.43,0,0,1-.05.66,3,3,0,0,1-1.32,2.18,6.51,6.51,0,0,1-3.42.71Zm3.22-2.15h1.73a1.43,1.43,0,0,0,1-.34,1.25,1.25,0,0,0,.44-.76.82.82,0,0,0-.07-.52.91.91,0,0,0-.36-.37,1.28,1.28,0,0,0-.61-.13h-1.8Zm.66-4.32h1.81a1.4,1.4,0,0,0,.47-.08,1,1,0,0,0,.37-.2.91.91,0,0,0,.27-.31,1,1,0,0,0,.14-.38.74.74,0,0,0-.23-.75,1.18,1.18,0,0,0-.83-.28h-1.69Z" transform="translate(-1.88 -1.88)"/><path class="cls-2" d="M318.87,12.64,320.5,2h4.85a4.31,4.31,0,0,1,2.18.46,2.24,2.24,0,0,1,1,1.22,3.7,3.7,0,0,1,.12,1.74,4.37,4.37,0,0,1-.44,1.39,3.92,3.92,0,0,1-.75,1,5.08,5.08,0,0,1-1,.71l1.25,4.11h-2.94l-1-3.66h-1.52l-.56,3.66Zm3.78-5.78h1.65a1.28,1.28,0,0,0,.68-.2,2.05,2.05,0,0,0,.54-.52,1.55,1.55,0,0,0,.26-.66,1.11,1.11,0,0,0-.24-.94,1,1,0,0,0-.83-.4h-1.65Z" transform="translate(-1.88 -1.88)"/><path class="cls-2" d="M328.81,12.64,334.24,2h2.93l2.16,10.61h-2.85l-.38-2.06h-3.38l-1,2.06Zm4.89-4.49h2.11l-.52-3.39Z" transform="translate(-1.88 -1.88)"/><path class="cls-2" d="M344.59,12.78a5.09,5.09,0,0,1-2.65-.57,2.61,2.61,0,0,1-1.19-1.59,5.76,5.76,0,0,1-.08-2.37L341.62,2h2.93l-1,6.34a2.41,2.41,0,0,0,.06,1.17,1.2,1.2,0,0,0,.53.65,1.68,1.68,0,0,0,.81.2,2,2,0,0,0,1.26-.46A2.35,2.35,0,0,0,347,8.37l1-6.34h2.91l-1,6.22a6.64,6.64,0,0,1-.8,2.37,4.12,4.12,0,0,1-1.69,1.59A6.12,6.12,0,0,1,344.59,12.78Z" transform="translate(-1.88 -1.88)"/><path class="cls-2" d="M355.8,12.78a4.5,4.5,0,0,1-2.33-.57A3.85,3.85,0,0,1,352,10.63a5.17,5.17,0,0,1-.52-2.34A7.43,7.43,0,0,1,351.84,6,6.4,6.4,0,0,1,353,3.9a5.47,5.47,0,0,1,1.88-1.47,6,6,0,0,1,2.62-.55,4.84,4.84,0,0,1,2.16.46A3.33,3.33,0,0,1,361,3.67a4.29,4.29,0,0,1,.49,2.1h-3a1.87,1.87,0,0,0-.18-.85,1.21,1.21,0,0,0-.5-.55,1.62,1.62,0,0,0-.83-.2,1.74,1.74,0,0,0-1.17.41,2.81,2.81,0,0,0-.74,1,5.65,5.65,0,0,0-.4,1.38,9,9,0,0,0-.12,1.42A2.44,2.44,0,0,0,355,10a1.34,1.34,0,0,0,1.07.48,1.7,1.7,0,0,0,.89-.24,2.28,2.28,0,0,0,.68-.67,3.3,3.3,0,0,0,.45-.9h3a8.74,8.74,0,0,1-.62,1.56,4.83,4.83,0,0,1-1,1.31,4.16,4.16,0,0,1-1.5.91A6.56,6.56,0,0,1,355.8,12.78Z" transform="translate(-1.88 -1.88)"/><path class="cls-2" d="M362.18,12.64,363.81,2h2.89l-1.62,10.61Z" transform="translate(-1.88 -1.88)"/><path class="cls-2" d="M367.18,12.64,368.82,2h7.89l-.37,2.36h-5l-.27,1.76h4.16l-.35,2.31h-4.18l-.28,1.8h5l-.37,2.38Z" transform="translate(-1.88 -1.88)"/><path class="cls-2" d="M376.89,12.64,378.53,2h2.9l3.26,5.91.9-5.91h2.9l-1.65,10.61h-2.59l-3.5-6.33-1,6.33Z" transform="translate(-1.88 -1.88)"/><path class="cls-2" d="M393.38,12.78a6.88,6.88,0,0,1-1.64-.19,4.39,4.39,0,0,1-1.43-.61,2.87,2.87,0,0,1-1-1.05,2.73,2.73,0,0,1-.28-1.52h3a1.15,1.15,0,0,0,.23.64,1.27,1.27,0,0,0,.55.4,2.24,2.24,0,0,0,.86.15,4.14,4.14,0,0,0,.87-.09,1.79,1.79,0,0,0,.7-.3.86.86,0,0,0,.35-.58.5.5,0,0,0-.18-.5,1.67,1.67,0,0,0-.63-.27c-.26-.06-.54-.12-.84-.17l-1.62-.28a2.89,2.89,0,0,1-1.87-1A2.69,2.69,0,0,1,390,5.29a3.22,3.22,0,0,1,.88-1.83,4.78,4.78,0,0,1,1.81-1.16A6.52,6.52,0,0,1,395,1.9a5.06,5.06,0,0,1,2.26.47,3.74,3.74,0,0,1,1.44,1.24,2.75,2.75,0,0,1,.46,1.63h-2.93a1,1,0,0,0-.14-.66,1,1,0,0,0-.51-.37,2.92,2.92,0,0,0-.85-.11,2.52,2.52,0,0,0-.9.13,1.11,1.11,0,0,0-.5.32.79.79,0,0,0-.19.39.64.64,0,0,0,.15.57,1.63,1.63,0,0,0,.88.35l1.62.28a4.34,4.34,0,0,1,1.74.61,2.28,2.28,0,0,1,.83.94,2.58,2.58,0,0,1,.24,1,6.23,6.23,0,0,1-.05.91,2.87,2.87,0,0,1-.86,1.62,5,5,0,0,1-1.84,1.12A7,7,0,0,1,393.38,12.78Z" transform="translate(-1.88 -1.88)"/><path class="cls-2" d="M405.15,9.45a2.2,2.2,0,0,1-1.13-.3,2.3,2.3,0,0,1-.81-.8,2.15,2.15,0,0,1-.3-1.11,2.09,2.09,0,0,1,.3-1.1,2.3,2.3,0,0,1,.81-.8,2.28,2.28,0,0,1,2.26,0,2.38,2.38,0,0,1,.81.8,2.09,2.09,0,0,1,.3,1.1,2.15,2.15,0,0,1-.3,1.11,2.38,2.38,0,0,1-.81.8A2.2,2.2,0,0,1,405.15,9.45Z" transform="translate(-1.88 -1.88)"/><path class="cls-2" d="M411.31,12.64,412.93,2h4.28a5.21,5.21,0,0,1,3.15.72,2.07,2.07,0,0,1,.71,2.08,2.78,2.78,0,0,1-.57,1.3,4.16,4.16,0,0,1-1.53,1,2.67,2.67,0,0,1,1,.52,1.7,1.7,0,0,1,.49.68,1.74,1.74,0,0,1,.12.71,4.5,4.5,0,0,1,0,.66,3,3,0,0,1-1.33,2.18,6.46,6.46,0,0,1-3.42.71Zm3.22-2.15h1.72a1.41,1.41,0,0,0,1-.34,1.32,1.32,0,0,0,.45-.76.9.9,0,0,0-.08-.52.8.8,0,0,0-.36-.37,1.28,1.28,0,0,0-.61-.13h-1.8Zm.65-4.32H417a1.39,1.39,0,0,0,.46-.08,1.07,1.07,0,0,0,.38-.2.88.88,0,0,0,.26-.31,1.26,1.26,0,0,0,.15-.38.78.78,0,0,0-.23-.75,1.2,1.2,0,0,0-.84-.28h-1.69Z" transform="translate(-1.88 -1.88)"/><path class="cls-2" d="M422,12.64,423.58,2h4.85a4.31,4.31,0,0,1,2.18.46,2.24,2.24,0,0,1,1,1.22,3.7,3.7,0,0,1,.12,1.74,4.37,4.37,0,0,1-.44,1.39,3.92,3.92,0,0,1-.75,1,5.08,5.08,0,0,1-1,.71l1.25,4.11H427.9l-1-3.66h-1.52l-.56,3.66Zm3.78-5.78h1.65a1.28,1.28,0,0,0,.68-.2,2.05,2.05,0,0,0,.54-.52,1.55,1.55,0,0,0,.26-.66,1.11,1.11,0,0,0-.24-.94,1,1,0,0,0-.83-.4h-1.65Z" transform="translate(-1.88 -1.88)"/><path class="cls-2" d="M431.89,12.64,437.32,2h2.93l2.16,10.61h-2.84l-.39-2.06h-3.37l-1.05,2.06Zm4.9-4.49h2.11l-.52-3.39Z" transform="translate(-1.88 -1.88)"/><path class="cls-2" d="M447.67,12.78a5.09,5.09,0,0,1-2.65-.57,2.66,2.66,0,0,1-1.2-1.59,6,6,0,0,1-.07-2.37L444.7,2h2.92l-1,6.34a2.41,2.41,0,0,0,.06,1.17,1.2,1.2,0,0,0,.53.65,1.68,1.68,0,0,0,.81.2,2,2,0,0,0,1.25-.46,2.32,2.32,0,0,0,.76-1.56L451,2h2.91L453,8.25a6.84,6.84,0,0,1-.8,2.37,4.12,4.12,0,0,1-1.69,1.59A6.12,6.12,0,0,1,447.67,12.78Z" transform="translate(-1.88 -1.88)"/><path class="cls-2" d="M458.88,12.78a4.5,4.5,0,0,1-2.33-.57,3.85,3.85,0,0,1-1.49-1.58,5.17,5.17,0,0,1-.52-2.34A7.43,7.43,0,0,1,454.92,6a6.4,6.4,0,0,1,1.14-2.06,5.47,5.47,0,0,1,1.88-1.47,6,6,0,0,1,2.62-.55,4.81,4.81,0,0,1,2.16.46,3.33,3.33,0,0,1,1.4,1.33,4.29,4.29,0,0,1,.49,2.1h-3a1.87,1.87,0,0,0-.18-.85,1.21,1.21,0,0,0-.5-.55,1.62,1.62,0,0,0-.83-.2,1.74,1.74,0,0,0-1.17.41,2.81,2.81,0,0,0-.74,1,5.65,5.65,0,0,0-.4,1.38,9,9,0,0,0-.12,1.42,2.44,2.44,0,0,0,.4,1.58,1.34,1.34,0,0,0,1.07.48,1.7,1.7,0,0,0,.89-.24,2.28,2.28,0,0,0,.68-.67,3.3,3.3,0,0,0,.45-.9h3a8.74,8.74,0,0,1-.62,1.56,4.83,4.83,0,0,1-1,1.31,4.16,4.16,0,0,1-1.5.91A6.56,6.56,0,0,1,458.88,12.78Z" transform="translate(-1.88 -1.88)"/><path class="cls-2" d="M465.27,12.64,466.9,2h2.89l-1.62,10.61Z" transform="translate(-1.88 -1.88)"/><path class="cls-2" d="M470.26,12.64,471.91,2h7.88l-.37,2.36h-5l-.27,1.76h4.16L478,8.46H473.8l-.29,1.8h5l-.37,2.38Z" transform="translate(-1.88 -1.88)"/><path class="cls-2" d="M480,12.64,481.61,2h2.9l3.25,5.91.9-5.91h2.9l-1.65,10.61h-2.59l-3.5-6.33-1,6.33Z" transform="translate(-1.88 -1.88)"/><path class="cls-2" d="M496.44,12.78a6.94,6.94,0,0,1-1.64-.19,4.43,4.43,0,0,1-1.42-.61,2.79,2.79,0,0,1-1-1.05,2.73,2.73,0,0,1-.28-1.52h3a1.23,1.23,0,0,0,.22.64,1.3,1.3,0,0,0,.56.4,2.21,2.21,0,0,0,.86.15,4.14,4.14,0,0,0,.87-.09,1.79,1.79,0,0,0,.7-.3.86.86,0,0,0,.35-.58.49.49,0,0,0-.19-.5,1.55,1.55,0,0,0-.62-.27L497,8.69l-1.61-.28a2.94,2.94,0,0,1-1.88-1,2.69,2.69,0,0,1-.46-2.14A3.22,3.22,0,0,1,494,3.46a4.71,4.71,0,0,1,1.81-1.16,6.52,6.52,0,0,1,2.31-.4,5,5,0,0,1,2.25.47,3.6,3.6,0,0,1,1.44,1.24,2.62,2.62,0,0,1,.46,1.63H499.3a1,1,0,0,0-.14-.66,1,1,0,0,0-.51-.37,2.92,2.92,0,0,0-.85-.11,2.52,2.52,0,0,0-.9.13,1.06,1.06,0,0,0-.5.32.79.79,0,0,0-.19.39.62.62,0,0,0,.15.57,1.63,1.63,0,0,0,.88.35l1.61.28a4.45,4.45,0,0,1,1.75.61,2.35,2.35,0,0,1,.83.94,2.76,2.76,0,0,1,.24,1,6.12,6.12,0,0,1-.06.91,2.8,2.8,0,0,1-.85,1.62,5.06,5.06,0,0,1-1.85,1.12A7,7,0,0,1,496.44,12.78Z" transform="translate(-1.88 -1.88)"/><path class="cls-2" d="M508.23,9.45a2.2,2.2,0,0,1-1.13-.3,2.3,2.3,0,0,1-.81-.8,2.15,2.15,0,0,1-.3-1.11,2.09,2.09,0,0,1,.3-1.1,2.3,2.3,0,0,1,.81-.8,2.2,2.2,0,0,1,1.13-.3,2.16,2.16,0,0,1,1.12.3,2.33,2.33,0,0,1,.82.8,2.09,2.09,0,0,1,.3,1.1,2.15,2.15,0,0,1-.3,1.11,2.33,2.33,0,0,1-.82.8A2.16,2.16,0,0,1,508.23,9.45Z" transform="translate(-1.88 -1.88)"/><path class="cls-2" d="M514.39,12.64,516,2h4.28a5.21,5.21,0,0,1,3.15.72,2.09,2.09,0,0,1,.71,2.08,2.7,2.7,0,0,1-.58,1.3,4,4,0,0,1-1.52,1,2.74,2.74,0,0,1,1,.52,1.7,1.7,0,0,1,.49.68,1.93,1.93,0,0,1,.12.71,4.5,4.5,0,0,1,0,.66,3,3,0,0,1-1.33,2.18,6.46,6.46,0,0,1-3.42.71Zm3.23-2.15h1.72a1.41,1.41,0,0,0,1-.34,1.25,1.25,0,0,0,.44-.76.82.82,0,0,0-.07-.52.8.8,0,0,0-.36-.37,1.28,1.28,0,0,0-.61-.13h-1.8Zm.65-4.32h1.81a1.4,1.4,0,0,0,.47-.08,1.07,1.07,0,0,0,.38-.2,1,1,0,0,0,.26-.31,1,1,0,0,0,.14-.38.74.74,0,0,0-.23-.75,1.16,1.16,0,0,0-.83-.28h-1.69Z" transform="translate(-1.88 -1.88)"/><path class="cls-2" d="M525.05,12.64,526.68,2h4.85a4.24,4.24,0,0,1,2.17.46,2.22,2.22,0,0,1,1,1.22,3.58,3.58,0,0,1,.11,1.74,4.13,4.13,0,0,1-.43,1.39,3.92,3.92,0,0,1-.75,1,5.4,5.4,0,0,1-1,.71l1.25,4.11H531L530,9h-1.52l-.56,3.66Zm3.77-5.78h1.66a1.28,1.28,0,0,0,.68-.2,2.05,2.05,0,0,0,.54-.52,1.55,1.55,0,0,0,.26-.66,1.08,1.08,0,0,0-.25-.94,1,1,0,0,0-.82-.4h-1.65Z" transform="translate(-1.88 -1.88)"/><path class="cls-2" d="M535,12.64,540.4,2h2.93l2.16,10.61h-2.84l-.39-2.06h-3.38l-1,2.06Zm4.89-4.49H542l-.52-3.39Z" transform="translate(-1.88 -1.88)"/><path class="cls-2" d="M550.75,12.78a5.09,5.09,0,0,1-2.65-.57,2.61,2.61,0,0,1-1.19-1.59,5.76,5.76,0,0,1-.08-2.37L547.78,2h2.93l-1,6.34a2.41,2.41,0,0,0,.06,1.17,1.2,1.2,0,0,0,.53.65,1.68,1.68,0,0,0,.81.2,2,2,0,0,0,1.26-.46,2.35,2.35,0,0,0,.75-1.56l1-6.34H557l-1,6.22a6.64,6.64,0,0,1-.8,2.37,4.12,4.12,0,0,1-1.69,1.59A6.12,6.12,0,0,1,550.75,12.78Z" transform="translate(-1.88 -1.88)"/><path class="cls-2" d="M562,12.78a4.5,4.5,0,0,1-2.33-.57,3.85,3.85,0,0,1-1.49-1.58,5.16,5.16,0,0,1-.51-2.34A7.15,7.15,0,0,1,558,6a6.37,6.37,0,0,1,1.13-2.06A5.47,5.47,0,0,1,561,2.43a6,6,0,0,1,2.62-.55,4.78,4.78,0,0,1,2.16.46,3.27,3.27,0,0,1,1.4,1.33,4.18,4.18,0,0,1,.49,2.1h-3a1.87,1.87,0,0,0-.18-.85,1.21,1.21,0,0,0-.5-.55,1.59,1.59,0,0,0-.83-.2,1.71,1.71,0,0,0-1.16.41,2.72,2.72,0,0,0-.75,1,5.65,5.65,0,0,0-.4,1.38,9,9,0,0,0-.12,1.42,2.43,2.43,0,0,0,.41,1.58,1.32,1.32,0,0,0,1.06.48,1.67,1.67,0,0,0,.89-.24,2.31,2.31,0,0,0,.69-.67,3.27,3.27,0,0,0,.44-.9h3a8.7,8.7,0,0,1-.61,1.56,5,5,0,0,1-1,1.31,4.34,4.34,0,0,1-1.5.91A6.66,6.66,0,0,1,562,12.78Z" transform="translate(-1.88 -1.88)"/><path class="cls-2" d="M568.33,12.64,570,2h2.89l-1.62,10.61Z" transform="translate(-1.88 -1.88)"/><path class="cls-2" d="M573.36,12.64,575,2h7.88l-.37,2.36h-5l-.27,1.76h4.16l-.35,2.31H576.9l-.29,1.8h5l-.37,2.38Z" transform="translate(-1.88 -1.88)"/><path class="cls-2" d="M583,12.64,584.68,2h2.9l3.26,5.91.9-5.91h2.89L593,12.64h-2.6L586.9,6.31l-1,6.33Z" transform="translate(-1.88 -1.88)"/><path class="cls-2" d="M599.55,12.78a6.88,6.88,0,0,1-1.64-.19,4.39,4.39,0,0,1-1.43-.61,2.87,2.87,0,0,1-1-1.05,2.73,2.73,0,0,1-.28-1.52h3a1.15,1.15,0,0,0,.23.64,1.27,1.27,0,0,0,.55.4,2.24,2.24,0,0,0,.86.15,4.14,4.14,0,0,0,.87-.09,1.79,1.79,0,0,0,.7-.3.86.86,0,0,0,.35-.58.5.5,0,0,0-.18-.5,1.67,1.67,0,0,0-.63-.27c-.26-.06-.54-.12-.84-.17l-1.62-.28a2.89,2.89,0,0,1-1.87-1,2.69,2.69,0,0,1-.47-2.14,3.22,3.22,0,0,1,.88-1.83,4.78,4.78,0,0,1,1.81-1.16,6.52,6.52,0,0,1,2.31-.4,5.06,5.06,0,0,1,2.26.47,3.74,3.74,0,0,1,1.44,1.24,2.75,2.75,0,0,1,.46,1.63H602.4a1,1,0,0,0-.14-.66,1,1,0,0,0-.51-.37,2.92,2.92,0,0,0-.85-.11,2.52,2.52,0,0,0-.9.13,1.11,1.11,0,0,0-.5.32.79.79,0,0,0-.19.39.64.64,0,0,0,.15.57,1.63,1.63,0,0,0,.88.35l1.62.28a4.34,4.34,0,0,1,1.74.61,2.28,2.28,0,0,1,.83.94,2.58,2.58,0,0,1,.24,1,6.23,6.23,0,0,1,0,.91,2.87,2.87,0,0,1-.86,1.62A5,5,0,0,1,602,12.37,7,7,0,0,1,599.55,12.78Z" transform="translate(-1.88 -1.88)"/><path class="cls-2" d="M611.32,9.45a2.2,2.2,0,0,1-1.13-.3,2.3,2.3,0,0,1-.81-.8,2.15,2.15,0,0,1-.3-1.11,2.09,2.09,0,0,1,.3-1.1,2.3,2.3,0,0,1,.81-.8,2.28,2.28,0,0,1,2.26,0,2.38,2.38,0,0,1,.81.8,2.09,2.09,0,0,1,.3,1.1,2.15,2.15,0,0,1-.3,1.11,2.38,2.38,0,0,1-.81.8A2.2,2.2,0,0,1,611.32,9.45Z" transform="translate(-1.88 -1.88)"/><path class="cls-2" d="M617.46,12.64,619.09,2h4.28a5.21,5.21,0,0,1,3.15.72,2.11,2.11,0,0,1,.71,2.08,2.7,2.7,0,0,1-.58,1.3,4,4,0,0,1-1.52,1,2.83,2.83,0,0,1,1,.52,1.58,1.58,0,0,1,.48.68,1.94,1.94,0,0,1,.13.71,4.43,4.43,0,0,1,0,.66,3,3,0,0,1-1.33,2.18,6.44,6.44,0,0,1-3.41.71Zm3.22-2.15h1.73a1.43,1.43,0,0,0,1-.34,1.25,1.25,0,0,0,.44-.76.82.82,0,0,0-.07-.52.91.91,0,0,0-.36-.37,1.28,1.28,0,0,0-.61-.13H621Zm.66-4.32h1.81a1.4,1.4,0,0,0,.47-.08,1,1,0,0,0,.37-.2.91.91,0,0,0,.27-.31,1,1,0,0,0,.14-.38.74.74,0,0,0-.23-.75,1.19,1.19,0,0,0-.83-.28h-1.69Z" transform="translate(-1.88 -1.88)"/><path class="cls-2" d="M628.12,12.64,629.75,2h4.85a4.27,4.27,0,0,1,2.17.46,2.2,2.2,0,0,1,1,1.22,3.57,3.57,0,0,1,.12,1.74,4.37,4.37,0,0,1-.44,1.39,3.5,3.5,0,0,1-.75,1,5,5,0,0,1-1,.71L637,12.64h-3l-1-3.66h-1.52L631,12.64Zm3.77-5.78h1.65a1.28,1.28,0,0,0,.68-.2,1.79,1.79,0,0,0,.54-.52,1.71,1.71,0,0,0,.27-.66,1.11,1.11,0,0,0-.25-.94,1,1,0,0,0-.82-.4H632.3Z" transform="translate(-1.88 -1.88)"/><path class="cls-2" d="M638.05,12.64,643.48,2h2.93l2.16,10.61h-2.84l-.39-2.06H642l-1,2.06ZM643,8.15h2.11l-.52-3.39Z" transform="translate(-1.88 -1.88)"/><path class="cls-2" d="M653.82,12.78a5.07,5.07,0,0,1-2.65-.57,2.59,2.59,0,0,1-1.2-1.59,5.78,5.78,0,0,1-.07-2.37l1-6.22h2.92l-1,6.34a2.41,2.41,0,0,0,.06,1.17,1.16,1.16,0,0,0,.53.65,1.68,1.68,0,0,0,.81.2,2,2,0,0,0,1.25-.46,2.32,2.32,0,0,0,.76-1.56l1-6.34h2.92l-1,6.22a6.64,6.64,0,0,1-.81,2.37,4.06,4.06,0,0,1-1.69,1.59A6.08,6.08,0,0,1,653.82,12.78Z" transform="translate(-1.88 -1.88)"/><path class="cls-2" d="M665.05,12.78a4.56,4.56,0,0,1-2.34-.57,3.82,3.82,0,0,1-1.48-1.58,5.17,5.17,0,0,1-.52-2.34A7.43,7.43,0,0,1,661.09,6a6.4,6.4,0,0,1,1.14-2.06,5.47,5.47,0,0,1,1.88-1.47,6,6,0,0,1,2.62-.55,4.84,4.84,0,0,1,2.16.46,3.33,3.33,0,0,1,1.4,1.33,4.29,4.29,0,0,1,.49,2.1h-3a2,2,0,0,0-.18-.85,1.21,1.21,0,0,0-.5-.55,1.62,1.62,0,0,0-.83-.2,1.72,1.72,0,0,0-1.17.41,2.94,2.94,0,0,0-.75,1A6.11,6.11,0,0,0,664,7a9,9,0,0,0-.12,1.42,2.44,2.44,0,0,0,.4,1.58,1.34,1.34,0,0,0,1.07.48,1.7,1.7,0,0,0,.89-.24,2.41,2.41,0,0,0,.68-.67,3.61,3.61,0,0,0,.45-.9h3a8.74,8.74,0,0,1-.62,1.56,4.83,4.83,0,0,1-1,1.31,4.16,4.16,0,0,1-1.5.91A6.56,6.56,0,0,1,665.05,12.78Z" transform="translate(-1.88 -1.88)"/><path class="cls-2" d="M671.42,12.64,673.05,2h2.88l-1.62,10.61Z" transform="translate(-1.88 -1.88)"/><path class="cls-2" d="M676.44,12.64,678.08,2H686l-.38,2.36h-5l-.27,1.76h4.16l-.35,2.31H680l-.28,1.8h5l-.38,2.38Z" transform="translate(-1.88 -1.88)"/><path class="cls-2" d="M686.12,12.64,687.77,2h2.9l3.26,5.91.9-5.91h2.89l-1.64,10.61h-2.6L690,6.31l-1,6.33Z" transform="translate(-1.88 -1.88)"/><path class="cls-2" d="M702.61,12.78a6.94,6.94,0,0,1-1.64-.19,4.33,4.33,0,0,1-1.42-.61,2.79,2.79,0,0,1-1-1.05,2.65,2.65,0,0,1-.28-1.52h3a1.15,1.15,0,0,0,.22.64,1.3,1.3,0,0,0,.56.4,2.21,2.21,0,0,0,.86.15,4.14,4.14,0,0,0,.87-.09,1.86,1.86,0,0,0,.7-.3.85.85,0,0,0,.34-.58.47.47,0,0,0-.18-.5,1.53,1.53,0,0,0-.63-.27c-.26-.06-.54-.12-.84-.17l-1.61-.28a2.94,2.94,0,0,1-1.88-1,2.69,2.69,0,0,1-.46-2.14,3.16,3.16,0,0,1,.88-1.83,4.67,4.67,0,0,1,1.8-1.16,6.6,6.6,0,0,1,2.31-.4,5.06,5.06,0,0,1,2.26.47,3.6,3.6,0,0,1,1.44,1.24,2.68,2.68,0,0,1,.46,1.63h-2.92a1,1,0,0,0-.15-.66,1,1,0,0,0-.51-.37A2.85,2.85,0,0,0,704,4.1a2.45,2.45,0,0,0-.9.13,1.15,1.15,0,0,0-.51.32.76.76,0,0,0-.18.39.62.62,0,0,0,.15.57,1.59,1.59,0,0,0,.88.35l1.61.28a4.34,4.34,0,0,1,1.74.61,2.31,2.31,0,0,1,.84.94,2.56,2.56,0,0,1,.23,1,5.09,5.09,0,0,1-.05.91,2.85,2.85,0,0,1-.85,1.62,5.06,5.06,0,0,1-1.85,1.12A7,7,0,0,1,702.61,12.78Z" transform="translate(-1.88 -1.88)"/><path class="cls-2" d="M714.41,9.45a2.2,2.2,0,0,1-1.13-.3,2.3,2.3,0,0,1-.81-.8,2.15,2.15,0,0,1-.3-1.11,2.09,2.09,0,0,1,.3-1.1,2.3,2.3,0,0,1,.81-.8,2.28,2.28,0,0,1,2.26,0,2.3,2.3,0,0,1,.81.8,2.1,2.1,0,0,1,.31,1.1,2.16,2.16,0,0,1-.31,1.11,2.3,2.3,0,0,1-.81.8A2.2,2.2,0,0,1,714.41,9.45Z" transform="translate(-1.88 -1.88)"/><path class="cls-2" d="M720.55,12.64,722.18,2h4.27a5.17,5.17,0,0,1,3.15.72,2.07,2.07,0,0,1,.71,2.08,2.78,2.78,0,0,1-.57,1.3,4.11,4.11,0,0,1-1.52,1,2.83,2.83,0,0,1,1,.52,1.77,1.77,0,0,1,.48.68,1.94,1.94,0,0,1,.13.71,6.35,6.35,0,0,1-.05.66,3,3,0,0,1-1.33,2.18,6.46,6.46,0,0,1-3.42.71Zm3.22-2.15h1.72a1.41,1.41,0,0,0,1-.34,1.32,1.32,0,0,0,.45-.76.9.9,0,0,0-.07-.52.88.88,0,0,0-.37-.37,1.24,1.24,0,0,0-.6-.13h-1.8Zm.65-4.32h1.82a1.34,1.34,0,0,0,.46-.08,1.07,1.07,0,0,0,.38-.2.91.91,0,0,0,.27-.31,1.24,1.24,0,0,0,.14-.38.78.78,0,0,0-.23-.75,1.2,1.2,0,0,0-.84-.28h-1.69Z" transform="translate(-1.88 -1.88)"/><path class="cls-2" d="M731.22,12.64,732.85,2h4.85a4.24,4.24,0,0,1,2.17.46,2.26,2.26,0,0,1,1,1.22A3.7,3.7,0,0,1,741,5.45a4.37,4.37,0,0,1-.43,1.39,3.92,3.92,0,0,1-.75,1,5.4,5.4,0,0,1-1,.71l1.25,4.11h-3l-1-3.66h-1.51l-.56,3.66ZM735,6.86h1.65a1.32,1.32,0,0,0,.69-.2,1.87,1.87,0,0,0,.53-.52,1.45,1.45,0,0,0,.27-.66,1.08,1.08,0,0,0-.25-.94,1,1,0,0,0-.82-.4h-1.65Z" transform="translate(-1.88 -1.88)"/><path class="cls-2" d="M741.14,12.64,746.57,2h2.93l2.16,10.61h-2.84l-.39-2.06h-3.38l-1,2.06ZM746,8.15h2.12l-.52-3.39Z" transform="translate(-1.88 -1.88)"/><path class="cls-2" d="M756.92,12.78a5.07,5.07,0,0,1-2.65-.57,2.59,2.59,0,0,1-1.2-1.59A5.78,5.78,0,0,1,753,8.25L754,2h2.92l-1,6.34A2.41,2.41,0,0,0,756,9.54a1.16,1.16,0,0,0,.53.65,1.68,1.68,0,0,0,.81.2,2,2,0,0,0,1.25-.46,2.32,2.32,0,0,0,.76-1.56l1-6.34h2.92l-.95,6.22a6.64,6.64,0,0,1-.81,2.37,4.06,4.06,0,0,1-1.69,1.59A6.08,6.08,0,0,1,756.92,12.78Z" transform="translate(-1.88 -1.88)"/><path class="cls-2" d="M768.14,12.78a4.5,4.5,0,0,1-2.33-.57,3.85,3.85,0,0,1-1.49-1.58,5.16,5.16,0,0,1-.51-2.34A7.15,7.15,0,0,1,764.19,6a6.37,6.37,0,0,1,1.13-2.06,5.47,5.47,0,0,1,1.88-1.47,6,6,0,0,1,2.62-.55,4.78,4.78,0,0,1,2.16.46,3.27,3.27,0,0,1,1.4,1.33,4.18,4.18,0,0,1,.49,2.1h-3a1.87,1.87,0,0,0-.18-.85,1.21,1.21,0,0,0-.5-.55,1.62,1.62,0,0,0-.83-.2,1.76,1.76,0,0,0-1.17.41,2.81,2.81,0,0,0-.74,1,5.65,5.65,0,0,0-.4,1.38,9,9,0,0,0-.12,1.42,2.44,2.44,0,0,0,.4,1.58,1.35,1.35,0,0,0,1.07.48,1.67,1.67,0,0,0,.89-.24,2.44,2.44,0,0,0,.69-.67,3.58,3.58,0,0,0,.44-.9h3a9.52,9.52,0,0,1-.61,1.56,4.87,4.87,0,0,1-1,1.31,4.2,4.2,0,0,1-1.49.91A6.66,6.66,0,0,1,768.14,12.78Z" transform="translate(-1.88 -1.88)"/><path class="cls-2" d="M774.53,12.64,776.16,2H779l-1.62,10.61Z" transform="translate(-1.88 -1.88)"/><path class="cls-2" d="M779.54,12.64,781.18,2h7.89l-.37,2.36h-5l-.26,1.76h4.15l-.35,2.31h-4.18l-.28,1.8h5l-.37,2.38Z" transform="translate(-1.88 -1.88)"/><path class="cls-2" d="M789.22,12.64,790.86,2h2.9L797,7.94l.9-5.91h2.89l-1.64,10.61h-2.6l-3.49-6.33-1,6.33Z" transform="translate(-1.88 -1.88)"/><path class="cls-2" d="M805.72,12.78a6.88,6.88,0,0,1-1.64-.19,4.39,4.39,0,0,1-1.43-.61,2.87,2.87,0,0,1-1-1.05,2.73,2.73,0,0,1-.28-1.52h3a1.15,1.15,0,0,0,.23.64,1.27,1.27,0,0,0,.55.4,2.24,2.24,0,0,0,.86.15,4.14,4.14,0,0,0,.87-.09,1.79,1.79,0,0,0,.7-.3.86.86,0,0,0,.35-.58.5.5,0,0,0-.18-.5,1.67,1.67,0,0,0-.63-.27l-.84-.17-1.62-.28a2.94,2.94,0,0,1-1.88-1,2.73,2.73,0,0,1-.46-2.14,3.22,3.22,0,0,1,.88-1.83A4.71,4.71,0,0,1,805,2.3a6.52,6.52,0,0,1,2.31-.4,5.06,5.06,0,0,1,2.26.47A3.74,3.74,0,0,1,811,3.61a2.75,2.75,0,0,1,.46,1.63h-2.93a1,1,0,0,0-.14-.66,1,1,0,0,0-.51-.37,2.92,2.92,0,0,0-.85-.11,2.52,2.52,0,0,0-.9.13,1.06,1.06,0,0,0-.5.32.79.79,0,0,0-.19.39.62.62,0,0,0,.15.57,1.63,1.63,0,0,0,.88.35l1.62.28a4.34,4.34,0,0,1,1.74.61,2.28,2.28,0,0,1,.83.94,2.76,2.76,0,0,1,.24,1,6.23,6.23,0,0,1-.05.91,2.87,2.87,0,0,1-.86,1.62,5,5,0,0,1-1.84,1.12A7,7,0,0,1,805.72,12.78Z" transform="translate(-1.88 -1.88)"/><path class="cls-2" d="M817.49,9.45a2.2,2.2,0,0,1-1.13-.3,2.3,2.3,0,0,1-.81-.8,2.15,2.15,0,0,1-.3-1.11,2.09,2.09,0,0,1,.3-1.1,2.3,2.3,0,0,1,.81-.8,2.28,2.28,0,0,1,2.26,0,2.3,2.3,0,0,1,.81.8,2,2,0,0,1,.31,1.1,2.07,2.07,0,0,1-.31,1.11,2.3,2.3,0,0,1-.81.8A2.2,2.2,0,0,1,817.49,9.45Z" transform="translate(-1.88 -1.88)"/><path class="cls-2" d="M823.63,12.64,825.26,2h4.27a5.17,5.17,0,0,1,3.15.72,2.07,2.07,0,0,1,.71,2.08,2.78,2.78,0,0,1-.57,1.3,4.11,4.11,0,0,1-1.52,1,2.83,2.83,0,0,1,1,.52,1.77,1.77,0,0,1,.48.68,1.94,1.94,0,0,1,.13.71,6.35,6.35,0,0,1-.05.66,3,3,0,0,1-1.33,2.18,6.46,6.46,0,0,1-3.42.71Zm3.22-2.15h1.72a1.41,1.41,0,0,0,1-.34,1.27,1.27,0,0,0,.45-.76.9.9,0,0,0-.07-.52.88.88,0,0,0-.37-.37,1.24,1.24,0,0,0-.6-.13h-1.8Zm.65-4.32h1.82a1.34,1.34,0,0,0,.46-.08,1.07,1.07,0,0,0,.38-.2.91.91,0,0,0,.27-.31,1.24,1.24,0,0,0,.14-.38.76.76,0,0,0-.23-.75,1.2,1.2,0,0,0-.84-.28h-1.68Z" transform="translate(-1.88 -1.88)"/><path class="cls-2" d="M834.29,12.64,835.92,2h4.85a4.24,4.24,0,0,1,2.17.46,2.26,2.26,0,0,1,1,1.22,3.7,3.7,0,0,1,.11,1.74,4.37,4.37,0,0,1-.43,1.39,3.92,3.92,0,0,1-.75,1,5.4,5.4,0,0,1-1,.71l1.25,4.11h-2.95l-1-3.66h-1.52l-.56,3.66Zm3.77-5.78h1.65a1.29,1.29,0,0,0,.69-.2,1.87,1.87,0,0,0,.53-.52,1.45,1.45,0,0,0,.27-.66,1.08,1.08,0,0,0-.25-.94,1,1,0,0,0-.82-.4h-1.65Z" transform="translate(-1.88 -1.88)"/><path class="cls-2" d="M844.23,12.64,849.66,2h2.93l2.16,10.61H851.9l-.38-2.06h-3.38l-1,2.06Zm4.89-4.49h2.12l-.53-3.39Z" transform="translate(-1.88 -1.88)"/><path class="cls-2" d="M860,12.78a5.09,5.09,0,0,1-2.65-.57,2.61,2.61,0,0,1-1.19-1.59,5.76,5.76,0,0,1-.08-2.37L857,2H860l-1,6.34A2.41,2.41,0,0,0,859,9.54a1.2,1.2,0,0,0,.53.65,1.68,1.68,0,0,0,.81.2,2,2,0,0,0,1.26-.46,2.35,2.35,0,0,0,.75-1.56l1-6.34h2.91l-1,6.22a6.64,6.64,0,0,1-.8,2.37,4.12,4.12,0,0,1-1.69,1.59A6.12,6.12,0,0,1,860,12.78Z" transform="translate(-1.88 -1.88)"/><path class="cls-2" d="M871.22,12.78a4.56,4.56,0,0,1-2.34-.57,3.82,3.82,0,0,1-1.48-1.58,5,5,0,0,1-.52-2.34A7.43,7.43,0,0,1,867.26,6,6.21,6.21,0,0,1,868.4,3.9a5.47,5.47,0,0,1,1.88-1.47,6,6,0,0,1,2.62-.55,4.84,4.84,0,0,1,2.16.46,3.33,3.33,0,0,1,1.4,1.33,4.29,4.29,0,0,1,.49,2.1h-3a2.18,2.18,0,0,0-.18-.85,1.21,1.21,0,0,0-.5-.55,1.62,1.62,0,0,0-.83-.2,1.72,1.72,0,0,0-1.17.41,2.94,2.94,0,0,0-.75,1A5.63,5.63,0,0,0,870.13,7,9,9,0,0,0,870,8.43a2.44,2.44,0,0,0,.4,1.58,1.34,1.34,0,0,0,1.07.48,1.7,1.7,0,0,0,.89-.24,2.41,2.41,0,0,0,.68-.67,3.61,3.61,0,0,0,.45-.9h3a8.74,8.74,0,0,1-.62,1.56,4.83,4.83,0,0,1-1,1.31,4.16,4.16,0,0,1-1.5.91A6.6,6.6,0,0,1,871.22,12.78Z" transform="translate(-1.88 -1.88)"/><path class="cls-2" d="M877.61,12.64,879.24,2h2.89l-1.62,10.61Z" transform="translate(-1.88 -1.88)"/><path class="cls-2" d="M882.61,12.64,884.25,2h7.88l-.37,2.36h-5l-.27,1.76h4.16l-.35,2.31h-4.18l-.28,1.8h5l-.37,2.38Z" transform="translate(-1.88 -1.88)"/><path class="cls-2" d="M892.31,12.64,894,2h2.91l3.25,5.91L901,2h2.9l-1.65,10.61h-2.59l-3.5-6.33-1,6.33Z" transform="translate(-1.88 -1.88)"/><path class="cls-2" d="M908.79,12.78a6.94,6.94,0,0,1-1.64-.19,4.43,4.43,0,0,1-1.42-.61,2.79,2.79,0,0,1-1-1.05,2.73,2.73,0,0,1-.28-1.52h3a1.23,1.23,0,0,0,.22.64,1.3,1.3,0,0,0,.56.4,2.21,2.21,0,0,0,.86.15,4.14,4.14,0,0,0,.87-.09,1.79,1.79,0,0,0,.7-.3.86.86,0,0,0,.35-.58.49.49,0,0,0-.19-.5,1.55,1.55,0,0,0-.62-.27l-.84-.17-1.62-.28a2.94,2.94,0,0,1-1.88-1,2.69,2.69,0,0,1-.46-2.14,3.22,3.22,0,0,1,.88-1.83,4.71,4.71,0,0,1,1.81-1.16,6.52,6.52,0,0,1,2.31-.4,5,5,0,0,1,2.25.47,3.6,3.6,0,0,1,1.44,1.24,2.62,2.62,0,0,1,.46,1.63h-2.92a1,1,0,0,0-.14-.66,1,1,0,0,0-.51-.37,2.92,2.92,0,0,0-.85-.11,2.52,2.52,0,0,0-.9.13,1.06,1.06,0,0,0-.5.32.79.79,0,0,0-.19.39.62.62,0,0,0,.15.57,1.63,1.63,0,0,0,.88.35l1.62.28a4.46,4.46,0,0,1,1.74.61,2.35,2.35,0,0,1,.83.94,2.76,2.76,0,0,1,.24,1,6.12,6.12,0,0,1-.06.91,2.8,2.8,0,0,1-.85,1.62,5.06,5.06,0,0,1-1.85,1.12A7,7,0,0,1,908.79,12.78Z" transform="translate(-1.88 -1.88)"/><path class="cls-2" d="M920.58,9.45a2.2,2.2,0,0,1-1.13-.3,2.3,2.3,0,0,1-.81-.8,2.15,2.15,0,0,1-.3-1.11,2.09,2.09,0,0,1,.3-1.1,2.3,2.3,0,0,1,.81-.8,2.28,2.28,0,0,1,2.26,0,2.3,2.3,0,0,1,.81.8,2.1,2.1,0,0,1,.31,1.1,2.16,2.16,0,0,1-.31,1.11,2.3,2.3,0,0,1-.81.8A2.2,2.2,0,0,1,920.58,9.45Z" transform="translate(-1.88 -1.88)"/><path class="cls-2" d="M926.72,12.64,928.35,2h4.28a5.21,5.21,0,0,1,3.15.72,2.09,2.09,0,0,1,.71,2.08,2.7,2.7,0,0,1-.58,1.3,4,4,0,0,1-1.52,1,2.74,2.74,0,0,1,1,.52,1.7,1.7,0,0,1,.49.68,1.93,1.93,0,0,1,.12.71,4.5,4.5,0,0,1,0,.66,3,3,0,0,1-1.33,2.18,6.46,6.46,0,0,1-3.42.71ZM930,10.49h1.72a1.41,1.41,0,0,0,1-.34,1.25,1.25,0,0,0,.44-.76.82.82,0,0,0-.07-.52.8.8,0,0,0-.36-.37,1.28,1.28,0,0,0-.61-.13h-1.8Zm.65-4.32h1.82a1.39,1.39,0,0,0,.46-.08,1.07,1.07,0,0,0,.38-.2,1,1,0,0,0,.26-.31,1,1,0,0,0,.14-.38.74.74,0,0,0-.23-.75,1.16,1.16,0,0,0-.83-.28h-1.69Z" transform="translate(-1.88 -1.88)"/><path class="cls-2" d="M937.4,12.64,939,2h4.85a4.28,4.28,0,0,1,2.18.46,2.2,2.2,0,0,1,1,1.22,3.57,3.57,0,0,1,.12,1.74,4.37,4.37,0,0,1-.44,1.39,3.5,3.5,0,0,1-.75,1,4.8,4.8,0,0,1-1,.71l1.25,4.11h-2.94l-1-3.66h-1.52l-.56,3.66Zm3.77-5.78h1.65a1.28,1.28,0,0,0,.68-.2,1.91,1.91,0,0,0,.54-.52,1.71,1.71,0,0,0,.27-.66,1.11,1.11,0,0,0-.25-.94,1,1,0,0,0-.83-.4h-1.65Z" transform="translate(-1.88 -1.88)"/><path class="cls-2" d="M947.32,12.64,952.75,2h2.94l2.15,10.61H955l-.39-2.06h-3.37l-1,2.06Zm4.9-4.49h2.11l-.52-3.39Z" transform="translate(-1.88 -1.88)"/><path class="cls-2" d="M963.1,12.78a5.09,5.09,0,0,1-2.65-.57,2.66,2.66,0,0,1-1.2-1.59,6,6,0,0,1-.07-2.37l1-6.22h2.93l-1,6.34a2.41,2.41,0,0,0,.06,1.17,1.2,1.2,0,0,0,.53.65,1.68,1.68,0,0,0,.81.2,2,2,0,0,0,1.26-.46,2.35,2.35,0,0,0,.75-1.56l1-6.34h2.91l-1,6.22a6.84,6.84,0,0,1-.8,2.37,4.12,4.12,0,0,1-1.69,1.59A6.12,6.12,0,0,1,963.1,12.78Z" transform="translate(-1.88 -1.88)"/><path class="cls-2" d="M974.32,12.78a4.56,4.56,0,0,1-2.34-.57,3.89,3.89,0,0,1-1.48-1.58A5.17,5.17,0,0,1,970,8.29,7.43,7.43,0,0,1,970.36,6,6.4,6.4,0,0,1,971.5,3.9a5.47,5.47,0,0,1,1.88-1.47A6,6,0,0,1,976,1.88a4.84,4.84,0,0,1,2.16.46,3.33,3.33,0,0,1,1.4,1.33,4.29,4.29,0,0,1,.49,2.1h-3a1.87,1.87,0,0,0-.18-.85,1.21,1.21,0,0,0-.5-.55,1.62,1.62,0,0,0-.83-.2,1.74,1.74,0,0,0-1.17.41,2.94,2.94,0,0,0-.75,1A6.11,6.11,0,0,0,973.23,7a9,9,0,0,0-.12,1.42,2.44,2.44,0,0,0,.4,1.58,1.34,1.34,0,0,0,1.07.48,1.7,1.7,0,0,0,.89-.24,2.41,2.41,0,0,0,.68-.67,3.61,3.61,0,0,0,.45-.9h3a8.74,8.74,0,0,1-.62,1.56,4.83,4.83,0,0,1-1,1.31,4.16,4.16,0,0,1-1.5.91A6.56,6.56,0,0,1,974.32,12.78Z" transform="translate(-1.88 -1.88)"/><path class="cls-2" d="M980.71,12.64,982.34,2h2.88L983.6,12.64Z" transform="translate(-1.88 -1.88)"/><path class="cls-2" d="M985.7,12.64,987.34,2h7.89l-.38,2.36h-5l-.27,1.76h4.16l-.35,2.31h-4.18l-.28,1.8h5l-.38,2.38Z" transform="translate(-1.88 -1.88)"/><path class="cls-2" d="M995.39,12.64,997,2h2.9l3.26,5.91.9-5.91H1007l-1.64,10.61h-2.6l-3.5-6.33-1,6.33Z" transform="translate(-1.88 -1.88)"/><path class="cls-2" d="M1011.89,12.78a6.88,6.88,0,0,1-1.64-.19,4.33,4.33,0,0,1-1.42-.61,2.82,2.82,0,0,1-1-1.05,2.65,2.65,0,0,1-.27-1.52h3a1.07,1.07,0,0,0,.22.64,1.25,1.25,0,0,0,.56.4,2.15,2.15,0,0,0,.85.15,4.14,4.14,0,0,0,.87-.09,1.91,1.91,0,0,0,.71-.3.85.85,0,0,0,.34-.58.47.47,0,0,0-.18-.5,1.67,1.67,0,0,0-.63-.27c-.26-.06-.54-.12-.84-.17l-1.61-.28a2.91,2.91,0,0,1-1.88-1,2.69,2.69,0,0,1-.47-2.14,3.29,3.29,0,0,1,.88-1.83,4.78,4.78,0,0,1,1.81-1.16,6.52,6.52,0,0,1,2.31-.4,5.06,5.06,0,0,1,2.26.47,3.6,3.6,0,0,1,1.44,1.24,2.75,2.75,0,0,1,.46,1.63h-2.92a1.12,1.12,0,0,0-.15-.66,1,1,0,0,0-.51-.37,2.92,2.92,0,0,0-.85-.11,2.52,2.52,0,0,0-.9.13,1.17,1.17,0,0,0-.5.32.79.79,0,0,0-.19.39.67.67,0,0,0,.15.57,1.63,1.63,0,0,0,.89.35l1.61.28a4.34,4.34,0,0,1,1.74.61,2.28,2.28,0,0,1,.83.94,2.42,2.42,0,0,1,.24,1,5.09,5.09,0,0,1-.05.91,2.81,2.81,0,0,1-.86,1.62,5,5,0,0,1-1.84,1.12A7,7,0,0,1,1011.89,12.78Z" transform="translate(-1.88 -1.88)"/><path class="cls-2" d="M1023.67,9.45a2.16,2.16,0,0,1-1.12-.3,2.41,2.41,0,0,1-.82-.8,2.15,2.15,0,0,1-.3-1.11,2.09,2.09,0,0,1,.3-1.1,2.41,2.41,0,0,1,.82-.8,2.16,2.16,0,0,1,1.12-.3,2.2,2.2,0,0,1,1.13.3,2.3,2.3,0,0,1,.81.8,2,2,0,0,1,.31,1.1,2.07,2.07,0,0,1-.31,1.11,2.3,2.3,0,0,1-.81.8A2.2,2.2,0,0,1,1023.67,9.45Z" transform="translate(-1.88 -1.88)"/><path class="cls-2" d="M1029.81,12.64,1031.44,2h4.28a5.21,5.21,0,0,1,3.15.72,2.09,2.09,0,0,1,.71,2.08,2.7,2.7,0,0,1-.58,1.3,4,4,0,0,1-1.52,1,2.74,2.74,0,0,1,1,.52,1.7,1.7,0,0,1,.49.68,2.16,2.16,0,0,1,.12.71,4.43,4.43,0,0,1,0,.66,3,3,0,0,1-1.32,2.18,6.49,6.49,0,0,1-3.42.71Zm3.22-2.15h1.73a1.41,1.41,0,0,0,1-.34,1.25,1.25,0,0,0,.44-.76.82.82,0,0,0-.07-.52.85.85,0,0,0-.36-.37,1.28,1.28,0,0,0-.61-.13h-1.8Zm.66-4.32h1.81a1.4,1.4,0,0,0,.47-.08,1,1,0,0,0,.37-.2.91.91,0,0,0,.27-.31,1,1,0,0,0,.14-.38.74.74,0,0,0-.23-.75,1.18,1.18,0,0,0-.83-.28H1034Z" transform="translate(-1.88 -1.88)"/><path class="cls-2" d="M1040.47,12.64,1042.1,2H1047a4.27,4.27,0,0,1,2.17.46,2.2,2.2,0,0,1,1,1.22,3.57,3.57,0,0,1,.12,1.74,4.37,4.37,0,0,1-.44,1.39,3.5,3.5,0,0,1-.75,1,5,5,0,0,1-1,.71l1.25,4.11h-2.95l-1-3.66h-1.52l-.55,3.66Zm3.77-5.78h1.65a1.34,1.34,0,0,0,.69-.2,1.87,1.87,0,0,0,.53-.52,1.71,1.71,0,0,0,.27-.66,1.11,1.11,0,0,0-.25-.94,1,1,0,0,0-.82-.4h-1.65Z" transform="translate(-1.88 -1.88)"/><path class="cls-2" d="M1050.4,12.64,1055.83,2h2.93l2.16,10.61h-2.85l-.38-2.06h-3.38l-1,2.06Zm4.89-4.49h2.12l-.53-3.39Z" transform="translate(-1.88 -1.88)"/><path class="cls-2" d="M1066.17,12.78a5.07,5.07,0,0,1-2.65-.57,2.59,2.59,0,0,1-1.2-1.59,5.78,5.78,0,0,1-.07-2.37l1-6.22h2.92l-1,6.34a2.41,2.41,0,0,0,.06,1.17,1.16,1.16,0,0,0,.53.65,1.68,1.68,0,0,0,.81.2,2,2,0,0,0,1.25-.46,2.32,2.32,0,0,0,.76-1.56l1-6.34h2.92l-1,6.22a6.64,6.64,0,0,1-.81,2.37,4.06,4.06,0,0,1-1.69,1.59A6.08,6.08,0,0,1,1066.17,12.78Z" transform="translate(-1.88 -1.88)"/><path class="cls-2" d="M1077.4,12.78a4.56,4.56,0,0,1-2.34-.57,3.82,3.82,0,0,1-1.48-1.58,5,5,0,0,1-.52-2.34,7.43,7.43,0,0,1,.38-2.33,6.21,6.21,0,0,1,1.14-2.06,5.47,5.47,0,0,1,1.88-1.47,6,6,0,0,1,2.62-.55,4.84,4.84,0,0,1,2.16.46,3.33,3.33,0,0,1,1.4,1.33,4.29,4.29,0,0,1,.49,2.1h-3a2.18,2.18,0,0,0-.18-.85,1.21,1.21,0,0,0-.5-.55,1.62,1.62,0,0,0-.83-.2,1.72,1.72,0,0,0-1.17.41,2.94,2.94,0,0,0-.75,1,5.63,5.63,0,0,0-.39,1.38,9,9,0,0,0-.12,1.42,2.44,2.44,0,0,0,.4,1.58,1.34,1.34,0,0,0,1.07.48,1.7,1.7,0,0,0,.89-.24,2.41,2.41,0,0,0,.68-.67,3.61,3.61,0,0,0,.45-.9h3a8.74,8.74,0,0,1-.62,1.56,4.83,4.83,0,0,1-1,1.31,4.16,4.16,0,0,1-1.5.91A6.6,6.6,0,0,1,1077.4,12.78Z" transform="translate(-1.88 -1.88)"/><path class="cls-2" d="M1083.79,12.64,1085.42,2h2.88l-1.62,10.61Z" transform="translate(-1.88 -1.88)"/><path class="cls-2" d="M1088.78,12.64,1090.43,2h7.88l-.37,2.36h-5l-.27,1.76h4.16l-.35,2.31h-4.18l-.29,1.8h5l-.37,2.38Z" transform="translate(-1.88 -1.88)"/><path class="cls-2" d="M1098.48,12.64,1100.13,2h2.9l3.26,5.91.9-5.91h2.89l-1.64,10.61h-2.6l-3.5-6.33-1,6.33Z" transform="translate(-1.88 -1.88)"/><path class="cls-2" d="M1115,12.78a6.88,6.88,0,0,1-1.64-.19,4.48,4.48,0,0,1-1.43-.61,2.87,2.87,0,0,1-1-1.05,2.73,2.73,0,0,1-.28-1.52h3a1.15,1.15,0,0,0,.23.64,1.25,1.25,0,0,0,.56.4,2.15,2.15,0,0,0,.85.15,4.14,4.14,0,0,0,.87-.09,1.79,1.79,0,0,0,.7-.3.83.83,0,0,0,.35-.58.5.5,0,0,0-.18-.5,1.67,1.67,0,0,0-.63-.27c-.26-.06-.54-.12-.84-.17L1114,8.41a2.91,2.91,0,0,1-1.88-1,2.69,2.69,0,0,1-.47-2.14,3.29,3.29,0,0,1,.88-1.83,4.78,4.78,0,0,1,1.81-1.16,6.52,6.52,0,0,1,2.31-.4,5.06,5.06,0,0,1,2.26.47,3.6,3.6,0,0,1,1.44,1.24,2.75,2.75,0,0,1,.46,1.63h-2.92a1.12,1.12,0,0,0-.15-.66,1,1,0,0,0-.51-.37,2.92,2.92,0,0,0-.85-.11,2.52,2.52,0,0,0-.9.13,1.11,1.11,0,0,0-.5.32.79.79,0,0,0-.19.39.67.67,0,0,0,.15.57,1.63,1.63,0,0,0,.88.35l1.62.28a4.34,4.34,0,0,1,1.74.61,2.28,2.28,0,0,1,.83.94,2.42,2.42,0,0,1,.24,1,5.09,5.09,0,0,1,0,.91,2.87,2.87,0,0,1-.86,1.62,5,5,0,0,1-1.84,1.12A7,7,0,0,1,1115,12.78Z" transform="translate(-1.88 -1.88)"/><path class="cls-2" d="M1126.77,9.45a2.2,2.2,0,0,1-1.13-.3,2.3,2.3,0,0,1-.81-.8,2.15,2.15,0,0,1-.3-1.11,2.09,2.09,0,0,1,.3-1.1,2.3,2.3,0,0,1,.81-.8,2.28,2.28,0,0,1,2.26,0,2.3,2.3,0,0,1,.81.8,2.1,2.1,0,0,1,.31,1.1,2.16,2.16,0,0,1-.31,1.11,2.3,2.3,0,0,1-.81.8A2.2,2.2,0,0,1,1126.77,9.45Z" transform="translate(-1.88 -1.88)"/><path class="cls-2" d="M1132.92,12.64,1134.54,2h4.28a5.21,5.21,0,0,1,3.15.72,2.07,2.07,0,0,1,.71,2.08,2.78,2.78,0,0,1-.57,1.3,4.16,4.16,0,0,1-1.53,1,2.67,2.67,0,0,1,1,.52,1.7,1.7,0,0,1,.49.68,1.74,1.74,0,0,1,.12.71,4.5,4.5,0,0,1,0,.66,3,3,0,0,1-1.33,2.18,6.46,6.46,0,0,1-3.42.71Zm3.22-2.15h1.72a1.41,1.41,0,0,0,1-.34,1.32,1.32,0,0,0,.45-.76.9.9,0,0,0-.08-.52.8.8,0,0,0-.36-.37,1.28,1.28,0,0,0-.61-.13h-1.8Zm.65-4.32h1.82a1.39,1.39,0,0,0,.46-.08,1.07,1.07,0,0,0,.38-.2.88.88,0,0,0,.26-.31,1.26,1.26,0,0,0,.15-.38.76.76,0,0,0-.24-.75,1.16,1.16,0,0,0-.83-.28h-1.69Z" transform="translate(-1.88 -1.88)"/><path class="cls-2" d="M1143.57,12.64,1145.2,2h4.85a4.24,4.24,0,0,1,2.17.46,2.26,2.26,0,0,1,1,1.22,3.7,3.7,0,0,1,.11,1.74,4.37,4.37,0,0,1-.43,1.39,3.92,3.92,0,0,1-.75,1,5.4,5.4,0,0,1-1,.71l1.25,4.11h-2.94l-1-3.66H1147l-.56,3.66Zm3.77-5.78H1149a1.29,1.29,0,0,0,.69-.2,1.87,1.87,0,0,0,.53-.52,1.45,1.45,0,0,0,.27-.66,1.08,1.08,0,0,0-.25-.94,1,1,0,0,0-.82-.4h-1.65Z" transform="translate(-1.88 -1.88)"/><path class="cls-2" d="M1153.5,12.64,1158.93,2h2.93L1164,12.64h-2.84l-.39-2.06h-3.37l-1.05,2.06Zm4.9-4.49h2.11L1160,4.76Z" transform="translate(-1.88 -1.88)"/><path class="cls-2" d="M1169.29,12.78a5,5,0,0,1-2.65-.57,2.59,2.59,0,0,1-1.2-1.59,5.94,5.94,0,0,1-.08-2.37l1-6.22h2.92l-1,6.34a2.19,2.19,0,0,0,.06,1.17,1.16,1.16,0,0,0,.53.65,1.62,1.62,0,0,0,.81.2,2,2,0,0,0,1.25-.46,2.36,2.36,0,0,0,.76-1.56l1-6.34h2.92l-1,6.22a6.64,6.64,0,0,1-.81,2.37,4.06,4.06,0,0,1-1.69,1.59A6.08,6.08,0,0,1,1169.29,12.78Z" transform="translate(-1.88 -1.88)"/><path class="cls-2" d="M1180.5,12.78a4.53,4.53,0,0,1-2.34-.57,3.82,3.82,0,0,1-1.48-1.58,5,5,0,0,1-.52-2.34,7.43,7.43,0,0,1,.38-2.33,6.37,6.37,0,0,1,1.13-2.06,5.61,5.61,0,0,1,1.89-1.47,6,6,0,0,1,2.62-.55,4.84,4.84,0,0,1,2.16.46,3.25,3.25,0,0,1,1.39,1.33,4.18,4.18,0,0,1,.49,2.1h-3a2.18,2.18,0,0,0-.18-.85,1.27,1.27,0,0,0-.5-.55,1.62,1.62,0,0,0-.83-.2,1.72,1.72,0,0,0-1.17.41,2.94,2.94,0,0,0-.75,1,6.12,6.12,0,0,0-.4,1.38,9,9,0,0,0-.12,1.42,2.43,2.43,0,0,0,.41,1.58,1.34,1.34,0,0,0,1.07.48,1.72,1.72,0,0,0,.89-.24,2.41,2.41,0,0,0,.68-.67,3.27,3.27,0,0,0,.44-.9h3a9.56,9.56,0,0,1-.62,1.56,4.83,4.83,0,0,1-1,1.31,4.16,4.16,0,0,1-1.5.91A6.64,6.64,0,0,1,1180.5,12.78Z" transform="translate(-1.88 -1.88)"/><path class="cls-2" d="M1186.88,12.64,1188.51,2h2.89l-1.62,10.61Z" transform="translate(-1.88 -1.88)"/><path class="cls-2" d="M1191.88,12.64,1193.52,2h7.89L1201,4.39h-5l-.27,1.76h4.16l-.35,2.31h-4.18l-.28,1.8h5l-.38,2.38Z" transform="translate(-1.88 -1.88)"/></g></g></g></g></svg>