<svg xmlns="http://www.w3.org/2000/svg" viewBox="0 0 2176.94 1230.42"><defs><style>.cls-1{fill:#fff;}</style></defs><g id="Layer_2" data-name="Layer 2"><g id="Accordion_menu_expanded" data-name="Accordion menu expanded"><g id="Layer_9_copy_2" data-name="Layer 9 copy 2"><path class="cls-1" d="M12.9,1230.15c0,.3,0,.64,0,1s-.07.68-.11.9l-2.59-.39c0-.13,0-.28.05-.45a4.1,4.1,0,0,0,0-.49,1.3,1.3,0,0,0-.39-1.08,2.54,2.54,0,0,0-1.22-.44l-6.57-1v-2.87l7.31,1.11a7.39,7.39,0,0,1,2,.55,2.56,2.56,0,0,1,1.18,1.12A4.39,4.39,0,0,1,12.9,1230.15Z" transform="translate(-1.9 -1.65)"/><path class="cls-1" d="M12.9,1220.28a4.86,4.86,0,0,1-.68,2.66,3.66,3.66,0,0,1-1.9,1.51,5.83,5.83,0,0,1-2.9.2,7.18,7.18,0,0,1-2.91-1.1,5.79,5.79,0,0,1-1.92-2.11,5.87,5.87,0,0,1-.69-2.83,4.71,4.71,0,0,1,.69-2.62,3.79,3.79,0,0,1,1.92-1.52,5.88,5.88,0,0,1,2.91-.2,7,7,0,0,1,2.89,1.08,5.79,5.79,0,0,1,1.91,2.09A6,6,0,0,1,12.9,1220.28Zm-2.31-.34a2.09,2.09,0,0,0-.3-1.1,2.5,2.5,0,0,0-1-.88,6,6,0,0,0-1.84-.54,5.4,5.4,0,0,0-1.91,0,1.77,1.77,0,0,0-1,.57,1.62,1.62,0,0,0-.32,1,2.13,2.13,0,0,0,.73,1.58,4.81,4.81,0,0,0,2.53,1,5.13,5.13,0,0,0,1.84,0,1.67,1.67,0,0,0,1-.58A1.7,1.7,0,0,0,10.59,1219.94Z" transform="translate(-1.9 -1.65)"/><path class="cls-1" d="M12.9,1208.88a5,5,0,0,1-.58,2.65,2.61,2.61,0,0,1-1.6,1.2,5.91,5.91,0,0,1-2.4.08l-6.27-1v-2.92l6.39,1a2.49,2.49,0,0,0,1.19-.06,1.2,1.2,0,0,0,.65-.53,1.58,1.58,0,0,0,.21-.81,2,2,0,0,0-.47-1.26,2.38,2.38,0,0,0-1.58-.75l-6.39-1v-2.92l6.27,1a6.8,6.8,0,0,1,2.4.81,4.08,4.08,0,0,1,1.6,1.69A6,6,0,0,1,12.9,1208.88Z" transform="translate(-1.9 -1.65)"/><path class="cls-1" d="M12.75,1202.34l-10.7-1.63v-4.85a4.28,4.28,0,0,1,.46-2.18,2.27,2.27,0,0,1,1.24-1,3.74,3.74,0,0,1,1.75-.11,4.44,4.44,0,0,1,1.4.43,3.62,3.62,0,0,1,1,.76,5.06,5.06,0,0,1,.72,1l4.14-1.25v3l-3.69,1v1.52l3.69.56Zm-5.83-3.77v-1.66a1.28,1.28,0,0,0-.2-.68,1.82,1.82,0,0,0-.53-.54,1.71,1.71,0,0,0-.66-.27,1.13,1.13,0,0,0-1,.25,1,1,0,0,0-.4.83v1.65Z" transform="translate(-1.9 -1.65)"/><path class="cls-1" d="M12.75,1191.74l-10.7-1.65v-2.9l6-3.26-6-.91v-2.89l10.7,1.64v2.6l-6.38,3.5,6.38,1Z" transform="translate(-1.9 -1.65)"/><path class="cls-1" d="M12.75,1179.63,2.05,1178v-7.9l2.38.37v5l1.78.27v-4.16l2.32.35v4.18l1.82.29v-5l2.4.37Z" transform="translate(-1.9 -1.65)"/><path class="cls-1" d="M12.75,1166.85l-4.45-.66L2.05,1169v-3.11l3.8-1.54-3.8-2.68v-3.15l6.25,4.78,4.45.68Z" transform="translate(-1.9 -1.65)"/><path class="cls-1" d="M9.54,1154a2.17,2.17,0,0,1-.3,1.13,2.35,2.35,0,0,1-.82.81,2.16,2.16,0,0,1-2.23,0,2.3,2.3,0,0,1-.8-.81,2.09,2.09,0,0,1-.31-1.13,2.11,2.11,0,0,1,.31-1.13,2.3,2.3,0,0,1,.8-.81,2.16,2.16,0,0,1,2.23,0,2.35,2.35,0,0,1,.82.81A2.2,2.2,0,0,1,9.54,1154Z" transform="translate(-1.9 -1.65)"/><path class="cls-1" d="M12.9,1146.69c0,.3,0,.64,0,1s-.07.68-.11.9l-2.59-.39c0-.13,0-.28.05-.45a4.1,4.1,0,0,0,0-.49,1.34,1.34,0,0,0-.39-1.09,2.65,2.65,0,0,0-1.22-.43l-6.57-1v-2.88L9.36,1143a7,7,0,0,1,2,.55,2.56,2.56,0,0,1,1.18,1.12A4.39,4.39,0,0,1,12.9,1146.69Z" transform="translate(-1.9 -1.65)"/><path class="cls-1" d="M12.9,1136.84a4.89,4.89,0,0,1-.68,2.66,3.7,3.7,0,0,1-1.9,1.51,6,6,0,0,1-2.9.2,7.18,7.18,0,0,1-2.91-1.1,5.87,5.87,0,0,1-2.61-4.95,4.68,4.68,0,0,1,.69-2.61A3.74,3.74,0,0,1,4.51,1131a5.88,5.88,0,0,1,2.91-.2,7,7,0,0,1,2.89,1.08,5.79,5.79,0,0,1,1.91,2.09A6,6,0,0,1,12.9,1136.84Zm-2.31-.34a2.15,2.15,0,0,0-.3-1.11,2.49,2.49,0,0,0-1-.87,5.52,5.52,0,0,0-1.84-.54,5.4,5.4,0,0,0-1.91,0,1.77,1.77,0,0,0-1,.57,1.62,1.62,0,0,0-.32,1,2.15,2.15,0,0,0,.73,1.59,4.81,4.81,0,0,0,2.53,1,5.09,5.09,0,0,0,1.84,0,1.62,1.62,0,0,0,1-.58A1.67,1.67,0,0,0,10.59,1136.5Z" transform="translate(-1.9 -1.65)"/><path class="cls-1" d="M12.9,1125.44a5,5,0,0,1-.58,2.65,2.61,2.61,0,0,1-1.6,1.2,5.91,5.91,0,0,1-2.4.08l-6.27-1v-2.92l6.39,1a2.49,2.49,0,0,0,1.19-.06,1.16,1.16,0,0,0,.65-.53,1.58,1.58,0,0,0,.21-.81,2,2,0,0,0-.47-1.26,2.38,2.38,0,0,0-1.58-.75l-6.39-1v-2.92l6.27.95a6.8,6.8,0,0,1,2.4.81,4.08,4.08,0,0,1,1.6,1.69A6,6,0,0,1,12.9,1125.44Z" transform="translate(-1.9 -1.65)"/><path class="cls-1" d="M12.75,1118.88l-10.7-1.63v-4.86a4.28,4.28,0,0,1,.46-2.18,2.21,2.21,0,0,1,1.24-1,3.6,3.6,0,0,1,1.75-.12,4.19,4.19,0,0,1,1.4.44,3.41,3.41,0,0,1,1,.75,4.84,4.84,0,0,1,.72,1l4.14-1.26v3l-3.69,1v1.52l3.69.55Zm-5.83-3.78v-1.65a1.29,1.29,0,0,0-.2-.69,1.94,1.94,0,0,0-.53-.54,1.55,1.55,0,0,0-.66-.26,1.1,1.1,0,0,0-1,.25,1,1,0,0,0-.4.82v1.65Z" transform="translate(-1.9 -1.65)"/><path class="cls-1" d="M12.75,1108.3l-10.7-1.64v-2.91l6-3.26-6-.9v-2.9l10.7,1.64v2.61l-6.38,3.5,6.38,1Z" transform="translate(-1.9 -1.65)"/><path class="cls-1" d="M12.75,1096.2l-10.7-1.65v-7.9l2.38.38v5l1.78.27v-4.17l2.32.35v4.19l1.82.28v-5l2.4.37Z" transform="translate(-1.9 -1.65)"/><path class="cls-1" d="M12.75,1083.42l-4.45-.67-6.25,2.81v-3.1l3.8-1.55-3.8-2.67v-3.15l6.25,4.77,4.45.69Z" transform="translate(-1.9 -1.65)"/><path class="cls-1" d="M9.54,1070.54a2.2,2.2,0,0,1-.3,1.13,2.35,2.35,0,0,1-.82.81,2.22,2.22,0,0,1-2.23,0,2.3,2.3,0,0,1-.8-.81,2.21,2.21,0,0,1,0-2.26,2.3,2.3,0,0,1,.8-.81,2.16,2.16,0,0,1,2.23,0,2.35,2.35,0,0,1,.82.81A2.2,2.2,0,0,1,9.54,1070.54Z" transform="translate(-1.9 -1.65)"/><path class="cls-1" d="M12.9,1063.24c0,.3,0,.64,0,1s-.07.68-.11.9l-2.59-.39c0-.13,0-.28.05-.45a4.1,4.1,0,0,0,0-.49,1.32,1.32,0,0,0-.39-1.08,2.54,2.54,0,0,0-1.22-.44l-6.57-1v-2.87l7.31,1.11a7.39,7.39,0,0,1,2,.55,2.56,2.56,0,0,1,1.18,1.12A4.39,4.39,0,0,1,12.9,1063.24Z" transform="translate(-1.9 -1.65)"/><path class="cls-1" d="M12.9,1053.37a4.86,4.86,0,0,1-.68,2.66,3.72,3.72,0,0,1-1.9,1.52,6,6,0,0,1-2.9.19,7,7,0,0,1-2.91-1.1,5.84,5.84,0,0,1-2.61-4.94,4.71,4.71,0,0,1,.69-2.62,3.72,3.72,0,0,1,1.92-1.51,5.76,5.76,0,0,1,2.91-.21,7,7,0,0,1,2.89,1.08,5.79,5.79,0,0,1,1.91,2.09A6,6,0,0,1,12.9,1053.37Zm-2.31-.34a2.12,2.12,0,0,0-.3-1.1,2.5,2.5,0,0,0-1-.88,6,6,0,0,0-1.84-.54,5.14,5.14,0,0,0-1.91,0,1.67,1.67,0,0,0-1,.57,1.58,1.58,0,0,0-.32,1,2.11,2.11,0,0,0,.73,1.58,4.81,4.81,0,0,0,2.53,1,5.13,5.13,0,0,0,1.84,0,1.62,1.62,0,0,0,1-.58A1.7,1.7,0,0,0,10.59,1053Z" transform="translate(-1.9 -1.65)"/><path class="cls-1" d="M12.9,1042a5,5,0,0,1-.58,2.66,2.68,2.68,0,0,1-1.6,1.2,6.11,6.11,0,0,1-2.4.07l-6.27-1V1042l6.39,1a2.26,2.26,0,0,0,1.19-.06,1.16,1.16,0,0,0,.65-.53,1.58,1.58,0,0,0,.21-.81,2,2,0,0,0-.47-1.25,2.35,2.35,0,0,0-1.58-.76l-6.39-1v-2.92l6.27,1a6.8,6.8,0,0,1,2.4.81,4.14,4.14,0,0,1,1.6,1.69A6,6,0,0,1,12.9,1042Z" transform="translate(-1.9 -1.65)"/><path class="cls-1" d="M12.75,1035.43l-10.7-1.63v-4.86a4.31,4.31,0,0,1,.46-2.18,2.21,2.21,0,0,1,1.24-1,3.6,3.6,0,0,1,1.75-.12,4.43,4.43,0,0,1,1.4.44,3.59,3.59,0,0,1,1,.75,5.45,5.45,0,0,1,.72,1l4.14-1.25v3l-3.69,1V1032l3.69.56Zm-5.83-3.78V1030a1.32,1.32,0,0,0-.2-.69,1.79,1.79,0,0,0-.53-.53,1.45,1.45,0,0,0-.66-.27,1.1,1.1,0,0,0-1,.25,1,1,0,0,0-.4.82v1.65Z" transform="translate(-1.9 -1.65)"/><path class="cls-1" d="M12.75,1024.84l-10.7-1.64v-2.91L8,1017l-6-.9v-2.9l10.7,1.64v2.6L6.37,1021l6.38,1Z" transform="translate(-1.9 -1.65)"/><path class="cls-1" d="M12.75,1012.75l-10.7-1.65v-7.89l2.38.37v5l1.78.27v-4.17l2.32.35v4.19l1.82.28v-5l2.4.37Z" transform="translate(-1.9 -1.65)"/><path class="cls-1" d="M12.75,1000l-4.45-.66-6.25,2.8V999l3.8-1.55-3.8-2.67v-3.15l6.25,4.77,4.45.69Z" transform="translate(-1.9 -1.65)"/><path class="cls-1" d="M9.54,987.09a2.16,2.16,0,0,1-.3,1.12,2.38,2.38,0,0,1-.82.82,2.22,2.22,0,0,1-2.23,0,2.33,2.33,0,0,1-.8-.82,2.2,2.2,0,0,1,0-2.25,2.33,2.33,0,0,1,.8-.82,2.22,2.22,0,0,1,2.23,0,2.38,2.38,0,0,1,.82.82A2.17,2.17,0,0,1,9.54,987.09Z" transform="translate(-1.9 -1.65)"/><path class="cls-1" d="M12.9,979.77c0,.3,0,.65,0,1a8.92,8.92,0,0,1-.11.89l-2.59-.38c0-.14,0-.29.05-.46a4,4,0,0,0,0-.48,1.32,1.32,0,0,0-.39-1.09,2.54,2.54,0,0,0-1.22-.43l-6.57-1V975l7.31,1.12a6.72,6.72,0,0,1,2,.55,2.59,2.59,0,0,1,1.18,1.11A4.41,4.41,0,0,1,12.9,979.77Z" transform="translate(-1.9 -1.65)"/><path class="cls-1" d="M12.9,969.92a4.86,4.86,0,0,1-.68,2.66,3.72,3.72,0,0,1-1.9,1.52,6,6,0,0,1-2.9.19,7,7,0,0,1-2.91-1.1,5.84,5.84,0,0,1-2.61-4.94,4.71,4.71,0,0,1,.69-2.62,3.72,3.72,0,0,1,1.92-1.51,5.76,5.76,0,0,1,2.91-.21A7,7,0,0,1,10.31,965a5.74,5.74,0,0,1,1.91,2.1A5.92,5.92,0,0,1,12.9,969.92Zm-2.31-.34a2.12,2.12,0,0,0-.3-1.1,2.5,2.5,0,0,0-1-.88,6,6,0,0,0-1.84-.54,5.14,5.14,0,0,0-1.91,0,1.67,1.67,0,0,0-1,.57,1.6,1.6,0,0,0-.32,1,2.11,2.11,0,0,0,.73,1.58,4.73,4.73,0,0,0,2.53,1,5.13,5.13,0,0,0,1.84,0,1.62,1.62,0,0,0,1-.58A1.7,1.7,0,0,0,10.59,969.58Z" transform="translate(-1.9 -1.65)"/><path class="cls-1" d="M12.9,958.54a5,5,0,0,1-.58,2.65,2.61,2.61,0,0,1-1.6,1.2,5.91,5.91,0,0,1-2.4.08l-6.27-1v-2.93l6.39,1a2.49,2.49,0,0,0,1.19-.06,1.2,1.2,0,0,0,.65-.53,1.58,1.58,0,0,0,.21-.81,2,2,0,0,0-.47-1.26,2.38,2.38,0,0,0-1.58-.75l-6.39-1v-2.92l6.27,1a7,7,0,0,1,2.4.8,4.17,4.17,0,0,1,1.6,1.7A6,6,0,0,1,12.9,958.54Z" transform="translate(-1.9 -1.65)"/><path class="cls-1" d="M12.75,952l-10.7-1.63v-4.86a4.24,4.24,0,0,1,.46-2.17,2.27,2.27,0,0,1,1.24-1,3.74,3.74,0,0,1,1.75-.11,4.44,4.44,0,0,1,1.4.43,3.8,3.8,0,0,1,1,.75,5.45,5.45,0,0,1,.72,1l4.14-1.25V946l-3.69,1v1.52l3.69.56ZM6.92,948.2v-1.66a1.28,1.28,0,0,0-.2-.68,1.82,1.82,0,0,0-1.19-.81,1.13,1.13,0,0,0-1,.25,1,1,0,0,0-.4.82v1.66Z" transform="translate(-1.9 -1.65)"/><path class="cls-1" d="M12.75,941.4l-10.7-1.65v-2.9l6-3.27-6-.9v-2.9l10.7,1.65V934l-6.38,3.5,6.38,1Z" transform="translate(-1.9 -1.65)"/><path class="cls-1" d="M12.75,929.29l-10.7-1.65v-7.9l2.38.37v5l1.78.26v-4.16l2.32.35v4.19l1.82.28v-5l2.4.38Z" transform="translate(-1.9 -1.65)"/><path class="cls-1" d="M12.75,916.5l-4.45-.66-6.25,2.81v-3.11L5.85,914l-3.8-2.68v-3.15L8.3,913l4.45.68Z" transform="translate(-1.9 -1.65)"/><path class="cls-1" d="M9.54,903.63a2.2,2.2,0,0,1-.3,1.13,2.35,2.35,0,0,1-.82.81,2.22,2.22,0,0,1-2.23,0,2.3,2.3,0,0,1-.8-.81,2.21,2.21,0,0,1,0-2.26,2.3,2.3,0,0,1,.8-.81,2.16,2.16,0,0,1,2.23,0,2.35,2.35,0,0,1,.82.81A2.2,2.2,0,0,1,9.54,903.63Z" transform="translate(-1.9 -1.65)"/><path class="cls-1" d="M12.9,896.32c0,.3,0,.64,0,1s-.07.68-.11.9l-2.59-.39c0-.13,0-.28.05-.45a4.1,4.1,0,0,0,0-.49,1.34,1.34,0,0,0-.39-1.09,2.65,2.65,0,0,0-1.22-.43l-6.57-1V891.5l7.31,1.12a7,7,0,0,1,2,.55,2.56,2.56,0,0,1,1.18,1.12A4.39,4.39,0,0,1,12.9,896.32Z" transform="translate(-1.9 -1.65)"/><path class="cls-1" d="M12.9,886.47a4.89,4.89,0,0,1-.68,2.66,3.7,3.7,0,0,1-1.9,1.51,6,6,0,0,1-2.9.2,7.18,7.18,0,0,1-2.91-1.1,5.87,5.87,0,0,1-2.61-5,4.65,4.65,0,0,1,.69-2.61,3.74,3.74,0,0,1,1.92-1.52,5.88,5.88,0,0,1,2.91-.2,7,7,0,0,1,2.89,1.08,5.79,5.79,0,0,1,1.91,2.09A6,6,0,0,1,12.9,886.47Zm-2.31-.34a2.15,2.15,0,0,0-.3-1.11,2.49,2.49,0,0,0-1-.87,5.52,5.52,0,0,0-1.84-.54,5.4,5.4,0,0,0-1.91,0,1.77,1.77,0,0,0-1,.57,1.62,1.62,0,0,0-.32,1,2.15,2.15,0,0,0,.73,1.59,4.81,4.81,0,0,0,2.53,1,5.09,5.09,0,0,0,1.84,0,1.62,1.62,0,0,0,1-.58A1.67,1.67,0,0,0,10.59,886.13Z" transform="translate(-1.9 -1.65)"/><path class="cls-1" d="M12.9,875.09a5,5,0,0,1-.58,2.66,2.68,2.68,0,0,1-1.6,1.2,5.93,5.93,0,0,1-2.4.07l-6.27-.95v-2.93l6.39,1a2.26,2.26,0,0,0,1.19-.06,1.16,1.16,0,0,0,.65-.53,1.55,1.55,0,0,0,.21-.81,2,2,0,0,0-.47-1.25,2.35,2.35,0,0,0-1.58-.76l-6.39-1v-2.92l6.27.95a6.8,6.8,0,0,1,2.4.81,4.14,4.14,0,0,1,1.6,1.69A6,6,0,0,1,12.9,875.09Z" transform="translate(-1.9 -1.65)"/><path class="cls-1" d="M12.75,868.54l-10.7-1.63v-4.86a4.28,4.28,0,0,1,.46-2.18,2.21,2.21,0,0,1,1.24-1,3.6,3.6,0,0,1,1.75-.12,4.19,4.19,0,0,1,1.4.44,3.41,3.41,0,0,1,1,.75,4.84,4.84,0,0,1,.72,1l4.14-1.26v3l-3.69,1v1.52l3.69.56Zm-5.83-3.78v-1.65a1.29,1.29,0,0,0-.2-.69,1.94,1.94,0,0,0-.53-.54,1.55,1.55,0,0,0-.66-.26,1.13,1.13,0,0,0-1,.24,1.05,1.05,0,0,0-.4.83v1.65Z" transform="translate(-1.9 -1.65)"/><path class="cls-1" d="M12.75,858,2.05,856.3v-2.9l6-3.27-6-.9v-2.9L12.75,848v2.6l-6.38,3.5,6.38,1Z" transform="translate(-1.9 -1.65)"/><path class="cls-1" d="M12.75,845.82l-10.7-1.64v-7.9l2.38.37v5l1.78.27v-4.16l2.32.35v4.19l1.82.28v-5l2.4.37Z" transform="translate(-1.9 -1.65)"/><path class="cls-1" d="M12.75,833.05l-4.45-.66L2.05,835.2v-3.11l3.8-1.54-3.8-2.67v-3.16L8.3,829.5l4.45.69Z" transform="translate(-1.9 -1.65)"/><path class="cls-1" d="M9.54,820.19a2.2,2.2,0,0,1-.3,1.13,2.35,2.35,0,0,1-.82.81,2.22,2.22,0,0,1-2.23,0,2.3,2.3,0,0,1-.8-.81,2.11,2.11,0,0,1-.31-1.13,2.09,2.09,0,0,1,.31-1.13,2.41,2.41,0,0,1,.8-.82,2.22,2.22,0,0,1,2.23,0,2.47,2.47,0,0,1,.82.82A2.17,2.17,0,0,1,9.54,820.19Z" transform="translate(-1.9 -1.65)"/><path class="cls-1" d="M12.9,812.88c0,.3,0,.64,0,1s-.07.68-.11.9l-2.59-.39c0-.13,0-.28.05-.45a4.1,4.1,0,0,0,0-.49,1.34,1.34,0,0,0-.39-1.09A2.65,2.65,0,0,0,8.62,812l-6.57-1v-2.88l7.31,1.12a7,7,0,0,1,2,.55,2.56,2.56,0,0,1,1.18,1.12A4.39,4.39,0,0,1,12.9,812.88Z" transform="translate(-1.9 -1.65)"/><path class="cls-1" d="M12.9,803a4.89,4.89,0,0,1-.68,2.66,3.7,3.7,0,0,1-1.9,1.51,5.83,5.83,0,0,1-2.9.2,7.18,7.18,0,0,1-2.91-1.1,5.84,5.84,0,0,1-2.61-4.95,4.68,4.68,0,0,1,.69-2.61,3.74,3.74,0,0,1,1.92-1.52,5.88,5.88,0,0,1,2.91-.2,7,7,0,0,1,2.89,1.08,5.79,5.79,0,0,1,1.91,2.09A6,6,0,0,1,12.9,803Zm-2.31-.34a2.09,2.09,0,0,0-.3-1.1,2.5,2.5,0,0,0-1-.88,5.52,5.52,0,0,0-1.84-.54,5.4,5.4,0,0,0-1.91,0,1.77,1.77,0,0,0-1,.57,1.62,1.62,0,0,0-.32,1,2.13,2.13,0,0,0,.73,1.59,4.81,4.81,0,0,0,2.53,1,5.09,5.09,0,0,0,1.84,0,1.58,1.58,0,0,0,1-.58A1.65,1.65,0,0,0,10.59,802.67Z" transform="translate(-1.9 -1.65)"/><path class="cls-1" d="M12.9,791.64a5,5,0,0,1-.58,2.65,2.61,2.61,0,0,1-1.6,1.2,6.09,6.09,0,0,1-2.4.08l-6.27-1v-2.93l6.39,1a2.49,2.49,0,0,0,1.19-.06,1.2,1.2,0,0,0,.65-.53,1.58,1.58,0,0,0,.21-.81A2,2,0,0,0,10,790a2.39,2.39,0,0,0-1.58-.76l-6.39-1v-2.92l6.27,1a7,7,0,0,1,2.4.8,4.17,4.17,0,0,1,1.6,1.7A6,6,0,0,1,12.9,791.64Z" transform="translate(-1.9 -1.65)"/><path class="cls-1" d="M12.75,785.07l-10.7-1.63v-4.86a4.28,4.28,0,0,1,.46-2.18,2.21,2.21,0,0,1,1.24-1,3.6,3.6,0,0,1,1.75-.12,4.19,4.19,0,0,1,1.4.44,3.41,3.41,0,0,1,1,.75,4.84,4.84,0,0,1,.72,1l4.14-1.26v3l-3.69,1v1.52l3.69.55Zm-5.83-3.78v-1.65a1.29,1.29,0,0,0-.2-.69,1.94,1.94,0,0,0-.53-.54,1.55,1.55,0,0,0-.66-.26,1.1,1.1,0,0,0-1,.25,1,1,0,0,0-.4.82v1.65Z" transform="translate(-1.9 -1.65)"/><path class="cls-1" d="M12.75,774.48l-10.7-1.65v-2.9l6-3.27-6-.9v-2.9l10.7,1.65v2.6l-6.38,3.5,6.38,1Z" transform="translate(-1.9 -1.65)"/><path class="cls-1" d="M12.75,762.39l-10.7-1.65v-7.9l2.38.38v5l1.78.27v-4.17l2.32.35v4.19l1.82.28v-5l2.4.37Z" transform="translate(-1.9 -1.65)"/><path class="cls-1" d="M12.75,749.62,8.3,749l-6.25,2.8v-3.1l3.8-1.54-3.8-2.68v-3.15l6.25,4.77,4.45.69Z" transform="translate(-1.9 -1.65)"/><path class="cls-1" d="M9.54,736.72a2.17,2.17,0,0,1-.3,1.13,2.47,2.47,0,0,1-.82.82,2.22,2.22,0,0,1-2.23,0,2.41,2.41,0,0,1-.8-.82,2.2,2.2,0,0,1,0-2.25,2.33,2.33,0,0,1,.8-.82,2.16,2.16,0,0,1,2.23,0,2.38,2.38,0,0,1,.82.82A2.16,2.16,0,0,1,9.54,736.72Z" transform="translate(-1.9 -1.65)"/><path class="cls-1" d="M12.9,729.44c0,.3,0,.64,0,1s-.07.68-.11.9L10.16,731c0-.13,0-.28.05-.45a4,4,0,0,0,0-.48A1.32,1.32,0,0,0,9.84,729a2.44,2.44,0,0,0-1.22-.43l-6.57-1v-2.87l7.31,1.11a7,7,0,0,1,2,.56,2.49,2.49,0,0,1,1.18,1.11A4.39,4.39,0,0,1,12.9,729.44Z" transform="translate(-1.9 -1.65)"/><path class="cls-1" d="M12.9,719.57a4.89,4.89,0,0,1-.68,2.66,3.7,3.7,0,0,1-1.9,1.51,5.84,5.84,0,0,1-2.9.19,7,7,0,0,1-2.91-1.1,5.84,5.84,0,0,1-2.61-4.94,4.71,4.71,0,0,1,.69-2.62,3.72,3.72,0,0,1,1.92-1.51,5.76,5.76,0,0,1,2.91-.21,7,7,0,0,1,2.89,1.08,5.74,5.74,0,0,1,1.91,2.1A5.93,5.93,0,0,1,12.9,719.57Zm-2.31-.35a2.14,2.14,0,0,0-.3-1.1,2.5,2.5,0,0,0-1-.88,6,6,0,0,0-1.84-.54,5.36,5.36,0,0,0-1.91,0,1.67,1.67,0,0,0-1,.57,1.6,1.6,0,0,0-.32,1,2.11,2.11,0,0,0,.73,1.58,4.73,4.73,0,0,0,2.53,1,4.91,4.91,0,0,0,1.84,0,1.62,1.62,0,0,0,1-.58A1.7,1.7,0,0,0,10.59,719.22Z" transform="translate(-1.9 -1.65)"/><path class="cls-1" d="M12.9,708.2a5,5,0,0,1-.58,2.66,2.63,2.63,0,0,1-1.6,1.19,5.91,5.91,0,0,1-2.4.08l-6.27-1v-2.93l6.39,1a2.26,2.26,0,0,0,1.19-.06,1.16,1.16,0,0,0,.65-.53,1.58,1.58,0,0,0,.21-.81,2,2,0,0,0-.47-1.26,2.38,2.38,0,0,0-1.58-.75l-6.39-1v-2.92l6.27,1a6.8,6.8,0,0,1,2.4.81,4.14,4.14,0,0,1,1.6,1.69A6,6,0,0,1,12.9,708.2Z" transform="translate(-1.9 -1.65)"/><path class="cls-1" d="M12.75,701.63,2.05,700v-4.86A4.28,4.28,0,0,1,2.51,693a2.21,2.21,0,0,1,1.24-1,3.6,3.6,0,0,1,1.75-.12,4.19,4.19,0,0,1,1.4.44,3.41,3.41,0,0,1,1,.75,4.84,4.84,0,0,1,.72,1l4.14-1.26v2.95l-3.69,1v1.52l3.69.55Zm-5.83-3.78V696.2a1.29,1.29,0,0,0-.2-.69,1.94,1.94,0,0,0-.53-.54,1.55,1.55,0,0,0-.66-.26,1.1,1.1,0,0,0-1,.25,1,1,0,0,0-.4.82v1.65Z" transform="translate(-1.9 -1.65)"/><path class="cls-1" d="M12.75,691l-10.7-1.65v-2.9l6-3.27-6-.9v-2.9l10.7,1.65v2.6l-6.38,3.5,6.38,1Z" transform="translate(-1.9 -1.65)"/><path class="cls-1" d="M12.75,678.91l-10.7-1.65v-7.89l2.38.37v5l1.78.27v-4.17l2.32.35v4.19l1.82.28v-5l2.4.37Z" transform="translate(-1.9 -1.65)"/><path class="cls-1" d="M12.75,666.15l-4.45-.67-6.25,2.81v-3.11l3.8-1.54L2.05,661v-3.15l6.25,4.77,4.45.69Z" transform="translate(-1.9 -1.65)"/><path class="cls-1" d="M9.54,653.28a2.2,2.2,0,0,1-.3,1.13,2.35,2.35,0,0,1-.82.81,2.22,2.22,0,0,1-2.23,0,2.3,2.3,0,0,1-.8-.81,2.21,2.21,0,0,1,0-2.26,2.41,2.41,0,0,1,.8-.82,2.22,2.22,0,0,1,2.23,0,2.47,2.47,0,0,1,.82.82A2.2,2.2,0,0,1,9.54,653.28Z" transform="translate(-1.9 -1.65)"/><path class="cls-1" d="M12.9,646c0,.31,0,.65,0,1s-.07.68-.11.9l-2.59-.39c0-.14,0-.29.05-.46a3.93,3.93,0,0,0,0-.48,1.32,1.32,0,0,0-.39-1.09A2.54,2.54,0,0,0,8.62,645l-6.57-1v-2.88l7.31,1.12a7,7,0,0,1,2,.55,2.59,2.59,0,0,1,1.18,1.11A4.41,4.41,0,0,1,12.9,646Z" transform="translate(-1.9 -1.65)"/><path class="cls-1" d="M12.9,636.11a4.89,4.89,0,0,1-.68,2.66,3.66,3.66,0,0,1-1.9,1.51,5.83,5.83,0,0,1-2.9.2,7.18,7.18,0,0,1-2.91-1.1,5.79,5.79,0,0,1-1.92-2.11,5.87,5.87,0,0,1-.69-2.83,4.71,4.71,0,0,1,.69-2.62,3.74,3.74,0,0,1,1.92-1.52,5.88,5.88,0,0,1,2.91-.2,7,7,0,0,1,2.89,1.08,5.79,5.79,0,0,1,1.91,2.09A6,6,0,0,1,12.9,636.11Zm-2.31-.34a2.09,2.09,0,0,0-.3-1.1,2.5,2.5,0,0,0-1-.88,5.76,5.76,0,0,0-1.84-.54,5.4,5.4,0,0,0-1.91,0,1.77,1.77,0,0,0-1,.57,1.62,1.62,0,0,0-.32,1,2.13,2.13,0,0,0,.73,1.58,4.81,4.81,0,0,0,2.53,1,5.13,5.13,0,0,0,1.84,0,1.63,1.63,0,0,0,1-.59A1.65,1.65,0,0,0,10.59,635.77Z" transform="translate(-1.9 -1.65)"/><path class="cls-1" d="M12.9,624.73a5,5,0,0,1-.58,2.65,2.61,2.61,0,0,1-1.6,1.2,5.91,5.91,0,0,1-2.4.08l-6.27-1v-2.92l6.39,1a2.49,2.49,0,0,0,1.19-.06,1.16,1.16,0,0,0,.65-.53,1.58,1.58,0,0,0,.21-.81A2,2,0,0,0,10,623.1a2.38,2.38,0,0,0-1.58-.75l-6.39-1v-2.92l6.27.95a6.8,6.8,0,0,1,2.4.81,4.08,4.08,0,0,1,1.6,1.69A6,6,0,0,1,12.9,624.73Z" transform="translate(-1.9 -1.65)"/><path class="cls-1" d="M12.75,618.17l-10.7-1.63v-4.86a4.31,4.31,0,0,1,.46-2.18,2.21,2.21,0,0,1,1.24-1,3.6,3.6,0,0,1,1.75-.12,4.43,4.43,0,0,1,1.4.44,3.41,3.41,0,0,1,1,.75,5.13,5.13,0,0,1,.72,1l4.14-1.25v3l-3.69,1v1.52l3.69.56Zm-5.83-3.78v-1.65a1.32,1.32,0,0,0-.2-.69,1.79,1.79,0,0,0-.53-.53,1.45,1.45,0,0,0-.66-.27,1.1,1.1,0,0,0-1,.25,1,1,0,0,0-.4.82V614Z" transform="translate(-1.9 -1.65)"/><path class="cls-1" d="M12.75,607.58l-10.7-1.65V603l6-3.27-6-.9V596l10.7,1.65v2.6l-6.38,3.5,6.38,1Z" transform="translate(-1.9 -1.65)"/><path class="cls-1" d="M12.75,595.47l-10.7-1.65v-7.9l2.38.38v5l1.78.27v-4.17l2.32.35v4.19l1.82.28v-5l2.4.37Z" transform="translate(-1.9 -1.65)"/><path class="cls-1" d="M12.75,582.71l-4.45-.66-6.25,2.81v-3.11l3.8-1.54-3.8-2.68v-3.15l6.25,4.78,4.45.68Z" transform="translate(-1.9 -1.65)"/><path class="cls-1" d="M9.54,569.82a2.2,2.2,0,0,1-.3,1.13,2.35,2.35,0,0,1-.82.81,2.22,2.22,0,0,1-2.23,0,2.3,2.3,0,0,1-.8-.81,2.21,2.21,0,0,1,0-2.26,2.41,2.41,0,0,1,.8-.82,2.22,2.22,0,0,1,2.23,0,2.47,2.47,0,0,1,.82.82A2.2,2.2,0,0,1,9.54,569.82Z" transform="translate(-1.9 -1.65)"/><path class="cls-1" d="M12.9,562.51c0,.3,0,.64,0,1s-.07.68-.11.9L10.16,564c0-.13,0-.28.05-.45a4.1,4.1,0,0,0,0-.49A1.32,1.32,0,0,0,9.84,562a2.54,2.54,0,0,0-1.22-.44l-6.57-1V557.7l7.31,1.11a7.39,7.39,0,0,1,2,.55,2.56,2.56,0,0,1,1.18,1.12A4.39,4.39,0,0,1,12.9,562.51Z" transform="translate(-1.9 -1.65)"/><path class="cls-1" d="M12.9,552.67a4.89,4.89,0,0,1-.68,2.66,3.7,3.7,0,0,1-1.9,1.51,6,6,0,0,1-2.9.2,7.18,7.18,0,0,1-2.91-1.1,5.87,5.87,0,0,1-2.61-5,4.65,4.65,0,0,1,.69-2.61,3.74,3.74,0,0,1,1.92-1.52,5.88,5.88,0,0,1,2.91-.2,7,7,0,0,1,2.89,1.08,5.79,5.79,0,0,1,1.91,2.09A6,6,0,0,1,12.9,552.67Zm-2.31-.34a2.15,2.15,0,0,0-.3-1.11,2.49,2.49,0,0,0-1-.87,5.52,5.52,0,0,0-1.84-.54,5.4,5.4,0,0,0-1.91,0,1.77,1.77,0,0,0-1,.57,1.62,1.62,0,0,0-.32,1,2.15,2.15,0,0,0,.73,1.59,4.81,4.81,0,0,0,2.53,1,5.09,5.09,0,0,0,1.84,0,1.62,1.62,0,0,0,1-.58A1.67,1.67,0,0,0,10.59,552.33Z" transform="translate(-1.9 -1.65)"/><path class="cls-1" d="M12.9,541.29a5,5,0,0,1-.58,2.65,2.68,2.68,0,0,1-1.6,1.2,5.93,5.93,0,0,1-2.4.07l-6.27-1v-2.93l6.39,1a2.26,2.26,0,0,0,1.19-.06,1.19,1.19,0,0,0,.65-.52,1.59,1.59,0,0,0,.21-.82,2,2,0,0,0-.47-1.25,2.35,2.35,0,0,0-1.58-.76l-6.39-1V535l6.27,1a6.8,6.8,0,0,1,2.4.8,4.11,4.11,0,0,1,1.6,1.7A6,6,0,0,1,12.9,541.29Z" transform="translate(-1.9 -1.65)"/><path class="cls-1" d="M12.75,534.71l-10.7-1.63v-4.85a4.28,4.28,0,0,1,.46-2.18,2.27,2.27,0,0,1,1.24-1,3.74,3.74,0,0,1,1.75-.11,4.44,4.44,0,0,1,1.4.43,3.62,3.62,0,0,1,1,.76,5.06,5.06,0,0,1,.72,1l4.14-1.25v3l-3.69,1v1.52l3.69.56Zm-5.83-3.77v-1.66a1.28,1.28,0,0,0-.2-.68,1.82,1.82,0,0,0-.53-.54,1.71,1.71,0,0,0-.66-.27,1.13,1.13,0,0,0-1,.25,1,1,0,0,0-.4.83v1.65Z" transform="translate(-1.9 -1.65)"/><path class="cls-1" d="M12.75,524.13l-10.7-1.65v-2.91l6-3.26-6-.9v-2.9l10.7,1.65v2.6l-6.38,3.5,6.38,1Z" transform="translate(-1.9 -1.65)"/><path class="cls-1" d="M12.75,512l-10.7-1.65v-7.89l2.38.37v5l1.78.27v-4.17l2.32.35v4.19l1.82.28v-5l2.4.37Z" transform="translate(-1.9 -1.65)"/><path class="cls-1" d="M12.75,499.24l-4.45-.67-6.25,2.81v-3.11l3.8-1.54-3.8-2.67v-3.15l6.25,4.77,4.45.69Z" transform="translate(-1.9 -1.65)"/><path class="cls-1" d="M9.54,486.36a2.2,2.2,0,0,1-.3,1.13,2.35,2.35,0,0,1-.82.81,2.16,2.16,0,0,1-2.23,0,2.3,2.3,0,0,1-.8-.81,2.21,2.21,0,0,1,0-2.26,2.3,2.3,0,0,1,.8-.81,2.16,2.16,0,0,1,2.23,0,2.35,2.35,0,0,1,.82.81A2.2,2.2,0,0,1,9.54,486.36Z" transform="translate(-1.9 -1.65)"/><path class="cls-1" d="M12.9,479.07c0,.31,0,.65,0,1s-.07.68-.11.9l-2.59-.39c0-.13,0-.29.05-.46a3.93,3.93,0,0,0,0-.48,1.32,1.32,0,0,0-.39-1.09,2.54,2.54,0,0,0-1.22-.43l-6.57-1v-2.88l7.31,1.12a7,7,0,0,1,2,.55A2.59,2.59,0,0,1,12.51,477,4.44,4.44,0,0,1,12.9,479.07Z" transform="translate(-1.9 -1.65)"/><path class="cls-1" d="M12.9,469.2a4.89,4.89,0,0,1-.68,2.66,3.7,3.7,0,0,1-1.9,1.51,5.83,5.83,0,0,1-2.9.2,7.18,7.18,0,0,1-2.91-1.1,5.84,5.84,0,0,1-2.61-5,4.68,4.68,0,0,1,.69-2.61,3.74,3.74,0,0,1,1.92-1.52,5.88,5.88,0,0,1,2.91-.2,7,7,0,0,1,2.89,1.08,5.79,5.79,0,0,1,1.91,2.09A6,6,0,0,1,12.9,469.2Zm-2.31-.34a2.15,2.15,0,0,0-.3-1.11,2.56,2.56,0,0,0-1-.87,5.52,5.52,0,0,0-1.84-.54,5.4,5.4,0,0,0-1.91,0,1.77,1.77,0,0,0-1,.57,1.62,1.62,0,0,0-.32,1,2.13,2.13,0,0,0,.73,1.59,4.81,4.81,0,0,0,2.53,1,5.09,5.09,0,0,0,1.84,0,1.58,1.58,0,0,0,1-.58A1.65,1.65,0,0,0,10.59,468.86Z" transform="translate(-1.9 -1.65)"/><path class="cls-1" d="M12.9,457.83a5,5,0,0,1-.58,2.65,2.68,2.68,0,0,1-1.6,1.2,5.93,5.93,0,0,1-2.4.07l-6.27-.95v-2.93l6.39,1a2.39,2.39,0,0,0,1.19-.05,1.25,1.25,0,0,0,.65-.53,1.59,1.59,0,0,0,.21-.82A2,2,0,0,0,10,456.2a2.35,2.35,0,0,0-1.58-.76l-6.39-1v-2.92l6.27,1a6.8,6.8,0,0,1,2.4.8,4.11,4.11,0,0,1,1.6,1.7A6,6,0,0,1,12.9,457.83Z" transform="translate(-1.9 -1.65)"/><path class="cls-1" d="M12.75,451.26l-10.7-1.64v-4.85a4.28,4.28,0,0,1,.46-2.18,2.27,2.27,0,0,1,1.24-1,3.74,3.74,0,0,1,1.75-.11,4.44,4.44,0,0,1,1.4.43,3.62,3.62,0,0,1,1,.76,5.06,5.06,0,0,1,.72,1l4.14-1.25v2.95l-3.69,1v1.52l3.69.56Zm-5.83-3.78v-1.66a1.28,1.28,0,0,0-.2-.68,1.94,1.94,0,0,0-.53-.54,1.71,1.71,0,0,0-.66-.27,1.13,1.13,0,0,0-1,.25,1,1,0,0,0-.4.83v1.65Z" transform="translate(-1.9 -1.65)"/><path class="cls-1" d="M12.75,440.67,2.05,439v-2.9l6-3.27-6-.9v-2.9l10.7,1.65v2.6l-6.38,3.5,6.38,1Z" transform="translate(-1.9 -1.65)"/><path class="cls-1" d="M12.75,428.57l-10.7-1.64V419l2.38.37v5l1.78.27V420.5l2.32.35V425l1.82.29v-5l2.4.37Z" transform="translate(-1.9 -1.65)"/><path class="cls-1" d="M12.75,415.81l-4.45-.66L2.05,418v-3.11l3.8-1.54-3.8-2.68v-3.15l6.25,4.78,4.45.68Z" transform="translate(-1.9 -1.65)"/><path class="cls-1" d="M9.54,402.91a2.17,2.17,0,0,1-.3,1.13,2.35,2.35,0,0,1-.82.81,2.16,2.16,0,0,1-2.23,0,2.3,2.3,0,0,1-.8-.81,2.09,2.09,0,0,1-.31-1.13,2.11,2.11,0,0,1,.31-1.13,2.3,2.3,0,0,1,.8-.81,2.16,2.16,0,0,1,2.23,0,2.35,2.35,0,0,1,.82.81A2.2,2.2,0,0,1,9.54,402.91Z" transform="translate(-1.9 -1.65)"/><path class="cls-1" d="M12.9,395.6c0,.31,0,.65,0,1s-.07.68-.11.9l-2.59-.39c0-.14,0-.29.05-.46a3.93,3.93,0,0,0,0-.48,1.32,1.32,0,0,0-.39-1.09,2.54,2.54,0,0,0-1.22-.43l-6.57-1v-2.88l7.31,1.12a7,7,0,0,1,2,.55,2.59,2.59,0,0,1,1.18,1.11A4.41,4.41,0,0,1,12.9,395.6Z" transform="translate(-1.9 -1.65)"/><path class="cls-1" d="M12.9,385.76a4.86,4.86,0,0,1-.68,2.66,3.66,3.66,0,0,1-1.9,1.51,5.83,5.83,0,0,1-2.9.2A7.18,7.18,0,0,1,4.51,389a5.79,5.79,0,0,1-1.92-2.11,5.87,5.87,0,0,1-.69-2.83,4.71,4.71,0,0,1,.69-2.62A3.79,3.79,0,0,1,4.51,380a5.88,5.88,0,0,1,2.91-.2,7,7,0,0,1,2.89,1.08,5.79,5.79,0,0,1,1.91,2.09A6,6,0,0,1,12.9,385.76Zm-2.31-.34a2.09,2.09,0,0,0-.3-1.1,2.5,2.5,0,0,0-1-.88,6,6,0,0,0-1.84-.54,5.4,5.4,0,0,0-1.91,0,1.77,1.77,0,0,0-1,.57,1.62,1.62,0,0,0-.32,1A2.13,2.13,0,0,0,4.94,386a4.81,4.81,0,0,0,2.53,1,5.13,5.13,0,0,0,1.84,0,1.67,1.67,0,0,0,1-.58A1.7,1.7,0,0,0,10.59,385.42Z" transform="translate(-1.9 -1.65)"/><path class="cls-1" d="M12.9,374.38a5,5,0,0,1-.58,2.65,2.61,2.61,0,0,1-1.6,1.2,5.91,5.91,0,0,1-2.4.08l-6.27-1v-2.92l6.39,1a2.49,2.49,0,0,0,1.19-.06,1.16,1.16,0,0,0,.65-.53,1.58,1.58,0,0,0,.21-.81,2,2,0,0,0-.47-1.26A2.38,2.38,0,0,0,8.44,372l-6.39-1v-2.92l6.27.95a6.8,6.8,0,0,1,2.4.81,4.08,4.08,0,0,1,1.6,1.69A6,6,0,0,1,12.9,374.38Z" transform="translate(-1.9 -1.65)"/><path class="cls-1" d="M12.75,367.8l-10.7-1.63v-4.86a4.24,4.24,0,0,1,.46-2.17,2.23,2.23,0,0,1,1.24-1.05A3.6,3.6,0,0,1,5.5,358a4.43,4.43,0,0,1,1.4.44,3.8,3.8,0,0,1,1,.75,5.45,5.45,0,0,1,.72,1l4.14-1.25v3l-3.69,1v1.52l3.69.56ZM6.92,364v-1.65a1.34,1.34,0,0,0-.2-.69,1.79,1.79,0,0,0-.53-.53,1.45,1.45,0,0,0-.66-.27,1.1,1.1,0,0,0-1,.25,1,1,0,0,0-.4.82v1.66Z" transform="translate(-1.9 -1.65)"/><path class="cls-1" d="M12.75,357.23l-10.7-1.64v-2.91l6-3.26-6-.9v-2.9l10.7,1.64v2.6l-6.38,3.51,6.38,1Z" transform="translate(-1.9 -1.65)"/><path class="cls-1" d="M12.75,345.13l-10.7-1.65v-7.89l2.38.37v5l1.78.27v-4.17l2.32.35v4.19l1.82.28v-5l2.4.37Z" transform="translate(-1.9 -1.65)"/><path class="cls-1" d="M12.75,332.34l-4.45-.66-6.25,2.8v-3.1l3.8-1.54-3.8-2.68V324l6.25,4.78,4.45.68Z" transform="translate(-1.9 -1.65)"/><path class="cls-1" d="M9.54,319.48a2.2,2.2,0,0,1-.3,1.13,2.35,2.35,0,0,1-.82.81,2.22,2.22,0,0,1-2.23,0,2.3,2.3,0,0,1-.8-.81,2.21,2.21,0,0,1,0-2.26,2.41,2.41,0,0,1,.8-.82,2.22,2.22,0,0,1,2.23,0,2.47,2.47,0,0,1,.82.82A2.2,2.2,0,0,1,9.54,319.48Z" transform="translate(-1.9 -1.65)"/><path class="cls-1" d="M12.9,312.15c0,.3,0,.64,0,1s-.07.68-.11.9l-2.59-.39c0-.13,0-.28.05-.45a4.1,4.1,0,0,0,0-.49,1.32,1.32,0,0,0-.39-1.08,2.54,2.54,0,0,0-1.22-.44l-6.57-1v-2.87l7.31,1.11a7.39,7.39,0,0,1,2,.55,2.56,2.56,0,0,1,1.18,1.12A4.39,4.39,0,0,1,12.9,312.15Z" transform="translate(-1.9 -1.65)"/><path class="cls-1" d="M12.9,302.3a4.86,4.86,0,0,1-.68,2.66,3.72,3.72,0,0,1-1.9,1.52,6,6,0,0,1-2.9.19,7,7,0,0,1-2.91-1.1,5.84,5.84,0,0,1-2.61-4.94A4.71,4.71,0,0,1,2.59,298a3.72,3.72,0,0,1,1.92-1.51,5.76,5.76,0,0,1,2.91-.21,7,7,0,0,1,2.89,1.08,5.74,5.74,0,0,1,1.91,2.1A5.92,5.92,0,0,1,12.9,302.3ZM10.59,302a2.12,2.12,0,0,0-.3-1.1,2.5,2.5,0,0,0-1-.88,6,6,0,0,0-1.84-.54,5.14,5.14,0,0,0-1.91,0,1.67,1.67,0,0,0-1,.57,1.6,1.6,0,0,0-.32,1,2.11,2.11,0,0,0,.73,1.58,4.73,4.73,0,0,0,2.53,1,4.91,4.91,0,0,0,1.84,0,1.62,1.62,0,0,0,1-.58A1.7,1.7,0,0,0,10.59,302Z" transform="translate(-1.9 -1.65)"/><path class="cls-1" d="M12.9,290.91a5,5,0,0,1-.58,2.65,2.61,2.61,0,0,1-1.6,1.2,6.09,6.09,0,0,1-2.4.08l-6.27-1V291l6.39,1a2.49,2.49,0,0,0,1.19-.06,1.2,1.2,0,0,0,.65-.53,1.58,1.58,0,0,0,.21-.81,2,2,0,0,0-.47-1.26,2.39,2.39,0,0,0-1.58-.76l-6.39-1v-2.92l6.27.95a7,7,0,0,1,2.4.8,4.17,4.17,0,0,1,1.6,1.7A6,6,0,0,1,12.9,290.91Z" transform="translate(-1.9 -1.65)"/><path class="cls-1" d="M12.75,284.37l-10.7-1.63v-4.86a4.24,4.24,0,0,1,.46-2.17,2.23,2.23,0,0,1,1.24-1,3.6,3.6,0,0,1,1.75-.12,4.43,4.43,0,0,1,1.4.44,3.8,3.8,0,0,1,1,.75,5.45,5.45,0,0,1,.72,1l4.14-1.25v2.95l-3.69,1v1.52l3.69.56Zm-5.83-3.78v-1.65a1.34,1.34,0,0,0-.2-.69,1.79,1.79,0,0,0-.53-.53,1.45,1.45,0,0,0-.66-.27,1.1,1.1,0,0,0-1,.25,1,1,0,0,0-.4.82v1.66Z" transform="translate(-1.9 -1.65)"/><path class="cls-1" d="M12.75,273.77l-10.7-1.64v-2.91L8,266l-6-.9v-2.9l10.7,1.65v2.6l-6.38,3.5,6.38,1Z" transform="translate(-1.9 -1.65)"/><path class="cls-1" d="M12.75,261.67,2.05,260v-7.9l2.38.38v5l1.78.27v-4.17l2.32.35v4.19l1.82.28v-5l2.4.37Z" transform="translate(-1.9 -1.65)"/><path class="cls-1" d="M12.75,248.88l-4.45-.66L2.05,251v-3.11l3.8-1.54-3.8-2.67v-3.16l6.25,4.78,4.45.68Z" transform="translate(-1.9 -1.65)"/><path class="cls-1" d="M9.54,236a2.17,2.17,0,0,1-.3,1.13,2.35,2.35,0,0,1-.82.81,2.16,2.16,0,0,1-2.23,0,2.3,2.3,0,0,1-.8-.81A2.09,2.09,0,0,1,5.08,236a2.14,2.14,0,0,1,.31-1.13,2.38,2.38,0,0,1,.8-.81,2.16,2.16,0,0,1,2.23,0,2.44,2.44,0,0,1,.82.81A2.22,2.22,0,0,1,9.54,236Z" transform="translate(-1.9 -1.65)"/><path class="cls-1" d="M12.9,228.71c0,.3,0,.64,0,1s-.07.68-.11.9l-2.59-.39c0-.13,0-.28.05-.45a4.1,4.1,0,0,0,0-.49,1.3,1.3,0,0,0-.39-1.08,2.54,2.54,0,0,0-1.22-.44l-6.57-1v-2.88L9.36,225a7,7,0,0,1,2,.55,2.56,2.56,0,0,1,1.18,1.12A4.39,4.39,0,0,1,12.9,228.71Z" transform="translate(-1.9 -1.65)"/><path class="cls-1" d="M12.9,218.87a4.89,4.89,0,0,1-.68,2.66,3.7,3.7,0,0,1-1.9,1.51,5.84,5.84,0,0,1-2.9.19,7,7,0,0,1-2.91-1.1A5.71,5.71,0,0,1,2.59,220a5.84,5.84,0,0,1-.69-2.83,4.65,4.65,0,0,1,.69-2.61,3.69,3.69,0,0,1,1.92-1.52,5.87,5.87,0,0,1,2.91-.21,7,7,0,0,1,2.89,1.08,5.82,5.82,0,0,1,1.91,2.1A5.93,5.93,0,0,1,12.9,218.87Zm-2.31-.35a2.14,2.14,0,0,0-.3-1.1,2.41,2.41,0,0,0-1-.87A5.52,5.52,0,0,0,7.47,216a5.18,5.18,0,0,0-1.91,0,1.67,1.67,0,0,0-1,.57,1.6,1.6,0,0,0-.32,1,2.11,2.11,0,0,0,.73,1.58,4.65,4.65,0,0,0,2.53,1,4.91,4.91,0,0,0,1.84,0,1.62,1.62,0,0,0,1-.58A1.68,1.68,0,0,0,10.59,218.52Z" transform="translate(-1.9 -1.65)"/><path class="cls-1" d="M12.9,207.49a5,5,0,0,1-.58,2.65,2.68,2.68,0,0,1-1.6,1.2,5.93,5.93,0,0,1-2.4.07l-6.27-.95v-2.93l6.39,1a2.26,2.26,0,0,0,1.19-.06,1.19,1.19,0,0,0,.65-.52,1.59,1.59,0,0,0,.21-.82,2,2,0,0,0-.47-1.25,2.35,2.35,0,0,0-1.58-.76l-6.39-1v-2.92l6.27,1a6.8,6.8,0,0,1,2.4.8,4.11,4.11,0,0,1,1.6,1.7A6,6,0,0,1,12.9,207.49Z" transform="translate(-1.9 -1.65)"/><path class="cls-1" d="M12.75,200.91l-10.7-1.63v-4.86a4.27,4.27,0,0,1,.46-2.17,2.27,2.27,0,0,1,1.24-1.05,3.74,3.74,0,0,1,1.75-.11,4.44,4.44,0,0,1,1.4.43,3.8,3.8,0,0,1,1,.75,5.45,5.45,0,0,1,.72,1L12.75,192v3l-3.69,1v1.52l3.69.56Zm-5.83-3.77v-1.66a1.28,1.28,0,0,0-.2-.68A1.82,1.82,0,0,0,5.53,194a1.13,1.13,0,0,0-1,.25,1,1,0,0,0-.4.83v1.65Z" transform="translate(-1.9 -1.65)"/><path class="cls-1" d="M12.75,190.3l-10.7-1.64v-2.91l6-3.26-6-.9v-2.9l10.7,1.65v2.6l-6.38,3.5,6.38,1Z" transform="translate(-1.9 -1.65)"/><path class="cls-1" d="M12.75,178.21l-10.7-1.65v-7.9l2.38.37v5l1.78.27v-4.17l2.32.35v4.19l1.82.28v-5l2.4.38Z" transform="translate(-1.9 -1.65)"/><path class="cls-1" d="M12.75,165.45l-4.45-.66L2.05,167.6v-3.11L5.85,163l-3.8-2.68v-3.15L8.3,161.9l4.45.68Z" transform="translate(-1.9 -1.65)"/><path class="cls-1" d="M9.54,152.55a2.2,2.2,0,0,1-.3,1.13,2.35,2.35,0,0,1-.82.81,2.22,2.22,0,0,1-2.23,0,2.3,2.3,0,0,1-.8-.81,2.21,2.21,0,0,1,0-2.26,2.41,2.41,0,0,1,.8-.82,2.22,2.22,0,0,1,2.23,0,2.47,2.47,0,0,1,.82.82A2.2,2.2,0,0,1,9.54,152.55Z" transform="translate(-1.9 -1.65)"/><path class="cls-1" d="M12.9,145.25c0,.3,0,.65,0,1a8.92,8.92,0,0,1-.11.89l-2.59-.38c0-.14,0-.29.05-.46a4,4,0,0,0,0-.48,1.32,1.32,0,0,0-.39-1.09,2.54,2.54,0,0,0-1.22-.43l-6.57-1v-2.87l7.31,1.12a6.72,6.72,0,0,1,2,.55,2.59,2.59,0,0,1,1.18,1.11A4.41,4.41,0,0,1,12.9,145.25Z" transform="translate(-1.9 -1.65)"/><path class="cls-1" d="M12.9,135.4a4.86,4.86,0,0,1-.68,2.66,3.72,3.72,0,0,1-1.9,1.52,5.84,5.84,0,0,1-2.9.19,7,7,0,0,1-2.91-1.1,5.84,5.84,0,0,1-2.61-4.94,4.71,4.71,0,0,1,.69-2.62,3.72,3.72,0,0,1,1.92-1.51,5.76,5.76,0,0,1,2.91-.21,7,7,0,0,1,2.89,1.08,5.74,5.74,0,0,1,1.91,2.1A5.92,5.92,0,0,1,12.9,135.4Zm-2.31-.34a2.12,2.12,0,0,0-.3-1.1,2.5,2.5,0,0,0-1-.88,6,6,0,0,0-1.84-.54,5.14,5.14,0,0,0-1.91,0,1.67,1.67,0,0,0-1,.57,1.6,1.6,0,0,0-.32,1,2.11,2.11,0,0,0,.73,1.58,4.73,4.73,0,0,0,2.53,1,4.91,4.91,0,0,0,1.84,0,1.62,1.62,0,0,0,1-.58A1.7,1.7,0,0,0,10.59,135.06Z" transform="translate(-1.9 -1.65)"/><path class="cls-1" d="M12.9,124a5,5,0,0,1-.58,2.65,2.61,2.61,0,0,1-1.6,1.2,5.91,5.91,0,0,1-2.4.08l-6.27-1v-2.92l6.39,1A2.49,2.49,0,0,0,9.63,125a1.16,1.16,0,0,0,.65-.53,1.58,1.58,0,0,0,.21-.81,2,2,0,0,0-.47-1.26,2.38,2.38,0,0,0-1.58-.75l-6.39-1v-2.92l6.27,1a6.8,6.8,0,0,1,2.4.81,4.08,4.08,0,0,1,1.6,1.69A6,6,0,0,1,12.9,124Z" transform="translate(-1.9 -1.65)"/><path class="cls-1" d="M12.75,117.45l-10.7-1.63V111a4.31,4.31,0,0,1,.46-2.18,2.21,2.21,0,0,1,1.24-1,3.6,3.6,0,0,1,1.75-.12,4.43,4.43,0,0,1,1.4.44,3.59,3.59,0,0,1,1,.75,5.45,5.45,0,0,1,.72,1l4.14-1.25v3l-3.69,1V114l3.69.56Zm-5.83-3.78V112a1.32,1.32,0,0,0-.2-.69,1.79,1.79,0,0,0-.53-.53,1.45,1.45,0,0,0-.66-.27,1.1,1.1,0,0,0-1,.25,1,1,0,0,0-.4.82v1.65Z" transform="translate(-1.9 -1.65)"/><path class="cls-1" d="M12.75,106.86l-10.7-1.65v-2.9L8,99l-6-.9v-2.9l10.7,1.65v2.6L6.37,103l6.38,1Z" transform="translate(-1.9 -1.65)"/><path class="cls-1" d="M12.75,94.75,2.05,93.11v-7.9l2.38.37v5l1.78.27V86.68L8.53,87v4.18l1.82.29v-5l2.4.37Z" transform="translate(-1.9 -1.65)"/><path class="cls-1" d="M12.75,82,8.3,81.31,2.05,84.12V81l3.8-1.54-3.8-2.68V73.64L8.3,78.42l4.45.68Z" transform="translate(-1.9 -1.65)"/><path class="cls-1" d="M9.54,69.09a2.16,2.16,0,0,1-.3,1.12,2.3,2.3,0,0,1-.82.82,2.22,2.22,0,0,1-2.23,0,2.25,2.25,0,0,1-.8-.82,2.2,2.2,0,0,1,0-2.25,2.41,2.41,0,0,1,.8-.82,2.22,2.22,0,0,1,2.23,0,2.47,2.47,0,0,1,.82.82A2.17,2.17,0,0,1,9.54,69.09Z" transform="translate(-1.9 -1.65)"/><path class="cls-1" d="M12.9,61.8c0,.3,0,.64,0,1s-.07.68-.11.9l-2.59-.39c0-.13,0-.28.05-.45a4,4,0,0,0,0-.48,1.32,1.32,0,0,0-.39-1.09,2.44,2.44,0,0,0-1.22-.43l-6.57-1V57L9.36,58.1a7.39,7.39,0,0,1,2,.55,2.56,2.56,0,0,1,1.18,1.12A4.39,4.39,0,0,1,12.9,61.8Z" transform="translate(-1.9 -1.65)"/><path class="cls-1" d="M12.9,51.86a4.89,4.89,0,0,1-.68,2.66A3.7,3.7,0,0,1,10.32,56a5.84,5.84,0,0,1-2.9.19,7,7,0,0,1-2.91-1.1A5.71,5.71,0,0,1,2.59,53a5.84,5.84,0,0,1-.69-2.83,4.65,4.65,0,0,1,.69-2.61,3.74,3.74,0,0,1,1.92-1.52,5.87,5.87,0,0,1,2.91-.21,7,7,0,0,1,2.89,1.08A5.82,5.82,0,0,1,12.22,49,5.93,5.93,0,0,1,12.9,51.86Zm-2.31-.35a2.14,2.14,0,0,0-.3-1.1,2.41,2.41,0,0,0-1-.87A5.52,5.52,0,0,0,7.47,49a5.18,5.18,0,0,0-1.91,0,1.67,1.67,0,0,0-1,.57,1.6,1.6,0,0,0-.32,1,2.11,2.11,0,0,0,.73,1.58,4.65,4.65,0,0,0,2.53,1,4.91,4.91,0,0,0,1.84,0,1.62,1.62,0,0,0,1-.58A1.68,1.68,0,0,0,10.59,51.51Z" transform="translate(-1.9 -1.65)"/><path class="cls-1" d="M13.83,41.64a5,5,0,0,1-1.14,2.47,2.63,2.63,0,0,1-1.83.82,5.71,5.71,0,0,1-2.35-.44L2.59,42.21l.63-2.86,6,2.34a2.49,2.49,0,0,0,1.18.2,1.29,1.29,0,0,0,.75-.38,1.66,1.66,0,0,0,.37-.75,2,2,0,0,0-.19-1.33A2.29,2.29,0,0,0,10,38.36L4,36l.63-2.85,5.92,2.28a6.92,6.92,0,0,1,2.17,1.3,4.23,4.23,0,0,1,1.2,2A6.11,6.11,0,0,1,13.83,41.64Z" transform="translate(-1.9 -1.65)"/><path class="cls-1" d="M14.88,36.2,6,30.09l2.11-4.38A4.29,4.29,0,0,1,9.41,24,2.28,2.28,0,0,1,11,23.54a3.7,3.7,0,0,1,1.63.66,4.16,4.16,0,0,1,1.07,1,3.66,3.66,0,0,1,.57,1.11,5.2,5.2,0,0,1,.22,1.2l4.27.67-1.28,2.66-3.75-.71-.66,1.37,3.08,2.1Zm-3.61-5.93L12,28.78a1.24,1.24,0,0,0,.12-.71,1.81,1.81,0,0,0-.24-.71,1.64,1.64,0,0,0-.48-.53,1.14,1.14,0,0,0-1-.19,1.06,1.06,0,0,0-.71.57L9,28.7Z" transform="translate(-1.9 -1.65)"/><path class="cls-1" d="M18.84,27.62l-7-8.25,1.9-2.2,6.65,1.44L16.46,14l1.9-2.19,7,8.25-1.71,2-7.11-1.53,4.19,4.91Z" transform="translate(-1.9 -1.65)"/><path class="cls-1" d="M26,19.47,21.67,9.55l6.67-4.23,1,2.21-4.22,2.68.73,1.64,3.52-2.23,1,2.15L26.74,14l.74,1.69L31.73,13l1,2.22Z" transform="translate(-1.9 -1.65)"/><path class="cls-1" d="M35.94,14.05l-.43-4.49L31.27,4.18l3-.75L36.7,6.75l1.68-4.34,3.06-.76L38.31,8.86l.41,4.49Z" transform="translate(-1.9 -1.65)"/><path class="cls-1" d="M47.57,9.54a2.11,2.11,0,0,1-1.13-.31,2.25,2.25,0,0,1-.81-.81,2.22,2.22,0,0,1,0-2.23,2.3,2.3,0,0,1,.81-.8,2.21,2.21,0,0,1,2.26,0,2.41,2.41,0,0,1,.82.8,2.22,2.22,0,0,1,0,2.23,2.35,2.35,0,0,1-.82.81A2.11,2.11,0,0,1,47.57,9.54Z" transform="translate(-1.9 -1.65)"/><path class="cls-1" d="M54.89,12.9c-.31,0-.65,0-1,0s-.68-.07-.9-.11l.39-2.59.46.05a3.93,3.93,0,0,0,.48,0,1.32,1.32,0,0,0,1.09-.39,2.54,2.54,0,0,0,.43-1.22l1-6.57H59.7L58.58,9.36a7,7,0,0,1-.55,2,2.59,2.59,0,0,1-1.11,1.18A4.44,4.44,0,0,1,54.89,12.9Z" transform="translate(-1.9 -1.65)"/><path class="cls-1" d="M64.74,12.9a4.86,4.86,0,0,1-2.66-.68,3.66,3.66,0,0,1-1.51-1.9,5.83,5.83,0,0,1-.2-2.9,7.18,7.18,0,0,1,1.1-2.91,5.79,5.79,0,0,1,2.11-1.92,5.87,5.87,0,0,1,2.83-.69A4.71,4.71,0,0,1,69,2.59a3.79,3.79,0,0,1,1.52,1.92,5.88,5.88,0,0,1,.2,2.91,7,7,0,0,1-1.08,2.89,5.79,5.79,0,0,1-2.09,1.91A6,6,0,0,1,64.74,12.9Zm.34-2.31a2.09,2.09,0,0,0,1.1-.3,2.5,2.5,0,0,0,.88-1,6,6,0,0,0,.54-1.84,5.4,5.4,0,0,0,0-1.91,1.77,1.77,0,0,0-.57-1,1.62,1.62,0,0,0-1-.32,2.11,2.11,0,0,0-1.58.73,4.81,4.81,0,0,0-1,2.53,5.13,5.13,0,0,0,0,1.84,1.67,1.67,0,0,0,.58,1A1.7,1.7,0,0,0,65.08,10.59Z" transform="translate(-1.9 -1.65)"/><path class="cls-1" d="M76.12,12.9a5,5,0,0,1-2.65-.58,2.6,2.6,0,0,1-1.2-1.61,5.85,5.85,0,0,1-.08-2.39l1-6.27h2.92l-1,6.39a2.49,2.49,0,0,0,.06,1.19,1.16,1.16,0,0,0,.53.65,1.58,1.58,0,0,0,.81.21A2,2,0,0,0,77.75,10a2.38,2.38,0,0,0,.75-1.58l1-6.39h2.92l-1,6.27a6.68,6.68,0,0,1-.81,2.39,4,4,0,0,1-1.69,1.61A6,6,0,0,1,76.12,12.9Z" transform="translate(-1.9 -1.65)"/><path class="cls-1" d="M82.69,12.75l1.63-10.7h4.86a4.28,4.28,0,0,1,2.18.46,2.21,2.21,0,0,1,1,1.24,3.6,3.6,0,0,1,.12,1.75,4.19,4.19,0,0,1-.44,1.4,3.41,3.41,0,0,1-.75,1,4.84,4.84,0,0,1-1,.72l1.26,4.14H88.65l-1-3.68H86.13l-.55,3.68Zm3.78-5.83h1.65a1.29,1.29,0,0,0,.69-.2,1.94,1.94,0,0,0,.54-.53,1.55,1.55,0,0,0,.26-.66,1.1,1.1,0,0,0-.25-1,1,1,0,0,0-.82-.4H86.89Z" transform="translate(-1.9 -1.65)"/><path class="cls-1" d="M93.26,12.75l1.65-10.7h2.9l3.27,6,.9-6h2.9l-1.65,10.7h-2.6l-3.5-6.38-1,6.38Z" transform="translate(-1.9 -1.65)"/><path class="cls-1" d="M105.39,12.75,107,2.05h7.9l-.37,2.38h-5l-.27,1.78h4.16l-.35,2.32h-4.18l-.29,1.82h5l-.37,2.4Z" transform="translate(-1.9 -1.65)"/><path class="cls-1" d="M118.15,12.75l.66-4.45L116,2.05h3.1l1.54,3.8,2.68-3.8h3.15L121.7,8.3,121,12.75Z" transform="translate(-1.9 -1.65)"/><path class="cls-1" d="M131,9.54a2.09,2.09,0,0,1-1.13-.31,2.35,2.35,0,0,1-.82-.81,2.22,2.22,0,0,1,0-2.23,2.41,2.41,0,0,1,.82-.8,2.2,2.2,0,0,1,2.25,0,2.33,2.33,0,0,1,.82.8,2.16,2.16,0,0,1,0,2.23,2.27,2.27,0,0,1-.82.81A2.08,2.08,0,0,1,131,9.54Z" transform="translate(-1.9 -1.65)"/><path class="cls-1" d="M138.33,12.9c-.3,0-.64,0-1,0s-.68-.07-.9-.11l.39-2.59.45.05a4.1,4.1,0,0,0,.49,0,1.32,1.32,0,0,0,1.09-.39,2.65,2.65,0,0,0,.43-1.22l1-6.57h2.88L142,9.36a7,7,0,0,1-.55,2,2.59,2.59,0,0,1-1.11,1.18A4.46,4.46,0,0,1,138.33,12.9Z" transform="translate(-1.9 -1.65)"/><path class="cls-1" d="M148.18,12.9a4.89,4.89,0,0,1-2.66-.68,3.7,3.7,0,0,1-1.51-1.9,5.84,5.84,0,0,1-.19-2.9,7,7,0,0,1,1.1-2.91,5.84,5.84,0,0,1,4.94-2.61,4.71,4.71,0,0,1,2.62.69A3.72,3.72,0,0,1,154,4.51a5.76,5.76,0,0,1,.21,2.91,7,7,0,0,1-1.08,2.89,5.82,5.82,0,0,1-2.1,1.91A5.93,5.93,0,0,1,148.18,12.9Zm.35-2.31a2.14,2.14,0,0,0,1.1-.3,2.41,2.41,0,0,0,.87-1,5.74,5.74,0,0,0,.55-1.84,5.36,5.36,0,0,0,0-1.91,1.67,1.67,0,0,0-.57-1,1.6,1.6,0,0,0-1-.32,2.11,2.11,0,0,0-1.58.73,4.73,4.73,0,0,0-1,2.53,4.91,4.91,0,0,0,0,1.84,1.62,1.62,0,0,0,.58,1A1.68,1.68,0,0,0,148.53,10.59Z" transform="translate(-1.9 -1.65)"/><path class="cls-1" d="M159.56,12.9a5,5,0,0,1-2.66-.58,2.67,2.67,0,0,1-1.2-1.61,5.87,5.87,0,0,1-.07-2.39l1-6.27h2.93l-1,6.39a2.26,2.26,0,0,0,.06,1.19,1.16,1.16,0,0,0,.53.65,1.53,1.53,0,0,0,.81.21,2,2,0,0,0,1.25-.47,2.35,2.35,0,0,0,.76-1.58l1-6.39h2.92l-1,6.27a6.68,6.68,0,0,1-.81,2.39,4.1,4.1,0,0,1-1.69,1.61A6,6,0,0,1,159.56,12.9Z" transform="translate(-1.9 -1.65)"/><path class="cls-1" d="M166.14,12.75l1.64-10.7h4.85a4.28,4.28,0,0,1,2.18.46,2.27,2.27,0,0,1,1.05,1.24A3.74,3.74,0,0,1,176,5.5a4.44,4.44,0,0,1-.43,1.4,3.62,3.62,0,0,1-.76,1,5.06,5.06,0,0,1-1,.72l1.25,4.14h-3l-1-3.68h-1.52L169,12.75Zm3.78-5.83h1.66a1.28,1.28,0,0,0,.68-.2,1.82,1.82,0,0,0,.54-.53,1.71,1.71,0,0,0,.27-.66,1.13,1.13,0,0,0-.25-1,1,1,0,0,0-.83-.4h-1.65Z" transform="translate(-1.9 -1.65)"/><path class="cls-1" d="M176.73,12.75l1.65-10.7h2.9l3.27,6,.9-6h2.9l-1.65,10.7h-2.6l-3.5-6.38-1,6.38Z" transform="translate(-1.9 -1.65)"/><path class="cls-1" d="M188.83,12.75l1.64-10.7h7.9L198,4.43h-5l-.27,1.78h4.16l-.35,2.32h-4.18l-.29,1.82h5l-.37,2.4Z" transform="translate(-1.9 -1.65)"/><path class="cls-1" d="M201.61,12.75l.66-4.45-2.8-6.25h3.1l1.54,3.8,2.68-3.8h3.15L205.17,8.3l-.69,4.45Z" transform="translate(-1.9 -1.65)"/><path class="cls-1" d="M214.49,9.54a2.11,2.11,0,0,1-1.13-.31,2.25,2.25,0,0,1-.81-.81,2.22,2.22,0,0,1,0-2.23,2.3,2.3,0,0,1,.81-.8,2.21,2.21,0,0,1,2.26,0,2.3,2.3,0,0,1,.81.8,2.16,2.16,0,0,1,0,2.23,2.25,2.25,0,0,1-.81.81A2.11,2.11,0,0,1,214.49,9.54Z" transform="translate(-1.9 -1.65)"/><path class="cls-1" d="M221.78,12.9c-.3,0-.64,0-1,0s-.68-.07-.9-.11l.39-2.59.45.05a4.1,4.1,0,0,0,.49,0,1.3,1.3,0,0,0,1.08-.39,2.54,2.54,0,0,0,.44-1.22l1-6.57h2.88l-1.12,7.31a7.39,7.39,0,0,1-.55,2,2.56,2.56,0,0,1-1.12,1.18A4.39,4.39,0,0,1,221.78,12.9Z" transform="translate(-1.9 -1.65)"/><path class="cls-1" d="M231.63,12.9a4.89,4.89,0,0,1-2.66-.68,3.7,3.7,0,0,1-1.51-1.9,5.84,5.84,0,0,1-.19-2.9,7,7,0,0,1,1.1-2.91,5.84,5.84,0,0,1,4.94-2.61,4.71,4.71,0,0,1,2.62.69,3.72,3.72,0,0,1,1.51,1.92,5.76,5.76,0,0,1,.21,2.91,7,7,0,0,1-1.08,2.89,5.82,5.82,0,0,1-2.1,1.91A5.93,5.93,0,0,1,231.63,12.9Zm.35-2.31a2.14,2.14,0,0,0,1.1-.3,2.41,2.41,0,0,0,.87-1,5.52,5.52,0,0,0,.54-1.84,5.18,5.18,0,0,0,0-1.91,1.67,1.67,0,0,0-.57-1,1.6,1.6,0,0,0-1-.32,2.11,2.11,0,0,0-1.58.73,4.73,4.73,0,0,0-1,2.53,4.91,4.91,0,0,0,0,1.84,1.62,1.62,0,0,0,.58,1A1.68,1.68,0,0,0,232,10.59Z" transform="translate(-1.9 -1.65)"/><path class="cls-1" d="M243,12.9a5,5,0,0,1-2.66-.58,2.62,2.62,0,0,1-1.19-1.61,5.85,5.85,0,0,1-.08-2.39l.95-6.27H243l-1,6.39a2.26,2.26,0,0,0,.06,1.19,1.16,1.16,0,0,0,.53.65,1.58,1.58,0,0,0,.81.21,2,2,0,0,0,1.26-.47,2.38,2.38,0,0,0,.75-1.58l1-6.39h2.92l-.95,6.27a6.68,6.68,0,0,1-.81,2.39,4.1,4.1,0,0,1-1.69,1.61A6,6,0,0,1,243,12.9Z" transform="translate(-1.9 -1.65)"/><path class="cls-1" d="M249.6,12.75l1.63-10.7h4.86a4.27,4.27,0,0,1,2.17.46,2.27,2.27,0,0,1,1.05,1.24,3.74,3.74,0,0,1,.11,1.75A4.44,4.44,0,0,1,259,6.9a3.8,3.8,0,0,1-.75,1,5.45,5.45,0,0,1-1,.72l1.25,4.14h-2.95l-1-3.68H253l-.56,3.68Zm3.77-5.83H255a1.28,1.28,0,0,0,.68-.2,1.82,1.82,0,0,0,.81-1.19,1.13,1.13,0,0,0-.25-1,1,1,0,0,0-.83-.4h-1.65Z" transform="translate(-1.9 -1.65)"/><path class="cls-1" d="M260.16,12.75l1.65-10.7h2.9L268,8l.9-6h2.9l-1.65,10.7h-2.6L264,6.37l-1,6.38Z" transform="translate(-1.9 -1.65)"/><path class="cls-1" d="M272.3,12.75l1.64-10.7h7.9l-.37,2.38h-5l-.26,1.78h4.16L280,8.53h-4.19l-.28,1.82h5l-.37,2.4Z" transform="translate(-1.9 -1.65)"/><path class="cls-1" d="M285.06,12.75l.66-4.45-2.81-6.25H286l1.54,3.8,2.68-3.8h3.15L288.61,8.3l-.68,4.45Z" transform="translate(-1.9 -1.65)"/><path class="cls-1" d="M297.94,9.54a2.09,2.09,0,0,1-1.13-.31,2.35,2.35,0,0,1-.82-.81,2.22,2.22,0,0,1,0-2.23,2.41,2.41,0,0,1,.82-.8,2.2,2.2,0,0,1,2.25,0,2.33,2.33,0,0,1,.82.8,2.16,2.16,0,0,1,0,2.23,2.27,2.27,0,0,1-.82.81A2.08,2.08,0,0,1,297.94,9.54Z" transform="translate(-1.9 -1.65)"/><path class="cls-1" d="M305.25,12.9c-.31,0-.65,0-1,0s-.68-.07-.9-.11l.39-2.59.46.05a4,4,0,0,0,.48,0,1.32,1.32,0,0,0,1.09-.39,2.54,2.54,0,0,0,.43-1.22l1-6.57h2.88l-1.12,7.31a7,7,0,0,1-.55,2,2.59,2.59,0,0,1-1.11,1.18A4.41,4.41,0,0,1,305.25,12.9Z" transform="translate(-1.9 -1.65)"/><path class="cls-1" d="M315.09,12.9a4.86,4.86,0,0,1-2.66-.68,3.66,3.66,0,0,1-1.51-1.9,5.83,5.83,0,0,1-.2-2.9,7.18,7.18,0,0,1,1.1-2.91,5.79,5.79,0,0,1,2.11-1.92,5.87,5.87,0,0,1,2.83-.69,4.71,4.71,0,0,1,2.62.69,3.79,3.79,0,0,1,1.52,1.92,5.88,5.88,0,0,1,.2,2.91A7,7,0,0,1,320,10.31a5.79,5.79,0,0,1-2.09,1.91A6,6,0,0,1,315.09,12.9Zm.34-2.31a2.09,2.09,0,0,0,1.1-.3,2.5,2.5,0,0,0,.88-1A6,6,0,0,0,318,7.47a5.4,5.4,0,0,0,0-1.91,1.77,1.77,0,0,0-.57-1,1.62,1.62,0,0,0-1-.32,2.13,2.13,0,0,0-1.58.73,4.81,4.81,0,0,0-1,2.53,5.13,5.13,0,0,0,0,1.84,1.67,1.67,0,0,0,.58,1A1.7,1.7,0,0,0,315.43,10.59Z" transform="translate(-1.9 -1.65)"/><path class="cls-1" d="M326.48,12.9a5,5,0,0,1-2.66-.58,2.67,2.67,0,0,1-1.2-1.61,5.87,5.87,0,0,1-.07-2.39l.95-6.27h2.93l-1,6.39a2.26,2.26,0,0,0,.06,1.19,1.16,1.16,0,0,0,.53.65,1.55,1.55,0,0,0,.81.21A2,2,0,0,0,328.1,10a2.35,2.35,0,0,0,.76-1.58l1-6.39h2.92l-.95,6.27a6.68,6.68,0,0,1-.81,2.39,4.1,4.1,0,0,1-1.69,1.61A6,6,0,0,1,326.48,12.9Z" transform="translate(-1.9 -1.65)"/><path class="cls-1" d="M333,12.75l1.63-10.7h4.86a4.28,4.28,0,0,1,2.18.46,2.21,2.21,0,0,1,1,1.24,3.6,3.6,0,0,1,.12,1.75,4.19,4.19,0,0,1-.44,1.4,3.41,3.41,0,0,1-.75,1,4.84,4.84,0,0,1-1,.72L342,12.75H339l-1-3.68h-1.52l-.55,3.68Zm3.78-5.83h1.65a1.29,1.29,0,0,0,.69-.2,1.94,1.94,0,0,0,.54-.53,1.55,1.55,0,0,0,.26-.66,1.1,1.1,0,0,0-.25-1,1,1,0,0,0-.82-.4h-1.65Z" transform="translate(-1.9 -1.65)"/><path class="cls-1" d="M343.62,12.75l1.65-10.7h2.91l3.26,6,.9-6h2.9l-1.65,10.7H351l-3.5-6.38-1,6.38Z" transform="translate(-1.9 -1.65)"/><path class="cls-1" d="M355.74,12.75l1.65-10.7h7.9l-.38,2.38h-5l-.27,1.78h4.17l-.35,2.32h-4.19L359,10.35h5l-.37,2.4Z" transform="translate(-1.9 -1.65)"/><path class="cls-1" d="M368.51,12.75l.66-4.45-2.81-6.25h3.11L371,5.85l2.68-3.8h3.15L372.06,8.3l-.68,4.45Z" transform="translate(-1.9 -1.65)"/><path class="cls-1" d="M381.4,9.54a2.09,2.09,0,0,1-1.13-.31,2.25,2.25,0,0,1-.81-.81,2.16,2.16,0,0,1,0-2.23,2.3,2.3,0,0,1,.81-.8,2.2,2.2,0,0,1,2.25,0,2.25,2.25,0,0,1,.82.8,2.16,2.16,0,0,1,0,2.23,2.2,2.2,0,0,1-.82.81A2.08,2.08,0,0,1,381.4,9.54Z" transform="translate(-1.9 -1.65)"/><path class="cls-1" d="M388.68,12.9c-.3,0-.64,0-1,0s-.68-.07-.9-.11l.39-2.59.45.05a4.1,4.1,0,0,0,.49,0,1.3,1.3,0,0,0,1.08-.39,2.54,2.54,0,0,0,.44-1.22l1-6.57h2.88l-1.12,7.31a7,7,0,0,1-.55,2,2.56,2.56,0,0,1-1.12,1.18A4.39,4.39,0,0,1,388.68,12.9Z" transform="translate(-1.9 -1.65)"/><path class="cls-1" d="M398.56,12.9a4.89,4.89,0,0,1-2.66-.68,3.7,3.7,0,0,1-1.51-1.9,5.84,5.84,0,0,1-.19-2.9,7.17,7.17,0,0,1,1.09-2.91,5.87,5.87,0,0,1,4.95-2.61,4.65,4.65,0,0,1,2.61.69,3.74,3.74,0,0,1,1.52,1.92,5.88,5.88,0,0,1,.2,2.91,6.75,6.75,0,0,1-1.08,2.89,5.79,5.79,0,0,1-2.09,1.91A5.93,5.93,0,0,1,398.56,12.9Zm.34-2.31a2.15,2.15,0,0,0,1.11-.3,2.49,2.49,0,0,0,.87-1,5.52,5.52,0,0,0,.54-1.84,5.4,5.4,0,0,0,0-1.91,1.67,1.67,0,0,0-.57-1,1.62,1.62,0,0,0-1-.32,2.15,2.15,0,0,0-1.59.73,4.81,4.81,0,0,0-1,2.53,5.09,5.09,0,0,0,0,1.84,1.62,1.62,0,0,0,.58,1A1.67,1.67,0,0,0,398.9,10.59Z" transform="translate(-1.9 -1.65)"/><path class="cls-1" d="M409.92,12.9a5,5,0,0,1-2.65-.58,2.6,2.6,0,0,1-1.2-1.61A5.85,5.85,0,0,1,406,8.32l1-6.27h2.93l-1,6.39A2.49,2.49,0,0,0,409,9.63a1.2,1.2,0,0,0,.53.65,1.58,1.58,0,0,0,.81.21,2,2,0,0,0,1.26-.47,2.38,2.38,0,0,0,.75-1.58l1-6.39h2.92l-.95,6.27a6.68,6.68,0,0,1-.81,2.39,4,4,0,0,1-1.69,1.61A6,6,0,0,1,409.92,12.9Z" transform="translate(-1.9 -1.65)"/><path class="cls-1" d="M416.5,12.75l1.63-10.7H423a4.24,4.24,0,0,1,2.17.46,2.27,2.27,0,0,1,1,1.24,3.74,3.74,0,0,1,.11,1.75,4.44,4.44,0,0,1-.43,1.4,3.8,3.8,0,0,1-.75,1,5.45,5.45,0,0,1-1,.72l1.25,4.14h-2.95l-1-3.68h-1.52l-.56,3.68Zm3.77-5.83h1.66a1.28,1.28,0,0,0,.68-.2,1.82,1.82,0,0,0,.81-1.19,1.13,1.13,0,0,0-.25-1,1,1,0,0,0-.82-.4h-1.66Z" transform="translate(-1.9 -1.65)"/><path class="cls-1" d="M427.08,12.75l1.64-10.7h2.91l3.26,6,.9-6h2.9L437,12.75h-2.6l-3.5-6.38-1,6.38Z" transform="translate(-1.9 -1.65)"/><path class="cls-1" d="M439.19,12.75l1.65-10.7h7.89l-.37,2.38h-5l-.27,1.78h4.17l-.35,2.32h-4.19l-.28,1.82h5l-.37,2.4Z" transform="translate(-1.9 -1.65)"/><path class="cls-1" d="M452,12.75l.66-4.45L449.8,2.05h3.11l1.54,3.8,2.67-3.8h3.16L455.5,8.3l-.69,4.45Z" transform="translate(-1.9 -1.65)"/><path class="cls-1" d="M464.83,9.54a2.08,2.08,0,0,1-1.12-.31,2.27,2.27,0,0,1-.82-.81,2.22,2.22,0,0,1,0-2.23,2.33,2.33,0,0,1,.82-.8,2.2,2.2,0,0,1,2.25,0,2.33,2.33,0,0,1,.82.8,2.22,2.22,0,0,1,0,2.23,2.27,2.27,0,0,1-.82.81A2.09,2.09,0,0,1,464.83,9.54Z" transform="translate(-1.9 -1.65)"/><path class="cls-1" d="M472.14,12.9c-.3,0-.64,0-1,0s-.68-.07-.9-.11l.39-2.59.45.05a4,4,0,0,0,.48,0,1.32,1.32,0,0,0,1.09-.39,2.54,2.54,0,0,0,.43-1.22l1-6.57H477l-1.11,7.31a7,7,0,0,1-.56,2,2.49,2.49,0,0,1-1.11,1.18A4.39,4.39,0,0,1,472.14,12.9Z" transform="translate(-1.9 -1.65)"/><path class="cls-1" d="M482,12.9a4.89,4.89,0,0,1-2.66-.68,3.7,3.7,0,0,1-1.51-1.9,5.84,5.84,0,0,1-.19-2.9,7,7,0,0,1,1.1-2.91,5.84,5.84,0,0,1,4.94-2.61,4.71,4.71,0,0,1,2.62.69,3.72,3.72,0,0,1,1.51,1.92A5.76,5.76,0,0,1,488,7.42a7,7,0,0,1-1.08,2.89,5.82,5.82,0,0,1-2.1,1.91A5.93,5.93,0,0,1,482,12.9Zm.35-2.31a2.14,2.14,0,0,0,1.1-.3,2.41,2.41,0,0,0,.87-1,5.74,5.74,0,0,0,.55-1.84,5.36,5.36,0,0,0,0-1.91,1.67,1.67,0,0,0-.57-1,1.6,1.6,0,0,0-1-.32,2.11,2.11,0,0,0-1.58.73,4.73,4.73,0,0,0-1,2.53,4.91,4.91,0,0,0,0,1.84,1.62,1.62,0,0,0,.58,1A1.68,1.68,0,0,0,482.34,10.59Z" transform="translate(-1.9 -1.65)"/><path class="cls-1" d="M493.39,12.9a5,5,0,0,1-2.65-.58,2.6,2.6,0,0,1-1.2-1.61,5.85,5.85,0,0,1-.08-2.39l1-6.27h2.92l-1,6.39a2.49,2.49,0,0,0,.06,1.19,1.16,1.16,0,0,0,.53.65,1.58,1.58,0,0,0,.81.21A2,2,0,0,0,495,10a2.38,2.38,0,0,0,.75-1.58l1-6.39h2.92l-1,6.27a6.68,6.68,0,0,1-.81,2.39,4,4,0,0,1-1.69,1.61A6,6,0,0,1,493.39,12.9Z" transform="translate(-1.9 -1.65)"/><path class="cls-1" d="M500,12.75l1.63-10.7h4.86a4.28,4.28,0,0,1,2.18.46,2.21,2.21,0,0,1,1,1.24,3.6,3.6,0,0,1,.12,1.75,4.19,4.19,0,0,1-.44,1.4,3.41,3.41,0,0,1-.75,1,4.84,4.84,0,0,1-1,.72l1.26,4.14h-2.95l-1-3.68H503.4l-.56,3.68Zm3.78-5.83h1.65a1.29,1.29,0,0,0,.69-.2,1.94,1.94,0,0,0,.54-.53,1.55,1.55,0,0,0,.26-.66,1.13,1.13,0,0,0-.24-1,1.05,1.05,0,0,0-.83-.4h-1.65Z" transform="translate(-1.9 -1.65)"/><path class="cls-1" d="M510.54,12.75l1.64-10.7h2.91l3.26,6,.9-6h2.9l-1.65,10.7h-2.6l-3.5-6.38-1,6.38Z" transform="translate(-1.9 -1.65)"/><path class="cls-1" d="M522.63,12.75l1.65-10.7h7.9l-.38,2.38h-5l-.27,1.78h4.17l-.35,2.32h-4.19l-.28,1.82h5l-.37,2.4Z" transform="translate(-1.9 -1.65)"/><path class="cls-1" d="M535.41,12.75l.67-4.45-2.81-6.25h3.11l1.54,3.8,2.67-3.8h3.15L539,8.3l-.69,4.45Z" transform="translate(-1.9 -1.65)"/><path class="cls-1" d="M548.29,9.54a2.11,2.11,0,0,1-1.13-.31,2.25,2.25,0,0,1-.81-.81,2.22,2.22,0,0,1,0-2.23,2.3,2.3,0,0,1,.81-.8,2.21,2.21,0,0,1,2.26,0,2.3,2.3,0,0,1,.81.8,2.16,2.16,0,0,1,0,2.23,2.25,2.25,0,0,1-.81.81A2.11,2.11,0,0,1,548.29,9.54Z" transform="translate(-1.9 -1.65)"/><path class="cls-1" d="M555.58,12.9c-.3,0-.64,0-1,0s-.68-.07-.9-.11l.39-2.59.45.05a4.1,4.1,0,0,0,.49,0,1.32,1.32,0,0,0,1.08-.39,2.54,2.54,0,0,0,.44-1.22l1-6.57h2.87l-1.11,7.31a7.39,7.39,0,0,1-.55,2,2.56,2.56,0,0,1-1.12,1.18A4.39,4.39,0,0,1,555.58,12.9Z" transform="translate(-1.9 -1.65)"/><path class="cls-1" d="M565.45,12.9a4.86,4.86,0,0,1-2.66-.68,3.67,3.67,0,0,1-1.52-1.9,5.84,5.84,0,0,1-.19-2.9,7,7,0,0,1,1.1-2.91,5.84,5.84,0,0,1,4.94-2.61,4.71,4.71,0,0,1,2.62.69,3.72,3.72,0,0,1,1.51,1.92,5.76,5.76,0,0,1,.21,2.91,7,7,0,0,1-1.08,2.89,5.74,5.74,0,0,1-2.1,1.91A5.92,5.92,0,0,1,565.45,12.9Zm.34-2.31a2.12,2.12,0,0,0,1.1-.3,2.5,2.5,0,0,0,.88-1,6,6,0,0,0,.54-1.84,5.14,5.14,0,0,0,0-1.91,1.67,1.67,0,0,0-.57-1,1.6,1.6,0,0,0-1-.32,2.11,2.11,0,0,0-1.58.73,4.73,4.73,0,0,0-1,2.53,4.91,4.91,0,0,0,0,1.84,1.62,1.62,0,0,0,.58,1A1.7,1.7,0,0,0,565.79,10.59Z" transform="translate(-1.9 -1.65)"/><path class="cls-1" d="M576.84,12.9a5,5,0,0,1-2.66-.58,2.67,2.67,0,0,1-1.2-1.61,5.87,5.87,0,0,1-.07-2.39l1-6.27h2.93l-1,6.39a2.26,2.26,0,0,0,.06,1.19,1.16,1.16,0,0,0,.53.65,1.55,1.55,0,0,0,.81.21,2,2,0,0,0,1.25-.47,2.35,2.35,0,0,0,.76-1.58l1-6.39h2.92l-1,6.27a6.68,6.68,0,0,1-.81,2.39,4.1,4.1,0,0,1-1.69,1.61A6,6,0,0,1,576.84,12.9Z" transform="translate(-1.9 -1.65)"/><path class="cls-1" d="M583.41,12.75,585,2.05h4.86a4.27,4.27,0,0,1,2.17.46,2.27,2.27,0,0,1,1,1.24,3.74,3.74,0,0,1,.11,1.75,4.44,4.44,0,0,1-.43,1.4,3.8,3.8,0,0,1-.75,1,5.45,5.45,0,0,1-1,.72l1.25,4.14h-2.95l-1-3.68h-1.52l-.56,3.68Zm3.77-5.83h1.66a1.28,1.28,0,0,0,.68-.2,1.82,1.82,0,0,0,.81-1.19,1.13,1.13,0,0,0-.25-1,1,1,0,0,0-.82-.4H587.6Z" transform="translate(-1.9 -1.65)"/><path class="cls-1" d="M594,12.75l1.64-10.7h2.91l3.26,6,.91-6h2.89L604,12.75h-2.6l-3.51-6.38-1,6.38Z" transform="translate(-1.9 -1.65)"/><path class="cls-1" d="M606.1,12.75l1.65-10.7h7.89l-.37,2.38h-5L610,6.21h4.17l-.35,2.32h-4.19l-.29,1.82h5l-.37,2.4Z" transform="translate(-1.9 -1.65)"/><path class="cls-1" d="M618.87,12.75l.66-4.45-2.81-6.25h3.11l1.54,3.8,2.68-3.8h3.15L622.42,8.3l-.68,4.45Z" transform="translate(-1.9 -1.65)"/><path class="cls-1" d="M631.76,9.54a2.11,2.11,0,0,1-1.13-.31,2.25,2.25,0,0,1-.81-.81,2.22,2.22,0,0,1,0-2.23,2.3,2.3,0,0,1,.81-.8,2.21,2.21,0,0,1,2.26,0,2.3,2.3,0,0,1,.81.8,2.16,2.16,0,0,1,0,2.23,2.25,2.25,0,0,1-.81.81A2.11,2.11,0,0,1,631.76,9.54Z" transform="translate(-1.9 -1.65)"/><path class="cls-1" d="M639,12.9c-.31,0-.65,0-1,0a8.55,8.55,0,0,1-.89-.11l.38-2.59.46.05a4,4,0,0,0,.48,0,1.32,1.32,0,0,0,1.09-.39A2.54,2.54,0,0,0,640,8.62l1-6.57h2.87l-1.12,7.31a7,7,0,0,1-.55,2,2.59,2.59,0,0,1-1.11,1.18A4.41,4.41,0,0,1,639,12.9Z" transform="translate(-1.9 -1.65)"/><path class="cls-1" d="M648.9,12.9a4.89,4.89,0,0,1-2.66-.68,3.66,3.66,0,0,1-1.51-1.9,5.83,5.83,0,0,1-.2-2.9,7.18,7.18,0,0,1,1.1-2.91,5.79,5.79,0,0,1,2.11-1.92,5.87,5.87,0,0,1,2.83-.69,4.71,4.71,0,0,1,2.62.69,3.74,3.74,0,0,1,1.52,1.92,5.88,5.88,0,0,1,.2,2.91,7,7,0,0,1-1.08,2.89,5.79,5.79,0,0,1-2.09,1.91A6,6,0,0,1,648.9,12.9Zm.34-2.31a2.09,2.09,0,0,0,1.1-.3,2.5,2.5,0,0,0,.88-1,6,6,0,0,0,.54-1.84,5.4,5.4,0,0,0,0-1.91,1.77,1.77,0,0,0-.57-1,1.62,1.62,0,0,0-1-.32,2.13,2.13,0,0,0-1.58.73,4.81,4.81,0,0,0-1,2.53,5.13,5.13,0,0,0,0,1.84,1.63,1.63,0,0,0,.59,1A1.65,1.65,0,0,0,649.24,10.59Z" transform="translate(-1.9 -1.65)"/><path class="cls-1" d="M660.28,12.9a5,5,0,0,1-2.65-.58,2.6,2.6,0,0,1-1.2-1.61,5.87,5.87,0,0,1-.07-2.39l.95-6.27h2.93l-1,6.39a2.49,2.49,0,0,0,.06,1.19,1.25,1.25,0,0,0,.53.65,1.59,1.59,0,0,0,.82.21,2,2,0,0,0,1.25-.47,2.35,2.35,0,0,0,.76-1.58l1-6.39h2.92l-1,6.27a6.68,6.68,0,0,1-.8,2.39,4.07,4.07,0,0,1-1.7,1.61A6,6,0,0,1,660.28,12.9Z" transform="translate(-1.9 -1.65)"/><path class="cls-1" d="M666.85,12.75l1.64-10.7h4.85a4.28,4.28,0,0,1,2.18.46,2.27,2.27,0,0,1,1.05,1.24,3.74,3.74,0,0,1,.11,1.75,4.44,4.44,0,0,1-.43,1.4,3.62,3.62,0,0,1-.76,1,5.06,5.06,0,0,1-1,.72l1.25,4.14h-3l-1-3.68H670.3l-.56,3.68Zm3.78-5.83h1.66a1.28,1.28,0,0,0,.68-.2,1.82,1.82,0,0,0,.54-.53,1.71,1.71,0,0,0,.27-.66,1.13,1.13,0,0,0-.25-1,1,1,0,0,0-.83-.4h-1.65Z" transform="translate(-1.9 -1.65)"/><path class="cls-1" d="M677.45,12.75l1.65-10.7H682l3.26,6,.91-6h2.89l-1.64,10.7h-2.6l-3.5-6.38-1,6.38Z" transform="translate(-1.9 -1.65)"/><path class="cls-1" d="M689.54,12.75l1.65-10.7h7.89l-.37,2.38h-5l-.27,1.78h4.17l-.36,2.32h-4.18l-.29,1.82h5l-.37,2.4Z" transform="translate(-1.9 -1.65)"/><path class="cls-1" d="M702.33,12.75,703,8.3l-2.81-6.25h3.1l1.55,3.8,2.67-3.8h3.15L705.89,8.3l-.69,4.45Z" transform="translate(-1.9 -1.65)"/><path class="cls-1" d="M715.2,9.54a2.11,2.11,0,0,1-1.13-.31,2.25,2.25,0,0,1-.81-.81,2.22,2.22,0,0,1,0-2.23,2.3,2.3,0,0,1,.81-.8,2.21,2.21,0,0,1,2.26,0,2.3,2.3,0,0,1,.81.8,2.16,2.16,0,0,1,0,2.23,2.25,2.25,0,0,1-.81.81A2.11,2.11,0,0,1,715.2,9.54Z" transform="translate(-1.9 -1.65)"/><path class="cls-1" d="M722.49,12.9c-.3,0-.65,0-1,0a8.92,8.92,0,0,1-.89-.11l.38-2.59.46.05a4,4,0,0,0,.48,0A1.32,1.32,0,0,0,723,9.84a2.54,2.54,0,0,0,.43-1.22l1-6.57h2.87l-1.12,7.31a6.72,6.72,0,0,1-.55,2,2.59,2.59,0,0,1-1.11,1.18A4.41,4.41,0,0,1,722.49,12.9Z" transform="translate(-1.9 -1.65)"/><path class="cls-1" d="M732.38,12.9a4.86,4.86,0,0,1-2.66-.68,3.72,3.72,0,0,1-1.52-1.9,6,6,0,0,1-.19-2.9,7,7,0,0,1,1.1-2.91,5.84,5.84,0,0,1,4.94-2.61,4.71,4.71,0,0,1,2.62.69,3.72,3.72,0,0,1,1.51,1.92,5.76,5.76,0,0,1,.21,2.91,7,7,0,0,1-1.08,2.89,5.74,5.74,0,0,1-2.1,1.91A5.92,5.92,0,0,1,732.38,12.9Zm.34-2.31a2.12,2.12,0,0,0,1.1-.3,2.5,2.5,0,0,0,.88-1,6,6,0,0,0,.54-1.84,5.14,5.14,0,0,0,0-1.91,1.67,1.67,0,0,0-.57-1,1.6,1.6,0,0,0-1-.32,2.11,2.11,0,0,0-1.58.73,4.73,4.73,0,0,0-1,2.53,4.91,4.91,0,0,0,0,1.84,1.62,1.62,0,0,0,.58,1A1.7,1.7,0,0,0,732.72,10.59Z" transform="translate(-1.9 -1.65)"/><path class="cls-1" d="M743.74,12.9a5,5,0,0,1-2.65-.58,2.6,2.6,0,0,1-1.2-1.61,5.85,5.85,0,0,1-.08-2.39l1-6.27h2.92l-1,6.39a2.49,2.49,0,0,0,.06,1.19,1.16,1.16,0,0,0,.53.65,1.58,1.58,0,0,0,.81.21,2,2,0,0,0,1.26-.47,2.38,2.38,0,0,0,.75-1.58l1-6.39H750l-1,6.27a6.68,6.68,0,0,1-.81,2.39,4,4,0,0,1-1.69,1.61A6,6,0,0,1,743.74,12.9Z" transform="translate(-1.9 -1.65)"/><path class="cls-1" d="M750.3,12.75l1.64-10.7h4.85a4.28,4.28,0,0,1,2.18.46,2.27,2.27,0,0,1,1,1.24,3.74,3.74,0,0,1,.11,1.75,4.44,4.44,0,0,1-.43,1.4,3.62,3.62,0,0,1-.76,1,5.06,5.06,0,0,1-1,.72l1.25,4.14h-3l-1-3.68h-1.52l-.56,3.68Zm3.78-5.83h1.66a1.28,1.28,0,0,0,.68-.2,1.94,1.94,0,0,0,.54-.53,1.71,1.71,0,0,0,.27-.66,1.13,1.13,0,0,0-.25-1,1,1,0,0,0-.83-.4H754.5Z" transform="translate(-1.9 -1.65)"/><path class="cls-1" d="M760.89,12.75l1.65-10.7h2.91l3.26,6,.9-6h2.9l-1.65,10.7h-2.6l-3.5-6.38-1,6.38Z" transform="translate(-1.9 -1.65)"/><path class="cls-1" d="M773,12.75l1.65-10.7h7.89l-.37,2.38h-5l-.27,1.78h4.17l-.36,2.32h-4.18l-.29,1.82h5l-.37,2.4Z" transform="translate(-1.9 -1.65)"/><path class="cls-1" d="M785.76,12.75l.66-4.45-2.8-6.25h3.1l1.54,3.8,2.68-3.8h3.15L789.32,8.3l-.69,4.45Z" transform="translate(-1.9 -1.65)"/><path class="cls-1" d="M798.66,9.54a2.09,2.09,0,0,1-1.13-.31,2.35,2.35,0,0,1-.82-.81,2.22,2.22,0,0,1,0-2.23,2.41,2.41,0,0,1,.82-.8,2.2,2.2,0,0,1,2.25,0,2.33,2.33,0,0,1,.82.8,2.16,2.16,0,0,1,0,2.23,2.27,2.27,0,0,1-.82.81A2.08,2.08,0,0,1,798.66,9.54Z" transform="translate(-1.9 -1.65)"/><path class="cls-1" d="M806,12.9c-.3,0-.65,0-1,0a8.55,8.55,0,0,1-.89-.11l.38-2.59.46.05a4,4,0,0,0,.48,0,1.32,1.32,0,0,0,1.09-.39,2.54,2.54,0,0,0,.43-1.22l1-6.57h2.87l-1.12,7.31a6.72,6.72,0,0,1-.55,2A2.59,2.59,0,0,1,808,12.51,4.41,4.41,0,0,1,806,12.9Z" transform="translate(-1.9 -1.65)"/><path class="cls-1" d="M815.8,12.9a4.89,4.89,0,0,1-2.66-.68,3.7,3.7,0,0,1-1.51-1.9,5.83,5.83,0,0,1-.2-2.9,7.18,7.18,0,0,1,1.1-2.91,5.87,5.87,0,0,1,5-2.61,4.68,4.68,0,0,1,2.61.69,3.74,3.74,0,0,1,1.52,1.92,5.88,5.88,0,0,1,.2,2.91,7,7,0,0,1-1.08,2.89,5.79,5.79,0,0,1-2.09,1.91A6,6,0,0,1,815.8,12.9Zm.34-2.31a2.15,2.15,0,0,0,1.11-.3,2.49,2.49,0,0,0,.87-1,5.52,5.52,0,0,0,.54-1.84,5.4,5.4,0,0,0,0-1.91,1.77,1.77,0,0,0-.57-1,1.62,1.62,0,0,0-1-.32,2.13,2.13,0,0,0-1.59.73,4.81,4.81,0,0,0-1,2.53,5.09,5.09,0,0,0,0,1.84,1.58,1.58,0,0,0,.58,1A1.67,1.67,0,0,0,816.14,10.59Z" transform="translate(-1.9 -1.65)"/><path class="cls-1" d="M827.2,12.9a5,5,0,0,1-2.65-.58,2.6,2.6,0,0,1-1.2-1.61,5.87,5.87,0,0,1-.07-2.39l1-6.27h2.93l-1,6.39a2.49,2.49,0,0,0,.06,1.19,1.2,1.2,0,0,0,.53.65,1.58,1.58,0,0,0,.81.21,2,2,0,0,0,1.26-.47,2.39,2.39,0,0,0,.76-1.58l1-6.39h2.92l-1,6.27a6.88,6.88,0,0,1-.8,2.39,4.13,4.13,0,0,1-1.7,1.61A6,6,0,0,1,827.2,12.9Z" transform="translate(-1.9 -1.65)"/><path class="cls-1" d="M833.76,12.75l1.63-10.7h4.86a4.31,4.31,0,0,1,2.18.46,2.21,2.21,0,0,1,1,1.24,3.6,3.6,0,0,1,.12,1.75,4.43,4.43,0,0,1-.44,1.4,3.41,3.41,0,0,1-.75,1,5.45,5.45,0,0,1-1,.72l1.25,4.14h-2.95l-1-3.68H837.2l-.56,3.68Zm3.78-5.83h1.65a1.32,1.32,0,0,0,.69-.2,1.79,1.79,0,0,0,.53-.53,1.45,1.45,0,0,0,.27-.66,1.1,1.1,0,0,0-.25-1,1,1,0,0,0-.82-.4H838Z" transform="translate(-1.9 -1.65)"/><path class="cls-1" d="M844.34,12.75,846,2.05h2.91l3.26,6,.9-6H856l-1.65,10.7h-2.6l-3.5-6.38-1,6.38Z" transform="translate(-1.9 -1.65)"/><path class="cls-1" d="M856.44,12.75l1.65-10.7H866l-.37,2.38h-5l-.26,1.78h4.16l-.35,2.32H860l-.28,1.82h5l-.38,2.4Z" transform="translate(-1.9 -1.65)"/><path class="cls-1" d="M869.23,12.75l.67-4.45-2.81-6.25h3.1l1.55,3.8,2.67-3.8h3.15L872.79,8.3l-.69,4.45Z" transform="translate(-1.9 -1.65)"/><path class="cls-1" d="M882.1,9.54A2.11,2.11,0,0,1,881,9.23a2.25,2.25,0,0,1-.81-.81,2.16,2.16,0,0,1,0-2.23,2.3,2.3,0,0,1,.81-.8,2.21,2.21,0,0,1,2.26,0,2.3,2.3,0,0,1,.81.8,2.16,2.16,0,0,1,0,2.23,2.25,2.25,0,0,1-.81.81A2.11,2.11,0,0,1,882.1,9.54Z" transform="translate(-1.9 -1.65)"/><path class="cls-1" d="M889.41,12.9c-.3,0-.64,0-1,0s-.68-.07-.9-.11l.39-2.59.45.05a4.1,4.1,0,0,0,.49,0,1.32,1.32,0,0,0,1.08-.39,2.54,2.54,0,0,0,.44-1.22l1-6.57h2.87l-1.11,7.31a7.39,7.39,0,0,1-.55,2,2.56,2.56,0,0,1-1.12,1.18A4.39,4.39,0,0,1,889.41,12.9Z" transform="translate(-1.9 -1.65)"/><path class="cls-1" d="M899.26,12.9a4.89,4.89,0,0,1-2.66-.68,3.7,3.7,0,0,1-1.51-1.9,5.84,5.84,0,0,1-.19-2.9A7.17,7.17,0,0,1,896,4.51a5.87,5.87,0,0,1,5-2.61,4.65,4.65,0,0,1,2.61.69,3.74,3.74,0,0,1,1.52,1.92,5.88,5.88,0,0,1,.2,2.91,6.88,6.88,0,0,1-1.08,2.89,5.79,5.79,0,0,1-2.09,1.91A5.93,5.93,0,0,1,899.26,12.9Zm.34-2.31a2.15,2.15,0,0,0,1.11-.3,2.49,2.49,0,0,0,.87-1,5.52,5.52,0,0,0,.54-1.84,5.4,5.4,0,0,0,0-1.91,1.67,1.67,0,0,0-.57-1,1.62,1.62,0,0,0-1-.32,2.15,2.15,0,0,0-1.59.73,4.81,4.81,0,0,0-1,2.53,5.09,5.09,0,0,0,0,1.84,1.62,1.62,0,0,0,.58,1A1.67,1.67,0,0,0,899.6,10.59Z" transform="translate(-1.9 -1.65)"/><path class="cls-1" d="M910.64,12.9a5,5,0,0,1-2.65-.58,2.67,2.67,0,0,1-1.2-1.61,5.87,5.87,0,0,1-.07-2.39l.95-6.27h2.93l-1,6.39a2.26,2.26,0,0,0,.06,1.19,1.19,1.19,0,0,0,.52.65,1.59,1.59,0,0,0,.82.21,2,2,0,0,0,1.25-.47A2.35,2.35,0,0,0,913,8.44l1-6.39h2.92l-1,6.27a6.68,6.68,0,0,1-.8,2.39,4.07,4.07,0,0,1-1.7,1.61A6,6,0,0,1,910.64,12.9Z" transform="translate(-1.9 -1.65)"/><path class="cls-1" d="M917.21,12.75l1.64-10.7h4.85a4.28,4.28,0,0,1,2.18.46,2.27,2.27,0,0,1,1,1.24A3.74,3.74,0,0,1,927,5.5a4.19,4.19,0,0,1-.44,1.4,3.41,3.41,0,0,1-.75,1,5.06,5.06,0,0,1-1,.72l1.25,4.14h-3l-1-3.68h-1.52l-.56,3.68ZM921,6.92h1.65a1.29,1.29,0,0,0,.69-.2,1.94,1.94,0,0,0,.54-.53,1.55,1.55,0,0,0,.26-.66,1.13,1.13,0,0,0-.24-1,1.05,1.05,0,0,0-.83-.4h-1.65Z" transform="translate(-1.9 -1.65)"/><path class="cls-1" d="M927.78,12.75l1.65-10.7h2.9l3.27,6,.9-6h2.9l-1.65,10.7h-2.6l-3.5-6.38-1,6.38Z" transform="translate(-1.9 -1.65)"/><path class="cls-1" d="M939.9,12.75l1.65-10.7h7.89l-.37,2.38h-5l-.27,1.78H948l-.35,2.32h-4.18l-.29,1.82h5l-.37,2.4Z" transform="translate(-1.9 -1.65)"/><path class="cls-1" d="M952.66,12.75l.67-4.45-2.81-6.25h3.11l1.54,3.8,2.67-3.8H961L956.22,8.3l-.69,4.45Z" transform="translate(-1.9 -1.65)"/><path class="cls-1" d="M965.55,9.54a2.11,2.11,0,0,1-1.13-.31,2.25,2.25,0,0,1-.81-.81,2.22,2.22,0,0,1,0-2.23,2.3,2.3,0,0,1,.81-.8,2.21,2.21,0,0,1,2.26,0,2.3,2.3,0,0,1,.81.8,2.16,2.16,0,0,1,0,2.23,2.25,2.25,0,0,1-.81.81A2.11,2.11,0,0,1,965.55,9.54Z" transform="translate(-1.9 -1.65)"/><path class="cls-1" d="M972.85,12.9c-.3,0-.64,0-1,0s-.68-.07-.9-.11l.39-2.59.45.05a4.1,4.1,0,0,0,.49,0,1.32,1.32,0,0,0,1.09-.39,2.54,2.54,0,0,0,.43-1.22l1-6.57h2.88l-1.12,7.31a7,7,0,0,1-.55,2,2.59,2.59,0,0,1-1.11,1.18A4.46,4.46,0,0,1,972.85,12.9Z" transform="translate(-1.9 -1.65)"/><path class="cls-1" d="M982.71,12.9a4.89,4.89,0,0,1-2.66-.68,3.7,3.7,0,0,1-1.51-1.9,5.84,5.84,0,0,1-.19-2.9,7,7,0,0,1,1.1-2.91,5.71,5.71,0,0,1,2.11-1.92,5.84,5.84,0,0,1,2.83-.69,4.65,4.65,0,0,1,2.61.69,3.69,3.69,0,0,1,1.52,1.92,5.87,5.87,0,0,1,.21,2.91,7,7,0,0,1-1.08,2.89,5.82,5.82,0,0,1-2.1,1.91A5.93,5.93,0,0,1,982.71,12.9Zm.35-2.31a2.14,2.14,0,0,0,1.1-.3,2.41,2.41,0,0,0,.87-1,5.52,5.52,0,0,0,.54-1.84,5.18,5.18,0,0,0,0-1.91,1.67,1.67,0,0,0-.57-1,1.6,1.6,0,0,0-1-.32,2.11,2.11,0,0,0-1.58.73,4.73,4.73,0,0,0-1,2.53,4.91,4.91,0,0,0,0,1.84,1.62,1.62,0,0,0,.58,1A1.68,1.68,0,0,0,983.06,10.59Z" transform="translate(-1.9 -1.65)"/><path class="cls-1" d="M994.1,12.9a5,5,0,0,1-2.65-.58,2.6,2.6,0,0,1-1.2-1.61,6,6,0,0,1-.08-2.39l1-6.27h2.93l-1,6.39a2.49,2.49,0,0,0,.06,1.19,1.2,1.2,0,0,0,.53.65,1.58,1.58,0,0,0,.81.21,2,2,0,0,0,1.26-.47,2.39,2.39,0,0,0,.76-1.58l1-6.39h2.92l-1,6.27a6.88,6.88,0,0,1-.8,2.39,4.13,4.13,0,0,1-1.7,1.61A6,6,0,0,1,994.1,12.9Z" transform="translate(-1.9 -1.65)"/><path class="cls-1" d="M1000.66,12.75l1.63-10.7h4.86a4.28,4.28,0,0,1,2.18.46,2.21,2.21,0,0,1,1,1.24,3.6,3.6,0,0,1,.12,1.75,4.43,4.43,0,0,1-.44,1.4,3.41,3.41,0,0,1-.75,1,4.84,4.84,0,0,1-1,.72l1.26,4.14h-3l-1-3.68h-1.52l-.55,3.68Zm3.78-5.83h1.65a1.29,1.29,0,0,0,.69-.2,1.94,1.94,0,0,0,.54-.53,1.55,1.55,0,0,0,.26-.66,1.1,1.1,0,0,0-.25-1,1,1,0,0,0-.82-.4h-1.65Z" transform="translate(-1.9 -1.65)"/><path class="cls-1" d="M1011.24,12.75l1.65-10.7h2.9l3.27,6,.9-6h2.9l-1.65,10.7h-2.6l-3.5-6.38-1,6.38Z" transform="translate(-1.9 -1.65)"/><path class="cls-1" d="M1023.33,12.75,1025,2.05h7.9l-.37,2.38h-5l-.26,1.78h4.16l-.35,2.32h-4.19l-.28,1.82h5l-.38,2.4Z" transform="translate(-1.9 -1.65)"/><path class="cls-1" d="M1036.11,12.75l.66-4.45L1034,2.05h3.1l1.55,3.8,2.67-3.8h3.15l-4.77,6.25-.69,4.45Z" transform="translate(-1.9 -1.65)"/><path class="cls-1" d="M1049,9.54a2.11,2.11,0,0,1-1.13-.31,2.25,2.25,0,0,1-.81-.81,2.22,2.22,0,0,1,0-2.23,2.3,2.3,0,0,1,.81-.8,2.21,2.21,0,0,1,2.26,0,2.41,2.41,0,0,1,.82.8,2.22,2.22,0,0,1,0,2.23,2.35,2.35,0,0,1-.82.81A2.11,2.11,0,0,1,1049,9.54Z" transform="translate(-1.9 -1.65)"/><path class="cls-1" d="M1056.29,12.9c-.3,0-.64,0-1,0s-.68-.07-.9-.11l.39-2.59.45.05a4.1,4.1,0,0,0,.49,0,1.32,1.32,0,0,0,1.09-.39,2.54,2.54,0,0,0,.43-1.22l1-6.57h2.88L1060,9.36a7,7,0,0,1-.55,2,2.59,2.59,0,0,1-1.11,1.18A4.46,4.46,0,0,1,1056.29,12.9Z" transform="translate(-1.9 -1.65)"/><path class="cls-1" d="M1066.16,12.9a4.89,4.89,0,0,1-2.66-.68,3.7,3.7,0,0,1-1.51-1.9,6,6,0,0,1-.2-2.9,7.18,7.18,0,0,1,1.1-2.91,5.87,5.87,0,0,1,4.95-2.61,4.68,4.68,0,0,1,2.61.69A3.74,3.74,0,0,1,1072,4.51a5.88,5.88,0,0,1,.2,2.91,7,7,0,0,1-1.08,2.89,5.79,5.79,0,0,1-2.09,1.91A6,6,0,0,1,1066.16,12.9Zm.34-2.31a2.15,2.15,0,0,0,1.11-.3,2.49,2.49,0,0,0,.87-1,5.52,5.52,0,0,0,.54-1.84,5.4,5.4,0,0,0,0-1.91,1.77,1.77,0,0,0-.57-1,1.62,1.62,0,0,0-1-.32,2.15,2.15,0,0,0-1.59.73,4.81,4.81,0,0,0-1,2.53,5.09,5.09,0,0,0,0,1.84,1.58,1.58,0,0,0,.58,1A1.67,1.67,0,0,0,1066.5,10.59Z" transform="translate(-1.9 -1.65)"/><path class="cls-1" d="M1077.54,12.9a5,5,0,0,1-2.66-.58,2.67,2.67,0,0,1-1.2-1.61,6.05,6.05,0,0,1-.07-2.39l1-6.27h2.93l-1,6.39a2.26,2.26,0,0,0,.06,1.19,1.16,1.16,0,0,0,.53.65,1.58,1.58,0,0,0,.81.21,2,2,0,0,0,1.25-.47,2.35,2.35,0,0,0,.76-1.58l1-6.39h2.92l-1,6.27a6.68,6.68,0,0,1-.81,2.39,4.1,4.1,0,0,1-1.69,1.61A6,6,0,0,1,1077.54,12.9Z" transform="translate(-1.9 -1.65)"/><path class="cls-1" d="M1084.1,12.75l1.63-10.7h4.86a4.31,4.31,0,0,1,2.18.46,2.21,2.21,0,0,1,1,1.24,3.6,3.6,0,0,1,.12,1.75,4.43,4.43,0,0,1-.44,1.4,3.59,3.59,0,0,1-.75,1,5.45,5.45,0,0,1-1,.72l1.25,4.14h-3l-1-3.68h-1.52l-.56,3.68Zm3.78-5.83h1.65a1.34,1.34,0,0,0,.69-.2,1.79,1.79,0,0,0,.53-.53,1.45,1.45,0,0,0,.27-.66,1.1,1.1,0,0,0-.25-1,1,1,0,0,0-.82-.4h-1.66Z" transform="translate(-1.9 -1.65)"/><path class="cls-1" d="M1094.7,12.75l1.65-10.7h2.9l3.27,6,.9-6h2.9l-1.65,10.7h-2.6l-3.5-6.38-1,6.38Z" transform="translate(-1.9 -1.65)"/><path class="cls-1" d="M1106.8,12.75l1.65-10.7h7.9L1116,4.43h-5l-.26,1.78h4.16l-.35,2.32h-4.19l-.28,1.82h5l-.38,2.4Z" transform="translate(-1.9 -1.65)"/><path class="cls-1" d="M1119.59,12.75l.66-4.45-2.81-6.25h3.11l1.54,3.8,2.67-3.8h3.16l-4.78,6.25-.69,4.45Z" transform="translate(-1.9 -1.65)"/><path class="cls-1" d="M1132.45,9.54a2.09,2.09,0,0,1-1.13-.31,2.25,2.25,0,0,1-.81-.81,2.16,2.16,0,0,1,0-2.23,2.3,2.3,0,0,1,.81-.8,2.09,2.09,0,0,1,1.13-.31,2.11,2.11,0,0,1,1.13.31,2.3,2.3,0,0,1,.81.8,2.16,2.16,0,0,1,0,2.23,2.25,2.25,0,0,1-.81.81A2.11,2.11,0,0,1,1132.45,9.54Z" transform="translate(-1.9 -1.65)"/><path class="cls-1" d="M1139.75,12.9c-.3,0-.64,0-1,0s-.68-.07-.9-.11l.39-2.59.45.05a4.1,4.1,0,0,0,.49,0,1.32,1.32,0,0,0,1.08-.39,2.54,2.54,0,0,0,.44-1.22l1-6.57h2.87l-1.11,7.31a7.39,7.39,0,0,1-.55,2,2.56,2.56,0,0,1-1.12,1.18A4.39,4.39,0,0,1,1139.75,12.9Z" transform="translate(-1.9 -1.65)"/><path class="cls-1" d="M1149.62,12.9a4.89,4.89,0,0,1-2.66-.68,3.7,3.7,0,0,1-1.51-1.9,5.84,5.84,0,0,1-.19-2.9,7,7,0,0,1,1.1-2.91,5.71,5.71,0,0,1,2.11-1.92,5.84,5.84,0,0,1,2.83-.69,4.65,4.65,0,0,1,2.61.69,3.74,3.74,0,0,1,1.52,1.92,5.87,5.87,0,0,1,.21,2.91,6.89,6.89,0,0,1-1.09,2.89,5.71,5.71,0,0,1-2.09,1.91A5.93,5.93,0,0,1,1149.62,12.9Zm.34-2.31a2.15,2.15,0,0,0,1.11-.3,2.41,2.41,0,0,0,.87-1,5.52,5.52,0,0,0,.54-1.84,5.4,5.4,0,0,0,0-1.91,1.67,1.67,0,0,0-.57-1,1.62,1.62,0,0,0-1-.32,2.11,2.11,0,0,0-1.58.73,4.65,4.65,0,0,0-1,2.53,4.91,4.91,0,0,0,0,1.84,1.62,1.62,0,0,0,.58,1A1.67,1.67,0,0,0,1150,10.59Z" transform="translate(-1.9 -1.65)"/><path class="cls-1" d="M1161,12.9a5,5,0,0,1-2.65-.58,2.6,2.6,0,0,1-1.2-1.61,5.85,5.85,0,0,1-.08-2.39l1-6.27H1161l-1,6.39a2.49,2.49,0,0,0,.06,1.19,1.16,1.16,0,0,0,.53.65,1.58,1.58,0,0,0,.81.21,2,2,0,0,0,1.26-.47,2.38,2.38,0,0,0,.75-1.58l1-6.39h2.92l-1,6.27a6.68,6.68,0,0,1-.81,2.39,4,4,0,0,1-1.69,1.61A6,6,0,0,1,1161,12.9Z" transform="translate(-1.9 -1.65)"/><path class="cls-1" d="M1167.56,12.75l1.63-10.7H1174a4.28,4.28,0,0,1,2.18.46,2.27,2.27,0,0,1,1,1.24,3.74,3.74,0,0,1,.11,1.75,4.44,4.44,0,0,1-.43,1.4,3.62,3.62,0,0,1-.76,1,5.06,5.06,0,0,1-1,.72l1.25,4.14h-3l-1-3.68H1171l-.56,3.68Zm3.77-5.83H1173a1.28,1.28,0,0,0,.68-.2,1.82,1.82,0,0,0,.54-.53,1.71,1.71,0,0,0,.27-.66,1.13,1.13,0,0,0-.25-1,1,1,0,0,0-.83-.4h-1.65Z" transform="translate(-1.9 -1.65)"/><path class="cls-1" d="M1178.14,12.75l1.65-10.7h2.9L1186,8l.9-6h2.9l-1.65,10.7h-2.6L1182,6.37l-1,6.38Z" transform="translate(-1.9 -1.65)"/><path class="cls-1" d="M1190.24,12.75l1.65-10.7h7.9l-.37,2.38h-5l-.26,1.78h4.16L1198,8.53h-4.19l-.28,1.82h5l-.38,2.4Z" transform="translate(-1.9 -1.65)"/><path class="cls-1" d="M1203,12.75l.66-4.45-2.81-6.25H1204l1.54,3.8,2.68-3.8h3.15l-4.78,6.25-.68,4.45Z" transform="translate(-1.9 -1.65)"/><path class="cls-1" d="M1215.89,9.54a2.08,2.08,0,0,1-1.12-.31,2.27,2.27,0,0,1-.82-.81,2.22,2.22,0,0,1,0-2.23,2.33,2.33,0,0,1,.82-.8,2.2,2.2,0,0,1,2.25,0,2.33,2.33,0,0,1,.82.8,2.22,2.22,0,0,1,0,2.23,2.27,2.27,0,0,1-.82.81A2.09,2.09,0,0,1,1215.89,9.54Z" transform="translate(-1.9 -1.65)"/><path class="cls-1" d="M1223.21,12.9c-.3,0-.64,0-1,0s-.68-.07-.9-.11l.38-2.59.46.05a4,4,0,0,0,.48,0,1.32,1.32,0,0,0,1.09-.39,2.54,2.54,0,0,0,.43-1.22l1-6.57H1228l-1.11,7.31a7,7,0,0,1-.56,2,2.54,2.54,0,0,1-1.11,1.18A4.39,4.39,0,0,1,1223.21,12.9Z" transform="translate(-1.9 -1.65)"/><path class="cls-1" d="M1233.06,12.9a4.89,4.89,0,0,1-2.66-.68,3.7,3.7,0,0,1-1.51-1.9,5.84,5.84,0,0,1-.19-2.9,7,7,0,0,1,1.1-2.91,5.71,5.71,0,0,1,2.11-1.92,5.84,5.84,0,0,1,2.83-.69,4.65,4.65,0,0,1,2.61.69,3.69,3.69,0,0,1,1.52,1.92,5.87,5.87,0,0,1,.21,2.91,7,7,0,0,1-1.08,2.89,5.82,5.82,0,0,1-2.1,1.91A5.93,5.93,0,0,1,1233.06,12.9Zm.35-2.31a2.14,2.14,0,0,0,1.1-.3,2.41,2.41,0,0,0,.87-1,5.52,5.52,0,0,0,.54-1.84,5.18,5.18,0,0,0,0-1.91,1.67,1.67,0,0,0-.57-1,1.6,1.6,0,0,0-1-.32,2.11,2.11,0,0,0-1.58.73,4.65,4.65,0,0,0-1,2.53,4.91,4.91,0,0,0,0,1.84,1.62,1.62,0,0,0,.58,1A1.68,1.68,0,0,0,1233.41,10.59Z" transform="translate(-1.9 -1.65)"/><path class="cls-1" d="M1244.45,12.9a5,5,0,0,1-2.65-.58,2.6,2.6,0,0,1-1.2-1.61,6,6,0,0,1-.08-2.39l1-6.27h2.93l-1,6.39a2.49,2.49,0,0,0,.06,1.19,1.2,1.2,0,0,0,.53.65,1.58,1.58,0,0,0,.81.21,2,2,0,0,0,1.26-.47,2.39,2.39,0,0,0,.76-1.58l1-6.39h2.92l-1,6.27a6.88,6.88,0,0,1-.8,2.39,4.13,4.13,0,0,1-1.7,1.61A6,6,0,0,1,1244.45,12.9Z" transform="translate(-1.9 -1.65)"/><path class="cls-1" d="M1251,12.75l1.64-10.7h4.85a4.28,4.28,0,0,1,2.18.46,2.27,2.27,0,0,1,1,1.24,3.74,3.74,0,0,1,.11,1.75,4.44,4.44,0,0,1-.43,1.4,3.62,3.62,0,0,1-.76,1,5.06,5.06,0,0,1-1,.72l1.25,4.14h-3l-1-3.68h-1.52l-.56,3.68Zm3.78-5.83h1.66a1.28,1.28,0,0,0,.68-.2,1.94,1.94,0,0,0,.54-.53,1.71,1.71,0,0,0,.27-.66,1.13,1.13,0,0,0-.25-1,1,1,0,0,0-.83-.4h-1.65Z" transform="translate(-1.9 -1.65)"/><path class="cls-1" d="M1261.59,12.75l1.65-10.7h2.91l3.26,6,.9-6h2.9l-1.65,10.7H1269l-3.5-6.38-1,6.38Z" transform="translate(-1.9 -1.65)"/><path class="cls-1" d="M1273.71,12.75l1.65-10.7h7.9l-.38,2.38h-5l-.27,1.78h4.17l-.35,2.32h-4.19l-.28,1.82h5l-.37,2.4Z" transform="translate(-1.9 -1.65)"/><path class="cls-1" d="M1286.47,12.75l.67-4.45-2.81-6.25h3.1l1.55,3.8,2.67-3.8h3.15L1290,8.3l-.69,4.45Z" transform="translate(-1.9 -1.65)"/><path class="cls-1" d="M1299.35,9.54a2.11,2.11,0,0,1-1.13-.31,2.25,2.25,0,0,1-.81-.81,2.22,2.22,0,0,1,0-2.23,2.3,2.3,0,0,1,.81-.8,2.21,2.21,0,0,1,2.26,0,2.3,2.3,0,0,1,.81.8,2.16,2.16,0,0,1,0,2.23,2.25,2.25,0,0,1-.81.81A2.11,2.11,0,0,1,1299.35,9.54Z" transform="translate(-1.9 -1.65)"/><path class="cls-1" d="M1306.65,12.9c-.3,0-.65,0-1,0a8.92,8.92,0,0,1-.89-.11l.38-2.59.46.05a4,4,0,0,0,.48,0,1.32,1.32,0,0,0,1.09-.39,2.54,2.54,0,0,0,.43-1.22l1-6.57h2.87l-1.12,7.31a6.72,6.72,0,0,1-.55,2,2.59,2.59,0,0,1-1.11,1.18A4.41,4.41,0,0,1,1306.65,12.9Z" transform="translate(-1.9 -1.65)"/><path class="cls-1" d="M1316.51,12.9a4.86,4.86,0,0,1-2.66-.68,3.72,3.72,0,0,1-1.52-1.9,6,6,0,0,1-.19-2.9,7,7,0,0,1,1.1-2.91,5.84,5.84,0,0,1,4.94-2.61,4.71,4.71,0,0,1,2.62.69,3.72,3.72,0,0,1,1.51,1.92,5.76,5.76,0,0,1,.21,2.91,7,7,0,0,1-1.08,2.89,5.79,5.79,0,0,1-2.09,1.91A6,6,0,0,1,1316.51,12.9Zm.34-2.31a2.12,2.12,0,0,0,1.1-.3,2.5,2.5,0,0,0,.88-1,6,6,0,0,0,.54-1.84,5.14,5.14,0,0,0,0-1.91,1.67,1.67,0,0,0-.57-1,1.6,1.6,0,0,0-1-.32,2.11,2.11,0,0,0-1.58.73,4.73,4.73,0,0,0-1,2.53,5.13,5.13,0,0,0,0,1.84,1.67,1.67,0,0,0,.58,1A1.7,1.7,0,0,0,1316.85,10.59Z" transform="translate(-1.9 -1.65)"/><path class="cls-1" d="M1327.89,12.9a5,5,0,0,1-2.65-.58,2.6,2.6,0,0,1-1.2-1.61,5.85,5.85,0,0,1-.08-2.39l1-6.27h2.93l-1,6.39a2.49,2.49,0,0,0,.06,1.19,1.2,1.2,0,0,0,.53.65,1.58,1.58,0,0,0,.81.21,2,2,0,0,0,1.26-.47,2.34,2.34,0,0,0,.75-1.58l1-6.39h2.92l-1,6.27a6.88,6.88,0,0,1-.8,2.39,4.13,4.13,0,0,1-1.7,1.61A6,6,0,0,1,1327.89,12.9Z" transform="translate(-1.9 -1.65)"/><path class="cls-1" d="M1334.47,12.75l1.63-10.7H1341a4.24,4.24,0,0,1,2.17.46,2.23,2.23,0,0,1,1,1.24,3.6,3.6,0,0,1,.12,1.75,4.43,4.43,0,0,1-.44,1.4,3.8,3.8,0,0,1-.75,1,5.45,5.45,0,0,1-1,.72l1.25,4.14h-2.95l-1-3.68h-1.52l-.56,3.68Zm3.78-5.83h1.65a1.34,1.34,0,0,0,.69-.2,1.79,1.79,0,0,0,.53-.53,1.45,1.45,0,0,0,.27-.66,1.1,1.1,0,0,0-.25-1,1,1,0,0,0-.82-.4h-1.66Z" transform="translate(-1.9 -1.65)"/><path class="cls-1" d="M1345.05,12.75l1.65-10.7h2.9l3.27,6,.9-6h2.9L1355,12.75h-2.6l-3.5-6.38-1,6.38Z" transform="translate(-1.9 -1.65)"/><path class="cls-1" d="M1357.14,12.75l1.65-10.7h7.9l-.37,2.38h-5l-.26,1.78h4.16l-.35,2.32h-4.19l-.28,1.82h5l-.38,2.4Z" transform="translate(-1.9 -1.65)"/><path class="cls-1" d="M1369.92,12.75l.67-4.45-2.81-6.25h3.1l1.55,3.8,2.67-3.8h3.15l-4.77,6.25-.69,4.45Z" transform="translate(-1.9 -1.65)"/><path class="cls-1" d="M1382.81,9.54a2.09,2.09,0,0,1-1.13-.31,2.25,2.25,0,0,1-.81-.81,2.16,2.16,0,0,1,0-2.23,2.3,2.3,0,0,1,.81-.8,2.2,2.2,0,0,1,2.25,0,2.25,2.25,0,0,1,.82.8,2.16,2.16,0,0,1,0,2.23,2.2,2.2,0,0,1-.82.81A2.08,2.08,0,0,1,1382.81,9.54Z" transform="translate(-1.9 -1.65)"/><path class="cls-1" d="M1390.11,12.9c-.3,0-.64,0-1,0s-.68-.07-.9-.11l.39-2.59.45.05a4,4,0,0,0,.48,0,1.32,1.32,0,0,0,1.09-.39,2.54,2.54,0,0,0,.43-1.22l1-6.57h2.87l-1.11,7.31a7,7,0,0,1-.56,2,2.54,2.54,0,0,1-1.11,1.18A4.39,4.39,0,0,1,1390.11,12.9Z" transform="translate(-1.9 -1.65)"/><path class="cls-1" d="M1400,12.9a4.89,4.89,0,0,1-2.66-.68,3.7,3.7,0,0,1-1.51-1.9,5.84,5.84,0,0,1-.19-2.9,7,7,0,0,1,1.1-2.91,5.84,5.84,0,0,1,4.94-2.61,4.71,4.71,0,0,1,2.62.69,3.72,3.72,0,0,1,1.51,1.92,5.76,5.76,0,0,1,.21,2.91,7,7,0,0,1-1.08,2.89,5.74,5.74,0,0,1-2.1,1.91A5.93,5.93,0,0,1,1400,12.9Zm.35-2.31a2.14,2.14,0,0,0,1.1-.3,2.5,2.5,0,0,0,.88-1,6,6,0,0,0,.54-1.84,5.36,5.36,0,0,0,0-1.91,1.67,1.67,0,0,0-.57-1,1.6,1.6,0,0,0-1-.32,2.11,2.11,0,0,0-1.58.73,4.73,4.73,0,0,0-1,2.53,4.91,4.91,0,0,0,0,1.84,1.62,1.62,0,0,0,.58,1A1.68,1.68,0,0,0,1400.31,10.59Z" transform="translate(-1.9 -1.65)"/><path class="cls-1" d="M1411.35,12.9a5,5,0,0,1-2.66-.58,2.67,2.67,0,0,1-1.2-1.61,5.87,5.87,0,0,1-.07-2.39l.95-6.27h2.93l-1,6.39a2.26,2.26,0,0,0,.06,1.19,1.16,1.16,0,0,0,.53.65,1.55,1.55,0,0,0,.81.21A2,2,0,0,0,1413,10a2.35,2.35,0,0,0,.76-1.58l1-6.39h2.92l-.95,6.27a6.68,6.68,0,0,1-.81,2.39,4.1,4.1,0,0,1-1.69,1.61A6,6,0,0,1,1411.35,12.9Z" transform="translate(-1.9 -1.65)"/><path class="cls-1" d="M1417.92,12.75l1.63-10.7h4.86a4.24,4.24,0,0,1,2.17.46,2.23,2.23,0,0,1,1.05,1.24,3.6,3.6,0,0,1,.12,1.75,4.43,4.43,0,0,1-.44,1.4,3.8,3.8,0,0,1-.75,1,5.45,5.45,0,0,1-1,.72l1.25,4.14h-3l-1-3.68h-1.52l-.56,3.68Zm3.78-5.83h1.65a1.34,1.34,0,0,0,.69-.2,1.79,1.79,0,0,0,.53-.53,1.45,1.45,0,0,0,.27-.66,1.1,1.1,0,0,0-.25-1,1,1,0,0,0-.82-.4h-1.66Z" transform="translate(-1.9 -1.65)"/><path class="cls-1" d="M1428.5,12.75l1.65-10.7h2.9l3.27,6,.9-6h2.89l-1.64,10.7h-2.6l-3.5-6.38-1,6.38Z" transform="translate(-1.9 -1.65)"/><path class="cls-1" d="M1440.61,12.75l1.65-10.7h7.9l-.38,2.38h-5l-.27,1.78h4.17l-.35,2.32h-4.19l-.28,1.82h5l-.38,2.4Z" transform="translate(-1.9 -1.65)"/><path class="cls-1" d="M1453.39,12.75l.66-4.45-2.81-6.25h3.11l1.54,3.8,2.68-3.8h3.15l-4.78,6.25-.68,4.45Z" transform="translate(-1.9 -1.65)"/><path class="cls-1" d="M1466.25,9.54a2.08,2.08,0,0,1-1.12-.31,2.2,2.2,0,0,1-.82-.81,2.22,2.22,0,0,1,0-2.23,2.25,2.25,0,0,1,.82-.8,2.2,2.2,0,0,1,2.25,0,2.41,2.41,0,0,1,.82.8,2.22,2.22,0,0,1,0,2.23,2.35,2.35,0,0,1-.82.81A2.09,2.09,0,0,1,1466.25,9.54Z" transform="translate(-1.9 -1.65)"/><path class="cls-1" d="M1473.55,12.9c-.31,0-.65,0-1,0s-.68-.07-.9-.11l.39-2.59.46.05a3.93,3.93,0,0,0,.48,0,1.32,1.32,0,0,0,1.09-.39,2.54,2.54,0,0,0,.43-1.22l1-6.57h2.88l-1.12,7.31a7,7,0,0,1-.55,2,2.59,2.59,0,0,1-1.11,1.18A4.41,4.41,0,0,1,1473.55,12.9Z" transform="translate(-1.9 -1.65)"/><path class="cls-1" d="M1483.4,12.9a4.89,4.89,0,0,1-2.66-.68,3.7,3.7,0,0,1-1.51-1.9,5.84,5.84,0,0,1-.19-2.9,7,7,0,0,1,1.1-2.91,5.84,5.84,0,0,1,4.94-2.61,4.71,4.71,0,0,1,2.62.69,3.72,3.72,0,0,1,1.51,1.92,5.76,5.76,0,0,1,.21,2.91,7,7,0,0,1-1.08,2.89,5.74,5.74,0,0,1-2.1,1.91A5.93,5.93,0,0,1,1483.4,12.9Zm.35-2.31a2.14,2.14,0,0,0,1.1-.3,2.5,2.5,0,0,0,.88-1,6,6,0,0,0,.54-1.84,5.36,5.36,0,0,0,0-1.91,1.67,1.67,0,0,0-.57-1,1.6,1.6,0,0,0-1-.32,2.11,2.11,0,0,0-1.58.73,4.73,4.73,0,0,0-1,2.53,4.91,4.91,0,0,0,0,1.84,1.62,1.62,0,0,0,.58,1A1.68,1.68,0,0,0,1483.75,10.59Z" transform="translate(-1.9 -1.65)"/><path class="cls-1" d="M1494.79,12.9a5,5,0,0,1-2.65-.58,2.67,2.67,0,0,1-1.2-1.61,5.87,5.87,0,0,1-.07-2.39l1-6.27h2.93l-1,6.39a2.26,2.26,0,0,0,.06,1.19,1.19,1.19,0,0,0,.52.65,1.59,1.59,0,0,0,.82.21,2,2,0,0,0,1.25-.47,2.35,2.35,0,0,0,.76-1.58l1-6.39h2.92l-1,6.27a6.68,6.68,0,0,1-.8,2.39,4.07,4.07,0,0,1-1.7,1.61A6,6,0,0,1,1494.79,12.9Z" transform="translate(-1.9 -1.65)"/><path class="cls-1" d="M1501.38,12.75,1503,2.05h4.85a4.28,4.28,0,0,1,2.18.46,2.27,2.27,0,0,1,1,1.24,3.74,3.74,0,0,1,.11,1.75,4.44,4.44,0,0,1-.43,1.4,3.62,3.62,0,0,1-.76,1,5.06,5.06,0,0,1-1,.72l1.25,4.14h-3l-1-3.68h-1.52l-.56,3.68Zm3.77-5.83h1.66a1.28,1.28,0,0,0,.68-.2,1.82,1.82,0,0,0,.54-.53,1.71,1.71,0,0,0,.27-.66,1.13,1.13,0,0,0-.25-1,1,1,0,0,0-.83-.4h-1.65Z" transform="translate(-1.9 -1.65)"/><path class="cls-1" d="M1511.94,12.75l1.65-10.7h2.9l3.26,6,.91-6h2.89l-1.64,10.7h-2.6l-3.5-6.38-1,6.38Z" transform="translate(-1.9 -1.65)"/><path class="cls-1" d="M1524.06,12.75l1.64-10.7h7.9l-.37,2.38h-5L1528,6.21h4.16l-.35,2.32h-4.18l-.29,1.82h5l-.37,2.4Z" transform="translate(-1.9 -1.65)"/><path class="cls-1" d="M1536.84,12.75l.66-4.45-2.81-6.25h3.11l1.54,3.8,2.68-3.8h3.15l-4.78,6.25-.68,4.45Z" transform="translate(-1.9 -1.65)"/><path class="cls-1" d="M1549.72,9.54a2.09,2.09,0,0,1-1.13-.31,2.35,2.35,0,0,1-.82-.81,2.22,2.22,0,0,1,0-2.23,2.41,2.41,0,0,1,.82-.8,2.2,2.2,0,0,1,2.25,0,2.33,2.33,0,0,1,.82.8,2.16,2.16,0,0,1,0,2.23,2.27,2.27,0,0,1-.82.81A2.08,2.08,0,0,1,1549.72,9.54Z" transform="translate(-1.9 -1.65)"/><path class="cls-1" d="M1557,12.9c-.3,0-.64,0-1,0s-.68-.07-.9-.11l.39-2.59.45.05a4.1,4.1,0,0,0,.49,0,1.34,1.34,0,0,0,1.09-.39,2.65,2.65,0,0,0,.43-1.22l1-6.57h2.88l-1.12,7.31a7,7,0,0,1-.55,2,2.56,2.56,0,0,1-1.12,1.18A4.39,4.39,0,0,1,1557,12.9Z" transform="translate(-1.9 -1.65)"/><path class="cls-1" d="M1566.87,12.9a4.89,4.89,0,0,1-2.66-.68,3.66,3.66,0,0,1-1.51-1.9,5.83,5.83,0,0,1-.2-2.9,7.18,7.18,0,0,1,1.1-2.91,5.79,5.79,0,0,1,2.11-1.92,5.87,5.87,0,0,1,2.83-.69,4.71,4.71,0,0,1,2.62.69,3.74,3.74,0,0,1,1.52,1.92,5.88,5.88,0,0,1,.2,2.91,7,7,0,0,1-1.08,2.89,5.79,5.79,0,0,1-2.09,1.91A6,6,0,0,1,1566.87,12.9Zm.34-2.31a2.09,2.09,0,0,0,1.1-.3,2.5,2.5,0,0,0,.88-1,6,6,0,0,0,.54-1.84,5.4,5.4,0,0,0,0-1.91,1.77,1.77,0,0,0-.57-1,1.62,1.62,0,0,0-1-.32,2.13,2.13,0,0,0-1.58.73,4.81,4.81,0,0,0-1,2.53,5.13,5.13,0,0,0,0,1.84,1.63,1.63,0,0,0,.59,1A1.65,1.65,0,0,0,1567.21,10.59Z" transform="translate(-1.9 -1.65)"/><path class="cls-1" d="M1578.26,12.9a5,5,0,0,1-2.65-.58,2.6,2.6,0,0,1-1.2-1.61,5.85,5.85,0,0,1-.08-2.39l1-6.27h2.92l-1,6.39a2.49,2.49,0,0,0,.06,1.19,1.16,1.16,0,0,0,.53.65,1.58,1.58,0,0,0,.81.21,2,2,0,0,0,1.26-.47,2.38,2.38,0,0,0,.75-1.58l1-6.39h2.92l-1,6.27a6.68,6.68,0,0,1-.81,2.39,4,4,0,0,1-1.69,1.61A6,6,0,0,1,1578.26,12.9Z" transform="translate(-1.9 -1.65)"/><path class="cls-1" d="M1584.82,12.75l1.63-10.7h4.86a4.24,4.24,0,0,1,2.17.46,2.27,2.27,0,0,1,1,1.24,3.73,3.73,0,0,1,.12,1.75,4.43,4.43,0,0,1-.44,1.4,3.8,3.8,0,0,1-.75,1,5.45,5.45,0,0,1-1,.72l1.25,4.14h-3l-1-3.68h-1.52l-.56,3.68Zm3.78-5.83h1.65a1.28,1.28,0,0,0,.68-.2,1.71,1.71,0,0,0,.54-.53,1.57,1.57,0,0,0,.27-.66,1.1,1.1,0,0,0-.25-1,1,1,0,0,0-.82-.4H1589Z" transform="translate(-1.9 -1.65)"/><path class="cls-1" d="M1595.4,12.75,1597,2.05H1600l3.26,6,.9-6h2.9l-1.64,10.7h-2.61l-3.5-6.38-1,6.38Z" transform="translate(-1.9 -1.65)"/><path class="cls-1" d="M1607.51,12.75l1.64-10.7h7.9l-.37,2.38h-5l-.27,1.78h4.16l-.35,2.32h-4.18l-.29,1.82h5l-.37,2.4Z" transform="translate(-1.9 -1.65)"/><path class="cls-1" d="M1620.28,12.75l.66-4.45-2.81-6.25h3.11l1.54,3.8,2.68-3.8h3.15l-4.78,6.25-.68,4.45Z" transform="translate(-1.9 -1.65)"/><path class="cls-1" d="M1633.17,9.54a2.11,2.11,0,0,1-1.13-.31,2.25,2.25,0,0,1-.81-.81,2.22,2.22,0,0,1,0-2.23,2.3,2.3,0,0,1,.81-.8,2.21,2.21,0,0,1,2.26,0,2.3,2.3,0,0,1,.81.8,2.16,2.16,0,0,1,0,2.23,2.25,2.25,0,0,1-.81.81A2.11,2.11,0,0,1,1633.17,9.54Z" transform="translate(-1.9 -1.65)"/><path class="cls-1" d="M1640.47,12.9c-.3,0-.65,0-1,0a8.92,8.92,0,0,1-.89-.11l.38-2.59.46.05a4,4,0,0,0,.48,0,1.32,1.32,0,0,0,1.09-.39,2.54,2.54,0,0,0,.43-1.22l1-6.57h2.87l-1.12,7.31a6.72,6.72,0,0,1-.55,2,2.59,2.59,0,0,1-1.11,1.18A4.41,4.41,0,0,1,1640.47,12.9Z" transform="translate(-1.9 -1.65)"/><path class="cls-1" d="M1650.31,12.9a4.89,4.89,0,0,1-2.66-.68,3.7,3.7,0,0,1-1.51-1.9,5.84,5.84,0,0,1-.19-2.9,7,7,0,0,1,1.1-2.91,5.71,5.71,0,0,1,2.11-1.92A5.84,5.84,0,0,1,1652,1.9a4.65,4.65,0,0,1,2.61.69,3.74,3.74,0,0,1,1.52,1.92,5.87,5.87,0,0,1,.21,2.91,6.89,6.89,0,0,1-1.09,2.89,5.71,5.71,0,0,1-2.09,1.91A5.93,5.93,0,0,1,1650.31,12.9Zm.35-2.31a2.14,2.14,0,0,0,1.1-.3,2.41,2.41,0,0,0,.87-1,5.52,5.52,0,0,0,.54-1.84,5.18,5.18,0,0,0,0-1.91,1.67,1.67,0,0,0-.57-1,1.6,1.6,0,0,0-1-.32,2.11,2.11,0,0,0-1.58.73,4.65,4.65,0,0,0-1,2.53,4.91,4.91,0,0,0,0,1.84,1.62,1.62,0,0,0,.58,1A1.68,1.68,0,0,0,1650.66,10.59Z" transform="translate(-1.9 -1.65)"/><path class="cls-1" d="M1661.71,12.9a5,5,0,0,1-2.65-.58,2.6,2.6,0,0,1-1.2-1.61,5.85,5.85,0,0,1-.08-2.39l1-6.27h2.92l-1,6.39a2.49,2.49,0,0,0,.06,1.19,1.2,1.2,0,0,0,.53.65,1.58,1.58,0,0,0,.81.21,2,2,0,0,0,1.26-.47,2.38,2.38,0,0,0,.75-1.58l1-6.39H1668l-1,6.27a6.68,6.68,0,0,1-.81,2.39,4,4,0,0,1-1.69,1.61A6,6,0,0,1,1661.71,12.9Z" transform="translate(-1.9 -1.65)"/><path class="cls-1" d="M1668.26,12.75l1.63-10.7h4.86a4.27,4.27,0,0,1,2.17.46,2.27,2.27,0,0,1,1,1.24,3.74,3.74,0,0,1,.11,1.75,4.44,4.44,0,0,1-.43,1.4,3.62,3.62,0,0,1-.76,1,5.06,5.06,0,0,1-1,.72l1.25,4.14h-3l-1-3.68h-1.52l-.56,3.68ZM1672,6.92h1.66a1.28,1.28,0,0,0,.68-.2,1.82,1.82,0,0,0,.54-.53,1.71,1.71,0,0,0,.27-.66,1.13,1.13,0,0,0-.25-1,1,1,0,0,0-.83-.4h-1.65Z" transform="translate(-1.9 -1.65)"/><path class="cls-1" d="M1678.84,12.75l1.65-10.7h2.91l3.26,6,.9-6h2.9l-1.65,10.7h-2.6l-3.5-6.38-1,6.38Z" transform="translate(-1.9 -1.65)"/><path class="cls-1" d="M1691,12.75l1.65-10.7h7.9l-.38,2.38h-5l-.27,1.78H1699l-.35,2.32h-4.19l-.28,1.82h5l-.38,2.4Z" transform="translate(-1.9 -1.65)"/><path class="cls-1" d="M1703.74,12.75l.66-4.45-2.8-6.25h3.1l1.54,3.8,2.68-3.8h3.15l-4.78,6.25-.68,4.45Z" transform="translate(-1.9 -1.65)"/><path class="cls-1" d="M1716.61,9.54a2.11,2.11,0,0,1-1.13-.31,2.25,2.25,0,0,1-.81-.81,2.22,2.22,0,0,1,0-2.23,2.3,2.3,0,0,1,.81-.8,2.21,2.21,0,0,1,2.26,0,2.41,2.41,0,0,1,.82.8,2.22,2.22,0,0,1,0,2.23,2.35,2.35,0,0,1-.82.81A2.11,2.11,0,0,1,1716.61,9.54Z" transform="translate(-1.9 -1.65)"/><path class="cls-1" d="M1723.9,12.9c-.31,0-.65,0-1,0s-.68-.07-.9-.11l.39-2.59.46.05a3.93,3.93,0,0,0,.48,0,1.32,1.32,0,0,0,1.09-.39,2.54,2.54,0,0,0,.43-1.22l1-6.57h2.88l-1.12,7.31a7,7,0,0,1-.55,2,2.59,2.59,0,0,1-1.11,1.18A4.41,4.41,0,0,1,1723.9,12.9Z" transform="translate(-1.9 -1.65)"/><path class="cls-1" d="M1733.77,12.9a4.89,4.89,0,0,1-2.66-.68,3.7,3.7,0,0,1-1.51-1.9,6,6,0,0,1-.2-2.9,7.18,7.18,0,0,1,1.1-2.91,5.87,5.87,0,0,1,5-2.61,4.68,4.68,0,0,1,2.61.69,3.74,3.74,0,0,1,1.52,1.92,5.88,5.88,0,0,1,.2,2.91,7,7,0,0,1-1.08,2.89,5.79,5.79,0,0,1-2.09,1.91A6,6,0,0,1,1733.77,12.9Zm.34-2.31a2.15,2.15,0,0,0,1.11-.3,2.49,2.49,0,0,0,.87-1,5.52,5.52,0,0,0,.54-1.84,5.4,5.4,0,0,0,0-1.91,1.77,1.77,0,0,0-.57-1,1.62,1.62,0,0,0-1-.32,2.13,2.13,0,0,0-1.59.73,4.81,4.81,0,0,0-1,2.53,5.09,5.09,0,0,0,0,1.84,1.58,1.58,0,0,0,.58,1A1.67,1.67,0,0,0,1734.11,10.59Z" transform="translate(-1.9 -1.65)"/><path class="cls-1" d="M1745.15,12.9a5,5,0,0,1-2.65-.58,2.64,2.64,0,0,1-1.2-1.61,5.87,5.87,0,0,1-.07-2.39l1-6.27h2.93l-1,6.39a2.49,2.49,0,0,0,.06,1.19,1.25,1.25,0,0,0,.53.65,1.59,1.59,0,0,0,.82.21,2,2,0,0,0,1.25-.47,2.35,2.35,0,0,0,.76-1.58l1-6.39h2.92l-1,6.27a6.68,6.68,0,0,1-.8,2.39,4.07,4.07,0,0,1-1.7,1.61A6,6,0,0,1,1745.15,12.9Z" transform="translate(-1.9 -1.65)"/><path class="cls-1" d="M1751.73,12.75l1.63-10.7h4.86a4.24,4.24,0,0,1,2.17.46,2.27,2.27,0,0,1,1,1.24,3.61,3.61,0,0,1,.11,1.75,4.19,4.19,0,0,1-.43,1.4,3.8,3.8,0,0,1-.75,1,5.45,5.45,0,0,1-1,.72l1.25,4.14h-3l-1-3.68h-1.52l-.56,3.68Zm3.77-5.83h1.66a1.28,1.28,0,0,0,.68-.2,1.71,1.71,0,0,0,.54-.53,1.57,1.57,0,0,0,.27-.66,1.1,1.1,0,0,0-.25-1,1,1,0,0,0-.82-.4h-1.66Z" transform="translate(-1.9 -1.65)"/><path class="cls-1" d="M1762.31,12.75,1764,2.05h2.91l3.26,6,.9-6h2.9l-1.64,10.7h-2.61l-3.5-6.38-1,6.38Z" transform="translate(-1.9 -1.65)"/><path class="cls-1" d="M1774.39,12.75,1776,2.05h7.9l-.38,2.38h-5l-.27,1.78h4.17l-.35,2.32h-4.19l-.28,1.82h5l-.38,2.4Z" transform="translate(-1.9 -1.65)"/><path class="cls-1" d="M1787.18,12.75l.66-4.45L1785,2.05h3.11l1.54,3.8,2.67-3.8h3.16l-4.78,6.25-.69,4.45Z" transform="translate(-1.9 -1.65)"/><path class="cls-1" d="M1800.05,9.54a2.11,2.11,0,0,1-1.13-.31,2.25,2.25,0,0,1-.81-.81,2.22,2.22,0,0,1,0-2.23,2.3,2.3,0,0,1,.81-.8,2.21,2.21,0,0,1,2.26,0,2.41,2.41,0,0,1,.82.8,2.22,2.22,0,0,1,0,2.23,2.35,2.35,0,0,1-.82.81A2.11,2.11,0,0,1,1800.05,9.54Z" transform="translate(-1.9 -1.65)"/><path class="cls-1" d="M1807.35,12.9c-.3,0-.65,0-1,0s-.68-.07-.9-.11l.38-2.59.46.05a4,4,0,0,0,.48,0,1.32,1.32,0,0,0,1.09-.39,2.54,2.54,0,0,0,.43-1.22l1-6.57h2.87L1811,9.36a6.72,6.72,0,0,1-.55,2,2.59,2.59,0,0,1-1.11,1.18A4.39,4.39,0,0,1,1807.35,12.9Z" transform="translate(-1.9 -1.65)"/><path class="cls-1" d="M1817.23,12.9a4.89,4.89,0,0,1-2.66-.68,3.7,3.7,0,0,1-1.51-1.9,6,6,0,0,1-.2-2.9,7.32,7.32,0,0,1,1.1-2.91,5.87,5.87,0,0,1,5-2.61,4.65,4.65,0,0,1,2.61.69A3.74,3.74,0,0,1,1823,4.51a5.88,5.88,0,0,1,.2,2.91,7,7,0,0,1-1.08,2.89,5.79,5.79,0,0,1-2.09,1.91A6,6,0,0,1,1817.23,12.9Zm.34-2.31a2.15,2.15,0,0,0,1.11-.3,2.49,2.49,0,0,0,.87-1,5.52,5.52,0,0,0,.54-1.84,5.4,5.4,0,0,0,0-1.91,1.77,1.77,0,0,0-.57-1,1.62,1.62,0,0,0-1-.32,2.15,2.15,0,0,0-1.59.73,4.81,4.81,0,0,0-1,2.53,5.09,5.09,0,0,0,0,1.84,1.62,1.62,0,0,0,.58,1A1.67,1.67,0,0,0,1817.57,10.59Z" transform="translate(-1.9 -1.65)"/><path class="cls-1" d="M1828.6,12.9a5,5,0,0,1-2.65-.58,2.6,2.6,0,0,1-1.2-1.61,5.85,5.85,0,0,1-.08-2.39l1-6.27h2.93l-1,6.39a2.49,2.49,0,0,0,.06,1.19,1.2,1.2,0,0,0,.53.65,1.58,1.58,0,0,0,.81.21,2,2,0,0,0,1.26-.47,2.38,2.38,0,0,0,.75-1.58l1-6.39h2.92l-.95,6.27a6.88,6.88,0,0,1-.8,2.39,4.13,4.13,0,0,1-1.7,1.61A6,6,0,0,1,1828.6,12.9Z" transform="translate(-1.9 -1.65)"/><path class="cls-1" d="M1835.15,12.75l1.64-10.7h4.85a4.28,4.28,0,0,1,2.18.46,2.27,2.27,0,0,1,1,1.24A3.74,3.74,0,0,1,1845,5.5a4.44,4.44,0,0,1-.43,1.4,3.62,3.62,0,0,1-.76,1,5.06,5.06,0,0,1-1,.72l1.25,4.14h-3l-1-3.68h-1.52l-.56,3.68Zm3.78-5.83h1.66a1.28,1.28,0,0,0,.68-.2,1.94,1.94,0,0,0,.54-.53,1.71,1.71,0,0,0,.27-.66,1.13,1.13,0,0,0-.25-1,1,1,0,0,0-.83-.4h-1.65Z" transform="translate(-1.9 -1.65)"/><path class="cls-1" d="M1845.73,12.75l1.65-10.7h2.9l3.27,6,.9-6h2.9l-1.65,10.7h-2.6l-3.5-6.38-1,6.38Z" transform="translate(-1.9 -1.65)"/><path class="cls-1" d="M1857.84,12.75l1.65-10.7h7.9L1867,4.43h-5l-.27,1.78h4.17l-.35,2.32h-4.19l-.28,1.82h5l-.37,2.4Z" transform="translate(-1.9 -1.65)"/><path class="cls-1" d="M1870.64,12.75l.66-4.45-2.81-6.25h3.11l1.54,3.8,2.67-3.8H1879l-4.78,6.25-.69,4.45Z" transform="translate(-1.9 -1.65)"/><path class="cls-1" d="M1883.5,9.54a2.14,2.14,0,0,1-1.13-.31,2.25,2.25,0,0,1-.81-.81,2.22,2.22,0,0,1,0-2.23,2.3,2.3,0,0,1,.81-.8,2.14,2.14,0,0,1,1.13-.31,2.09,2.09,0,0,1,1.13.31,2.41,2.41,0,0,1,.82.8,2.22,2.22,0,0,1,0,2.23,2.35,2.35,0,0,1-.82.81A2.09,2.09,0,0,1,1883.5,9.54Z" transform="translate(-1.9 -1.65)"/><path class="cls-1" d="M1890.81,12.9c-.3,0-.64,0-1,0s-.68-.07-.9-.11l.39-2.59.45.05a4,4,0,0,0,.48,0,1.32,1.32,0,0,0,1.09-.39,2.54,2.54,0,0,0,.44-1.22l1-6.57h2.87l-1.11,7.31a7,7,0,0,1-.56,2,2.49,2.49,0,0,1-1.11,1.18A4.39,4.39,0,0,1,1890.81,12.9Z" transform="translate(-1.9 -1.65)"/><path class="cls-1" d="M1900.66,12.9a4.89,4.89,0,0,1-2.66-.68,3.7,3.7,0,0,1-1.51-1.9,5.84,5.84,0,0,1-.19-2.9,7.17,7.17,0,0,1,1.09-2.91,5.87,5.87,0,0,1,4.95-2.61,4.65,4.65,0,0,1,2.61.69,3.74,3.74,0,0,1,1.52,1.92,5.77,5.77,0,0,1,.2,2.91,6.75,6.75,0,0,1-1.08,2.89,5.71,5.71,0,0,1-2.09,1.91A5.93,5.93,0,0,1,1900.66,12.9Zm.34-2.31a2.15,2.15,0,0,0,1.11-.3,2.41,2.41,0,0,0,.87-1,5.52,5.52,0,0,0,.54-1.84,5.4,5.4,0,0,0,0-1.91,1.67,1.67,0,0,0-.57-1,1.62,1.62,0,0,0-1-.32,2.11,2.11,0,0,0-1.58.73,4.65,4.65,0,0,0-1,2.53,4.91,4.91,0,0,0,0,1.84,1.62,1.62,0,0,0,.58,1A1.67,1.67,0,0,0,1901,10.59Z" transform="translate(-1.9 -1.65)"/><path class="cls-1" d="M1912.07,12.9a5,5,0,0,1-2.66-.58,2.67,2.67,0,0,1-1.2-1.61,5.87,5.87,0,0,1-.07-2.39l.95-6.27H1912l-1,6.39a2.26,2.26,0,0,0,.06,1.19,1.16,1.16,0,0,0,.53.65,1.55,1.55,0,0,0,.81.21,2,2,0,0,0,1.25-.47,2.35,2.35,0,0,0,.76-1.58l1-6.39h2.92l-.95,6.27a6.68,6.68,0,0,1-.81,2.39,4.1,4.1,0,0,1-1.69,1.61A6,6,0,0,1,1912.07,12.9Z" transform="translate(-1.9 -1.65)"/><path class="cls-1" d="M1918.6,12.75l1.63-10.7h4.86a4.28,4.28,0,0,1,2.18.46,2.21,2.21,0,0,1,1,1.24,3.6,3.6,0,0,1,.12,1.75,4.43,4.43,0,0,1-.44,1.4,3.41,3.41,0,0,1-.75,1,4.84,4.84,0,0,1-1,.72l1.26,4.14h-3l-1-3.68H1922l-.55,3.68Zm3.78-5.83H1924a1.29,1.29,0,0,0,.69-.2,1.94,1.94,0,0,0,.54-.53,1.55,1.55,0,0,0,.26-.66,1.1,1.1,0,0,0-.25-1,1,1,0,0,0-.82-.4h-1.65Z" transform="translate(-1.9 -1.65)"/><path class="cls-1" d="M1929.21,12.75l1.65-10.7h2.9L1937,8l.91-6h2.89l-1.64,10.7h-2.6l-3.5-6.38-1,6.38Z" transform="translate(-1.9 -1.65)"/><path class="cls-1" d="M1941.32,12.75,1943,2.05h7.9l-.38,2.38h-5l-.27,1.78h4.17l-.35,2.32h-4.19l-.28,1.82h5l-.37,2.4Z" transform="translate(-1.9 -1.65)"/><path class="cls-1" d="M1954.09,12.75l.66-4.45-2.81-6.25h3.11l1.54,3.8,2.67-3.8h3.16l-4.78,6.25-.69,4.45Z" transform="translate(-1.9 -1.65)"/><path class="cls-1" d="M1967,9.54a2.11,2.11,0,0,1-1.13-.31,2.25,2.25,0,0,1-.81-.81,2.22,2.22,0,0,1,0-2.23,2.3,2.3,0,0,1,.81-.8,2.21,2.21,0,0,1,2.26,0,2.41,2.41,0,0,1,.82.8,2.22,2.22,0,0,1,0,2.23,2.35,2.35,0,0,1-.82.81A2.11,2.11,0,0,1,1967,9.54Z" transform="translate(-1.9 -1.65)"/><path class="cls-1" d="M1974.27,12.9c-.31,0-.65,0-1,0s-.68-.07-.9-.11l.39-2.59.46.05a4,4,0,0,0,.48,0,1.32,1.32,0,0,0,1.09-.39,2.54,2.54,0,0,0,.43-1.22l1-6.57h2.88L1978,9.36a7,7,0,0,1-.55,2,2.59,2.59,0,0,1-1.11,1.18A4.41,4.41,0,0,1,1974.27,12.9Z" transform="translate(-1.9 -1.65)"/><path class="cls-1" d="M1984.11,12.9a4.89,4.89,0,0,1-2.66-.68,3.7,3.7,0,0,1-1.51-1.9,5.84,5.84,0,0,1-.19-2.9,7.17,7.17,0,0,1,1.09-2.91,5.87,5.87,0,0,1,5-2.61,4.65,4.65,0,0,1,2.61.69,3.74,3.74,0,0,1,1.52,1.92,5.88,5.88,0,0,1,.2,2.91,6.75,6.75,0,0,1-1.08,2.89,5.79,5.79,0,0,1-2.09,1.91A5.93,5.93,0,0,1,1984.11,12.9Zm.34-2.31a2.15,2.15,0,0,0,1.11-.3,2.49,2.49,0,0,0,.87-1,5.52,5.52,0,0,0,.54-1.84,5.4,5.4,0,0,0,0-1.91,1.67,1.67,0,0,0-.57-1,1.62,1.62,0,0,0-1-.32,2.15,2.15,0,0,0-1.59.73,4.81,4.81,0,0,0-1,2.53,5.09,5.09,0,0,0,0,1.84,1.62,1.62,0,0,0,.58,1A1.67,1.67,0,0,0,1984.45,10.59Z" transform="translate(-1.9 -1.65)"/><path class="cls-1" d="M1995.51,12.9a5,5,0,0,1-2.65-.58,2.6,2.6,0,0,1-1.2-1.61,5.85,5.85,0,0,1-.08-2.39l1-6.27h2.92l-1,6.39a2.49,2.49,0,0,0,.06,1.19,1.2,1.2,0,0,0,.53.65,1.58,1.58,0,0,0,.81.21,2,2,0,0,0,1.26-.47,2.38,2.38,0,0,0,.75-1.58l1-6.39h2.92l-1,6.27a6.68,6.68,0,0,1-.81,2.39,4,4,0,0,1-1.69,1.61A6,6,0,0,1,1995.51,12.9Z" transform="translate(-1.9 -1.65)"/><path class="cls-1" d="M2002.08,12.75l1.63-10.7h4.86a4.24,4.24,0,0,1,2.17.46,2.27,2.27,0,0,1,1,1.24,3.6,3.6,0,0,1,.12,1.75,4.43,4.43,0,0,1-.44,1.4,3.8,3.8,0,0,1-.75,1,5.45,5.45,0,0,1-1,.72l1.25,4.14h-3l-1-3.68h-1.52l-.56,3.68Zm3.78-5.83h1.65a1.34,1.34,0,0,0,.69-.2,1.79,1.79,0,0,0,.53-.53,1.45,1.45,0,0,0,.27-.66,1.1,1.1,0,0,0-.25-1,1,1,0,0,0-.82-.4h-1.66Z" transform="translate(-1.9 -1.65)"/><path class="cls-1" d="M2012.65,12.75l1.65-10.7h2.9l3.26,6,.91-6h2.89l-1.64,10.7H2020l-3.5-6.38-1,6.38Z" transform="translate(-1.9 -1.65)"/><path class="cls-1" d="M2024.76,12.75l1.65-10.7h7.89l-.37,2.38h-5l-.27,1.78h4.17l-.35,2.32h-4.19l-.28,1.82h5l-.37,2.4Z" transform="translate(-1.9 -1.65)"/><path class="cls-1" d="M2037.54,12.75l.67-4.45-2.81-6.25h3.11l1.54,3.8,2.67-3.8h3.15L2041.1,8.3l-.69,4.45Z" transform="translate(-1.9 -1.65)"/><path class="cls-1" d="M2050.4,9.54a2.11,2.11,0,0,1-1.13-.31,2.25,2.25,0,0,1-.81-.81,2.22,2.22,0,0,1,0-2.23,2.3,2.3,0,0,1,.81-.8,2.21,2.21,0,0,1,2.26,0,2.41,2.41,0,0,1,.82.8,2.22,2.22,0,0,1,0,2.23,2.35,2.35,0,0,1-.82.81A2.11,2.11,0,0,1,2050.4,9.54Z" transform="translate(-1.9 -1.65)"/><path class="cls-1" d="M2057.71,12.9c-.3,0-.64,0-1,0s-.68-.07-.9-.11l.39-2.59.45.05a4.1,4.1,0,0,0,.49,0,1.3,1.3,0,0,0,1.08-.39,2.54,2.54,0,0,0,.44-1.22l1-6.57h2.88l-1.12,7.31a7,7,0,0,1-.55,2,2.56,2.56,0,0,1-1.12,1.18A4.39,4.39,0,0,1,2057.71,12.9Z" transform="translate(-1.9 -1.65)"/><path class="cls-1" d="M2067.58,12.9a4.89,4.89,0,0,1-2.66-.68,3.7,3.7,0,0,1-1.51-1.9,5.84,5.84,0,0,1-.19-2.9,7,7,0,0,1,1.1-2.91,5.84,5.84,0,0,1,4.94-2.61,4.71,4.71,0,0,1,2.62.69,3.72,3.72,0,0,1,1.51,1.92,5.76,5.76,0,0,1,.21,2.91,7,7,0,0,1-1.08,2.89,5.74,5.74,0,0,1-2.1,1.91A5.93,5.93,0,0,1,2067.58,12.9Zm.35-2.31a2.14,2.14,0,0,0,1.1-.3,2.5,2.5,0,0,0,.88-1,6,6,0,0,0,.54-1.84,5.36,5.36,0,0,0,0-1.91,1.67,1.67,0,0,0-.57-1,1.6,1.6,0,0,0-1-.32,2.11,2.11,0,0,0-1.58.73,4.73,4.73,0,0,0-1,2.53,4.91,4.91,0,0,0,0,1.84,1.62,1.62,0,0,0,.58,1A1.68,1.68,0,0,0,2067.93,10.59Z" transform="translate(-1.9 -1.65)"/><path class="cls-1" d="M2079,12.9a5,5,0,0,1-2.65-.58,2.67,2.67,0,0,1-1.2-1.61,5.87,5.87,0,0,1-.07-2.39l.95-6.27h2.93l-1,6.39a2.26,2.26,0,0,0,.06,1.19,1.19,1.19,0,0,0,.52.65,1.59,1.59,0,0,0,.82.21,2,2,0,0,0,1.25-.47,2.35,2.35,0,0,0,.76-1.58l1-6.39h2.92l-1,6.27a6.68,6.68,0,0,1-.8,2.39,4.07,4.07,0,0,1-1.7,1.61A6,6,0,0,1,2079,12.9Z" transform="translate(-1.9 -1.65)"/><path class="cls-1" d="M2085.52,12.75l1.64-10.7H2092a4.28,4.28,0,0,1,2.18.46,2.27,2.27,0,0,1,1,1.24,3.74,3.74,0,0,1,.11,1.75,4.44,4.44,0,0,1-.43,1.4,3.62,3.62,0,0,1-.76,1,5.06,5.06,0,0,1-1,.72l1.25,4.14h-2.95l-1-3.68H2089l-.56,3.68Zm3.78-5.83H2091a1.28,1.28,0,0,0,.68-.2,1.94,1.94,0,0,0,.54-.53,1.71,1.71,0,0,0,.27-.66,1.13,1.13,0,0,0-.25-1,1,1,0,0,0-.83-.4h-1.65Z" transform="translate(-1.9 -1.65)"/><path class="cls-1" d="M2096.11,12.75l1.65-10.7h2.9l3.27,6,.9-6h2.89l-1.64,10.7h-2.6L2100,6.37l-1,6.38Z" transform="translate(-1.9 -1.65)"/><path class="cls-1" d="M2108.21,12.75l1.65-10.7h7.9l-.37,2.38h-5l-.27,1.78h4.17l-.35,2.32h-4.19l-.28,1.82h5l-.38,2.4Z" transform="translate(-1.9 -1.65)"/><path class="cls-1" d="M2121,12.75l.66-4.45-2.81-6.25H2122l1.54,3.8,2.68-3.8h3.15l-4.78,6.25-.68,4.45Z" transform="translate(-1.9 -1.65)"/><path class="cls-1" d="M2133.85,9.54a2.11,2.11,0,0,1-1.13-.31,2.25,2.25,0,0,1-.81-.81,2.22,2.22,0,0,1,0-2.23,2.3,2.3,0,0,1,.81-.8,2.21,2.21,0,0,1,2.26,0,2.3,2.3,0,0,1,.81.8,2.16,2.16,0,0,1,0,2.23,2.25,2.25,0,0,1-.81.81A2.11,2.11,0,0,1,2133.85,9.54Z" transform="translate(-1.9 -1.65)"/><path class="cls-1" d="M2141.16,12.9c-.31,0-.65,0-1,0s-.68-.07-.9-.11l.39-2.59.46.05a4,4,0,0,0,.48,0,1.32,1.32,0,0,0,1.09-.39,2.54,2.54,0,0,0,.43-1.22l1-6.57H2146l-1.12,7.31a7,7,0,0,1-.55,2,2.59,2.59,0,0,1-1.11,1.18A4.41,4.41,0,0,1,2141.16,12.9Z" transform="translate(-1.9 -1.65)"/><path class="cls-1" d="M2151,12.9a4.86,4.86,0,0,1-2.66-.68,3.72,3.72,0,0,1-1.52-1.9,6,6,0,0,1-.19-2.9,7,7,0,0,1,1.1-2.91,5.84,5.84,0,0,1,4.94-2.61,4.71,4.71,0,0,1,2.62.69,3.72,3.72,0,0,1,1.51,1.92,5.76,5.76,0,0,1,.21,2.91,7,7,0,0,1-1.08,2.89,5.74,5.74,0,0,1-2.1,1.91A5.92,5.92,0,0,1,2151,12.9Zm.34-2.31a2.12,2.12,0,0,0,1.1-.3,2.5,2.5,0,0,0,.88-1,6,6,0,0,0,.54-1.84,5.14,5.14,0,0,0,0-1.91,1.67,1.67,0,0,0-.57-1,1.6,1.6,0,0,0-1-.32,2.11,2.11,0,0,0-1.58.73,4.73,4.73,0,0,0-1,2.53,4.91,4.91,0,0,0,0,1.84,1.62,1.62,0,0,0,.58,1A1.7,1.7,0,0,0,2151.38,10.59Z" transform="translate(-1.9 -1.65)"/><path class="cls-1" d="M2162.4,12.9a5,5,0,0,1-2.65-.58,2.6,2.6,0,0,1-1.2-1.61,5.85,5.85,0,0,1-.08-2.39l1-6.27h2.93l-1,6.39a2.49,2.49,0,0,0,.06,1.19,1.2,1.2,0,0,0,.53.65,1.58,1.58,0,0,0,.81.21A2,2,0,0,0,2164,10a2.34,2.34,0,0,0,.75-1.58l1-6.39h2.92l-1,6.27a6.88,6.88,0,0,1-.8,2.39,4.13,4.13,0,0,1-1.7,1.61A6,6,0,0,1,2162.4,12.9Z" transform="translate(-1.9 -1.65)"/><path class="cls-1" d="M2169,12.75l1.64-10.7h4.85a4.28,4.28,0,0,1,2.18.46,2.27,2.27,0,0,1,1,1.24,3.74,3.74,0,0,1,.11,1.75,4.19,4.19,0,0,1-.44,1.4,3.41,3.41,0,0,1-.75,1,5.06,5.06,0,0,1-1,.72l1.25,4.14h-2.95l-1-3.68h-1.52l-.56,3.68Zm3.78-5.83h1.65a1.29,1.29,0,0,0,.69-.2,1.94,1.94,0,0,0,.54-.53,1.71,1.71,0,0,0,.27-.66,1.17,1.17,0,0,0-.25-1,1,1,0,0,0-.83-.4h-1.65Z" transform="translate(-1.9 -1.65)"/></g></g></g></svg>