<svg xmlns="http://www.w3.org/2000/svg" viewBox="0 0 1944.43 1105.59"><defs><style>.cls-1{fill:#fff;}</style></defs><g id="Layer_2" data-name="Layer 2"><g id="Accordion_menu_expanded" data-name="Accordion menu expanded"><path class="cls-1" d="M16.37,1108.05l-13.74-2v-1.84c0-1,0-1.89.07-2.81a15.38,15.38,0,0,1,.34-2.56,6.48,6.48,0,0,1,.87-2.08,4.07,4.07,0,0,1,1.65-1.41,6.28,6.28,0,0,1,2.68-.5,9.58,9.58,0,0,1,1.49.13,10.6,10.6,0,0,1,1.76.45,8.33,8.33,0,0,1,1.78.91,6.45,6.45,0,0,1,1.56,1.49A7.05,7.05,0,0,1,16,1100a9.81,9.81,0,0,1,.42,3Zm-2.91-4.18v-1.23a3,3,0,0,0-.42-1.56,4.32,4.32,0,0,0-1.15-1.27,5.81,5.81,0,0,0-1.66-.86,6.44,6.44,0,0,0-2-.3,3.22,3.22,0,0,0-1.51.31,2.11,2.11,0,0,0-.91.89,3,3,0,0,0-.3,1.4v1.42Z" transform="translate(-2.46 -2.46)"/><path class="cls-1" d="M16.56,1087.9a6.53,6.53,0,0,1-.74,3.42,3.39,3.39,0,0,1-2.06,1.54,7.56,7.56,0,0,1-3.07.1l-8.06-1.23V1088l8.21,1.27a3.06,3.06,0,0,0,1.52-.08,1.53,1.53,0,0,0,.84-.68,2.11,2.11,0,0,0,.26-1,2.58,2.58,0,0,0-.6-1.62,3,3,0,0,0-2-1l-8.21-1.25v-3.76l8.06,1.23a8.76,8.76,0,0,1,3.07,1,5.35,5.35,0,0,1,2.06,2.18A7.89,7.89,0,0,1,16.56,1087.9Z" transform="translate(-2.46 -2.46)"/><path class="cls-1" d="M16.37,1079.45l-13.74-2.1v-6.26a5.61,5.61,0,0,1,.59-2.8,2.9,2.9,0,0,1,1.59-1.35,4.77,4.77,0,0,1,2.25-.14,5.37,5.37,0,0,1,1.8.56,4.41,4.41,0,0,1,1.27,1,6.55,6.55,0,0,1,.92,1.27l5.32-1.62v3.8l-4.73,1.28v2l4.73.72Zm-7.49-4.87v-2.13a1.58,1.58,0,0,0-.26-.88,2.44,2.44,0,0,0-.67-.69,2.06,2.06,0,0,0-.85-.34,1.41,1.41,0,0,0-1.22.32,1.34,1.34,0,0,0-.51,1.06v2.13Z" transform="translate(-2.46 -2.46)"/><path class="cls-1" d="M16.37,1062.33l-13.74,2.55v-3.49l9.41-1.77L2.63,1055v-3.52l13.74,6.77Z" transform="translate(-2.46 -2.46)"/><path class="cls-1" d="M16.37,1051.86l-13.74-2.1V1046l13.74,2.1Z" transform="translate(-2.46 -2.46)"/><path class="cls-1" d="M16.56,1039.73a9.23,9.23,0,0,1-.25,2.11,5.76,5.76,0,0,1-.79,1.84,3.63,3.63,0,0,1-1.36,1.25,3.48,3.48,0,0,1-2,.36v-3.85a1.47,1.47,0,0,0,.82-.29,1.58,1.58,0,0,0,.53-.72,2.85,2.85,0,0,0,.19-1.1,5.22,5.22,0,0,0-.12-1.13,2.23,2.23,0,0,0-.38-.9,1.09,1.09,0,0,0-.76-.45.63.63,0,0,0-.64.24,2.17,2.17,0,0,0-.35.81,10.83,10.83,0,0,0-.22,1.08l-.36,2.08a3.74,3.74,0,0,1-1.28,2.42,3.45,3.45,0,0,1-2.77.6A4.19,4.19,0,0,1,4.48,1043a6,6,0,0,1-1.5-2.33,8.41,8.41,0,0,1-.52-3,6.38,6.38,0,0,1,.61-2.91,4.74,4.74,0,0,1,1.6-1.86,3.54,3.54,0,0,1,2.12-.59v3.77a1.43,1.43,0,0,0-.86.18,1.25,1.25,0,0,0-.47.66,3.41,3.41,0,0,0-.15,1.09,3.34,3.34,0,0,0,.17,1.16,1.55,1.55,0,0,0,.41.65,1.12,1.12,0,0,0,.5.25.87.87,0,0,0,.75-.2,2.21,2.21,0,0,0,.45-1.14l.36-2.08a5.81,5.81,0,0,1,.79-2.24A3,3,0,0,1,10,1033.3a3.26,3.26,0,0,1,1.34-.3,7,7,0,0,1,1.17.06,3.73,3.73,0,0,1,2.1,1.11,6.53,6.53,0,0,1,1.46,2.37A9.32,9.32,0,0,1,16.56,1039.73Z" transform="translate(-2.46 -2.46)"/><path class="cls-1" d="M12.25,1024.55a2.79,2.79,0,0,1-.39,1.45,3,3,0,0,1-1,1,2.77,2.77,0,0,1-1.44.38,2.71,2.71,0,0,1-1.43-.38,3,3,0,0,1-1-1,2.89,2.89,0,0,1,0-2.9A3.07,3.07,0,0,1,8,1022a2.72,2.72,0,0,1,1.43-.39,2.78,2.78,0,0,1,1.44.39,3.1,3.1,0,0,1,1,1.06A2.76,2.76,0,0,1,12.25,1024.55Z" transform="translate(-2.46 -2.46)"/><path class="cls-1" d="M16.37,1016.63l-13.74-2v-1.84c0-1,0-1.9.07-2.81A15.24,15.24,0,0,1,3,1007.4a6.39,6.39,0,0,1,.87-2.08,4,4,0,0,1,1.65-1.41,6.14,6.14,0,0,1,2.68-.5,9.58,9.58,0,0,1,1.49.13,8.94,8.94,0,0,1,1.76.45,7.84,7.84,0,0,1,1.78.9,6.65,6.65,0,0,1,1.56,1.49,7.23,7.23,0,0,1,1.12,2.2,9.72,9.72,0,0,1,.42,3Zm-2.91-4.17v-1.24a3,3,0,0,0-.42-1.55,4.35,4.35,0,0,0-1.15-1.28,6,6,0,0,0-1.66-.85,6.45,6.45,0,0,0-2-.31,3.22,3.22,0,0,0-1.51.32,2.06,2.06,0,0,0-.91.89,3,3,0,0,0-.3,1.39v1.42Z" transform="translate(-2.46 -2.46)"/><path class="cls-1" d="M16.56,996.48a6.51,6.51,0,0,1-.74,3.41,3.4,3.4,0,0,1-2.06,1.55,7.57,7.57,0,0,1-3.07.09l-8.06-1.23v-3.76l8.21,1.26a3.08,3.08,0,0,0,1.52-.07,1.54,1.54,0,0,0,.84-.69,2.08,2.08,0,0,0,.26-1,2.58,2.58,0,0,0-.6-1.62,3,3,0,0,0-2-1l-8.21-1.25V988.4l8.06,1.23a8.57,8.57,0,0,1,3.07,1,5.35,5.35,0,0,1,2.06,2.18A7.83,7.83,0,0,1,16.56,996.48Z" transform="translate(-2.46 -2.46)"/><path class="cls-1" d="M16.37,988.05,2.63,986v-6.26a5.61,5.61,0,0,1,.59-2.8,2.84,2.84,0,0,1,1.59-1.34,4.64,4.64,0,0,1,2.25-.15,5.6,5.6,0,0,1,1.8.56,4.6,4.6,0,0,1,1.27,1,6.55,6.55,0,0,1,.92,1.27l5.32-1.61v3.79l-4.73,1.28v2l4.73.72Zm-7.49-4.86v-2.13a1.59,1.59,0,0,0-.26-.89,2.44,2.44,0,0,0-.67-.69,2.06,2.06,0,0,0-.85-.34,1.41,1.41,0,0,0-1.22.32,1.34,1.34,0,0,0-.51,1.06v2.13Z" transform="translate(-2.46 -2.46)"/><path class="cls-1" d="M16.37,970.92,2.63,973.47V970L12,968.22,2.63,963.6v-3.52l13.74,6.77Z" transform="translate(-2.46 -2.46)"/><path class="cls-1" d="M16.37,960.44l-13.74-2.1v-3.72l13.74,2.09Z" transform="translate(-2.46 -2.46)"/><path class="cls-1" d="M16.56,948.3a9.32,9.32,0,0,1-.25,2.12,5.61,5.61,0,0,1-.79,1.83,3.45,3.45,0,0,1-3.33,1.62V950a1.4,1.4,0,0,0,.82-.29,1.58,1.58,0,0,0,.53-.72,2.78,2.78,0,0,0,.19-1.1,5.13,5.13,0,0,0-.12-1.12,2.28,2.28,0,0,0-.38-.91,1.12,1.12,0,0,0-.76-.44.6.6,0,0,0-.64.23,2.17,2.17,0,0,0-.35.81,10.49,10.49,0,0,0-.22,1.09l-.36,2.08a3.74,3.74,0,0,1-1.28,2.42,3.53,3.53,0,0,1-2.77.6,4.27,4.27,0,0,1-2.37-1.14A5.94,5.94,0,0,1,3,949.19a8.37,8.37,0,0,1-.52-3,6.38,6.38,0,0,1,.61-2.91,4.64,4.64,0,0,1,1.6-1.85,3.55,3.55,0,0,1,2.12-.6v3.77a1.36,1.36,0,0,0-.86.19,1.19,1.19,0,0,0-.47.65,3.48,3.48,0,0,0-.15,1.1,3.38,3.38,0,0,0,.17,1.16,1.62,1.62,0,0,0,.41.65,1.2,1.2,0,0,0,.5.24.84.84,0,0,0,.75-.2,2.13,2.13,0,0,0,.45-1.13L8,945.2A5.86,5.86,0,0,1,8.74,943,3,3,0,0,1,10,941.88a3.44,3.44,0,0,1,1.34-.31,6.94,6.94,0,0,1,1.17.07,3.66,3.66,0,0,1,2.1,1.1A6.49,6.49,0,0,1,16,945.12,9.26,9.26,0,0,1,16.56,948.3Z" transform="translate(-2.46 -2.46)"/><path class="cls-1" d="M12.25,933.12a2.76,2.76,0,0,1-.39,1.45,3,3,0,0,1-1,1,2.78,2.78,0,0,1-1.44.39A2.72,2.72,0,0,1,8,935.62a3,3,0,0,1-1-1,2.89,2.89,0,0,1,0-2.9,3,3,0,0,1,1-1,2.64,2.64,0,0,1,1.43-.4,2.7,2.7,0,0,1,1.44.4,3,3,0,0,1,1,1A2.79,2.79,0,0,1,12.25,933.12Z" transform="translate(-2.46 -2.46)"/><path class="cls-1" d="M16.37,925.2l-13.74-2v-1.85c0-1,0-1.89.07-2.81A15.26,15.26,0,0,1,3,916a6.44,6.44,0,0,1,.87-2.09,4,4,0,0,1,1.65-1.4A6.13,6.13,0,0,1,8.24,912a11,11,0,0,1,1.49.13,10.6,10.6,0,0,1,1.76.45,8.33,8.33,0,0,1,1.78.91A6.65,6.65,0,0,1,14.83,915,7.28,7.28,0,0,1,16,917.14a9.81,9.81,0,0,1,.42,3ZM13.46,921v-1.24a3.07,3.07,0,0,0-.42-1.56A4.45,4.45,0,0,0,11.89,917a5.79,5.79,0,0,0-1.66-.85,6.16,6.16,0,0,0-2-.31,3.35,3.35,0,0,0-1.51.31,2.17,2.17,0,0,0-.91.89,3,3,0,0,0-.3,1.4v1.42Z" transform="translate(-2.46 -2.46)"/><path class="cls-1" d="M16.56,905.06a6.51,6.51,0,0,1-.74,3.41A3.4,3.4,0,0,1,13.76,910a7.4,7.4,0,0,1-3.07.09l-8.06-1.22v-3.77l8.21,1.26a3.08,3.08,0,0,0,1.52-.07,1.57,1.57,0,0,0,.84-.68,2.15,2.15,0,0,0,.26-1,2.58,2.58,0,0,0-.6-1.62,3,3,0,0,0-2-1l-8.21-1.25V897l8.06,1.23a8.77,8.77,0,0,1,3.07,1,5.35,5.35,0,0,1,2.06,2.18A7.83,7.83,0,0,1,16.56,905.06Z" transform="translate(-2.46 -2.46)"/><path class="cls-1" d="M16.37,896.6,2.63,894.5v-6.25a5.58,5.58,0,0,1,.59-2.8,2.86,2.86,0,0,1,1.59-1.35A4.64,4.64,0,0,1,7.06,884a5.86,5.86,0,0,1,1.8.56,4.8,4.8,0,0,1,1.27,1,6.55,6.55,0,0,1,.92,1.27l5.32-1.61v3.8l-4.73,1.27v2l4.73.72Zm-7.49-4.86v-2.13a1.54,1.54,0,0,0-.26-.88A2.21,2.21,0,0,0,8,888a2,2,0,0,0-.85-.35,1.41,1.41,0,0,0-1.22.32,1.35,1.35,0,0,0-.51,1.06v2.13Z" transform="translate(-2.46 -2.46)"/><path class="cls-1" d="M16.37,879.5,2.63,882.05v-3.49L12,876.79l-9.41-4.61v-3.52l13.74,6.77Z" transform="translate(-2.46 -2.46)"/><path class="cls-1" d="M16.37,869l-13.74-2.1v-3.73l13.74,2.09Z" transform="translate(-2.46 -2.46)"/><path class="cls-1" d="M16.56,856.9a9.38,9.38,0,0,1-.25,2.12,5.7,5.7,0,0,1-.79,1.83,3.45,3.45,0,0,1-3.33,1.62v-3.86a1.47,1.47,0,0,0,.82-.29,1.58,1.58,0,0,0,.53-.72,2.78,2.78,0,0,0,.19-1.1,5.13,5.13,0,0,0-.12-1.12,2.28,2.28,0,0,0-.38-.91,1.12,1.12,0,0,0-.76-.44.6.6,0,0,0-.64.23,2.17,2.17,0,0,0-.35.81,10.83,10.83,0,0,0-.22,1.08l-.36,2.09a3.77,3.77,0,0,1-1.28,2.42,3.53,3.53,0,0,1-2.77.6,4.27,4.27,0,0,1-2.37-1.14A5.94,5.94,0,0,1,3,857.79a8.37,8.37,0,0,1-.52-3,6.38,6.38,0,0,1,.61-2.91,4.64,4.64,0,0,1,1.6-1.85,3.55,3.55,0,0,1,2.12-.6v3.77a1.36,1.36,0,0,0-.86.19,1.19,1.19,0,0,0-.47.65,3.48,3.48,0,0,0-.15,1.1,3.38,3.38,0,0,0,.17,1.16,1.51,1.51,0,0,0,.41.64,1.12,1.12,0,0,0,.5.25.87.87,0,0,0,.75-.2,2.13,2.13,0,0,0,.45-1.13L8,853.8a5.86,5.86,0,0,1,.79-2.25A3,3,0,0,1,10,850.48a3.44,3.44,0,0,1,1.34-.31,6.94,6.94,0,0,1,1.17.07,3.66,3.66,0,0,1,2.1,1.1A6.49,6.49,0,0,1,16,853.72,9.26,9.26,0,0,1,16.56,856.9Z" transform="translate(-2.46 -2.46)"/><path class="cls-1" d="M12.25,841.72a2.79,2.79,0,0,1-.39,1.45,3,3,0,0,1-1,1.05,2.77,2.77,0,0,1-1.44.38A2.71,2.71,0,0,1,8,844.22a3,3,0,0,1-1-1.05,2.89,2.89,0,0,1,0-2.9,3.07,3.07,0,0,1,1-1.06,2.72,2.72,0,0,1,1.43-.39,2.78,2.78,0,0,1,1.44.39,3.1,3.1,0,0,1,1,1.06A2.76,2.76,0,0,1,12.25,841.72Z" transform="translate(-2.46 -2.46)"/><path class="cls-1" d="M16.37,833.78l-13.74-2v-1.84c0-1,0-1.89.07-2.81A15.26,15.26,0,0,1,3,824.55a6.44,6.44,0,0,1,.87-2.09,4,4,0,0,1,1.65-1.4,6.13,6.13,0,0,1,2.68-.51,11,11,0,0,1,1.49.13,10.6,10.6,0,0,1,1.76.45,8.33,8.33,0,0,1,1.78.91,6.65,6.65,0,0,1,1.56,1.49A7.17,7.17,0,0,1,16,825.72a9.81,9.81,0,0,1,.42,3Zm-2.91-4.17v-1.24a3,3,0,0,0-.42-1.56,4.32,4.32,0,0,0-1.15-1.27,5.79,5.79,0,0,0-1.66-.85,6.16,6.16,0,0,0-2-.31,3.22,3.22,0,0,0-1.51.31,2.17,2.17,0,0,0-.91.89,3,3,0,0,0-.3,1.4v1.42Z" transform="translate(-2.46 -2.46)"/><path class="cls-1" d="M16.56,813.63a6.55,6.55,0,0,1-.74,3.42,3.43,3.43,0,0,1-2.06,1.54,7.56,7.56,0,0,1-3.07.1l-8.06-1.23v-3.77L10.84,815a3.06,3.06,0,0,0,1.52-.08,1.53,1.53,0,0,0,.84-.68,2.15,2.15,0,0,0,.26-1.05,2.56,2.56,0,0,0-.6-1.61,3,3,0,0,0-2-1l-8.21-1.24v-3.76l8.06,1.23a8.56,8.56,0,0,1,3.07,1A5.35,5.35,0,0,1,15.82,810,7.89,7.89,0,0,1,16.56,813.63Z" transform="translate(-2.46 -2.46)"/><path class="cls-1" d="M16.37,805.18l-13.74-2.1v-6.25a5.58,5.58,0,0,1,.59-2.8,2.9,2.9,0,0,1,1.59-1.35,4.64,4.64,0,0,1,2.25-.15,5.86,5.86,0,0,1,1.8.56,4.8,4.8,0,0,1,1.27,1,6.86,6.86,0,0,1,.92,1.27l5.32-1.61v3.8l-4.73,1.27v2l4.73.72Zm-7.49-4.86v-2.13a1.56,1.56,0,0,0-.26-.88,2.21,2.21,0,0,0-.67-.69,2.08,2.08,0,0,0-.85-.35,1.41,1.41,0,0,0-1.22.32,1.35,1.35,0,0,0-.51,1.06v2.13Z" transform="translate(-2.46 -2.46)"/><path class="cls-1" d="M16.37,788.06,2.63,790.61v-3.49L12,785.35l-9.41-4.61v-3.52L16.37,784Z" transform="translate(-2.46 -2.46)"/><path class="cls-1" d="M16.37,777.62l-13.74-2.1v-3.73l13.74,2.09Z" transform="translate(-2.46 -2.46)"/><path class="cls-1" d="M16.56,765.47a9.32,9.32,0,0,1-.25,2.12,5.7,5.7,0,0,1-.79,1.83A3.45,3.45,0,0,1,12.19,771v-3.86a1.47,1.47,0,0,0,.82-.29,1.58,1.58,0,0,0,.53-.72,2.78,2.78,0,0,0,.19-1.1,5.13,5.13,0,0,0-.12-1.12,2.28,2.28,0,0,0-.38-.91,1.12,1.12,0,0,0-.76-.44.6.6,0,0,0-.64.23,2.17,2.17,0,0,0-.35.81,10.83,10.83,0,0,0-.22,1.08l-.36,2.09a3.77,3.77,0,0,1-1.28,2.42,3.53,3.53,0,0,1-2.77.6,4.27,4.27,0,0,1-2.37-1.14A5.94,5.94,0,0,1,3,766.36a8.37,8.37,0,0,1-.52-3,6.38,6.38,0,0,1,.61-2.91,4.64,4.64,0,0,1,1.6-1.85,3.55,3.55,0,0,1,2.12-.6v3.77a1.36,1.36,0,0,0-.86.19,1.19,1.19,0,0,0-.47.65,3.48,3.48,0,0,0-.15,1.1,3.38,3.38,0,0,0,.17,1.16,1.62,1.62,0,0,0,.41.65,1.2,1.2,0,0,0,.5.24.87.87,0,0,0,.75-.2,2.13,2.13,0,0,0,.45-1.13L8,762.37a5.86,5.86,0,0,1,.79-2.25A3,3,0,0,1,10,759.05a3.44,3.44,0,0,1,1.34-.31,6.94,6.94,0,0,1,1.17.07,3.66,3.66,0,0,1,2.1,1.1A6.49,6.49,0,0,1,16,762.29,9.26,9.26,0,0,1,16.56,765.47Z" transform="translate(-2.46 -2.46)"/><path class="cls-1" d="M12.25,750.28a2.76,2.76,0,0,1-.39,1.45,3,3,0,0,1-1,1,2.78,2.78,0,0,1-1.44.39A2.72,2.72,0,0,1,8,752.78a3,3,0,0,1-1-1,2.89,2.89,0,0,1,0-2.9,3,3,0,0,1,1-1.05,2.72,2.72,0,0,1,1.43-.39,2.78,2.78,0,0,1,1.44.39,3,3,0,0,1,1,1.05A2.79,2.79,0,0,1,12.25,750.28Z" transform="translate(-2.46 -2.46)"/><path class="cls-1" d="M16.37,742.35l-13.74-2v-1.84c0-1,0-1.9.07-2.81A15.24,15.24,0,0,1,3,733.12,6.54,6.54,0,0,1,3.91,731a4,4,0,0,1,1.65-1.4,6.14,6.14,0,0,1,2.68-.5,9.58,9.58,0,0,1,1.49.13,8.94,8.94,0,0,1,1.76.45,7.84,7.84,0,0,1,1.78.9,6.65,6.65,0,0,1,1.56,1.49A7.28,7.28,0,0,1,16,734.29a9.83,9.83,0,0,1,.42,3Zm-2.91-4.17v-1.24a3.1,3.1,0,0,0-.42-1.56,4.45,4.45,0,0,0-1.15-1.27,5.79,5.79,0,0,0-1.66-.85,6.16,6.16,0,0,0-2-.31,3.35,3.35,0,0,0-1.51.31,2.14,2.14,0,0,0-.91.9,3,3,0,0,0-.3,1.39V737Z" transform="translate(-2.46 -2.46)"/><path class="cls-1" d="M16.56,722.22a6.51,6.51,0,0,1-.74,3.41,3.39,3.39,0,0,1-2.06,1.54,7.56,7.56,0,0,1-3.07.1L2.63,726v-3.77l8.21,1.27a3,3,0,0,0,1.52-.08,1.49,1.49,0,0,0,.84-.68,2.08,2.08,0,0,0,.26-1,2.58,2.58,0,0,0-.6-1.62,3,3,0,0,0-2-1L2.63,717.9v-3.76l8.06,1.23a8.76,8.76,0,0,1,3.07,1,5.38,5.38,0,0,1,2.06,2.19A7.83,7.83,0,0,1,16.56,722.22Z" transform="translate(-2.46 -2.46)"/><path class="cls-1" d="M16.37,713.78l-13.74-2.1v-6.25a5.58,5.58,0,0,1,.59-2.8,2.9,2.9,0,0,1,1.59-1.35,4.64,4.64,0,0,1,2.25-.15,5.86,5.86,0,0,1,1.8.56,4.8,4.8,0,0,1,1.27,1,6.86,6.86,0,0,1,.92,1.27l5.32-1.61v3.8l-4.73,1.27v2l4.73.72Zm-7.49-4.86v-2.13a1.56,1.56,0,0,0-.26-.88,2.21,2.21,0,0,0-.67-.69,2.08,2.08,0,0,0-.85-.35,1.41,1.41,0,0,0-1.22.32,1.35,1.35,0,0,0-.51,1.06v2.13Z" transform="translate(-2.46 -2.46)"/><path class="cls-1" d="M16.37,696.66,2.63,699.21v-3.49L12,694l-9.41-4.61v-3.52l13.74,6.77Z" transform="translate(-2.46 -2.46)"/><path class="cls-1" d="M16.37,686.19l-13.74-2.1v-3.73l13.74,2.1Z" transform="translate(-2.46 -2.46)"/><path class="cls-1" d="M16.56,674a9.3,9.3,0,0,1-.25,2.11,5.76,5.76,0,0,1-.79,1.84,3.71,3.71,0,0,1-1.36,1.25,3.56,3.56,0,0,1-2,.36v-3.86a1.4,1.4,0,0,0,.82-.29,1.58,1.58,0,0,0,.53-.72,2.78,2.78,0,0,0,.19-1.1,5.13,5.13,0,0,0-.12-1.12,2.28,2.28,0,0,0-.38-.91,1.12,1.12,0,0,0-.76-.44.6.6,0,0,0-.64.23,2.17,2.17,0,0,0-.35.81,10.49,10.49,0,0,0-.22,1.09l-.36,2.08a3.74,3.74,0,0,1-1.28,2.42,3.53,3.53,0,0,1-2.77.6,4.2,4.2,0,0,1-2.37-1.14A5.94,5.94,0,0,1,3,674.92a8.37,8.37,0,0,1-.52-3A6.38,6.38,0,0,1,3.07,669a4.71,4.71,0,0,1,1.6-1.85,3.55,3.55,0,0,1,2.12-.6v3.77a1.43,1.43,0,0,0-.86.19,1.18,1.18,0,0,0-.47.66,4,4,0,0,0,0,2.25,1.62,1.62,0,0,0,.41.65,1.09,1.09,0,0,0,.5.24.86.86,0,0,0,.75-.19A2.21,2.21,0,0,0,7.59,673L8,670.93a5.86,5.86,0,0,1,.79-2.25A3,3,0,0,1,10,667.61a3.44,3.44,0,0,1,1.34-.31,8.17,8.17,0,0,1,1.17.07,3.66,3.66,0,0,1,2.1,1.1A6.57,6.57,0,0,1,16,670.85,9.32,9.32,0,0,1,16.56,674Z" transform="translate(-2.46 -2.46)"/><path class="cls-1" d="M12.25,658.85a2.8,2.8,0,0,1-.39,1.46,3,3,0,0,1-1,1,2.78,2.78,0,0,1-1.44.39A2.72,2.72,0,0,1,8,661.35a2.93,2.93,0,0,1-1-1,2.91,2.91,0,0,1,0-2.91,3,3,0,0,1,1-1A2.72,2.72,0,0,1,9.38,656a2.78,2.78,0,0,1,1.44.39,3,3,0,0,1,1,1A2.79,2.79,0,0,1,12.25,658.85Z" transform="translate(-2.46 -2.46)"/><path class="cls-1" d="M16.37,650.91l-13.74-2v-1.84c0-1,0-1.9.07-2.81A15.24,15.24,0,0,1,3,641.68a6.39,6.39,0,0,1,.87-2.08,4.07,4.07,0,0,1,1.65-1.41,6.28,6.28,0,0,1,2.68-.5,9.58,9.58,0,0,1,1.49.13,8.94,8.94,0,0,1,1.76.45,7.89,7.89,0,0,1,1.78.91,6.45,6.45,0,0,1,1.56,1.49A7.05,7.05,0,0,1,16,642.86a9.77,9.77,0,0,1,.42,3Zm-2.91-4.17V645.5A3,3,0,0,0,13,644a4.2,4.2,0,0,0-1.15-1.27,5.81,5.81,0,0,0-1.66-.86,6.44,6.44,0,0,0-2-.3,3.22,3.22,0,0,0-1.51.31,2.11,2.11,0,0,0-.91.89,3,3,0,0,0-.3,1.39v1.42Z" transform="translate(-2.46 -2.46)"/><path class="cls-1" d="M16.56,630.81a6.51,6.51,0,0,1-.74,3.41,3.44,3.44,0,0,1-2.06,1.55,7.75,7.75,0,0,1-3.07.09l-8.06-1.23v-3.77l8.21,1.27a3,3,0,0,0,1.52-.08,1.49,1.49,0,0,0,.84-.68,2.08,2.08,0,0,0,.26-1,2.58,2.58,0,0,0-.6-1.62,3,3,0,0,0-2-1l-8.21-1.25v-3.76L10.69,624a8.57,8.57,0,0,1,3.07,1,5.29,5.29,0,0,1,2.06,2.18A7.83,7.83,0,0,1,16.56,630.81Z" transform="translate(-2.46 -2.46)"/><path class="cls-1" d="M16.37,622.34l-13.74-2.1V614a5.61,5.61,0,0,1,.59-2.8,2.9,2.9,0,0,1,1.59-1.35,4.77,4.77,0,0,1,2.25-.14,5.37,5.37,0,0,1,1.8.56,4.6,4.6,0,0,1,1.27,1,6.55,6.55,0,0,1,.92,1.27l5.32-1.61v3.79L11.64,616v2l4.73.71Zm-7.49-4.87v-2.13a1.58,1.58,0,0,0-.26-.88,2.44,2.44,0,0,0-.67-.69,2.06,2.06,0,0,0-.85-.34,1.41,1.41,0,0,0-1.22.32,1.34,1.34,0,0,0-.51,1.06v2.13Z" transform="translate(-2.46 -2.46)"/><path class="cls-1" d="M16.37,605.22,2.63,607.77v-3.49L12,602.52,2.63,597.9v-3.52l13.74,6.77Z" transform="translate(-2.46 -2.46)"/><path class="cls-1" d="M16.37,594.75l-13.74-2.1v-3.72L16.37,591Z" transform="translate(-2.46 -2.46)"/><path class="cls-1" d="M16.56,582.63a9.32,9.32,0,0,1-.25,2.12,5.61,5.61,0,0,1-.79,1.83,3.45,3.45,0,0,1-3.33,1.62v-3.86a1.4,1.4,0,0,0,.82-.29,1.58,1.58,0,0,0,.53-.72,2.78,2.78,0,0,0,.19-1.1,5.13,5.13,0,0,0-.12-1.12,2.28,2.28,0,0,0-.38-.91,1.12,1.12,0,0,0-.76-.44.6.6,0,0,0-.64.23,2.17,2.17,0,0,0-.35.81,10.49,10.49,0,0,0-.22,1.09L10.9,584a3.74,3.74,0,0,1-1.28,2.42,3.53,3.53,0,0,1-2.77.6,4.27,4.27,0,0,1-2.37-1.14A5.94,5.94,0,0,1,3,583.52a8.37,8.37,0,0,1-.52-3,6.38,6.38,0,0,1,.61-2.91,4.64,4.64,0,0,1,1.6-1.85,3.55,3.55,0,0,1,2.12-.6V579a1.36,1.36,0,0,0-.86.19,1.19,1.19,0,0,0-.47.65,3.48,3.48,0,0,0-.15,1.1,3.38,3.38,0,0,0,.17,1.16,1.62,1.62,0,0,0,.41.65,1.09,1.09,0,0,0,.5.24.84.84,0,0,0,.75-.2,2.13,2.13,0,0,0,.45-1.13L8,579.53a5.86,5.86,0,0,1,.79-2.25A3,3,0,0,1,10,576.21a3.44,3.44,0,0,1,1.34-.31,6.94,6.94,0,0,1,1.17.07,3.66,3.66,0,0,1,2.1,1.1A6.49,6.49,0,0,1,16,579.45,9.31,9.31,0,0,1,16.56,582.63Z" transform="translate(-2.46 -2.46)"/><path class="cls-1" d="M12.25,567.44a2.76,2.76,0,0,1-.39,1.45,3,3,0,0,1-1,1.05,2.78,2.78,0,0,1-1.44.39A2.72,2.72,0,0,1,8,569.94a3,3,0,0,1-1-1.05,2.89,2.89,0,0,1,0-2.9,3,3,0,0,1,1-1,2.72,2.72,0,0,1,1.43-.39,2.78,2.78,0,0,1,1.44.39,3,3,0,0,1,1,1A2.79,2.79,0,0,1,12.25,567.44Z" transform="translate(-2.46 -2.46)"/><path class="cls-1" d="M16.37,559.51l-13.74-2v-1.84c0-1,0-1.9.07-2.81A15.38,15.38,0,0,1,3,550.27a6.39,6.39,0,0,1,.87-2.08,4.07,4.07,0,0,1,1.65-1.41,6.28,6.28,0,0,1,2.68-.5,9.58,9.58,0,0,1,1.49.13,10.6,10.6,0,0,1,1.76.45,7.89,7.89,0,0,1,1.78.91,6.45,6.45,0,0,1,1.56,1.49A7.05,7.05,0,0,1,16,551.45a9.81,9.81,0,0,1,.42,3Zm-2.91-4.18V554.1a3,3,0,0,0-.42-1.56,4.32,4.32,0,0,0-1.15-1.27,5.81,5.81,0,0,0-1.66-.86,6.44,6.44,0,0,0-2-.3,3.22,3.22,0,0,0-1.51.31,2.11,2.11,0,0,0-.91.89,3,3,0,0,0-.3,1.4v1.41Z" transform="translate(-2.46 -2.46)"/><path class="cls-1" d="M16.56,539.37a6.55,6.55,0,0,1-.74,3.42,3.43,3.43,0,0,1-2.06,1.54,7.56,7.56,0,0,1-3.07.1L2.63,543.2v-3.77l8.21,1.27a3.06,3.06,0,0,0,1.52-.08,1.53,1.53,0,0,0,.84-.68,2.15,2.15,0,0,0,.26-1.05,2.56,2.56,0,0,0-.6-1.61,3,3,0,0,0-2-1l-8.21-1.24V531.3l8.06,1.22a8.77,8.77,0,0,1,3.07,1,5.35,5.35,0,0,1,2.06,2.18A7.89,7.89,0,0,1,16.56,539.37Z" transform="translate(-2.46 -2.46)"/><path class="cls-1" d="M16.37,530.94l-13.74-2.1v-6.26a5.61,5.61,0,0,1,.59-2.8,2.84,2.84,0,0,1,1.59-1.34,4.64,4.64,0,0,1,2.25-.15,5.6,5.6,0,0,1,1.8.56,4.6,4.6,0,0,1,1.27,1,6.55,6.55,0,0,1,.92,1.27l5.32-1.61v3.79l-4.73,1.28v2l4.73.72Zm-7.49-4.87V524a1.59,1.59,0,0,0-.26-.89,2.44,2.44,0,0,0-.67-.69A2.06,2.06,0,0,0,7.1,522a1.41,1.41,0,0,0-1.22.32,1.34,1.34,0,0,0-.51,1.06v2.13Z" transform="translate(-2.46 -2.46)"/><path class="cls-1" d="M16.37,513.8,2.63,516.35v-3.49L12,511.09l-9.41-4.61V503l13.74,6.77Z" transform="translate(-2.46 -2.46)"/><path class="cls-1" d="M16.37,503.33l-13.74-2.1v-3.72l13.74,2.09Z" transform="translate(-2.46 -2.46)"/><path class="cls-1" d="M16.56,491.21a9.3,9.3,0,0,1-.25,2.11,5.76,5.76,0,0,1-.79,1.84,3.63,3.63,0,0,1-1.36,1.25,3.48,3.48,0,0,1-2,.36v-3.86a1.47,1.47,0,0,0,.82-.28,1.7,1.7,0,0,0,.53-.72,2.87,2.87,0,0,0,.19-1.11,5.13,5.13,0,0,0-.12-1.12,2.17,2.17,0,0,0-.38-.9,1.09,1.09,0,0,0-.76-.45.62.62,0,0,0-.64.23,2.3,2.3,0,0,0-.35.82,10.28,10.28,0,0,0-.22,1.08l-.36,2.08A3.74,3.74,0,0,1,9.62,495a3.53,3.53,0,0,1-2.77.6,4.14,4.14,0,0,1-2.37-1.14A5.94,5.94,0,0,1,3,492.09a8.36,8.36,0,0,1-.52-3,6.32,6.32,0,0,1,.61-2.91,4.74,4.74,0,0,1,1.6-1.86,3.55,3.55,0,0,1,2.12-.6v3.77a1.43,1.43,0,0,0-.86.19,1.18,1.18,0,0,0-.47.66,3.41,3.41,0,0,0-.15,1.09,3.34,3.34,0,0,0,.17,1.16,1.55,1.55,0,0,0,.41.65,1,1,0,0,0,.5.24.86.86,0,0,0,.75-.19,2.21,2.21,0,0,0,.45-1.14L8,488.1a5.75,5.75,0,0,1,.79-2.24A3,3,0,0,1,10,484.78a3.44,3.44,0,0,1,1.34-.31,8.17,8.17,0,0,1,1.17.07,3.72,3.72,0,0,1,2.1,1.1A6.57,6.57,0,0,1,16,488,9.32,9.32,0,0,1,16.56,491.21Z" transform="translate(-2.46 -2.46)"/><path class="cls-1" d="M12.25,476a2.76,2.76,0,0,1-.39,1.45,3,3,0,0,1-1,1.05,2.78,2.78,0,0,1-1.44.39A2.72,2.72,0,0,1,8,478.51a3,3,0,0,1-1-1.05,2.89,2.89,0,0,1,0-2.9,3,3,0,0,1,1-1.05,2.73,2.73,0,0,1,1.43-.4,2.79,2.79,0,0,1,1.44.4,3,3,0,0,1,1,1.05A2.79,2.79,0,0,1,12.25,476Z" transform="translate(-2.46 -2.46)"/><path class="cls-1" d="M16.37,468.1l-13.74-2v-1.84c0-1,0-1.89.07-2.81A15.26,15.26,0,0,1,3,458.87a6.44,6.44,0,0,1,.87-2.09,4,4,0,0,1,1.65-1.4,6.13,6.13,0,0,1,2.68-.51,11,11,0,0,1,1.49.13,10.6,10.6,0,0,1,1.76.45,8.33,8.33,0,0,1,1.78.91,6.65,6.65,0,0,1,1.56,1.49A7.05,7.05,0,0,1,16,460a9.81,9.81,0,0,1,.42,3Zm-2.91-4.17v-1.24a3,3,0,0,0-.42-1.56,4.32,4.32,0,0,0-1.15-1.27,5.54,5.54,0,0,0-1.66-.85,6.16,6.16,0,0,0-2-.31,3.22,3.22,0,0,0-1.51.31,2.17,2.17,0,0,0-.91.89,3,3,0,0,0-.3,1.4v1.42Z" transform="translate(-2.46 -2.46)"/><path class="cls-1" d="M16.56,448a6.51,6.51,0,0,1-.74,3.41,3.39,3.39,0,0,1-2.06,1.54,7.56,7.56,0,0,1-3.07.1l-8.06-1.23V448l8.21,1.27a3,3,0,0,0,1.52-.08,1.49,1.49,0,0,0,.84-.68,2.08,2.08,0,0,0,.26-1,2.58,2.58,0,0,0-.6-1.62,3,3,0,0,0-2-1l-8.21-1.25v-3.76l8.06,1.23a8.76,8.76,0,0,1,3.07,1,5.38,5.38,0,0,1,2.06,2.19A7.83,7.83,0,0,1,16.56,448Z" transform="translate(-2.46 -2.46)"/><path class="cls-1" d="M16.37,439.5,2.63,437.4v-6.25a5.58,5.58,0,0,1,.59-2.8A2.9,2.9,0,0,1,4.81,427a4.77,4.77,0,0,1,2.25-.15,5.86,5.86,0,0,1,1.8.56,4.8,4.8,0,0,1,1.27,1,6.86,6.86,0,0,1,.92,1.27L16.37,428v3.8l-4.73,1.28v1.95l4.73.72Zm-7.49-4.86v-2.13a1.56,1.56,0,0,0-.26-.88,2.21,2.21,0,0,0-.67-.69,2.08,2.08,0,0,0-.85-.35,1.44,1.44,0,0,0-1.22.32A1.37,1.37,0,0,0,5.37,432v2.13Z" transform="translate(-2.46 -2.46)"/><path class="cls-1" d="M16.37,422.39,2.63,424.94v-3.49L12,419.68l-9.41-4.61v-3.52l13.74,6.77Z" transform="translate(-2.46 -2.46)"/><path class="cls-1" d="M16.37,411.9,2.63,409.8v-3.72l13.74,2.09Z" transform="translate(-2.46 -2.46)"/><path class="cls-1" d="M16.56,399.8a9.3,9.3,0,0,1-.25,2.11,5.76,5.76,0,0,1-.79,1.84A3.71,3.71,0,0,1,14.16,405a3.48,3.48,0,0,1-2,.36V401.5a1.4,1.4,0,0,0,.82-.29,1.61,1.61,0,0,0,.53-.71,2.87,2.87,0,0,0,.19-1.11,5.13,5.13,0,0,0-.12-1.12,2.28,2.28,0,0,0-.38-.91,1.12,1.12,0,0,0-.76-.44.6.6,0,0,0-.64.23,2.17,2.17,0,0,0-.35.81,10.49,10.49,0,0,0-.22,1.09l-.36,2.08a3.74,3.74,0,0,1-1.28,2.42,3.53,3.53,0,0,1-2.77.6A4.14,4.14,0,0,1,4.48,403,5.94,5.94,0,0,1,3,400.68a8.36,8.36,0,0,1-.52-3,6.39,6.39,0,0,1,.61-2.92,4.78,4.78,0,0,1,1.6-1.85,3.55,3.55,0,0,1,2.12-.6v3.77a1.43,1.43,0,0,0-.86.19,1.18,1.18,0,0,0-.47.66,3.41,3.41,0,0,0-.15,1.09,3.34,3.34,0,0,0,.17,1.16,1.62,1.62,0,0,0,.41.65,1,1,0,0,0,.5.24.86.86,0,0,0,.75-.19,2.21,2.21,0,0,0,.45-1.14L8,396.69a5.86,5.86,0,0,1,.79-2.25A3,3,0,0,1,10,393.37a3.44,3.44,0,0,1,1.34-.31,8.17,8.17,0,0,1,1.17.07,3.72,3.72,0,0,1,2.1,1.1A6.57,6.57,0,0,1,16,396.61,9.32,9.32,0,0,1,16.56,399.8Z" transform="translate(-2.46 -2.46)"/><path class="cls-1" d="M12.25,384.6a2.79,2.79,0,0,1-.39,1.45,3,3,0,0,1-1,1.05,2.87,2.87,0,0,1-1.44.38A2.81,2.81,0,0,1,8,387.1a3,3,0,0,1-1-1.05,2.79,2.79,0,0,1-.39-1.45,2.83,2.83,0,0,1,.39-1.46,3.13,3.13,0,0,1,1-1.05,2.72,2.72,0,0,1,1.43-.39,2.78,2.78,0,0,1,1.44.39,3.16,3.16,0,0,1,1,1.05A2.83,2.83,0,0,1,12.25,384.6Z" transform="translate(-2.46 -2.46)"/><path class="cls-1" d="M16.37,376.67l-13.74-2v-1.84c0-1,0-1.9.07-2.81A15.24,15.24,0,0,1,3,367.44a6.39,6.39,0,0,1,.87-2.08A4.07,4.07,0,0,1,5.56,364a6.28,6.28,0,0,1,2.68-.5,9.58,9.58,0,0,1,1.49.13,9.7,9.7,0,0,1,1.76.45,7.89,7.89,0,0,1,1.78.91,6.45,6.45,0,0,1,1.56,1.49A7.05,7.05,0,0,1,16,368.62a9.81,9.81,0,0,1,.42,3Zm-2.91-4.17v-1.23a3,3,0,0,0-.42-1.56,4.2,4.2,0,0,0-1.15-1.27,5.81,5.81,0,0,0-1.66-.86,6.44,6.44,0,0,0-2-.3,3.22,3.22,0,0,0-1.51.31,2.11,2.11,0,0,0-.91.89,3,3,0,0,0-.3,1.39v1.42Z" transform="translate(-2.46 -2.46)"/><path class="cls-1" d="M16.56,356.54a6.51,6.51,0,0,1-.74,3.41,3.4,3.4,0,0,1-2.06,1.55,7.57,7.57,0,0,1-3.07.09l-8.06-1.22V356.6l8.21,1.26a3.08,3.08,0,0,0,1.52-.07,1.54,1.54,0,0,0,.84-.69,2.08,2.08,0,0,0,.26-1,2.58,2.58,0,0,0-.6-1.62,3,3,0,0,0-2-1l-8.21-1.25v-3.76l8.06,1.23a8.77,8.77,0,0,1,3.07,1,5.35,5.35,0,0,1,2.06,2.18A7.83,7.83,0,0,1,16.56,356.54Z" transform="translate(-2.46 -2.46)"/><path class="cls-1" d="M16.37,348.09,2.63,346v-6.26a5.61,5.61,0,0,1,.59-2.8,2.9,2.9,0,0,1,1.59-1.35,4.77,4.77,0,0,1,2.25-.14,5.37,5.37,0,0,1,1.8.56,4.6,4.6,0,0,1,1.27,1,6.55,6.55,0,0,1,.92,1.27l5.32-1.61v3.79l-4.73,1.28v2l4.73.71Zm-7.49-4.87v-2.13a1.58,1.58,0,0,0-.26-.88,2.44,2.44,0,0,0-.67-.69,2.06,2.06,0,0,0-.85-.34,1.41,1.41,0,0,0-1.22.32,1.34,1.34,0,0,0-.51,1.06v2.13Z" transform="translate(-2.46 -2.46)"/><path class="cls-1" d="M16.37,331,2.63,333.53V330L12,328.27l-9.41-4.61v-3.52l13.74,6.77Z" transform="translate(-2.46 -2.46)"/><path class="cls-1" d="M16.37,320.5,2.63,318.4v-3.72l13.74,2.09Z" transform="translate(-2.46 -2.46)"/><path class="cls-1" d="M16.56,308.37a9.23,9.23,0,0,1-.25,2.11,5.76,5.76,0,0,1-.79,1.84,3.63,3.63,0,0,1-1.36,1.25,3.48,3.48,0,0,1-2,.36v-3.85a1.47,1.47,0,0,0,.82-.29,1.64,1.64,0,0,0,.53-.72,2.85,2.85,0,0,0,.19-1.1,5.22,5.22,0,0,0-.12-1.13,2.17,2.17,0,0,0-.38-.9,1.09,1.09,0,0,0-.76-.45.61.61,0,0,0-.64.24,2.17,2.17,0,0,0-.35.81,10.83,10.83,0,0,0-.22,1.08l-.36,2.08a3.74,3.74,0,0,1-1.28,2.42,3.45,3.45,0,0,1-2.77.6,4.19,4.19,0,0,1-2.37-1.13A6,6,0,0,1,3,309.25a8.36,8.36,0,0,1-.52-3,6.38,6.38,0,0,1,.61-2.91,4.74,4.74,0,0,1,1.6-1.86,3.47,3.47,0,0,1,2.12-.59v3.77a1.43,1.43,0,0,0-.86.18,1.25,1.25,0,0,0-.47.66,3.41,3.41,0,0,0-.15,1.09,3.34,3.34,0,0,0,.17,1.16,1.55,1.55,0,0,0,.41.65,1,1,0,0,0,.5.24.86.86,0,0,0,.75-.19,2.21,2.21,0,0,0,.45-1.14L8,305.26A5.75,5.75,0,0,1,8.74,303,3,3,0,0,1,10,301.94a3.26,3.26,0,0,1,1.34-.3,7,7,0,0,1,1.17.06,3.73,3.73,0,0,1,2.1,1.11A6.53,6.53,0,0,1,16,305.18,9.32,9.32,0,0,1,16.56,308.37Z" transform="translate(-2.46 -2.46)"/><path class="cls-1" d="M12.25,293.17a2.83,2.83,0,0,1-.39,1.46,3,3,0,0,1-1,1,2.78,2.78,0,0,1-1.44.39A2.72,2.72,0,0,1,8,295.67a3,3,0,0,1-1-1,2.83,2.83,0,0,1-.39-1.46,2.79,2.79,0,0,1,.39-1.45,3,3,0,0,1,1-1.05,2.72,2.72,0,0,1,1.43-.39,2.78,2.78,0,0,1,1.44.39,3,3,0,0,1,1,1.05A2.79,2.79,0,0,1,12.25,293.17Z" transform="translate(-2.46 -2.46)"/><path class="cls-1" d="M16.37,285.25l-13.74-2v-1.84c0-1,0-1.9.07-2.81A15.38,15.38,0,0,1,3,276a6.39,6.39,0,0,1,.87-2.08,4.07,4.07,0,0,1,1.65-1.41,6.28,6.28,0,0,1,2.68-.5,9.58,9.58,0,0,1,1.49.13,10.6,10.6,0,0,1,1.76.45,7.89,7.89,0,0,1,1.78.91A6.45,6.45,0,0,1,14.83,275,7.05,7.05,0,0,1,16,277.2a9.81,9.81,0,0,1,.42,3Zm-2.91-4.17v-1.23a3,3,0,0,0-.42-1.56A4.2,4.2,0,0,0,11.89,277a5.81,5.81,0,0,0-1.66-.86,6.44,6.44,0,0,0-2-.3,3.22,3.22,0,0,0-1.51.31,2.11,2.11,0,0,0-.91.89,3,3,0,0,0-.3,1.4v1.41Z" transform="translate(-2.46 -2.46)"/><path class="cls-1" d="M16.56,265.11a6.53,6.53,0,0,1-.74,3.42,3.39,3.39,0,0,1-2.06,1.54,7.56,7.56,0,0,1-3.07.1l-8.06-1.23v-3.77l8.21,1.27a3.06,3.06,0,0,0,1.52-.08,1.53,1.53,0,0,0,.84-.68,2.15,2.15,0,0,0,.26-1.05,2.58,2.58,0,0,0-.6-1.61,3,3,0,0,0-2-1L2.63,260.8V257l8.06,1.23a8.76,8.76,0,0,1,3.07,1,5.35,5.35,0,0,1,2.06,2.18A7.89,7.89,0,0,1,16.56,265.11Z" transform="translate(-2.46 -2.46)"/><path class="cls-1" d="M16.37,256.66l-13.74-2.1V248.3a5.61,5.61,0,0,1,.59-2.8,2.84,2.84,0,0,1,1.59-1.34A4.64,4.64,0,0,1,7.06,244a5.6,5.6,0,0,1,1.8.56,4.6,4.6,0,0,1,1.27,1,6.55,6.55,0,0,1,.92,1.27l5.32-1.61V249l-4.73,1.28v2l4.73.72Zm-7.49-4.87v-2.12a1.59,1.59,0,0,0-.26-.89,2.44,2.44,0,0,0-.67-.69,2.06,2.06,0,0,0-.85-.34,1.41,1.41,0,0,0-1.22.32,1.34,1.34,0,0,0-.51,1.06v2.13Z" transform="translate(-2.46 -2.46)"/><path class="cls-1" d="M16.37,239.53,2.63,242.08v-3.49L12,236.82l-9.41-4.61v-3.52l13.74,6.77Z" transform="translate(-2.46 -2.46)"/><path class="cls-1" d="M16.37,229.08,2.63,227v-3.72l13.74,2.09Z" transform="translate(-2.46 -2.46)"/><path class="cls-1" d="M16.56,217a9.3,9.3,0,0,1-.25,2.11,5.76,5.76,0,0,1-.79,1.84,3.71,3.71,0,0,1-1.36,1.25,3.56,3.56,0,0,1-2,.36v-3.86a1.4,1.4,0,0,0,.82-.29,1.61,1.61,0,0,0,.53-.71,2.87,2.87,0,0,0,.19-1.11,5.13,5.13,0,0,0-.12-1.12,2.28,2.28,0,0,0-.38-.91,1.12,1.12,0,0,0-.76-.44.6.6,0,0,0-.64.23,2.17,2.17,0,0,0-.35.81,10.49,10.49,0,0,0-.22,1.09l-.36,2.08a3.74,3.74,0,0,1-1.28,2.42,3.53,3.53,0,0,1-2.77.6,4.14,4.14,0,0,1-2.37-1.14A5.94,5.94,0,0,1,3,217.83a8.37,8.37,0,0,1-.52-3,6.38,6.38,0,0,1,.61-2.91,4.71,4.71,0,0,1,1.6-1.85,3.55,3.55,0,0,1,2.12-.6v3.77a1.43,1.43,0,0,0-.86.19,1.18,1.18,0,0,0-.47.66,4,4,0,0,0,0,2.25,1.62,1.62,0,0,0,.41.65,1,1,0,0,0,.5.24.86.86,0,0,0,.75-.19,2.21,2.21,0,0,0,.45-1.14L8,213.84a5.86,5.86,0,0,1,.79-2.25A3,3,0,0,1,10,210.52a3.44,3.44,0,0,1,1.34-.31,8.17,8.17,0,0,1,1.17.07,3.66,3.66,0,0,1,2.1,1.1A6.57,6.57,0,0,1,16,213.76,9.32,9.32,0,0,1,16.56,217Z" transform="translate(-2.46 -2.46)"/><path class="cls-1" d="M12.25,201.76a2.79,2.79,0,0,1-.39,1.45,2.88,2.88,0,0,1-1,1,2.78,2.78,0,0,1-1.44.39A2.72,2.72,0,0,1,8,204.25a2.85,2.85,0,0,1-1-1,2.79,2.79,0,0,1-.39-1.45,2.83,2.83,0,0,1,.39-1.46,3.13,3.13,0,0,1,1-1.05,2.72,2.72,0,0,1,1.43-.39,2.78,2.78,0,0,1,1.44.39,3.16,3.16,0,0,1,1,1.05A2.83,2.83,0,0,1,12.25,201.76Z" transform="translate(-2.46 -2.46)"/><path class="cls-1" d="M16.37,193.81l-13.74-2V190c0-1,0-1.9.07-2.81A15.24,15.24,0,0,1,3,184.58a6.54,6.54,0,0,1,.87-2.09,4.05,4.05,0,0,1,1.65-1.4,6.14,6.14,0,0,1,2.68-.5,9.58,9.58,0,0,1,1.49.13,8.94,8.94,0,0,1,1.76.45,7.84,7.84,0,0,1,1.78.9,6.65,6.65,0,0,1,1.56,1.49,7.23,7.23,0,0,1,1.12,2.2,9.72,9.72,0,0,1,.42,3Zm-2.91-4.17V188.4a3.1,3.1,0,0,0-.42-1.56,4.45,4.45,0,0,0-1.15-1.27,5.79,5.79,0,0,0-1.66-.85,6.45,6.45,0,0,0-2-.31,3.35,3.35,0,0,0-1.51.31,2.14,2.14,0,0,0-.91.9,3,3,0,0,0-.3,1.39v1.42Z" transform="translate(-2.46 -2.46)"/><path class="cls-1" d="M16.56,173.7a6.55,6.55,0,0,1-.74,3.42,3.43,3.43,0,0,1-2.06,1.54,7.56,7.56,0,0,1-3.07.1l-8.06-1.23v-3.77L10.84,175a3.06,3.06,0,0,0,1.52-.08,1.53,1.53,0,0,0,.84-.68,2.15,2.15,0,0,0,.26-1.05,2.56,2.56,0,0,0-.6-1.61,3,3,0,0,0-2-1l-8.21-1.24v-3.76l8.06,1.22a8.77,8.77,0,0,1,3.07,1,5.35,5.35,0,0,1,2.06,2.18A7.89,7.89,0,0,1,16.56,173.7Z" transform="translate(-2.46 -2.46)"/><path class="cls-1" d="M16.37,165.25l-13.74-2.1v-6.26a5.61,5.61,0,0,1,.59-2.8,2.84,2.84,0,0,1,1.59-1.34,4.64,4.64,0,0,1,2.25-.15,5.6,5.6,0,0,1,1.8.56,4.6,4.6,0,0,1,1.27,1,6.55,6.55,0,0,1,.92,1.27l5.32-1.61v3.79l-4.73,1.28v2l4.73.72Zm-7.49-4.87v-2.12a1.59,1.59,0,0,0-.26-.89,2.44,2.44,0,0,0-.67-.69,2.06,2.06,0,0,0-.85-.34,1.41,1.41,0,0,0-1.22.32,1.34,1.34,0,0,0-.51,1.06v2.13Z" transform="translate(-2.46 -2.46)"/><path class="cls-1" d="M16.37,148.13,2.63,150.68v-3.49L12,145.42l-9.41-4.61v-3.52l13.74,6.77Z" transform="translate(-2.46 -2.46)"/><path class="cls-1" d="M16.37,137.65l-13.74-2.1v-3.72l13.74,2.09Z" transform="translate(-2.46 -2.46)"/><path class="cls-1" d="M16.56,125.51a9.3,9.3,0,0,1-.25,2.11,5.76,5.76,0,0,1-.79,1.84,3.71,3.71,0,0,1-1.36,1.25,3.48,3.48,0,0,1-2,.36v-3.86a1.4,1.4,0,0,0,.82-.29,1.61,1.61,0,0,0,.53-.71,2.87,2.87,0,0,0,.19-1.11,5.13,5.13,0,0,0-.12-1.12,2.28,2.28,0,0,0-.38-.91,1.12,1.12,0,0,0-.76-.44.6.6,0,0,0-.64.23,2.17,2.17,0,0,0-.35.81,10.49,10.49,0,0,0-.22,1.09l-.36,2.08a3.74,3.74,0,0,1-1.28,2.42,3.53,3.53,0,0,1-2.77.6,4.14,4.14,0,0,1-2.37-1.14A5.94,5.94,0,0,1,3,126.39a8.36,8.36,0,0,1-.52-3,6.39,6.39,0,0,1,.61-2.92,4.78,4.78,0,0,1,1.6-1.85,3.55,3.55,0,0,1,2.12-.6v3.77a1.43,1.43,0,0,0-.86.19,1.18,1.18,0,0,0-.47.66,3.41,3.41,0,0,0-.15,1.09,3.34,3.34,0,0,0,.17,1.16,1.62,1.62,0,0,0,.41.65,1,1,0,0,0,.5.24.86.86,0,0,0,.75-.19,2.21,2.21,0,0,0,.45-1.14L8,122.4a5.86,5.86,0,0,1,.79-2.25A3,3,0,0,1,10,119.08a3.44,3.44,0,0,1,1.34-.31,8.17,8.17,0,0,1,1.17.07,3.72,3.72,0,0,1,2.1,1.1A6.57,6.57,0,0,1,16,122.32,9.32,9.32,0,0,1,16.56,125.51Z" transform="translate(-2.46 -2.46)"/><path class="cls-1" d="M12.25,110.34a2.83,2.83,0,0,1-.39,1.46,3,3,0,0,1-1,1,2.78,2.78,0,0,1-1.44.39A2.72,2.72,0,0,1,8,112.84a3,3,0,0,1-1-1,2.83,2.83,0,0,1-.39-1.46,2.79,2.79,0,0,1,.39-1.45,3,3,0,0,1,1-1,2.72,2.72,0,0,1,1.43-.39,2.78,2.78,0,0,1,1.44.39,3,3,0,0,1,1,1A2.79,2.79,0,0,1,12.25,110.34Z" transform="translate(-2.46 -2.46)"/><path class="cls-1" d="M16.37,102.39l-13.74-2V98.53c0-1,0-1.9.07-2.81A15.24,15.24,0,0,1,3,93.16a6.39,6.39,0,0,1,.87-2.08,4.07,4.07,0,0,1,1.65-1.41,6.14,6.14,0,0,1,2.68-.5,9.58,9.58,0,0,1,1.49.13,8.94,8.94,0,0,1,1.76.45,7.84,7.84,0,0,1,1.78.9,6.5,6.5,0,0,1,1.56,1.5A7.05,7.05,0,0,1,16,94.34a9.72,9.72,0,0,1,.42,3Zm-2.91-4.17V97A3,3,0,0,0,13,95.43a4.35,4.35,0,0,0-1.15-1.28,6,6,0,0,0-1.66-.85,6.45,6.45,0,0,0-2-.31,3.22,3.22,0,0,0-1.51.32,2.06,2.06,0,0,0-.91.89,3,3,0,0,0-.3,1.39V97Z" transform="translate(-2.46 -2.46)"/><path class="cls-1" d="M16.56,82.27a6.51,6.51,0,0,1-.74,3.41,3.44,3.44,0,0,1-2.06,1.55,7.75,7.75,0,0,1-3.07.09L2.63,86.09V82.32l8.21,1.27a3,3,0,0,0,1.52-.08,1.49,1.49,0,0,0,.84-.68,2.08,2.08,0,0,0,.26-1,2.58,2.58,0,0,0-.6-1.62,3,3,0,0,0-2-1L2.63,78V74.19l8.06,1.23a8.57,8.57,0,0,1,3.07,1,5.29,5.29,0,0,1,2.06,2.18A7.83,7.83,0,0,1,16.56,82.27Z" transform="translate(-2.46 -2.46)"/><path class="cls-1" d="M16.16,74.17,2.57,71.25,2.94,65a5.6,5.6,0,0,1,.76-2.76A2.94,2.94,0,0,1,5.37,61a4.74,4.74,0,0,1,2.25,0,5.52,5.52,0,0,1,1.76.67,4.76,4.76,0,0,1,1.22,1A6.84,6.84,0,0,1,11.43,64l5.41-1.28-.23,3.79-4.79,1-.12,1.95,4.68,1ZM9,68.86l.13-2.12a1.62,1.62,0,0,0-.21-.9,2.28,2.28,0,0,0-.62-.73,2,2,0,0,0-.84-.39A1.4,1.4,0,0,0,6.2,65a1.37,1.37,0,0,0-.58,1L5.5,68.12Z" transform="translate(-2.46 -2.46)"/><path class="cls-1" d="M17.66,58l-14-.42.74-3.41,9.56.27-8.21-6.5.75-3.44,12,9.53Z" transform="translate(-2.46 -2.46)"/><path class="cls-1" d="M20,48.51,7.72,42,9,38.46,21.21,45Z" transform="translate(-2.46 -2.46)"/><path class="cls-1" d="M24.42,38.09a8.55,8.55,0,0,1-1.2,1.76,5.58,5.58,0,0,1-1.54,1.27,3.87,3.87,0,0,1-1.78.49A3.6,3.6,0,0,1,18,41l1.78-3.43a1.46,1.46,0,0,0,.86.13,1.64,1.64,0,0,0,.8-.4,2.77,2.77,0,0,0,.67-.89,5.75,5.75,0,0,0,.42-1,2.23,2.23,0,0,0,.07-1,1.12,1.12,0,0,0-.46-.75.66.66,0,0,0-.68-.09,2.27,2.27,0,0,0-.69.56c-.23.27-.46.55-.69.86l-1.28,1.69a3.77,3.77,0,0,1-2.25,1.56,3.48,3.48,0,0,1-2.73-.74,4.24,4.24,0,0,1-1.58-2.1A5.91,5.91,0,0,1,12,32.63a8.38,8.38,0,0,1,.91-2.89,6.36,6.36,0,0,1,1.88-2.3A4.65,4.65,0,0,1,17,26.53a3.49,3.49,0,0,1,2.16.45l-1.74,3.34a1.41,1.41,0,0,0-.84-.23,1.2,1.2,0,0,0-.73.37,3.72,3.72,0,0,0-.63.9,3.53,3.53,0,0,0-.39,1.11,1.55,1.55,0,0,0,.07.77,1.11,1.11,0,0,0,.33.44.85.85,0,0,0,.76.17,2,2,0,0,0,.92-.8l1.28-1.68A5.73,5.73,0,0,1,20,29.74a3,3,0,0,1,1.57-.4,3.58,3.58,0,0,1,1.33.35,8.17,8.17,0,0,1,1,.6,3.65,3.65,0,0,1,1.35,1.94,6.4,6.4,0,0,1,.2,2.79A9.25,9.25,0,0,1,24.42,38.09Z" transform="translate(-2.46 -2.46)"/><path class="cls-1" d="M28.84,23.84a2.9,2.9,0,0,1-1.26.83,3.06,3.06,0,0,1-1.47.09,2.75,2.75,0,0,1-1.34-.67,2.72,2.72,0,0,1-.8-1.23,2.93,2.93,0,0,1-.08-1.47,2.86,2.86,0,0,1,1.93-2.17,2.93,2.93,0,0,1,1.47-.1,2.73,2.73,0,0,1,1.33.65A2.77,2.77,0,0,1,29.43,21a3,3,0,0,1,.08,1.48A2.79,2.79,0,0,1,28.84,23.84Z" transform="translate(-2.46 -2.46)"/><path class="cls-1" d="M35.76,21.86,31.31,8.71l.58-.3L33,7.87c.85-.43,1.7-.84,2.53-1.21a14.81,14.81,0,0,1,2.43-.86,6.31,6.31,0,0,1,2.26-.18,4.13,4.13,0,0,1,2,.83A6.14,6.14,0,0,1,43.83,8.6a9.95,9.95,0,0,1,1,3.16,8.36,8.36,0,0,1,0,2,6.46,6.46,0,0,1-.62,2.07,7,7,0,0,1-1.44,2,9.87,9.87,0,0,1-2.51,1.75Zm2.39-4.48,1.1-.57a3,3,0,0,0,1.2-1.08,4.48,4.48,0,0,0,.61-1.6,5.86,5.86,0,0,0,0-1.87,6.16,6.16,0,0,0-.63-1.9,3.3,3.3,0,0,0-1-1.2,2.14,2.14,0,0,0-1.21-.4,3,3,0,0,0-1.38.37l-1.26.64Z" transform="translate(-2.46 -2.46)"/><path class="cls-1" d="M52.06,16.56a6.51,6.51,0,0,1-3.41-.74,3.4,3.4,0,0,1-1.55-2.06A7.57,7.57,0,0,1,47,10.69l1.22-8.06H52l-1.26,8.21a3.08,3.08,0,0,0,.07,1.52,1.54,1.54,0,0,0,.69.84,2.08,2.08,0,0,0,1,.26,2.58,2.58,0,0,0,1.62-.6,3,3,0,0,0,1-2l1.25-8.21h3.76l-1.23,8.06a8.77,8.77,0,0,1-1,3.07,5.35,5.35,0,0,1-2.18,2.06A7.83,7.83,0,0,1,52.06,16.56Z" transform="translate(-2.46 -2.46)"/><path class="cls-1" d="M60.62,16.37l2.1-13.74H69a5.58,5.58,0,0,1,2.8.59,2.9,2.9,0,0,1,1.35,1.59,4.64,4.64,0,0,1,.15,2.25,5.86,5.86,0,0,1-.56,1.8,4.8,4.8,0,0,1-1,1.27,6.86,6.86,0,0,1-1.27.92l1.61,5.32h-3.8L67,11.64h-2l-.72,4.73Zm4.86-7.49h2.13a1.56,1.56,0,0,0,.88-.26A2.21,2.21,0,0,0,69.18,8a2.08,2.08,0,0,0,.35-.85,1.41,1.41,0,0,0-.32-1.22,1.35,1.35,0,0,0-1.06-.51H66Z" transform="translate(-2.46 -2.46)"/><path class="cls-1" d="M77.73,16.37,75.18,2.63h3.49L80.44,12l4.61-9.41h3.52L81.8,16.37Z" transform="translate(-2.46 -2.46)"/><path class="cls-1" d="M88.2,16.37,90.3,2.63H94L91.93,16.37Z" transform="translate(-2.46 -2.46)"/><path class="cls-1" d="M100.33,16.56a9.3,9.3,0,0,1-2.11-.25,5.76,5.76,0,0,1-1.84-.79,3.71,3.71,0,0,1-1.25-1.36,3.46,3.46,0,0,1-.36-2h3.86a1.46,1.46,0,0,0,.29.83,1.67,1.67,0,0,0,.71.52,2.87,2.87,0,0,0,1.11.19,5.13,5.13,0,0,0,1.12-.12,2.28,2.28,0,0,0,.91-.38,1.12,1.12,0,0,0,.44-.76.6.6,0,0,0-.23-.64,2.17,2.17,0,0,0-.81-.35,10.49,10.49,0,0,0-1.09-.22L99,10.9a3.74,3.74,0,0,1-2.42-1.28A3.52,3.52,0,0,1,96,6.85a4.14,4.14,0,0,1,1.14-2.37A5.94,5.94,0,0,1,99.45,3a8.37,8.37,0,0,1,3-.52,6.51,6.51,0,0,1,2.91.61,4.71,4.71,0,0,1,1.85,1.6,3.55,3.55,0,0,1,.6,2.12H104a1.43,1.43,0,0,0-.19-.86,1.18,1.18,0,0,0-.66-.47,3.41,3.41,0,0,0-1.09-.15,3.34,3.34,0,0,0-1.16.17,1.53,1.53,0,0,0-.65.42.94.94,0,0,0-.24.49.86.86,0,0,0,.19.75,2.21,2.21,0,0,0,1.14.45l2.08.36a5.69,5.69,0,0,1,2.25.8A3,3,0,0,1,106.76,10a3.44,3.44,0,0,1,.31,1.34,8.17,8.17,0,0,1-.07,1.17,3.66,3.66,0,0,1-1.1,2.1A6.57,6.57,0,0,1,103.52,16,9.32,9.32,0,0,1,100.33,16.56Z" transform="translate(-2.46 -2.46)"/><path class="cls-1" d="M115.5,12.25a2.79,2.79,0,0,1-1.45-.39,3,3,0,0,1-1-1,2.87,2.87,0,0,1-.38-1.44A2.81,2.81,0,0,1,113,8a3,3,0,0,1,1-1,2.79,2.79,0,0,1,1.45-.39,2.83,2.83,0,0,1,1.46.39A3.13,3.13,0,0,1,118,8a2.72,2.72,0,0,1,.39,1.43,2.78,2.78,0,0,1-.39,1.44,3.16,3.16,0,0,1-1.05,1A2.83,2.83,0,0,1,115.5,12.25Z" transform="translate(-2.46 -2.46)"/><path class="cls-1" d="M123.46,16.37l2-13.74h1.85c1,0,1.89,0,2.81.07a15.26,15.26,0,0,1,2.55.34,6.67,6.67,0,0,1,2.09.87,4,4,0,0,1,1.4,1.65,6.13,6.13,0,0,1,.51,2.68,11,11,0,0,1-.13,1.49,10.6,10.6,0,0,1-.45,1.76,8.33,8.33,0,0,1-.91,1.78,6.65,6.65,0,0,1-1.49,1.56A7.28,7.28,0,0,1,131.52,16a9.81,9.81,0,0,1-3,.42Zm4.17-2.91h1.24a3,3,0,0,0,1.56-.42,4.45,4.45,0,0,0,1.27-1.15,5.79,5.79,0,0,0,.85-1.66,6.16,6.16,0,0,0,.31-2,3.22,3.22,0,0,0-.31-1.51,2.17,2.17,0,0,0-.89-.91,3,3,0,0,0-1.4-.3h-1.42Z" transform="translate(-2.46 -2.46)"/><path class="cls-1" d="M143.6,16.56a6.53,6.53,0,0,1-3.42-.74,3.39,3.39,0,0,1-1.54-2.06,7.56,7.56,0,0,1-.1-3.07l1.23-8.06h3.77l-1.27,8.21a3.06,3.06,0,0,0,.08,1.52,1.53,1.53,0,0,0,.68.84,2.15,2.15,0,0,0,1.05.26,2.58,2.58,0,0,0,1.61-.6,3,3,0,0,0,1-2l1.24-8.21h3.76l-1.23,8.06a8.76,8.76,0,0,1-1,3.07,5.35,5.35,0,0,1-2.18,2.06A7.89,7.89,0,0,1,143.6,16.56Z" transform="translate(-2.46 -2.46)"/><path class="cls-1" d="M152,16.37l2.1-13.74h6.25a5.58,5.58,0,0,1,2.8.59,2.86,2.86,0,0,1,1.35,1.59,4.64,4.64,0,0,1,.15,2.25,5.86,5.86,0,0,1-.56,1.8,4.8,4.8,0,0,1-1,1.27,6.55,6.55,0,0,1-1.27.92l1.61,5.32h-3.8l-1.27-4.73h-2l-.72,4.73Zm4.86-7.49H159a1.54,1.54,0,0,0,.88-.26,2.21,2.21,0,0,0,.69-.67,2,2,0,0,0,.35-.85,1.41,1.41,0,0,0-.32-1.22,1.35,1.35,0,0,0-1.06-.51h-2.13Z" transform="translate(-2.46 -2.46)"/><path class="cls-1" d="M169.16,16.37,166.61,2.63h3.49L171.87,12l4.61-9.41H180l-6.77,13.74Z" transform="translate(-2.46 -2.46)"/><path class="cls-1" d="M179.61,16.37l2.1-13.74h3.73l-2.1,13.74Z" transform="translate(-2.46 -2.46)"/><path class="cls-1" d="M191.75,16.56a9.23,9.23,0,0,1-2.11-.25,5.76,5.76,0,0,1-1.84-.79,3.63,3.63,0,0,1-1.25-1.36,3.46,3.46,0,0,1-.36-2H190a1.54,1.54,0,0,0,.29.83,1.64,1.64,0,0,0,.72.52,2.85,2.85,0,0,0,1.1.19,5.22,5.22,0,0,0,1.13-.12,2.23,2.23,0,0,0,.9-.38,1.09,1.09,0,0,0,.45-.76.63.63,0,0,0-.24-.64,2.17,2.17,0,0,0-.81-.35,10.83,10.83,0,0,0-1.08-.22l-2.08-.36A3.74,3.74,0,0,1,188,9.62a3.45,3.45,0,0,1-.6-2.77,4.19,4.19,0,0,1,1.13-2.37A6,6,0,0,1,190.86,3a8.41,8.41,0,0,1,3-.52,6.51,6.51,0,0,1,2.91.61,4.74,4.74,0,0,1,1.86,1.6,3.54,3.54,0,0,1,.59,2.12h-3.77a1.43,1.43,0,0,0-.18-.86,1.25,1.25,0,0,0-.66-.47,3.41,3.41,0,0,0-1.09-.15,3.34,3.34,0,0,0-1.16.17,1.47,1.47,0,0,0-.65.42,1,1,0,0,0-.25.49.87.87,0,0,0,.2.75,2.21,2.21,0,0,0,1.14.45l2.08.36a5.64,5.64,0,0,1,2.24.8A2.92,2.92,0,0,1,198.18,10a3.42,3.42,0,0,1,.3,1.34,7,7,0,0,1-.06,1.17,3.73,3.73,0,0,1-1.11,2.1A6.49,6.49,0,0,1,194.93,16,9.22,9.22,0,0,1,191.75,16.56Z" transform="translate(-2.46 -2.46)"/><path class="cls-1" d="M207,12.25a2.83,2.83,0,0,1-1.46-.39,3,3,0,0,1-1-1,2.78,2.78,0,0,1-.39-1.44A2.72,2.72,0,0,1,204.45,8a3,3,0,0,1,1-1A2.83,2.83,0,0,1,207,6.53a2.79,2.79,0,0,1,1.45.39,3,3,0,0,1,1,1,2.72,2.72,0,0,1,.39,1.43,2.78,2.78,0,0,1-.39,1.44,3,3,0,0,1-1,1A2.79,2.79,0,0,1,207,12.25Z" transform="translate(-2.46 -2.46)"/><path class="cls-1" d="M214.86,16.37l2-13.74h1.85c1,0,1.89,0,2.81.07a15.26,15.26,0,0,1,2.55.34,6.67,6.67,0,0,1,2.09.87,4,4,0,0,1,1.4,1.65,6.13,6.13,0,0,1,.51,2.68A11,11,0,0,1,228,9.73a10.6,10.6,0,0,1-.45,1.76,8.33,8.33,0,0,1-.91,1.78,6.65,6.65,0,0,1-1.49,1.56A7.28,7.28,0,0,1,222.92,16a9.81,9.81,0,0,1-3,.42ZM219,13.46h1.24a3,3,0,0,0,1.56-.42,4.45,4.45,0,0,0,1.27-1.15,5.79,5.79,0,0,0,.85-1.66,6.16,6.16,0,0,0,.31-2A3.22,3.22,0,0,0,224,6.75a2.17,2.17,0,0,0-.89-.91,3,3,0,0,0-1.4-.3h-1.42Z" transform="translate(-2.46 -2.46)"/><path class="cls-1" d="M235,16.56a6.55,6.55,0,0,1-3.42-.74,3.39,3.39,0,0,1-1.54-2.06,7.56,7.56,0,0,1-.1-3.07l1.23-8.06H235l-1.27,8.21a3.06,3.06,0,0,0,.08,1.52,1.53,1.53,0,0,0,.68.84,2.15,2.15,0,0,0,1.05.26,2.58,2.58,0,0,0,1.61-.6,3,3,0,0,0,1-2l1.24-8.21h3.76l-1.23,8.06a8.56,8.56,0,0,1-1,3.07,5.35,5.35,0,0,1-2.18,2.06A7.89,7.89,0,0,1,235,16.56Z" transform="translate(-2.46 -2.46)"/><path class="cls-1" d="M243.46,16.37l2.1-13.74h6.25a5.58,5.58,0,0,1,2.8.59A2.9,2.9,0,0,1,256,4.81a4.64,4.64,0,0,1,.15,2.25,5.86,5.86,0,0,1-.56,1.8,4.8,4.8,0,0,1-1,1.27,6.86,6.86,0,0,1-1.27.92l1.61,5.32h-3.8l-1.27-4.73h-2l-.72,4.73Zm4.86-7.49h2.13a1.56,1.56,0,0,0,.88-.26A2.21,2.21,0,0,0,252,8a2.08,2.08,0,0,0,.35-.85,1.44,1.44,0,0,0-.32-1.22A1.35,1.35,0,0,0,251,5.37h-2.13Z" transform="translate(-2.46 -2.46)"/><path class="cls-1" d="M260.59,16.37,258,2.63h3.49L263.29,12l4.62-9.41h3.52l-6.77,13.74Z" transform="translate(-2.46 -2.46)"/><path class="cls-1" d="M271.05,16.37l2.1-13.74h3.72l-2.09,13.74Z" transform="translate(-2.46 -2.46)"/><path class="cls-1" d="M283.18,16.56a9.38,9.38,0,0,1-2.12-.25,5.7,5.7,0,0,1-1.83-.79A3.65,3.65,0,0,1,278,14.16a3.54,3.54,0,0,1-.35-2h3.85a1.54,1.54,0,0,0,.29.83,1.64,1.64,0,0,0,.72.52,2.78,2.78,0,0,0,1.1.19,5.13,5.13,0,0,0,1.12-.12,2.28,2.28,0,0,0,.91-.38,1.12,1.12,0,0,0,.44-.76.6.6,0,0,0-.23-.64,2.17,2.17,0,0,0-.81-.35,10.83,10.83,0,0,0-1.08-.22l-2.09-.36a3.77,3.77,0,0,1-2.42-1.28,3.52,3.52,0,0,1-.6-2.77A4.27,4.27,0,0,1,280,4.48,5.94,5.94,0,0,1,282.29,3a8.37,8.37,0,0,1,3-.52,6.51,6.51,0,0,1,2.91.61A4.64,4.64,0,0,1,290,4.67a3.55,3.55,0,0,1,.6,2.12h-3.77a1.36,1.36,0,0,0-.19-.86,1.19,1.19,0,0,0-.65-.47,3.48,3.48,0,0,0-1.1-.15,3.38,3.38,0,0,0-1.16.17,1.43,1.43,0,0,0-.64.42,1,1,0,0,0-.25.49.87.87,0,0,0,.2.75,2.13,2.13,0,0,0,1.13.45l2.09.36a5.7,5.7,0,0,1,2.24.8A2.82,2.82,0,0,1,289.6,10a3.44,3.44,0,0,1,.31,1.34,6.94,6.94,0,0,1-.07,1.17,3.66,3.66,0,0,1-1.1,2.1A6.49,6.49,0,0,1,286.36,16,9.26,9.26,0,0,1,283.18,16.56Z" transform="translate(-2.46 -2.46)"/><path class="cls-1" d="M298.35,12.25a2.83,2.83,0,0,1-1.46-.39,3,3,0,0,1-1-1,2.78,2.78,0,0,1-.39-1.44A2.72,2.72,0,0,1,295.85,8a3,3,0,0,1,1-1,2.83,2.83,0,0,1,1.46-.39,2.79,2.79,0,0,1,1.45.39,3,3,0,0,1,1.05,1,2.72,2.72,0,0,1,.39,1.43,2.78,2.78,0,0,1-.39,1.44,3,3,0,0,1-1.05,1A2.79,2.79,0,0,1,298.35,12.25Z" transform="translate(-2.46 -2.46)"/><path class="cls-1" d="M306.28,16.37l2-13.74h1.85c1,0,1.89,0,2.81.07a15.26,15.26,0,0,1,2.55.34,6.67,6.67,0,0,1,2.09.87A4,4,0,0,1,319,5.56a6.13,6.13,0,0,1,.51,2.68,11,11,0,0,1-.13,1.49,10.6,10.6,0,0,1-.45,1.76,8.33,8.33,0,0,1-.91,1.78,6.65,6.65,0,0,1-1.49,1.56A7.28,7.28,0,0,1,314.34,16a9.81,9.81,0,0,1-3,.42Zm4.17-2.91h1.24a3,3,0,0,0,1.56-.42,4.45,4.45,0,0,0,1.27-1.15,5.79,5.79,0,0,0,.85-1.66,6.16,6.16,0,0,0,.31-2,3.22,3.22,0,0,0-.31-1.51,2.17,2.17,0,0,0-.89-.91,3,3,0,0,0-1.4-.3h-1.42Z" transform="translate(-2.46 -2.46)"/><path class="cls-1" d="M326.43,16.56a6.51,6.51,0,0,1-3.41-.74,3.4,3.4,0,0,1-1.55-2.06,7.4,7.4,0,0,1-.09-3.07l1.22-8.06h3.77l-1.26,8.21a3.08,3.08,0,0,0,.07,1.52,1.57,1.57,0,0,0,.68.84,2.15,2.15,0,0,0,1.05.26,2.58,2.58,0,0,0,1.62-.6,3,3,0,0,0,1-2l1.25-8.21h3.75l-1.22,8.06a8.77,8.77,0,0,1-1,3.07,5.35,5.35,0,0,1-2.18,2.06A7.83,7.83,0,0,1,326.43,16.56Z" transform="translate(-2.46 -2.46)"/><path class="cls-1" d="M334.89,16.37,337,2.63h6.26a5.61,5.61,0,0,1,2.8.59,2.84,2.84,0,0,1,1.34,1.59,4.64,4.64,0,0,1,.15,2.25,5.6,5.6,0,0,1-.56,1.8,4.6,4.6,0,0,1-1,1.27,6.55,6.55,0,0,1-1.27.92l1.61,5.32h-3.79l-1.28-4.73h-2l-.72,4.73Zm4.87-7.49h2.13a1.58,1.58,0,0,0,.88-.26,2.44,2.44,0,0,0,.69-.67,2.06,2.06,0,0,0,.34-.85,1.41,1.41,0,0,0-.32-1.22,1.34,1.34,0,0,0-1.06-.51h-2.13Z" transform="translate(-2.46 -2.46)"/><path class="cls-1" d="M352,16.37,349.44,2.63h3.49L354.7,12l4.61-9.41h3.52l-6.77,13.74Z" transform="translate(-2.46 -2.46)"/><path class="cls-1" d="M362.47,16.37l2.1-13.74h3.73l-2.09,13.74Z" transform="translate(-2.46 -2.46)"/><path class="cls-1" d="M374.62,16.56a9.32,9.32,0,0,1-2.12-.25,5.76,5.76,0,0,1-1.84-.79,3.71,3.71,0,0,1-1.25-1.36,3.54,3.54,0,0,1-.36-2h3.86a1.46,1.46,0,0,0,.29.83,1.64,1.64,0,0,0,.72.52,2.78,2.78,0,0,0,1.1.19,5.13,5.13,0,0,0,1.12-.12,2.28,2.28,0,0,0,.91-.38,1.12,1.12,0,0,0,.44-.76.6.6,0,0,0-.23-.64,2.17,2.17,0,0,0-.81-.35,10.49,10.49,0,0,0-1.09-.22l-2.08-.36a3.74,3.74,0,0,1-2.42-1.28,3.52,3.52,0,0,1-.6-2.77,4.2,4.2,0,0,1,1.14-2.37A5.94,5.94,0,0,1,373.73,3a8.37,8.37,0,0,1,3-.52,6.51,6.51,0,0,1,2.91.61,4.71,4.71,0,0,1,1.85,1.6,3.55,3.55,0,0,1,.6,2.12H378.3a1.43,1.43,0,0,0-.19-.86,1.18,1.18,0,0,0-.66-.47,4,4,0,0,0-2.25,0,1.53,1.53,0,0,0-.65.42,1,1,0,0,0-.24.49.86.86,0,0,0,.19.75,2.21,2.21,0,0,0,1.14.45l2.08.36a5.69,5.69,0,0,1,2.25.8A3,3,0,0,1,381,10a3.44,3.44,0,0,1,.31,1.34,8.17,8.17,0,0,1-.07,1.17,3.66,3.66,0,0,1-1.1,2.1A6.57,6.57,0,0,1,377.8,16,9.31,9.31,0,0,1,374.62,16.56Z" transform="translate(-2.46 -2.46)"/><path class="cls-1" d="M389.79,12.25a2.79,2.79,0,0,1-1.45-.39,3,3,0,0,1-1-1,2.78,2.78,0,0,1-.39-1.44A2.72,2.72,0,0,1,387.29,8a3,3,0,0,1,1-1,2.89,2.89,0,0,1,2.9,0,3,3,0,0,1,1.05,1,2.64,2.64,0,0,1,.4,1.43,2.7,2.7,0,0,1-.4,1.44,3,3,0,0,1-1.05,1A2.76,2.76,0,0,1,389.79,12.25Z" transform="translate(-2.46 -2.46)"/><path class="cls-1" d="M397.71,16.37l2-13.74h1.85c.95,0,1.89,0,2.81.07a15.26,15.26,0,0,1,2.55.34,6.67,6.67,0,0,1,2.09.87,4,4,0,0,1,1.4,1.65,6.13,6.13,0,0,1,.51,2.68,11,11,0,0,1-.13,1.49,10.6,10.6,0,0,1-.45,1.76,8.33,8.33,0,0,1-.91,1.78A6.65,6.65,0,0,1,408,14.83,7.28,7.28,0,0,1,405.77,16a9.81,9.81,0,0,1-3,.42Zm4.17-2.91h1.24a3,3,0,0,0,1.56-.42A4.45,4.45,0,0,0,406,11.89a5.79,5.79,0,0,0,.85-1.66,6.16,6.16,0,0,0,.31-2,3.22,3.22,0,0,0-.31-1.51,2.17,2.17,0,0,0-.89-.91,3,3,0,0,0-1.4-.3h-1.42Z" transform="translate(-2.46 -2.46)"/><path class="cls-1" d="M417.86,16.56a6.51,6.51,0,0,1-3.41-.74,3.39,3.39,0,0,1-1.54-2.06,7.56,7.56,0,0,1-.1-3.07L414,2.63h3.77l-1.27,8.21a3,3,0,0,0,.08,1.52,1.49,1.49,0,0,0,.68.84,2.11,2.11,0,0,0,1,.26,2.58,2.58,0,0,0,1.62-.6,3,3,0,0,0,1-2l1.25-8.21h3.76l-1.23,8.06a8.76,8.76,0,0,1-1,3.07,5.38,5.38,0,0,1-2.19,2.06A7.83,7.83,0,0,1,417.86,16.56Z" transform="translate(-2.46 -2.46)"/><path class="cls-1" d="M426.32,16.37l2.1-13.74h6.25a5.58,5.58,0,0,1,2.8.59,2.82,2.82,0,0,1,1.35,1.59A4.64,4.64,0,0,1,439,7.06a5.6,5.6,0,0,1-.56,1.8,4.8,4.8,0,0,1-1,1.27,6.55,6.55,0,0,1-1.27.92l1.61,5.32H434l-1.27-4.73h-2L430,16.37Zm4.86-7.49h2.13a1.54,1.54,0,0,0,.88-.26,2.35,2.35,0,0,0,.7-.67,2.06,2.06,0,0,0,.34-.85,1.41,1.41,0,0,0-.32-1.22,1.34,1.34,0,0,0-1.06-.51h-2.13Z" transform="translate(-2.46 -2.46)"/><path class="cls-1" d="M443.43,16.37,440.88,2.63h3.49L446.14,12l4.61-9.41h3.52L447.5,16.37Z" transform="translate(-2.46 -2.46)"/><path class="cls-1" d="M453.91,16.37,456,2.63h3.72l-2.09,13.74Z" transform="translate(-2.46 -2.46)"/><path class="cls-1" d="M466,16.56a9.38,9.38,0,0,1-2.12-.25,5.7,5.7,0,0,1-1.83-.79,3.55,3.55,0,0,1-1.25-1.36,3.46,3.46,0,0,1-.36-2h3.85a1.54,1.54,0,0,0,.29.83,1.64,1.64,0,0,0,.72.52,2.81,2.81,0,0,0,1.1.19,5.06,5.06,0,0,0,1.12-.12,2.28,2.28,0,0,0,.91-.38,1.09,1.09,0,0,0,.45-.76.63.63,0,0,0-.24-.64,2.17,2.17,0,0,0-.81-.35,10.83,10.83,0,0,0-1.08-.22l-2.08-.36a3.77,3.77,0,0,1-2.43-1.28,3.48,3.48,0,0,1-.59-2.77,4.19,4.19,0,0,1,1.13-2.37A6,6,0,0,1,465.13,3a8.41,8.41,0,0,1,3-.52,6.51,6.51,0,0,1,2.91.61,4.74,4.74,0,0,1,1.86,1.6,3.61,3.61,0,0,1,.59,2.12H469.7a1.43,1.43,0,0,0-.18-.86,1.25,1.25,0,0,0-.66-.47,3.48,3.48,0,0,0-1.1-.15,3.43,3.43,0,0,0-1.16.17,1.43,1.43,0,0,0-.64.42,1,1,0,0,0-.25.49.87.87,0,0,0,.2.75,2.13,2.13,0,0,0,1.14.45l2.08.36a5.7,5.7,0,0,1,2.24.8A2.82,2.82,0,0,1,472.44,10a3.27,3.27,0,0,1,.31,1.34,6,6,0,0,1-.07,1.17,3.66,3.66,0,0,1-1.1,2.1A6.49,6.49,0,0,1,469.2,16,9.22,9.22,0,0,1,466,16.56Z" transform="translate(-2.46 -2.46)"/><path class="cls-1" d="M481.21,12.25a2.8,2.8,0,0,1-1.46-.39,3,3,0,0,1-1-1,2.78,2.78,0,0,1-.39-1.44A2.72,2.72,0,0,1,478.71,8a2.93,2.93,0,0,1,1-1,2.91,2.91,0,0,1,2.91,0,3,3,0,0,1,1,1,2.72,2.72,0,0,1,.39,1.43,2.78,2.78,0,0,1-.39,1.44,3,3,0,0,1-1,1A2.79,2.79,0,0,1,481.21,12.25Z" transform="translate(-2.46 -2.46)"/><path class="cls-1" d="M489.15,16.37l2-13.74H493c1,0,1.9,0,2.81.07a15.24,15.24,0,0,1,2.56.34,6.61,6.61,0,0,1,2.08.87,4.07,4.07,0,0,1,1.41,1.65,6.28,6.28,0,0,1,.5,2.68,9.58,9.58,0,0,1-.13,1.49,8.94,8.94,0,0,1-.45,1.76,8.28,8.28,0,0,1-.9,1.78,6.7,6.7,0,0,1-1.5,1.56A7.05,7.05,0,0,1,497.2,16a9.72,9.72,0,0,1-3,.42Zm4.17-2.91h1.24a3,3,0,0,0,1.55-.42,4.2,4.2,0,0,0,1.27-1.15,5.81,5.81,0,0,0,.86-1.66,6.44,6.44,0,0,0,.3-2,3.22,3.22,0,0,0-.31-1.51,2.06,2.06,0,0,0-.89-.91,3,3,0,0,0-1.39-.3h-1.42Z" transform="translate(-2.46 -2.46)"/><path class="cls-1" d="M509.28,16.56a6.55,6.55,0,0,1-3.42-.74,3.39,3.39,0,0,1-1.54-2.06,7.56,7.56,0,0,1-.1-3.07l1.23-8.06h3.77L508,10.84a3.06,3.06,0,0,0,.08,1.52,1.53,1.53,0,0,0,.68.84,2.15,2.15,0,0,0,1.05.26,2.58,2.58,0,0,0,1.61-.6,3,3,0,0,0,1-2l1.24-8.21h3.76l-1.23,8.06a8.56,8.56,0,0,1-1,3.07,5.35,5.35,0,0,1-2.18,2.06A7.89,7.89,0,0,1,509.28,16.56Z" transform="translate(-2.46 -2.46)"/><path class="cls-1" d="M517.73,16.37l2.1-13.74h6.25a5.58,5.58,0,0,1,2.8.59,2.9,2.9,0,0,1,1.35,1.59,4.64,4.64,0,0,1,.15,2.25,5.86,5.86,0,0,1-.56,1.8,4.8,4.8,0,0,1-1,1.27,6.55,6.55,0,0,1-1.27.92l1.61,5.32h-3.8l-1.27-4.73h-2l-.72,4.73Zm4.86-7.49h2.13a1.56,1.56,0,0,0,.88-.26,2.21,2.21,0,0,0,.69-.67,2.08,2.08,0,0,0,.35-.85,1.41,1.41,0,0,0-.32-1.22,1.35,1.35,0,0,0-1.06-.51h-2.13Z" transform="translate(-2.46 -2.46)"/><path class="cls-1" d="M534.84,16.37,532.29,2.63h3.49L537.55,12l4.61-9.41h3.52l-6.77,13.74Z" transform="translate(-2.46 -2.46)"/><path class="cls-1" d="M545.32,16.37l2.1-13.74h3.72l-2.09,13.74Z" transform="translate(-2.46 -2.46)"/><path class="cls-1" d="M557.46,16.56a9.32,9.32,0,0,1-2.12-.25,5.76,5.76,0,0,1-1.84-.79,3.71,3.71,0,0,1-1.25-1.36,3.63,3.63,0,0,1-.36-2h3.86A1.46,1.46,0,0,0,556,13a1.64,1.64,0,0,0,.72.52,2.78,2.78,0,0,0,1.1.19,5.13,5.13,0,0,0,1.12-.12,2.28,2.28,0,0,0,.91-.38,1.12,1.12,0,0,0,.44-.76.6.6,0,0,0-.23-.64,2.17,2.17,0,0,0-.81-.35,10.49,10.49,0,0,0-1.09-.22l-2.08-.36a3.74,3.74,0,0,1-2.42-1.28,3.52,3.52,0,0,1-.6-2.77,4.27,4.27,0,0,1,1.14-2.37A5.94,5.94,0,0,1,556.57,3a8.37,8.37,0,0,1,3-.52,6.51,6.51,0,0,1,2.91.61,4.64,4.64,0,0,1,1.85,1.6,3.55,3.55,0,0,1,.6,2.12h-3.77a1.36,1.36,0,0,0-.19-.86,1.19,1.19,0,0,0-.65-.47,3.48,3.48,0,0,0-1.1-.15,3.38,3.38,0,0,0-1.16.17,1.53,1.53,0,0,0-.65.42,1,1,0,0,0-.24.49.84.84,0,0,0,.2.75,2.13,2.13,0,0,0,1.13.45l2.08.36a5.69,5.69,0,0,1,2.25.8A2.89,2.89,0,0,1,563.88,10a3.44,3.44,0,0,1,.31,1.34,6.94,6.94,0,0,1-.07,1.17,3.66,3.66,0,0,1-1.1,2.1A6.49,6.49,0,0,1,560.64,16,9.31,9.31,0,0,1,557.46,16.56Z" transform="translate(-2.46 -2.46)"/><path class="cls-1" d="M572.64,12.25a2.79,2.79,0,0,1-1.45-.39,3,3,0,0,1-1.05-1,2.87,2.87,0,0,1-.38-1.44A2.81,2.81,0,0,1,570.14,8a3,3,0,0,1,1.05-1,2.79,2.79,0,0,1,1.45-.39,2.83,2.83,0,0,1,1.46.39,3.13,3.13,0,0,1,1,1,2.72,2.72,0,0,1,.39,1.43,2.78,2.78,0,0,1-.39,1.44,3.16,3.16,0,0,1-1,1A2.83,2.83,0,0,1,572.64,12.25Z" transform="translate(-2.46 -2.46)"/><path class="cls-1" d="M580.57,16.37l2-13.74h1.84c1,0,1.9,0,2.81.07A15.38,15.38,0,0,1,589.8,3a6.61,6.61,0,0,1,2.08.87,4.07,4.07,0,0,1,1.41,1.65,6.28,6.28,0,0,1,.5,2.68,9.58,9.58,0,0,1-.13,1.49,10.6,10.6,0,0,1-.45,1.76,7.89,7.89,0,0,1-.91,1.78,6.45,6.45,0,0,1-1.49,1.56A7.05,7.05,0,0,1,588.62,16a9.81,9.81,0,0,1-3,.42Zm4.17-2.91H586a3,3,0,0,0,1.56-.42,4.2,4.2,0,0,0,1.27-1.15,5.81,5.81,0,0,0,.86-1.66,6.44,6.44,0,0,0,.3-2,3.22,3.22,0,0,0-.31-1.51,2.11,2.11,0,0,0-.89-.91,3,3,0,0,0-1.4-.3H586Z" transform="translate(-2.46 -2.46)"/><path class="cls-1" d="M600.71,16.56a6.55,6.55,0,0,1-3.42-.74,3.43,3.43,0,0,1-1.54-2.06,7.56,7.56,0,0,1-.1-3.07l1.23-8.06h3.77l-1.27,8.21a3.06,3.06,0,0,0,.08,1.52,1.53,1.53,0,0,0,.68.84,2.15,2.15,0,0,0,1.05.26,2.56,2.56,0,0,0,1.61-.6,3,3,0,0,0,1-2L605,2.63h3.76l-1.23,8.06a8.56,8.56,0,0,1-1,3.07,5.35,5.35,0,0,1-2.18,2.06A7.89,7.89,0,0,1,600.71,16.56Z" transform="translate(-2.46 -2.46)"/><path class="cls-1" d="M609.15,16.37l2.1-13.74h6.25a5.58,5.58,0,0,1,2.8.59,2.86,2.86,0,0,1,1.35,1.59,4.64,4.64,0,0,1,.15,2.25,5.86,5.86,0,0,1-.56,1.8,4.8,4.8,0,0,1-1,1.27,6.55,6.55,0,0,1-1.27.92l1.61,5.32h-3.8l-1.27-4.73h-2l-.72,4.73ZM614,8.88h2.13a1.54,1.54,0,0,0,.88-.26,2.21,2.21,0,0,0,.69-.67,2,2,0,0,0,.35-.85,1.41,1.41,0,0,0-.32-1.22,1.35,1.35,0,0,0-1.06-.51h-2.13Z" transform="translate(-2.46 -2.46)"/><path class="cls-1" d="M626.28,16.37,623.73,2.63h3.49L629,12l4.61-9.41h3.52l-6.77,13.74Z" transform="translate(-2.46 -2.46)"/><path class="cls-1" d="M636.76,16.37l2.1-13.74h3.72l-2.09,13.74Z" transform="translate(-2.46 -2.46)"/><path class="cls-1" d="M648.88,16.56a9.32,9.32,0,0,1-2.12-.25,5.76,5.76,0,0,1-1.84-.79,3.71,3.71,0,0,1-1.25-1.36,3.63,3.63,0,0,1-.36-2h3.86a1.46,1.46,0,0,0,.29.83,1.64,1.64,0,0,0,.72.52,2.78,2.78,0,0,0,1.1.19,5.13,5.13,0,0,0,1.12-.12,2.28,2.28,0,0,0,.91-.38,1.12,1.12,0,0,0,.44-.76.6.6,0,0,0-.23-.64,2.17,2.17,0,0,0-.81-.35,10.49,10.49,0,0,0-1.09-.22l-2.08-.36a3.74,3.74,0,0,1-2.42-1.28,3.52,3.52,0,0,1-.6-2.77,4.2,4.2,0,0,1,1.14-2.37A5.94,5.94,0,0,1,648,3a8.37,8.37,0,0,1,3-.52,6.51,6.51,0,0,1,2.91.61,4.71,4.71,0,0,1,1.85,1.6,3.55,3.55,0,0,1,.6,2.12h-3.77a1.36,1.36,0,0,0-.19-.86,1.18,1.18,0,0,0-.66-.47,4,4,0,0,0-2.25,0,1.53,1.53,0,0,0-.65.42,1,1,0,0,0-.24.49.84.84,0,0,0,.2.75,2.13,2.13,0,0,0,1.13.45L652,8a5.69,5.69,0,0,1,2.25.8A3,3,0,0,1,655.3,10a3.44,3.44,0,0,1,.31,1.34,8.17,8.17,0,0,1-.07,1.17,3.66,3.66,0,0,1-1.1,2.1A6.57,6.57,0,0,1,652.06,16,9.31,9.31,0,0,1,648.88,16.56Z" transform="translate(-2.46 -2.46)"/><path class="cls-1" d="M664.06,12.25a2.76,2.76,0,0,1-1.45-.39,3,3,0,0,1-1.05-1,2.78,2.78,0,0,1-.39-1.44A2.72,2.72,0,0,1,661.56,8a3,3,0,0,1,1.05-1,2.89,2.89,0,0,1,2.9,0,3,3,0,0,1,1,1,2.73,2.73,0,0,1,.4,1.43,2.79,2.79,0,0,1-.4,1.44,3,3,0,0,1-1,1A2.79,2.79,0,0,1,664.06,12.25Z" transform="translate(-2.46 -2.46)"/><path class="cls-1" d="M672,16.37l2-13.74h1.84c1,0,1.89,0,2.81.07a15.26,15.26,0,0,1,2.55.34,6.67,6.67,0,0,1,2.09.87,4,4,0,0,1,1.4,1.65,6.13,6.13,0,0,1,.51,2.68,9.58,9.58,0,0,1-.13,1.49,10.6,10.6,0,0,1-.45,1.76,8.33,8.33,0,0,1-.91,1.78,6.65,6.65,0,0,1-1.49,1.56A7.05,7.05,0,0,1,680.07,16a9.81,9.81,0,0,1-3,.42Zm4.18-2.91h1.23A3,3,0,0,0,679,13a4.32,4.32,0,0,0,1.27-1.15,5.54,5.54,0,0,0,.85-1.66,6.16,6.16,0,0,0,.31-2,3.22,3.22,0,0,0-.31-1.51,2.17,2.17,0,0,0-.89-.91,3,3,0,0,0-1.4-.3h-1.42Z" transform="translate(-2.46 -2.46)"/><path class="cls-1" d="M692.12,16.56a6.58,6.58,0,0,1-3.42-.74,3.43,3.43,0,0,1-1.54-2.06,7.56,7.56,0,0,1-.1-3.07l1.23-8.06h3.77l-1.27,8.21a3.06,3.06,0,0,0,.08,1.52,1.57,1.57,0,0,0,.68.84,2.15,2.15,0,0,0,1.05.26,2.54,2.54,0,0,0,1.61-.6,3,3,0,0,0,1-2l1.24-8.21h3.76L699,10.69a8.77,8.77,0,0,1-1,3.07,5.35,5.35,0,0,1-2.18,2.06A7.83,7.83,0,0,1,692.12,16.56Z" transform="translate(-2.46 -2.46)"/><path class="cls-1" d="M700.58,16.37l2.1-13.74h6.26a5.61,5.61,0,0,1,2.8.59,2.9,2.9,0,0,1,1.35,1.59,4.77,4.77,0,0,1,.14,2.25,5.6,5.6,0,0,1-.56,1.8,4.6,4.6,0,0,1-1,1.27,6.55,6.55,0,0,1-1.27.92L712,16.37h-3.79L707,11.64h-2l-.71,4.73Zm4.87-7.49h2.13a1.58,1.58,0,0,0,.88-.26,2.44,2.44,0,0,0,.69-.67,2.06,2.06,0,0,0,.34-.85,1.41,1.41,0,0,0-.32-1.22,1.34,1.34,0,0,0-1.06-.51H706Z" transform="translate(-2.46 -2.46)"/><path class="cls-1" d="M717.7,16.37,715.15,2.63h3.49L720.41,12,725,2.63h3.52l-6.77,13.74Z" transform="translate(-2.46 -2.46)"/><path class="cls-1" d="M728.17,16.37l2.1-13.74H734L731.9,16.37Z" transform="translate(-2.46 -2.46)"/><path class="cls-1" d="M740.32,16.56a9.38,9.38,0,0,1-2.12-.25,5.7,5.7,0,0,1-1.83-.79,3.55,3.55,0,0,1-1.25-1.36,3.46,3.46,0,0,1-.36-2h3.85a1.54,1.54,0,0,0,.29.83,1.64,1.64,0,0,0,.72.52,2.78,2.78,0,0,0,1.1.19,5.13,5.13,0,0,0,1.12-.12,2.28,2.28,0,0,0,.91-.38,1.13,1.13,0,0,0,.45-.76.63.63,0,0,0-.24-.64,2.17,2.17,0,0,0-.81-.35,10.83,10.83,0,0,0-1.08-.22L739,10.9a3.77,3.77,0,0,1-2.43-1.28,3.52,3.52,0,0,1-.6-2.77,4.27,4.27,0,0,1,1.14-2.37A5.94,5.94,0,0,1,739.43,3a8.37,8.37,0,0,1,3-.52,6.51,6.51,0,0,1,2.91.61,4.74,4.74,0,0,1,1.86,1.6,3.61,3.61,0,0,1,.59,2.12H744a1.36,1.36,0,0,0-.19-.86,1.19,1.19,0,0,0-.65-.47,3.48,3.48,0,0,0-1.1-.15,3.38,3.38,0,0,0-1.16.17,1.43,1.43,0,0,0-.64.42,1,1,0,0,0-.25.49.87.87,0,0,0,.2.75,2.13,2.13,0,0,0,1.13.45l2.09.36a5.7,5.7,0,0,1,2.24.8A2.82,2.82,0,0,1,746.74,10a3.44,3.44,0,0,1,.31,1.34,6.94,6.94,0,0,1-.07,1.17,3.66,3.66,0,0,1-1.1,2.1A6.49,6.49,0,0,1,743.5,16,9.22,9.22,0,0,1,740.32,16.56Z" transform="translate(-2.46 -2.46)"/><path class="cls-1" d="M755.48,12.25a2.79,2.79,0,0,1-1.45-.39,3,3,0,0,1-1-1,2.78,2.78,0,0,1-.39-1.44A2.72,2.72,0,0,1,753,8a3,3,0,0,1,1-1,2.89,2.89,0,0,1,2.9,0A3,3,0,0,1,758,8a2.64,2.64,0,0,1,.4,1.43,2.7,2.7,0,0,1-.4,1.44,3,3,0,0,1-1.05,1A2.76,2.76,0,0,1,755.48,12.25Z" transform="translate(-2.46 -2.46)"/><path class="cls-1" d="M763.44,16.37l2-13.74h1.84c1,0,1.9,0,2.81.07a15.24,15.24,0,0,1,2.56.34,6.61,6.61,0,0,1,2.08.87,4.07,4.07,0,0,1,1.41,1.65,6.28,6.28,0,0,1,.5,2.68,9.58,9.58,0,0,1-.13,1.49,8.94,8.94,0,0,1-.45,1.76,7.84,7.84,0,0,1-.9,1.78,6.5,6.5,0,0,1-1.5,1.56A7.05,7.05,0,0,1,771.49,16a9.72,9.72,0,0,1-3,.42Zm4.17-2.91h1.24A3,3,0,0,0,770.4,13a4.2,4.2,0,0,0,1.27-1.15,5.81,5.81,0,0,0,.86-1.66,6.45,6.45,0,0,0,.31-2,3.22,3.22,0,0,0-.32-1.51,2.06,2.06,0,0,0-.89-.91,3,3,0,0,0-1.39-.3h-1.42Z" transform="translate(-2.46 -2.46)"/><path class="cls-1" d="M783.55,16.56a6.55,6.55,0,0,1-3.42-.74,3.43,3.43,0,0,1-1.54-2.06,7.56,7.56,0,0,1-.1-3.07l1.23-8.06h3.77l-1.27,8.21a3.06,3.06,0,0,0,.08,1.52,1.57,1.57,0,0,0,.68.84,2.15,2.15,0,0,0,1,.26,2.54,2.54,0,0,0,1.61-.6,3,3,0,0,0,1-2l1.24-8.21h3.76l-1.22,8.06a8.77,8.77,0,0,1-1,3.07,5.35,5.35,0,0,1-2.18,2.06A7.83,7.83,0,0,1,783.55,16.56Z" transform="translate(-2.46 -2.46)"/><path class="cls-1" d="M792,16.37l2.1-13.74h6.25a5.58,5.58,0,0,1,2.8.59,2.9,2.9,0,0,1,1.35,1.59,4.64,4.64,0,0,1,.15,2.25,5.86,5.86,0,0,1-.56,1.8,4.8,4.8,0,0,1-1,1.27,6.86,6.86,0,0,1-1.27.92l1.61,5.32h-3.8l-1.27-4.73h-2l-.72,4.73Zm4.86-7.49H799a1.56,1.56,0,0,0,.88-.26,2.21,2.21,0,0,0,.69-.67,2.08,2.08,0,0,0,.35-.85,1.41,1.41,0,0,0-.32-1.22,1.35,1.35,0,0,0-1.06-.51h-2.13Z" transform="translate(-2.46 -2.46)"/><path class="cls-1" d="M809.14,16.37,806.59,2.63h3.49L811.84,12l4.62-9.41H820l-6.77,13.74Z" transform="translate(-2.46 -2.46)"/><path class="cls-1" d="M819.58,16.37l2.1-13.74h3.72l-2.09,13.74Z" transform="translate(-2.46 -2.46)"/><path class="cls-1" d="M831.73,16.56a9.23,9.23,0,0,1-2.11-.25,5.76,5.76,0,0,1-1.84-.79,3.63,3.63,0,0,1-1.25-1.36,3.46,3.46,0,0,1-.36-2H830a1.54,1.54,0,0,0,.29.83,1.7,1.7,0,0,0,.72.52,2.85,2.85,0,0,0,1.1.19,5.22,5.22,0,0,0,1.13-.12,2.23,2.23,0,0,0,.9-.38,1.09,1.09,0,0,0,.45-.76.61.61,0,0,0-.24-.64,2.17,2.17,0,0,0-.81-.35,10.83,10.83,0,0,0-1.08-.22l-2.08-.36A3.74,3.74,0,0,1,828,9.62a3.45,3.45,0,0,1-.6-2.77,4.19,4.19,0,0,1,1.13-2.37A6,6,0,0,1,830.84,3a8.45,8.45,0,0,1,3-.52,6.51,6.51,0,0,1,2.91.61,4.74,4.74,0,0,1,1.86,1.6,3.47,3.47,0,0,1,.59,2.12h-3.77a1.43,1.43,0,0,0-.18-.86,1.25,1.25,0,0,0-.66-.47,3.41,3.41,0,0,0-1.09-.15,3.34,3.34,0,0,0-1.16.17,1.47,1.47,0,0,0-.65.42.94.94,0,0,0-.24.49.86.86,0,0,0,.19.75,2.21,2.21,0,0,0,1.14.45l2.08.36a5.58,5.58,0,0,1,2.24.8A2.92,2.92,0,0,1,838.16,10a3.26,3.26,0,0,1,.3,1.34,7,7,0,0,1-.06,1.17,3.73,3.73,0,0,1-1.11,2.1A6.53,6.53,0,0,1,834.92,16,9.32,9.32,0,0,1,831.73,16.56Z" transform="translate(-2.46 -2.46)"/><path class="cls-1" d="M846.91,12.25a2.83,2.83,0,0,1-1.46-.39,3,3,0,0,1-1-1A2.78,2.78,0,0,1,844,9.38,2.72,2.72,0,0,1,844.41,8a3,3,0,0,1,1-1,2.83,2.83,0,0,1,1.46-.39,2.79,2.79,0,0,1,1.45.39,3,3,0,0,1,1,1,2.72,2.72,0,0,1,.39,1.43,2.78,2.78,0,0,1-.39,1.44,3,3,0,0,1-1,1A2.79,2.79,0,0,1,846.91,12.25Z" transform="translate(-2.46 -2.46)"/><path class="cls-1" d="M854.86,16.37l2-13.74h1.84c1,0,1.9,0,2.81.07a15.38,15.38,0,0,1,2.56.34,6.61,6.61,0,0,1,2.08.87,4.07,4.07,0,0,1,1.41,1.65,6.28,6.28,0,0,1,.5,2.68A9.58,9.58,0,0,1,868,9.73a10.6,10.6,0,0,1-.45,1.76,7.89,7.89,0,0,1-.91,1.78,6.45,6.45,0,0,1-1.49,1.56A7.05,7.05,0,0,1,862.91,16a9.81,9.81,0,0,1-3,.42ZM859,13.46h1.23a3,3,0,0,0,1.56-.42,4.2,4.2,0,0,0,1.27-1.15,5.81,5.81,0,0,0,.86-1.66,6.44,6.44,0,0,0,.3-2,3.22,3.22,0,0,0-.31-1.51,2.11,2.11,0,0,0-.89-.91,3,3,0,0,0-1.4-.3h-1.41Z" transform="translate(-2.46 -2.46)"/><path class="cls-1" d="M875,16.56a6.51,6.51,0,0,1-3.41-.74A3.39,3.39,0,0,1,870,13.76a7.56,7.56,0,0,1-.1-3.07l1.23-8.06h3.77l-1.27,8.21a3.06,3.06,0,0,0,.08,1.52,1.53,1.53,0,0,0,.68.84,2.11,2.11,0,0,0,1,.26,2.58,2.58,0,0,0,1.62-.6,3,3,0,0,0,1-2l1.25-8.21h3.76l-1.23,8.06a8.76,8.76,0,0,1-1,3.07,5.38,5.38,0,0,1-2.19,2.06A7.83,7.83,0,0,1,875,16.56Z" transform="translate(-2.46 -2.46)"/><path class="cls-1" d="M883.42,16.37l2.1-13.74h6.25a5.58,5.58,0,0,1,2.8.59,2.9,2.9,0,0,1,1.35,1.59,4.64,4.64,0,0,1,.15,2.25,5.86,5.86,0,0,1-.56,1.8,4.8,4.8,0,0,1-1,1.27,6.86,6.86,0,0,1-1.27.92l1.61,5.32h-3.8l-1.27-4.73h-2l-.72,4.73Zm4.86-7.49h2.13a1.56,1.56,0,0,0,.88-.26A2.21,2.21,0,0,0,892,8a2.08,2.08,0,0,0,.35-.85A1.44,1.44,0,0,0,892,5.88,1.35,1.35,0,0,0,891,5.37h-2.13Z" transform="translate(-2.46 -2.46)"/><path class="cls-1" d="M900.55,16.37,898,2.63h3.49L903.26,12l4.61-9.41h3.52l-6.77,13.74Z" transform="translate(-2.46 -2.46)"/><path class="cls-1" d="M911,16.37l2.1-13.74h3.72l-2.09,13.74Z" transform="translate(-2.46 -2.46)"/><path class="cls-1" d="M923.17,16.56a9.32,9.32,0,0,1-2.12-.25,5.76,5.76,0,0,1-1.84-.79A3.71,3.71,0,0,1,918,14.16a3.63,3.63,0,0,1-.36-2h3.86a1.46,1.46,0,0,0,.29.83,1.64,1.64,0,0,0,.72.52,2.78,2.78,0,0,0,1.1.19,5.13,5.13,0,0,0,1.12-.12,2.28,2.28,0,0,0,.91-.38,1.12,1.12,0,0,0,.44-.76.6.6,0,0,0-.23-.64,2.17,2.17,0,0,0-.81-.35,10.49,10.49,0,0,0-1.09-.22l-2.08-.36a3.74,3.74,0,0,1-2.42-1.28,3.52,3.52,0,0,1-.6-2.77A4.2,4.2,0,0,1,920,4.48,5.94,5.94,0,0,1,922.28,3a8.37,8.37,0,0,1,3-.52,6.51,6.51,0,0,1,2.91.61A4.71,4.71,0,0,1,930,4.67a3.55,3.55,0,0,1,.6,2.12h-3.77a1.36,1.36,0,0,0-.19-.86,1.18,1.18,0,0,0-.66-.47,4,4,0,0,0-2.25,0,1.53,1.53,0,0,0-.65.42,1,1,0,0,0-.24.49.84.84,0,0,0,.2.75,2.13,2.13,0,0,0,1.13.45l2.08.36a5.69,5.69,0,0,1,2.25.8A2.89,2.89,0,0,1,929.59,10a3.44,3.44,0,0,1,.31,1.34,8.17,8.17,0,0,1-.07,1.17,3.66,3.66,0,0,1-1.1,2.1A6.49,6.49,0,0,1,926.35,16,9.31,9.31,0,0,1,923.17,16.56Z" transform="translate(-2.46 -2.46)"/><path class="cls-1" d="M938.35,12.25a2.83,2.83,0,0,1-1.46-.39,3,3,0,0,1-1-1,2.78,2.78,0,0,1-.39-1.44A2.72,2.72,0,0,1,935.85,8a3,3,0,0,1,1-1,2.83,2.83,0,0,1,1.46-.39,2.79,2.79,0,0,1,1.45.39,3,3,0,0,1,1.05,1,2.72,2.72,0,0,1,.39,1.43,2.78,2.78,0,0,1-.39,1.44,3,3,0,0,1-1.05,1A2.79,2.79,0,0,1,938.35,12.25Z" transform="translate(-2.46 -2.46)"/><path class="cls-1" d="M946.26,16.37l2-13.74h1.84c1,0,1.9,0,2.81.07A15.38,15.38,0,0,1,955.5,3a6.61,6.61,0,0,1,2.08.87A4.07,4.07,0,0,1,959,5.56a6.28,6.28,0,0,1,.5,2.68,9.58,9.58,0,0,1-.13,1.49,10.6,10.6,0,0,1-.45,1.76,7.89,7.89,0,0,1-.91,1.78,6.45,6.45,0,0,1-1.49,1.56A7.05,7.05,0,0,1,954.32,16a9.81,9.81,0,0,1-3,.42Zm4.18-2.91h1.23a3,3,0,0,0,1.56-.42,4.2,4.2,0,0,0,1.27-1.15,5.81,5.81,0,0,0,.86-1.66,6.44,6.44,0,0,0,.3-2,3.22,3.22,0,0,0-.31-1.51,2.11,2.11,0,0,0-.89-.91,3,3,0,0,0-1.4-.3h-1.41Z" transform="translate(-2.46 -2.46)"/><path class="cls-1" d="M966.42,16.56a6.55,6.55,0,0,1-3.42-.74,3.43,3.43,0,0,1-1.54-2.06,7.56,7.56,0,0,1-.1-3.07l1.23-8.06h3.77l-1.27,8.21a3.06,3.06,0,0,0,.08,1.52,1.53,1.53,0,0,0,.68.84,2.15,2.15,0,0,0,1,.26,2.56,2.56,0,0,0,1.61-.6,3,3,0,0,0,1-2l1.24-8.21h3.76l-1.23,8.06a8.56,8.56,0,0,1-1,3.07,5.35,5.35,0,0,1-2.18,2.06A7.89,7.89,0,0,1,966.42,16.56Z" transform="translate(-2.46 -2.46)"/><path class="cls-1" d="M974.85,16.37,977,2.63h6.25a5.58,5.58,0,0,1,2.8.59,2.86,2.86,0,0,1,1.35,1.59,4.64,4.64,0,0,1,.15,2.25,5.86,5.86,0,0,1-.56,1.8,4.8,4.8,0,0,1-1,1.27,6.55,6.55,0,0,1-1.27.92l1.61,5.32h-3.8l-1.27-4.73h-2l-.72,4.73Zm4.86-7.49h2.13a1.54,1.54,0,0,0,.88-.26,2.35,2.35,0,0,0,.7-.67,2.06,2.06,0,0,0,.34-.85,1.41,1.41,0,0,0-.32-1.22,1.35,1.35,0,0,0-1.06-.51h-2.13Z" transform="translate(-2.46 -2.46)"/><path class="cls-1" d="M992,16.37,989.43,2.63h3.49L994.68,12l4.62-9.41h3.52L996,16.37Z" transform="translate(-2.46 -2.46)"/><path class="cls-1" d="M1002.45,16.37l2.1-13.74h3.72l-2.09,13.74Z" transform="translate(-2.46 -2.46)"/><path class="cls-1" d="M1014.57,16.56a9.23,9.23,0,0,1-2.11-.25,5.76,5.76,0,0,1-1.84-.79,3.55,3.55,0,0,1-1.25-1.36,3.46,3.46,0,0,1-.36-2h3.85a1.54,1.54,0,0,0,.29.83,1.64,1.64,0,0,0,.72.52,2.81,2.81,0,0,0,1.1.19,5.06,5.06,0,0,0,1.12-.12,2.28,2.28,0,0,0,.91-.38,1.09,1.09,0,0,0,.45-.76.63.63,0,0,0-.24-.64,2.17,2.17,0,0,0-.81-.35,10.83,10.83,0,0,0-1.08-.22l-2.08-.36a3.74,3.74,0,0,1-2.42-1.28,3.45,3.45,0,0,1-.6-2.77,4.19,4.19,0,0,1,1.13-2.37,6,6,0,0,1,2.33-1.5,8.41,8.41,0,0,1,3-.52,6.51,6.51,0,0,1,2.91.61,4.74,4.74,0,0,1,1.86,1.6,3.54,3.54,0,0,1,.59,2.12h-3.77a1.43,1.43,0,0,0-.18-.86,1.25,1.25,0,0,0-.66-.47,4.07,4.07,0,0,0-2.26,0,1.43,1.43,0,0,0-.64.42,1,1,0,0,0-.25.49.87.87,0,0,0,.2.75,2.17,2.17,0,0,0,1.14.45l2.08.36a5.64,5.64,0,0,1,2.24.8A2.92,2.92,0,0,1,1021,10a3.42,3.42,0,0,1,.3,1.34,7,7,0,0,1-.06,1.17,3.73,3.73,0,0,1-1.11,2.1,6.49,6.49,0,0,1-2.38,1.46A9.22,9.22,0,0,1,1014.57,16.56Z" transform="translate(-2.46 -2.46)"/><path class="cls-1" d="M1029.77,12.25a2.76,2.76,0,0,1-1.45-.39,3,3,0,0,1-1-1,2.78,2.78,0,0,1-.39-1.44,2.72,2.72,0,0,1,.39-1.43,3,3,0,0,1,1-1,2.89,2.89,0,0,1,2.9,0,3,3,0,0,1,1,1,2.73,2.73,0,0,1,.4,1.43,2.79,2.79,0,0,1-.4,1.44,3,3,0,0,1-1,1A2.79,2.79,0,0,1,1029.77,12.25Z" transform="translate(-2.46 -2.46)"/><path class="cls-1" d="M1037.69,16.37l2-13.74h1.84c1,0,1.9,0,2.81.07a15.38,15.38,0,0,1,2.56.34,6.61,6.61,0,0,1,2.08.87,4.07,4.07,0,0,1,1.41,1.65,6.28,6.28,0,0,1,.5,2.68,9.58,9.58,0,0,1-.13,1.49,10.6,10.6,0,0,1-.45,1.76,7.89,7.89,0,0,1-.91,1.78,6.45,6.45,0,0,1-1.49,1.56,7.05,7.05,0,0,1-2.19,1.12,9.81,9.81,0,0,1-3,.42Zm4.17-2.91h1.23a3,3,0,0,0,1.56-.42,4.2,4.2,0,0,0,1.27-1.15,5.81,5.81,0,0,0,.86-1.66,6.44,6.44,0,0,0,.3-2,3.22,3.22,0,0,0-.31-1.51,2.11,2.11,0,0,0-.89-.91,3,3,0,0,0-1.39-.3h-1.42Z" transform="translate(-2.46 -2.46)"/><path class="cls-1" d="M1057.82,16.56a6.55,6.55,0,0,1-3.42-.74,3.43,3.43,0,0,1-1.54-2.06,7.56,7.56,0,0,1-.1-3.07L1054,2.63h3.77l-1.27,8.21a3.06,3.06,0,0,0,.08,1.52,1.57,1.57,0,0,0,.68.84,2.15,2.15,0,0,0,1,.26,2.54,2.54,0,0,0,1.61-.6,3,3,0,0,0,1-2l1.24-8.21h3.76l-1.22,8.06a8.77,8.77,0,0,1-1,3.07,5.35,5.35,0,0,1-2.18,2.06A7.89,7.89,0,0,1,1057.82,16.56Z" transform="translate(-2.46 -2.46)"/><path class="cls-1" d="M1066.28,16.37l2.1-13.74h6.25a5.58,5.58,0,0,1,2.8.59,2.9,2.9,0,0,1,1.35,1.59,4.64,4.64,0,0,1,.15,2.25,5.86,5.86,0,0,1-.56,1.8,4.8,4.8,0,0,1-1,1.27,6.55,6.55,0,0,1-1.27.92l1.61,5.32h-3.8l-1.27-4.73h-2l-.72,4.73Zm4.86-7.49h2.13a1.56,1.56,0,0,0,.88-.26,2.21,2.21,0,0,0,.69-.67,2.08,2.08,0,0,0,.35-.85,1.41,1.41,0,0,0-.32-1.22,1.35,1.35,0,0,0-1.06-.51h-2.13Z" transform="translate(-2.46 -2.46)"/><path class="cls-1" d="M1083.4,16.37l-2.55-13.74h3.49L1086.1,12l4.61-9.41h3.52l-6.77,13.74Z" transform="translate(-2.46 -2.46)"/><path class="cls-1" d="M1093.85,16.37,1096,2.63h3.72l-2.09,13.74Z" transform="translate(-2.46 -2.46)"/><path class="cls-1" d="M1106,16.56a9.32,9.32,0,0,1-2.12-.25,5.61,5.61,0,0,1-1.83-.79,3.45,3.45,0,0,1-1.62-3.33h3.86a1.46,1.46,0,0,0,.29.83,1.64,1.64,0,0,0,.72.52,2.78,2.78,0,0,0,1.1.19,5.13,5.13,0,0,0,1.12-.12,2.28,2.28,0,0,0,.91-.38,1.12,1.12,0,0,0,.44-.76.6.6,0,0,0-.23-.64,2.17,2.17,0,0,0-.81-.35,10.83,10.83,0,0,0-1.08-.22l-2.09-.36a3.74,3.74,0,0,1-2.42-1.28,3.52,3.52,0,0,1-.6-2.77,4.27,4.27,0,0,1,1.14-2.37,5.94,5.94,0,0,1,2.33-1.5,8.37,8.37,0,0,1,3-.52,6.51,6.51,0,0,1,2.91.61,4.64,4.64,0,0,1,1.85,1.6,3.55,3.55,0,0,1,.6,2.12h-3.77a1.36,1.36,0,0,0-.19-.86,1.19,1.19,0,0,0-.65-.47,3.48,3.48,0,0,0-1.1-.15,3.38,3.38,0,0,0-1.16.17,1.53,1.53,0,0,0-.65.42,1.12,1.12,0,0,0-.24.49.87.87,0,0,0,.2.75,2.13,2.13,0,0,0,1.13.45l2.08.36a5.69,5.69,0,0,1,2.25.8,2.89,2.89,0,0,1,1.07,1.21,3.44,3.44,0,0,1,.31,1.34,6.94,6.94,0,0,1-.07,1.17,3.66,3.66,0,0,1-1.1,2.1,6.49,6.49,0,0,1-2.38,1.46A9.26,9.26,0,0,1,1106,16.56Z" transform="translate(-2.46 -2.46)"/><path class="cls-1" d="M1121.18,12.25a2.79,2.79,0,0,1-1.45-.39,2.88,2.88,0,0,1-1-1,2.78,2.78,0,0,1-.39-1.44,2.72,2.72,0,0,1,.39-1.43,2.85,2.85,0,0,1,1-1,2.79,2.79,0,0,1,1.45-.39,2.83,2.83,0,0,1,1.46.39,3.13,3.13,0,0,1,1,1,2.72,2.72,0,0,1,.39,1.43,2.78,2.78,0,0,1-.39,1.44,3.16,3.16,0,0,1-1,1A2.83,2.83,0,0,1,1121.18,12.25Z" transform="translate(-2.46 -2.46)"/><path class="cls-1" d="M1129.13,16.37l2-13.74H1133c1,0,1.89,0,2.81.07a15.26,15.26,0,0,1,2.55.34,6.67,6.67,0,0,1,2.09.87,4,4,0,0,1,1.4,1.65,6.13,6.13,0,0,1,.51,2.68,11,11,0,0,1-.13,1.49,10.6,10.6,0,0,1-.45,1.76,8.33,8.33,0,0,1-.91,1.78,6.65,6.65,0,0,1-1.49,1.56,7.28,7.28,0,0,1-2.19,1.12,9.81,9.81,0,0,1-3,.42Zm4.17-2.91h1.24a3,3,0,0,0,1.56-.42,4.45,4.45,0,0,0,1.27-1.15,5.79,5.79,0,0,0,.85-1.66,6.16,6.16,0,0,0,.31-2,3.22,3.22,0,0,0-.31-1.51,2.17,2.17,0,0,0-.89-.91,3,3,0,0,0-1.4-.3h-1.42Z" transform="translate(-2.46 -2.46)"/><path class="cls-1" d="M1149.26,16.56a6.55,6.55,0,0,1-3.42-.74,3.43,3.43,0,0,1-1.54-2.06,7.56,7.56,0,0,1-.1-3.07l1.23-8.06h3.77l-1.27,8.21a3.06,3.06,0,0,0,.08,1.52,1.53,1.53,0,0,0,.68.84,2.15,2.15,0,0,0,1,.26,2.56,2.56,0,0,0,1.61-.6,3,3,0,0,0,1-2l1.24-8.21h3.76l-1.23,8.06a8.56,8.56,0,0,1-1,3.07,5.35,5.35,0,0,1-2.18,2.06A7.89,7.89,0,0,1,1149.26,16.56Z" transform="translate(-2.46 -2.46)"/><path class="cls-1" d="M1157.7,16.37l2.1-13.74h6.25a5.58,5.58,0,0,1,2.8.59,2.9,2.9,0,0,1,1.35,1.59,4.9,4.9,0,0,1,.15,2.25,5.86,5.86,0,0,1-.56,1.8,4.8,4.8,0,0,1-1,1.27,6.86,6.86,0,0,1-1.27.92l1.61,5.32h-3.8l-1.28-4.73h-1.95l-.72,4.73Zm4.86-7.49h2.13a1.56,1.56,0,0,0,.88-.26,2.21,2.21,0,0,0,.69-.67,2.08,2.08,0,0,0,.35-.85,1.44,1.44,0,0,0-.32-1.22,1.37,1.37,0,0,0-1.06-.51h-2.13Z" transform="translate(-2.46 -2.46)"/><path class="cls-1" d="M1174.84,16.37l-2.55-13.74h3.49l1.76,9.41,4.62-9.41h3.52l-6.77,13.74Z" transform="translate(-2.46 -2.46)"/><path class="cls-1" d="M1185.3,16.37l2.1-13.74h3.73L1189,16.37Z" transform="translate(-2.46 -2.46)"/><path class="cls-1" d="M1197.43,16.56a9.38,9.38,0,0,1-2.12-.25,5.7,5.7,0,0,1-1.83-.79,3.55,3.55,0,0,1-1.25-1.36,3.46,3.46,0,0,1-.36-2h3.85a1.54,1.54,0,0,0,.29.83,1.64,1.64,0,0,0,.72.52,2.78,2.78,0,0,0,1.1.19,5.13,5.13,0,0,0,1.12-.12,2.28,2.28,0,0,0,.91-.38,1.13,1.13,0,0,0,.45-.76.63.63,0,0,0-.24-.64,2.17,2.17,0,0,0-.81-.35,10.83,10.83,0,0,0-1.08-.22l-2.09-.36a3.77,3.77,0,0,1-2.42-1.28,3.52,3.52,0,0,1-.6-2.77,4.27,4.27,0,0,1,1.14-2.37,5.94,5.94,0,0,1,2.33-1.5,8.37,8.37,0,0,1,3-.52,6.51,6.51,0,0,1,2.91.61,4.74,4.74,0,0,1,1.86,1.6,3.61,3.61,0,0,1,.59,2.12h-3.77a1.36,1.36,0,0,0-.19-.86,1.19,1.19,0,0,0-.65-.47,3.48,3.48,0,0,0-1.1-.15,3.38,3.38,0,0,0-1.16.17,1.43,1.43,0,0,0-.64.42,1,1,0,0,0-.25.49.87.87,0,0,0,.2.75,2.13,2.13,0,0,0,1.13.45l2.09.36a5.7,5.7,0,0,1,2.24.8,2.82,2.82,0,0,1,1.07,1.21,3.44,3.44,0,0,1,.31,1.34,6.94,6.94,0,0,1-.07,1.17,3.66,3.66,0,0,1-1.1,2.1,6.49,6.49,0,0,1-2.38,1.46A9.26,9.26,0,0,1,1197.43,16.56Z" transform="translate(-2.46 -2.46)"/><path class="cls-1" d="M1212.61,12.25a2.83,2.83,0,0,1-1.46-.39,3,3,0,0,1-1-1,2.78,2.78,0,0,1-.39-1.44,2.72,2.72,0,0,1,.39-1.43,3,3,0,0,1,1-1,2.83,2.83,0,0,1,1.46-.39,2.79,2.79,0,0,1,1.45.39,3,3,0,0,1,1,1,2.72,2.72,0,0,1,.39,1.43,2.78,2.78,0,0,1-.39,1.44,3,3,0,0,1-1,1A2.79,2.79,0,0,1,1212.61,12.25Z" transform="translate(-2.46 -2.46)"/><path class="cls-1" d="M1220.55,16.37l2-13.74h1.84c1,0,1.9,0,2.81.07a15.24,15.24,0,0,1,2.56.34,6.61,6.61,0,0,1,2.08.87,4.07,4.07,0,0,1,1.41,1.65,6.28,6.28,0,0,1,.5,2.68,9.58,9.58,0,0,1-.13,1.49,8.94,8.94,0,0,1-.45,1.76,8.28,8.28,0,0,1-.9,1.78,6.5,6.5,0,0,1-1.5,1.56A7.05,7.05,0,0,1,1228.6,16a9.72,9.72,0,0,1-3,.42Zm4.17-2.91H1226a3,3,0,0,0,1.55-.42,4.2,4.2,0,0,0,1.27-1.15,5.81,5.81,0,0,0,.86-1.66,6.44,6.44,0,0,0,.3-2,3.22,3.22,0,0,0-.31-1.51,2.06,2.06,0,0,0-.89-.91,3,3,0,0,0-1.39-.3h-1.42Z" transform="translate(-2.46 -2.46)"/><path class="cls-1" d="M1240.67,16.56a6.58,6.58,0,0,1-3.42-.74,3.43,3.43,0,0,1-1.54-2.06,7.4,7.4,0,0,1-.09-3.07l1.22-8.06h3.77l-1.26,8.21a3.08,3.08,0,0,0,.07,1.52,1.57,1.57,0,0,0,.68.84,2.15,2.15,0,0,0,1.05.26,2.54,2.54,0,0,0,1.61-.6,3,3,0,0,0,1-2L1245,2.63h3.76l-1.22,8.06a8.77,8.77,0,0,1-1,3.07,5.35,5.35,0,0,1-2.18,2.06A7.83,7.83,0,0,1,1240.67,16.56Z" transform="translate(-2.46 -2.46)"/><path class="cls-1" d="M1249.13,16.37l2.1-13.74h6.26a5.61,5.61,0,0,1,2.8.59,2.84,2.84,0,0,1,1.34,1.59,4.64,4.64,0,0,1,.15,2.25,5.6,5.6,0,0,1-.56,1.8,4.6,4.6,0,0,1-1,1.27,6.55,6.55,0,0,1-1.27.92l1.61,5.32h-3.79l-1.28-4.73h-2l-.72,4.73ZM1254,8.88h2.12a1.59,1.59,0,0,0,.89-.26,2.44,2.44,0,0,0,.69-.67,2.06,2.06,0,0,0,.34-.85,1.41,1.41,0,0,0-.32-1.22,1.34,1.34,0,0,0-1.06-.51h-2.13Z" transform="translate(-2.46 -2.46)"/><path class="cls-1" d="M1266.26,16.37l-2.55-13.74h3.49L1269,12l4.61-9.41h3.52l-6.77,13.74Z" transform="translate(-2.46 -2.46)"/><path class="cls-1" d="M1276.73,16.37l2.1-13.74h3.72l-2.09,13.74Z" transform="translate(-2.46 -2.46)"/><path class="cls-1" d="M1288.86,16.56a9.23,9.23,0,0,1-2.11-.25,5.76,5.76,0,0,1-1.84-.79,3.55,3.55,0,0,1-1.25-1.36,3.46,3.46,0,0,1-.36-2h3.85a1.54,1.54,0,0,0,.29.83,1.64,1.64,0,0,0,.72.52,2.81,2.81,0,0,0,1.1.19,5.06,5.06,0,0,0,1.12-.12,2.28,2.28,0,0,0,.91-.38,1.09,1.09,0,0,0,.45-.76.63.63,0,0,0-.24-.64,2.17,2.17,0,0,0-.81-.35,10.83,10.83,0,0,0-1.08-.22l-2.08-.36a3.74,3.74,0,0,1-2.42-1.28,3.45,3.45,0,0,1-.6-2.77,4.19,4.19,0,0,1,1.13-2.37A6,6,0,0,1,1288,3a8.41,8.41,0,0,1,3-.52,6.51,6.51,0,0,1,2.91.61,4.74,4.74,0,0,1,1.86,1.6,3.54,3.54,0,0,1,.59,2.12h-3.77a1.43,1.43,0,0,0-.18-.86,1.25,1.25,0,0,0-.66-.47,3.46,3.46,0,0,0-1.09-.15,3.34,3.34,0,0,0-1.16.17,1.47,1.47,0,0,0-.65.42,1,1,0,0,0-.25.49.87.87,0,0,0,.2.75,2.17,2.17,0,0,0,1.14.45L1292,8a5.64,5.64,0,0,1,2.24.8,2.92,2.92,0,0,1,1.08,1.21,3.42,3.42,0,0,1,.3,1.34,7,7,0,0,1-.06,1.17,3.73,3.73,0,0,1-1.11,2.1A6.49,6.49,0,0,1,1292,16,9.22,9.22,0,0,1,1288.86,16.56Z" transform="translate(-2.46 -2.46)"/><path class="cls-1" d="M1304,12.25a2.79,2.79,0,0,1-1.45-.39,3,3,0,0,1-1-1,2.87,2.87,0,0,1-.38-1.44,2.81,2.81,0,0,1,.38-1.43,3,3,0,0,1,1-1,2.79,2.79,0,0,1,1.45-.39,2.83,2.83,0,0,1,1.46.39,3.13,3.13,0,0,1,1,1,2.72,2.72,0,0,1,.39,1.43,2.78,2.78,0,0,1-.39,1.44,3.16,3.16,0,0,1-1,1A2.83,2.83,0,0,1,1304,12.25Z" transform="translate(-2.46 -2.46)"/><path class="cls-1" d="M1312,16.37l2-13.74h1.84c1,0,1.9,0,2.81.07a15.24,15.24,0,0,1,2.56.34,6.61,6.61,0,0,1,2.08.87,4,4,0,0,1,1.41,1.65,6.14,6.14,0,0,1,.5,2.68,9.58,9.58,0,0,1-.13,1.49,8.94,8.94,0,0,1-.45,1.76,7.84,7.84,0,0,1-.9,1.78,6.65,6.65,0,0,1-1.49,1.56A7.23,7.23,0,0,1,1320,16a9.72,9.72,0,0,1-3,.42Zm4.17-2.91h1.24a3,3,0,0,0,1.55-.42,4.35,4.35,0,0,0,1.28-1.15,6,6,0,0,0,.85-1.66,6.45,6.45,0,0,0,.31-2,3.22,3.22,0,0,0-.32-1.51,2.06,2.06,0,0,0-.89-.91,3,3,0,0,0-1.39-.3h-1.42Z" transform="translate(-2.46 -2.46)"/><path class="cls-1" d="M1332.1,16.56a6.58,6.58,0,0,1-3.42-.74,3.43,3.43,0,0,1-1.54-2.06,7.56,7.56,0,0,1-.1-3.07l1.23-8.06H1332l-1.26,8.21a3.08,3.08,0,0,0,.07,1.52,1.57,1.57,0,0,0,.68.84,2.15,2.15,0,0,0,1,.26,2.54,2.54,0,0,0,1.61-.6,3,3,0,0,0,1-2l1.24-8.21h3.76L1339,10.69a8.77,8.77,0,0,1-1,3.07,5.35,5.35,0,0,1-2.18,2.06A7.83,7.83,0,0,1,1332.1,16.56Z" transform="translate(-2.46 -2.46)"/><path class="cls-1" d="M1340.55,16.37l2.1-13.74h6.25a5.61,5.61,0,0,1,2.8.59,2.9,2.9,0,0,1,1.35,1.59,4.9,4.9,0,0,1,.15,2.25,5.6,5.6,0,0,1-.57,1.8,4.57,4.57,0,0,1-1,1.27,6.86,6.86,0,0,1-1.27.92l1.61,5.32h-3.8l-1.28-4.73h-2l-.72,4.73Zm4.86-7.49h2.13a1.58,1.58,0,0,0,.88-.26,2.44,2.44,0,0,0,.69-.67,2.23,2.23,0,0,0,.35-.85,1.45,1.45,0,0,0-.33-1.22,1.34,1.34,0,0,0-1.06-.51h-2.13Z" transform="translate(-2.46 -2.46)"/><path class="cls-1" d="M1357.68,16.37l-2.55-13.74h3.49l1.76,9.41L1365,2.63h3.52l-6.78,13.74Z" transform="translate(-2.46 -2.46)"/><path class="cls-1" d="M1368.16,16.37l2.1-13.74H1374l-2.09,13.74Z" transform="translate(-2.46 -2.46)"/><path class="cls-1" d="M1380.27,16.56a9.38,9.38,0,0,1-2.12-.25,5.7,5.7,0,0,1-1.83-.79,3.55,3.55,0,0,1-1.25-1.36,3.46,3.46,0,0,1-.36-2h3.85a1.54,1.54,0,0,0,.29.83,1.64,1.64,0,0,0,.72.52,2.81,2.81,0,0,0,1.1.19,5.06,5.06,0,0,0,1.12-.12,2.28,2.28,0,0,0,.91-.38,1.13,1.13,0,0,0,.45-.76.63.63,0,0,0-.24-.64,2.17,2.17,0,0,0-.81-.35,10.83,10.83,0,0,0-1.08-.22l-2.08-.36a3.77,3.77,0,0,1-2.43-1.28,3.52,3.52,0,0,1-.6-2.77,4.27,4.27,0,0,1,1.14-2.37,5.94,5.94,0,0,1,2.33-1.5,8.37,8.37,0,0,1,3-.52,6.51,6.51,0,0,1,2.91.61,4.74,4.74,0,0,1,1.86,1.6,3.61,3.61,0,0,1,.59,2.12H1384a1.36,1.36,0,0,0-.19-.86,1.19,1.19,0,0,0-.65-.47,3.48,3.48,0,0,0-1.1-.15,3.38,3.38,0,0,0-1.16.17,1.43,1.43,0,0,0-.64.42,1,1,0,0,0-.25.49.87.87,0,0,0,.2.75,2.13,2.13,0,0,0,1.13.45l2.09.36a5.7,5.7,0,0,1,2.24.8,2.82,2.82,0,0,1,1.07,1.21,3.44,3.44,0,0,1,.31,1.34,6.94,6.94,0,0,1-.07,1.17,3.66,3.66,0,0,1-1.1,2.1,6.49,6.49,0,0,1-2.38,1.46A9.22,9.22,0,0,1,1380.27,16.56Z" transform="translate(-2.46 -2.46)"/><path class="cls-1" d="M1395.45,12.25a2.79,2.79,0,0,1-1.45-.39,2.88,2.88,0,0,1-1-1,2.78,2.78,0,0,1-.39-1.44A2.72,2.72,0,0,1,1393,8a2.85,2.85,0,0,1,1-1,2.79,2.79,0,0,1,1.45-.39,2.83,2.83,0,0,1,1.46.39,3.13,3.13,0,0,1,1,1,2.72,2.72,0,0,1,.39,1.43,2.78,2.78,0,0,1-.39,1.44,3.16,3.16,0,0,1-1,1A2.83,2.83,0,0,1,1395.45,12.25Z" transform="translate(-2.46 -2.46)"/><path class="cls-1" d="M1403.39,16.37l2-13.74h1.84c1,0,1.9,0,2.81.07a15.24,15.24,0,0,1,2.56.34,6.77,6.77,0,0,1,2.09.87,4,4,0,0,1,1.4,1.65,6.14,6.14,0,0,1,.5,2.68,9.58,9.58,0,0,1-.13,1.49,8.94,8.94,0,0,1-.45,1.76,7.84,7.84,0,0,1-.9,1.78,6.65,6.65,0,0,1-1.49,1.56,7.28,7.28,0,0,1-2.19,1.12,9.83,9.83,0,0,1-3,.42Zm4.17-2.91h1.24a3.1,3.1,0,0,0,1.56-.42,4.45,4.45,0,0,0,1.27-1.15,5.79,5.79,0,0,0,.85-1.66,6.16,6.16,0,0,0,.31-2,3.35,3.35,0,0,0-.31-1.51,2.14,2.14,0,0,0-.9-.91,3,3,0,0,0-1.39-.3h-1.42Z" transform="translate(-2.46 -2.46)"/><path class="cls-1" d="M1423.51,16.56a6.51,6.51,0,0,1-3.41-.74,3.39,3.39,0,0,1-1.54-2.06,7.56,7.56,0,0,1-.1-3.07l1.23-8.06h3.77l-1.27,8.21a3.06,3.06,0,0,0,.08,1.52,1.49,1.49,0,0,0,.68.84,2.11,2.11,0,0,0,1,.26,2.58,2.58,0,0,0,1.62-.6,3,3,0,0,0,1-2l1.25-8.21h3.76l-1.23,8.06a8.76,8.76,0,0,1-1,3.07,5.38,5.38,0,0,1-2.19,2.06A7.83,7.83,0,0,1,1423.51,16.56Z" transform="translate(-2.46 -2.46)"/><path class="cls-1" d="M1432,16.37l2.1-13.74h6.25a5.61,5.61,0,0,1,2.8.59,2.9,2.9,0,0,1,1.35,1.59,4.9,4.9,0,0,1,.15,2.25,5.6,5.6,0,0,1-.57,1.8,4.57,4.57,0,0,1-1,1.27,6.62,6.62,0,0,1-1.28.92l1.62,5.32h-3.8l-1.28-4.73h-1.95l-.72,4.73Zm4.86-7.49H1439a1.58,1.58,0,0,0,.88-.26,2.44,2.44,0,0,0,.69-.67,2.23,2.23,0,0,0,.35-.85,1.45,1.45,0,0,0-.33-1.22,1.34,1.34,0,0,0-1.06-.51h-2.13Z" transform="translate(-2.46 -2.46)"/><path class="cls-1" d="M1449.1,16.37l-2.56-13.74h3.5L1451.8,12l4.61-9.41h3.52l-6.77,13.74Z" transform="translate(-2.46 -2.46)"/><path class="cls-1" d="M1459.56,16.37l2.1-13.74h3.72l-2.09,13.74Z" transform="translate(-2.46 -2.46)"/><path class="cls-1" d="M1471.69,16.56a9.32,9.32,0,0,1-2.12-.25,5.61,5.61,0,0,1-1.83-.79,3.45,3.45,0,0,1-1.62-3.33H1470a1.46,1.46,0,0,0,.29.83,1.64,1.64,0,0,0,.72.52,2.78,2.78,0,0,0,1.1.19,5.13,5.13,0,0,0,1.12-.12,2.28,2.28,0,0,0,.91-.38,1.12,1.12,0,0,0,.44-.76.6.6,0,0,0-.23-.64,2.17,2.17,0,0,0-.81-.35,10.83,10.83,0,0,0-1.08-.22l-2.09-.36a3.74,3.74,0,0,1-2.42-1.28,3.52,3.52,0,0,1-.6-2.77,4.27,4.27,0,0,1,1.14-2.37A5.94,5.94,0,0,1,1470.8,3a8.37,8.37,0,0,1,3-.52,6.51,6.51,0,0,1,2.91.61,4.64,4.64,0,0,1,1.85,1.6,3.55,3.55,0,0,1,.6,2.12h-3.77a1.36,1.36,0,0,0-.19-.86,1.19,1.19,0,0,0-.65-.47,3.48,3.48,0,0,0-1.1-.15,3.38,3.38,0,0,0-1.16.17,1.53,1.53,0,0,0-.65.42,1.12,1.12,0,0,0-.24.49.84.84,0,0,0,.2.75,2.13,2.13,0,0,0,1.13.45l2.08.36a5.69,5.69,0,0,1,2.25.8,2.89,2.89,0,0,1,1.07,1.21,3.44,3.44,0,0,1,.31,1.34,6.94,6.94,0,0,1-.07,1.17,3.66,3.66,0,0,1-1.1,2.1,6.49,6.49,0,0,1-2.38,1.46A9.26,9.26,0,0,1,1471.69,16.56Z" transform="translate(-2.46 -2.46)"/><path class="cls-1" d="M1486.87,12.25a2.79,2.79,0,0,1-1.45-.39,3,3,0,0,1-1.05-1,2.87,2.87,0,0,1-.38-1.44,2.81,2.81,0,0,1,.38-1.43,3,3,0,0,1,1.05-1,2.79,2.79,0,0,1,1.45-.39,2.83,2.83,0,0,1,1.46.39,3.13,3.13,0,0,1,1.05,1,2.72,2.72,0,0,1,.39,1.43,2.78,2.78,0,0,1-.39,1.44,3.16,3.16,0,0,1-1.05,1A2.83,2.83,0,0,1,1486.87,12.25Z" transform="translate(-2.46 -2.46)"/><path class="cls-1" d="M1494.82,16.37l2-13.74h1.84c1,0,1.9,0,2.81.07a15.38,15.38,0,0,1,2.56.34,6.61,6.61,0,0,1,2.08.87,4.07,4.07,0,0,1,1.41,1.65,6.28,6.28,0,0,1,.5,2.68,9.58,9.58,0,0,1-.13,1.49,10.6,10.6,0,0,1-.45,1.76,7.89,7.89,0,0,1-.91,1.78,6.45,6.45,0,0,1-1.49,1.56,7.05,7.05,0,0,1-2.19,1.12,9.81,9.81,0,0,1-3,.42Zm4.17-2.91h1.23a3,3,0,0,0,1.56-.42,4.2,4.2,0,0,0,1.27-1.15,5.81,5.81,0,0,0,.86-1.66,6.44,6.44,0,0,0,.3-2,3.22,3.22,0,0,0-.31-1.51,2.11,2.11,0,0,0-.89-.91,3,3,0,0,0-1.39-.3h-1.42Z" transform="translate(-2.46 -2.46)"/><path class="cls-1" d="M1515,16.56a6.58,6.58,0,0,1-3.42-.74,3.43,3.43,0,0,1-1.54-2.06,7.4,7.4,0,0,1-.09-3.07l1.22-8.06h3.77l-1.26,8.21a3.08,3.08,0,0,0,.07,1.52,1.57,1.57,0,0,0,.68.84,2.15,2.15,0,0,0,1,.26,2.54,2.54,0,0,0,1.61-.6,3,3,0,0,0,1-2l1.24-8.21H1523l-1.22,8.06a8.77,8.77,0,0,1-1,3.07,5.35,5.35,0,0,1-2.18,2.06A7.83,7.83,0,0,1,1515,16.56Z" transform="translate(-2.46 -2.46)"/><path class="cls-1" d="M1523.4,16.37l2.1-13.74h6.25a5.58,5.58,0,0,1,2.8.59,2.86,2.86,0,0,1,1.35,1.59,4.64,4.64,0,0,1,.15,2.25,5.86,5.86,0,0,1-.56,1.8,4.8,4.8,0,0,1-1,1.27,6.55,6.55,0,0,1-1.27.92l1.61,5.32h-3.8l-1.27-4.73h-2l-.72,4.73Zm4.86-7.49h2.13a1.54,1.54,0,0,0,.88-.26A2.21,2.21,0,0,0,1532,8a2,2,0,0,0,.35-.85,1.41,1.41,0,0,0-.32-1.22,1.35,1.35,0,0,0-1.06-.51h-2.13Z" transform="translate(-2.46 -2.46)"/><path class="cls-1" d="M1540.52,16.37,1538,2.63h3.49l1.77,9.41,4.61-9.41h3.52l-6.77,13.74Z" transform="translate(-2.46 -2.46)"/><path class="cls-1" d="M1551,16.37l2.1-13.74h3.72l-2.09,13.74Z" transform="translate(-2.46 -2.46)"/><path class="cls-1" d="M1563.13,16.56a9.23,9.23,0,0,1-2.11-.25,5.76,5.76,0,0,1-1.84-.79,3.55,3.55,0,0,1-1.25-1.36,3.46,3.46,0,0,1-.36-2h3.85a1.54,1.54,0,0,0,.29.83,1.64,1.64,0,0,0,.72.52,2.81,2.81,0,0,0,1.1.19,5.06,5.06,0,0,0,1.12-.12,2.28,2.28,0,0,0,.91-.38,1.09,1.09,0,0,0,.45-.76.63.63,0,0,0-.24-.64,2.17,2.17,0,0,0-.81-.35,10.83,10.83,0,0,0-1.08-.22l-2.08-.36a3.74,3.74,0,0,1-2.42-1.28,3.45,3.45,0,0,1-.6-2.77,4.19,4.19,0,0,1,1.13-2.37,6,6,0,0,1,2.33-1.5,8.41,8.41,0,0,1,3-.52,6.51,6.51,0,0,1,2.91.61,4.74,4.74,0,0,1,1.86,1.6,3.54,3.54,0,0,1,.59,2.12h-3.77a1.43,1.43,0,0,0-.18-.86,1.25,1.25,0,0,0-.66-.47,4.07,4.07,0,0,0-2.26,0,1.43,1.43,0,0,0-.64.42,1,1,0,0,0-.25.49.87.87,0,0,0,.2.75,2.17,2.17,0,0,0,1.14.45l2.08.36a5.64,5.64,0,0,1,2.24.8,2.92,2.92,0,0,1,1.08,1.21,3.42,3.42,0,0,1,.3,1.34,6,6,0,0,1-.07,1.17,3.66,3.66,0,0,1-1.1,2.1,6.49,6.49,0,0,1-2.38,1.46A9.22,9.22,0,0,1,1563.13,16.56Z" transform="translate(-2.46 -2.46)"/><path class="cls-1" d="M1578.29,12.25a2.79,2.79,0,0,1-1.45-.39,3,3,0,0,1-1-1,2.87,2.87,0,0,1-.38-1.44,2.81,2.81,0,0,1,.38-1.43,3,3,0,0,1,1-1,2.79,2.79,0,0,1,1.45-.39,2.83,2.83,0,0,1,1.46.39,3.13,3.13,0,0,1,1,1,2.72,2.72,0,0,1,.39,1.43,2.78,2.78,0,0,1-.39,1.44,3.16,3.16,0,0,1-1,1A2.83,2.83,0,0,1,1578.29,12.25Z" transform="translate(-2.46 -2.46)"/><path class="cls-1" d="M1586.23,16.37l2-13.74h1.84c1,0,1.9,0,2.81.07a15.24,15.24,0,0,1,2.56.34,6.61,6.61,0,0,1,2.08.87A4.07,4.07,0,0,1,1599,5.56a6.28,6.28,0,0,1,.5,2.68,9.58,9.58,0,0,1-.13,1.49,8.94,8.94,0,0,1-.45,1.76,7.84,7.84,0,0,1-.9,1.78,6.5,6.5,0,0,1-1.5,1.56,7.05,7.05,0,0,1-2.19,1.12,9.72,9.72,0,0,1-3,.42Zm4.17-2.91h1.24a3,3,0,0,0,1.55-.42,4.35,4.35,0,0,0,1.28-1.15,6,6,0,0,0,.85-1.66,6.45,6.45,0,0,0,.31-2,3.22,3.22,0,0,0-.32-1.51,2.06,2.06,0,0,0-.89-.91,3,3,0,0,0-1.39-.3h-1.42Z" transform="translate(-2.46 -2.46)"/><path class="cls-1" d="M1606.36,16.56a6.53,6.53,0,0,1-3.42-.74,3.39,3.39,0,0,1-1.54-2.06,7.56,7.56,0,0,1-.1-3.07l1.23-8.06h3.77L1605,10.84a3.06,3.06,0,0,0,.08,1.52,1.53,1.53,0,0,0,.68.84,2.15,2.15,0,0,0,1,.26,2.58,2.58,0,0,0,1.61-.6,3,3,0,0,0,1-2l1.25-8.21h3.76l-1.23,8.06a8.76,8.76,0,0,1-1,3.07,5.35,5.35,0,0,1-2.18,2.06A7.89,7.89,0,0,1,1606.36,16.56Z" transform="translate(-2.46 -2.46)"/><path class="cls-1" d="M1614.83,16.37l2.1-13.74h6.25a5.58,5.58,0,0,1,2.8.59,2.9,2.9,0,0,1,1.35,1.59,4.64,4.64,0,0,1,.15,2.25,5.86,5.86,0,0,1-.56,1.8,4.8,4.8,0,0,1-1,1.27,6.86,6.86,0,0,1-1.27.92l1.61,5.32h-3.8l-1.27-4.73h-2l-.72,4.73Zm4.86-7.49h2.13a1.56,1.56,0,0,0,.88-.26,2.21,2.21,0,0,0,.69-.67,2.08,2.08,0,0,0,.35-.85,1.44,1.44,0,0,0-.32-1.22,1.35,1.35,0,0,0-1.06-.51h-2.13Z" transform="translate(-2.46 -2.46)"/><path class="cls-1" d="M1631.94,16.37l-2.55-13.74h3.49l1.77,9.41,4.61-9.41h3.52L1636,16.37Z" transform="translate(-2.46 -2.46)"/><path class="cls-1" d="M1642.4,16.37l2.1-13.74h3.72l-2.09,13.74Z" transform="translate(-2.46 -2.46)"/><path class="cls-1" d="M1654.54,16.56a9.32,9.32,0,0,1-2.12-.25,5.7,5.7,0,0,1-1.83-.79,3.45,3.45,0,0,1-1.62-3.33h3.86a1.54,1.54,0,0,0,.29.83,1.64,1.64,0,0,0,.72.52,2.78,2.78,0,0,0,1.1.19,5.13,5.13,0,0,0,1.12-.12,2.28,2.28,0,0,0,.91-.38,1.12,1.12,0,0,0,.44-.76.6.6,0,0,0-.23-.64,2.17,2.17,0,0,0-.81-.35,10.83,10.83,0,0,0-1.08-.22l-2.09-.36a3.77,3.77,0,0,1-2.42-1.28,3.52,3.52,0,0,1-.6-2.77,4.27,4.27,0,0,1,1.14-2.37,5.94,5.94,0,0,1,2.33-1.5,8.37,8.37,0,0,1,3-.52,6.51,6.51,0,0,1,2.91.61,4.64,4.64,0,0,1,1.85,1.6,3.55,3.55,0,0,1,.6,2.12h-3.77a1.36,1.36,0,0,0-.19-.86,1.19,1.19,0,0,0-.65-.47,3.48,3.48,0,0,0-1.1-.15,3.38,3.38,0,0,0-1.16.17,1.43,1.43,0,0,0-.64.42,1,1,0,0,0-.25.49.87.87,0,0,0,.2.75,2.13,2.13,0,0,0,1.13.45l2.08.36a5.69,5.69,0,0,1,2.25.8A2.89,2.89,0,0,1,1661,10a3.44,3.44,0,0,1,.31,1.34,6.94,6.94,0,0,1-.07,1.17,3.66,3.66,0,0,1-1.1,2.1,6.49,6.49,0,0,1-2.38,1.46A9.26,9.26,0,0,1,1654.54,16.56Z" transform="translate(-2.46 -2.46)"/><path class="cls-1" d="M1669.73,12.25a2.76,2.76,0,0,1-1.45-.39,3,3,0,0,1-1-1,2.78,2.78,0,0,1-.39-1.44,2.72,2.72,0,0,1,.39-1.43,3,3,0,0,1,1-1,2.89,2.89,0,0,1,2.9,0,3,3,0,0,1,1,1,2.72,2.72,0,0,1,.39,1.43,2.78,2.78,0,0,1-.39,1.44,3,3,0,0,1-1,1A2.79,2.79,0,0,1,1669.73,12.25Z" transform="translate(-2.46 -2.46)"/><path class="cls-1" d="M1677.67,16.37l2-13.74h1.84c1,0,1.9,0,2.81.07a15.38,15.38,0,0,1,2.56.34,6.61,6.61,0,0,1,2.08.87,4.07,4.07,0,0,1,1.41,1.65,6.28,6.28,0,0,1,.5,2.68,9.58,9.58,0,0,1-.13,1.49,10.6,10.6,0,0,1-.45,1.76,7.89,7.89,0,0,1-.91,1.78,6.45,6.45,0,0,1-1.49,1.56,7.05,7.05,0,0,1-2.19,1.12,9.81,9.81,0,0,1-3,.42Zm4.17-2.91h1.23a3,3,0,0,0,1.56-.42,4.2,4.2,0,0,0,1.27-1.15,5.81,5.81,0,0,0,.86-1.66,6.44,6.44,0,0,0,.3-2,3.22,3.22,0,0,0-.31-1.51,2.11,2.11,0,0,0-.89-.91,3,3,0,0,0-1.39-.3h-1.42Z" transform="translate(-2.46 -2.46)"/><path class="cls-1" d="M1697.79,16.56a6.53,6.53,0,0,1-3.42-.74,3.39,3.39,0,0,1-1.54-2.06,7.56,7.56,0,0,1-.1-3.07L1694,2.63h3.77l-1.27,8.21a3.06,3.06,0,0,0,.08,1.52,1.53,1.53,0,0,0,.68.84,2.15,2.15,0,0,0,1,.26,2.58,2.58,0,0,0,1.61-.6,3,3,0,0,0,1-2l1.25-8.21h3.76l-1.23,8.06a8.76,8.76,0,0,1-1,3.07,5.35,5.35,0,0,1-2.18,2.06A7.89,7.89,0,0,1,1697.79,16.56Z" transform="translate(-2.46 -2.46)"/><path class="cls-1" d="M1706.26,16.37l2.1-13.74h6.26a5.63,5.63,0,0,1,2.8.59,2.84,2.84,0,0,1,1.34,1.59,4.64,4.64,0,0,1,.15,2.25,5.6,5.6,0,0,1-.56,1.8,4.6,4.6,0,0,1-1,1.27,6.55,6.55,0,0,1-1.27.92l1.61,5.32h-3.8l-1.27-4.73h-2l-.72,4.73Zm4.86-7.49h2.13a1.59,1.59,0,0,0,.89-.26,2.44,2.44,0,0,0,.69-.67,2.06,2.06,0,0,0,.34-.85,1.41,1.41,0,0,0-.32-1.22,1.34,1.34,0,0,0-1.06-.51h-2.13Z" transform="translate(-2.46 -2.46)"/><path class="cls-1" d="M1723.37,16.37l-2.55-13.74h3.49l1.77,9.41,4.61-9.41h3.52l-6.77,13.74Z" transform="translate(-2.46 -2.46)"/><path class="cls-1" d="M1733.84,16.37l2.1-13.74h3.72l-2.09,13.74Z" transform="translate(-2.46 -2.46)"/><path class="cls-1" d="M1746,16.56a9.38,9.38,0,0,1-2.12-.25,5.7,5.7,0,0,1-1.83-.79,3.55,3.55,0,0,1-1.25-1.36,3.46,3.46,0,0,1-.36-2h3.85a1.54,1.54,0,0,0,.29.83,1.64,1.64,0,0,0,.72.52,2.81,2.81,0,0,0,1.1.19,5.06,5.06,0,0,0,1.12-.12,2.28,2.28,0,0,0,.91-.38,1.13,1.13,0,0,0,.45-.76.63.63,0,0,0-.24-.64,2.17,2.17,0,0,0-.81-.35,10.83,10.83,0,0,0-1.08-.22l-2.08-.36a3.77,3.77,0,0,1-2.43-1.28,3.52,3.52,0,0,1-.6-2.77,4.27,4.27,0,0,1,1.14-2.37,5.94,5.94,0,0,1,2.33-1.5,8.37,8.37,0,0,1,3-.52,6.51,6.51,0,0,1,2.91.61,4.74,4.74,0,0,1,1.86,1.6,3.61,3.61,0,0,1,.59,2.12h-3.77a1.36,1.36,0,0,0-.19-.86,1.19,1.19,0,0,0-.65-.47,3.48,3.48,0,0,0-1.1-.15,3.38,3.38,0,0,0-1.16.17,1.43,1.43,0,0,0-.64.42,1,1,0,0,0-.25.49.87.87,0,0,0,.2.75,2.13,2.13,0,0,0,1.13.45l2.09.36a5.7,5.7,0,0,1,2.24.8A2.82,2.82,0,0,1,1752.4,10a3.27,3.27,0,0,1,.31,1.34,6,6,0,0,1-.07,1.17,3.66,3.66,0,0,1-1.1,2.1,6.49,6.49,0,0,1-2.38,1.46A9.22,9.22,0,0,1,1746,16.56Z" transform="translate(-2.46 -2.46)"/><path class="cls-1" d="M1761.14,12.25a2.79,2.79,0,0,1-1.45-.39,3,3,0,0,1-1-1,2.78,2.78,0,0,1-.39-1.44,2.72,2.72,0,0,1,.39-1.43,3,3,0,0,1,1-1,2.89,2.89,0,0,1,2.9,0,3,3,0,0,1,1.05,1,2.64,2.64,0,0,1,.4,1.43,2.7,2.7,0,0,1-.4,1.44,3,3,0,0,1-1.05,1A2.76,2.76,0,0,1,1761.14,12.25Z" transform="translate(-2.46 -2.46)"/><path class="cls-1" d="M1769.08,16.37l2-13.74h1.84c1,0,1.9,0,2.81.07a15.24,15.24,0,0,1,2.56.34,6.67,6.67,0,0,1,2.09.87,4,4,0,0,1,1.4,1.65,6.13,6.13,0,0,1,.51,2.68,11,11,0,0,1-.13,1.49,10.6,10.6,0,0,1-.45,1.76,8.33,8.33,0,0,1-.91,1.78,6.65,6.65,0,0,1-1.49,1.56,7.28,7.28,0,0,1-2.19,1.12,9.81,9.81,0,0,1-3,.42Zm4.17-2.91h1.24a3.07,3.07,0,0,0,1.56-.42,4.45,4.45,0,0,0,1.27-1.15,5.79,5.79,0,0,0,.85-1.66,6.16,6.16,0,0,0,.31-2,3.35,3.35,0,0,0-.31-1.51,2.14,2.14,0,0,0-.9-.91,3,3,0,0,0-1.39-.3h-1.42Z" transform="translate(-2.46 -2.46)"/><path class="cls-1" d="M1789.23,16.56a6.55,6.55,0,0,1-3.42-.74,3.43,3.43,0,0,1-1.54-2.06,7.56,7.56,0,0,1-.1-3.07l1.23-8.06h3.77l-1.27,8.21a3.06,3.06,0,0,0,.08,1.52,1.53,1.53,0,0,0,.68.84,2.15,2.15,0,0,0,1,.26,2.56,2.56,0,0,0,1.61-.6,3,3,0,0,0,1-2l1.24-8.21h3.76l-1.22,8.06a8.77,8.77,0,0,1-1,3.07,5.35,5.35,0,0,1-2.18,2.06A7.89,7.89,0,0,1,1789.23,16.56Z" transform="translate(-2.46 -2.46)"/><path class="cls-1" d="M1797.67,16.37l2.1-13.74H1806a5.63,5.63,0,0,1,2.8.59,2.84,2.84,0,0,1,1.34,1.59,4.64,4.64,0,0,1,.15,2.25,5.6,5.6,0,0,1-.56,1.8,4.6,4.6,0,0,1-1,1.27,6.55,6.55,0,0,1-1.27.92l1.61,5.32h-3.8l-1.27-4.73h-2l-.72,4.73Zm4.86-7.49h2.13a1.59,1.59,0,0,0,.89-.26,2.44,2.44,0,0,0,.69-.67,2.06,2.06,0,0,0,.34-.85,1.41,1.41,0,0,0-.32-1.22,1.34,1.34,0,0,0-1.06-.51h-2.13Z" transform="translate(-2.46 -2.46)"/><path class="cls-1" d="M1814.78,16.37l-2.55-13.74h3.49l1.77,9.41,4.61-9.41h3.52l-6.77,13.74Z" transform="translate(-2.46 -2.46)"/><path class="cls-1" d="M1825.25,16.37l2.1-13.74h3.72L1829,16.37Z" transform="translate(-2.46 -2.46)"/><path class="cls-1" d="M1837.39,16.56a9.38,9.38,0,0,1-2.12-.25,5.8,5.8,0,0,1-1.83-.79,3.55,3.55,0,0,1-1.25-1.36,3.46,3.46,0,0,1-.36-2h3.85a1.54,1.54,0,0,0,.29.83,1.64,1.64,0,0,0,.72.52,2.81,2.81,0,0,0,1.1.19,5.06,5.06,0,0,0,1.12-.12,2.28,2.28,0,0,0,.91-.38,1.09,1.09,0,0,0,.45-.76.63.63,0,0,0-.24-.64,2.17,2.17,0,0,0-.81-.35,10.83,10.83,0,0,0-1.08-.22l-2.08-.36a3.79,3.79,0,0,1-2.43-1.28,3.48,3.48,0,0,1-.59-2.77,4.19,4.19,0,0,1,1.13-2.37A5.94,5.94,0,0,1,1836.5,3a8.41,8.41,0,0,1,3-.52,6.51,6.51,0,0,1,2.91.61,4.74,4.74,0,0,1,1.86,1.6,3.61,3.61,0,0,1,.59,2.12h-3.77a1.43,1.43,0,0,0-.18-.86,1.25,1.25,0,0,0-.66-.47,3.48,3.48,0,0,0-1.1-.15,3.43,3.43,0,0,0-1.16.17,1.43,1.43,0,0,0-.64.42,1,1,0,0,0-.25.49.87.87,0,0,0,.2.75,2.17,2.17,0,0,0,1.14.45l2.08.36a5.64,5.64,0,0,1,2.24.8,2.82,2.82,0,0,1,1.07,1.21,3.27,3.27,0,0,1,.31,1.34,6,6,0,0,1-.07,1.17,3.66,3.66,0,0,1-1.1,2.1,6.49,6.49,0,0,1-2.38,1.46A9.22,9.22,0,0,1,1837.39,16.56Z" transform="translate(-2.46 -2.46)"/><path class="cls-1" d="M1852.56,12.25a2.79,2.79,0,0,1-1.45-.39,3,3,0,0,1-1-1,2.78,2.78,0,0,1-.39-1.44,2.72,2.72,0,0,1,.39-1.43,3,3,0,0,1,1-1,2.89,2.89,0,0,1,2.9,0,3,3,0,0,1,1,1,2.64,2.64,0,0,1,.4,1.43,2.7,2.7,0,0,1-.4,1.44,3,3,0,0,1-1,1A2.76,2.76,0,0,1,1852.56,12.25Z" transform="translate(-2.46 -2.46)"/><path class="cls-1" d="M1860.51,16.37l2-13.74h1.84c1,0,1.9,0,2.81.07a15.24,15.24,0,0,1,2.56.34,6.61,6.61,0,0,1,2.08.87,4,4,0,0,1,1.41,1.65,6.14,6.14,0,0,1,.5,2.68,9.58,9.58,0,0,1-.13,1.49,8.94,8.94,0,0,1-.45,1.76,7.84,7.84,0,0,1-.9,1.78,6.65,6.65,0,0,1-1.49,1.56,7.23,7.23,0,0,1-2.2,1.12,9.72,9.72,0,0,1-3,.42Zm4.17-2.91h1.24a3.1,3.1,0,0,0,1.56-.42,4.45,4.45,0,0,0,1.27-1.15,5.79,5.79,0,0,0,.85-1.66,6.45,6.45,0,0,0,.31-2,3.22,3.22,0,0,0-.32-1.51,2.06,2.06,0,0,0-.89-.91,3,3,0,0,0-1.39-.3h-1.42Z" transform="translate(-2.46 -2.46)"/><path class="cls-1" d="M1880.63,16.56a6.51,6.51,0,0,1-3.41-.74,3.4,3.4,0,0,1-1.55-2.06,7.4,7.4,0,0,1-.09-3.07l1.22-8.06h3.77l-1.26,8.21a3.08,3.08,0,0,0,.07,1.52,1.57,1.57,0,0,0,.68.84,2.15,2.15,0,0,0,1,.26,2.58,2.58,0,0,0,1.62-.6,3,3,0,0,0,1-2L1885,2.63h3.76l-1.23,8.06a8.77,8.77,0,0,1-1,3.07,5.35,5.35,0,0,1-2.18,2.06A7.83,7.83,0,0,1,1880.63,16.56Z" transform="translate(-2.46 -2.46)"/><path class="cls-1" d="M1889.11,16.37l2.1-13.74h6.25a5.58,5.58,0,0,1,2.8.59,2.86,2.86,0,0,1,1.35,1.59,4.64,4.64,0,0,1,.15,2.25,5.86,5.86,0,0,1-.56,1.8,4.8,4.8,0,0,1-1,1.27,6.55,6.55,0,0,1-1.27.92l1.61,5.32h-3.8l-1.27-4.73h-2l-.72,4.73ZM1894,8.88h2.13a1.56,1.56,0,0,0,.88-.26,2.21,2.21,0,0,0,.69-.67,2.08,2.08,0,0,0,.35-.85,1.41,1.41,0,0,0-.32-1.22,1.35,1.35,0,0,0-1.06-.51h-2.13Z" transform="translate(-2.46 -2.46)"/><path class="cls-1" d="M1906.21,16.37l-2.55-13.74h3.49l1.76,9.41,4.62-9.41h3.52l-6.77,13.74Z" transform="translate(-2.46 -2.46)"/><path class="cls-1" d="M1916.68,16.37l2.1-13.74h3.72l-2.09,13.74Z" transform="translate(-2.46 -2.46)"/><path class="cls-1" d="M1928.81,16.56a9.38,9.38,0,0,1-2.12-.25,5.7,5.7,0,0,1-1.83-.79,3.65,3.65,0,0,1-1.26-1.36,3.54,3.54,0,0,1-.35-2h3.85a1.54,1.54,0,0,0,.29.83,1.64,1.64,0,0,0,.72.52,2.78,2.78,0,0,0,1.1.19,5.13,5.13,0,0,0,1.12-.12,2.28,2.28,0,0,0,.91-.38,1.13,1.13,0,0,0,.45-.76.63.63,0,0,0-.24-.64,2.17,2.17,0,0,0-.81-.35,10.83,10.83,0,0,0-1.08-.22l-2.09-.36a3.77,3.77,0,0,1-2.42-1.28,3.52,3.52,0,0,1-.6-2.77,4.27,4.27,0,0,1,1.14-2.37,5.94,5.94,0,0,1,2.33-1.5,8.37,8.37,0,0,1,3-.52,6.51,6.51,0,0,1,2.91.61,4.74,4.74,0,0,1,1.86,1.6,3.61,3.61,0,0,1,.59,2.12h-3.77a1.36,1.36,0,0,0-.19-.86,1.19,1.19,0,0,0-.65-.47,3.48,3.48,0,0,0-1.1-.15,3.38,3.38,0,0,0-1.16.17,1.43,1.43,0,0,0-.64.42,1,1,0,0,0-.25.49.87.87,0,0,0,.2.75,2.13,2.13,0,0,0,1.13.45l2.09.36a5.7,5.7,0,0,1,2.24.8,2.82,2.82,0,0,1,1.07,1.21,3.44,3.44,0,0,1,.31,1.34,6.94,6.94,0,0,1-.07,1.17,3.66,3.66,0,0,1-1.1,2.1A6.49,6.49,0,0,1,1932,16,9.26,9.26,0,0,1,1928.81,16.56Z" transform="translate(-2.46 -2.46)"/><path class="cls-1" d="M1944,12.25a2.76,2.76,0,0,1-1.45-.39,3,3,0,0,1-1-1,2.78,2.78,0,0,1-.39-1.44A2.72,2.72,0,0,1,1941.5,8a3,3,0,0,1,1-1,2.89,2.89,0,0,1,2.9,0,3,3,0,0,1,1,1,2.73,2.73,0,0,1,.4,1.43,2.79,2.79,0,0,1-.4,1.44,3,3,0,0,1-1,1A2.79,2.79,0,0,1,1944,12.25Z" transform="translate(-2.46 -2.46)"/></g></g></svg>