<svg xmlns="http://www.w3.org/2000/svg" viewBox="0 0 1503.62 736.61"><defs><style>.cls-1{fill:#fff;}</style></defs><g id="Layer_2" data-name="Layer 2"><g id="Accordion_menu_expanded" data-name="Accordion menu expanded"><g id="Layer_9_copy_2" data-name="Layer 9 copy 2"><path class="cls-1" d="M12.75,738.48l-10.7-1.57v-1.43c0-.75,0-1.47.05-2.18a12,12,0,0,1,.27-2,4.91,4.91,0,0,1,.68-1.62,3.11,3.11,0,0,1,1.28-1.09,4.87,4.87,0,0,1,2.09-.39,7.46,7.46,0,0,1,1.16.1,7.67,7.67,0,0,1,1.37.35,6.41,6.41,0,0,1,1.38.7,5.14,5.14,0,0,1,1.22,1.16,5.34,5.34,0,0,1,.87,1.7,7.55,7.55,0,0,1,.33,2.36Zm-2.26-3.24v-1a2.34,2.34,0,0,0-.33-1.21,3.37,3.37,0,0,0-.9-1A4.62,4.62,0,0,0,8,731.42a4.91,4.91,0,0,0-1.54-.24,2.54,2.54,0,0,0-1.17.24,1.6,1.6,0,0,0-.71.7,2.27,2.27,0,0,0-.24,1.08v1.1Z" transform="translate(-1.84 -1.87)"/><path class="cls-1" d="M12.9,722.83a5,5,0,0,1-.58,2.65,2.6,2.6,0,0,1-1.61,1.2,5.87,5.87,0,0,1-2.39.07l-6.27-1v-2.93l6.39,1a2.49,2.49,0,0,0,1.19-.06,1.2,1.2,0,0,0,.65-.53,1.58,1.58,0,0,0,.21-.81A2,2,0,0,0,10,721.2a2.39,2.39,0,0,0-1.58-.76l-6.39-1v-2.93l6.27,1a6.88,6.88,0,0,1,2.39.8,4.13,4.13,0,0,1,1.61,1.7A6,6,0,0,1,12.9,722.83Z" transform="translate(-1.84 -1.87)"/><path class="cls-1" d="M12.75,716.27l-10.7-1.63v-4.86a4.27,4.27,0,0,1,.46-2.17,2.27,2.27,0,0,1,1.24-1.05,3.61,3.61,0,0,1,1.75-.11,4.44,4.44,0,0,1,1.4.43,3.8,3.8,0,0,1,1,.75,5.45,5.45,0,0,1,.72,1l4.14-1.25v3l-3.69,1v1.52l3.69.56ZM6.92,712.5v-1.66a1.28,1.28,0,0,0-.2-.68,1.82,1.82,0,0,0-1.19-.81,1.13,1.13,0,0,0-1,.25,1,1,0,0,0-.4.82v1.66Z" transform="translate(-1.84 -1.87)"/><path class="cls-1" d="M12.75,703.5l-10.7,2v-2.71l7.33-1.37-7.33-3.59v-2.73l10.7,5.26Z" transform="translate(-1.84 -1.87)"/><path class="cls-1" d="M12.75,695.35l-10.7-1.63v-2.89l10.7,1.63Z" transform="translate(-1.84 -1.87)"/><path class="cls-1" d="M12.9,685.92a7,7,0,0,1-.2,1.65,4.48,4.48,0,0,1-.61,1.43A3,3,0,0,1,11,690a2.81,2.81,0,0,1-1.54.28v-3a1.15,1.15,0,0,0,.65-.22,1.32,1.32,0,0,0,.41-.56,2.42,2.42,0,0,0,.14-.86,4.14,4.14,0,0,0-.09-.87,1.79,1.79,0,0,0-.3-.7.83.83,0,0,0-.58-.35.52.52,0,0,0-.51.18,1.67,1.67,0,0,0-.27.63c-.06.27-.12.55-.17.84L8.49,687a2.93,2.93,0,0,1-1,1.88,2.73,2.73,0,0,1-2.16.47,3.29,3.29,0,0,1-1.84-.89,4.65,4.65,0,0,1-1.17-1.81,6.52,6.52,0,0,1-.4-2.31A5.06,5.06,0,0,1,2.39,682a3.62,3.62,0,0,1,1.25-1.44,2.66,2.66,0,0,1,1.65-.46v2.92a1.13,1.13,0,0,0-.67.15,1,1,0,0,0-.37.51,2.62,2.62,0,0,0-.11.85,2.52,2.52,0,0,0,.13.9,1.06,1.06,0,0,0,.32.5.79.79,0,0,0,.39.19.64.64,0,0,0,.58-.15,1.63,1.63,0,0,0,.35-.88l.28-1.62a4.49,4.49,0,0,1,.62-1.74,2.38,2.38,0,0,1,.94-.84,2.9,2.9,0,0,1,1.05-.24,6.36,6.36,0,0,1,.92.06,2.88,2.88,0,0,1,1.63.85,5,5,0,0,1,1.13,1.85A7,7,0,0,1,12.9,685.92Z" transform="translate(-1.84 -1.87)"/><path class="cls-1" d="M9.54,674.13a2.11,2.11,0,0,1-.31,1.13,2.25,2.25,0,0,1-.81.81,2.22,2.22,0,0,1-2.23,0,2.3,2.3,0,0,1-.8-.81,2.21,2.21,0,0,1,0-2.26,2.41,2.41,0,0,1,.8-.82,2.22,2.22,0,0,1,2.23,0,2.35,2.35,0,0,1,.81.82A2.11,2.11,0,0,1,9.54,674.13Z" transform="translate(-1.84 -1.87)"/><path class="cls-1" d="M12.75,668,2.05,666.4V665c0-.74,0-1.47.05-2.18a11.83,11.83,0,0,1,.27-2,4.74,4.74,0,0,1,.68-1.62,3.13,3.13,0,0,1,1.28-1.1,4.87,4.87,0,0,1,2.09-.39,8.94,8.94,0,0,1,1.16.1,8.63,8.63,0,0,1,1.37.35,6,6,0,0,1,1.38.71A5,5,0,0,1,11.55,660a5.24,5.24,0,0,1,.87,1.7,7.53,7.53,0,0,1,.33,2.35Zm-2.26-3.24v-1a2.38,2.38,0,0,0-.33-1.22,3.33,3.33,0,0,0-.9-1A4.39,4.39,0,0,0,8,660.9a5.22,5.22,0,0,0-1.54-.23,2.54,2.54,0,0,0-1.17.24,1.58,1.58,0,0,0-.71.69,2.28,2.28,0,0,0-.24,1.09v1.1Z" transform="translate(-1.84 -1.87)"/><path class="cls-1" d="M12.9,652.32a5,5,0,0,1-.58,2.65,2.6,2.6,0,0,1-1.61,1.2,6,6,0,0,1-2.39.08l-6.27-1v-2.93l6.39,1a2.49,2.49,0,0,0,1.19-.06,1.2,1.2,0,0,0,.65-.53,1.58,1.58,0,0,0,.21-.81,2,2,0,0,0-.47-1.26,2.39,2.39,0,0,0-1.58-.76l-6.39-1V646l6.27,1a6.88,6.88,0,0,1,2.39.8,4.13,4.13,0,0,1,1.61,1.7A6,6,0,0,1,12.9,652.32Z" transform="translate(-1.84 -1.87)"/><path class="cls-1" d="M12.75,645.75l-10.7-1.63v-4.86a4.24,4.24,0,0,1,.46-2.17A2.27,2.27,0,0,1,3.75,636a3.73,3.73,0,0,1,1.75-.12,4.43,4.43,0,0,1,1.4.44,3.8,3.8,0,0,1,1,.75,5.45,5.45,0,0,1,.72,1l4.14-1.25v2.95l-3.69,1v1.52l3.69.56ZM6.92,642v-1.65a1.34,1.34,0,0,0-.2-.69,1.79,1.79,0,0,0-.53-.53,1.57,1.57,0,0,0-.66-.27,1.1,1.1,0,0,0-1,.25,1,1,0,0,0-.4.82v1.66Z" transform="translate(-1.84 -1.87)"/><path class="cls-1" d="M12.75,633l-10.7,2v-2.71l7.33-1.37L2.05,627.3v-2.74l10.7,5.26Z" transform="translate(-1.84 -1.87)"/><path class="cls-1" d="M12.75,624.86l-10.7-1.63v-2.9L12.75,622Z" transform="translate(-1.84 -1.87)"/><path class="cls-1" d="M12.9,615.43a7,7,0,0,1-.2,1.65,4.43,4.43,0,0,1-.61,1.42,2.9,2.9,0,0,1-1.06,1,2.64,2.64,0,0,1-1.54.28v-3a1.23,1.23,0,0,0,.65-.22,1.39,1.39,0,0,0,.41-.56,2.46,2.46,0,0,0,.14-.86,4.14,4.14,0,0,0-.09-.87,1.91,1.91,0,0,0-.3-.71.85.85,0,0,0-.58-.34.48.48,0,0,0-.51.18,1.67,1.67,0,0,0-.27.63c-.06.26-.12.54-.17.84l-.28,1.62a3,3,0,0,1-1,1.88,2.77,2.77,0,0,1-2.16.47,3.29,3.29,0,0,1-1.84-.89,4.73,4.73,0,0,1-1.17-1.81,6.52,6.52,0,0,1-.4-2.31,5.06,5.06,0,0,1,.47-2.26,3.62,3.62,0,0,1,1.25-1.44,2.73,2.73,0,0,1,1.65-.47v2.93a1.13,1.13,0,0,0-.67.15,1,1,0,0,0-.37.51,2.62,2.62,0,0,0-.11.85,2.52,2.52,0,0,0,.13.9,1.06,1.06,0,0,0,.32.5.79.79,0,0,0,.39.19.64.64,0,0,0,.58-.15,1.63,1.63,0,0,0,.35-.88L6.19,613a4.49,4.49,0,0,1,.62-1.74,2.24,2.24,0,0,1,.94-.84,2.9,2.9,0,0,1,1.05-.24,6.46,6.46,0,0,1,.92,0,2.9,2.9,0,0,1,1.63.86A5,5,0,0,1,12.48,613,7,7,0,0,1,12.9,615.43Z" transform="translate(-1.84 -1.87)"/><path class="cls-1" d="M9.54,603.63a2.11,2.11,0,0,1-.31,1.13,2.25,2.25,0,0,1-.81.81,2.16,2.16,0,0,1-2.23,0,2.3,2.3,0,0,1-.8-.81,2.21,2.21,0,0,1,0-2.26,2.3,2.3,0,0,1,.8-.81,2.16,2.16,0,0,1,2.23,0,2.25,2.25,0,0,1,.81.81A2.11,2.11,0,0,1,9.54,603.63Z" transform="translate(-1.84 -1.87)"/><path class="cls-1" d="M12.75,597.45l-10.7-1.57v-1.43c0-.75,0-1.48.05-2.19a11.83,11.83,0,0,1,.27-2,4.74,4.74,0,0,1,.68-1.62,3.2,3.2,0,0,1,1.28-1.1,4.87,4.87,0,0,1,2.09-.39,8.94,8.94,0,0,1,1.16.1,8.63,8.63,0,0,1,1.37.35,6.46,6.46,0,0,1,1.38.71,5,5,0,0,1,1.22,1.16,5.24,5.24,0,0,1,.87,1.7,7.53,7.53,0,0,1,.33,2.35Zm-2.26-3.24v-1a2.32,2.32,0,0,0-.33-1.21,3.25,3.25,0,0,0-.9-1A4.39,4.39,0,0,0,8,590.38a5.22,5.22,0,0,0-1.54-.23,2.54,2.54,0,0,0-1.17.24,1.58,1.58,0,0,0-.71.69,2.28,2.28,0,0,0-.24,1.09v1.1Z" transform="translate(-1.84 -1.87)"/><path class="cls-1" d="M12.9,581.81a5,5,0,0,1-.58,2.65,2.6,2.6,0,0,1-1.61,1.2,5.85,5.85,0,0,1-2.39.08l-6.27-1v-2.92l6.39,1a2.49,2.49,0,0,0,1.19-.06,1.16,1.16,0,0,0,.65-.53,1.58,1.58,0,0,0,.21-.81,2,2,0,0,0-.47-1.26,2.38,2.38,0,0,0-1.58-.75l-6.39-1v-2.92l6.27,1a6.68,6.68,0,0,1,2.39.81A4,4,0,0,1,12.32,579,6,6,0,0,1,12.9,581.81Z" transform="translate(-1.84 -1.87)"/><path class="cls-1" d="M12.75,575.25l-10.7-1.64v-4.85a4.28,4.28,0,0,1,.46-2.18,2.27,2.27,0,0,1,1.24-1.05,3.74,3.74,0,0,1,1.75-.11,4.44,4.44,0,0,1,1.4.43,3.62,3.62,0,0,1,1,.76,5.06,5.06,0,0,1,.72,1l4.14-1.25v2.95l-3.69,1v1.52l3.69.56Zm-5.83-3.78v-1.66a1.28,1.28,0,0,0-.2-.68,1.94,1.94,0,0,0-.53-.54,1.71,1.71,0,0,0-.66-.27,1.13,1.13,0,0,0-1,.25,1,1,0,0,0-.4.83v1.65Z" transform="translate(-1.84 -1.87)"/><path class="cls-1" d="M12.75,562.48l-10.7,2v-2.72l7.33-1.37L2.05,556.8v-2.74l10.7,5.26Z" transform="translate(-1.84 -1.87)"/><path class="cls-1" d="M12.75,554.35l-10.7-1.63v-2.89l10.7,1.62Z" transform="translate(-1.84 -1.87)"/><path class="cls-1" d="M12.9,544.91a7,7,0,0,1-.2,1.65,4.43,4.43,0,0,1-.61,1.42A2.9,2.9,0,0,1,11,549a2.64,2.64,0,0,1-1.54.28v-3a1.16,1.16,0,0,0,.65-.23,1.29,1.29,0,0,0,.41-.55,2.46,2.46,0,0,0,.14-.86,4.14,4.14,0,0,0-.09-.87,1.84,1.84,0,0,0-.3-.71.85.85,0,0,0-.58-.34.48.48,0,0,0-.51.18,1.67,1.67,0,0,0-.27.63c-.06.26-.12.54-.17.84L8.49,546a3,3,0,0,1-1,1.88,2.73,2.73,0,0,1-2.16.46,3.22,3.22,0,0,1-1.84-.88,4.73,4.73,0,0,1-1.17-1.81,6.52,6.52,0,0,1-.4-2.31A5.06,5.06,0,0,1,2.39,541a3.72,3.72,0,0,1,1.25-1.45,2.79,2.79,0,0,1,1.65-.46v2.93a1.06,1.06,0,0,0-.67.15,1,1,0,0,0-.37.51,2.62,2.62,0,0,0-.11.85,2.52,2.52,0,0,0,.13.9,1.11,1.11,0,0,0,.32.5.79.79,0,0,0,.39.19.66.66,0,0,0,.58-.15,1.63,1.63,0,0,0,.35-.88l.28-1.62a4.6,4.6,0,0,1,.62-1.75,2.28,2.28,0,0,1,.94-.83,2.9,2.9,0,0,1,1.05-.24,6.46,6.46,0,0,1,.92.05,2.9,2.9,0,0,1,1.63.86,5,5,0,0,1,1.13,1.85A7,7,0,0,1,12.9,544.91Z" transform="translate(-1.84 -1.87)"/><path class="cls-1" d="M9.54,533.11a2.11,2.11,0,0,1-.31,1.13,2.25,2.25,0,0,1-.81.81,2.16,2.16,0,0,1-2.23,0,2.3,2.3,0,0,1-.8-.81,2.21,2.21,0,0,1,0-2.26,2.3,2.3,0,0,1,.8-.81,2.16,2.16,0,0,1,2.23,0,2.25,2.25,0,0,1,.81.81A2.11,2.11,0,0,1,9.54,533.11Z" transform="translate(-1.84 -1.87)"/><path class="cls-1" d="M12.75,527l-10.7-1.58V524c0-.74,0-1.47.05-2.18a12.1,12.1,0,0,1,.27-2,4.91,4.91,0,0,1,.68-1.62,3.18,3.18,0,0,1,1.28-1.09,4.87,4.87,0,0,1,2.09-.39,7.46,7.46,0,0,1,1.16.1,7.67,7.67,0,0,1,1.37.35,6.41,6.41,0,0,1,1.38.7A5.14,5.14,0,0,1,11.55,519a5.29,5.29,0,0,1,.87,1.71,7.49,7.49,0,0,1,.33,2.35Zm-2.26-3.25v-1a2.37,2.37,0,0,0-.33-1.21,3.49,3.49,0,0,0-.9-1A4.62,4.62,0,0,0,8,519.89a4.91,4.91,0,0,0-1.54-.24,2.41,2.41,0,0,0-1.17.25,1.58,1.58,0,0,0-.71.69,2.27,2.27,0,0,0-.24,1.08v1.11Z" transform="translate(-1.84 -1.87)"/><path class="cls-1" d="M12.9,511.32a5,5,0,0,1-.58,2.65,2.67,2.67,0,0,1-1.61,1.2,5.87,5.87,0,0,1-2.39.07l-6.27-1v-2.93l6.39,1a2.26,2.26,0,0,0,1.19-.06,1.16,1.16,0,0,0,.65-.53,1.53,1.53,0,0,0,.21-.81,2,2,0,0,0-.47-1.25,2.35,2.35,0,0,0-1.58-.76l-6.39-1V505l6.27,1a6.49,6.49,0,0,1,2.39.8,4.07,4.07,0,0,1,1.61,1.7A6,6,0,0,1,12.9,511.32Z" transform="translate(-1.84 -1.87)"/><path class="cls-1" d="M12.75,504.74l-10.7-1.63v-4.86a4.31,4.31,0,0,1,.46-2.18,2.21,2.21,0,0,1,1.24-1,3.6,3.6,0,0,1,1.75-.12,4.43,4.43,0,0,1,1.4.44,3.41,3.41,0,0,1,1,.75,5.13,5.13,0,0,1,.72,1l4.14-1.25v3l-3.69,1v1.52l3.69.56ZM6.92,501v-1.65a1.32,1.32,0,0,0-.2-.69,1.79,1.79,0,0,0-.53-.53,1.45,1.45,0,0,0-.66-.27,1.1,1.1,0,0,0-1,.25,1,1,0,0,0-.4.82v1.65Z" transform="translate(-1.84 -1.87)"/><path class="cls-1" d="M12.75,492l-10.7,2v-2.71l7.33-1.37-7.33-3.59v-2.73l10.7,5.26Z" transform="translate(-1.84 -1.87)"/><path class="cls-1" d="M12.75,483.82l-10.7-1.63V479.3l10.7,1.62Z" transform="translate(-1.84 -1.87)"/><path class="cls-1" d="M12.9,474.4a7,7,0,0,1-.2,1.65,4.43,4.43,0,0,1-.61,1.42,2.9,2.9,0,0,1-1.06,1,2.64,2.64,0,0,1-1.54.28v-3a1.16,1.16,0,0,0,.65-.23,1.29,1.29,0,0,0,.41-.55,2.46,2.46,0,0,0,.14-.86,4.14,4.14,0,0,0-.09-.87,1.91,1.91,0,0,0-.3-.71.85.85,0,0,0-.58-.34.48.48,0,0,0-.51.18,1.67,1.67,0,0,0-.27.63c-.06.26-.12.54-.17.84l-.28,1.62a3,3,0,0,1-1,1.88,2.77,2.77,0,0,1-2.16.47,3.29,3.29,0,0,1-1.84-.89,4.73,4.73,0,0,1-1.17-1.81,6.52,6.52,0,0,1-.4-2.31,5.06,5.06,0,0,1,.47-2.26,3.62,3.62,0,0,1,1.25-1.44,2.73,2.73,0,0,1,1.65-.47v2.93a1.13,1.13,0,0,0-.67.15,1,1,0,0,0-.37.51,2.62,2.62,0,0,0-.11.85,2.52,2.52,0,0,0,.13.9,1.11,1.11,0,0,0,.32.5.79.79,0,0,0,.39.19.64.64,0,0,0,.58-.15,1.63,1.63,0,0,0,.35-.88L6.19,472a4.49,4.49,0,0,1,.62-1.74,2.24,2.24,0,0,1,.94-.84,2.9,2.9,0,0,1,1.05-.24,6.46,6.46,0,0,1,.92.05,2.9,2.9,0,0,1,1.63.86,5,5,0,0,1,1.13,1.85A7,7,0,0,1,12.9,474.4Z" transform="translate(-1.84 -1.87)"/><path class="cls-1" d="M9.54,462.61a2.11,2.11,0,0,1-.31,1.13,2.25,2.25,0,0,1-.81.81,2.22,2.22,0,0,1-2.23,0,2.3,2.3,0,0,1-.8-.81,2.21,2.21,0,0,1,0-2.26,2.3,2.3,0,0,1,.8-.81,2.16,2.16,0,0,1,2.23,0,2.25,2.25,0,0,1,.81.81A2.11,2.11,0,0,1,9.54,462.61Z" transform="translate(-1.84 -1.87)"/><path class="cls-1" d="M12.75,456.46l-10.7-1.57v-1.43c0-.75,0-1.48.05-2.19a11.83,11.83,0,0,1,.27-2,4.74,4.74,0,0,1,.68-1.62,3.13,3.13,0,0,1,1.28-1.1,4.87,4.87,0,0,1,2.09-.39,8.94,8.94,0,0,1,1.16.1,8.63,8.63,0,0,1,1.37.35,6.46,6.46,0,0,1,1.38.71,5,5,0,0,1,1.22,1.16,5.24,5.24,0,0,1,.87,1.7,7.53,7.53,0,0,1,.33,2.35Zm-2.26-3.24v-1a2.38,2.38,0,0,0-.33-1.22,3.33,3.33,0,0,0-.9-1A4.39,4.39,0,0,0,8,449.39a5.22,5.22,0,0,0-1.54-.23,2.54,2.54,0,0,0-1.17.24,1.58,1.58,0,0,0-.71.69,2.28,2.28,0,0,0-.24,1.09v1.1Z" transform="translate(-1.84 -1.87)"/><path class="cls-1" d="M12.9,440.8a5,5,0,0,1-.58,2.65,2.6,2.6,0,0,1-1.61,1.2,6,6,0,0,1-2.39.08l-6.27-1v-2.93l6.39,1a2.49,2.49,0,0,0,1.19-.06,1.2,1.2,0,0,0,.65-.53,1.58,1.58,0,0,0,.21-.81,2,2,0,0,0-.47-1.26,2.34,2.34,0,0,0-1.58-.75l-6.39-1v-2.92l6.27,1a6.88,6.88,0,0,1,2.39.8,4.13,4.13,0,0,1,1.61,1.7A6,6,0,0,1,12.9,440.8Z" transform="translate(-1.84 -1.87)"/><path class="cls-1" d="M12.75,434.23,2.05,432.6v-4.86a4.27,4.27,0,0,1,.46-2.17,2.27,2.27,0,0,1,1.24-1.05,3.61,3.61,0,0,1,1.75-.11,4.44,4.44,0,0,1,1.4.43,3.8,3.8,0,0,1,1,.75,5.45,5.45,0,0,1,.72,1l4.14-1.25v2.95l-3.69,1v1.52l3.69.56Zm-5.83-3.77V428.8a1.28,1.28,0,0,0-.2-.68,1.82,1.82,0,0,0-1.19-.81,1.1,1.1,0,0,0-1,.25,1,1,0,0,0-.4.82V430Z" transform="translate(-1.84 -1.87)"/><path class="cls-1" d="M12.75,421.44l-10.7,2v-2.71l7.33-1.37-7.33-3.58V413l10.7,5.26Z" transform="translate(-1.84 -1.87)"/><path class="cls-1" d="M12.75,413.31l-10.7-1.63v-2.89l10.7,1.62Z" transform="translate(-1.84 -1.87)"/><path class="cls-1" d="M12.9,403.88a7,7,0,0,1-.2,1.65,4.33,4.33,0,0,1-.61,1.42,2.9,2.9,0,0,1-1.06,1,2.64,2.64,0,0,1-1.54.28v-3a1.23,1.23,0,0,0,.65-.22,1.32,1.32,0,0,0,.41-.56,2.46,2.46,0,0,0,.14-.86,4.14,4.14,0,0,0-.09-.87,1.91,1.91,0,0,0-.3-.71.85.85,0,0,0-.58-.34.48.48,0,0,0-.51.18,1.67,1.67,0,0,0-.27.63c-.06.26-.12.54-.17.84l-.28,1.62a3,3,0,0,1-1,1.88,2.77,2.77,0,0,1-2.16.47,3.29,3.29,0,0,1-1.84-.89,4.73,4.73,0,0,1-1.17-1.81,6.52,6.52,0,0,1-.4-2.31A5.06,5.06,0,0,1,2.39,400a3.62,3.62,0,0,1,1.25-1.44,2.73,2.73,0,0,1,1.65-.47V401a1.13,1.13,0,0,0-.67.15,1,1,0,0,0-.37.51,2.62,2.62,0,0,0-.11.85,2.52,2.52,0,0,0,.13.9,1.06,1.06,0,0,0,.32.5.79.79,0,0,0,.39.19.64.64,0,0,0,.58-.15,1.63,1.63,0,0,0,.35-.88l.28-1.62a4.49,4.49,0,0,1,.62-1.74,2.24,2.24,0,0,1,.94-.84,2.9,2.9,0,0,1,1.05-.24,6.36,6.36,0,0,1,.92.06,2.82,2.82,0,0,1,1.63.85,5,5,0,0,1,1.13,1.85A7,7,0,0,1,12.9,403.88Z" transform="translate(-1.84 -1.87)"/><path class="cls-1" d="M9.54,392.11a2.08,2.08,0,0,1-.31,1.12,2.27,2.27,0,0,1-.81.82,2.22,2.22,0,0,1-2.23,0,2.33,2.33,0,0,1-.8-.82,2.2,2.2,0,0,1,0-2.25,2.33,2.33,0,0,1,.8-.82,2.22,2.22,0,0,1,2.23,0,2.27,2.27,0,0,1,.81.82A2.09,2.09,0,0,1,9.54,392.11Z" transform="translate(-1.84 -1.87)"/><path class="cls-1" d="M12.75,385.93l-10.7-1.57v-1.43c0-.74,0-1.47.05-2.18a12.1,12.1,0,0,1,.27-2,4.91,4.91,0,0,1,.68-1.62,3.18,3.18,0,0,1,1.28-1.09,4.87,4.87,0,0,1,2.09-.39,7.46,7.46,0,0,1,1.16.1,7.67,7.67,0,0,1,1.37.35,6.41,6.41,0,0,1,1.38.7A5.14,5.14,0,0,1,11.55,378a5.29,5.29,0,0,1,.87,1.71,7.49,7.49,0,0,1,.33,2.35Zm-2.26-3.24v-1a2.37,2.37,0,0,0-.33-1.21,3.49,3.49,0,0,0-.9-1A4.62,4.62,0,0,0,8,378.87a4.91,4.91,0,0,0-1.54-.24,2.41,2.41,0,0,0-1.17.25,1.58,1.58,0,0,0-.71.69,2.27,2.27,0,0,0-.24,1.08v1.1Z" transform="translate(-1.84 -1.87)"/><path class="cls-1" d="M12.9,370.29a5,5,0,0,1-.58,2.66,2.67,2.67,0,0,1-1.61,1.2,6.05,6.05,0,0,1-2.39.07l-6.27-1v-2.93l6.39,1a2.26,2.26,0,0,0,1.19-.06,1.16,1.16,0,0,0,.65-.53,1.55,1.55,0,0,0,.21-.81,2,2,0,0,0-.47-1.25,2.35,2.35,0,0,0-1.58-.76l-6.39-1V364l6.27,1a6.68,6.68,0,0,1,2.39.81,4.1,4.1,0,0,1,1.61,1.69A6,6,0,0,1,12.9,370.29Z" transform="translate(-1.84 -1.87)"/><path class="cls-1" d="M12.75,363.75l-10.7-1.63v-4.86a4.28,4.28,0,0,1,.46-2.18,2.21,2.21,0,0,1,1.24-1,3.6,3.6,0,0,1,1.75-.12,4.19,4.19,0,0,1,1.4.44,3.41,3.41,0,0,1,1,.75,5.06,5.06,0,0,1,.72,1l4.14-1.25v3l-3.69,1v1.51l3.69.56ZM6.92,360v-1.65a1.29,1.29,0,0,0-.2-.69,1.94,1.94,0,0,0-.53-.54,1.55,1.55,0,0,0-.66-.26,1.1,1.1,0,0,0-1,.25,1,1,0,0,0-.4.82v1.65Z" transform="translate(-1.84 -1.87)"/><path class="cls-1" d="M12.75,351l-10.7,2v-2.71l7.33-1.37-7.33-3.59v-2.73l10.7,5.26Z" transform="translate(-1.84 -1.87)"/><path class="cls-1" d="M12.75,342.83l-10.7-1.64V338.3l10.7,1.63Z" transform="translate(-1.84 -1.87)"/><path class="cls-1" d="M12.9,333.38a7,7,0,0,1-.2,1.65,4.48,4.48,0,0,1-.61,1.43,3,3,0,0,1-1.06,1,2.81,2.81,0,0,1-1.54.28v-3a1.15,1.15,0,0,0,.65-.22,1.32,1.32,0,0,0,.41-.56,2.42,2.42,0,0,0,.14-.86,4.14,4.14,0,0,0-.09-.87,1.79,1.79,0,0,0-.3-.7.83.83,0,0,0-.58-.35.52.52,0,0,0-.51.18,1.67,1.67,0,0,0-.27.63c-.06.27-.12.55-.17.84l-.28,1.62a2.93,2.93,0,0,1-1,1.88,2.73,2.73,0,0,1-2.16.47,3.29,3.29,0,0,1-1.84-.89,4.65,4.65,0,0,1-1.17-1.81,6.52,6.52,0,0,1-.4-2.31,5.06,5.06,0,0,1,.47-2.26,3.62,3.62,0,0,1,1.25-1.44,2.66,2.66,0,0,1,1.65-.46v2.92a1.13,1.13,0,0,0-.67.15,1,1,0,0,0-.37.51,2.62,2.62,0,0,0-.11.85,2.52,2.52,0,0,0,.13.9,1.06,1.06,0,0,0,.32.5.79.79,0,0,0,.39.19.64.64,0,0,0,.58-.15,1.63,1.63,0,0,0,.35-.88L6.19,331a4.49,4.49,0,0,1,.62-1.74,2.38,2.38,0,0,1,.94-.84,2.9,2.9,0,0,1,1.05-.24,6.36,6.36,0,0,1,.92.06,2.88,2.88,0,0,1,1.63.85,5,5,0,0,1,1.13,1.85A7,7,0,0,1,12.9,333.38Z" transform="translate(-1.84 -1.87)"/><path class="cls-1" d="M9.54,321.61a2.11,2.11,0,0,1-.31,1.13,2.25,2.25,0,0,1-.81.81,2.22,2.22,0,0,1-2.23,0,2.3,2.3,0,0,1-.8-.81,2.21,2.21,0,0,1,0-2.26,2.41,2.41,0,0,1,.8-.82,2.22,2.22,0,0,1,2.23,0,2.35,2.35,0,0,1,.81.82A2.11,2.11,0,0,1,9.54,321.61Z" transform="translate(-1.84 -1.87)"/><path class="cls-1" d="M12.75,315.44l-10.7-1.57v-1.43c0-.75,0-1.48.05-2.19a11.83,11.83,0,0,1,.27-2,4.74,4.74,0,0,1,.68-1.62,3.2,3.2,0,0,1,1.28-1.1,4.87,4.87,0,0,1,2.09-.39,8.94,8.94,0,0,1,1.16.1,8.63,8.63,0,0,1,1.37.35,6.46,6.46,0,0,1,1.38.71,5,5,0,0,1,1.22,1.16,5.24,5.24,0,0,1,.87,1.7,7.53,7.53,0,0,1,.33,2.35Zm-2.26-3.24v-1a2.32,2.32,0,0,0-.33-1.21,3.25,3.25,0,0,0-.9-1A4.14,4.14,0,0,0,8,308.38a4.91,4.91,0,0,0-1.54-.24,2.54,2.54,0,0,0-1.17.24,1.58,1.58,0,0,0-.71.69,2.28,2.28,0,0,0-.24,1.09v1.1Z" transform="translate(-1.84 -1.87)"/><path class="cls-1" d="M12.9,299.8a5,5,0,0,1-.58,2.65,2.6,2.6,0,0,1-1.61,1.2,5.87,5.87,0,0,1-2.39.07l-6.27-1v-2.93l6.39,1a2.49,2.49,0,0,0,1.19-.06,1.2,1.2,0,0,0,.65-.53,1.58,1.58,0,0,0,.21-.81,2,2,0,0,0-.47-1.26,2.39,2.39,0,0,0-1.58-.76l-6.39-1v-2.93l6.27,1a6.88,6.88,0,0,1,2.39.8,4.13,4.13,0,0,1,1.61,1.7A6,6,0,0,1,12.9,299.8Z" transform="translate(-1.84 -1.87)"/><path class="cls-1" d="M12.75,293.21l-10.7-1.63v-4.85a4.28,4.28,0,0,1,.46-2.18,2.27,2.27,0,0,1,1.24-1.05,3.74,3.74,0,0,1,1.75-.11,4.44,4.44,0,0,1,1.4.43,3.62,3.62,0,0,1,1,.76,5.06,5.06,0,0,1,.72,1l4.14-1.25v2.95l-3.69,1v1.52l3.69.56Zm-5.83-3.77v-1.66a1.28,1.28,0,0,0-.2-.68,1.82,1.82,0,0,0-.53-.54,1.71,1.71,0,0,0-.66-.27,1.13,1.13,0,0,0-1,.25,1,1,0,0,0-.4.83V289Z" transform="translate(-1.84 -1.87)"/><path class="cls-1" d="M12.75,280.44l-10.7,2v-2.71l7.33-1.37-7.33-3.58V272l10.7,5.26Z" transform="translate(-1.84 -1.87)"/><path class="cls-1" d="M12.75,272.3l-10.7-1.63v-2.89l10.7,1.62Z" transform="translate(-1.84 -1.87)"/><path class="cls-1" d="M12.9,262.9a6.88,6.88,0,0,1-.2,1.64,4.48,4.48,0,0,1-.61,1.43,3,3,0,0,1-1.06,1,2.81,2.81,0,0,1-1.54.28v-3a1.15,1.15,0,0,0,.65-.22,1.26,1.26,0,0,0,.41-.56,2.42,2.42,0,0,0,.14-.86,4.14,4.14,0,0,0-.09-.87,1.79,1.79,0,0,0-.3-.7.86.86,0,0,0-.58-.35.52.52,0,0,0-.51.18,1.67,1.67,0,0,0-.27.63c-.06.27-.12.55-.17.85l-.28,1.61a2.93,2.93,0,0,1-1,1.88,2.73,2.73,0,0,1-2.16.47,3.28,3.28,0,0,1-1.84-.88,4.8,4.8,0,0,1-1.17-1.81,6.62,6.62,0,0,1-.4-2.32A5.06,5.06,0,0,1,2.39,259a3.62,3.62,0,0,1,1.25-1.44,2.72,2.72,0,0,1,1.65-.46V260a1.06,1.06,0,0,0-.67.14,1,1,0,0,0-.37.51,2.62,2.62,0,0,0-.11.85,2.52,2.52,0,0,0,.13.9,1.15,1.15,0,0,0,.32.51.88.88,0,0,0,.39.19.67.67,0,0,0,.58-.16,1.59,1.59,0,0,0,.35-.88l.28-1.62a4.49,4.49,0,0,1,.62-1.74,2.28,2.28,0,0,1,.94-.83,2.54,2.54,0,0,1,1.05-.24,5.26,5.26,0,0,1,.92.05,2.84,2.84,0,0,1,1.63.86,4.9,4.9,0,0,1,1.13,1.84A7.05,7.05,0,0,1,12.9,262.9Z" transform="translate(-1.84 -1.87)"/><path class="cls-1" d="M9.54,251.09a2.11,2.11,0,0,1-.31,1.13,2.25,2.25,0,0,1-.81.81,2.22,2.22,0,0,1-2.23,0,2.3,2.3,0,0,1-.8-.81,2.21,2.21,0,0,1,0-2.26,2.3,2.3,0,0,1,.8-.81,2.16,2.16,0,0,1,2.23,0,2.25,2.25,0,0,1,.81.81A2.11,2.11,0,0,1,9.54,251.09Z" transform="translate(-1.84 -1.87)"/><path class="cls-1" d="M12.75,244.93l-10.7-1.57v-1.43c0-.75,0-1.48.05-2.19a11.83,11.83,0,0,1,.27-2,4.74,4.74,0,0,1,.68-1.62,3.11,3.11,0,0,1,1.28-1.09,4.87,4.87,0,0,1,2.09-.39,7.46,7.46,0,0,1,1.16.1,6.9,6.9,0,0,1,1.37.35,6,6,0,0,1,1.38.7A5,5,0,0,1,11.55,237a5.34,5.34,0,0,1,.87,1.7,7.55,7.55,0,0,1,.33,2.36Zm-2.26-3.24v-1a2.32,2.32,0,0,0-.33-1.21,3.25,3.25,0,0,0-.9-1A4.62,4.62,0,0,0,8,237.87a4.91,4.91,0,0,0-1.54-.24,2.54,2.54,0,0,0-1.17.24,1.58,1.58,0,0,0-.71.69,2.28,2.28,0,0,0-.24,1.09v1.1Z" transform="translate(-1.84 -1.87)"/><path class="cls-1" d="M12.9,229.28a5,5,0,0,1-.58,2.65,2.6,2.6,0,0,1-1.61,1.2,5.85,5.85,0,0,1-2.39.08l-6.27-1v-2.92l6.39,1a2.49,2.49,0,0,0,1.19-.06,1.16,1.16,0,0,0,.65-.53,1.58,1.58,0,0,0,.21-.81,2,2,0,0,0-.47-1.26,2.38,2.38,0,0,0-1.58-.75l-6.39-1V223l6.27,1a6.68,6.68,0,0,1,2.39.81,4,4,0,0,1,1.61,1.69A6,6,0,0,1,12.9,229.28Z" transform="translate(-1.84 -1.87)"/><path class="cls-1" d="M12.75,222.71l-10.7-1.63v-4.86A4.31,4.31,0,0,1,2.51,214a2.21,2.21,0,0,1,1.24-1,3.6,3.6,0,0,1,1.75-.12,4.43,4.43,0,0,1,1.4.44,3.59,3.59,0,0,1,1,.75,5.45,5.45,0,0,1,.72,1l4.14-1.25v2.95l-3.69,1v1.52l3.69.56Zm-5.83-3.78v-1.65a1.34,1.34,0,0,0-.2-.69,1.79,1.79,0,0,0-.53-.53,1.45,1.45,0,0,0-.66-.27,1.1,1.1,0,0,0-1,.25,1,1,0,0,0-.4.82v1.66Z" transform="translate(-1.84 -1.87)"/><path class="cls-1" d="M12.75,209.93l-10.7,2V209.2l7.33-1.37-7.33-3.58v-2.74l10.7,5.26Z" transform="translate(-1.84 -1.87)"/><path class="cls-1" d="M12.75,201.79l-10.7-1.63v-2.89l10.7,1.62Z" transform="translate(-1.84 -1.87)"/><path class="cls-1" d="M12.9,192.36a6.88,6.88,0,0,1-.2,1.64,4.39,4.39,0,0,1-.61,1.43,2.9,2.9,0,0,1-1.06,1,2.72,2.72,0,0,1-1.54.28v-3a1.16,1.16,0,0,0,.65-.23,1.29,1.29,0,0,0,.41-.55,2.46,2.46,0,0,0,.14-.86,4.14,4.14,0,0,0-.09-.87,1.84,1.84,0,0,0-.3-.71.85.85,0,0,0-.58-.34.48.48,0,0,0-.51.18,1.67,1.67,0,0,0-.27.63c-.06.26-.12.54-.17.84l-.28,1.62a3,3,0,0,1-1,1.88,2.73,2.73,0,0,1-2.16.46,3.22,3.22,0,0,1-1.84-.88,4.73,4.73,0,0,1-1.17-1.81,6.52,6.52,0,0,1-.4-2.31,5,5,0,0,1,.47-2.26A3.72,3.72,0,0,1,3.64,187a2.79,2.79,0,0,1,1.65-.46v2.93a1.06,1.06,0,0,0-.67.15,1,1,0,0,0-.37.51,2.58,2.58,0,0,0-.11.85,2.52,2.52,0,0,0,.13.9,1.11,1.11,0,0,0,.32.5.79.79,0,0,0,.39.19.7.7,0,0,0,.58-.15,1.63,1.63,0,0,0,.35-.89L6.19,190a4.6,4.6,0,0,1,.62-1.75,2.28,2.28,0,0,1,.94-.83,2.9,2.9,0,0,1,1.05-.24,6.46,6.46,0,0,1,.92.05,2.9,2.9,0,0,1,1.63.86,5,5,0,0,1,1.13,1.85A7,7,0,0,1,12.9,192.36Z" transform="translate(-1.84 -1.87)"/><path class="cls-1" d="M9.54,180.56a2.11,2.11,0,0,1-.31,1.13,2.25,2.25,0,0,1-.81.81,2.22,2.22,0,0,1-2.23,0,2.3,2.3,0,0,1-.8-.81,2.21,2.21,0,0,1,0-2.26,2.3,2.3,0,0,1,.8-.81,2.16,2.16,0,0,1,2.23,0,2.25,2.25,0,0,1,.81.81A2.11,2.11,0,0,1,9.54,180.56Z" transform="translate(-1.84 -1.87)"/><path class="cls-1" d="M12.75,174.41l-10.7-1.57v-1.43c0-.74,0-1.47.05-2.18a12.1,12.1,0,0,1,.27-2,4.91,4.91,0,0,1,.68-1.62,3.18,3.18,0,0,1,1.28-1.09,4.87,4.87,0,0,1,2.09-.39,7.46,7.46,0,0,1,1.16.1,7.67,7.67,0,0,1,1.37.35,6.41,6.41,0,0,1,1.38.7,5.14,5.14,0,0,1,1.22,1.16,5.29,5.29,0,0,1,.87,1.71,7.49,7.49,0,0,1,.33,2.35Zm-2.26-3.24v-1a2.37,2.37,0,0,0-.33-1.21,3.49,3.49,0,0,0-.9-1A4.62,4.62,0,0,0,8,167.35a4.91,4.91,0,0,0-1.54-.24,2.54,2.54,0,0,0-1.17.24,1.66,1.66,0,0,0-.71.7,2.27,2.27,0,0,0-.24,1.08v1.1Z" transform="translate(-1.84 -1.87)"/><path class="cls-1" d="M12.9,158.77a5,5,0,0,1-.58,2.65,2.67,2.67,0,0,1-1.61,1.2,5.87,5.87,0,0,1-2.39.07l-6.27-.95v-2.93l6.39,1a2.26,2.26,0,0,0,1.19-.06,1.19,1.19,0,0,0,.65-.52,1.59,1.59,0,0,0,.21-.82,2,2,0,0,0-.47-1.25,2.35,2.35,0,0,0-1.58-.76l-6.39-1v-2.92l6.27,1a6.49,6.49,0,0,1,2.39.8,4.07,4.07,0,0,1,1.61,1.7A6,6,0,0,1,12.9,158.77Z" transform="translate(-1.84 -1.87)"/><path class="cls-1" d="M12.75,152.19l-10.7-1.63v-4.85a4.28,4.28,0,0,1,.46-2.18,2.27,2.27,0,0,1,1.24-1.05,3.74,3.74,0,0,1,1.75-.11,4.44,4.44,0,0,1,1.4.43,3.62,3.62,0,0,1,1,.76,5.06,5.06,0,0,1,.72,1l4.14-1.25v3l-3.69,1v1.52l3.69.56Zm-5.83-3.77v-1.66a1.28,1.28,0,0,0-.2-.68,1.82,1.82,0,0,0-1.19-.81,1.13,1.13,0,0,0-1,.25,1,1,0,0,0-.4.83V148Z" transform="translate(-1.84 -1.87)"/><path class="cls-1" d="M12.75,139.42l-10.7,2v-2.71l7.33-1.37-7.33-3.58V131l10.7,5.26Z" transform="translate(-1.84 -1.87)"/><path class="cls-1" d="M12.75,131.29l-10.7-1.63v-2.89l10.7,1.63Z" transform="translate(-1.84 -1.87)"/><path class="cls-1" d="M12.9,121.87a6.88,6.88,0,0,1-.2,1.64,4.39,4.39,0,0,1-.61,1.43,2.9,2.9,0,0,1-1.06,1,2.72,2.72,0,0,1-1.54.28v-3a1.16,1.16,0,0,0,.65-.23,1.26,1.26,0,0,0,.41-.56,2.36,2.36,0,0,0,.14-.85,4,4,0,0,0-.09-.87,1.84,1.84,0,0,0-.3-.71.86.86,0,0,0-.58-.35.5.5,0,0,0-.51.19,1.53,1.53,0,0,0-.27.63c-.06.26-.12.54-.17.84l-.28,1.62a3,3,0,0,1-1,1.88,2.73,2.73,0,0,1-2.16.46,3.28,3.28,0,0,1-1.84-.88,4.73,4.73,0,0,1-1.17-1.81,6.52,6.52,0,0,1-.4-2.31A5,5,0,0,1,2.39,118a3.72,3.72,0,0,1,1.25-1.45,2.79,2.79,0,0,1,1.65-.46V119a1.06,1.06,0,0,0-.67.14,1,1,0,0,0-.37.52,3.26,3.26,0,0,0,0,1.75,1.17,1.17,0,0,0,.32.5.79.79,0,0,0,.39.19.7.7,0,0,0,.58-.15,1.63,1.63,0,0,0,.35-.89l.28-1.61a4.6,4.6,0,0,1,.62-1.75,2.28,2.28,0,0,1,.94-.83,2.71,2.71,0,0,1,1.05-.24,5.26,5.26,0,0,1,.92,0,2.9,2.9,0,0,1,1.63.86,5,5,0,0,1,1.13,1.85A7,7,0,0,1,12.9,121.87Z" transform="translate(-1.84 -1.87)"/><path class="cls-1" d="M9.54,110.07a2.09,2.09,0,0,1-.31,1.13,2.25,2.25,0,0,1-.81.81,2.16,2.16,0,0,1-2.23,0,2.3,2.3,0,0,1-.8-.81,2.09,2.09,0,0,1-.31-1.13,2.14,2.14,0,0,1,.31-1.13,2.3,2.3,0,0,1,.8-.81,2.16,2.16,0,0,1,2.23,0,2.25,2.25,0,0,1,.81.81A2.14,2.14,0,0,1,9.54,110.07Z" transform="translate(-1.84 -1.87)"/><path class="cls-1" d="M12.75,103.91l-10.7-1.57v-1.43c0-.75,0-1.47.05-2.18a12,12,0,0,1,.27-2,4.91,4.91,0,0,1,.68-1.62A3.11,3.11,0,0,1,4.33,94a4.87,4.87,0,0,1,2.09-.39,7.46,7.46,0,0,1,1.16.1A6.9,6.9,0,0,1,9,94.09a6,6,0,0,1,1.38.7A5,5,0,0,1,11.55,96a5.34,5.34,0,0,1,.87,1.7,7.55,7.55,0,0,1,.33,2.36Zm-2.26-3.24v-1a2.34,2.34,0,0,0-.33-1.21,3.25,3.25,0,0,0-.9-1A4.62,4.62,0,0,0,8,96.85a4.91,4.91,0,0,0-1.54-.24,2.54,2.54,0,0,0-1.17.24,1.58,1.58,0,0,0-.71.69,2.31,2.31,0,0,0-.24,1.09v1.1Z" transform="translate(-1.84 -1.87)"/><path class="cls-1" d="M12.9,88.26a5,5,0,0,1-.58,2.65,2.6,2.6,0,0,1-1.61,1.2,5.87,5.87,0,0,1-2.39.07l-6.27-1V88.3l6.39,1a2.49,2.49,0,0,0,1.19-.06,1.2,1.2,0,0,0,.65-.53,1.58,1.58,0,0,0,.21-.81A2,2,0,0,0,10,86.63a2.39,2.39,0,0,0-1.58-.76l-6.39-1V82l6.27,1a6.88,6.88,0,0,1,2.39.8,4.13,4.13,0,0,1,1.61,1.7A6,6,0,0,1,12.9,88.26Z" transform="translate(-1.84 -1.87)"/><path class="cls-1" d="M12.75,81.69,2.05,80.06V75.2A4.28,4.28,0,0,1,2.51,73a2.21,2.21,0,0,1,1.24-1,3.6,3.6,0,0,1,1.75-.12,4.19,4.19,0,0,1,1.4.44,3.41,3.41,0,0,1,1,.75,4.84,4.84,0,0,1,.72,1l4.14-1.26v3l-3.69,1v1.52l3.69.55ZM6.92,77.91V76.26a1.29,1.29,0,0,0-.2-.69A1.94,1.94,0,0,0,6.19,75a1.55,1.55,0,0,0-.66-.26,1.1,1.1,0,0,0-1,.25,1,1,0,0,0-.4.82v1.65Z" transform="translate(-1.84 -1.87)"/><path class="cls-1" d="M12.75,68.91l-10.7,2V68.18l7.33-1.37L2.05,63.23V60.49l10.7,5.26Z" transform="translate(-1.84 -1.87)"/><path class="cls-1" d="M12.75,60.77,2.05,59.14V56.25l10.7,1.63Z" transform="translate(-1.84 -1.87)"/><path class="cls-1" d="M12.9,51.35A6.88,6.88,0,0,1,12.7,53a4.48,4.48,0,0,1-.61,1.43,3,3,0,0,1-1.06,1,2.81,2.81,0,0,1-1.54.28v-3a1.15,1.15,0,0,0,.65-.22,1.32,1.32,0,0,0,.41-.56,2.42,2.42,0,0,0,.14-.86,4.14,4.14,0,0,0-.09-.87,1.79,1.79,0,0,0-.3-.7.86.86,0,0,0-.58-.35.52.52,0,0,0-.51.18,1.67,1.67,0,0,0-.27.63c-.06.27-.12.55-.17.84l-.28,1.62a2.93,2.93,0,0,1-1,1.88,2.73,2.73,0,0,1-2.16.47,3.35,3.35,0,0,1-1.84-.88A4.8,4.8,0,0,1,2.32,52a6.62,6.62,0,0,1-.4-2.32,5.06,5.06,0,0,1,.47-2.26A3.62,3.62,0,0,1,3.64,46a2.72,2.72,0,0,1,1.65-.46v2.93a1.06,1.06,0,0,0-.67.14,1,1,0,0,0-.37.51,2.62,2.62,0,0,0-.11.85,2.52,2.52,0,0,0,.13.9,1.06,1.06,0,0,0,.32.5.79.79,0,0,0,.39.19.64.64,0,0,0,.58-.15,1.63,1.63,0,0,0,.35-.88l.28-1.62a4.49,4.49,0,0,1,.62-1.74,2.38,2.38,0,0,1,.94-.84,2.69,2.69,0,0,1,1.05-.23,5.26,5.26,0,0,1,.92.05,2.88,2.88,0,0,1,1.63.85,5,5,0,0,1,1.13,1.85A7.05,7.05,0,0,1,12.9,51.35Z" transform="translate(-1.84 -1.87)"/><path class="cls-1" d="M9.54,39.56a2.11,2.11,0,0,1-.31,1.13,2.25,2.25,0,0,1-.81.81,2.22,2.22,0,0,1-2.23,0,2.3,2.3,0,0,1-.8-.81,2.21,2.21,0,0,1,0-2.26,2.3,2.3,0,0,1,.8-.81,2.16,2.16,0,0,1,2.23,0,2.25,2.25,0,0,1,.81.81A2.11,2.11,0,0,1,9.54,39.56Z" transform="translate(-1.84 -1.87)"/><path class="cls-1" d="M12.34,33.81,1.84,31.22c0-.07,0-.24,0-.51S2,30.14,2,29.8c.07-.75.16-1.47.27-2.17a10.74,10.74,0,0,1,.45-1.95,4.88,4.88,0,0,1,.83-1.55,3.06,3.06,0,0,1,1.39-1A4.79,4.79,0,0,1,7,23a7.37,7.37,0,0,1,1.14.21,7.65,7.65,0,0,1,1.33.48,6.19,6.19,0,0,1,1.32.83,5.44,5.44,0,0,1,1.1,1.27,5.57,5.57,0,0,1,.7,1.78,7.63,7.63,0,0,1,.1,2.38ZM10.4,30.37l.09-1a2.18,2.18,0,0,0-.21-1.23,3.23,3.23,0,0,0-.79-1.07,4.55,4.55,0,0,0-1.23-.79,5,5,0,0,0-1.5-.38,2.47,2.47,0,0,0-1.19.13,1.53,1.53,0,0,0-.77.62,2.21,2.21,0,0,0-.34,1l-.11,1.1Z" transform="translate(-1.84 -1.87)"/><path class="cls-1" d="M15.65,21.06a5,5,0,0,1-2,1.86,2.62,2.62,0,0,1-2,.08,6,6,0,0,1-2-1.29L5,17.36,6.69,15l4.71,4.44a2.4,2.4,0,0,0,1,.62,1.25,1.25,0,0,0,.84-.07,1.62,1.62,0,0,0,.62-.55,2,2,0,0,0,.33-1.3,2.35,2.35,0,0,0-.87-1.52L8.61,12.15l1.66-2.4,4.63,4.34a6.71,6.71,0,0,1,1.51,2,4.08,4.08,0,0,1,.36,2.3A6,6,0,0,1,15.65,21.06Z" transform="translate(-1.84 -1.87)"/><path class="cls-1" d="M18,17.06,14.47,6.83l4.3-2.26A4.23,4.23,0,0,1,20.91,4a2.26,2.26,0,0,1,1.5.61,3.67,3.67,0,0,1,.92,1.49,4.53,4.53,0,0,1,.27,1.45,3.78,3.78,0,0,1-.21,1.23,4.81,4.81,0,0,1-.54,1.09l3,3.08-2.61,1.38-2.6-2.8-1.34.7,1.22,3.52Zm.63-6.92,1.46-.77a1.23,1.23,0,0,0,.51-.5,1.65,1.65,0,0,0,.23-.71,1.57,1.57,0,0,0-.07-.72,1.13,1.13,0,0,0-.66-.72,1,1,0,0,0-.91,0l-1.47.77Z" transform="translate(-1.84 -1.87)"/><path class="cls-1" d="M27.86,12.83,25.54,2.2l2.71-.09,1.6,7.28L33.2,2l2.73-.09L31,12.73Z" transform="translate(-1.84 -1.87)"/><path class="cls-1" d="M35.86,12.75l1.63-10.7h2.89l-1.62,10.7Z" transform="translate(-1.84 -1.87)"/><path class="cls-1" d="M45.28,12.9a6.88,6.88,0,0,1-1.64-.2,4.48,4.48,0,0,1-1.43-.61,2.9,2.9,0,0,1-1-1.06A2.81,2.81,0,0,1,41,9.49h3a1.15,1.15,0,0,0,.22.65,1.26,1.26,0,0,0,.56.41,2.42,2.42,0,0,0,.86.14,4.14,4.14,0,0,0,.87-.09,1.65,1.65,0,0,0,.7-.3.86.86,0,0,0,.35-.58.52.52,0,0,0-.18-.51,1.67,1.67,0,0,0-.63-.27l-.85-.17-1.61-.28a2.93,2.93,0,0,1-1.88-1,2.73,2.73,0,0,1-.47-2.16,3.28,3.28,0,0,1,.88-1.84,4.8,4.8,0,0,1,1.81-1.17,6.62,6.62,0,0,1,2.32-.4,5.06,5.06,0,0,1,2.26.47,3.62,3.62,0,0,1,1.44,1.25,2.72,2.72,0,0,1,.46,1.65H48.14A1.06,1.06,0,0,0,48,4.62a1,1,0,0,0-.51-.37,2.62,2.62,0,0,0-.85-.11,2.52,2.52,0,0,0-.9.13,1.15,1.15,0,0,0-.51.32A.88.88,0,0,0,45,5a.67.67,0,0,0,.16.58,1.59,1.59,0,0,0,.88.35l1.62.28a4.49,4.49,0,0,1,1.74.62,2.28,2.28,0,0,1,.83.94,2.54,2.54,0,0,1,.24,1.05,5.26,5.26,0,0,1,0,.92,2.84,2.84,0,0,1-.86,1.63,4.9,4.9,0,0,1-1.84,1.13A7.05,7.05,0,0,1,45.28,12.9Z" transform="translate(-1.84 -1.87)"/><path class="cls-1" d="M57.07,9.54a2.17,2.17,0,0,1-1.13-.3,2.47,2.47,0,0,1-.82-.82,2.22,2.22,0,0,1,0-2.23,2.41,2.41,0,0,1,.82-.8,2.2,2.2,0,0,1,2.25,0,2.33,2.33,0,0,1,.82.8,2.16,2.16,0,0,1,0,2.23,2.38,2.38,0,0,1-.82.82A2.16,2.16,0,0,1,57.07,9.54Z" transform="translate(-1.84 -1.87)"/><path class="cls-1" d="M63.24,12.75l1.57-10.7h1.43c.74,0,1.47,0,2.18.05a12.1,12.1,0,0,1,2,.27A4.91,4.91,0,0,1,72,3.05a3.11,3.11,0,0,1,1.09,1.28,4.87,4.87,0,0,1,.39,2.09,7.46,7.46,0,0,1-.1,1.16A7.67,7.67,0,0,1,73.06,9a6.41,6.41,0,0,1-.7,1.38,5.14,5.14,0,0,1-1.16,1.22,5.34,5.34,0,0,1-1.7.87,7.55,7.55,0,0,1-2.36.33Zm3.24-2.26h1a2.34,2.34,0,0,0,1.21-.33,3.37,3.37,0,0,0,1-.9A4.62,4.62,0,0,0,70.3,8a4.91,4.91,0,0,0,.24-1.54,2.54,2.54,0,0,0-.24-1.17,1.6,1.6,0,0,0-.7-.71,2.27,2.27,0,0,0-1.08-.24h-1.1Z" transform="translate(-1.84 -1.87)"/><path class="cls-1" d="M78.89,12.9a5,5,0,0,1-2.66-.58A2.62,2.62,0,0,1,75,10.71,5.81,5.81,0,0,1,75,8.33l1-6.28h2.93l-1,6.39a2.26,2.26,0,0,0,.06,1.19,1.16,1.16,0,0,0,.53.65,1.58,1.58,0,0,0,.81.21A2,2,0,0,0,80.52,10a2.38,2.38,0,0,0,.75-1.58l1-6.39h2.92l-1,6.28a6.7,6.7,0,0,1-.81,2.38,4.1,4.1,0,0,1-1.69,1.61A6,6,0,0,1,78.89,12.9Z" transform="translate(-1.84 -1.87)"/><path class="cls-1" d="M85.45,12.75l1.63-10.7h4.86a4.31,4.31,0,0,1,2.18.46,2.21,2.21,0,0,1,1,1.24,3.6,3.6,0,0,1,.12,1.75,4.43,4.43,0,0,1-.44,1.4,3.59,3.59,0,0,1-.75,1,5.45,5.45,0,0,1-1,.72l1.25,4.14H91.4l-1-3.69H88.89l-.56,3.69Zm3.78-5.83h1.65a1.34,1.34,0,0,0,.69-.2,1.79,1.79,0,0,0,.53-.53,1.45,1.45,0,0,0,.27-.66,1.1,1.1,0,0,0-.25-1,1,1,0,0,0-.82-.4H89.65Z" transform="translate(-1.84 -1.87)"/><path class="cls-1" d="M98.24,12.75l-2-10.7H99l1.37,7.33,3.59-7.33h2.73l-5.26,10.7Z" transform="translate(-1.84 -1.87)"/><path class="cls-1" d="M106.35,12.75,108,2.05h2.89l-1.62,10.7Z" transform="translate(-1.84 -1.87)"/><path class="cls-1" d="M115.78,12.9a6.88,6.88,0,0,1-1.64-.2,4.39,4.39,0,0,1-1.43-.61,2.82,2.82,0,0,1-1-1.06,2.72,2.72,0,0,1-.28-1.54h3a1.16,1.16,0,0,0,.23.65,1.26,1.26,0,0,0,.56.41,2.36,2.36,0,0,0,.85.14,4,4,0,0,0,.87-.09,1.7,1.7,0,0,0,.71-.3.86.86,0,0,0,.35-.58.5.5,0,0,0-.19-.51,1.53,1.53,0,0,0-.63-.27c-.26-.06-.54-.12-.84-.17l-1.62-.28a3,3,0,0,1-1.88-1,2.73,2.73,0,0,1-.46-2.16,3.28,3.28,0,0,1,.88-1.84,4.73,4.73,0,0,1,1.81-1.17,6.52,6.52,0,0,1,2.31-.4,5.11,5.11,0,0,1,2.27.47,3.76,3.76,0,0,1,1.44,1.25,2.79,2.79,0,0,1,.46,1.65h-2.93a1.06,1.06,0,0,0-.14-.67,1,1,0,0,0-.51-.37,2.66,2.66,0,0,0-.85-.11,2.54,2.54,0,0,0-.91.13,1.17,1.17,0,0,0-.5.32.79.79,0,0,0-.19.39.7.7,0,0,0,.15.58,1.63,1.63,0,0,0,.89.35l1.61.28a4.54,4.54,0,0,1,1.75.62,2.28,2.28,0,0,1,.83.94A2.54,2.54,0,0,1,121,8.8a5.26,5.26,0,0,1-.05.92,2.9,2.9,0,0,1-.86,1.63,5,5,0,0,1-1.85,1.13A7,7,0,0,1,115.78,12.9Z" transform="translate(-1.84 -1.87)"/><path class="cls-1" d="M127.58,9.54a2.2,2.2,0,0,1-1.13-.3,2.35,2.35,0,0,1-.81-.82,2.16,2.16,0,0,1,0-2.23,2.3,2.3,0,0,1,.81-.8,2.21,2.21,0,0,1,2.26,0,2.3,2.3,0,0,1,.81.8,2.16,2.16,0,0,1,0,2.23,2.35,2.35,0,0,1-.81.82A2.2,2.2,0,0,1,127.58,9.54Z" transform="translate(-1.84 -1.87)"/><path class="cls-1" d="M133.74,12.75l1.58-10.7h1.43c.74,0,1.47,0,2.18.05a12.1,12.1,0,0,1,2,.27,4.91,4.91,0,0,1,1.62.68,3.18,3.18,0,0,1,1.09,1.28A4.87,4.87,0,0,1,144,6.42a7.46,7.46,0,0,1-.1,1.16A8.63,8.63,0,0,1,143.57,9a6,6,0,0,1-.71,1.38,4.91,4.91,0,0,1-1.15,1.22,5.29,5.29,0,0,1-1.71.87,7.49,7.49,0,0,1-2.35.33ZM137,10.49h1a2.37,2.37,0,0,0,1.21-.33,3.49,3.49,0,0,0,1-.9A4.62,4.62,0,0,0,140.81,8a4.91,4.91,0,0,0,.24-1.54,2.41,2.41,0,0,0-.25-1.17,1.58,1.58,0,0,0-.69-.71A2.27,2.27,0,0,0,139,4.31h-1.11Z" transform="translate(-1.84 -1.87)"/><path class="cls-1" d="M149.4,12.9a5,5,0,0,1-2.65-.58,2.6,2.6,0,0,1-1.2-1.61,6,6,0,0,1-.08-2.38l1-6.28h2.93l-1,6.39a2.49,2.49,0,0,0,.06,1.19,1.2,1.2,0,0,0,.53.65,1.58,1.58,0,0,0,.81.21A2,2,0,0,0,151,10a2.39,2.39,0,0,0,.76-1.58l1-6.39h2.92l-.95,6.28a6.89,6.89,0,0,1-.8,2.38,4.13,4.13,0,0,1-1.7,1.61A6,6,0,0,1,149.4,12.9Z" transform="translate(-1.84 -1.87)"/><path class="cls-1" d="M156,12.75l1.63-10.7h4.86a4.31,4.31,0,0,1,2.18.46,2.21,2.21,0,0,1,1,1.24,3.6,3.6,0,0,1,.12,1.75,4.43,4.43,0,0,1-.44,1.4,3.41,3.41,0,0,1-.75,1,4.84,4.84,0,0,1-1,.72l1.26,4.14h-3l-1-3.69H159.4l-.56,3.69Zm3.78-5.83h1.65a1.32,1.32,0,0,0,.69-.2,1.79,1.79,0,0,0,.53-.53,1.45,1.45,0,0,0,.27-.66,1.1,1.1,0,0,0-.25-1,1,1,0,0,0-.82-.4h-1.65Z" transform="translate(-1.84 -1.87)"/><path class="cls-1" d="M168.74,12.75l-2-10.7h2.71l1.37,7.33,3.58-7.33h2.74l-5.26,10.7Z" transform="translate(-1.84 -1.87)"/><path class="cls-1" d="M176.87,12.75l1.63-10.7h2.89l-1.62,10.7Z" transform="translate(-1.84 -1.87)"/><path class="cls-1" d="M186.29,12.9a7,7,0,0,1-1.64-.2,4.33,4.33,0,0,1-1.42-.61,2.85,2.85,0,0,1-1-1.06A2.81,2.81,0,0,1,182,9.49h3a1.15,1.15,0,0,0,.22.65,1.32,1.32,0,0,0,.56.41,2.46,2.46,0,0,0,.86.14,4.14,4.14,0,0,0,.87-.09,1.65,1.65,0,0,0,.7-.3.83.83,0,0,0,.35-.58.52.52,0,0,0-.18-.51,1.67,1.67,0,0,0-.63-.27l-.84-.17-1.62-.28a3,3,0,0,1-1.88-1,2.73,2.73,0,0,1-.47-2.16,3.29,3.29,0,0,1,.89-1.84,4.65,4.65,0,0,1,1.81-1.17,6.52,6.52,0,0,1,2.31-.4,5.06,5.06,0,0,1,2.26.47,3.62,3.62,0,0,1,1.44,1.25,2.66,2.66,0,0,1,.46,1.65h-2.92a1.13,1.13,0,0,0-.15-.67,1,1,0,0,0-.51-.37,2.62,2.62,0,0,0-.85-.11,2.52,2.52,0,0,0-.9.13,1.06,1.06,0,0,0-.5.32.79.79,0,0,0-.19.39.64.64,0,0,0,.15.58,1.63,1.63,0,0,0,.88.35l1.62.28a4.49,4.49,0,0,1,1.74.62,2.38,2.38,0,0,1,.84.94,2.9,2.9,0,0,1,.24,1.05,6.36,6.36,0,0,1-.06.92,2.88,2.88,0,0,1-.85,1.63,5,5,0,0,1-1.85,1.13A7.05,7.05,0,0,1,186.29,12.9Z" transform="translate(-1.84 -1.87)"/><path class="cls-1" d="M198.09,9.54a2.2,2.2,0,0,1-1.13-.3,2.35,2.35,0,0,1-.81-.82,2.22,2.22,0,0,1,0-2.23,2.3,2.3,0,0,1,.81-.8,2.21,2.21,0,0,1,2.26,0,2.41,2.41,0,0,1,.82.8,2.22,2.22,0,0,1,0,2.23,2.47,2.47,0,0,1-.82.82A2.2,2.2,0,0,1,198.09,9.54Z" transform="translate(-1.84 -1.87)"/><path class="cls-1" d="M204.25,12.75l1.57-10.7h1.43c.75,0,1.48,0,2.19.05a11.83,11.83,0,0,1,2,.27,4.74,4.74,0,0,1,1.62.68,3.11,3.11,0,0,1,1.09,1.28,4.72,4.72,0,0,1,.4,2.09,7.6,7.6,0,0,1-.11,1.16A6.9,6.9,0,0,1,214.07,9a6,6,0,0,1-.7,1.38,5,5,0,0,1-1.16,1.22,5.24,5.24,0,0,1-1.7.87,7.53,7.53,0,0,1-2.35.33Zm3.24-2.26h1a2.32,2.32,0,0,0,1.21-.33,3.25,3.25,0,0,0,1-.9A4.37,4.37,0,0,0,211.31,8a4.91,4.91,0,0,0,.24-1.54,2.54,2.54,0,0,0-.24-1.17,1.58,1.58,0,0,0-.69-.71,2.28,2.28,0,0,0-1.09-.24h-1.1Z" transform="translate(-1.84 -1.87)"/><path class="cls-1" d="M219.9,12.9a5,5,0,0,1-2.66-.58,2.67,2.67,0,0,1-1.2-1.61A5.83,5.83,0,0,1,216,8.33l.95-6.28h2.93l-1,6.39a2.26,2.26,0,0,0,.06,1.19,1.16,1.16,0,0,0,.53.65,1.53,1.53,0,0,0,.81.21,2,2,0,0,0,1.25-.47,2.35,2.35,0,0,0,.76-1.58l1-6.39h2.92l-1,6.28a6.5,6.5,0,0,1-.8,2.38,4.1,4.1,0,0,1-1.69,1.61A6,6,0,0,1,219.9,12.9Z" transform="translate(-1.84 -1.87)"/><path class="cls-1" d="M226.47,12.75l1.63-10.7H233a4.31,4.31,0,0,1,2.18.46,2.21,2.21,0,0,1,1,1.24,3.6,3.6,0,0,1,.12,1.75,4.43,4.43,0,0,1-.44,1.4,3.59,3.59,0,0,1-.75,1,5.45,5.45,0,0,1-1,.72l1.25,4.14h-3l-1-3.69h-1.52l-.56,3.69Zm3.78-5.83h1.65a1.32,1.32,0,0,0,.69-.2,1.79,1.79,0,0,0,.53-.53,1.45,1.45,0,0,0,.27-.66,1.1,1.1,0,0,0-.25-1,1,1,0,0,0-.82-.4h-1.65Z" transform="translate(-1.84 -1.87)"/><path class="cls-1" d="M239.24,12.75l-2-10.7H240l1.37,7.33,3.58-7.33h2.74l-5.26,10.7Z" transform="translate(-1.84 -1.87)"/><path class="cls-1" d="M247.37,12.75,249,2.05h2.89l-1.63,10.7Z" transform="translate(-1.84 -1.87)"/><path class="cls-1" d="M256.8,12.9a6.88,6.88,0,0,1-1.64-.2,4.48,4.48,0,0,1-1.43-.61,2.9,2.9,0,0,1-1-1.06,2.81,2.81,0,0,1-.28-1.54h3a1.15,1.15,0,0,0,.22.65,1.32,1.32,0,0,0,.56.41,2.42,2.42,0,0,0,.86.14,4.14,4.14,0,0,0,.87-.09,1.65,1.65,0,0,0,.7-.3.86.86,0,0,0,.35-.58.52.52,0,0,0-.18-.51,1.67,1.67,0,0,0-.63-.27l-.84-.17-1.62-.28a2.93,2.93,0,0,1-1.88-1,2.73,2.73,0,0,1-.47-2.16,3.35,3.35,0,0,1,.88-1.84,4.8,4.8,0,0,1,1.81-1.17,6.62,6.62,0,0,1,2.32-.4,5.06,5.06,0,0,1,2.26.47,3.62,3.62,0,0,1,1.44,1.25,2.72,2.72,0,0,1,.46,1.65h-2.92a1.13,1.13,0,0,0-.15-.67,1,1,0,0,0-.51-.37,2.62,2.62,0,0,0-.85-.11,2.52,2.52,0,0,0-.9.13,1.06,1.06,0,0,0-.5.32.79.79,0,0,0-.19.39.64.64,0,0,0,.15.58,1.59,1.59,0,0,0,.88.35l1.62.28a4.49,4.49,0,0,1,1.74.62,2.38,2.38,0,0,1,.84.94A2.69,2.69,0,0,1,262,8.8a5.26,5.26,0,0,1,0,.92,2.88,2.88,0,0,1-.85,1.63,5,5,0,0,1-1.85,1.13A7.05,7.05,0,0,1,256.8,12.9Z" transform="translate(-1.84 -1.87)"/><path class="cls-1" d="M268.58,9.54a2.2,2.2,0,0,1-1.13-.3,2.35,2.35,0,0,1-.81-.82,2.22,2.22,0,0,1,0-2.23,2.3,2.3,0,0,1,.81-.8,2.21,2.21,0,0,1,2.26,0,2.41,2.41,0,0,1,.82.8,2.22,2.22,0,0,1,0,2.23,2.47,2.47,0,0,1-.82.82A2.2,2.2,0,0,1,268.58,9.54Z" transform="translate(-1.84 -1.87)"/><path class="cls-1" d="M274.75,12.75l1.57-10.7h1.43c.74,0,1.47,0,2.18.05a12.1,12.1,0,0,1,2,.27,4.91,4.91,0,0,1,1.62.68,3.18,3.18,0,0,1,1.09,1.28A4.87,4.87,0,0,1,285,6.42a7.46,7.46,0,0,1-.1,1.16A7.67,7.67,0,0,1,284.57,9a6.41,6.41,0,0,1-.7,1.38,5.14,5.14,0,0,1-1.16,1.22,5.29,5.29,0,0,1-1.71.87,7.49,7.49,0,0,1-2.35.33ZM278,10.49h1a2.37,2.37,0,0,0,1.21-.33,3.49,3.49,0,0,0,1-.9A4.62,4.62,0,0,0,281.81,8a4.91,4.91,0,0,0,.24-1.54,2.54,2.54,0,0,0-.24-1.17,1.66,1.66,0,0,0-.7-.71A2.27,2.27,0,0,0,280,4.31h-1.1Z" transform="translate(-1.84 -1.87)"/><path class="cls-1" d="M290.41,12.9a5,5,0,0,1-2.65-.58,2.6,2.6,0,0,1-1.2-1.61,5.83,5.83,0,0,1-.07-2.38l.95-6.28h2.93l-1,6.39a2.49,2.49,0,0,0,.06,1.19,1.2,1.2,0,0,0,.53.65,1.58,1.58,0,0,0,.81.21A2,2,0,0,0,292,10a2.35,2.35,0,0,0,.76-1.58l1-6.39h2.92l-1,6.28a6.89,6.89,0,0,1-.8,2.38,4.13,4.13,0,0,1-1.7,1.61A6,6,0,0,1,290.41,12.9Z" transform="translate(-1.84 -1.87)"/><path class="cls-1" d="M297,12.75l1.63-10.7h4.86a4.31,4.31,0,0,1,2.18.46,2.21,2.21,0,0,1,1,1.24,3.6,3.6,0,0,1,.12,1.75,4.43,4.43,0,0,1-.44,1.4,3.41,3.41,0,0,1-.75,1,5.13,5.13,0,0,1-1,.72l1.26,4.14h-3l-1-3.69h-1.52l-.56,3.69Zm3.78-5.83h1.65a1.32,1.32,0,0,0,.69-.2,1.79,1.79,0,0,0,.53-.53,1.45,1.45,0,0,0,.27-.66,1.1,1.1,0,0,0-.25-1,1,1,0,0,0-.82-.4h-1.65Z" transform="translate(-1.84 -1.87)"/><path class="cls-1" d="M309.74,12.75l-2-10.7h2.72l1.37,7.33,3.58-7.33h2.74l-5.26,10.7Z" transform="translate(-1.84 -1.87)"/><path class="cls-1" d="M317.87,12.75l1.64-10.7h2.89l-1.63,10.7Z" transform="translate(-1.84 -1.87)"/><path class="cls-1" d="M327.3,12.9a6.88,6.88,0,0,1-1.64-.2,4.39,4.39,0,0,1-1.43-.61,2.82,2.82,0,0,1-1-1.06A2.72,2.72,0,0,1,323,9.49h3a1.16,1.16,0,0,0,.23.65,1.26,1.26,0,0,0,.56.41,2.36,2.36,0,0,0,.85.14,4,4,0,0,0,.87-.09,1.7,1.7,0,0,0,.71-.3.86.86,0,0,0,.35-.58.5.5,0,0,0-.19-.51,1.53,1.53,0,0,0-.63-.27c-.26-.06-.54-.12-.84-.17l-1.62-.28a3,3,0,0,1-1.88-1,2.73,2.73,0,0,1-.46-2.16,3.28,3.28,0,0,1,.88-1.84,4.73,4.73,0,0,1,1.81-1.17,6.52,6.52,0,0,1,2.31-.4,5.11,5.11,0,0,1,2.27.47,3.76,3.76,0,0,1,1.44,1.25,2.79,2.79,0,0,1,.46,1.65h-2.93a1.06,1.06,0,0,0-.14-.67,1,1,0,0,0-.51-.37,2.66,2.66,0,0,0-.85-.11,2.54,2.54,0,0,0-.91.13,1.17,1.17,0,0,0-.5.32.79.79,0,0,0-.19.39.7.7,0,0,0,.15.58,1.67,1.67,0,0,0,.89.35l1.61.28a4.54,4.54,0,0,1,1.75.62,2.28,2.28,0,0,1,.83.94,2.54,2.54,0,0,1,.24,1.05,5.26,5.26,0,0,1,0,.92,2.9,2.9,0,0,1-.86,1.63,5,5,0,0,1-1.85,1.13A7,7,0,0,1,327.3,12.9Z" transform="translate(-1.84 -1.87)"/><path class="cls-1" d="M339.11,9.54a2.2,2.2,0,0,1-1.13-.3,2.35,2.35,0,0,1-.81-.82,2.22,2.22,0,0,1,0-2.23,2.3,2.3,0,0,1,.81-.8,2.11,2.11,0,0,1,1.13-.31,2.09,2.09,0,0,1,1.13.31,2.41,2.41,0,0,1,.82.8,2.22,2.22,0,0,1,0,2.23,2.47,2.47,0,0,1-.82.82A2.17,2.17,0,0,1,339.11,9.54Z" transform="translate(-1.84 -1.87)"/><path class="cls-1" d="M345.26,12.75l1.57-10.7h1.43c.74,0,1.47,0,2.18.05a12.1,12.1,0,0,1,2,.27,4.91,4.91,0,0,1,1.62.68,3.18,3.18,0,0,1,1.09,1.28,4.87,4.87,0,0,1,.39,2.09,7.46,7.46,0,0,1-.1,1.16A7.67,7.67,0,0,1,355.08,9a6.41,6.41,0,0,1-.7,1.38,5.14,5.14,0,0,1-1.16,1.22,5.29,5.29,0,0,1-1.71.87,7.49,7.49,0,0,1-2.35.33Zm3.24-2.26h1a2.37,2.37,0,0,0,1.21-.33,3.49,3.49,0,0,0,1-.9A4.62,4.62,0,0,0,352.32,8a4.91,4.91,0,0,0,.24-1.54,2.41,2.41,0,0,0-.25-1.17,1.58,1.58,0,0,0-.69-.71,2.27,2.27,0,0,0-1.08-.24h-1.1Z" transform="translate(-1.84 -1.87)"/><path class="cls-1" d="M360.92,12.9a5,5,0,0,1-2.65-.58,2.6,2.6,0,0,1-1.2-1.61A5.81,5.81,0,0,1,357,8.33l1-6.28h2.93l-1,6.39A2.49,2.49,0,0,0,360,9.63a1.2,1.2,0,0,0,.53.65,1.58,1.58,0,0,0,.81.21,2,2,0,0,0,1.26-.47,2.38,2.38,0,0,0,.75-1.58l1-6.39h2.92l-.95,6.28a6.89,6.89,0,0,1-.8,2.38,4.13,4.13,0,0,1-1.7,1.61A6,6,0,0,1,360.92,12.9Z" transform="translate(-1.84 -1.87)"/><path class="cls-1" d="M367.48,12.75l1.63-10.7H374a4.24,4.24,0,0,1,2.17.46,2.27,2.27,0,0,1,1.05,1.24,3.61,3.61,0,0,1,.11,1.75,4.44,4.44,0,0,1-.43,1.4,3.8,3.8,0,0,1-.75,1,5.45,5.45,0,0,1-1,.72l1.25,4.14h-2.95l-1-3.69h-1.52l-.56,3.69Zm3.77-5.83h1.66a1.28,1.28,0,0,0,.68-.2,1.82,1.82,0,0,0,.81-1.19,1.1,1.1,0,0,0-.25-1,1,1,0,0,0-.82-.4h-1.66Z" transform="translate(-1.84 -1.87)"/><path class="cls-1" d="M380.25,12.75l-2-10.7H381l1.37,7.33,3.59-7.33h2.73l-5.26,10.7Z" transform="translate(-1.84 -1.87)"/><path class="cls-1" d="M388.39,12.75,390,2.05h2.89l-1.63,10.7Z" transform="translate(-1.84 -1.87)"/><path class="cls-1" d="M397.82,12.9a6.88,6.88,0,0,1-1.64-.2,4.48,4.48,0,0,1-1.43-.61,2.9,2.9,0,0,1-1-1.06,2.81,2.81,0,0,1-.28-1.54h3a1.15,1.15,0,0,0,.22.65,1.26,1.26,0,0,0,.56.41,2.42,2.42,0,0,0,.86.14,4.14,4.14,0,0,0,.87-.09,1.65,1.65,0,0,0,.7-.3.86.86,0,0,0,.35-.58.52.52,0,0,0-.18-.51,1.67,1.67,0,0,0-.63-.27l-.85-.17-1.61-.28a2.93,2.93,0,0,1-1.88-1,2.73,2.73,0,0,1-.47-2.16,3.28,3.28,0,0,1,.88-1.84,4.8,4.8,0,0,1,1.81-1.17,6.62,6.62,0,0,1,2.32-.4,5.06,5.06,0,0,1,2.26.47,3.62,3.62,0,0,1,1.44,1.25,2.72,2.72,0,0,1,.46,1.65h-2.93a1.06,1.06,0,0,0-.14-.67,1,1,0,0,0-.51-.37,2.62,2.62,0,0,0-.85-.11,2.52,2.52,0,0,0-.9.13,1.15,1.15,0,0,0-.51.32.88.88,0,0,0-.19.39.67.67,0,0,0,.16.58,1.59,1.59,0,0,0,.88.35l1.62.28a4.49,4.49,0,0,1,1.74.62,2.38,2.38,0,0,1,.84.94,2.69,2.69,0,0,1,.23,1.05,5.26,5.26,0,0,1-.05.92,2.88,2.88,0,0,1-.85,1.63,5,5,0,0,1-1.85,1.13A7.05,7.05,0,0,1,397.82,12.9Z" transform="translate(-1.84 -1.87)"/><path class="cls-1" d="M409.6,9.54a2.2,2.2,0,0,1-1.13-.3,2.35,2.35,0,0,1-.81-.82,2.22,2.22,0,0,1,0-2.23,2.3,2.3,0,0,1,.81-.8,2.21,2.21,0,0,1,2.26,0,2.41,2.41,0,0,1,.82.8,2.22,2.22,0,0,1,0,2.23,2.47,2.47,0,0,1-.82.82A2.2,2.2,0,0,1,409.6,9.54Z" transform="translate(-1.84 -1.87)"/><path class="cls-1" d="M415.79,12.75l1.57-10.7h1.43c.75,0,1.47,0,2.18.05a12,12,0,0,1,2,.27,4.91,4.91,0,0,1,1.62.68,3.11,3.11,0,0,1,1.09,1.28,4.87,4.87,0,0,1,.39,2.09,7.46,7.46,0,0,1-.1,1.16A7.67,7.67,0,0,1,425.61,9a6.41,6.41,0,0,1-.7,1.38,5.14,5.14,0,0,1-1.16,1.22,5.34,5.34,0,0,1-1.7.87,7.55,7.55,0,0,1-2.36.33ZM419,10.49h1a2.34,2.34,0,0,0,1.21-.33,3.37,3.37,0,0,0,1-.9A4.62,4.62,0,0,0,422.85,8a4.91,4.91,0,0,0,.24-1.54,2.54,2.54,0,0,0-.24-1.17,1.6,1.6,0,0,0-.7-.71,2.27,2.27,0,0,0-1.08-.24H420Z" transform="translate(-1.84 -1.87)"/><path class="cls-1" d="M431.41,12.9a5,5,0,0,1-2.65-.58,2.6,2.6,0,0,1-1.2-1.61,5.81,5.81,0,0,1-.08-2.38l1-6.28h2.93l-1,6.39a2.49,2.49,0,0,0,.06,1.19,1.2,1.2,0,0,0,.53.65,1.58,1.58,0,0,0,.81.21A2,2,0,0,0,433,10a2.34,2.34,0,0,0,.75-1.58l1-6.39h2.92l-.95,6.28a6.89,6.89,0,0,1-.8,2.38,4.13,4.13,0,0,1-1.7,1.61A6,6,0,0,1,431.41,12.9Z" transform="translate(-1.84 -1.87)"/><path class="cls-1" d="M438,12.75l1.63-10.7h4.86a4.31,4.31,0,0,1,2.18.46,2.21,2.21,0,0,1,1,1.24,3.6,3.6,0,0,1,.12,1.75,4.43,4.43,0,0,1-.44,1.4,3.59,3.59,0,0,1-.75,1,5.45,5.45,0,0,1-1,.72l1.25,4.14h-2.95l-1-3.69h-1.52l-.56,3.69Zm3.78-5.83h1.65a1.32,1.32,0,0,0,.69-.2,1.79,1.79,0,0,0,.53-.53,1.45,1.45,0,0,0,.27-.66,1.1,1.1,0,0,0-.25-1,1,1,0,0,0-.82-.4h-1.65Z" transform="translate(-1.84 -1.87)"/><path class="cls-1" d="M450.78,12.75l-2-10.7h2.71l1.37,7.33,3.58-7.33h2.74l-5.26,10.7Z" transform="translate(-1.84 -1.87)"/><path class="cls-1" d="M458.88,12.75l1.63-10.7h2.89l-1.62,10.7Z" transform="translate(-1.84 -1.87)"/><path class="cls-1" d="M468.31,12.9a6.88,6.88,0,0,1-1.64-.2,4.39,4.39,0,0,1-1.43-.61,2.82,2.82,0,0,1-1-1.06A2.72,2.72,0,0,1,464,9.49h3a1.16,1.16,0,0,0,.23.65,1.26,1.26,0,0,0,.56.41,2.36,2.36,0,0,0,.85.14,4,4,0,0,0,.87-.09,1.7,1.7,0,0,0,.71-.3.81.81,0,0,0,.34-.58.48.48,0,0,0-.18-.51,1.53,1.53,0,0,0-.63-.27c-.26-.06-.54-.12-.84-.17l-1.62-.28a3,3,0,0,1-1.88-1,2.73,2.73,0,0,1-.46-2.16,3.28,3.28,0,0,1,.88-1.84,4.73,4.73,0,0,1,1.81-1.17,6.52,6.52,0,0,1,2.31-.4,5.11,5.11,0,0,1,2.27.47,3.76,3.76,0,0,1,1.44,1.25,2.79,2.79,0,0,1,.46,1.65h-2.93a1.06,1.06,0,0,0-.14-.67,1,1,0,0,0-.51-.37,2.66,2.66,0,0,0-.85-.11,2.54,2.54,0,0,0-.91.13,1.17,1.17,0,0,0-.5.32.79.79,0,0,0-.19.39.7.7,0,0,0,.15.58,1.63,1.63,0,0,0,.89.35l1.61.28a4.6,4.6,0,0,1,1.75.62,2.28,2.28,0,0,1,.83.94,2.54,2.54,0,0,1,.24,1.05,6.46,6.46,0,0,1-.05.92,2.9,2.9,0,0,1-.86,1.63,5,5,0,0,1-1.85,1.13A7,7,0,0,1,468.31,12.9Z" transform="translate(-1.84 -1.87)"/><path class="cls-1" d="M480.1,9.54a2.16,2.16,0,0,1-1.12-.3,2.3,2.3,0,0,1-.82-.82,2.22,2.22,0,0,1,0-2.23,2.25,2.25,0,0,1,.82-.8,2.2,2.2,0,0,1,2.25,0,2.41,2.41,0,0,1,.82.8,2.22,2.22,0,0,1,0,2.23,2.47,2.47,0,0,1-.82.82A2.17,2.17,0,0,1,480.1,9.54Z" transform="translate(-1.84 -1.87)"/><path class="cls-1" d="M486.29,12.75l1.57-10.7h1.43c.74,0,1.47,0,2.18.05a12.1,12.1,0,0,1,2,.27,4.91,4.91,0,0,1,1.62.68,3.18,3.18,0,0,1,1.09,1.28,4.87,4.87,0,0,1,.39,2.09,7.46,7.46,0,0,1-.1,1.16A7.67,7.67,0,0,1,496.11,9a6.41,6.41,0,0,1-.7,1.38,5.14,5.14,0,0,1-1.16,1.22,5.29,5.29,0,0,1-1.71.87,7.49,7.49,0,0,1-2.35.33Zm3.24-2.26h1a2.37,2.37,0,0,0,1.21-.33,3.49,3.49,0,0,0,1-.9A4.62,4.62,0,0,0,493.35,8a4.91,4.91,0,0,0,.24-1.54,2.54,2.54,0,0,0-.24-1.17,1.66,1.66,0,0,0-.7-.71,2.27,2.27,0,0,0-1.08-.24h-1.1Z" transform="translate(-1.84 -1.87)"/><path class="cls-1" d="M501.92,12.9a5,5,0,0,1-2.65-.58,2.67,2.67,0,0,1-1.2-1.61A5.83,5.83,0,0,1,498,8.33L499,2.05h2.93l-1,6.39A2.26,2.26,0,0,0,501,9.63a1.19,1.19,0,0,0,.52.65,1.59,1.59,0,0,0,.82.21,2,2,0,0,0,1.25-.47,2.35,2.35,0,0,0,.76-1.58l1-6.39h2.92l-1,6.28a6.69,6.69,0,0,1-.8,2.38,4.07,4.07,0,0,1-1.7,1.61A6,6,0,0,1,501.92,12.9Z" transform="translate(-1.84 -1.87)"/><path class="cls-1" d="M508.48,12.75l1.63-10.7H515a4.31,4.31,0,0,1,2.18.46,2.21,2.21,0,0,1,1,1.24,3.6,3.6,0,0,1,.12,1.75,4.43,4.43,0,0,1-.44,1.4,3.41,3.41,0,0,1-.75,1,5.13,5.13,0,0,1-1,.72l1.25,4.14h-3l-1-3.69h-1.52l-.56,3.69Zm3.78-5.83h1.65a1.32,1.32,0,0,0,.69-.2,1.79,1.79,0,0,0,.53-.53,1.45,1.45,0,0,0,.27-.66,1.1,1.1,0,0,0-.25-1,1,1,0,0,0-.82-.4h-1.65Z" transform="translate(-1.84 -1.87)"/><path class="cls-1" d="M521.26,12.75l-2-10.7H522l1.37,7.33,3.58-7.33h2.74l-5.26,10.7Z" transform="translate(-1.84 -1.87)"/><path class="cls-1" d="M529.4,12.75,531,2.05h2.89l-1.63,10.7Z" transform="translate(-1.84 -1.87)"/><path class="cls-1" d="M538.83,12.9a6.88,6.88,0,0,1-1.64-.2,4.48,4.48,0,0,1-1.43-.61,2.9,2.9,0,0,1-1-1.06,2.81,2.81,0,0,1-.28-1.54h3a1.15,1.15,0,0,0,.22.65,1.26,1.26,0,0,0,.56.41,2.42,2.42,0,0,0,.86.14,4.14,4.14,0,0,0,.87-.09,1.65,1.65,0,0,0,.7-.3.86.86,0,0,0,.35-.58.52.52,0,0,0-.18-.51,1.67,1.67,0,0,0-.63-.27c-.27-.06-.55-.12-.85-.17l-1.61-.28a2.93,2.93,0,0,1-1.88-1,2.73,2.73,0,0,1-.47-2.16,3.28,3.28,0,0,1,.88-1.84,4.8,4.8,0,0,1,1.81-1.17,6.62,6.62,0,0,1,2.32-.4,5.06,5.06,0,0,1,2.26.47,3.62,3.62,0,0,1,1.44,1.25,2.72,2.72,0,0,1,.46,1.65h-2.93a1.06,1.06,0,0,0-.14-.67,1,1,0,0,0-.51-.37,2.62,2.62,0,0,0-.85-.11,2.52,2.52,0,0,0-.9.13,1.15,1.15,0,0,0-.51.32.88.88,0,0,0-.19.39.67.67,0,0,0,.16.58,1.59,1.59,0,0,0,.88.35l1.62.28a4.49,4.49,0,0,1,1.74.62,2.38,2.38,0,0,1,.84.94,2.69,2.69,0,0,1,.23,1.05,5.26,5.26,0,0,1,0,.92,2.84,2.84,0,0,1-.86,1.63,4.9,4.9,0,0,1-1.84,1.13A7.05,7.05,0,0,1,538.83,12.9Z" transform="translate(-1.84 -1.87)"/><path class="cls-1" d="M550.63,9.54a2.2,2.2,0,0,1-1.13-.3,2.35,2.35,0,0,1-.81-.82,2.22,2.22,0,0,1,0-2.23,2.3,2.3,0,0,1,.81-.8,2.21,2.21,0,0,1,2.26,0,2.3,2.3,0,0,1,.81.8,2.16,2.16,0,0,1,0,2.23,2.35,2.35,0,0,1-.81.82A2.2,2.2,0,0,1,550.63,9.54Z" transform="translate(-1.84 -1.87)"/><path class="cls-1" d="M556.8,12.75l1.57-10.7h1.43c.74,0,1.47,0,2.18.05a12.1,12.1,0,0,1,2,.27,4.91,4.91,0,0,1,1.62.68,3.11,3.11,0,0,1,1.09,1.28,4.87,4.87,0,0,1,.39,2.09,7.46,7.46,0,0,1-.1,1.16A7.67,7.67,0,0,1,566.62,9a6.41,6.41,0,0,1-.7,1.38,5.14,5.14,0,0,1-1.16,1.22,5.34,5.34,0,0,1-1.7.87,7.55,7.55,0,0,1-2.36.33ZM560,10.49h1a2.34,2.34,0,0,0,1.21-.33,3.37,3.37,0,0,0,1-.9A4.62,4.62,0,0,0,563.86,8a4.91,4.91,0,0,0,.24-1.54,2.54,2.54,0,0,0-.24-1.17,1.6,1.6,0,0,0-.7-.71,2.27,2.27,0,0,0-1.08-.24H561Z" transform="translate(-1.84 -1.87)"/><path class="cls-1" d="M572.42,12.9a5,5,0,0,1-2.65-.58,2.6,2.6,0,0,1-1.2-1.61,5.81,5.81,0,0,1-.08-2.38l1-6.28h2.93l-1,6.39a2.49,2.49,0,0,0,.06,1.19,1.2,1.2,0,0,0,.53.65,1.58,1.58,0,0,0,.81.21,2,2,0,0,0,1.26-.47,2.38,2.38,0,0,0,.75-1.58l1-6.39h2.92l-1,6.28a6.89,6.89,0,0,1-.8,2.38,4.13,4.13,0,0,1-1.7,1.61A6,6,0,0,1,572.42,12.9Z" transform="translate(-1.84 -1.87)"/><path class="cls-1" d="M579,12.75l1.63-10.7h4.86a4.31,4.31,0,0,1,2.18.46,2.21,2.21,0,0,1,1,1.24,3.6,3.6,0,0,1,.12,1.75,4.43,4.43,0,0,1-.44,1.4,3.41,3.41,0,0,1-.75,1,5.13,5.13,0,0,1-1,.72l1.25,4.14H585l-1-3.69h-1.52l-.56,3.69Zm3.78-5.83h1.65a1.32,1.32,0,0,0,.69-.2,1.79,1.79,0,0,0,.53-.53,1.45,1.45,0,0,0,.27-.66,1.1,1.1,0,0,0-.25-1,1,1,0,0,0-.82-.4H583.2Z" transform="translate(-1.84 -1.87)"/><path class="cls-1" d="M591.76,12.75l-2-10.7h2.71l1.37,7.33,3.59-7.33h2.73l-5.26,10.7Z" transform="translate(-1.84 -1.87)"/><path class="cls-1" d="M599.9,12.75l1.64-10.7h2.89l-1.63,10.7Z" transform="translate(-1.84 -1.87)"/><path class="cls-1" d="M609.33,12.9a6.88,6.88,0,0,1-1.64-.2,4.48,4.48,0,0,1-1.43-.61,2.9,2.9,0,0,1-1-1.06A2.81,2.81,0,0,1,605,9.49h3a1.15,1.15,0,0,0,.22.65,1.26,1.26,0,0,0,.56.41,2.42,2.42,0,0,0,.86.14,4.14,4.14,0,0,0,.87-.09,1.65,1.65,0,0,0,.7-.3.86.86,0,0,0,.35-.58.52.52,0,0,0-.18-.51,1.67,1.67,0,0,0-.63-.27c-.27-.06-.55-.12-.85-.17l-1.61-.28a2.93,2.93,0,0,1-1.88-1A2.73,2.73,0,0,1,606,5.33a3.28,3.28,0,0,1,.88-1.84,4.8,4.8,0,0,1,1.81-1.17,6.62,6.62,0,0,1,2.32-.4,5.06,5.06,0,0,1,2.26.47,3.62,3.62,0,0,1,1.44,1.25,2.72,2.72,0,0,1,.46,1.65h-2.93a1.06,1.06,0,0,0-.14-.67,1,1,0,0,0-.51-.37,2.62,2.62,0,0,0-.85-.11,2.52,2.52,0,0,0-.9.13,1.15,1.15,0,0,0-.51.32.88.88,0,0,0-.19.39.67.67,0,0,0,.16.58,1.59,1.59,0,0,0,.88.35l1.62.28a4.49,4.49,0,0,1,1.74.62,2.28,2.28,0,0,1,.83.94,2.54,2.54,0,0,1,.24,1.05,5.26,5.26,0,0,1,0,.92,2.84,2.84,0,0,1-.86,1.63,4.9,4.9,0,0,1-1.84,1.13A7.05,7.05,0,0,1,609.33,12.9Z" transform="translate(-1.84 -1.87)"/><path class="cls-1" d="M621.15,9.54a2.17,2.17,0,0,1-1.13-.3,2.47,2.47,0,0,1-.82-.82,2.22,2.22,0,0,1,0-2.23,2.41,2.41,0,0,1,.82-.8,2.2,2.2,0,0,1,2.25,0,2.33,2.33,0,0,1,.82.8,2.16,2.16,0,0,1,0,2.23,2.38,2.38,0,0,1-.82.82A2.16,2.16,0,0,1,621.15,9.54Z" transform="translate(-1.84 -1.87)"/><path class="cls-1" d="M627.3,12.75l1.57-10.7h1.43c.75,0,1.47,0,2.18.05a12,12,0,0,1,2,.27,4.91,4.91,0,0,1,1.62.68,3.11,3.11,0,0,1,1.09,1.28,4.87,4.87,0,0,1,.39,2.09,7.46,7.46,0,0,1-.1,1.16A7.67,7.67,0,0,1,637.12,9a6,6,0,0,1-.7,1.38,5.14,5.14,0,0,1-1.16,1.22,5.34,5.34,0,0,1-1.7.87,7.55,7.55,0,0,1-2.36.33Zm3.24-2.26h1a2.34,2.34,0,0,0,1.21-.33,3.25,3.25,0,0,0,1-.9A4.62,4.62,0,0,0,634.36,8a4.91,4.91,0,0,0,.24-1.54,2.54,2.54,0,0,0-.24-1.17,1.6,1.6,0,0,0-.7-.71,2.27,2.27,0,0,0-1.08-.24h-1.1Z" transform="translate(-1.84 -1.87)"/><path class="cls-1" d="M643,12.9a5,5,0,0,1-2.65-.58,2.6,2.6,0,0,1-1.2-1.61A5.81,5.81,0,0,1,639,8.33l1-6.28h2.92l-1,6.39A2.49,2.49,0,0,0,642,9.63a1.16,1.16,0,0,0,.53.65,1.58,1.58,0,0,0,.81.21,2,2,0,0,0,1.26-.47,2.38,2.38,0,0,0,.75-1.58l1-6.39h2.92l-1,6.28a6.7,6.7,0,0,1-.81,2.38,4,4,0,0,1-1.69,1.61A6,6,0,0,1,643,12.9Z" transform="translate(-1.84 -1.87)"/><path class="cls-1" d="M649.5,12.75l1.63-10.7H656a4.28,4.28,0,0,1,2.18.46,2.21,2.21,0,0,1,1,1.24,3.6,3.6,0,0,1,.12,1.75,4.43,4.43,0,0,1-.44,1.4,3.41,3.41,0,0,1-.75,1,4.84,4.84,0,0,1-1,.72l1.26,4.14h-3l-1-3.69h-1.52l-.56,3.69Zm3.78-5.83h1.65a1.32,1.32,0,0,0,.69-.2,1.79,1.79,0,0,0,.53-.53,1.45,1.45,0,0,0,.27-.66,1.1,1.1,0,0,0-.25-1,1,1,0,0,0-.82-.4H653.7Z" transform="translate(-1.84 -1.87)"/><path class="cls-1" d="M662.28,12.75l-2-10.7H663l1.37,7.33L668,2.05h2.74l-5.26,10.7Z" transform="translate(-1.84 -1.87)"/><path class="cls-1" d="M670.41,12.75l1.64-10.7h2.89l-1.63,10.7Z" transform="translate(-1.84 -1.87)"/><path class="cls-1" d="M679.85,12.9a7,7,0,0,1-1.65-.2,4.33,4.33,0,0,1-1.42-.61,2.93,2.93,0,0,1-1-1.06,2.81,2.81,0,0,1-.28-1.54h3a1.23,1.23,0,0,0,.22.65,1.32,1.32,0,0,0,.56.41,2.46,2.46,0,0,0,.86.14,4.14,4.14,0,0,0,.87-.09,1.76,1.76,0,0,0,.71-.3.85.85,0,0,0,.34-.58.48.48,0,0,0-.18-.51,1.67,1.67,0,0,0-.63-.27c-.26-.06-.54-.12-.84-.17l-1.62-.28a3,3,0,0,1-1.88-1,2.73,2.73,0,0,1-.47-2.16,3.29,3.29,0,0,1,.89-1.84,4.65,4.65,0,0,1,1.81-1.17,6.52,6.52,0,0,1,2.31-.4,5.06,5.06,0,0,1,2.26.47,3.62,3.62,0,0,1,1.44,1.25,2.73,2.73,0,0,1,.47,1.65h-2.93a1.13,1.13,0,0,0-.15-.67,1,1,0,0,0-.51-.37,2.62,2.62,0,0,0-.85-.11,2.52,2.52,0,0,0-.9.13,1.06,1.06,0,0,0-.5.32.79.79,0,0,0-.19.39.64.64,0,0,0,.15.58,1.63,1.63,0,0,0,.88.35l1.62.28a4.49,4.49,0,0,1,1.74.62,2.31,2.31,0,0,1,.84.94,2.9,2.9,0,0,1,.24,1.05,6.36,6.36,0,0,1-.06.92,2.82,2.82,0,0,1-.85,1.63,5,5,0,0,1-1.85,1.13A7,7,0,0,1,679.85,12.9Z" transform="translate(-1.84 -1.87)"/><path class="cls-1" d="M691.63,9.54a2.2,2.2,0,0,1-1.13-.3,2.35,2.35,0,0,1-.81-.82,2.22,2.22,0,0,1,0-2.23,2.3,2.3,0,0,1,.81-.8,2.11,2.11,0,0,1,1.13-.31,2.09,2.09,0,0,1,1.13.31,2.41,2.41,0,0,1,.82.8,2.22,2.22,0,0,1,0,2.23,2.47,2.47,0,0,1-.82.82A2.17,2.17,0,0,1,691.63,9.54Z" transform="translate(-1.84 -1.87)"/><path class="cls-1" d="M697.8,12.75l1.57-10.7h1.43c.74,0,1.47,0,2.18.05a12.1,12.1,0,0,1,2,.27,4.91,4.91,0,0,1,1.62.68,3.11,3.11,0,0,1,1.09,1.28,4.87,4.87,0,0,1,.39,2.09,7.46,7.46,0,0,1-.1,1.16A7.67,7.67,0,0,1,707.62,9a6.41,6.41,0,0,1-.7,1.38,5.14,5.14,0,0,1-1.16,1.22,5.34,5.34,0,0,1-1.7.87,7.6,7.6,0,0,1-2.36.33ZM701,10.49h1a2.37,2.37,0,0,0,1.21-.33,3.49,3.49,0,0,0,1-.9A4.62,4.62,0,0,0,704.86,8a4.91,4.91,0,0,0,.24-1.54,2.54,2.54,0,0,0-.24-1.17,1.66,1.66,0,0,0-.7-.71,2.27,2.27,0,0,0-1.08-.24H702Z" transform="translate(-1.84 -1.87)"/><path class="cls-1" d="M713.44,12.9a5,5,0,0,1-2.65-.58,2.6,2.6,0,0,1-1.2-1.61,5.81,5.81,0,0,1-.08-2.38l1-6.28h2.92l-1,6.39a2.49,2.49,0,0,0,.06,1.19,1.16,1.16,0,0,0,.53.65,1.58,1.58,0,0,0,.81.21,2,2,0,0,0,1.26-.47,2.38,2.38,0,0,0,.75-1.58l1-6.39h2.92l-1,6.28a6.7,6.7,0,0,1-.81,2.38,4,4,0,0,1-1.69,1.61A6,6,0,0,1,713.44,12.9Z" transform="translate(-1.84 -1.87)"/><path class="cls-1" d="M720,12.75l1.63-10.7h4.86a4.31,4.31,0,0,1,2.18.46,2.21,2.21,0,0,1,1,1.24,3.6,3.6,0,0,1,.12,1.75,4.43,4.43,0,0,1-.44,1.4,3.41,3.41,0,0,1-.75,1,5.13,5.13,0,0,1-1,.72l1.25,4.14H726l-1-3.69h-1.52l-.56,3.69Zm3.78-5.83h1.65a1.32,1.32,0,0,0,.69-.2,1.79,1.79,0,0,0,.53-.53,1.45,1.45,0,0,0,.27-.66,1.1,1.1,0,0,0-.25-1,1,1,0,0,0-.82-.4H724.2Z" transform="translate(-1.84 -1.87)"/><path class="cls-1" d="M732.8,12.75l-2-10.7h2.71l1.37,7.33,3.58-7.33h2.74L736,12.75Z" transform="translate(-1.84 -1.87)"/><path class="cls-1" d="M740.91,12.75l1.63-10.7h2.89l-1.62,10.7Z" transform="translate(-1.84 -1.87)"/><path class="cls-1" d="M750.35,12.9a7,7,0,0,1-1.65-.2,4.33,4.33,0,0,1-1.42-.61,2.93,2.93,0,0,1-1-1.06A2.81,2.81,0,0,1,746,9.49h3a1.23,1.23,0,0,0,.22.65,1.32,1.32,0,0,0,.56.41,2.46,2.46,0,0,0,.86.14,4.14,4.14,0,0,0,.87-.09,1.76,1.76,0,0,0,.71-.3.85.85,0,0,0,.34-.58.48.48,0,0,0-.18-.51,1.67,1.67,0,0,0-.63-.27c-.26-.06-.54-.12-.84-.17l-1.62-.28a3,3,0,0,1-1.88-1A2.73,2.73,0,0,1,747,5.33a3.29,3.29,0,0,1,.89-1.84,4.65,4.65,0,0,1,1.81-1.17,6.52,6.52,0,0,1,2.31-.4,5.06,5.06,0,0,1,2.26.47,3.62,3.62,0,0,1,1.44,1.25,2.73,2.73,0,0,1,.47,1.65h-2.93a1.13,1.13,0,0,0-.15-.67,1,1,0,0,0-.51-.37,2.62,2.62,0,0,0-.85-.11,2.52,2.52,0,0,0-.9.13,1.06,1.06,0,0,0-.5.32.79.79,0,0,0-.19.39.64.64,0,0,0,.15.58,1.63,1.63,0,0,0,.88.35l1.62.28a4.49,4.49,0,0,1,1.74.62,2.31,2.31,0,0,1,.84.94,2.9,2.9,0,0,1,.24,1.05,6.36,6.36,0,0,1-.06.92,2.82,2.82,0,0,1-.85,1.63,5,5,0,0,1-1.85,1.13A7,7,0,0,1,750.35,12.9Z" transform="translate(-1.84 -1.87)"/><path class="cls-1" d="M762.13,9.54a2.2,2.2,0,0,1-1.13-.3,2.35,2.35,0,0,1-.81-.82,2.22,2.22,0,0,1,0-2.23,2.3,2.3,0,0,1,.81-.8,2.21,2.21,0,0,1,2.26,0,2.3,2.3,0,0,1,.81.8,2.16,2.16,0,0,1,0,2.23,2.35,2.35,0,0,1-.81.82A2.2,2.2,0,0,1,762.13,9.54Z" transform="translate(-1.84 -1.87)"/><path class="cls-1" d="M768.31,12.75l1.57-10.7h1.43c.75,0,1.47,0,2.18.05a12,12,0,0,1,2,.27,4.91,4.91,0,0,1,1.62.68,3.11,3.11,0,0,1,1.09,1.28,4.87,4.87,0,0,1,.39,2.09,7.46,7.46,0,0,1-.1,1.16A6.9,6.9,0,0,1,778.13,9a6,6,0,0,1-.7,1.38,5.14,5.14,0,0,1-1.16,1.22,5.34,5.34,0,0,1-1.7.87,7.55,7.55,0,0,1-2.36.33Zm3.24-2.26h1a2.34,2.34,0,0,0,1.21-.33,3.25,3.25,0,0,0,1-.9A4.62,4.62,0,0,0,775.37,8a4.91,4.91,0,0,0,.24-1.54,2.54,2.54,0,0,0-.24-1.17,1.58,1.58,0,0,0-.69-.71,2.34,2.34,0,0,0-1.09-.24h-1.1Z" transform="translate(-1.84 -1.87)"/><path class="cls-1" d="M784,12.9a5,5,0,0,1-2.65-.58,2.6,2.6,0,0,1-1.2-1.61A6,6,0,0,1,780,8.33l1-6.28h2.93l-1,6.39A2.49,2.49,0,0,0,783,9.63a1.2,1.2,0,0,0,.53.65,1.58,1.58,0,0,0,.81.21,2,2,0,0,0,1.26-.47,2.39,2.39,0,0,0,.76-1.58l1-6.39h2.92l-1,6.28a6.89,6.89,0,0,1-.8,2.38,4.13,4.13,0,0,1-1.7,1.61A6,6,0,0,1,784,12.9Z" transform="translate(-1.84 -1.87)"/><path class="cls-1" d="M790.5,12.75l1.63-10.7H797a4.24,4.24,0,0,1,2.17.46,2.23,2.23,0,0,1,1.05,1.24,3.6,3.6,0,0,1,.12,1.75,4.43,4.43,0,0,1-.44,1.4,3.8,3.8,0,0,1-.75,1,5.45,5.45,0,0,1-1,.72l1.25,4.14h-2.95l-1-3.69h-1.52l-.56,3.69Zm3.78-5.83h1.65a1.34,1.34,0,0,0,.69-.2,1.79,1.79,0,0,0,.53-.53,1.45,1.45,0,0,0,.27-.66,1.1,1.1,0,0,0-.25-1,1,1,0,0,0-.82-.4h-1.66Z" transform="translate(-1.84 -1.87)"/><path class="cls-1" d="M803.3,12.75l-2-10.7H804l1.37,7.33L809,2.05h2.73l-5.26,10.7Z" transform="translate(-1.84 -1.87)"/><path class="cls-1" d="M811.41,12.75,813,2.05h2.89l-1.62,10.7Z" transform="translate(-1.84 -1.87)"/><path class="cls-1" d="M820.84,12.9a7,7,0,0,1-1.65-.2,4.33,4.33,0,0,1-1.42-.61,2.93,2.93,0,0,1-1-1.06,2.72,2.72,0,0,1-.27-1.54h3a1.23,1.23,0,0,0,.22.65,1.32,1.32,0,0,0,.56.41,2.46,2.46,0,0,0,.86.14,4.14,4.14,0,0,0,.87-.09,1.76,1.76,0,0,0,.71-.3.85.85,0,0,0,.34-.58.48.48,0,0,0-.18-.51,1.67,1.67,0,0,0-.63-.27c-.26-.06-.54-.12-.84-.17l-1.62-.28a3,3,0,0,1-1.88-1,2.73,2.73,0,0,1-.47-2.16,3.29,3.29,0,0,1,.89-1.84,4.65,4.65,0,0,1,1.81-1.17,6.52,6.52,0,0,1,2.31-.4,5.06,5.06,0,0,1,2.26.47,3.62,3.62,0,0,1,1.44,1.25,2.73,2.73,0,0,1,.47,1.65H823.7a1.13,1.13,0,0,0-.15-.67,1,1,0,0,0-.51-.37,2.62,2.62,0,0,0-.85-.11,2.52,2.52,0,0,0-.9.13,1.11,1.11,0,0,0-.5.32.79.79,0,0,0-.19.39.64.64,0,0,0,.15.58,1.63,1.63,0,0,0,.88.35l1.62.28a4.49,4.49,0,0,1,1.74.62,2.31,2.31,0,0,1,.84.94,2.9,2.9,0,0,1,.24,1.05,6.36,6.36,0,0,1-.06.92,2.82,2.82,0,0,1-.85,1.63,5,5,0,0,1-1.85,1.13A7,7,0,0,1,820.84,12.9Z" transform="translate(-1.84 -1.87)"/><path class="cls-1" d="M832.66,9.54a2.2,2.2,0,0,1-1.13-.3,2.35,2.35,0,0,1-.81-.82,2.22,2.22,0,0,1,0-2.23,2.3,2.3,0,0,1,.81-.8,2.21,2.21,0,0,1,2.26,0,2.3,2.3,0,0,1,.81.8,2.16,2.16,0,0,1,0,2.23,2.35,2.35,0,0,1-.81.82A2.2,2.2,0,0,1,832.66,9.54Z" transform="translate(-1.84 -1.87)"/><path class="cls-1" d="M838.8,12.75l1.57-10.7h1.43c.74,0,1.47,0,2.18.05a12.1,12.1,0,0,1,2,.27,4.91,4.91,0,0,1,1.62.68,3.18,3.18,0,0,1,1.09,1.28,4.87,4.87,0,0,1,.39,2.09,7.46,7.46,0,0,1-.1,1.16A7.67,7.67,0,0,1,848.62,9a6.41,6.41,0,0,1-.7,1.38,5.14,5.14,0,0,1-1.16,1.22,5.29,5.29,0,0,1-1.71.87,7.49,7.49,0,0,1-2.35.33ZM842,10.49h1a2.37,2.37,0,0,0,1.21-.33,3.49,3.49,0,0,0,1-.9A4.62,4.62,0,0,0,845.86,8a4.91,4.91,0,0,0,.24-1.54,2.54,2.54,0,0,0-.24-1.17,1.66,1.66,0,0,0-.7-.71,2.27,2.27,0,0,0-1.08-.24H843Z" transform="translate(-1.84 -1.87)"/><path class="cls-1" d="M854.45,12.9a5,5,0,0,1-2.65-.58,2.6,2.6,0,0,1-1.2-1.61,5.81,5.81,0,0,1-.08-2.38l1-6.28h2.93l-1,6.39a2.49,2.49,0,0,0,.06,1.19,1.2,1.2,0,0,0,.53.65,1.58,1.58,0,0,0,.81.21,2,2,0,0,0,1.26-.47,2.38,2.38,0,0,0,.75-1.58l1-6.39h2.92l-1,6.28a6.7,6.7,0,0,1-.81,2.38,4,4,0,0,1-1.69,1.61A6,6,0,0,1,854.45,12.9Z" transform="translate(-1.84 -1.87)"/><path class="cls-1" d="M861,12.75l1.63-10.7h4.86a4.24,4.24,0,0,1,2.17.46,2.19,2.19,0,0,1,1,1.24,3.6,3.6,0,0,1,.12,1.75,4.43,4.43,0,0,1-.44,1.4,3.59,3.59,0,0,1-.75,1,5.45,5.45,0,0,1-1,.72l1.25,4.14H867l-1-3.69h-1.52l-.56,3.69Zm3.78-5.83h1.65a1.34,1.34,0,0,0,.69-.2,1.79,1.79,0,0,0,.53-.53,1.45,1.45,0,0,0,.27-.66,1.1,1.1,0,0,0-.25-1,1,1,0,0,0-.82-.4h-1.66Z" transform="translate(-1.84 -1.87)"/><path class="cls-1" d="M873.79,12.75l-2-10.7h2.71l1.37,7.33,3.58-7.33h2.74L877,12.75Z" transform="translate(-1.84 -1.87)"/><path class="cls-1" d="M881.93,12.75l1.63-10.7h2.9l-1.63,10.7Z" transform="translate(-1.84 -1.87)"/><path class="cls-1" d="M891.35,12.9a6.88,6.88,0,0,1-1.64-.2,4.39,4.39,0,0,1-1.43-.61,2.82,2.82,0,0,1-1-1.06A2.72,2.72,0,0,1,887,9.49h3a1.16,1.16,0,0,0,.23.65,1.26,1.26,0,0,0,.56.41,2.36,2.36,0,0,0,.85.14,4,4,0,0,0,.87-.09,1.7,1.7,0,0,0,.71-.3.85.85,0,0,0,.34-.58.48.48,0,0,0-.18-.51,1.53,1.53,0,0,0-.63-.27c-.26-.06-.54-.12-.84-.17l-1.62-.28a3,3,0,0,1-1.88-1A2.73,2.73,0,0,1,888,5.33a3.28,3.28,0,0,1,.88-1.84,4.73,4.73,0,0,1,1.81-1.17,6.52,6.52,0,0,1,2.31-.4,5,5,0,0,1,2.26.47,3.72,3.72,0,0,1,1.45,1.25,2.79,2.79,0,0,1,.46,1.65h-2.93a1,1,0,0,0-.15-.67,1,1,0,0,0-.51-.37,3.26,3.26,0,0,0-1.75,0,1.17,1.17,0,0,0-.5.32.79.79,0,0,0-.19.39.7.7,0,0,0,.15.58,1.63,1.63,0,0,0,.89.35l1.61.28a4.6,4.6,0,0,1,1.75.62,2.28,2.28,0,0,1,.83.94,2.71,2.71,0,0,1,.24,1.05,6.46,6.46,0,0,1-.05.92,2.9,2.9,0,0,1-.86,1.63,5,5,0,0,1-1.85,1.13A7,7,0,0,1,891.35,12.9Z" transform="translate(-1.84 -1.87)"/><path class="cls-1" d="M903.15,9.54a2.2,2.2,0,0,1-1.13-.3,2.35,2.35,0,0,1-.81-.82,2.22,2.22,0,0,1,0-2.23,2.3,2.3,0,0,1,.81-.8,2.21,2.21,0,0,1,2.26,0,2.41,2.41,0,0,1,.82.8,2.22,2.22,0,0,1,0,2.23,2.47,2.47,0,0,1-.82.82A2.2,2.2,0,0,1,903.15,9.54Z" transform="translate(-1.84 -1.87)"/><path class="cls-1" d="M909.32,12.75l1.57-10.7h1.43c.75,0,1.47,0,2.18.05a11.81,11.81,0,0,1,2,.27,4.91,4.91,0,0,1,1.62.68,3.11,3.11,0,0,1,1.09,1.28,4.87,4.87,0,0,1,.39,2.09,7.46,7.46,0,0,1-.1,1.16A6.9,6.9,0,0,1,919.14,9a6,6,0,0,1-.7,1.38,5,5,0,0,1-1.16,1.22,5.34,5.34,0,0,1-1.7.87,7.55,7.55,0,0,1-2.36.33Zm3.24-2.26h1a2.34,2.34,0,0,0,1.21-.33,3.25,3.25,0,0,0,1-.9A4.62,4.62,0,0,0,916.38,8a4.91,4.91,0,0,0,.24-1.54,2.54,2.54,0,0,0-.24-1.17,1.58,1.58,0,0,0-.69-.71,2.31,2.31,0,0,0-1.09-.24h-1.1Z" transform="translate(-1.84 -1.87)"/><path class="cls-1" d="M925,12.9a5,5,0,0,1-2.65-.58,2.6,2.6,0,0,1-1.2-1.61A5.81,5.81,0,0,1,921,8.33l1-6.28h2.92l-1,6.39A2.49,2.49,0,0,0,924,9.63a1.16,1.16,0,0,0,.53.65,1.58,1.58,0,0,0,.81.21,2,2,0,0,0,1.26-.47,2.38,2.38,0,0,0,.75-1.58l1-6.39h2.92l-1,6.28a6.7,6.7,0,0,1-.81,2.38,4,4,0,0,1-1.69,1.61A6,6,0,0,1,925,12.9Z" transform="translate(-1.84 -1.87)"/><path class="cls-1" d="M931.51,12.75l1.63-10.7H938a4.24,4.24,0,0,1,2.17.46,2.19,2.19,0,0,1,1.05,1.24,3.6,3.6,0,0,1,.12,1.75,4.43,4.43,0,0,1-.44,1.4,3.59,3.59,0,0,1-.75,1,5.45,5.45,0,0,1-1,.72l1.25,4.14h-2.95l-1-3.69H935l-.56,3.69Zm3.78-5.83h1.65a1.34,1.34,0,0,0,.69-.2,1.79,1.79,0,0,0,.53-.53,1.45,1.45,0,0,0,.27-.66,1.1,1.1,0,0,0-.25-1,1,1,0,0,0-.82-.4H935.7Z" transform="translate(-1.84 -1.87)"/><path class="cls-1" d="M944.31,12.75l-2-10.7H945l1.37,7.33L950,2.05h2.73l-5.26,10.7Z" transform="translate(-1.84 -1.87)"/><path class="cls-1" d="M952.44,12.75l1.64-10.7H957l-1.63,10.7Z" transform="translate(-1.84 -1.87)"/><path class="cls-1" d="M961.86,12.9a7,7,0,0,1-1.64-.2,4.33,4.33,0,0,1-1.42-.61,2.85,2.85,0,0,1-1-1.06,2.81,2.81,0,0,1-.28-1.54h3a1.15,1.15,0,0,0,.22.65,1.32,1.32,0,0,0,.56.41,2.46,2.46,0,0,0,.86.14,4.14,4.14,0,0,0,.87-.09,1.65,1.65,0,0,0,.7-.3.86.86,0,0,0,.35-.58.52.52,0,0,0-.18-.51,1.67,1.67,0,0,0-.63-.27l-.84-.17-1.62-.28a2.93,2.93,0,0,1-1.88-1,2.73,2.73,0,0,1-.47-2.16,3.29,3.29,0,0,1,.89-1.84,4.65,4.65,0,0,1,1.81-1.17,6.52,6.52,0,0,1,2.31-.4,5.06,5.06,0,0,1,2.26.47,3.62,3.62,0,0,1,1.44,1.25,2.72,2.72,0,0,1,.46,1.65h-2.92a1.13,1.13,0,0,0-.15-.67,1,1,0,0,0-.51-.37,2.62,2.62,0,0,0-.85-.11,2.52,2.52,0,0,0-.9.13,1.06,1.06,0,0,0-.5.32.79.79,0,0,0-.19.39.64.64,0,0,0,.15.58,1.63,1.63,0,0,0,.88.35l1.62.28a4.49,4.49,0,0,1,1.74.62,2.38,2.38,0,0,1,.84.94,2.9,2.9,0,0,1,.24,1.05,6.36,6.36,0,0,1-.06.92,2.88,2.88,0,0,1-.85,1.63,5,5,0,0,1-1.85,1.13A7.05,7.05,0,0,1,961.86,12.9Z" transform="translate(-1.84 -1.87)"/><path class="cls-1" d="M973.66,9.54a2.22,2.22,0,0,1-1.13-.3,2.35,2.35,0,0,1-.81-.82,2.22,2.22,0,0,1,0-2.23,2.3,2.3,0,0,1,.81-.8,2.14,2.14,0,0,1,1.13-.31,2.09,2.09,0,0,1,1.13.31,2.41,2.41,0,0,1,.82.8,2.22,2.22,0,0,1,0,2.23,2.47,2.47,0,0,1-.82.82A2.17,2.17,0,0,1,973.66,9.54Z" transform="translate(-1.84 -1.87)"/><path class="cls-1" d="M979.82,12.75l1.57-10.7h1.43c.75,0,1.48,0,2.19.05a11.83,11.83,0,0,1,2,.27,4.74,4.74,0,0,1,1.62.68,3.11,3.11,0,0,1,1.09,1.28,4.72,4.72,0,0,1,.4,2.09,8.94,8.94,0,0,1-.1,1.16A8.63,8.63,0,0,1,989.65,9a6.46,6.46,0,0,1-.71,1.38,5,5,0,0,1-1.16,1.22,5.24,5.24,0,0,1-1.7.87,7.53,7.53,0,0,1-2.35.33Zm3.24-2.26h1a2.32,2.32,0,0,0,1.21-.33,3.25,3.25,0,0,0,1-.9A4.37,4.37,0,0,0,986.88,8a4.91,4.91,0,0,0,.24-1.54,2.54,2.54,0,0,0-.24-1.17,1.58,1.58,0,0,0-.69-.71,2.28,2.28,0,0,0-1.09-.24H984Z" transform="translate(-1.84 -1.87)"/><path class="cls-1" d="M995.47,12.9a5,5,0,0,1-2.65-.58,2.6,2.6,0,0,1-1.2-1.61,5.81,5.81,0,0,1-.08-2.38l1-6.28h2.93l-1,6.39a2.49,2.49,0,0,0,.06,1.19,1.2,1.2,0,0,0,.53.65,1.58,1.58,0,0,0,.81.21A2,2,0,0,0,997.1,10a2.38,2.38,0,0,0,.75-1.58l1-6.39h2.92l-1,6.28a6.7,6.7,0,0,1-.81,2.38,4,4,0,0,1-1.69,1.61A6,6,0,0,1,995.47,12.9Z" transform="translate(-1.84 -1.87)"/><path class="cls-1" d="M1002,12.75l1.63-10.7h4.86a4.31,4.31,0,0,1,2.18.46,2.21,2.21,0,0,1,1,1.24,3.6,3.6,0,0,1,.12,1.75,4.43,4.43,0,0,1-.44,1.4,3.41,3.41,0,0,1-.75,1,5.13,5.13,0,0,1-1,.72l1.25,4.14H1008l-1-3.69h-1.52l-.56,3.69Zm3.78-5.83h1.65a1.32,1.32,0,0,0,.69-.2,1.79,1.79,0,0,0,.53-.53,1.45,1.45,0,0,0,.27-.66,1.1,1.1,0,0,0-.25-1,1,1,0,0,0-.82-.4h-1.65Z" transform="translate(-1.84 -1.87)"/><path class="cls-1" d="M1014.81,12.75l-2-10.7h2.71l1.37,7.33,3.59-7.33h2.73L1018,12.75Z" transform="translate(-1.84 -1.87)"/><path class="cls-1" d="M1022.93,12.75l1.63-10.7h2.89l-1.62,10.7Z" transform="translate(-1.84 -1.87)"/><path class="cls-1" d="M1032.37,12.9a6.88,6.88,0,0,1-1.64-.2,4.48,4.48,0,0,1-1.43-.61,2.9,2.9,0,0,1-1-1.06,2.81,2.81,0,0,1-.28-1.54h3a1.15,1.15,0,0,0,.22.65,1.26,1.26,0,0,0,.56.41,2.42,2.42,0,0,0,.86.14,4.14,4.14,0,0,0,.87-.09,1.65,1.65,0,0,0,.7-.3.86.86,0,0,0,.35-.58.52.52,0,0,0-.18-.51,1.67,1.67,0,0,0-.63-.27l-.85-.17-1.61-.28a2.93,2.93,0,0,1-1.88-1,2.73,2.73,0,0,1-.47-2.16,3.28,3.28,0,0,1,.88-1.84,4.8,4.8,0,0,1,1.81-1.17,6.62,6.62,0,0,1,2.32-.4,5.06,5.06,0,0,1,2.26.47,3.62,3.62,0,0,1,1.44,1.25,2.72,2.72,0,0,1,.46,1.65h-2.93a1.06,1.06,0,0,0-.14-.67,1,1,0,0,0-.51-.37,2.62,2.62,0,0,0-.85-.11,2.52,2.52,0,0,0-.9.13,1.15,1.15,0,0,0-.51.32.88.88,0,0,0-.19.39.67.67,0,0,0,.16.58,1.59,1.59,0,0,0,.88.35l1.62.28a4.49,4.49,0,0,1,1.74.62,2.28,2.28,0,0,1,.83.94,2.54,2.54,0,0,1,.24,1.05,5.26,5.26,0,0,1,0,.92,2.84,2.84,0,0,1-.86,1.63,4.9,4.9,0,0,1-1.84,1.13A7.05,7.05,0,0,1,1032.37,12.9Z" transform="translate(-1.84 -1.87)"/><path class="cls-1" d="M1044.18,9.54a2.17,2.17,0,0,1-1.13-.3,2.35,2.35,0,0,1-.81-.82,2.16,2.16,0,0,1,0-2.23,2.3,2.3,0,0,1,.81-.8,2.09,2.09,0,0,1,1.13-.31,2.11,2.11,0,0,1,1.13.31,2.3,2.3,0,0,1,.81.8,2.16,2.16,0,0,1,0,2.23,2.35,2.35,0,0,1-.81.82A2.2,2.2,0,0,1,1044.18,9.54Z" transform="translate(-1.84 -1.87)"/><path class="cls-1" d="M1050.33,12.75l1.57-10.7h1.43c.75,0,1.47,0,2.18.05a11.81,11.81,0,0,1,2,.27,4.91,4.91,0,0,1,1.62.68,3.11,3.11,0,0,1,1.09,1.28,4.87,4.87,0,0,1,.39,2.09,7.46,7.46,0,0,1-.1,1.16,6.9,6.9,0,0,1-.35,1.37,6,6,0,0,1-.7,1.38,5,5,0,0,1-1.16,1.22,5.34,5.34,0,0,1-1.7.87,7.55,7.55,0,0,1-2.36.33Zm3.24-2.26h1a2.34,2.34,0,0,0,1.21-.33,3.25,3.25,0,0,0,1-.9,4.62,4.62,0,0,0,.66-1.29,4.91,4.91,0,0,0,.24-1.54,2.54,2.54,0,0,0-.24-1.17,1.58,1.58,0,0,0-.69-.71,2.31,2.31,0,0,0-1.09-.24h-1.1Z" transform="translate(-1.84 -1.87)"/><path class="cls-1" d="M1066,12.9a5,5,0,0,1-2.65-.58,2.6,2.6,0,0,1-1.2-1.61,5.81,5.81,0,0,1-.08-2.38l1-6.28h2.92l-1,6.39a2.49,2.49,0,0,0,.06,1.19,1.16,1.16,0,0,0,.53.65,1.58,1.58,0,0,0,.81.21,2,2,0,0,0,1.26-.47,2.38,2.38,0,0,0,.75-1.58l1-6.39h2.92l-1,6.28a6.7,6.7,0,0,1-.81,2.38,4,4,0,0,1-1.69,1.61A6,6,0,0,1,1066,12.9Z" transform="translate(-1.84 -1.87)"/><path class="cls-1" d="M1072.54,12.75l1.63-10.7H1079a4.24,4.24,0,0,1,2.17.46,2.27,2.27,0,0,1,1,1.24,3.73,3.73,0,0,1,.12,1.75,4.43,4.43,0,0,1-.44,1.4,3.8,3.8,0,0,1-.75,1,5.45,5.45,0,0,1-1,.72l1.25,4.14h-3l-1-3.69H1076l-.56,3.69Zm3.78-5.83H1078a1.34,1.34,0,0,0,.69-.2,1.79,1.79,0,0,0,.53-.53,1.57,1.57,0,0,0,.27-.66,1.1,1.1,0,0,0-.25-1,1,1,0,0,0-.82-.4h-1.66Z" transform="translate(-1.84 -1.87)"/><path class="cls-1" d="M1085.33,12.75l-2-10.7h2.71l1.37,7.33L1091,2.05h2.73l-5.26,10.7Z" transform="translate(-1.84 -1.87)"/><path class="cls-1" d="M1093.46,12.75l1.63-10.7H1098l-1.63,10.7Z" transform="translate(-1.84 -1.87)"/><path class="cls-1" d="M1102.89,12.9a6.88,6.88,0,0,1-1.64-.2,4.39,4.39,0,0,1-1.43-.61,2.82,2.82,0,0,1-1-1.06,2.72,2.72,0,0,1-.28-1.54h3a1.16,1.16,0,0,0,.23.65,1.26,1.26,0,0,0,.56.41,2.36,2.36,0,0,0,.85.14,4.17,4.17,0,0,0,.88-.09,1.71,1.71,0,0,0,.7-.3.86.86,0,0,0,.35-.58.5.5,0,0,0-.19-.51,1.53,1.53,0,0,0-.63-.27c-.26-.06-.54-.12-.84-.17l-1.62-.28a3,3,0,0,1-1.88-1,2.73,2.73,0,0,1-.46-2.16,3.28,3.28,0,0,1,.88-1.84,4.8,4.8,0,0,1,1.81-1.17,6.52,6.52,0,0,1,2.31-.4,5.11,5.11,0,0,1,2.27.47,3.76,3.76,0,0,1,1.44,1.25,2.79,2.79,0,0,1,.46,1.65h-2.93a1.06,1.06,0,0,0-.14-.67,1,1,0,0,0-.51-.37,2.66,2.66,0,0,0-.85-.11,2.54,2.54,0,0,0-.91.13,1.17,1.17,0,0,0-.5.32.79.79,0,0,0-.19.39.7.7,0,0,0,.15.58,1.67,1.67,0,0,0,.89.35l1.61.28a4.54,4.54,0,0,1,1.75.62,2.28,2.28,0,0,1,.83.94,2.54,2.54,0,0,1,.24,1.05,5.26,5.26,0,0,1,0,.92,2.9,2.9,0,0,1-.86,1.63,5,5,0,0,1-1.85,1.13A7,7,0,0,1,1102.89,12.9Z" transform="translate(-1.84 -1.87)"/><path class="cls-1" d="M1114.69,9.54a2.2,2.2,0,0,1-1.13-.3,2.35,2.35,0,0,1-.81-.82,2.22,2.22,0,0,1,0-2.23,2.3,2.3,0,0,1,.81-.8,2.21,2.21,0,0,1,2.26,0,2.3,2.3,0,0,1,.81.8,2.16,2.16,0,0,1,0,2.23,2.35,2.35,0,0,1-.81.82A2.2,2.2,0,0,1,1114.69,9.54Z" transform="translate(-1.84 -1.87)"/><path class="cls-1" d="M1120.83,12.75l1.57-10.7h1.43c.75,0,1.48,0,2.19.05a11.83,11.83,0,0,1,2,.27,4.74,4.74,0,0,1,1.62.68,3.11,3.11,0,0,1,1.09,1.28,4.87,4.87,0,0,1,.39,2.09,7.46,7.46,0,0,1-.1,1.16,6.9,6.9,0,0,1-.35,1.37,6,6,0,0,1-.7,1.38,5,5,0,0,1-1.16,1.22,5.34,5.34,0,0,1-1.7.87,7.55,7.55,0,0,1-2.36.33Zm3.24-2.26h1a2.34,2.34,0,0,0,1.21-.33,3.25,3.25,0,0,0,1-.9,4.62,4.62,0,0,0,.66-1.29,4.91,4.91,0,0,0,.24-1.54,2.54,2.54,0,0,0-.24-1.17,1.58,1.58,0,0,0-.69-.71,2.28,2.28,0,0,0-1.09-.24H1125Z" transform="translate(-1.84 -1.87)"/><path class="cls-1" d="M1136.49,12.9a5,5,0,0,1-2.65-.58,2.6,2.6,0,0,1-1.2-1.61,6,6,0,0,1-.08-2.38l1-6.28h2.93l-1,6.39a2.49,2.49,0,0,0,.06,1.19,1.2,1.2,0,0,0,.53.65,1.58,1.58,0,0,0,.81.21,2,2,0,0,0,1.26-.47,2.39,2.39,0,0,0,.76-1.58l1-6.39h2.92l-1,6.28a6.89,6.89,0,0,1-.8,2.38,4.13,4.13,0,0,1-1.7,1.61A6,6,0,0,1,1136.49,12.9Z" transform="translate(-1.84 -1.87)"/><path class="cls-1" d="M1143.05,12.75l1.64-10.7h4.85a4.28,4.28,0,0,1,2.18.46,2.27,2.27,0,0,1,1,1.24,3.74,3.74,0,0,1,.11,1.75,4.44,4.44,0,0,1-.43,1.4,3.62,3.62,0,0,1-.76,1,5.06,5.06,0,0,1-1,.72l1.25,4.14h-3l-1-3.69h-1.52l-.56,3.69Zm3.78-5.83h1.66a1.28,1.28,0,0,0,.68-.2,1.94,1.94,0,0,0,.54-.53,1.71,1.71,0,0,0,.27-.66,1.13,1.13,0,0,0-.25-1,1,1,0,0,0-.83-.4h-1.65Z" transform="translate(-1.84 -1.87)"/><path class="cls-1" d="M1155.83,12.75l-2-10.7h2.71l1.37,7.33,3.59-7.33h2.73L1159,12.75Z" transform="translate(-1.84 -1.87)"/><path class="cls-1" d="M1164,12.75l1.63-10.7h2.89l-1.62,10.7Z" transform="translate(-1.84 -1.87)"/><path class="cls-1" d="M1173.39,12.9a6.88,6.88,0,0,1-1.64-.2,4.39,4.39,0,0,1-1.43-.61,2.71,2.71,0,0,1-1.25-2.6h3a1.16,1.16,0,0,0,.23.65,1.26,1.26,0,0,0,.56.41,2.4,2.4,0,0,0,.85.14,4.17,4.17,0,0,0,.88-.09,1.71,1.71,0,0,0,.7-.3.86.86,0,0,0,.35-.58.5.5,0,0,0-.19-.51,1.53,1.53,0,0,0-.63-.27c-.26-.06-.54-.12-.84-.17l-1.61-.28a3,3,0,0,1-1.89-1,2.73,2.73,0,0,1-.46-2.16,3.28,3.28,0,0,1,.88-1.84,4.8,4.8,0,0,1,1.81-1.17,6.58,6.58,0,0,1,2.32-.4,5.09,5.09,0,0,1,2.26.47,3.62,3.62,0,0,1,1.44,1.25,2.72,2.72,0,0,1,.46,1.65h-2.93a1.06,1.06,0,0,0-.14-.67,1,1,0,0,0-.51-.37,2.66,2.66,0,0,0-.85-.11,2.48,2.48,0,0,0-.9.13,1.15,1.15,0,0,0-.51.32.88.88,0,0,0-.19.39.67.67,0,0,0,.16.58,1.59,1.59,0,0,0,.88.35l1.62.28a4.49,4.49,0,0,1,1.74.62,2.28,2.28,0,0,1,.83.94,2.54,2.54,0,0,1,.24,1.05,5.26,5.26,0,0,1,0,.92,2.9,2.9,0,0,1-.86,1.63,5,5,0,0,1-1.85,1.13A7,7,0,0,1,1173.39,12.9Z" transform="translate(-1.84 -1.87)"/><path class="cls-1" d="M1185.19,9.54a2.2,2.2,0,0,1-1.13-.3,2.35,2.35,0,0,1-.81-.82,2.22,2.22,0,0,1,0-2.23,2.3,2.3,0,0,1,.81-.8,2.21,2.21,0,0,1,2.26,0,2.3,2.3,0,0,1,.81.8,2.16,2.16,0,0,1,0,2.23,2.35,2.35,0,0,1-.81.82A2.2,2.2,0,0,1,1185.19,9.54Z" transform="translate(-1.84 -1.87)"/><path class="cls-1" d="M1191.34,12.75l1.57-10.7h1.43c.74,0,1.47,0,2.18.05a12.1,12.1,0,0,1,2,.27,4.91,4.91,0,0,1,1.62.68,3.18,3.18,0,0,1,1.09,1.28,4.87,4.87,0,0,1,.39,2.09,7.46,7.46,0,0,1-.1,1.16,7.67,7.67,0,0,1-.35,1.37,6.41,6.41,0,0,1-.7,1.38,5.14,5.14,0,0,1-1.16,1.22,5.29,5.29,0,0,1-1.71.87,7.49,7.49,0,0,1-2.35.33Zm3.24-2.26h1a2.37,2.37,0,0,0,1.21-.33,3.49,3.49,0,0,0,1-.9A4.62,4.62,0,0,0,1198.4,8a4.91,4.91,0,0,0,.24-1.54,2.54,2.54,0,0,0-.24-1.17,1.66,1.66,0,0,0-.7-.71,2.27,2.27,0,0,0-1.08-.24h-1.1Z" transform="translate(-1.84 -1.87)"/><path class="cls-1" d="M1207,12.9a5,5,0,0,1-2.65-.58,2.6,2.6,0,0,1-1.2-1.61,5.81,5.81,0,0,1-.08-2.38l1-6.28H1207l-1,6.39a2.49,2.49,0,0,0,.06,1.19,1.2,1.2,0,0,0,.53.65,1.58,1.58,0,0,0,.81.21,2,2,0,0,0,1.26-.47,2.38,2.38,0,0,0,.75-1.58l1-6.39h2.92l-1,6.28a6.89,6.89,0,0,1-.8,2.38,4.13,4.13,0,0,1-1.7,1.61A6,6,0,0,1,1207,12.9Z" transform="translate(-1.84 -1.87)"/><path class="cls-1" d="M1213.57,12.75l1.63-10.7h4.86a4.24,4.24,0,0,1,2.17.46,2.23,2.23,0,0,1,1,1.24,3.6,3.6,0,0,1,.12,1.75,4.43,4.43,0,0,1-.44,1.4,3.8,3.8,0,0,1-.75,1,5.45,5.45,0,0,1-1,.72l1.25,4.14h-3l-1-3.69H1217l-.56,3.69Zm3.78-5.83H1219a1.34,1.34,0,0,0,.69-.2,1.79,1.79,0,0,0,.53-.53,1.45,1.45,0,0,0,.27-.66,1.1,1.1,0,0,0-.25-1,1,1,0,0,0-.82-.4h-1.66Z" transform="translate(-1.84 -1.87)"/><path class="cls-1" d="M1226.33,12.75l-2-10.7h2.71l1.37,7.33L1232,2.05h2.74l-5.26,10.7Z" transform="translate(-1.84 -1.87)"/><path class="cls-1" d="M1234.47,12.75l1.63-10.7H1239l-1.62,10.7Z" transform="translate(-1.84 -1.87)"/><path class="cls-1" d="M1243.89,12.9a7,7,0,0,1-1.65-.2,4.33,4.33,0,0,1-1.42-.61,2.85,2.85,0,0,1-1-1.06,2.81,2.81,0,0,1-.28-1.54h3a1.15,1.15,0,0,0,.22.65,1.32,1.32,0,0,0,.56.41,2.46,2.46,0,0,0,.86.14,4.14,4.14,0,0,0,.87-.09,1.65,1.65,0,0,0,.7-.3.83.83,0,0,0,.35-.58.5.5,0,0,0-.18-.51,1.67,1.67,0,0,0-.63-.27l-.84-.17-1.62-.28a3,3,0,0,1-1.88-1,2.73,2.73,0,0,1-.47-2.16,3.29,3.29,0,0,1,.89-1.84,4.65,4.65,0,0,1,1.81-1.17,6.52,6.52,0,0,1,2.31-.4,5.06,5.06,0,0,1,2.26.47,3.62,3.62,0,0,1,1.44,1.25,2.66,2.66,0,0,1,.46,1.65h-2.92a1.13,1.13,0,0,0-.15-.67,1,1,0,0,0-.51-.37,2.62,2.62,0,0,0-.85-.11,2.52,2.52,0,0,0-.9.13,1.06,1.06,0,0,0-.5.32.79.79,0,0,0-.19.39.64.64,0,0,0,.15.58,1.63,1.63,0,0,0,.88.35l1.62.28a4.49,4.49,0,0,1,1.74.62,2.31,2.31,0,0,1,.84.94,2.9,2.9,0,0,1,.24,1.05,6.36,6.36,0,0,1-.06.92,2.88,2.88,0,0,1-.85,1.63,5,5,0,0,1-1.85,1.13A7,7,0,0,1,1243.89,12.9Z" transform="translate(-1.84 -1.87)"/><path class="cls-1" d="M1255.68,9.54a2.2,2.2,0,0,1-1.13-.3,2.35,2.35,0,0,1-.81-.82,2.22,2.22,0,0,1,0-2.23,2.3,2.3,0,0,1,.81-.8,2.21,2.21,0,0,1,2.26,0,2.41,2.41,0,0,1,.82.8,2.22,2.22,0,0,1,0,2.23,2.47,2.47,0,0,1-.82.82A2.2,2.2,0,0,1,1255.68,9.54Z" transform="translate(-1.84 -1.87)"/><path class="cls-1" d="M1261.86,12.75l1.57-10.7h1.43c.74,0,1.47,0,2.18.05a12.1,12.1,0,0,1,2,.27,4.91,4.91,0,0,1,1.62.68,3.11,3.11,0,0,1,1.09,1.28,4.87,4.87,0,0,1,.39,2.09,7.46,7.46,0,0,1-.1,1.16,7.67,7.67,0,0,1-.35,1.37,6.41,6.41,0,0,1-.7,1.38,5.14,5.14,0,0,1-1.16,1.22,5.34,5.34,0,0,1-1.7.87,7.6,7.6,0,0,1-2.36.33Zm3.24-2.26h1a2.37,2.37,0,0,0,1.21-.33,3.49,3.49,0,0,0,1-.9,4.62,4.62,0,0,0,.66-1.29,4.91,4.91,0,0,0,.24-1.54,2.54,2.54,0,0,0-.24-1.17,1.66,1.66,0,0,0-.7-.71,2.27,2.27,0,0,0-1.08-.24H1266Z" transform="translate(-1.84 -1.87)"/><path class="cls-1" d="M1277.5,12.9a5,5,0,0,1-2.65-.58,2.6,2.6,0,0,1-1.2-1.61,5.81,5.81,0,0,1-.08-2.38l1-6.28h2.93l-1,6.39a2.49,2.49,0,0,0,.06,1.19,1.2,1.2,0,0,0,.53.65,1.58,1.58,0,0,0,.81.21,2,2,0,0,0,1.26-.47,2.38,2.38,0,0,0,.75-1.58l1-6.39h2.92l-1,6.28a6.89,6.89,0,0,1-.8,2.38,4.13,4.13,0,0,1-1.7,1.61A6,6,0,0,1,1277.5,12.9Z" transform="translate(-1.84 -1.87)"/><path class="cls-1" d="M1284.05,12.75l1.64-10.7h4.85a4.28,4.28,0,0,1,2.18.46,2.27,2.27,0,0,1,1,1.24,3.74,3.74,0,0,1,.11,1.75,4.44,4.44,0,0,1-.43,1.4,3.62,3.62,0,0,1-.76,1,5.06,5.06,0,0,1-1,.72l1.25,4.14h-3l-1-3.69h-1.52l-.56,3.69Zm3.78-5.83h1.66a1.28,1.28,0,0,0,.68-.2,1.94,1.94,0,0,0,.54-.53,1.71,1.71,0,0,0,.27-.66,1.13,1.13,0,0,0-.25-1,1,1,0,0,0-.83-.4h-1.65Z" transform="translate(-1.84 -1.87)"/><path class="cls-1" d="M1296.84,12.75l-2-10.7h2.71l1.37,7.33,3.58-7.33h2.74L1300,12.75Z" transform="translate(-1.84 -1.87)"/><path class="cls-1" d="M1305,12.75l1.63-10.7h2.89l-1.62,10.7Z" transform="translate(-1.84 -1.87)"/><path class="cls-1" d="M1314.4,12.9a6.88,6.88,0,0,1-1.64-.2,4.39,4.39,0,0,1-1.43-.61,2.82,2.82,0,0,1-1-1.06,2.64,2.64,0,0,1-.28-1.54h3a1.16,1.16,0,0,0,.23.65,1.29,1.29,0,0,0,.55.41,2.46,2.46,0,0,0,.86.14,4.14,4.14,0,0,0,.87-.09,1.7,1.7,0,0,0,.71-.3.85.85,0,0,0,.34-.58.48.48,0,0,0-.18-.51,1.67,1.67,0,0,0-.63-.27c-.26-.06-.54-.12-.84-.17l-1.62-.28a3,3,0,0,1-1.88-1,2.73,2.73,0,0,1-.46-2.16,3.22,3.22,0,0,1,.88-1.84,4.73,4.73,0,0,1,1.81-1.17,6.52,6.52,0,0,1,2.31-.4,5,5,0,0,1,2.26.47,3.72,3.72,0,0,1,1.45,1.25,2.79,2.79,0,0,1,.46,1.65h-2.93a1.06,1.06,0,0,0-.15-.67,1,1,0,0,0-.51-.37,2.58,2.58,0,0,0-.85-.11,2.52,2.52,0,0,0-.9.13,1.11,1.11,0,0,0-.5.32.79.79,0,0,0-.19.39.66.66,0,0,0,.15.58,1.63,1.63,0,0,0,.89.35l1.61.28a4.6,4.6,0,0,1,1.75.62,2.28,2.28,0,0,1,.83.94,2.9,2.9,0,0,1,.24,1.05,6.46,6.46,0,0,1-.05.92,2.9,2.9,0,0,1-.86,1.63,5,5,0,0,1-1.85,1.13A7,7,0,0,1,1314.4,12.9Z" transform="translate(-1.84 -1.87)"/><path class="cls-1" d="M1326.19,9.54a2.2,2.2,0,0,1-1.13-.3,2.35,2.35,0,0,1-.81-.82,2.22,2.22,0,0,1,0-2.23,2.3,2.3,0,0,1,.81-.8,2.21,2.21,0,0,1,2.26,0,2.41,2.41,0,0,1,.82.8,2.22,2.22,0,0,1,0,2.23,2.47,2.47,0,0,1-.82.82A2.2,2.2,0,0,1,1326.19,9.54Z" transform="translate(-1.84 -1.87)"/><path class="cls-1" d="M1332.35,12.75l1.57-10.7h1.43c.75,0,1.47,0,2.19.05a11.83,11.83,0,0,1,2,.27,4.91,4.91,0,0,1,1.62.68,3.11,3.11,0,0,1,1.09,1.28,4.87,4.87,0,0,1,.39,2.09,7.46,7.46,0,0,1-.1,1.16,6.9,6.9,0,0,1-.35,1.37,6,6,0,0,1-.7,1.38,5,5,0,0,1-1.16,1.22,5.34,5.34,0,0,1-1.7.87,7.55,7.55,0,0,1-2.36.33Zm3.24-2.26h1a2.34,2.34,0,0,0,1.21-.33,3.25,3.25,0,0,0,1-.9,4.62,4.62,0,0,0,.66-1.29,4.91,4.91,0,0,0,.24-1.54,2.54,2.54,0,0,0-.24-1.17,1.58,1.58,0,0,0-.69-.71,2.31,2.31,0,0,0-1.09-.24h-1.1Z" transform="translate(-1.84 -1.87)"/><path class="cls-1" d="M1348,12.9a5,5,0,0,1-2.66-.58,2.67,2.67,0,0,1-1.2-1.61,6,6,0,0,1-.07-2.38l1-6.28H1348l-1,6.39a2.26,2.26,0,0,0,.06,1.19,1.16,1.16,0,0,0,.53.65,1.55,1.55,0,0,0,.81.21,2,2,0,0,0,1.25-.47,2.35,2.35,0,0,0,.76-1.58l1-6.39h2.92l-1,6.28a6.7,6.7,0,0,1-.81,2.38,4.1,4.1,0,0,1-1.69,1.61A6,6,0,0,1,1348,12.9Z" transform="translate(-1.84 -1.87)"/><path class="cls-1" d="M1354.56,12.75l1.64-10.7h4.85a4.28,4.28,0,0,1,2.18.46,2.27,2.27,0,0,1,1,1.24,3.74,3.74,0,0,1,.11,1.75,4.44,4.44,0,0,1-.43,1.4,3.62,3.62,0,0,1-.76,1,5.06,5.06,0,0,1-1,.72l1.25,4.14h-3l-1-3.69H1358l-.56,3.69Zm3.78-5.83H1360a1.28,1.28,0,0,0,.68-.2,1.94,1.94,0,0,0,.54-.53,1.71,1.71,0,0,0,.27-.66,1.13,1.13,0,0,0-.25-1,1,1,0,0,0-.83-.4h-1.65Z" transform="translate(-1.84 -1.87)"/><path class="cls-1" d="M1367.34,12.75l-2-10.7h2.72l1.37,7.33L1373,2.05h2.74l-5.26,10.7Z" transform="translate(-1.84 -1.87)"/><path class="cls-1" d="M1375.46,12.75l1.63-10.7H1380l-1.63,10.7Z" transform="translate(-1.84 -1.87)"/><path class="cls-1" d="M1384.89,12.9a6.88,6.88,0,0,1-1.64-.2,4.48,4.48,0,0,1-1.43-.61,2.9,2.9,0,0,1-1-1.06,2.81,2.81,0,0,1-.28-1.54h3a1.15,1.15,0,0,0,.22.65,1.26,1.26,0,0,0,.56.41,2.42,2.42,0,0,0,.86.14,4.14,4.14,0,0,0,.87-.09,1.71,1.71,0,0,0,.7-.3.86.86,0,0,0,.35-.58.5.5,0,0,0-.19-.51,1.55,1.55,0,0,0-.62-.27l-.85-.17-1.61-.28a2.91,2.91,0,0,1-1.88-1,2.73,2.73,0,0,1-.47-2.16,3.28,3.28,0,0,1,.88-1.84,4.8,4.8,0,0,1,1.81-1.17,6.62,6.62,0,0,1,2.32-.4,5.06,5.06,0,0,1,2.26.47,3.62,3.62,0,0,1,1.44,1.25,2.72,2.72,0,0,1,.46,1.65h-2.93a1.06,1.06,0,0,0-.14-.67,1,1,0,0,0-.51-.37,2.62,2.62,0,0,0-.85-.11,2.52,2.52,0,0,0-.9.13,1.15,1.15,0,0,0-.51.32.88.88,0,0,0-.19.39.67.67,0,0,0,.16.58,1.59,1.59,0,0,0,.88.35l1.62.28a4.49,4.49,0,0,1,1.74.62,2.28,2.28,0,0,1,.83.94,2.54,2.54,0,0,1,.24,1.05,5.26,5.26,0,0,1,0,.92,2.84,2.84,0,0,1-.86,1.63,4.9,4.9,0,0,1-1.84,1.13A7.05,7.05,0,0,1,1384.89,12.9Z" transform="translate(-1.84 -1.87)"/><path class="cls-1" d="M1396.68,9.54a2.22,2.22,0,0,1-1.13-.3,2.35,2.35,0,0,1-.81-.82,2.22,2.22,0,0,1,0-2.23,2.3,2.3,0,0,1,.81-.8,2.14,2.14,0,0,1,1.13-.31,2.09,2.09,0,0,1,1.13.31,2.41,2.41,0,0,1,.82.8,2.22,2.22,0,0,1,0,2.23,2.47,2.47,0,0,1-.82.82A2.17,2.17,0,0,1,1396.68,9.54Z" transform="translate(-1.84 -1.87)"/><path class="cls-1" d="M1402.84,12.75l1.57-10.7h1.43c.75,0,1.47,0,2.18.05a12,12,0,0,1,2,.27,4.91,4.91,0,0,1,1.62.68,3.11,3.11,0,0,1,1.09,1.28,4.87,4.87,0,0,1,.39,2.09,7.46,7.46,0,0,1-.1,1.16,6.9,6.9,0,0,1-.35,1.37,6,6,0,0,1-.7,1.38,5.14,5.14,0,0,1-1.16,1.22,5.34,5.34,0,0,1-1.7.87,7.55,7.55,0,0,1-2.36.33Zm3.24-2.26h1a2.34,2.34,0,0,0,1.21-.33,3.25,3.25,0,0,0,1-.9A4.62,4.62,0,0,0,1409.9,8a4.91,4.91,0,0,0,.24-1.54,2.54,2.54,0,0,0-.24-1.17,1.58,1.58,0,0,0-.69-.71,2.34,2.34,0,0,0-1.09-.24H1407Z" transform="translate(-1.84 -1.87)"/><path class="cls-1" d="M1418.49,12.9a5,5,0,0,1-2.66-.58,2.67,2.67,0,0,1-1.2-1.61,6,6,0,0,1-.07-2.38l1-6.28h2.93l-1,6.39a2.26,2.26,0,0,0,.06,1.19,1.16,1.16,0,0,0,.53.65,1.58,1.58,0,0,0,.81.21,2,2,0,0,0,1.25-.47,2.35,2.35,0,0,0,.76-1.58l1-6.39h2.92l-1,6.28a6.7,6.7,0,0,1-.81,2.38,4.1,4.1,0,0,1-1.69,1.61A6,6,0,0,1,1418.49,12.9Z" transform="translate(-1.84 -1.87)"/><path class="cls-1" d="M1425.05,12.75l1.63-10.7h4.86a4.24,4.24,0,0,1,2.17.46,2.27,2.27,0,0,1,1,1.24,3.73,3.73,0,0,1,.12,1.75,4.43,4.43,0,0,1-.44,1.4,3.8,3.8,0,0,1-.75,1,5.45,5.45,0,0,1-1,.72l1.25,4.14h-3l-1-3.69h-1.52l-.56,3.69Zm3.77-5.83h1.66a1.28,1.28,0,0,0,.68-.2,1.82,1.82,0,0,0,.81-1.19,1.1,1.1,0,0,0-.25-1,1,1,0,0,0-.82-.4h-1.66Z" transform="translate(-1.84 -1.87)"/><path class="cls-1" d="M1437.84,12.75l-2-10.7h2.72l1.37,7.33,3.58-7.33h2.73L1441,12.75Z" transform="translate(-1.84 -1.87)"/><path class="cls-1" d="M1446,12.75l1.63-10.7h2.89l-1.62,10.7Z" transform="translate(-1.84 -1.87)"/><path class="cls-1" d="M1455.4,12.9a6.88,6.88,0,0,1-1.64-.2,4.48,4.48,0,0,1-1.43-.61,2.9,2.9,0,0,1-1-1.06,2.81,2.81,0,0,1-.28-1.54h3a1.15,1.15,0,0,0,.22.65,1.32,1.32,0,0,0,.56.41,2.42,2.42,0,0,0,.86.14,4.14,4.14,0,0,0,.87-.09,1.65,1.65,0,0,0,.7-.3.86.86,0,0,0,.35-.58.52.52,0,0,0-.18-.51,1.67,1.67,0,0,0-.63-.27l-.84-.17-1.62-.28a2.93,2.93,0,0,1-1.88-1,2.73,2.73,0,0,1-.47-2.16,3.35,3.35,0,0,1,.88-1.84,4.8,4.8,0,0,1,1.81-1.17,6.62,6.62,0,0,1,2.32-.4,5.06,5.06,0,0,1,2.26.47,3.62,3.62,0,0,1,1.44,1.25,2.72,2.72,0,0,1,.46,1.65h-2.92a1.13,1.13,0,0,0-.15-.67,1,1,0,0,0-.51-.37,2.62,2.62,0,0,0-.85-.11,2.52,2.52,0,0,0-.9.13,1.06,1.06,0,0,0-.5.32.79.79,0,0,0-.19.39.64.64,0,0,0,.15.58,1.63,1.63,0,0,0,.88.35l1.62.28a4.49,4.49,0,0,1,1.74.62,2.38,2.38,0,0,1,.84.94,2.69,2.69,0,0,1,.23,1.05,5.26,5.26,0,0,1-.05.92,2.88,2.88,0,0,1-.85,1.63,5,5,0,0,1-1.85,1.13A7.05,7.05,0,0,1,1455.4,12.9Z" transform="translate(-1.84 -1.87)"/><path class="cls-1" d="M1467.19,9.54a2.2,2.2,0,0,1-1.13-.3,2.35,2.35,0,0,1-.81-.82,2.22,2.22,0,0,1,0-2.23,2.3,2.3,0,0,1,.81-.8,2.21,2.21,0,0,1,2.26,0,2.41,2.41,0,0,1,.82.8,2.22,2.22,0,0,1,0,2.23,2.47,2.47,0,0,1-.82.82A2.2,2.2,0,0,1,1467.19,9.54Z" transform="translate(-1.84 -1.87)"/><path class="cls-1" d="M1473.36,12.75l1.57-10.7h1.43c.75,0,1.47,0,2.18.05a12,12,0,0,1,2,.27,4.91,4.91,0,0,1,1.62.68,3.11,3.11,0,0,1,1.09,1.28,4.87,4.87,0,0,1,.39,2.09,7.46,7.46,0,0,1-.1,1.16,7.67,7.67,0,0,1-.35,1.37,6,6,0,0,1-.7,1.38,5.14,5.14,0,0,1-1.16,1.22,5.34,5.34,0,0,1-1.7.87,7.55,7.55,0,0,1-2.36.33Zm3.24-2.26h1a2.34,2.34,0,0,0,1.21-.33,3.25,3.25,0,0,0,1-.9,4.62,4.62,0,0,0,.66-1.29,4.91,4.91,0,0,0,.24-1.54,2.54,2.54,0,0,0-.24-1.17,1.6,1.6,0,0,0-.7-.71,2.27,2.27,0,0,0-1.08-.24h-1.1Z" transform="translate(-1.84 -1.87)"/><path class="cls-1" d="M1489,12.9a5,5,0,0,1-2.65-.58,2.6,2.6,0,0,1-1.2-1.61,5.83,5.83,0,0,1-.07-2.38l1-6.28H1489l-1,6.39a2.49,2.49,0,0,0,.06,1.19,1.2,1.2,0,0,0,.53.65,1.58,1.58,0,0,0,.81.21,2,2,0,0,0,1.26-.47,2.39,2.39,0,0,0,.76-1.58l1-6.39h2.93l-1,6.28a6.89,6.89,0,0,1-.8,2.38,4.13,4.13,0,0,1-1.7,1.61A6,6,0,0,1,1489,12.9Z" transform="translate(-1.84 -1.87)"/><path class="cls-1" d="M1495.58,12.75l1.63-10.7h4.86a4.24,4.24,0,0,1,2.17.46,2.19,2.19,0,0,1,1,1.24,3.6,3.6,0,0,1,.12,1.75,4.43,4.43,0,0,1-.44,1.4,3.59,3.59,0,0,1-.75,1,5.45,5.45,0,0,1-1,.72l1.25,4.14h-3l-1-3.69H1499l-.56,3.69Zm3.78-5.83H1501a1.34,1.34,0,0,0,.69-.2,1.79,1.79,0,0,0,.53-.53,1.45,1.45,0,0,0,.27-.66,1.1,1.1,0,0,0-.25-1,1,1,0,0,0-.82-.4h-1.66Z" transform="translate(-1.84 -1.87)"/></g></g></g></svg>