<svg xmlns="http://www.w3.org/2000/svg" viewBox="0 0 1936.33 1108.98"><defs><style>.cls-1{opacity:0.6;}.cls-2{fill:#fff;}</style></defs><g id="Layer_2" data-name="Layer 2"><g id="Accordion_menu_expanded" data-name="Accordion menu expanded"><g class="cls-1"><path class="cls-2" d="M17.86,1103.42a5.85,5.85,0,0,1-.89,3.3,4.87,4.87,0,0,1-2.47,1.9,7.28,7.28,0,0,1-3.65.24,8.82,8.82,0,0,1-3.74-1.44A7.62,7.62,0,0,1,3.74,1101a6,6,0,0,1,.72-3.08,4.42,4.42,0,0,1,1.88-1.79,4.17,4.17,0,0,1,2.44-.38v3.87a2.88,2.88,0,0,0-1,.25,1.73,1.73,0,0,0-.71.63,2,2,0,0,0-.26,1.06,2.7,2.7,0,0,0,.37,1.35,3.25,3.25,0,0,0,1.22,1.15,6.88,6.88,0,0,0,2.34.72,6.55,6.55,0,0,0,2,.06,2.52,2.52,0,0,0,1.19-.5,1.86,1.86,0,0,0,.55-.83,3.23,3.23,0,0,0,.14-.9,2.25,2.25,0,0,0-.12-.74,2.5,2.5,0,0,0-.29-.64,2.64,2.64,0,0,0-.42-.5,1.67,1.67,0,0,0-.46-.32l-.5-.24v2.4l-2.49-.38,0-6.32,7.26,1.12v2.43l-1.52-.22c.23.27.48.59.75,1a5.1,5.1,0,0,1,.68,1.32A5.64,5.64,0,0,1,17.86,1103.42Z"/><path class="cls-2" d="M17.67,1095.42l-13.74-7v-3.78l13.74-2.78v3.66L15,1086v4.35l2.66,1.34Zm-5.81-6.31v-2.73l-4.39.67Z"/><path class="cls-2" d="M17.67,1080.26l-13.74-2.1v-3.72l13.74,2.09Z"/><path class="cls-2" d="M17.67,1073.82l-13.74-2V1070c0-1,0-1.89.07-2.81a15.23,15.23,0,0,1,.35-2.55,6.23,6.23,0,0,1,.87-2.09,3.89,3.89,0,0,1,1.64-1.4,6.13,6.13,0,0,1,2.68-.51,10.86,10.86,0,0,1,1.49.13,10.6,10.6,0,0,1,1.76.45,8.1,8.1,0,0,1,1.78.91,6.89,6.89,0,0,1,1.57,1.49,7.51,7.51,0,0,1,1.11,2.19,9.81,9.81,0,0,1,.42,3Zm-2.91-4.17v-1.24a3,3,0,0,0-.42-1.56,4.18,4.18,0,0,0-1.15-1.27,5.66,5.66,0,0,0-1.66-.85,6.16,6.16,0,0,0-2-.31,3.25,3.25,0,0,0-1.51.31,2.17,2.17,0,0,0-.91.89,3,3,0,0,0-.3,1.4v1.42Z"/><path class="cls-2" d="M2.56,1059.09l-2.26-.35v-7.63l2.26.34Zm15.11.46-13.74-2.1v-3.72l13.74,2.09Z"/><path class="cls-2" d="M2.78,1046.5,0,1048.73v-2.54l1.56-1.14L0,1043.64V1041l2.78,3Zm15.08.9a8.85,8.85,0,0,1-.25,2.12,5.7,5.7,0,0,1-.79,1.83,3.59,3.59,0,0,1-1.35,1.25,3.49,3.49,0,0,1-2,.36v-3.85a1.54,1.54,0,0,0,.83-.29,1.64,1.64,0,0,0,.52-.72A2.78,2.78,0,0,0,15,1047a5.83,5.83,0,0,0-.11-1.12,2.44,2.44,0,0,0-.39-.91,1.17,1.17,0,0,0-.76-.45.63.63,0,0,0-.64.24,2.17,2.17,0,0,0-.35.81c-.08.34-.16.7-.22,1.08l-.36,2.08a3.77,3.77,0,0,1-1.28,2.43,3.52,3.52,0,0,1-2.77.6,4.33,4.33,0,0,1-2.37-1.14,6.05,6.05,0,0,1-1.5-2.33,8.37,8.37,0,0,1-.52-3,6.51,6.51,0,0,1,.61-2.91A4.68,4.68,0,0,1,6,1040.54a3.56,3.56,0,0,1,2.11-.59v3.77a1.36,1.36,0,0,0-.86.19,1.24,1.24,0,0,0-.47.65,3.48,3.48,0,0,0-.15,1.1,3.38,3.38,0,0,0,.17,1.16,1.43,1.43,0,0,0,.42.64,1,1,0,0,0,.49.25.88.88,0,0,0,.76-.2,2.14,2.14,0,0,0,.44-1.13l.36-2.09a5.7,5.7,0,0,1,.8-2.24,2.82,2.82,0,0,1,1.21-1.07,3.44,3.44,0,0,1,1.34-.31,6.94,6.94,0,0,1,1.17.07,3.66,3.66,0,0,1,2.1,1.1,6.49,6.49,0,0,1,1.46,2.38A9.22,9.22,0,0,1,17.86,1047.4Z"/><path class="cls-2" d="M17.67,1040.27l-13.74-7v-3.77l13.74-2.79v3.67l-2.66.5v4.35l2.66,1.34ZM11.86,1034v-2.72l-4.39.67Z"/><path class="cls-2" d="M17.67,1025.12,3.93,1023v-3.74l7.66-4.2-7.66-1.16v-3.73l13.74,2.12v3.34l-8.19,4.51,8.19,1.25Z"/><path class="cls-2" d="M17.67,1010.53l-13.74-7v-3.78L17.67,997v3.66l-2.66.5v4.36l2.66,1.34Zm-5.81-6.31v-2.72l-4.39.67Z"/><path class="cls-2" d="M13.55,988.35a2.83,2.83,0,0,1-.39,1.46,3,3,0,0,1-1,1,2.78,2.78,0,0,1-1.44.39,2.72,2.72,0,0,1-1.43-.39,2.93,2.93,0,0,1-1-1,2.83,2.83,0,0,1-.39-1.46,2.79,2.79,0,0,1,.39-1.45,3,3,0,0,1,1-1,2.72,2.72,0,0,1,1.43-.39,2.78,2.78,0,0,1,1.44.39,3,3,0,0,1,1,1A2.79,2.79,0,0,1,13.55,988.35Z"/><path class="cls-2" d="M17.86,974.51A5.79,5.79,0,0,1,17,977.8a4.81,4.81,0,0,1-2.47,1.9,7.39,7.39,0,0,1-3.65.25,9.09,9.09,0,0,1-3.74-1.44,7.79,7.79,0,0,1-2.48-2.76,7.6,7.6,0,0,1-.89-3.64A6,6,0,0,1,4.46,969a4.48,4.48,0,0,1,1.88-1.79,4.17,4.17,0,0,1,2.44-.38v3.88a2.68,2.68,0,0,0-1,.25,1.71,1.71,0,0,0-.71.62,2,2,0,0,0-.26,1.07A2.66,2.66,0,0,0,7.17,974a3.17,3.17,0,0,0,1.22,1.15,6.87,6.87,0,0,0,2.34.73,6.49,6.49,0,0,0,2,.05,2.42,2.42,0,0,0,1.19-.5,1.84,1.84,0,0,0,.55-.82,3.25,3.25,0,0,0,.14-.91,2.25,2.25,0,0,0-.12-.74,2.66,2.66,0,0,0-.29-.64,3,3,0,0,0-.42-.5,1.62,1.62,0,0,0-.46-.31l-.5-.24v2.39l-2.49-.38,0-6.31,7.26,1.11v2.44l-1.52-.22c.23.27.48.58.75.94a5,5,0,0,1,.68,1.33A5.64,5.64,0,0,1,17.86,974.51Z"/><path class="cls-2" d="M17.67,966.49l-13.74-7v-3.77l13.74-2.79v3.67l-2.66.5v4.35l2.66,1.34Zm-5.81-6.32v-2.72l-4.39.67Z"/><path class="cls-2" d="M17.67,951.35l-13.74-2.1v-3.72l13.74,2.09Z"/><path class="cls-2" d="M17.67,944.91l-13.74-2V941c0-1,0-1.89.07-2.81a15.23,15.23,0,0,1,.35-2.55,6.23,6.23,0,0,1,.87-2.09,3.89,3.89,0,0,1,1.64-1.4,6.13,6.13,0,0,1,2.68-.51,9.49,9.49,0,0,1,1.49.13,10.6,10.6,0,0,1,1.76.45,8.1,8.1,0,0,1,1.78.91,6.89,6.89,0,0,1,1.57,1.49,7.26,7.26,0,0,1,1.11,2.19,9.81,9.81,0,0,1,.42,3Zm-2.91-4.18V939.5a3,3,0,0,0-.42-1.56,4.18,4.18,0,0,0-1.15-1.27,5.68,5.68,0,0,0-1.66-.86,6.44,6.44,0,0,0-2-.3,3.25,3.25,0,0,0-1.51.31,2.17,2.17,0,0,0-.91.89,3,3,0,0,0-.3,1.4v1.42Z"/><path class="cls-2" d="M2.56,930.16.3,929.81v-7.63l2.26.34Zm15.11.46-13.74-2.1V924.8l13.74,2.09Z"/><path class="cls-2" d="M2.78,917.58,0,919.81v-2.54l1.56-1.14L0,914.72v-2.66l2.78,3Zm15.08.9a8.79,8.79,0,0,1-.25,2.12,5.7,5.7,0,0,1-.79,1.83,3.7,3.7,0,0,1-1.35,1.26,3.67,3.67,0,0,1-2,.36v-3.86a1.54,1.54,0,0,0,.83-.29,1.64,1.64,0,0,0,.52-.72,2.78,2.78,0,0,0,.19-1.1,5.83,5.83,0,0,0-.11-1.12,2.44,2.44,0,0,0-.39-.91,1.12,1.12,0,0,0-.76-.44.61.61,0,0,0-.64.23,2.17,2.17,0,0,0-.35.81c-.08.34-.16.7-.22,1.08l-.36,2.09a3.77,3.77,0,0,1-1.28,2.42,3.52,3.52,0,0,1-2.77.6,4.33,4.33,0,0,1-2.37-1.14,6.05,6.05,0,0,1-1.5-2.33,8.37,8.37,0,0,1-.52-3,6.51,6.51,0,0,1,.61-2.91A4.59,4.59,0,0,1,6,911.63a3.5,3.5,0,0,1,2.11-.6v3.77a1.36,1.36,0,0,0-.86.19,1.24,1.24,0,0,0-.47.65,3.48,3.48,0,0,0-.15,1.1,3.38,3.38,0,0,0,.17,1.16,1.43,1.43,0,0,0,.42.64,1,1,0,0,0,.49.25.88.88,0,0,0,.76-.2,2.14,2.14,0,0,0,.44-1.13l.36-2.08a5.69,5.69,0,0,1,.8-2.25,2.89,2.89,0,0,1,1.21-1.07,3.44,3.44,0,0,1,1.34-.31,6.94,6.94,0,0,1,1.17.07,3.66,3.66,0,0,1,2.1,1.1,6.49,6.49,0,0,1,1.46,2.38A9.26,9.26,0,0,1,17.86,918.48Z"/><path class="cls-2" d="M17.67,911.34l-13.74-7v-3.78l13.74-2.78v3.67l-2.66.49v4.36l2.66,1.34ZM11.86,905v-2.72L7.47,903Z"/><path class="cls-2" d="M17.67,896.19,3.93,894.07v-3.74l7.66-4.2L3.93,885v-3.73l13.74,2.12v3.35l-8.19,4.5,8.19,1.25Z"/><path class="cls-2" d="M17.67,881.62l-13.74-7v-3.77l13.74-2.79v3.67l-2.66.5v4.35l2.66,1.34Zm-5.81-6.31v-2.73l-4.39.67Z"/><path class="cls-2" d="M13.55,859.44a2.83,2.83,0,0,1-.39,1.46,3,3,0,0,1-1,1,2.78,2.78,0,0,1-1.44.39,2.72,2.72,0,0,1-1.43-.39,3,3,0,0,1-1-1,2.83,2.83,0,0,1-.39-1.46A2.79,2.79,0,0,1,8.22,858a3,3,0,0,1,1-1,2.72,2.72,0,0,1,1.43-.39,2.78,2.78,0,0,1,1.44.39,3,3,0,0,1,1,1A2.79,2.79,0,0,1,13.55,859.44Z"/><path class="cls-2" d="M17.86,845.58a5.82,5.82,0,0,1-.89,3.3,4.87,4.87,0,0,1-2.47,1.9,7.28,7.28,0,0,1-3.65.24,8.82,8.82,0,0,1-3.74-1.44,7.62,7.62,0,0,1-3.37-6.39,6,6,0,0,1,.72-3.08,4.42,4.42,0,0,1,1.88-1.79,4.17,4.17,0,0,1,2.44-.38v3.88a2.68,2.68,0,0,0-1,.24,1.73,1.73,0,0,0-.71.63,2,2,0,0,0-.26,1.06,2.7,2.7,0,0,0,.37,1.35,3.25,3.25,0,0,0,1.22,1.15,7.1,7.1,0,0,0,2.34.73,6.81,6.81,0,0,0,2,0,2.42,2.42,0,0,0,1.19-.5,1.81,1.81,0,0,0,.55-.83,3.23,3.23,0,0,0,.14-.9,2.25,2.25,0,0,0-.12-.74,2.5,2.5,0,0,0-.29-.64,3,3,0,0,0-.42-.5,1.67,1.67,0,0,0-.46-.32l-.5-.24v2.4l-2.49-.38,0-6.31,7.26,1.11v2.43l-1.52-.22c.23.27.48.59.75,1a5.1,5.1,0,0,1,.68,1.32A5.64,5.64,0,0,1,17.86,845.58Z"/><path class="cls-2" d="M17.67,837.58l-13.74-7V826.8L17.67,824v3.66l-2.66.5v4.35l2.66,1.35Zm-5.81-6.31v-2.73l-4.39.67Z"/><path class="cls-2" d="M17.67,822.42l-13.74-2.1V816.6l13.74,2.09Z"/><path class="cls-2" d="M17.67,816,3.93,814v-1.85c0-1,0-1.89.07-2.81a15.23,15.23,0,0,1,.35-2.55,6.23,6.23,0,0,1,.87-2.09,3.89,3.89,0,0,1,1.64-1.4,6.13,6.13,0,0,1,2.68-.51,10.86,10.86,0,0,1,1.49.13,10.6,10.6,0,0,1,1.76.45,8.1,8.1,0,0,1,1.78.91,6.89,6.89,0,0,1,1.57,1.49,7.51,7.51,0,0,1,1.11,2.19,9.81,9.81,0,0,1,.42,3Zm-2.91-4.17v-1.24a3,3,0,0,0-.42-1.56,4.3,4.3,0,0,0-1.15-1.27,5.66,5.66,0,0,0-1.66-.85,6.16,6.16,0,0,0-2-.31,3.25,3.25,0,0,0-1.51.31,2.17,2.17,0,0,0-.91.89,3,3,0,0,0-.3,1.4v1.42Z"/><path class="cls-2" d="M2.56,801.26.3,800.91v-7.63l2.26.34Zm15.11.46-13.74-2.1V795.9L17.67,798Z"/><path class="cls-2" d="M2.78,788.66,0,790.89v-2.53l1.56-1.14L0,785.81v-2.67l2.78,3Zm15.08.91a8.76,8.76,0,0,1-.25,2.11,5.76,5.76,0,0,1-.79,1.84,3.76,3.76,0,0,1-1.35,1.25,3.49,3.49,0,0,1-2,.36v-3.86a1.53,1.53,0,0,0,.83-.28,1.76,1.76,0,0,0,.52-.72,2.87,2.87,0,0,0,.19-1.11,5.83,5.83,0,0,0-.11-1.12,2.44,2.44,0,0,0-.39-.91,1.12,1.12,0,0,0-.76-.44.61.61,0,0,0-.64.23,2.33,2.33,0,0,0-.35.81c-.08.34-.16.7-.22,1.09l-.36,2.08a3.74,3.74,0,0,1-1.28,2.42,3.52,3.52,0,0,1-2.77.6,4.2,4.2,0,0,1-2.37-1.14,6.05,6.05,0,0,1-1.5-2.33,8.36,8.36,0,0,1-.52-3,6.52,6.52,0,0,1,.61-2.92A4.72,4.72,0,0,1,6,782.71a3.5,3.5,0,0,1,2.11-.6v3.77a1.43,1.43,0,0,0-.86.19,1.23,1.23,0,0,0-.47.66,3.41,3.41,0,0,0-.15,1.09A3.34,3.34,0,0,0,6.78,789a1.47,1.47,0,0,0,.42.65.94.94,0,0,0,.49.24.88.88,0,0,0,.76-.19,2.22,2.22,0,0,0,.44-1.14l.36-2.08a5.69,5.69,0,0,1,.8-2.25,3,3,0,0,1,1.21-1.07,3.44,3.44,0,0,1,1.34-.31,8.17,8.17,0,0,1,1.17.07,3.72,3.72,0,0,1,2.1,1.1,6.57,6.57,0,0,1,1.46,2.38A9.32,9.32,0,0,1,17.86,789.57Z"/><path class="cls-2" d="M17.67,782.43l-13.74-7v-3.77l13.74-2.79v3.67L15,773v4.35l2.66,1.34Zm-5.81-6.32v-2.72l-4.39.67Z"/><path class="cls-2" d="M17.67,767.28,3.93,765.16v-3.74l7.66-4.2-7.66-1.16v-3.74l13.74,2.12v3.35L9.48,762.3l8.19,1.25Z"/><path class="cls-2" d="M17.67,752.69l-13.74-7v-3.78l13.74-2.78v3.66l-2.66.5v4.36L17.67,749Zm-5.81-6.31v-2.72l-4.39.67Z"/><path class="cls-2" d="M13.55,730.53a2.79,2.79,0,0,1-.39,1.45,3,3,0,0,1-1,1,2.77,2.77,0,0,1-1.44.38A2.71,2.71,0,0,1,9.25,733a3,3,0,0,1-1-1,2.89,2.89,0,0,1,0-2.9,3.07,3.07,0,0,1,1-1.06,2.72,2.72,0,0,1,1.43-.39,2.78,2.78,0,0,1,1.44.39,3.1,3.1,0,0,1,1,1.06A2.76,2.76,0,0,1,13.55,730.53Z"/><path class="cls-2" d="M17.86,716.66A5.79,5.79,0,0,1,17,720a4.81,4.81,0,0,1-2.47,1.9,7.28,7.28,0,0,1-3.65.25,9.09,9.09,0,0,1-3.74-1.44,7.79,7.79,0,0,1-2.48-2.76,7.57,7.57,0,0,1-.89-3.64,6,6,0,0,1,.72-3.08,4.46,4.46,0,0,1,1.88-1.78A4.1,4.1,0,0,1,8.78,709v3.87a2.88,2.88,0,0,0-1,.25,1.71,1.71,0,0,0-.71.62,2,2,0,0,0-.26,1.07,2.63,2.63,0,0,0,.37,1.34,3.1,3.1,0,0,0,1.22,1.15,6.87,6.87,0,0,0,2.34.73,6.21,6.21,0,0,0,2,.05,2.42,2.42,0,0,0,1.19-.5,1.84,1.84,0,0,0,.55-.82,3.25,3.25,0,0,0,.14-.91,2.25,2.25,0,0,0-.12-.74,2.66,2.66,0,0,0-.29-.64,3,3,0,0,0-.42-.5,1.62,1.62,0,0,0-.46-.31l-.5-.24v2.4l-2.49-.39,0-6.31,7.26,1.11v2.44l-1.52-.22c.23.27.48.58.75.94a5.18,5.18,0,0,1,.68,1.33A5.64,5.64,0,0,1,17.86,716.66Z"/><path class="cls-2" d="M17.67,708.65l-13.74-7v-3.78l13.74-2.78v3.66l-2.66.5v4.35L17.67,705Zm-5.81-6.31v-2.73l-4.39.67Z"/><path class="cls-2" d="M17.67,693.51l-13.74-2.1v-3.72l13.74,2.09Z"/><path class="cls-2" d="M17.67,687.05,3.93,685v-1.84c0-1,0-1.89.07-2.81a15.23,15.23,0,0,1,.35-2.55,6.23,6.23,0,0,1,.87-2.09,3.89,3.89,0,0,1,1.64-1.4,6.13,6.13,0,0,1,2.68-.51A9.49,9.49,0,0,1,11,674a10.6,10.6,0,0,1,1.76.45,8.1,8.1,0,0,1,1.78.91,6.89,6.89,0,0,1,1.57,1.49A7.26,7.26,0,0,1,17.25,679a9.81,9.81,0,0,1,.42,3Zm-2.91-4.17v-1.24a3,3,0,0,0-.42-1.56,4.18,4.18,0,0,0-1.15-1.27,5.43,5.43,0,0,0-1.66-.85,6.16,6.16,0,0,0-2-.31,3.25,3.25,0,0,0-1.51.31,2.17,2.17,0,0,0-.91.89,3,3,0,0,0-.3,1.4v1.42Z"/><path class="cls-2" d="M2.56,672.32.3,672v-7.64l2.26.35Zm15.11.46-13.74-2.1V667l13.74,2.09Z"/><path class="cls-2" d="M2.78,659.73,0,662v-2.53l1.56-1.14L0,656.88v-2.67l2.78,3Zm15.08.91a8.76,8.76,0,0,1-.25,2.11,5.76,5.76,0,0,1-.79,1.84,3.76,3.76,0,0,1-1.35,1.25,3.49,3.49,0,0,1-2,.36v-3.86a1.53,1.53,0,0,0,.83-.28,1.76,1.76,0,0,0,.52-.72,2.87,2.87,0,0,0,.19-1.11,5.83,5.83,0,0,0-.11-1.12,2.32,2.32,0,0,0-.39-.9,1.09,1.09,0,0,0-.76-.45.61.61,0,0,0-.64.23,2.33,2.33,0,0,0-.35.81c-.08.34-.16.7-.22,1.09L12.2,662a3.74,3.74,0,0,1-1.28,2.42,3.52,3.52,0,0,1-2.77.6,4.2,4.2,0,0,1-2.37-1.14,6.05,6.05,0,0,1-1.5-2.33,8.36,8.36,0,0,1-.52-3,6.45,6.45,0,0,1,.61-2.91A4.68,4.68,0,0,1,6,653.78a3.5,3.5,0,0,1,2.11-.6V657a1.43,1.43,0,0,0-.86.19,1.23,1.23,0,0,0-.47.66,3.41,3.41,0,0,0-.15,1.09,3.34,3.34,0,0,0,.17,1.16,1.47,1.47,0,0,0,.42.65.94.94,0,0,0,.49.24.88.88,0,0,0,.76-.19,2.22,2.22,0,0,0,.44-1.14l.36-2.08a5.58,5.58,0,0,1,.8-2.24,2.92,2.92,0,0,1,1.21-1.08,3.44,3.44,0,0,1,1.34-.31,8.17,8.17,0,0,1,1.17.07,3.72,3.72,0,0,1,2.1,1.1,6.57,6.57,0,0,1,1.46,2.38A9.32,9.32,0,0,1,17.86,660.64Z"/><path class="cls-2" d="M17.67,653.51l-13.74-7v-3.78L17.67,640v3.66l-2.66.5v4.35l2.66,1.35Zm-5.81-6.31v-2.72l-4.39.67Z"/><path class="cls-2" d="M17.67,638.37,3.93,636.25v-3.74l7.66-4.2-7.66-1.16v-3.73l13.74,2.12v3.34l-8.19,4.51,8.19,1.25Z"/><path class="cls-2" d="M17.67,623.79l-13.74-7V613l13.74-2.78v3.66l-2.66.5v4.36l2.66,1.34Zm-5.81-6.31v-2.72l-4.39.67Z"/><path class="cls-2" d="M13.55,601.61a2.83,2.83,0,0,1-.39,1.46,3,3,0,0,1-1,1,2.78,2.78,0,0,1-1.44.39,2.72,2.72,0,0,1-1.43-.39,3,3,0,0,1-1-1,2.83,2.83,0,0,1-.39-1.46,2.79,2.79,0,0,1,.39-1.45,3,3,0,0,1,1-1,2.72,2.72,0,0,1,1.43-.39,2.78,2.78,0,0,1,1.44.39,3,3,0,0,1,1,1A2.79,2.79,0,0,1,13.55,601.61Z"/><path class="cls-2" d="M17.86,587.73A5.79,5.79,0,0,1,17,591a4.81,4.81,0,0,1-2.47,1.9,7.28,7.28,0,0,1-3.65.24,8.94,8.94,0,0,1-3.74-1.43A7.79,7.79,0,0,1,4.63,589a7.6,7.6,0,0,1-.89-3.64,6,6,0,0,1,.72-3.08,4.48,4.48,0,0,1,1.88-1.79,4.17,4.17,0,0,1,2.44-.38V584a2.68,2.68,0,0,0-1,.25,1.71,1.71,0,0,0-.71.62,2,2,0,0,0-.26,1.06,2.7,2.7,0,0,0,.37,1.35,3.17,3.17,0,0,0,1.22,1.15,7.1,7.1,0,0,0,2.34.73,6.49,6.49,0,0,0,2,0,2.42,2.42,0,0,0,1.19-.5,1.84,1.84,0,0,0,.55-.82,3.3,3.3,0,0,0,.14-.91,2.25,2.25,0,0,0-.12-.74,2.5,2.5,0,0,0-.29-.64,3,3,0,0,0-.42-.5,1.67,1.67,0,0,0-.46-.32l-.5-.24v2.4l-2.49-.38,0-6.31,7.26,1.11v2.44l-1.52-.22c.23.26.48.58.75.94a5.1,5.1,0,0,1,.68,1.32A5.7,5.7,0,0,1,17.86,587.73Z"/><path class="cls-2" d="M17.67,579.74l-13.74-7V569l13.74-2.78v3.66l-2.66.5v4.35L17.67,576Zm-5.81-6.31V570.7l-4.39.67Z"/><path class="cls-2" d="M17.67,564.59l-13.74-2.1v-3.72l13.74,2.09Z"/><path class="cls-2" d="M17.67,558.13l-13.74-2v-1.84c0-1,0-1.9.07-2.81a15.36,15.36,0,0,1,.35-2.56,6.18,6.18,0,0,1,.87-2.08,4,4,0,0,1,1.64-1.41,6.28,6.28,0,0,1,2.68-.5A9.49,9.49,0,0,1,11,545a10.6,10.6,0,0,1,1.76.45,7.69,7.69,0,0,1,1.78.91,6.68,6.68,0,0,1,1.57,1.49,7.26,7.26,0,0,1,1.11,2.19,9.81,9.81,0,0,1,.42,3ZM14.76,554v-1.23a3,3,0,0,0-.42-1.56,4.07,4.07,0,0,0-1.15-1.27,5.68,5.68,0,0,0-1.66-.86,6.44,6.44,0,0,0-2-.3,3.25,3.25,0,0,0-1.51.31,2.11,2.11,0,0,0-.91.89,3,3,0,0,0-.3,1.39v1.42Z"/><path class="cls-2" d="M2.56,543.4.3,543.05v-7.63l2.26.34Zm15.11.46-13.74-2.1V538l13.74,2.09Z"/><path class="cls-2" d="M2.78,530.85,0,533.07v-2.53l1.56-1.14L0,528v-2.67l2.78,3Zm15.08.9a8.76,8.76,0,0,1-.25,2.11,5.76,5.76,0,0,1-.79,1.84A3.67,3.67,0,0,1,15.47,537a3.49,3.49,0,0,1-2,.36v-3.86a1.53,1.53,0,0,0,.83-.28,1.76,1.76,0,0,0,.52-.72,2.87,2.87,0,0,0,.19-1.11,5.83,5.83,0,0,0-.11-1.12,2.32,2.32,0,0,0-.39-.9,1.09,1.09,0,0,0-.76-.45.63.63,0,0,0-.64.23,2.3,2.3,0,0,0-.35.82c-.08.33-.16.7-.22,1.08l-.36,2.08a3.74,3.74,0,0,1-1.28,2.42,3.52,3.52,0,0,1-2.77.6A4.2,4.2,0,0,1,5.78,535a6.05,6.05,0,0,1-1.5-2.33,8.36,8.36,0,0,1-.52-3,6.45,6.45,0,0,1,.61-2.91A4.68,4.68,0,0,1,6,524.89a3.5,3.5,0,0,1,2.11-.6v3.77a1.43,1.43,0,0,0-.86.19,1.27,1.27,0,0,0-.47.66A3.41,3.41,0,0,0,6.61,530a3.34,3.34,0,0,0,.17,1.16,1.47,1.47,0,0,0,.42.65.94.94,0,0,0,.49.24.88.88,0,0,0,.76-.19,2.22,2.22,0,0,0,.44-1.14l.36-2.08a5.58,5.58,0,0,1,.8-2.24,2.92,2.92,0,0,1,1.21-1.08A3.44,3.44,0,0,1,12.6,525a8.17,8.17,0,0,1,1.17.07,3.72,3.72,0,0,1,2.1,1.1,6.57,6.57,0,0,1,1.46,2.38A9.32,9.32,0,0,1,17.86,531.75Z"/><path class="cls-2" d="M17.67,524.6l-13.74-7v-3.77L17.67,511v3.66l-2.66.5v4.35l2.66,1.34Zm-5.81-6.31v-2.73l-4.39.67Z"/><path class="cls-2" d="M17.67,509.46,3.93,507.34V503.6l7.66-4.2-7.66-1.16V494.5l13.74,2.12V500l-8.19,4.51,8.19,1.25Z"/><path class="cls-2" d="M17.67,494.88l-13.74-7V484.1l13.74-2.78V485l-2.66.5v4.36l2.66,1.34Zm-5.81-6.31v-2.72l-4.39.67Z"/><path class="cls-2" d="M13.55,472.68a2.76,2.76,0,0,1-.39,1.45,3,3,0,0,1-1,1.05,2.78,2.78,0,0,1-1.44.39,2.72,2.72,0,0,1-1.43-.39,3,3,0,0,1-1-1.05,2.89,2.89,0,0,1,0-2.9,3,3,0,0,1,1-1.05,2.72,2.72,0,0,1,1.43-.39,2.78,2.78,0,0,1,1.44.39,3,3,0,0,1,1,1.05A2.79,2.79,0,0,1,13.55,472.68Z"/><path class="cls-2" d="M17.86,458.83a5.85,5.85,0,0,1-.89,3.3A4.87,4.87,0,0,1,14.5,464a7.28,7.28,0,0,1-3.65.24,8.82,8.82,0,0,1-3.74-1.44,7.62,7.62,0,0,1-3.37-6.39,6,6,0,0,1,.72-3.08,4.42,4.42,0,0,1,1.88-1.79,4.1,4.1,0,0,1,2.44-.38v3.87a2.88,2.88,0,0,0-1,.25,1.66,1.66,0,0,0-.71.63A2,2,0,0,0,6.8,457a2.63,2.63,0,0,0,.37,1.34,3.19,3.19,0,0,0,1.22,1.16,6.88,6.88,0,0,0,2.34.72,6.55,6.55,0,0,0,2,.06,2.52,2.52,0,0,0,1.19-.5,1.86,1.86,0,0,0,.55-.83,3.23,3.23,0,0,0,.14-.9,2.31,2.31,0,0,0-.12-.75,2.59,2.59,0,0,0-.29-.63,2.64,2.64,0,0,0-.42-.5,1.67,1.67,0,0,0-.46-.32l-.5-.24V458l-2.49-.39,0-6.31,7.26,1.12v2.43l-1.52-.22c.23.27.48.59.75.95a5.1,5.1,0,0,1,.68,1.32A5.64,5.64,0,0,1,17.86,458.83Z"/><path class="cls-2" d="M17.67,450.83l-13.74-7v-3.78l13.74-2.78v3.66l-2.66.5v4.36l2.66,1.34Zm-5.81-6.31V441.8l-4.39.67Z"/><path class="cls-2" d="M17.67,435.68l-13.74-2.1v-3.72L17.67,432Z"/><path class="cls-2" d="M17.67,429.23l-13.74-2v-1.84c0-1,0-1.9.07-2.81A15.36,15.36,0,0,1,4.35,420a6.18,6.18,0,0,1,.87-2.08,4,4,0,0,1,1.64-1.41,6.28,6.28,0,0,1,2.68-.5,9.49,9.49,0,0,1,1.49.13,10.6,10.6,0,0,1,1.76.45,7.69,7.69,0,0,1,1.78.91A6.68,6.68,0,0,1,16.14,419a7.26,7.26,0,0,1,1.11,2.19,9.81,9.81,0,0,1,.42,3Zm-2.91-4.17v-1.23a3,3,0,0,0-.42-1.56A4.07,4.07,0,0,0,13.19,421a5.68,5.68,0,0,0-1.66-.86,6.44,6.44,0,0,0-2-.3,3.25,3.25,0,0,0-1.51.31,2.11,2.11,0,0,0-.91.89,3,3,0,0,0-.3,1.39v1.42Z"/><path class="cls-2" d="M2.56,414.49.3,414.14v-7.63l2.26.35Zm15.11.46-13.74-2.1v-3.72l13.74,2.09Z"/><path class="cls-2" d="M2.78,401.93,0,404.15v-2.53l1.56-1.14L0,399.07V396.4l2.78,3Zm15.08.9a8.7,8.7,0,0,1-.25,2.11,5.76,5.76,0,0,1-.79,1.84A3.59,3.59,0,0,1,15.47,408a3.49,3.49,0,0,1-2,.36v-3.85a1.54,1.54,0,0,0,.83-.29,1.64,1.64,0,0,0,.52-.72,2.81,2.81,0,0,0,.19-1.1,5.75,5.75,0,0,0-.11-1.12,2.44,2.44,0,0,0-.39-.91,1.09,1.09,0,0,0-.76-.45.63.63,0,0,0-.64.24,2.17,2.17,0,0,0-.35.81c-.08.34-.16.7-.22,1.08l-.36,2.08a3.74,3.74,0,0,1-1.28,2.42,3.45,3.45,0,0,1-2.77.6,4.25,4.25,0,0,1-2.37-1.13,6.13,6.13,0,0,1-1.5-2.33,8.41,8.41,0,0,1-.52-3,6.51,6.51,0,0,1,.61-2.91A4.68,4.68,0,0,1,6,396a3.49,3.49,0,0,1,2.11-.59v3.77a1.43,1.43,0,0,0-.86.18,1.31,1.31,0,0,0-.47.66,3.46,3.46,0,0,0-.15,1.09,3.34,3.34,0,0,0,.17,1.16,1.47,1.47,0,0,0,.42.65,1,1,0,0,0,.49.25.88.88,0,0,0,.76-.2,2.18,2.18,0,0,0,.44-1.14l.36-2.08a5.64,5.64,0,0,1,.8-2.24,2.92,2.92,0,0,1,1.21-1.08,3.42,3.42,0,0,1,1.34-.3,7,7,0,0,1,1.17.06,3.73,3.73,0,0,1,2.1,1.11,6.49,6.49,0,0,1,1.46,2.38A9.22,9.22,0,0,1,17.86,402.83Z"/><path class="cls-2" d="M17.67,395.68l-13.74-7V384.9l13.74-2.78v3.66l-2.66.5v4.36L17.67,392Zm-5.81-6.31v-2.72l-4.39.67Z"/><path class="cls-2" d="M17.67,380.52,3.93,378.4v-3.74l7.66-4.2L3.93,369.3v-3.73l13.74,2.12V371l-8.19,4.5,8.19,1.25Z"/><path class="cls-2" d="M17.67,366,3.93,359v-3.78l13.74-2.78v3.66l-2.66.5v4.35l2.66,1.35Zm-5.81-6.31v-2.72l-4.39.67Z"/><path class="cls-2" d="M13.55,343.76a2.83,2.83,0,0,1-.39,1.46,3,3,0,0,1-1,1,2.78,2.78,0,0,1-1.44.39,2.72,2.72,0,0,1-1.43-.39,3,3,0,0,1-1-1,2.83,2.83,0,0,1-.39-1.46,2.79,2.79,0,0,1,.39-1.45,3,3,0,0,1,1-1.05,2.72,2.72,0,0,1,1.43-.39,2.78,2.78,0,0,1,1.44.39,3,3,0,0,1,1,1.05A2.79,2.79,0,0,1,13.55,343.76Z"/><path class="cls-2" d="M17.86,329.92a5.85,5.85,0,0,1-.89,3.3,4.87,4.87,0,0,1-2.47,1.9,7.28,7.28,0,0,1-3.65.24,8.82,8.82,0,0,1-3.74-1.44,7.62,7.62,0,0,1-3.37-6.39,6,6,0,0,1,.72-3.08,4.42,4.42,0,0,1,1.88-1.79,4.1,4.1,0,0,1,2.44-.38v3.87a2.88,2.88,0,0,0-1,.25,1.66,1.66,0,0,0-.71.63,2,2,0,0,0-.26,1.06,2.63,2.63,0,0,0,.37,1.34,3.1,3.1,0,0,0,1.22,1.15,6.66,6.66,0,0,0,2.34.73,6.55,6.55,0,0,0,2,.06,2.52,2.52,0,0,0,1.19-.5,1.86,1.86,0,0,0,.55-.83,3.23,3.23,0,0,0,.14-.9,2.31,2.31,0,0,0-.12-.75,2.59,2.59,0,0,0-.29-.63,2.64,2.64,0,0,0-.42-.5,1.67,1.67,0,0,0-.46-.32l-.5-.24v2.4l-2.49-.39,0-6.31,7.26,1.12V326l-1.52-.22c.23.27.48.59.75.95a5.1,5.1,0,0,1,.68,1.32A5.64,5.64,0,0,1,17.86,329.92Z"/><path class="cls-2" d="M17.67,321.91l-13.74-7v-3.78l13.74-2.78V312l-2.66.5v4.36l2.66,1.34Zm-5.81-6.31v-2.72l-4.39.67Z"/><path class="cls-2" d="M17.67,306.77l-13.74-2.1V301L17.67,303Z"/><path class="cls-2" d="M17.67,300.29l-13.74-2v-1.84c0-1,0-1.9.07-2.81a15.21,15.21,0,0,1,.35-2.56A6.18,6.18,0,0,1,5.22,289a4,4,0,0,1,1.64-1.41,6.28,6.28,0,0,1,2.68-.5,9.49,9.49,0,0,1,1.49.13,8.94,8.94,0,0,1,1.76.45,8.05,8.05,0,0,1,1.78.9,6.73,6.73,0,0,1,1.57,1.5,7.26,7.26,0,0,1,1.11,2.19,9.72,9.72,0,0,1,.42,3Zm-2.91-4.17v-1.24a3,3,0,0,0-.42-1.55,4.07,4.07,0,0,0-1.15-1.27,5.68,5.68,0,0,0-1.66-.86,6.44,6.44,0,0,0-2-.3,3.25,3.25,0,0,0-1.51.31,2.06,2.06,0,0,0-.91.89,3,3,0,0,0-.3,1.39v1.42Z"/><path class="cls-2" d="M2.56,285.56.3,285.22v-7.63l2.26.34Zm15.11.47-13.74-2.1V280.2l13.74,2.09Z"/><path class="cls-2" d="M2.78,273,0,275.24v-2.53l1.56-1.14L0,270.16v-2.67l2.78,3Zm15.08.9a8.7,8.7,0,0,1-.25,2.11,5.76,5.76,0,0,1-.79,1.84,3.67,3.67,0,0,1-1.35,1.25,3.49,3.49,0,0,1-2,.36v-3.85a1.54,1.54,0,0,0,.83-.29,1.64,1.64,0,0,0,.52-.72,2.85,2.85,0,0,0,.19-1.1,5.93,5.93,0,0,0-.11-1.13,2.39,2.39,0,0,0-.39-.9,1.09,1.09,0,0,0-.76-.45.62.62,0,0,0-.64.24,2.17,2.17,0,0,0-.35.81c-.08.34-.16.7-.22,1.08l-.36,2.08a3.74,3.74,0,0,1-1.28,2.42,3.45,3.45,0,0,1-2.77.6,4.25,4.25,0,0,1-2.37-1.13,6.13,6.13,0,0,1-1.5-2.33,8.41,8.41,0,0,1-.52-3,6.51,6.51,0,0,1,.61-2.91A4.68,4.68,0,0,1,6,267.06a3.43,3.43,0,0,1,2.11-.59v3.77a1.43,1.43,0,0,0-.86.18,1.31,1.31,0,0,0-.47.66,3.41,3.41,0,0,0-.15,1.09,3.34,3.34,0,0,0,.17,1.16,1.47,1.47,0,0,0,.42.65,1,1,0,0,0,.49.25.91.91,0,0,0,.76-.2,2.22,2.22,0,0,0,.44-1.14l.36-2.08a5.58,5.58,0,0,1,.8-2.24,2.92,2.92,0,0,1,1.21-1.08,3.26,3.26,0,0,1,1.34-.3,7,7,0,0,1,1.17.06,3.73,3.73,0,0,1,2.1,1.11,6.53,6.53,0,0,1,1.46,2.37A9.32,9.32,0,0,1,17.86,273.92Z"/><path class="cls-2" d="M17.67,266.78l-13.74-7V256l13.74-2.78v3.66l-2.66.5v4.35l2.66,1.35Zm-5.81-6.31v-2.73l-4.39.68Z"/><path class="cls-2" d="M17.67,251.61,3.93,249.49v-3.74l7.66-4.2-7.66-1.16v-3.73l13.74,2.12v3.35l-8.19,4.5,8.19,1.25Z"/><path class="cls-2" d="M17.67,237.05l-13.74-7v-3.78l13.74-2.78v3.66l-2.66.5V232l2.66,1.34Zm-5.81-6.31V228l-4.39.67Z"/><path class="cls-2" d="M13.55,214.86a2.79,2.79,0,0,1-.39,1.45,2.88,2.88,0,0,1-1,1,2.78,2.78,0,0,1-1.44.39,2.72,2.72,0,0,1-1.43-.39,2.85,2.85,0,0,1-1-1,2.79,2.79,0,0,1-.39-1.45,2.83,2.83,0,0,1,.39-1.46,3.13,3.13,0,0,1,1-1.05,2.72,2.72,0,0,1,1.43-.39,2.78,2.78,0,0,1,1.44.39,3.16,3.16,0,0,1,1,1.05A2.83,2.83,0,0,1,13.55,214.86Z"/><path class="cls-2" d="M17.86,201A5.79,5.79,0,0,1,17,204.3a4.81,4.81,0,0,1-2.47,1.9,7.39,7.39,0,0,1-3.65.25A9.09,9.09,0,0,1,7.11,205a7.79,7.79,0,0,1-2.48-2.76,7.6,7.6,0,0,1-.89-3.64,6,6,0,0,1,.72-3.08,4.48,4.48,0,0,1,1.88-1.79,4.17,4.17,0,0,1,2.44-.38v3.88a2.68,2.68,0,0,0-1,.25,1.71,1.71,0,0,0-.71.62,2,2,0,0,0-.26,1.07,2.66,2.66,0,0,0,.37,1.34,3.17,3.17,0,0,0,1.22,1.15,6.87,6.87,0,0,0,2.34.73,6.49,6.49,0,0,0,2,0A2.42,2.42,0,0,0,14,202a1.84,1.84,0,0,0,.55-.82,3.25,3.25,0,0,0,.14-.91,2.25,2.25,0,0,0-.12-.74,2.5,2.5,0,0,0-.29-.64,3,3,0,0,0-.42-.5,1.91,1.91,0,0,0-.46-.32l-.5-.23v2.39l-2.49-.38,0-6.31,7.26,1.11V197l-1.52-.22c.23.26.48.58.75.94a5.1,5.1,0,0,1,.68,1.32A5.74,5.74,0,0,1,17.86,201Z"/><path class="cls-2" d="M17.67,193,3.93,186v-3.78l13.74-2.78v3.66l-2.66.5V188l2.66,1.34Zm-5.81-6.31V184l-4.39.67Z"/><path class="cls-2" d="M17.67,177.85l-13.74-2.1V172l13.74,2.09Z"/><path class="cls-2" d="M17.67,171.4l-13.74-2v-1.84c0-1,0-1.89.07-2.81a15.23,15.23,0,0,1,.35-2.55,6.23,6.23,0,0,1,.87-2.09,4,4,0,0,1,1.64-1.41,6.28,6.28,0,0,1,2.68-.5,9.49,9.49,0,0,1,1.49.13,10.6,10.6,0,0,1,1.76.45,8.1,8.1,0,0,1,1.78.91,6.68,6.68,0,0,1,1.57,1.49,7.26,7.26,0,0,1,1.11,2.19,9.81,9.81,0,0,1,.42,3Zm-2.91-4.18V166a3,3,0,0,0-.42-1.56,4.18,4.18,0,0,0-1.15-1.27,5.68,5.68,0,0,0-1.66-.86,6.44,6.44,0,0,0-2-.3,3.25,3.25,0,0,0-1.51.31,2.11,2.11,0,0,0-.91.89,3,3,0,0,0-.3,1.4V166Z"/><path class="cls-2" d="M2.56,156.66.3,156.31v-7.63l2.26.34Zm15.11.46L3.93,155V151.3l13.74,2.09Z"/><path class="cls-2" d="M2.78,144.09,0,146.31v-2.53l1.56-1.14L0,141.23v-2.67l2.78,3Zm15.08.9a8.7,8.7,0,0,1-.25,2.11,5.76,5.76,0,0,1-.79,1.84,3.59,3.59,0,0,1-1.35,1.25,3.49,3.49,0,0,1-2,.36V146.7a1.54,1.54,0,0,0,.83-.29,1.64,1.64,0,0,0,.52-.72,2.81,2.81,0,0,0,.19-1.1,5.75,5.75,0,0,0-.11-1.12,2.44,2.44,0,0,0-.39-.91,1.09,1.09,0,0,0-.76-.45.63.63,0,0,0-.64.24,2.17,2.17,0,0,0-.35.81c-.08.34-.16.7-.22,1.08l-.36,2.08a3.74,3.74,0,0,1-1.28,2.42,3.45,3.45,0,0,1-2.77.6,4.25,4.25,0,0,1-2.37-1.13,6.13,6.13,0,0,1-1.5-2.33,8.41,8.41,0,0,1-.52-3A6.51,6.51,0,0,1,4.37,140,4.68,4.68,0,0,1,6,138.13a3.49,3.49,0,0,1,2.11-.59v3.77a1.43,1.43,0,0,0-.86.18,1.31,1.31,0,0,0-.47.66,3.46,3.46,0,0,0-.15,1.09,3.34,3.34,0,0,0,.17,1.16,1.41,1.41,0,0,0,.42.65,1,1,0,0,0,.49.25.88.88,0,0,0,.76-.2A2.18,2.18,0,0,0,8.89,144l.36-2.08a5.64,5.64,0,0,1,.8-2.24,2.92,2.92,0,0,1,1.21-1.08,3.42,3.42,0,0,1,1.34-.3,7,7,0,0,1,1.17.06,3.73,3.73,0,0,1,2.1,1.11,6.49,6.49,0,0,1,1.46,2.38A9.22,9.22,0,0,1,17.86,145Z"/><path class="cls-2" d="M17.67,137.84l-13.74-7v-3.78l13.74-2.78V128l-2.66.49v4.36l2.66,1.34Zm-5.81-6.31v-2.72l-4.39.67Z"/><path class="cls-2" d="M17.67,122.71,3.93,120.59v-3.74l7.66-4.2-7.66-1.17v-3.73l13.74,2.12v3.35l-8.19,4.51L17.67,119Z"/><path class="cls-2" d="M17.67,108.12l-13.74-7V97.34l13.74-2.78v3.67l-2.66.5v4.35l2.66,1.34Zm-5.81-6.31V99.09l-4.39.67Z"/><path class="cls-2" d="M13.55,85.94a2.79,2.79,0,0,1-.39,1.45,3,3,0,0,1-1,1,2.78,2.78,0,0,1-1.44.39,2.72,2.72,0,0,1-1.43-.39,3,3,0,0,1-1-1,2.89,2.89,0,0,1,0-2.9,3,3,0,0,1,1-1,2.64,2.64,0,0,1,1.43-.4,2.7,2.7,0,0,1,1.44.4,3,3,0,0,1,1,1A2.76,2.76,0,0,1,13.55,85.94Z"/><path class="cls-2" d="M17.88,72.3a5.76,5.76,0,0,1-1,3.26,4.85,4.85,0,0,1-2.54,1.81,7.32,7.32,0,0,1-3.66.11A8.87,8.87,0,0,1,7,75.91,7.6,7.6,0,0,1,3.86,69.4a6,6,0,0,1,.84-3.05,4.27,4.27,0,0,1,1.94-1.72,4,4,0,0,1,2.44-.29l-.14,3.87a2.71,2.71,0,0,0-1,.21,1.65,1.65,0,0,0-.73.6,2,2,0,0,0-.3,1,2.69,2.69,0,0,0,.32,1.36A3.11,3.11,0,0,0,8.4,72.62a6.86,6.86,0,0,0,2.31.82,6.55,6.55,0,0,0,2,.12,2.36,2.36,0,0,0,1.2-.45,1.82,1.82,0,0,0,.58-.81,3.18,3.18,0,0,0,.17-.9A2.38,2.38,0,0,0,14.34,70a3.07,3.07,0,0,0-.39-.52,2,2,0,0,0-.46-.33L13,68.9l-.09,2.4-2.47-.48.26-6.3,7.22,1.37-.09,2.44-1.51-.28c.22.28.46.6.71,1a4.82,4.82,0,0,1,.63,1.35A5.62,5.62,0,0,1,17.88,72.3Z"/><path class="cls-2" d="M17.83,65.16,5.73,55.62l.73-3.71,14,0-.72,3.6-2.7,0-.85,4.27,2.35,1.83Zm-4.47-7.32.53-2.67L9.46,55Z"/><path class="cls-2" d="M20.9,51.05,8.53,44.73,9.7,41.19l12.38,6.32Z"/><path class="cls-2" d="M22.45,45.57,11,37.65l.29-.59L11.86,36c.43-.86.86-1.69,1.31-2.49a15.22,15.22,0,0,1,1.44-2.13,6.37,6.37,0,0,1,1.71-1.48,3.91,3.91,0,0,1,2.1-.53,6.06,6.06,0,0,1,2.62.74,9.58,9.58,0,0,1,1.28.78,9.16,9.16,0,0,1,1.37,1.18,8.16,8.16,0,0,1,1.2,1.6,7,7,0,0,1,.74,2,7.21,7.21,0,0,1,0,2.46,9.78,9.78,0,0,1-1,2.9Zm-.75-5,.55-1.11a3.09,3.09,0,0,0,.31-1.58,4.35,4.35,0,0,0-.46-1.65A6.12,6.12,0,0,0,21,34.69a6.56,6.56,0,0,0-1.63-1.15,3.48,3.48,0,0,0-1.49-.39,2.06,2.06,0,0,0-1.21.4,3.05,3.05,0,0,0-.89,1.11l-.63,1.28Z"/><path class="cls-2" d="M16.71,24.52l-1.63-1.61,4.48-6.18,1.63,1.6Zm12,9.23L18.78,24,21,21l9.89,9.75Z"/><path class="cls-2" d="M26.36,13.71l-3.52-.57,1.87-1.7,1.9.39V9.73l2-1.79L28.25,12Zm9.46,11.77a8.59,8.59,0,0,1-1.74,1.23,5.8,5.8,0,0,1-1.88.66,3.69,3.69,0,0,1-1.84-.17A3.52,3.52,0,0,1,28.76,26l2.86-2.59a1.44,1.44,0,0,0,.77.42,1.7,1.7,0,0,0,.88-.09,3,3,0,0,0,.94-.61,5,5,0,0,0,.76-.84,2.3,2.3,0,0,0,.41-.89,1.11,1.11,0,0,0-.18-.86.63.63,0,0,0-.6-.32,2.3,2.3,0,0,0-.84.28c-.31.17-.62.36-.95.57L31,22.18a3.7,3.7,0,0,1-2.65.68,3.49,3.49,0,0,1-2.31-1.65,4.23,4.23,0,0,1-.75-2.51A6,6,0,0,1,26,16a8.41,8.41,0,0,1,1.85-2.39,6.42,6.42,0,0,1,2.57-1.5,4.66,4.66,0,0,1,2.45-.06,3.57,3.57,0,0,1,1.87,1.17L32,15.77a1.44,1.44,0,0,0-.71-.51,1.29,1.29,0,0,0-.81.09,3.66,3.66,0,0,0-.91.63,3.3,3.3,0,0,0-.74.9,1.45,1.45,0,0,0-.2.74,1.08,1.08,0,0,0,.15.54.86.86,0,0,0,.65.42,2.16,2.16,0,0,0,1.14-.43L32.34,17a5.69,5.69,0,0,1,2.19-.92,2.89,2.89,0,0,1,1.61.17,3.33,3.33,0,0,1,1.13.79A6.93,6.93,0,0,1,38,18a3.6,3.6,0,0,1,.59,2.29A6.38,6.38,0,0,1,37.82,23,9.22,9.22,0,0,1,35.82,25.48Z"/><path class="cls-2" d="M39,21.23,41.21,6l3.58-1.22,7.07,12.11L48.39,18l-1.33-2.36-4.12,1.41L42.53,20Zm4.1-7.54,2.58-.88L43.64,8.88Z"/><path class="cls-2" d="M51.82,17.67,53.94,3.93h3.74l4.2,7.66L63,3.93h3.73L64.65,17.67H61.3L56.8,9.48l-1.25,8.19Z"/><path class="cls-2" d="M66.4,17.67l7-13.74h3.78L80,17.67H76.3L75.8,15H71.44L70.1,17.67Zm6.31-5.81h2.72l-.67-4.39Z"/><path class="cls-2" d="M88.58,13.55a2.76,2.76,0,0,1-1.45-.39,3,3,0,0,1-1-1,2.78,2.78,0,0,1-.39-1.44,2.72,2.72,0,0,1,.39-1.43,3,3,0,0,1,1-1,2.89,2.89,0,0,1,2.9,0,3,3,0,0,1,1,1,2.73,2.73,0,0,1,.4,1.43,2.79,2.79,0,0,1-.4,1.44,3,3,0,0,1-1,1A2.79,2.79,0,0,1,88.58,13.55Z"/><path class="cls-2" d="M102.46,17.86a5.85,5.85,0,0,1-3.3-.89,4.92,4.92,0,0,1-1.9-2.47A7.28,7.28,0,0,1,97,10.85a8.82,8.82,0,0,1,1.44-3.74,7.65,7.65,0,0,1,6.4-3.37,6,6,0,0,1,3.07.72,4.42,4.42,0,0,1,1.79,1.88,4.1,4.1,0,0,1,.38,2.44h-3.87a2.88,2.88,0,0,0-.25-1,1.66,1.66,0,0,0-.63-.71,2,2,0,0,0-1.06-.26,2.63,2.63,0,0,0-1.34.37,3.1,3.1,0,0,0-1.15,1.22,6.66,6.66,0,0,0-.73,2.34,6.55,6.55,0,0,0-.06,2,2.52,2.52,0,0,0,.5,1.19,1.86,1.86,0,0,0,.83.55,3.23,3.23,0,0,0,.9.14,2.61,2.61,0,0,0,.75-.11,3.41,3.41,0,0,0,.64-.3,2.92,2.92,0,0,0,.49-.42,1.67,1.67,0,0,0,.32-.46l.24-.5h-2.4l.39-2.49,6.31,0-1.12,7.26h-2.43l.22-1.52c-.27.23-.58.48-1,.75a5.1,5.1,0,0,1-1.32.68A5.64,5.64,0,0,1,102.46,17.86Z"/><path class="cls-2" d="M110.44,17.67l7-13.74h3.78L124,17.67h-3.66l-.5-2.66h-4.35l-1.35,2.66Zm6.31-5.81h2.73l-.67-4.39Z"/><path class="cls-2" d="M125.59,17.67l2.1-13.74h3.72l-2.09,13.74Z"/><path class="cls-2" d="M132.07,17.67l2-13.74h1.84c1,0,1.9,0,2.81.07a15.21,15.21,0,0,1,2.56.35,6.18,6.18,0,0,1,2.08.87,3.91,3.91,0,0,1,1.41,1.64,6.17,6.17,0,0,1,.5,2.68,9.49,9.49,0,0,1-.13,1.49,8.94,8.94,0,0,1-.45,1.76,7.64,7.64,0,0,1-.9,1.78,6.89,6.89,0,0,1-1.49,1.57,7.44,7.44,0,0,1-2.2,1.11,9.72,9.72,0,0,1-3,.42Zm4.17-2.91h1.24a3.1,3.1,0,0,0,1.56-.42,4.3,4.3,0,0,0,1.27-1.15,5.66,5.66,0,0,0,.85-1.66,6.45,6.45,0,0,0,.31-2,3.38,3.38,0,0,0-.31-1.51,2.14,2.14,0,0,0-.9-.91,3,3,0,0,0-1.39-.3h-1.42Z"/><path class="cls-2" d="M146.33,17.67l2.1-13.74h3.72l-2.09,13.74Zm.46-15.11L147.13.3h7.63l-.34,2.26Z"/><path class="cls-2" d="M158.46,17.86a8.85,8.85,0,0,1-2.12-.25,5.7,5.7,0,0,1-1.83-.79,3.59,3.59,0,0,1-1.25-1.35,3.49,3.49,0,0,1-.36-2h3.85a1.54,1.54,0,0,0,.29.83,1.64,1.64,0,0,0,.72.52,2.78,2.78,0,0,0,1.1.19,5.83,5.83,0,0,0,1.12-.11,2.44,2.44,0,0,0,.91-.39,1.13,1.13,0,0,0,.45-.76.63.63,0,0,0-.24-.64,2.17,2.17,0,0,0-.81-.35c-.34-.08-.7-.16-1.08-.22l-2.09-.36a3.77,3.77,0,0,1-2.42-1.28,3.52,3.52,0,0,1-.6-2.77,4.33,4.33,0,0,1,1.14-2.37,5.94,5.94,0,0,1,2.33-1.5,8.37,8.37,0,0,1,3-.52,6.51,6.51,0,0,1,2.91.61A4.68,4.68,0,0,1,165.32,6a3.56,3.56,0,0,1,.59,2.11h-3.77a1.36,1.36,0,0,0-.19-.86,1.24,1.24,0,0,0-.65-.47,3.48,3.48,0,0,0-1.1-.15,3.38,3.38,0,0,0-1.16.17,1.43,1.43,0,0,0-.64.42,1,1,0,0,0-.25.49.88.88,0,0,0,.2.76,2.14,2.14,0,0,0,1.13.44l2.09.36a5.7,5.7,0,0,1,2.24.8,2.82,2.82,0,0,1,1.07,1.21,3.44,3.44,0,0,1,.31,1.34,6.94,6.94,0,0,1-.07,1.17,3.66,3.66,0,0,1-1.1,2.1,6.49,6.49,0,0,1-2.38,1.46A9.22,9.22,0,0,1,158.46,17.86Zm.9-15.08L157.13,0h2.54l1.14,1.56L162.22,0h2.66l-3,2.78Z"/><path class="cls-2" d="M165.6,17.67l7-13.74h3.78l2.78,13.74h-3.67L175,15h-4.36l-1.34,2.66Zm6.31-5.81h2.72L174,7.47Z"/><path class="cls-2" d="M180.75,17.67l2.12-13.74h3.74l4.2,7.66L192,3.93h3.73l-2.12,13.74h-3.35l-4.5-8.19-1.25,8.19Z"/><path class="cls-2" d="M195.33,17.67l7-13.74h3.78l2.78,13.74h-3.67l-.5-2.66h-4.35L199,17.67Zm6.31-5.81h2.72l-.67-4.39Z"/><path class="cls-2" d="M217.51,13.55a2.76,2.76,0,0,1-1.45-.39,3,3,0,0,1-1.05-1,2.78,2.78,0,0,1-.39-1.44A2.72,2.72,0,0,1,215,9.25a3,3,0,0,1,1.05-1,2.89,2.89,0,0,1,2.9,0,3,3,0,0,1,1,1,2.72,2.72,0,0,1,.39,1.43,2.78,2.78,0,0,1-.39,1.44,3,3,0,0,1-1,1A2.79,2.79,0,0,1,217.51,13.55Z"/><path class="cls-2" d="M231.37,17.86a5.85,5.85,0,0,1-3.3-.89,4.87,4.87,0,0,1-1.9-2.47,7.28,7.28,0,0,1-.24-3.65,8.82,8.82,0,0,1,1.44-3.74,7.65,7.65,0,0,1,6.39-3.37,6,6,0,0,1,3.08.72,4.42,4.42,0,0,1,1.79,1.88A4.1,4.1,0,0,1,239,8.78h-3.87a2.88,2.88,0,0,0-.25-1,1.66,1.66,0,0,0-.63-.71,2,2,0,0,0-1.06-.26,2.63,2.63,0,0,0-1.34.37,3.1,3.1,0,0,0-1.15,1.22,6.66,6.66,0,0,0-.73,2.34,6.55,6.55,0,0,0-.06,2,2.52,2.52,0,0,0,.5,1.19,1.86,1.86,0,0,0,.83.55,3.23,3.23,0,0,0,.9.14,2.61,2.61,0,0,0,.75-.11,3.05,3.05,0,0,0,.63-.3,2.64,2.64,0,0,0,.5-.42,1.67,1.67,0,0,0,.32-.46l.24-.5h-2.4l.39-2.49,6.31,0-1.12,7.26h-2.43l.22-1.52c-.27.23-.59.48-.95.75a5.1,5.1,0,0,1-1.32.68A5.64,5.64,0,0,1,231.37,17.86Z"/><path class="cls-2" d="M239.37,17.67l7-13.74h3.78l2.78,13.74h-3.66l-.5-2.66h-4.35l-1.34,2.66Zm6.31-5.81h2.73l-.67-4.39Z"/><path class="cls-2" d="M254.5,17.67l2.1-13.74h3.72l-2.09,13.74Z"/><path class="cls-2" d="M261,17.67l2-13.74h1.84c1,0,1.89,0,2.81.07a15.23,15.23,0,0,1,2.55.35,6.23,6.23,0,0,1,2.09.87,3.89,3.89,0,0,1,1.4,1.64,6.16,6.16,0,0,1,.51,2.68,9.49,9.49,0,0,1-.13,1.49,10.6,10.6,0,0,1-.45,1.76,8.1,8.1,0,0,1-.91,1.78,6.89,6.89,0,0,1-1.49,1.57A7.26,7.26,0,0,1,269,17.25a9.81,9.81,0,0,1-3,.42Zm4.18-2.91h1.23a3,3,0,0,0,1.56-.42,4.18,4.18,0,0,0,1.27-1.15,5.43,5.43,0,0,0,.85-1.66,6.16,6.16,0,0,0,.31-2,3.25,3.25,0,0,0-.31-1.51,2.17,2.17,0,0,0-.89-.91,3,3,0,0,0-1.4-.3h-1.42Z"/><path class="cls-2" d="M275.26,17.67l2.1-13.74h3.72L279,17.67Zm.46-15.11L276.06.3h7.64l-.35,2.26Z"/><path class="cls-2" d="M287.38,17.86a8.79,8.79,0,0,1-2.12-.25,5.61,5.61,0,0,1-1.83-.79,3.7,3.7,0,0,1-1.26-1.35,3.67,3.67,0,0,1-.36-2h3.86a1.46,1.46,0,0,0,.29.83,1.64,1.64,0,0,0,.72.52,2.78,2.78,0,0,0,1.1.19,5.83,5.83,0,0,0,1.12-.11,2.44,2.44,0,0,0,.91-.39,1.12,1.12,0,0,0,.44-.76.61.61,0,0,0-.23-.64,2.17,2.17,0,0,0-.81-.35c-.34-.08-.7-.16-1.09-.22L286,12.2a3.77,3.77,0,0,1-2.42-1.28,3.52,3.52,0,0,1-.6-2.77,4.33,4.33,0,0,1,1.14-2.37,5.94,5.94,0,0,1,2.33-1.5,8.37,8.37,0,0,1,3-.52,6.51,6.51,0,0,1,2.91.61A4.59,4.59,0,0,1,294.23,6a3.5,3.5,0,0,1,.6,2.11h-3.77a1.36,1.36,0,0,0-.19-.86,1.24,1.24,0,0,0-.65-.47,3.48,3.48,0,0,0-1.1-.15,3.38,3.38,0,0,0-1.16.17,1.53,1.53,0,0,0-.65.42,1.12,1.12,0,0,0-.24.49.85.85,0,0,0,.2.76,2.14,2.14,0,0,0,1.13.44l2.08.36a5.69,5.69,0,0,1,2.25.8,2.89,2.89,0,0,1,1.07,1.21,3.44,3.44,0,0,1,.31,1.34,6.94,6.94,0,0,1-.07,1.17,3.66,3.66,0,0,1-1.1,2.1,6.49,6.49,0,0,1-2.38,1.46A9.26,9.26,0,0,1,287.38,17.86Zm.9-15.08L286.05,0h2.54l1.14,1.56L291.14,0h2.66l-3,2.78Z"/><path class="cls-2" d="M294.53,17.67l7-13.74h3.78l2.78,13.74h-3.67l-.5-2.66h-4.35l-1.34,2.66Zm6.31-5.81h2.72l-.67-4.39Z"/><path class="cls-2" d="M309.68,17.67,311.8,3.93h3.74l4.2,7.66,1.16-7.66h3.73l-2.12,13.74h-3.35l-4.51-8.19-1.24,8.19Z"/><path class="cls-2" d="M324.24,17.67l7-13.74H335l2.78,13.74h-3.67L333.64,15h-4.36l-1.34,2.66Zm6.31-5.81h2.72l-.67-4.39Z"/><path class="cls-2" d="M346.43,13.55a2.83,2.83,0,0,1-1.46-.39,3,3,0,0,1-1-1,2.78,2.78,0,0,1-.39-1.44,2.72,2.72,0,0,1,.39-1.43,3,3,0,0,1,1-1,2.83,2.83,0,0,1,1.46-.39,2.79,2.79,0,0,1,1.45.39,3,3,0,0,1,1.05,1,2.72,2.72,0,0,1,.39,1.43,2.78,2.78,0,0,1-.39,1.44,3,3,0,0,1-1.05,1A2.79,2.79,0,0,1,346.43,13.55Z"/><path class="cls-2" d="M360.3,17.86A5.79,5.79,0,0,1,357,17a4.81,4.81,0,0,1-1.9-2.47,7.39,7.39,0,0,1-.25-3.65,9.09,9.09,0,0,1,1.44-3.74,7.79,7.79,0,0,1,2.76-2.48,7.6,7.6,0,0,1,3.64-.89,6,6,0,0,1,3.08.72,4.48,4.48,0,0,1,1.79,1.88A4.17,4.17,0,0,1,368,8.78h-3.88a2.68,2.68,0,0,0-.25-1,1.71,1.71,0,0,0-.62-.71,2,2,0,0,0-1.07-.26,2.66,2.66,0,0,0-1.34.37,3.17,3.17,0,0,0-1.15,1.22,7.1,7.1,0,0,0-.73,2.34,6.49,6.49,0,0,0-.05,2,2.42,2.42,0,0,0,.5,1.19,1.84,1.84,0,0,0,.82.55,3.25,3.25,0,0,0,.91.14,2.55,2.55,0,0,0,.74-.11,2.91,2.91,0,0,0,.64-.3,3,3,0,0,0,.5-.42,1.62,1.62,0,0,0,.31-.46l.24-.5h-2.39l.38-2.49,6.31,0-1.11,7.26h-2.44l.22-1.52c-.27.23-.58.48-.94.75a5.1,5.1,0,0,1-1.32.68A5.74,5.74,0,0,1,360.3,17.86Z"/><path class="cls-2" d="M368.3,17.67l7-13.74h3.78l2.78,13.74h-3.67L377.7,15h-4.36L372,17.67Zm6.31-5.81h2.72l-.67-4.39Z"/><path class="cls-2" d="M383.43,17.67l2.1-13.74h3.72l-2.09,13.74Z"/><path class="cls-2" d="M389.89,17.67l2-13.74h1.84c1,0,1.89,0,2.81.07a15.23,15.23,0,0,1,2.55.35,6.23,6.23,0,0,1,2.09.87,3.89,3.89,0,0,1,1.4,1.64,6.16,6.16,0,0,1,.51,2.68A10.86,10.86,0,0,1,403,11a10.6,10.6,0,0,1-.45,1.76,8.1,8.1,0,0,1-.91,1.78,6.89,6.89,0,0,1-1.49,1.57A7.38,7.38,0,0,1,398,17.25a9.81,9.81,0,0,1-3,.42Zm4.17-2.91h1.24a3,3,0,0,0,1.56-.42,4.18,4.18,0,0,0,1.27-1.15,5.66,5.66,0,0,0,.85-1.66,6.16,6.16,0,0,0,.31-2A3.25,3.25,0,0,0,399,8.05a2.17,2.17,0,0,0-.89-.91,3,3,0,0,0-1.4-.3h-1.42Z"/><path class="cls-2" d="M404.18,17.67l2.1-13.74H410l-2.09,13.74Zm.46-15.11L405,.3h7.63l-.34,2.26Z"/><path class="cls-2" d="M416.3,17.86a8.7,8.7,0,0,1-2.11-.25,5.76,5.76,0,0,1-1.84-.79,3.67,3.67,0,0,1-1.25-1.35,3.49,3.49,0,0,1-.36-2h3.85a1.54,1.54,0,0,0,.29.83,1.64,1.64,0,0,0,.72.52,2.81,2.81,0,0,0,1.1.19,5.93,5.93,0,0,0,1.13-.11,2.39,2.39,0,0,0,.9-.39,1.09,1.09,0,0,0,.45-.76.63.63,0,0,0-.24-.64,2.17,2.17,0,0,0-.81-.35c-.34-.08-.7-.16-1.08-.22L415,12.2a3.74,3.74,0,0,1-2.42-1.28,3.45,3.45,0,0,1-.6-2.77,4.25,4.25,0,0,1,1.13-2.37,6,6,0,0,1,2.33-1.5,8.41,8.41,0,0,1,3-.52,6.51,6.51,0,0,1,2.91.61A4.68,4.68,0,0,1,423.16,6a3.49,3.49,0,0,1,.59,2.11H420a1.43,1.43,0,0,0-.18-.86,1.31,1.31,0,0,0-.66-.47,3.41,3.41,0,0,0-1.09-.15,3.34,3.34,0,0,0-1.16.17,1.47,1.47,0,0,0-.65.42,1,1,0,0,0-.25.49.88.88,0,0,0,.2.76,2.18,2.18,0,0,0,1.14.44l2.08.36a5.64,5.64,0,0,1,2.24.8,2.92,2.92,0,0,1,1.08,1.21,3.42,3.42,0,0,1,.3,1.34,7,7,0,0,1-.06,1.17,3.73,3.73,0,0,1-1.11,2.1,6.49,6.49,0,0,1-2.38,1.46A9.22,9.22,0,0,1,416.3,17.86Zm.9-15.08L415,0h2.53l1.14,1.56L420.06,0h2.67l-3,2.78Z"/><path class="cls-2" d="M423.44,17.67l7-13.74h3.77L437,17.67h-3.67l-.5-2.66h-4.35l-1.34,2.66Zm6.32-5.81h2.72l-.67-4.39Z"/><path class="cls-2" d="M438.58,17.67,440.7,3.93h3.74l4.2,7.66,1.16-7.66h3.73l-2.12,13.74h-3.35l-4.5-8.19-1.25,8.19Z"/><path class="cls-2" d="M453.17,17.67l7-13.74H464l2.78,13.74h-3.66l-.5-2.66h-4.35l-1.34,2.66Zm6.31-5.81h2.73l-.67-4.39Z"/><path class="cls-2" d="M475.34,13.55a2.79,2.79,0,0,1-1.45-.39,3,3,0,0,1-1.05-1,2.87,2.87,0,0,1-.38-1.44,2.81,2.81,0,0,1,.38-1.43,3,3,0,0,1,1.05-1,2.79,2.79,0,0,1,1.45-.39,2.83,2.83,0,0,1,1.46.39,3.13,3.13,0,0,1,1.05,1,2.72,2.72,0,0,1,.39,1.43,2.78,2.78,0,0,1-.39,1.44,3.16,3.16,0,0,1-1.05,1A2.83,2.83,0,0,1,475.34,13.55Z"/><path class="cls-2" d="M489.21,17.86a5.81,5.81,0,0,1-3.29-.89A4.81,4.81,0,0,1,484,14.5a7.28,7.28,0,0,1-.24-3.65,8.82,8.82,0,0,1,1.44-3.74,7.62,7.62,0,0,1,6.39-3.37,6,6,0,0,1,3.08.72,4.42,4.42,0,0,1,1.79,1.88,4.17,4.17,0,0,1,.38,2.44H493a2.51,2.51,0,0,0-.25-1,1.64,1.64,0,0,0-.62-.71,2,2,0,0,0-1.06-.26,2.7,2.7,0,0,0-1.35.37,3.25,3.25,0,0,0-1.15,1.22,7.1,7.1,0,0,0-.73,2.34,6.81,6.81,0,0,0-.05,2,2.42,2.42,0,0,0,.5,1.19,1.84,1.84,0,0,0,.82.55,3.3,3.3,0,0,0,.91.14,2.55,2.55,0,0,0,.74-.11,2.91,2.91,0,0,0,.64-.3,3,3,0,0,0,.5-.42,1.67,1.67,0,0,0,.32-.46l.24-.5H490l.38-2.49,6.31,0-1.11,7.26h-2.43l.22-1.52c-.27.23-.59.48-1,.75a5.1,5.1,0,0,1-1.32.68A5.66,5.66,0,0,1,489.21,17.86Z"/><path class="cls-2" d="M497.2,17.67l7-13.74H508l2.78,13.74H507.1L506.6,15h-4.35l-1.35,2.66Zm6.31-5.81h2.73l-.67-4.39Z"/><path class="cls-2" d="M512.37,17.67l2.1-13.74h3.72L516.1,17.67Z"/><path class="cls-2" d="M518.82,17.67l2-13.74h1.85c.95,0,1.89,0,2.8.07a15.21,15.21,0,0,1,2.56.35,6.23,6.23,0,0,1,2.09.87,3.89,3.89,0,0,1,1.4,1.64,6.16,6.16,0,0,1,.51,2.68,10.86,10.86,0,0,1-.13,1.49,10.6,10.6,0,0,1-.45,1.76,8.1,8.1,0,0,1-.91,1.78,6.89,6.89,0,0,1-1.49,1.57,7.51,7.51,0,0,1-2.19,1.11,9.81,9.81,0,0,1-3,.42ZM523,14.76h1.24a3.07,3.07,0,0,0,1.56-.42,4.3,4.3,0,0,0,1.27-1.15,5.66,5.66,0,0,0,.85-1.66,6.16,6.16,0,0,0,.31-2,3.38,3.38,0,0,0-.31-1.51,2.17,2.17,0,0,0-.89-.91,3,3,0,0,0-1.4-.3H524.2Z"/><path class="cls-2" d="M533.09,17.67,535.2,3.93h3.72l-2.09,13.74Zm.47-15.11L533.9.3h7.63l-.34,2.26Z"/><path class="cls-2" d="M545.21,17.86a8.7,8.7,0,0,1-2.11-.25,5.76,5.76,0,0,1-1.84-.79A3.67,3.67,0,0,1,540,15.47a3.49,3.49,0,0,1-.36-2h3.85a1.54,1.54,0,0,0,.29.83,1.7,1.7,0,0,0,.72.52,2.85,2.85,0,0,0,1.1.19,5.93,5.93,0,0,0,1.13-.11,2.39,2.39,0,0,0,.9-.39,1.09,1.09,0,0,0,.45-.76.62.62,0,0,0-.24-.64,2.17,2.17,0,0,0-.81-.35c-.34-.08-.7-.16-1.08-.22l-2.08-.36a3.74,3.74,0,0,1-2.42-1.28,3.45,3.45,0,0,1-.6-2.77A4.25,4.25,0,0,1,542,5.78a6,6,0,0,1,2.33-1.5,8.45,8.45,0,0,1,3-.52,6.51,6.51,0,0,1,2.91.61A4.68,4.68,0,0,1,552.07,6a3.43,3.43,0,0,1,.59,2.11h-3.77a1.43,1.43,0,0,0-.18-.86,1.31,1.31,0,0,0-.66-.47A3.41,3.41,0,0,0,547,6.61a3.34,3.34,0,0,0-1.16.17,1.47,1.47,0,0,0-.65.42.94.94,0,0,0-.24.49.88.88,0,0,0,.19.76,2.22,2.22,0,0,0,1.14.44l2.08.36a5.58,5.58,0,0,1,2.24.8,2.92,2.92,0,0,1,1.08,1.21,3.26,3.26,0,0,1,.3,1.34,7,7,0,0,1-.06,1.17,3.73,3.73,0,0,1-1.11,2.1,6.53,6.53,0,0,1-2.37,1.46A9.32,9.32,0,0,1,545.21,17.86Zm.9-15.08L543.89,0h2.53l1.14,1.56L549,0h2.67l-3,2.78Z"/><path class="cls-2" d="M552.36,17.67l7-13.74h3.77l2.79,13.74h-3.67l-.5-2.66h-4.35l-1.34,2.66Zm6.32-5.81h2.72l-.67-4.39Z"/><path class="cls-2" d="M567.51,17.67l2.11-13.74h3.75l4.2,7.66,1.16-7.66h3.73l-2.12,13.74H577l-4.51-8.19-1.24,8.19Z"/><path class="cls-2" d="M582.08,17.67l7-13.74h3.78l2.78,13.74H592l-.5-2.66h-4.36l-1.34,2.66Zm6.31-5.81h2.72l-.67-4.39Z"/><path class="cls-2" d="M604.28,13.55a2.76,2.76,0,0,1-1.45-.39,3,3,0,0,1-1.05-1,2.78,2.78,0,0,1-.39-1.44,2.72,2.72,0,0,1,.39-1.43,3,3,0,0,1,1.05-1,2.89,2.89,0,0,1,2.9,0,3,3,0,0,1,1,1,2.73,2.73,0,0,1,.4,1.43,2.79,2.79,0,0,1-.4,1.44,3,3,0,0,1-1,1A2.79,2.79,0,0,1,604.28,13.55Z"/><path class="cls-2" d="M618.14,17.86a5.79,5.79,0,0,1-3.29-.89A4.81,4.81,0,0,1,613,14.5a7.39,7.39,0,0,1-.25-3.65,9.09,9.09,0,0,1,1.44-3.74,7.79,7.79,0,0,1,2.76-2.48,7.6,7.6,0,0,1,3.64-.89,6,6,0,0,1,3.08.72,4.48,4.48,0,0,1,1.79,1.88,4.09,4.09,0,0,1,.37,2.44h-3.87a2.88,2.88,0,0,0-.25-1,1.71,1.71,0,0,0-.62-.71A2,2,0,0,0,620,6.8a2.63,2.63,0,0,0-1.34.37,3.17,3.17,0,0,0-1.15,1.22,6.87,6.87,0,0,0-.73,2.34,6.21,6.21,0,0,0,0,2,2.42,2.42,0,0,0,.5,1.19,1.84,1.84,0,0,0,.82.55,3.25,3.25,0,0,0,.91.14,2.55,2.55,0,0,0,.74-.11,3.14,3.14,0,0,0,.64-.3,3,3,0,0,0,.5-.42,1.62,1.62,0,0,0,.31-.46l.24-.5H619l.38-2.49,6.31,0-1.11,7.26h-2.44l.22-1.52c-.27.23-.58.48-.94.75a5.18,5.18,0,0,1-1.33.68A5.64,5.64,0,0,1,618.14,17.86Z"/><path class="cls-2" d="M626.14,17.67l7-13.74h3.78l2.78,13.74H636l-.5-2.66h-4.35l-1.34,2.66Zm6.31-5.81h2.72l-.67-4.39Z"/><path class="cls-2" d="M641.28,17.67l2.1-13.74h3.72L645,17.67Z"/><path class="cls-2" d="M647.75,17.67l2-13.74h1.84c1,0,1.89,0,2.81.07a15.23,15.23,0,0,1,2.55.35,6.23,6.23,0,0,1,2.09.87,3.89,3.89,0,0,1,1.4,1.64A6.16,6.16,0,0,1,661,9.54a9.49,9.49,0,0,1-.13,1.49,10.6,10.6,0,0,1-.45,1.76,8.1,8.1,0,0,1-.91,1.78A6.89,6.89,0,0,1,658,16.14a7.26,7.26,0,0,1-2.19,1.11,9.81,9.81,0,0,1-3,.42Zm4.18-2.91h1.23a3,3,0,0,0,1.56-.42A4.18,4.18,0,0,0,656,13.19a5.43,5.43,0,0,0,.85-1.66,6.16,6.16,0,0,0,.31-2,3.25,3.25,0,0,0-.31-1.51,2.17,2.17,0,0,0-.89-.91,3,3,0,0,0-1.4-.3h-1.42Z"/><path class="cls-2" d="M662,17.67l2.1-13.74h3.73l-2.1,13.74Zm.46-15.11L662.81.3h7.63l-.34,2.26Z"/><path class="cls-2" d="M674.16,17.86a8.79,8.79,0,0,1-2.12-.25,5.76,5.76,0,0,1-1.84-.79A3.76,3.76,0,0,1,669,15.47a3.67,3.67,0,0,1-.36-2h3.86a1.46,1.46,0,0,0,.29.83,1.64,1.64,0,0,0,.72.52,2.78,2.78,0,0,0,1.1.19,5.83,5.83,0,0,0,1.12-.11,2.44,2.44,0,0,0,.91-.39,1.12,1.12,0,0,0,.44-.76.61.61,0,0,0-.23-.64,2.17,2.17,0,0,0-.81-.35c-.34-.08-.7-.16-1.09-.22l-2.08-.36a3.74,3.74,0,0,1-2.42-1.28,3.52,3.52,0,0,1-.6-2.77,4.26,4.26,0,0,1,1.14-2.37,5.94,5.94,0,0,1,2.33-1.5,8.37,8.37,0,0,1,3-.52,6.51,6.51,0,0,1,2.91.61A4.65,4.65,0,0,1,681,6a3.5,3.5,0,0,1,.6,2.11h-3.77a1.36,1.36,0,0,0-.19-.86,1.23,1.23,0,0,0-.66-.47,4,4,0,0,0-2.25,0,1.53,1.53,0,0,0-.65.42,1,1,0,0,0-.24.49.85.85,0,0,0,.2.76,2.14,2.14,0,0,0,1.13.44l2.08.36a5.69,5.69,0,0,1,2.25.8,2.89,2.89,0,0,1,1.07,1.21,3.44,3.44,0,0,1,.31,1.34,8.17,8.17,0,0,1-.07,1.17,3.66,3.66,0,0,1-1.1,2.1,6.57,6.57,0,0,1-2.38,1.46A9.31,9.31,0,0,1,674.16,17.86Zm.9-15.08L672.83,0h2.53l1.15,1.56L677.92,0h2.66l-3,2.78Z"/><path class="cls-2" d="M681.28,17.67l7-13.74h3.78l2.78,13.74h-3.66l-.5-2.66h-4.35L685,17.67Zm6.31-5.81h2.73l-.68-4.39Z"/><path class="cls-2" d="M696.44,17.67l2.12-13.74h3.74l4.2,7.66,1.16-7.66h3.73l-2.12,13.74h-3.35l-4.51-8.19-1.24,8.19Z"/><path class="cls-2" d="M711,17.67l7-13.74h3.77l2.79,13.74h-3.67l-.5-2.66h-4.35l-1.34,2.66Zm6.32-5.81h2.72l-.67-4.39Z"/><path class="cls-2" d="M733.22,13.55a2.76,2.76,0,0,1-1.45-.39,3,3,0,0,1-1-1,2.78,2.78,0,0,1-.39-1.44,2.72,2.72,0,0,1,.39-1.43,3,3,0,0,1,1-1,2.89,2.89,0,0,1,2.9,0,3,3,0,0,1,1.05,1,2.72,2.72,0,0,1,.39,1.43,2.78,2.78,0,0,1-.39,1.44,3,3,0,0,1-1.05,1A2.79,2.79,0,0,1,733.22,13.55Z"/><path class="cls-2" d="M747.06,17.86a5.85,5.85,0,0,1-3.3-.89,4.87,4.87,0,0,1-1.9-2.47,7.28,7.28,0,0,1-.24-3.65,8.82,8.82,0,0,1,1.44-3.74,7.62,7.62,0,0,1,6.39-3.37,6,6,0,0,1,3.08.72,4.42,4.42,0,0,1,1.79,1.88,4.1,4.1,0,0,1,.38,2.44h-3.87a2.88,2.88,0,0,0-.25-1,1.66,1.66,0,0,0-.63-.71,2,2,0,0,0-1.06-.26,2.63,2.63,0,0,0-1.34.37,3.19,3.19,0,0,0-1.16,1.22,6.88,6.88,0,0,0-.72,2.34,6.55,6.55,0,0,0-.06,2,2.52,2.52,0,0,0,.5,1.19,1.86,1.86,0,0,0,.83.55,3.23,3.23,0,0,0,.9.14,2.61,2.61,0,0,0,.75-.11,3.05,3.05,0,0,0,.63-.3,2.64,2.64,0,0,0,.5-.42,1.67,1.67,0,0,0,.32-.46l.24-.5h-2.4l.38-2.49,6.32,0-1.12,7.26H751l.22-1.52c-.27.23-.59.48-1,.75a5.1,5.1,0,0,1-1.32.68A5.64,5.64,0,0,1,747.06,17.86Z"/><path class="cls-2" d="M755.07,17.67l7-13.74h3.78l2.78,13.74H765l-.5-2.66h-4.36l-1.34,2.66Zm6.31-5.81h2.72l-.67-4.39Z"/><path class="cls-2" d="M770.22,17.67l2.1-13.74H776L774,17.67Z"/><path class="cls-2" d="M776.66,17.67l2-13.74h1.84c1,0,1.89,0,2.81.07a15.23,15.23,0,0,1,2.55.35,6.23,6.23,0,0,1,2.09.87,3.89,3.89,0,0,1,1.4,1.64,6.16,6.16,0,0,1,.51,2.68,10.86,10.86,0,0,1-.13,1.49,10.6,10.6,0,0,1-.45,1.76,8.1,8.1,0,0,1-.91,1.78,6.89,6.89,0,0,1-1.49,1.57,7.26,7.26,0,0,1-2.19,1.11,9.81,9.81,0,0,1-3,.42Zm4.17-2.91h1.24a3,3,0,0,0,1.56-.42,4.18,4.18,0,0,0,1.27-1.15,5.43,5.43,0,0,0,.85-1.66,6.16,6.16,0,0,0,.31-2,3.25,3.25,0,0,0-.31-1.51,2.17,2.17,0,0,0-.89-.91,3,3,0,0,0-1.4-.3H782Z"/><path class="cls-2" d="M791,17.67l2.1-13.74h3.72l-2.09,13.74Zm.46-15.11L791.75.3h7.64L799,2.56Z"/><path class="cls-2" d="M803.08,17.86a8.76,8.76,0,0,1-2.11-.25,5.76,5.76,0,0,1-1.84-.79,3.76,3.76,0,0,1-1.25-1.35,3.49,3.49,0,0,1-.36-2h3.86a1.46,1.46,0,0,0,.29.83,1.67,1.67,0,0,0,.71.52,2.87,2.87,0,0,0,1.11.19,5.83,5.83,0,0,0,1.12-.11,2.44,2.44,0,0,0,.91-.39,1.12,1.12,0,0,0,.44-.76.61.61,0,0,0-.23-.64,2.17,2.17,0,0,0-.81-.35c-.34-.08-.7-.16-1.09-.22l-2.08-.36a3.74,3.74,0,0,1-2.42-1.28,3.52,3.52,0,0,1-.6-2.77,4.2,4.2,0,0,1,1.14-2.37,5.94,5.94,0,0,1,2.33-1.5,8.37,8.37,0,0,1,3-.52,6.51,6.51,0,0,1,2.91.61A4.72,4.72,0,0,1,809.94,6a3.5,3.5,0,0,1,.6,2.11h-3.77a1.43,1.43,0,0,0-.19-.86,1.23,1.23,0,0,0-.66-.47,3.41,3.41,0,0,0-1.09-.15,3.34,3.34,0,0,0-1.16.17,1.53,1.53,0,0,0-.65.42.94.94,0,0,0-.24.49.88.88,0,0,0,.19.76,2.22,2.22,0,0,0,1.14.44l2.08.36a5.69,5.69,0,0,1,2.25.8,3,3,0,0,1,1.07,1.21,3.44,3.44,0,0,1,.31,1.34,8.17,8.17,0,0,1-.07,1.17,3.66,3.66,0,0,1-1.1,2.1,6.57,6.57,0,0,1-2.38,1.46A9.32,9.32,0,0,1,803.08,17.86ZM804,2.78,801.76,0h2.53l1.14,1.56L806.84,0h2.67l-3,2.78Z"/><path class="cls-2" d="M810.21,17.67l7-13.74H821l2.78,13.74H820.1L819.6,15h-4.35l-1.34,2.66Zm6.31-5.81h2.72l-.67-4.39Z"/><path class="cls-2" d="M825.35,17.67l2.12-13.74h3.74l4.2,7.66,1.16-7.66h3.73l-2.11,13.74h-3.35l-4.51-8.19-1.25,8.19Z"/><path class="cls-2" d="M839.93,17.67l7-13.74h3.78l2.78,13.74h-3.66l-.5-2.66H845l-1.35,2.66Zm6.31-5.81H849l-.68-4.39Z"/><path class="cls-2" d="M862.11,13.55a2.79,2.79,0,0,1-1.45-.39,3,3,0,0,1-1-1,2.78,2.78,0,0,1-.39-1.44,2.72,2.72,0,0,1,.39-1.43,3,3,0,0,1,1-1,2.89,2.89,0,0,1,2.9,0,3,3,0,0,1,1.05,1,2.64,2.64,0,0,1,.4,1.43,2.7,2.7,0,0,1-.4,1.44,3,3,0,0,1-1.05,1A2.76,2.76,0,0,1,862.11,13.55Z"/><path class="cls-2" d="M876,17.86a5.85,5.85,0,0,1-3.3-.89,4.92,4.92,0,0,1-1.9-2.47,7.28,7.28,0,0,1-.24-3.65A8.82,8.82,0,0,1,872,7.11a7.65,7.65,0,0,1,6.4-3.37,6,6,0,0,1,3.07.72,4.42,4.42,0,0,1,1.79,1.88,4.1,4.1,0,0,1,.38,2.44h-3.87a2.88,2.88,0,0,0-.25-1,1.66,1.66,0,0,0-.63-.71,2,2,0,0,0-1.06-.26,2.63,2.63,0,0,0-1.34.37,3.1,3.1,0,0,0-1.15,1.22,6.66,6.66,0,0,0-.73,2.34,6.55,6.55,0,0,0-.06,2A2.52,2.52,0,0,0,875,14a1.86,1.86,0,0,0,.83.55,3.23,3.23,0,0,0,.9.14,2.61,2.61,0,0,0,.75-.11,3.41,3.41,0,0,0,.64-.3,2.92,2.92,0,0,0,.49-.42,1.67,1.67,0,0,0,.32-.46l.24-.5h-2.4l.39-2.49,6.31,0-1.12,7.26H880l.22-1.52c-.27.23-.58.48-.95.75a5.1,5.1,0,0,1-1.32.68A5.64,5.64,0,0,1,876,17.86Z"/><path class="cls-2" d="M884,17.67l7-13.74h3.77l2.79,13.74h-3.67l-.5-2.66H889l-1.34,2.66Zm6.32-5.81H893l-.67-4.39Z"/><path class="cls-2" d="M899.13,17.67l2.1-13.74H905l-2.09,13.74Z"/><path class="cls-2" d="M905.58,17.67l2-13.74h1.84c1,0,1.9,0,2.81.07a15.21,15.21,0,0,1,2.56.35,6.32,6.32,0,0,1,2.09.87,3.89,3.89,0,0,1,1.4,1.64,6.17,6.17,0,0,1,.5,2.68,9.49,9.49,0,0,1-.13,1.49,8.94,8.94,0,0,1-.45,1.76,7.64,7.64,0,0,1-.9,1.78,6.89,6.89,0,0,1-1.49,1.57,7.51,7.51,0,0,1-2.19,1.11,9.83,9.83,0,0,1-3,.42Zm4.17-2.91H911a3.1,3.1,0,0,0,1.56-.42,4.3,4.3,0,0,0,1.27-1.15,5.66,5.66,0,0,0,.85-1.66,6.16,6.16,0,0,0,.31-2,3.38,3.38,0,0,0-.31-1.51,2.14,2.14,0,0,0-.9-.91,3,3,0,0,0-1.39-.3H911Z"/><path class="cls-2" d="M919.86,17.67,922,3.93h3.72l-2.09,13.74Zm.46-15.11L920.66.3h7.64L928,2.56Z"/><path class="cls-2" d="M932,17.86a8.7,8.7,0,0,1-2.11-.25,5.76,5.76,0,0,1-1.84-.79,3.67,3.67,0,0,1-1.25-1.35,3.49,3.49,0,0,1-.36-2h3.85a1.54,1.54,0,0,0,.29.83,1.64,1.64,0,0,0,.72.52,2.85,2.85,0,0,0,1.1.19,5.93,5.93,0,0,0,1.13-.11,2.39,2.39,0,0,0,.9-.39,1.09,1.09,0,0,0,.45-.76.63.63,0,0,0-.24-.64,2.17,2.17,0,0,0-.81-.35c-.34-.08-.7-.16-1.08-.22l-2.08-.36a3.74,3.74,0,0,1-2.42-1.28,3.45,3.45,0,0,1-.6-2.77,4.25,4.25,0,0,1,1.13-2.37,6,6,0,0,1,2.33-1.5,8.41,8.41,0,0,1,3-.52,6.51,6.51,0,0,1,2.91.61A4.68,4.68,0,0,1,938.85,6a3.49,3.49,0,0,1,.59,2.11h-3.77a1.43,1.43,0,0,0-.18-.86,1.31,1.31,0,0,0-.66-.47,3.41,3.41,0,0,0-1.09-.15,3.34,3.34,0,0,0-1.16.17,1.47,1.47,0,0,0-.65.42,1,1,0,0,0-.25.49.88.88,0,0,0,.2.76,2.18,2.18,0,0,0,1.14.44l2.08.36a5.64,5.64,0,0,1,2.24.8,2.92,2.92,0,0,1,1.08,1.21,3.42,3.42,0,0,1,.3,1.34,7,7,0,0,1-.06,1.17,3.73,3.73,0,0,1-1.11,2.1,6.49,6.49,0,0,1-2.38,1.46A9.22,9.22,0,0,1,932,17.86Zm.9-15.08L930.67,0h2.53l1.14,1.56L935.75,0h2.67l-3,2.78Z"/><path class="cls-2" d="M939.14,17.67l7-13.74h3.78l2.78,13.74H949l-.5-2.66h-4.35l-1.34,2.66Zm6.31-5.81h2.72l-.67-4.39Z"/><path class="cls-2" d="M954.27,17.67l2.12-13.74h3.74l4.2,7.66,1.16-7.66h3.73L967.1,17.67h-3.34l-4.51-8.19L958,17.67Z"/><path class="cls-2" d="M968.85,17.67l7-13.74h3.78l2.78,13.74h-3.66l-.5-2.66H973.9l-1.35,2.66Zm6.31-5.81h2.73l-.68-4.39Z"/><path class="cls-2" d="M991,13.55a2.79,2.79,0,0,1-1.45-.39,2.88,2.88,0,0,1-1-1,2.78,2.78,0,0,1-.39-1.44,2.72,2.72,0,0,1,.39-1.43,2.85,2.85,0,0,1,1-1A2.79,2.79,0,0,1,991,7.83a2.83,2.83,0,0,1,1.46.39,3.13,3.13,0,0,1,1,1,2.72,2.72,0,0,1,.39,1.43,2.78,2.78,0,0,1-.39,1.44,3.16,3.16,0,0,1-1,1A2.83,2.83,0,0,1,991,13.55Z"/><path class="cls-2" d="M1004.91,17.86a5.79,5.79,0,0,1-3.29-.89,4.81,4.81,0,0,1-1.9-2.47,7.39,7.39,0,0,1-.25-3.65,9.09,9.09,0,0,1,1.44-3.74,7.79,7.79,0,0,1,2.76-2.48,7.6,7.6,0,0,1,3.64-.89,6,6,0,0,1,3.08.72,4.48,4.48,0,0,1,1.79,1.88,4.09,4.09,0,0,1,.37,2.44h-3.87a2.68,2.68,0,0,0-.25-1,1.71,1.71,0,0,0-.62-.71,2,2,0,0,0-1.07-.26,2.66,2.66,0,0,0-1.34.37,3.17,3.17,0,0,0-1.15,1.22,6.87,6.87,0,0,0-.73,2.34,6.49,6.49,0,0,0,0,2A2.42,2.42,0,0,0,1004,14a1.84,1.84,0,0,0,.82.55,3.25,3.25,0,0,0,.91.14,2.55,2.55,0,0,0,.74-.11,3.14,3.14,0,0,0,.64-.3,3,3,0,0,0,.5-.42,1.62,1.62,0,0,0,.31-.46l.24-.5h-2.39l.38-2.49,6.31,0-1.11,7.26h-2.44l.22-1.52c-.27.23-.58.48-.94.75a5,5,0,0,1-1.33.68A5.64,5.64,0,0,1,1004.91,17.86Z"/><path class="cls-2" d="M1012.9,17.67l7-13.74h3.78l2.78,13.74h-3.66l-.5-2.66h-4.36l-1.34,2.66Zm6.31-5.81h2.72l-.67-4.39Z"/><path class="cls-2" d="M1028.05,17.67l2.1-13.74h3.72l-2.09,13.74Z"/><path class="cls-2" d="M1034.51,17.67l2-13.74h1.84c1,0,1.9,0,2.81.07a15.36,15.36,0,0,1,2.56.35,6.18,6.18,0,0,1,2.08.87,4,4,0,0,1,1.41,1.64,6.31,6.31,0,0,1,.5,2.68,9.49,9.49,0,0,1-.13,1.49,10.6,10.6,0,0,1-.45,1.76,7.69,7.69,0,0,1-.91,1.78,6.68,6.68,0,0,1-1.49,1.57,7.26,7.26,0,0,1-2.19,1.11,9.81,9.81,0,0,1-3,.42Zm4.17-2.91h1.23a3,3,0,0,0,1.56-.42,4.07,4.07,0,0,0,1.27-1.15,5.68,5.68,0,0,0,.86-1.66,6.44,6.44,0,0,0,.3-2,3.25,3.25,0,0,0-.31-1.51,2.11,2.11,0,0,0-.89-.91,3,3,0,0,0-1.39-.3h-1.42Z"/><path class="cls-2" d="M1048.8,17.67l2.1-13.74h3.72l-2.09,13.74Zm.46-15.11L1049.6.3h7.64l-.35,2.26Z"/><path class="cls-2" d="M1060.93,17.86a8.7,8.7,0,0,1-2.11-.25,5.76,5.76,0,0,1-1.84-.79,3.59,3.59,0,0,1-1.25-1.35,3.49,3.49,0,0,1-.36-2h3.85a1.54,1.54,0,0,0,.29.83,1.64,1.64,0,0,0,.72.52,2.81,2.81,0,0,0,1.1.19,5.75,5.75,0,0,0,1.12-.11,2.44,2.44,0,0,0,.91-.39,1.09,1.09,0,0,0,.45-.76.63.63,0,0,0-.24-.64,2.17,2.17,0,0,0-.81-.35c-.34-.08-.7-.16-1.08-.22l-2.08-.36a3.74,3.74,0,0,1-2.42-1.28,3.45,3.45,0,0,1-.6-2.77,4.25,4.25,0,0,1,1.13-2.37,6,6,0,0,1,2.33-1.5,8.41,8.41,0,0,1,3-.52,6.51,6.51,0,0,1,2.91.61A4.68,4.68,0,0,1,1067.79,6a3.49,3.49,0,0,1,.59,2.11h-3.77a1.43,1.43,0,0,0-.18-.86,1.31,1.31,0,0,0-.66-.47,4.07,4.07,0,0,0-2.26,0,1.43,1.43,0,0,0-.64.42,1,1,0,0,0-.25.49.88.88,0,0,0,.2.76,2.18,2.18,0,0,0,1.14.44l2.08.36a5.64,5.64,0,0,1,2.24.8,2.92,2.92,0,0,1,1.08,1.21,3.42,3.42,0,0,1,.3,1.34,6,6,0,0,1-.07,1.17,3.66,3.66,0,0,1-1.1,2.1,6.49,6.49,0,0,1-2.38,1.46A9.22,9.22,0,0,1,1060.93,17.86Zm.9-15.08L1059.61,0h2.53l1.14,1.56L1064.69,0h2.67l-3,2.78Z"/><path class="cls-2" d="M1068.06,17.67l7-13.74h3.78l2.78,13.74H1078l-.5-2.66h-4.35l-1.35,2.66Zm6.31-5.81h2.73l-.68-4.39Z"/><path class="cls-2" d="M1083.2,17.67l2.12-13.74h3.74l4.2,7.66,1.16-7.66h3.73L1096,17.67h-3.35l-4.5-8.19-1.25,8.19Z"/><path class="cls-2" d="M1097.78,17.67l7-13.74h3.78l2.78,13.74h-3.67l-.49-2.66h-4.36l-1.34,2.66Zm6.31-5.81h2.72l-.67-4.39Z"/><path class="cls-2" d="M1120,13.55a2.79,2.79,0,0,1-1.45-.39,3,3,0,0,1-1-1,2.87,2.87,0,0,1-.38-1.44,2.81,2.81,0,0,1,.38-1.43,3,3,0,0,1,1-1,2.79,2.79,0,0,1,1.45-.39,2.83,2.83,0,0,1,1.46.39,3.13,3.13,0,0,1,1,1,2.72,2.72,0,0,1,.39,1.43,2.78,2.78,0,0,1-.39,1.44,3.16,3.16,0,0,1-1,1A2.83,2.83,0,0,1,1120,13.55Z"/><path class="cls-2" d="M1133.81,17.86a5.81,5.81,0,0,1-3.29-.89,4.87,4.87,0,0,1-1.9-2.47,7.28,7.28,0,0,1-.24-3.65,8.82,8.82,0,0,1,1.44-3.74,7.62,7.62,0,0,1,6.39-3.37,6,6,0,0,1,3.08.72,4.42,4.42,0,0,1,1.79,1.88,4.17,4.17,0,0,1,.38,2.44h-3.88a2.68,2.68,0,0,0-.25-1,1.64,1.64,0,0,0-.62-.71,2,2,0,0,0-1.06-.26,2.7,2.7,0,0,0-1.35.37,3.25,3.25,0,0,0-1.15,1.22,7.1,7.1,0,0,0-.73,2.34,6.81,6.81,0,0,0-.05,2,2.42,2.42,0,0,0,.5,1.19,1.81,1.81,0,0,0,.83.55,3.23,3.23,0,0,0,.9.14,2.55,2.55,0,0,0,.74-.11,2.91,2.91,0,0,0,.64-.3,3,3,0,0,0,.5-.42,1.67,1.67,0,0,0,.32-.46l.24-.5h-2.4l.38-2.49,6.31,0-1.11,7.26h-2.43l.22-1.52c-.27.23-.59.48-1,.75a5.1,5.1,0,0,1-1.32.68A5.66,5.66,0,0,1,1133.81,17.86Z"/><path class="cls-2" d="M1141.83,17.67l7-13.74h3.78l2.78,13.74h-3.66l-.5-2.66h-4.36l-1.34,2.66Zm6.31-5.81h2.72l-.67-4.39Z"/><path class="cls-2" d="M1157,17.67l2.1-13.74h3.72l-2.09,13.74Z"/><path class="cls-2" d="M1163.42,17.67l2-13.74h1.84c1,0,1.89,0,2.81.07a15.5,15.5,0,0,1,2.56.35,6.27,6.27,0,0,1,2.08.87,4,4,0,0,1,1.41,1.64,6.31,6.31,0,0,1,.5,2.68,9.49,9.49,0,0,1-.13,1.49,10.6,10.6,0,0,1-.45,1.76,8.1,8.1,0,0,1-.91,1.78,6.68,6.68,0,0,1-1.49,1.57,7.26,7.26,0,0,1-2.19,1.11,9.81,9.81,0,0,1-3,.42Zm4.18-2.91h1.23a3,3,0,0,0,1.56-.42,4.18,4.18,0,0,0,1.27-1.15,5.68,5.68,0,0,0,.86-1.66,6.44,6.44,0,0,0,.3-2,3.25,3.25,0,0,0-.31-1.51,2.11,2.11,0,0,0-.89-.91,3,3,0,0,0-1.4-.3h-1.42Z"/><path class="cls-2" d="M1177.69,17.67l2.1-13.74h3.72l-2.09,13.74Zm.46-15.11.34-2.26h7.64l-.35,2.26Z"/><path class="cls-2" d="M1189.85,17.86a8.7,8.7,0,0,1-2.11-.25,5.76,5.76,0,0,1-1.84-.79,3.59,3.59,0,0,1-1.25-1.35,3.49,3.49,0,0,1-.36-2h3.85a1.54,1.54,0,0,0,.29.83,1.64,1.64,0,0,0,.72.52,2.81,2.81,0,0,0,1.1.19,5.75,5.75,0,0,0,1.12-.11,2.44,2.44,0,0,0,.91-.39,1.09,1.09,0,0,0,.45-.76.63.63,0,0,0-.24-.64,2.17,2.17,0,0,0-.81-.35c-.34-.08-.7-.16-1.08-.22l-2.08-.36a3.79,3.79,0,0,1-2.43-1.28,3.48,3.48,0,0,1-.59-2.77,4.25,4.25,0,0,1,1.13-2.37,6,6,0,0,1,2.33-1.5,8.41,8.41,0,0,1,3-.52,6.51,6.51,0,0,1,2.91.61A4.68,4.68,0,0,1,1196.71,6a3.49,3.49,0,0,1,.59,2.11h-3.77a1.43,1.43,0,0,0-.18-.86,1.31,1.31,0,0,0-.66-.47,3.48,3.48,0,0,0-1.1-.15,3.43,3.43,0,0,0-1.16.17,1.43,1.43,0,0,0-.64.42,1,1,0,0,0-.25.49.88.88,0,0,0,.2.76,2.18,2.18,0,0,0,1.14.44l2.08.36a5.64,5.64,0,0,1,2.24.8,2.92,2.92,0,0,1,1.08,1.21,3.42,3.42,0,0,1,.3,1.34,6,6,0,0,1-.07,1.17,3.66,3.66,0,0,1-1.1,2.1,6.49,6.49,0,0,1-2.38,1.46A9.22,9.22,0,0,1,1189.85,17.86Zm.9-15.08L1188.53,0h2.53l1.14,1.56L1193.61,0h2.67l-3,2.78Z"/><path class="cls-2" d="M1197,17.67l7-13.74h3.77l2.79,13.74h-3.67l-.5-2.66H1202l-1.34,2.66Zm6.31-5.81H1206l-.67-4.39Z"/><path class="cls-2" d="M1212.13,17.67l2.12-13.74H1218l4.2,7.66,1.16-7.66h3.73L1225,17.67h-3.35l-4.5-8.19-1.25,8.19Z"/><path class="cls-2" d="M1226.71,17.67l7-13.74h3.78l2.78,13.74h-3.66l-.5-2.66h-4.35l-1.35,2.66Zm6.31-5.81h2.73l-.68-4.39Z"/><path class="cls-2" d="M1248.9,13.55a2.79,2.79,0,0,1-1.45-.39,3,3,0,0,1-1-1,2.78,2.78,0,0,1-.39-1.44,2.72,2.72,0,0,1,.39-1.43,3,3,0,0,1,1-1,2.89,2.89,0,0,1,2.9,0,3,3,0,0,1,1.05,1,2.64,2.64,0,0,1,.4,1.43,2.7,2.7,0,0,1-.4,1.44,3,3,0,0,1-1.05,1A2.76,2.76,0,0,1,1248.9,13.55Z"/><path class="cls-2" d="M1262.74,17.86a5.85,5.85,0,0,1-3.3-.89,4.87,4.87,0,0,1-1.9-2.47,7.28,7.28,0,0,1-.24-3.65,8.82,8.82,0,0,1,1.44-3.74,7.65,7.65,0,0,1,6.4-3.37,6,6,0,0,1,3.07.72A4.42,4.42,0,0,1,1270,6.34a4.1,4.1,0,0,1,.38,2.44h-3.87a2.88,2.88,0,0,0-.25-1,1.66,1.66,0,0,0-.63-.71,2,2,0,0,0-1.06-.26,2.63,2.63,0,0,0-1.34.37,3.1,3.1,0,0,0-1.15,1.22,6.66,6.66,0,0,0-.73,2.34,6.55,6.55,0,0,0-.06,2,2.52,2.52,0,0,0,.5,1.19,1.86,1.86,0,0,0,.83.55,3.23,3.23,0,0,0,.9.14,2.61,2.61,0,0,0,.75-.11,3.41,3.41,0,0,0,.64-.3,2.92,2.92,0,0,0,.49-.42,1.67,1.67,0,0,0,.32-.46l.24-.5h-2.4l.39-2.49,6.31,0-1.12,7.26h-2.43l.22-1.52c-.27.23-.59.48-1,.75a5.1,5.1,0,0,1-1.32.68A5.64,5.64,0,0,1,1262.74,17.86Z"/><path class="cls-2" d="M1270.73,17.67l7-13.74h3.77l2.79,13.74h-3.67l-.5-2.66h-4.35l-1.34,2.66Zm6.32-5.81h2.72l-.67-4.39Z"/><path class="cls-2" d="M1285.9,17.67,1288,3.93h3.72l-2.09,13.74Z"/><path class="cls-2" d="M1292.36,17.67l2-13.74h1.84c1,0,1.9,0,2.81.07a15.21,15.21,0,0,1,2.56.35,6.18,6.18,0,0,1,2.08.87,4,4,0,0,1,1.41,1.64,6.31,6.31,0,0,1,.5,2.68,9.49,9.49,0,0,1-.13,1.49,8.94,8.94,0,0,1-.45,1.76,7.69,7.69,0,0,1-.91,1.78,6.68,6.68,0,0,1-1.49,1.57,7.26,7.26,0,0,1-2.19,1.11,9.72,9.72,0,0,1-3,.42Zm4.17-2.91h1.24a3,3,0,0,0,1.55-.42,4.07,4.07,0,0,0,1.27-1.15,5.68,5.68,0,0,0,.86-1.66,6.44,6.44,0,0,0,.3-2,3.25,3.25,0,0,0-.31-1.51,2.06,2.06,0,0,0-.89-.91,3,3,0,0,0-1.39-.3h-1.42Z"/><path class="cls-2" d="M1306.62,17.67l2.1-13.74h3.72l-2.09,13.74Zm.46-15.11.34-2.26h7.64l-.35,2.26Z"/><path class="cls-2" d="M1318.77,17.86a8.79,8.79,0,0,1-2.12-.25,5.76,5.76,0,0,1-1.84-.79,3.76,3.76,0,0,1-1.25-1.35,3.67,3.67,0,0,1-.36-2h3.86a1.46,1.46,0,0,0,.29.83,1.64,1.64,0,0,0,.72.52,2.78,2.78,0,0,0,1.1.19,5.83,5.83,0,0,0,1.12-.11,2.44,2.44,0,0,0,.91-.39,1.12,1.12,0,0,0,.44-.76.61.61,0,0,0-.23-.64,2.17,2.17,0,0,0-.81-.35c-.34-.08-.7-.16-1.09-.22l-2.08-.36a3.74,3.74,0,0,1-2.42-1.28,3.52,3.52,0,0,1-.6-2.77,4.26,4.26,0,0,1,1.14-2.37,5.94,5.94,0,0,1,2.33-1.5,8.37,8.37,0,0,1,3-.52,6.51,6.51,0,0,1,2.91.61A4.65,4.65,0,0,1,1325.62,6a3.5,3.5,0,0,1,.6,2.11h-3.77a1.36,1.36,0,0,0-.19-.86,1.23,1.23,0,0,0-.66-.47,4,4,0,0,0-2.25,0,1.53,1.53,0,0,0-.65.42,1,1,0,0,0-.24.49.85.85,0,0,0,.2.76,2.14,2.14,0,0,0,1.13.44l2.08.36a5.69,5.69,0,0,1,2.25.8,2.89,2.89,0,0,1,1.07,1.21,3.44,3.44,0,0,1,.31,1.34,8.17,8.17,0,0,1-.07,1.17,3.66,3.66,0,0,1-1.1,2.1,6.57,6.57,0,0,1-2.38,1.46A9.31,9.31,0,0,1,1318.77,17.86Zm.9-15.08L1317.44,0H1320l1.15,1.56L1322.53,0h2.66l-3,2.78Z"/><path class="cls-2" d="M1325.89,17.67l7-13.74h3.77l2.79,13.74h-3.67l-.5-2.66h-4.35l-1.34,2.66Zm6.32-5.81h2.72l-.67-4.39Z"/><path class="cls-2" d="M1341,17.67l2.12-13.74h3.74l4.2,7.66,1.16-7.66H1356l-2.12,13.74h-3.35L1346,9.48l-1.25,8.19Z"/><path class="cls-2" d="M1355.61,17.67l7-13.74h3.77l2.79,13.74h-3.67L1365,15h-4.35l-1.34,2.66Zm6.32-5.81h2.72L1364,7.47Z"/><path class="cls-2" d="M1377.82,13.55a2.79,2.79,0,0,1-1.45-.39,3,3,0,0,1-1-1,2.78,2.78,0,0,1-.39-1.44,2.72,2.72,0,0,1,.39-1.43,3,3,0,0,1,1-1,2.89,2.89,0,0,1,2.9,0,3,3,0,0,1,1,1,2.64,2.64,0,0,1,.4,1.43,2.7,2.7,0,0,1-.4,1.44,3,3,0,0,1-1,1A2.76,2.76,0,0,1,1377.82,13.55Z"/><path class="cls-2" d="M1391.66,17.86a5.79,5.79,0,0,1-3.29-.89,4.81,4.81,0,0,1-1.9-2.47,7.39,7.39,0,0,1-.25-3.65,9.09,9.09,0,0,1,1.44-3.74,7.79,7.79,0,0,1,2.76-2.48,7.57,7.57,0,0,1,3.64-.89,6,6,0,0,1,3.08.72,4.54,4.54,0,0,1,1.79,1.88,4.09,4.09,0,0,1,.37,2.44h-3.87a2.88,2.88,0,0,0-.25-1,1.71,1.71,0,0,0-.62-.71,2,2,0,0,0-1.07-.26,2.63,2.63,0,0,0-1.34.37A3.1,3.1,0,0,0,1391,8.39a6.87,6.87,0,0,0-.73,2.34,6.21,6.21,0,0,0,0,2,2.42,2.42,0,0,0,.5,1.19,1.84,1.84,0,0,0,.82.55,3.25,3.25,0,0,0,.91.14,2.55,2.55,0,0,0,.74-.11,3.14,3.14,0,0,0,.64-.3,3,3,0,0,0,.5-.42,1.62,1.62,0,0,0,.31-.46l.24-.5h-2.39l.38-2.49,6.31,0-1.11,7.26h-2.44l.22-1.52c-.27.23-.58.48-.94.75a5.18,5.18,0,0,1-1.33.68A5.64,5.64,0,0,1,1391.66,17.86Z"/><path class="cls-2" d="M1399.68,17.67l7-13.74h3.78l2.78,13.74h-3.67l-.49-2.66h-4.36l-1.34,2.66Zm6.31-5.81h2.72L1408,7.47Z"/><path class="cls-2" d="M1414.82,17.67l2.1-13.74h3.73l-2.1,13.74Z"/><path class="cls-2" d="M1421.28,17.67l2-13.74h1.84c1,0,1.89,0,2.81.07a15.23,15.23,0,0,1,2.55.35,6.23,6.23,0,0,1,2.09.87A4,4,0,0,1,1434,6.86a6.31,6.31,0,0,1,.5,2.68,9.49,9.49,0,0,1-.13,1.49,10.6,10.6,0,0,1-.45,1.76,8.1,8.1,0,0,1-.91,1.78,6.68,6.68,0,0,1-1.49,1.57,7.26,7.26,0,0,1-2.19,1.11,9.81,9.81,0,0,1-3,.42Zm4.18-2.91h1.23a3,3,0,0,0,1.56-.42,4.18,4.18,0,0,0,1.27-1.15,5.68,5.68,0,0,0,.86-1.66,6.44,6.44,0,0,0,.3-2,3.25,3.25,0,0,0-.31-1.51,2.17,2.17,0,0,0-.89-.91,3,3,0,0,0-1.4-.3h-1.42Z"/><path class="cls-2" d="M1435.54,17.67l2.1-13.74h3.72l-2.09,13.74ZM1436,2.56l.35-2.26H1444l-.34,2.26Z"/><path class="cls-2" d="M1447.68,17.86a8.79,8.79,0,0,1-2.12-.25,5.7,5.7,0,0,1-1.83-.79,3.7,3.7,0,0,1-1.26-1.35,3.67,3.67,0,0,1-.36-2H1446a1.54,1.54,0,0,0,.29.83,1.64,1.64,0,0,0,.72.52,2.78,2.78,0,0,0,1.1.19,5.83,5.83,0,0,0,1.12-.11,2.44,2.44,0,0,0,.91-.39,1.12,1.12,0,0,0,.44-.76.61.61,0,0,0-.23-.64,2.17,2.17,0,0,0-.81-.35c-.34-.08-.7-.16-1.08-.22l-2.09-.36a3.77,3.77,0,0,1-2.42-1.28,3.52,3.52,0,0,1-.6-2.77,4.33,4.33,0,0,1,1.14-2.37,5.94,5.94,0,0,1,2.33-1.5,8.37,8.37,0,0,1,3-.52,6.51,6.51,0,0,1,2.91.61A4.59,4.59,0,0,1,1454.53,6a3.5,3.5,0,0,1,.6,2.11h-3.77a1.36,1.36,0,0,0-.19-.86,1.24,1.24,0,0,0-.65-.47,3.48,3.48,0,0,0-1.1-.15,3.38,3.38,0,0,0-1.16.17,1.53,1.53,0,0,0-.65.42,1.12,1.12,0,0,0-.24.49.88.88,0,0,0,.2.76,2.14,2.14,0,0,0,1.13.44l2.08.36a5.69,5.69,0,0,1,2.25.8,2.89,2.89,0,0,1,1.07,1.21,3.44,3.44,0,0,1,.31,1.34,6.94,6.94,0,0,1-.07,1.17,3.66,3.66,0,0,1-1.1,2.1,6.49,6.49,0,0,1-2.38,1.46A9.26,9.26,0,0,1,1447.68,17.86Zm.9-15.08L1446.35,0h2.54L1450,1.56,1451.44,0h2.66l-3,2.78Z"/><path class="cls-2" d="M1454.82,17.67l7-13.74h3.77l2.79,13.74h-3.67l-.5-2.66h-4.35l-1.34,2.66Zm6.31-5.81h2.73l-.67-4.39Z"/><path class="cls-2" d="M1470,17.67l2.12-13.74h3.74l4.2,7.66,1.16-7.66h3.73l-2.12,13.74h-3.34l-4.51-8.19-1.25,8.19Z"/><path class="cls-2" d="M1484.54,17.67l7-13.74h3.78l2.78,13.74h-3.67l-.49-2.66h-4.36l-1.34,2.66Zm6.31-5.81h2.72l-.67-4.39Z"/><path class="cls-2" d="M1506.74,13.55a2.79,2.79,0,0,1-1.45-.39,3,3,0,0,1-1-1,2.77,2.77,0,0,1-.38-1.44,2.71,2.71,0,0,1,.38-1.43,3,3,0,0,1,1-1,2.89,2.89,0,0,1,2.9,0,3,3,0,0,1,1,1,2.64,2.64,0,0,1,.4,1.43,2.7,2.7,0,0,1-.4,1.44,3,3,0,0,1-1,1A2.76,2.76,0,0,1,1506.74,13.55Z"/><path class="cls-2" d="M1520.59,17.86a5.85,5.85,0,0,1-3.3-.89,4.85,4.85,0,0,1-1.89-2.47,7.16,7.16,0,0,1-.25-3.65,8.82,8.82,0,0,1,1.44-3.74,7.65,7.65,0,0,1,6.4-3.37,6,6,0,0,1,3.07.72,4.42,4.42,0,0,1,1.79,1.88,4.1,4.1,0,0,1,.38,2.44h-3.87a2.88,2.88,0,0,0-.25-1,1.71,1.71,0,0,0-.62-.71,2,2,0,0,0-1.07-.26,2.63,2.63,0,0,0-1.34.37,3.1,3.1,0,0,0-1.15,1.22,6.66,6.66,0,0,0-.73,2.34,6.21,6.21,0,0,0,0,2,2.42,2.42,0,0,0,.49,1.19,1.86,1.86,0,0,0,.83.55,3.25,3.25,0,0,0,.91.14,2.55,2.55,0,0,0,.74-.11,3.41,3.41,0,0,0,.64-.3,2.92,2.92,0,0,0,.49-.42,1.48,1.48,0,0,0,.32-.46l.24-.5h-2.4l.39-2.49,6.31,0L1527,17.67h-2.44l.22-1.52c-.27.23-.58.48-.94.75a5.34,5.34,0,0,1-1.33.68A5.64,5.64,0,0,1,1520.59,17.86Z"/><path class="cls-2" d="M1528.58,17.67l7-13.74h3.78l2.78,13.74h-3.67L1538,15h-4.36l-1.34,2.66Zm6.31-5.81h2.72l-.67-4.39Z"/><path class="cls-2" d="M1543.72,17.67l2.1-13.74h3.72l-2.09,13.74Z"/><path class="cls-2" d="M1550.18,17.67l2-13.74H1554c1,0,1.9,0,2.81.07a15.21,15.21,0,0,1,2.56.35,6.18,6.18,0,0,1,2.08.87,4,4,0,0,1,1.41,1.64,6.31,6.31,0,0,1,.5,2.68,9.49,9.49,0,0,1-.13,1.49,8.94,8.94,0,0,1-.45,1.76,7.64,7.64,0,0,1-.9,1.78,6.73,6.73,0,0,1-1.5,1.57,7.26,7.26,0,0,1-2.19,1.11,9.72,9.72,0,0,1-3,.42Zm4.17-2.91h1.24a3,3,0,0,0,1.55-.42,4.22,4.22,0,0,0,1.28-1.15,5.91,5.91,0,0,0,.85-1.66,6.45,6.45,0,0,0,.31-2,3.25,3.25,0,0,0-.32-1.51,2.06,2.06,0,0,0-.89-.91,3,3,0,0,0-1.39-.3h-1.42Z"/><path class="cls-2" d="M1564.47,17.67l2.1-13.74h3.72l-2.09,13.74Zm.46-15.11.35-2.26h7.63l-.35,2.26Z"/><path class="cls-2" d="M1576.6,17.86a8.85,8.85,0,0,1-2.12-.25,5.7,5.7,0,0,1-1.83-.79,3.59,3.59,0,0,1-1.25-1.35,3.49,3.49,0,0,1-.36-2h3.85a1.54,1.54,0,0,0,.29.83,1.64,1.64,0,0,0,.72.52,2.78,2.78,0,0,0,1.1.19,5.83,5.83,0,0,0,1.12-.11,2.44,2.44,0,0,0,.91-.39,1.13,1.13,0,0,0,.45-.76.63.63,0,0,0-.24-.64,2.17,2.17,0,0,0-.81-.35c-.34-.08-.7-.16-1.08-.22l-2.09-.36a3.77,3.77,0,0,1-2.42-1.28,3.52,3.52,0,0,1-.6-2.77,4.33,4.33,0,0,1,1.14-2.37,5.94,5.94,0,0,1,2.33-1.5,8.37,8.37,0,0,1,3-.52,6.51,6.51,0,0,1,2.91.61A4.68,4.68,0,0,1,1583.46,6a3.56,3.56,0,0,1,.59,2.11h-3.77a1.36,1.36,0,0,0-.19-.86,1.24,1.24,0,0,0-.65-.47,3.48,3.48,0,0,0-1.1-.15,3.38,3.38,0,0,0-1.16.17,1.43,1.43,0,0,0-.64.42,1,1,0,0,0-.25.49.88.88,0,0,0,.2.76,2.14,2.14,0,0,0,1.13.44l2.09.36a5.7,5.7,0,0,1,2.24.8,2.82,2.82,0,0,1,1.07,1.21,3.44,3.44,0,0,1,.31,1.34,6.94,6.94,0,0,1-.07,1.17,3.66,3.66,0,0,1-1.1,2.1,6.49,6.49,0,0,1-2.38,1.46A9.22,9.22,0,0,1,1576.6,17.86Zm.9-15.08L1575.27,0h2.54L1579,1.56,1580.36,0H1583l-3,2.78Z"/><path class="cls-2" d="M1583.75,17.67l7-13.74h3.78l2.78,13.74h-3.66l-.5-2.66h-4.35l-1.35,2.66Zm6.31-5.81h2.72l-.67-4.39Z"/><path class="cls-2" d="M1598.89,17.67,1601,3.93h3.74l4.21,7.66,1.16-7.66h3.73l-2.12,13.74h-3.35l-4.51-8.19-1.24,8.19Z"/><path class="cls-2" d="M1613.45,17.67l7-13.74h3.78L1627,17.67h-3.66l-.5-2.66h-4.36l-1.34,2.66Zm6.31-5.81h2.72l-.67-4.39Z"/><path class="cls-2" d="M1635.64,13.55a2.8,2.8,0,0,1-1.46-.39,3,3,0,0,1-1-1,2.78,2.78,0,0,1-.39-1.44,2.72,2.72,0,0,1,.39-1.43,2.93,2.93,0,0,1,1-1,2.91,2.91,0,0,1,2.91,0,3,3,0,0,1,1.05,1,2.72,2.72,0,0,1,.39,1.43,2.78,2.78,0,0,1-.39,1.44,3,3,0,0,1-1.05,1A2.79,2.79,0,0,1,1635.64,13.55Z"/><path class="cls-2" d="M1649.5,17.86a5.81,5.81,0,0,1-3.29-.89,4.81,4.81,0,0,1-1.9-2.47,7.28,7.28,0,0,1-.24-3.65,8.82,8.82,0,0,1,1.44-3.74,7.68,7.68,0,0,1,2.75-2.48,7.6,7.6,0,0,1,3.64-.89,6,6,0,0,1,3.08.72,4.42,4.42,0,0,1,1.79,1.88,4.17,4.17,0,0,1,.38,2.44h-3.88a2.68,2.68,0,0,0-.25-1,1.64,1.64,0,0,0-.62-.71,2,2,0,0,0-1.06-.26,2.7,2.7,0,0,0-1.35.37,3.25,3.25,0,0,0-1.15,1.22,7.1,7.1,0,0,0-.73,2.34,6.81,6.81,0,0,0,0,2,2.42,2.42,0,0,0,.5,1.19,1.84,1.84,0,0,0,.82.55,3.3,3.3,0,0,0,.91.14,2.55,2.55,0,0,0,.74-.11,2.91,2.91,0,0,0,.64-.3,3,3,0,0,0,.5-.42,1.67,1.67,0,0,0,.32-.46l.24-.5h-2.4l.38-2.49,6.31,0-1.11,7.26h-2.44l.23-1.52c-.27.23-.59.48-1,.75a5.1,5.1,0,0,1-1.32.68A5.7,5.7,0,0,1,1649.5,17.86Z"/><path class="cls-2" d="M1657.51,17.67l7-13.74h3.78l2.78,13.74h-3.66l-.5-2.66h-4.35l-1.35,2.66Zm6.31-5.81h2.73l-.68-4.39Z"/><path class="cls-2" d="M1672.67,17.67l2.1-13.74h3.72l-2.09,13.74Z"/><path class="cls-2" d="M1679.1,17.67l2-13.74H1683c1,0,1.9,0,2.81.07a15.36,15.36,0,0,1,2.56.35,6.18,6.18,0,0,1,2.08.87,4,4,0,0,1,1.41,1.64,6.31,6.31,0,0,1,.5,2.68,9.49,9.49,0,0,1-.13,1.49,10.6,10.6,0,0,1-.45,1.76,7.69,7.69,0,0,1-.91,1.78,6.68,6.68,0,0,1-1.49,1.57,7.26,7.26,0,0,1-2.19,1.11,9.81,9.81,0,0,1-3,.42Zm4.17-2.91h1.23a3,3,0,0,0,1.56-.42,4.07,4.07,0,0,0,1.27-1.15,5.68,5.68,0,0,0,.86-1.66,6.44,6.44,0,0,0,.3-2,3.25,3.25,0,0,0-.31-1.51,2.11,2.11,0,0,0-.89-.91,3,3,0,0,0-1.39-.3h-1.42Z"/><path class="cls-2" d="M1693.38,17.67l2.1-13.74h3.72l-2.09,13.74Zm.46-15.11.35-2.26h7.63l-.34,2.26Z"/><path class="cls-2" d="M1705.51,17.86a8.76,8.76,0,0,1-2.11-.25,5.76,5.76,0,0,1-1.84-.79,3.76,3.76,0,0,1-1.25-1.35,3.49,3.49,0,0,1-.36-2h3.86a1.46,1.46,0,0,0,.29.83,1.67,1.67,0,0,0,.71.52,2.87,2.87,0,0,0,1.11.19,5.83,5.83,0,0,0,1.12-.11,2.44,2.44,0,0,0,.91-.39,1.12,1.12,0,0,0,.44-.76.61.61,0,0,0-.23-.64,2.17,2.17,0,0,0-.81-.35c-.34-.08-.7-.16-1.09-.22l-2.08-.36a3.74,3.74,0,0,1-2.42-1.28,3.52,3.52,0,0,1-.6-2.77,4.2,4.2,0,0,1,1.14-2.37,5.94,5.94,0,0,1,2.33-1.5,8.37,8.37,0,0,1,3-.52,6.51,6.51,0,0,1,2.91.61A4.72,4.72,0,0,1,1712.37,6a3.5,3.5,0,0,1,.6,2.11h-3.77a1.43,1.43,0,0,0-.19-.86,1.23,1.23,0,0,0-.66-.47,4,4,0,0,0-2.25,0,1.53,1.53,0,0,0-.65.42.94.94,0,0,0-.24.49.88.88,0,0,0,.19.76,2.22,2.22,0,0,0,1.14.44l2.08.36a5.69,5.69,0,0,1,2.25.8,3,3,0,0,1,1.07,1.21,3.44,3.44,0,0,1,.31,1.34,8.17,8.17,0,0,1-.07,1.17,3.66,3.66,0,0,1-1.1,2.1,6.57,6.57,0,0,1-2.38,1.46A9.32,9.32,0,0,1,1705.51,17.86Zm.91-15.08L1704.19,0h2.53l1.14,1.56L1709.27,0h2.67l-3,2.78Z"/><path class="cls-2" d="M1712.65,17.67l7-13.74h3.78l2.78,13.74h-3.66l-.5-2.66h-4.36l-1.34,2.66Zm6.31-5.81h2.72L1721,7.47Z"/><path class="cls-2" d="M1727.79,17.67l2.12-13.74h3.74l4.2,7.66L1739,3.93h3.74l-2.12,13.74h-3.35l-4.51-8.19-1.25,8.19Z"/><path class="cls-2" d="M1742.37,17.67l7-13.74h3.77l2.79,13.74h-3.67l-.5-2.66h-4.35l-1.34,2.66Zm6.32-5.81h2.72l-.67-4.39Z"/><path class="cls-2" d="M1764.58,13.55a2.76,2.76,0,0,1-1.45-.39,3,3,0,0,1-1.05-1,2.78,2.78,0,0,1-.39-1.44,2.72,2.72,0,0,1,.39-1.43,3,3,0,0,1,1.05-1,2.89,2.89,0,0,1,2.9,0,3,3,0,0,1,1,1,2.73,2.73,0,0,1,.4,1.43,2.79,2.79,0,0,1-.4,1.44,3,3,0,0,1-1,1A2.79,2.79,0,0,1,1764.58,13.55Z"/><path class="cls-2" d="M1778.43,17.86a5.79,5.79,0,0,1-3.29-.89,4.81,4.81,0,0,1-1.9-2.47,7.39,7.39,0,0,1-.25-3.65,9.09,9.09,0,0,1,1.44-3.74,7.79,7.79,0,0,1,2.76-2.48,7.6,7.6,0,0,1,3.64-.89,6,6,0,0,1,3.08.72,4.48,4.48,0,0,1,1.79,1.88,4.09,4.09,0,0,1,.37,2.44h-3.87a2.88,2.88,0,0,0-.25-1,1.71,1.71,0,0,0-.62-.71,2,2,0,0,0-1.07-.26,2.63,2.63,0,0,0-1.34.37,3.17,3.17,0,0,0-1.15,1.22,6.87,6.87,0,0,0-.73,2.34,6.21,6.21,0,0,0,0,2,2.42,2.42,0,0,0,.5,1.19,1.84,1.84,0,0,0,.82.55,3.25,3.25,0,0,0,.91.14,2.55,2.55,0,0,0,.74-.11,3.14,3.14,0,0,0,.64-.3,3,3,0,0,0,.5-.42,1.62,1.62,0,0,0,.31-.46l.24-.5h-2.39l.38-2.49,6.31,0-1.11,7.26h-2.44l.22-1.52c-.27.23-.58.48-.94.75a5.18,5.18,0,0,1-1.33.68A5.64,5.64,0,0,1,1778.43,17.86Z"/><path class="cls-2" d="M1786.44,17.67l7-13.74h3.78L1800,17.67h-3.67l-.49-2.66h-4.36l-1.34,2.66Zm6.31-5.81h2.72l-.67-4.39Z"/><path class="cls-2" d="M1801.58,17.67l2.1-13.74h3.73l-2.1,13.74Z"/><path class="cls-2" d="M1808,17.67l2-13.74h1.84c1,0,1.9,0,2.81.07a15.21,15.21,0,0,1,2.56.35,6.18,6.18,0,0,1,2.08.87,3.91,3.91,0,0,1,1.41,1.64,6.17,6.17,0,0,1,.5,2.68,9.49,9.49,0,0,1-.13,1.49,8.94,8.94,0,0,1-.45,1.76,7.64,7.64,0,0,1-.9,1.78,6.89,6.89,0,0,1-1.49,1.57,7.44,7.44,0,0,1-2.2,1.11,9.72,9.72,0,0,1-3,.42Zm4.17-2.91h1.24a3,3,0,0,0,1.55-.42,4.22,4.22,0,0,0,1.28-1.15,5.91,5.91,0,0,0,.85-1.66,6.45,6.45,0,0,0,.31-2,3.25,3.25,0,0,0-.32-1.51,2.06,2.06,0,0,0-.89-.91,3,3,0,0,0-1.39-.3h-1.42Z"/><path class="cls-2" d="M1822.31,17.67l2.1-13.74h3.72L1826,17.67Zm.46-15.11.34-2.26h7.64l-.35,2.26Z"/><path class="cls-2" d="M1834.44,17.86a8.76,8.76,0,0,1-2.11-.25,5.76,5.76,0,0,1-1.84-.79,3.76,3.76,0,0,1-1.25-1.35,3.49,3.49,0,0,1-.36-2h3.86a1.46,1.46,0,0,0,.29.83,1.67,1.67,0,0,0,.71.52,2.87,2.87,0,0,0,1.11.19,5.83,5.83,0,0,0,1.12-.11,2.44,2.44,0,0,0,.91-.39,1.12,1.12,0,0,0,.44-.76.61.61,0,0,0-.23-.64,2.17,2.17,0,0,0-.81-.35c-.34-.08-.7-.16-1.09-.22l-2.08-.36a3.74,3.74,0,0,1-2.42-1.28,3.52,3.52,0,0,1-.6-2.77,4.2,4.2,0,0,1,1.14-2.37,5.94,5.94,0,0,1,2.33-1.5,8.37,8.37,0,0,1,3-.52,6.51,6.51,0,0,1,2.91.61A4.65,4.65,0,0,1,1841.3,6a3.5,3.5,0,0,1,.6,2.11h-3.77a1.43,1.43,0,0,0-.19-.86,1.23,1.23,0,0,0-.66-.47,4,4,0,0,0-2.25,0,1.53,1.53,0,0,0-.65.42.94.94,0,0,0-.24.49.88.88,0,0,0,.19.76,2.22,2.22,0,0,0,1.14.44l2.08.36a5.69,5.69,0,0,1,2.25.8,3,3,0,0,1,1.07,1.21,3.44,3.44,0,0,1,.31,1.34,8.17,8.17,0,0,1-.07,1.17,3.66,3.66,0,0,1-1.1,2.1,6.57,6.57,0,0,1-2.38,1.46A9.32,9.32,0,0,1,1834.44,17.86Zm.91-15.08L1833.12,0h2.53l1.14,1.56L1838.2,0h2.67l-3,2.78Z"/><path class="cls-2" d="M1841.58,17.67l7-13.74h3.78l2.78,13.74h-3.66L1851,15h-4.35l-1.35,2.66Zm6.31-5.81h2.73L1850,7.47Z"/><path class="cls-2" d="M1856.74,17.67l2.12-13.74h3.74l4.2,7.66L1868,3.93h3.73l-2.12,13.74h-3.35l-4.5-8.19-1.25,8.19Z"/><path class="cls-2" d="M1871.29,17.67l7-13.74h3.78l2.78,13.74h-3.66l-.5-2.66h-4.35L1875,17.67Zm6.31-5.81h2.73l-.67-4.39Z"/><path class="cls-2" d="M1893.48,13.55a2.83,2.83,0,0,1-1.46-.39,3,3,0,0,1-1-1,2.78,2.78,0,0,1-.39-1.44,2.72,2.72,0,0,1,.39-1.43,3,3,0,0,1,1-1,2.83,2.83,0,0,1,1.46-.39,2.79,2.79,0,0,1,1.45.39,3,3,0,0,1,1,1,2.72,2.72,0,0,1,.39,1.43,2.78,2.78,0,0,1-.39,1.44,3,3,0,0,1-1,1A2.79,2.79,0,0,1,1893.48,13.55Z"/><path class="cls-2" d="M1907.35,17.86a5.85,5.85,0,0,1-3.3-.89,4.85,4.85,0,0,1-1.89-2.47,7.28,7.28,0,0,1-.25-3.65,9,9,0,0,1,1.44-3.74,7.65,7.65,0,0,1,6.4-3.37,6,6,0,0,1,3.07.72,4.42,4.42,0,0,1,1.79,1.88,4.1,4.1,0,0,1,.38,2.44h-3.87a2.88,2.88,0,0,0-.25-1,1.71,1.71,0,0,0-.62-.71,2,2,0,0,0-1.07-.26,2.63,2.63,0,0,0-1.34.37,3.1,3.1,0,0,0-1.15,1.22,6.66,6.66,0,0,0-.73,2.34,6.21,6.21,0,0,0,0,2,2.42,2.42,0,0,0,.49,1.19,1.86,1.86,0,0,0,.83.55,3.25,3.25,0,0,0,.91.14,2.55,2.55,0,0,0,.74-.11,3.41,3.41,0,0,0,.64-.3,2.92,2.92,0,0,0,.49-.42,1.48,1.48,0,0,0,.32-.46l.24-.5h-2.4l.39-2.49,6.31,0-1.11,7.26h-2.44l.22-1.52c-.27.23-.58.48-.94.75a5.34,5.34,0,0,1-1.33.68A5.64,5.64,0,0,1,1907.35,17.86Z"/><path class="cls-2" d="M1915.35,17.67l7-13.74h3.78l2.78,13.74h-3.67l-.5-2.66h-4.35l-1.34,2.66Zm6.31-5.81h2.72l-.67-4.39Z"/><path class="cls-2" d="M1930.51,17.67l2.1-13.74h3.72l-2.09,13.74Z"/></g></g></g></svg>