<svg xmlns="http://www.w3.org/2000/svg" viewBox="0 0 2176.6 1228.64"><defs><style>.cls-1{opacity:0.6;}.cls-2{fill:#fff;}</style></defs><g id="Layer_2" data-name="Layer 2"><g id="Accordion_menu_expanded" data-name="Accordion menu expanded"><g id="Layer_9_copy_2" data-name="Layer 9 copy 2"><g class="cls-1"><path class="cls-2" d="M12.75,1229l-10.7,1.59v-2.79l5.74-.77-5.74-2.47v-2l5.74-.79-5.74-2.47v-2.79l10.7,4.85v2.14l-5.82.81,5.82,2.59Z" transform="translate(-1.72 -1.9)"/><path class="cls-2" d="M12.75,1219.11l-10.7-5.44v-2.93l10.7-2.16v2.84l-2.07.39v3.38l2.07,1Zm-4.53-4.9v-2.12l-3.42.53Z" transform="translate(-1.72 -1.9)"/><path class="cls-2" d="M12.75,1207.35l-10.7-1.63v-2.89l10.7,1.62Z" transform="translate(-1.72 -1.9)"/><path class="cls-2" d="M12.75,1200.19,4.58,1199v3l-2.53-.38v-9l2.53.39v3.07l8.17,1.25Z" transform="translate(-1.72 -1.9)"/><path class="cls-2" d="M12.75,1192.88l-10.7-1.63v-2.89l10.7,1.62Z" transform="translate(-1.72 -1.9)"/><path class="cls-2" d="M12.75,1187.86l-10.7-1.64v-2.91l6-3.26-6-.9v-2.9l10.7,1.64v2.6L6.37,1184l6.38,1Z" transform="translate(-1.72 -1.9)"/><path class="cls-2" d="M12.9,1171.16a4.51,4.51,0,0,1-.69,2.56,3.8,3.8,0,0,1-1.93,1.47,5.63,5.63,0,0,1-2.84.19,7,7,0,0,1-2.92-1.11,6.07,6.07,0,0,1-1.93-2.14,5.9,5.9,0,0,1-.69-2.83,4.67,4.67,0,0,1,.56-2.39,3.44,3.44,0,0,1,1.47-1.39,3.23,3.23,0,0,1,1.89-.3v3a2.13,2.13,0,0,0-.78.2,1.29,1.29,0,0,0-.55.48,1.48,1.48,0,0,0-.21.83,2.13,2.13,0,0,0,.29,1,2.42,2.42,0,0,0,.95.89,5.34,5.34,0,0,0,1.83.57,5.11,5.11,0,0,0,1.59,0,1.86,1.86,0,0,0,.92-.39,1.43,1.43,0,0,0,.43-.64,2.49,2.49,0,0,0,.11-.7,1.85,1.85,0,0,0-.09-.58,2.45,2.45,0,0,0-.23-.49,2.12,2.12,0,0,0-.33-.39,1.56,1.56,0,0,0-.36-.25l-.38-.18v1.86l-1.94-.3,0-4.9,5.65.86v1.9l-1.18-.18c.18.21.37.46.58.74a4,4,0,0,1,.53,1A4.3,4.3,0,0,1,12.9,1171.16Z" transform="translate(-1.72 -1.9)"/><path class="cls-2" d="M9.54,1158.69a2.2,2.2,0,0,1-.3,1.13,2.35,2.35,0,0,1-.82.81,2.22,2.22,0,0,1-2.23,0,2.3,2.3,0,0,1-.8-.81,2.21,2.21,0,0,1,0-2.26,2.41,2.41,0,0,1,.8-.82,2.22,2.22,0,0,1,2.23,0,2.47,2.47,0,0,1,.82.82A2.2,2.2,0,0,1,9.54,1158.69Z" transform="translate(-1.72 -1.9)"/><path class="cls-2" d="M12.75,1150.34l-10.7,1.59v-2.79l5.74-.77-5.74-2.47v-2l5.74-.79-5.74-2.47v-2.79l10.7,4.85v2.14l-5.82.81,5.82,2.59Z" transform="translate(-1.72 -1.9)"/><path class="cls-2" d="M12.75,1140.53l-10.7-5.44v-2.94l10.7-2.16v2.85l-2.07.38v3.39l2.07,1Zm-4.53-4.91v-2.11L4.8,1134Z" transform="translate(-1.72 -1.9)"/><path class="cls-2" d="M12.75,1128.75l-10.7-1.63v-2.89l10.7,1.62Z" transform="translate(-1.72 -1.9)"/><path class="cls-2" d="M12.75,1121.58l-8.17-1.24v3L2.05,1123v-9l2.53.38v3.07l8.17,1.26Z" transform="translate(-1.72 -1.9)"/><path class="cls-2" d="M12.75,1114.27l-10.7-1.63v-2.89l10.7,1.63Z" transform="translate(-1.72 -1.9)"/><path class="cls-2" d="M12.75,1109.26l-10.7-1.64v-2.91l6-3.26-6-.91v-2.89l10.7,1.64v2.6l-6.38,3.51,6.38,1Z" transform="translate(-1.72 -1.9)"/><path class="cls-2" d="M12.9,1092.54a4.48,4.48,0,0,1-.69,2.56,3.87,3.87,0,0,1-1.93,1.48,5.75,5.75,0,0,1-2.84.19,7.16,7.16,0,0,1-2.92-1.12,6,6,0,0,1-1.93-2.14,5.9,5.9,0,0,1-.69-2.83,4.67,4.67,0,0,1,.56-2.39,3.44,3.44,0,0,1,1.47-1.39,3.15,3.15,0,0,1,1.89-.29v3a2.13,2.13,0,0,0-.78.19,1.29,1.29,0,0,0-.55.48,1.5,1.5,0,0,0-.21.83,2.07,2.07,0,0,0,.29,1,2.51,2.51,0,0,0,.95.9,5.35,5.35,0,0,0,1.83.56,4.82,4.82,0,0,0,1.59,0,2,2,0,0,0,.92-.38,1.48,1.48,0,0,0,.43-.64,2.56,2.56,0,0,0,.11-.71,1.79,1.79,0,0,0-.09-.57,2.3,2.3,0,0,0-.23-.5,2.12,2.12,0,0,0-.33-.39,1.26,1.26,0,0,0-.36-.24L9,1090v1.86l-1.94-.3,0-4.9,5.65.87v1.89l-1.18-.17c.18.21.37.45.58.73a4,4,0,0,1,.53,1A4.3,4.3,0,0,1,12.9,1092.54Z" transform="translate(-1.72 -1.9)"/><path class="cls-2" d="M9.54,1080.07a2.2,2.2,0,0,1-.3,1.13,2.35,2.35,0,0,1-.82.81,2.22,2.22,0,0,1-2.23,0,2.3,2.3,0,0,1-.8-.81,2.21,2.21,0,0,1,0-2.26,2.3,2.3,0,0,1,.8-.81,2.16,2.16,0,0,1,2.23,0,2.35,2.35,0,0,1,.82.81A2.2,2.2,0,0,1,9.54,1080.07Z" transform="translate(-1.72 -1.9)"/><path class="cls-2" d="M12.75,1071.71l-10.7,1.6v-2.79l5.74-.77-5.74-2.48v-2l5.74-.79L2.05,1062v-2.79l10.7,4.85v2.14l-5.82.81,5.82,2.59Z" transform="translate(-1.72 -1.9)"/><path class="cls-2" d="M12.75,1061.91l-10.7-5.44v-2.94l10.7-2.16v2.85l-2.07.38V1058l2.07,1ZM8.22,1057v-2.11l-3.42.52Z" transform="translate(-1.72 -1.9)"/><path class="cls-2" d="M12.75,1050.15l-10.7-1.63v-2.89l10.7,1.63Z" transform="translate(-1.72 -1.9)"/><path class="cls-2" d="M12.75,1043l-8.17-1.24v3l-2.53-.39v-9l2.53.39v3.07l8.17,1.25Z" transform="translate(-1.72 -1.9)"/><path class="cls-2" d="M12.75,1035.66,2.05,1034v-2.89l10.7,1.62Z" transform="translate(-1.72 -1.9)"/><path class="cls-2" d="M12.75,1030.64,2.05,1029v-2.9l6-3.26-6-.91V1019l10.7,1.64v2.6l-6.38,3.5,6.38,1Z" transform="translate(-1.72 -1.9)"/><path class="cls-2" d="M12.9,1013.94a4.51,4.51,0,0,1-.69,2.56,3.85,3.85,0,0,1-1.93,1.47,5.63,5.63,0,0,1-2.84.19A6.88,6.88,0,0,1,4.52,1017a6,6,0,0,1-1.93-2.14,5.87,5.87,0,0,1-.69-2.83,4.72,4.72,0,0,1,.56-2.39,3.5,3.5,0,0,1,1.47-1.39,3.15,3.15,0,0,1,1.89-.29v3a2.13,2.13,0,0,0-.78.19,1.24,1.24,0,0,0-.55.49,1.47,1.47,0,0,0-.21.82,2.13,2.13,0,0,0,.29,1,2.49,2.49,0,0,0,.95.89,5.34,5.34,0,0,0,1.83.57,5.11,5.11,0,0,0,1.59,0,1.86,1.86,0,0,0,.92-.39,1.48,1.48,0,0,0,.43-.64,2.54,2.54,0,0,0,.11-.7,1.81,1.81,0,0,0-.09-.58,2.54,2.54,0,0,0-.23-.5,2,2,0,0,0-.33-.38,1.3,1.3,0,0,0-.36-.25l-.38-.19v1.87l-1.94-.3,0-4.9,5.65.86v1.89l-1.18-.17c.18.21.37.45.58.74a4.07,4.07,0,0,1,.53,1A4.4,4.4,0,0,1,12.9,1013.94Z" transform="translate(-1.72 -1.9)"/><path class="cls-2" d="M9.54,1001.46a2.16,2.16,0,0,1-.3,1.12,2.38,2.38,0,0,1-.82.82,2.22,2.22,0,0,1-2.23,0,2.33,2.33,0,0,1-.8-.82,2.2,2.2,0,0,1,0-2.25,2.33,2.33,0,0,1,.8-.82,2.22,2.22,0,0,1,2.23,0,2.38,2.38,0,0,1,.82.82A2.17,2.17,0,0,1,9.54,1001.46Z" transform="translate(-1.72 -1.9)"/><path class="cls-2" d="M12.75,993.12l-10.7,1.59v-2.79l5.74-.77-5.74-2.47v-2l5.74-.79L2.05,983.4v-2.79l10.7,4.85v2.14l-5.82.81L12.75,991Z" transform="translate(-1.72 -1.9)"/><path class="cls-2" d="M12.75,983.29l-10.7-5.44v-2.93l10.7-2.17v2.85l-2.07.39v3.38l2.07,1Zm-4.53-4.9v-2.12l-3.42.52Z" transform="translate(-1.72 -1.9)"/><path class="cls-2" d="M12.75,971.52l-10.7-1.63V967l10.7,1.62Z" transform="translate(-1.72 -1.9)"/><path class="cls-2" d="M12.75,964.35l-8.17-1.23v3l-2.53-.39v-9l2.53.39v3.07l8.17,1.25Z" transform="translate(-1.72 -1.9)"/><path class="cls-2" d="M12.75,957.05l-10.7-1.63v-2.89l10.7,1.63Z" transform="translate(-1.72 -1.9)"/><path class="cls-2" d="M12.75,952.05l-10.7-1.64V947.5l6-3.26-6-.9v-2.9l10.7,1.64v2.6l-6.38,3.51,6.38,1Z" transform="translate(-1.72 -1.9)"/><path class="cls-2" d="M12.9,935.33a4.47,4.47,0,0,1-.69,2.55,3.87,3.87,0,0,1-1.93,1.48,5.63,5.63,0,0,1-2.84.19,7,7,0,0,1-2.92-1.12,6,6,0,0,1-1.93-2.14,5.9,5.9,0,0,1-.69-2.83,4.7,4.7,0,0,1,.56-2.39,3.5,3.5,0,0,1,1.47-1.39,3.15,3.15,0,0,1,1.89-.29v3a2.13,2.13,0,0,0-.78.19,1.24,1.24,0,0,0-.55.49,1.45,1.45,0,0,0-.21.82A2.13,2.13,0,0,0,4.57,935a2.57,2.57,0,0,0,.95.89,5.34,5.34,0,0,0,1.83.57,5.44,5.44,0,0,0,1.59,0,2,2,0,0,0,.92-.39,1.48,1.48,0,0,0,.43-.64,2.56,2.56,0,0,0,.11-.71,1.79,1.79,0,0,0-.09-.57,2.54,2.54,0,0,0-.23-.5,2.12,2.12,0,0,0-.33-.39,1.26,1.26,0,0,0-.36-.24L9,932.82v1.86l-1.94-.29,0-4.91,5.65.87v1.89l-1.18-.17c.18.21.37.45.58.73a4.14,4.14,0,0,1,.53,1A4.36,4.36,0,0,1,12.9,935.33Z" transform="translate(-1.72 -1.9)"/><path class="cls-2" d="M9.54,922.85a2.2,2.2,0,0,1-.3,1.13,2.35,2.35,0,0,1-.82.81,2.22,2.22,0,0,1-2.23,0,2.3,2.3,0,0,1-.8-.81,2.21,2.21,0,0,1,0-2.26,2.3,2.3,0,0,1,.8-.81,2.16,2.16,0,0,1,2.23,0,2.35,2.35,0,0,1,.82.81A2.2,2.2,0,0,1,9.54,922.85Z" transform="translate(-1.72 -1.9)"/><path class="cls-2" d="M12.75,914.52l-10.7,1.6v-2.79l5.74-.78-5.74-2.47v-2l5.74-.79-5.74-2.47V902l10.7,4.84V909l-5.82.8,5.82,2.59Z" transform="translate(-1.72 -1.9)"/><path class="cls-2" d="M12.75,904.68l-10.7-5.43v-2.94l10.7-2.16V897l-2.07.38v3.39l2.07,1Zm-4.53-4.9v-2.11l-3.42.52Z" transform="translate(-1.72 -1.9)"/><path class="cls-2" d="M12.75,892.93,2.05,891.3v-2.9L12.75,890Z" transform="translate(-1.72 -1.9)"/><path class="cls-2" d="M12.75,885.74l-8.17-1.23v3l-2.53-.38v-9l2.53.39v3.07l8.17,1.25Z" transform="translate(-1.72 -1.9)"/><path class="cls-2" d="M12.75,878.45l-10.7-1.63v-2.89l10.7,1.62Z" transform="translate(-1.72 -1.9)"/><path class="cls-2" d="M12.75,873.45,2.05,871.8v-2.91l6-3.26-6-.9v-2.9l10.7,1.65v2.6l-6.38,3.5,6.38,1Z" transform="translate(-1.72 -1.9)"/><path class="cls-2" d="M12.9,856.73a4.51,4.51,0,0,1-.69,2.56,3.87,3.87,0,0,1-1.93,1.48,5.87,5.87,0,0,1-2.84.19,7.16,7.16,0,0,1-2.92-1.12,6.07,6.07,0,0,1-1.93-2.14,5.9,5.9,0,0,1-.69-2.83,4.67,4.67,0,0,1,.56-2.39,3.44,3.44,0,0,1,1.47-1.39,3.23,3.23,0,0,1,1.89-.3v3A2.13,2.13,0,0,0,5,854a1.29,1.29,0,0,0-.55.48,1.48,1.48,0,0,0-.21.83,2.1,2.1,0,0,0,.29,1,2.42,2.42,0,0,0,.95.89,5.34,5.34,0,0,0,1.83.57,5.11,5.11,0,0,0,1.59,0,1.86,1.86,0,0,0,.92-.39,1.43,1.43,0,0,0,.43-.64,2.49,2.49,0,0,0,.11-.7,1.85,1.85,0,0,0-.09-.58,2.45,2.45,0,0,0-.23-.49,2.12,2.12,0,0,0-.33-.39,1.56,1.56,0,0,0-.36-.25L9,854.23v1.86l-1.94-.3,0-4.9,5.65.86v1.9l-1.18-.18c.18.21.37.46.58.74a4,4,0,0,1,.53,1A4.3,4.3,0,0,1,12.9,856.73Z" transform="translate(-1.72 -1.9)"/><path class="cls-2" d="M9.54,844.24a2.17,2.17,0,0,1-.3,1.13,2.35,2.35,0,0,1-.82.81,2.16,2.16,0,0,1-2.23,0,2.3,2.3,0,0,1-.8-.81,2.09,2.09,0,0,1-.31-1.13,2.11,2.11,0,0,1,.31-1.13,2.3,2.3,0,0,1,.8-.81,2.16,2.16,0,0,1,2.23,0,2.35,2.35,0,0,1,.82.81A2.2,2.2,0,0,1,9.54,844.24Z" transform="translate(-1.72 -1.9)"/><path class="cls-2" d="M12.75,835.91,2.05,837.5v-2.79l5.74-.77-5.74-2.47v-2l5.74-.79-5.74-2.47V823.4l10.7,4.85v2.14l-5.82.81,5.82,2.59Z" transform="translate(-1.72 -1.9)"/><path class="cls-2" d="M12.75,826.09l-10.7-5.44v-2.94l10.7-2.16v2.85l-2.07.39v3.38l2.07,1Zm-4.53-4.9v-2.12l-3.42.52Z" transform="translate(-1.72 -1.9)"/><path class="cls-2" d="M12.75,814.31l-10.7-1.63v-2.89l10.7,1.63Z" transform="translate(-1.72 -1.9)"/><path class="cls-2" d="M12.75,807.15l-8.17-1.24v3l-2.53-.38v-9l2.53.39V803l8.17,1.25Z" transform="translate(-1.72 -1.9)"/><path class="cls-2" d="M12.75,799.84,2.05,798.2v-2.89l10.7,1.63Z" transform="translate(-1.72 -1.9)"/><path class="cls-2" d="M12.75,794.82l-10.7-1.65v-2.9L8,787l-6-.9v-2.9l10.7,1.65v2.6L6.37,791l6.38,1Z" transform="translate(-1.72 -1.9)"/><path class="cls-2" d="M12.9,778.12a4.51,4.51,0,0,1-.69,2.56,3.8,3.8,0,0,1-1.93,1.47,5.63,5.63,0,0,1-2.84.19,7,7,0,0,1-2.92-1.11,6.07,6.07,0,0,1-1.93-2.14,5.9,5.9,0,0,1-.69-2.83,4.67,4.67,0,0,1,.56-2.39,3.44,3.44,0,0,1,1.47-1.39,3.23,3.23,0,0,1,1.89-.3v3a2.13,2.13,0,0,0-.78.2,1.29,1.29,0,0,0-.55.48,1.48,1.48,0,0,0-.21.83,2.13,2.13,0,0,0,.29,1,2.42,2.42,0,0,0,.95.89,5.34,5.34,0,0,0,1.83.57,5.11,5.11,0,0,0,1.59,0,1.86,1.86,0,0,0,.92-.39,1.43,1.43,0,0,0,.43-.64,2.49,2.49,0,0,0,.11-.7,1.85,1.85,0,0,0-.09-.58,2.45,2.45,0,0,0-.23-.49,2.12,2.12,0,0,0-.33-.39,1.56,1.56,0,0,0-.36-.25L9,775.62v1.86l-1.94-.3,0-4.9,5.65.86V775l-1.18-.18c.18.21.37.46.58.74a4,4,0,0,1,.53,1A4.3,4.3,0,0,1,12.9,778.12Z" transform="translate(-1.72 -1.9)"/><path class="cls-2" d="M9.54,765.64a2.17,2.17,0,0,1-.3,1.13,2.35,2.35,0,0,1-.82.81,2.16,2.16,0,0,1-2.23,0,2.3,2.3,0,0,1-.8-.81,2.09,2.09,0,0,1-.31-1.13,2.14,2.14,0,0,1,.31-1.13,2.3,2.3,0,0,1,.8-.81,2.16,2.16,0,0,1,2.23,0,2.35,2.35,0,0,1,.82.81A2.22,2.22,0,0,1,9.54,765.64Z" transform="translate(-1.72 -1.9)"/><path class="cls-2" d="M12.75,757.29l-10.7,1.59v-2.79l5.74-.77-5.74-2.47v-2L7.79,750l-5.74-2.47v-2.79l10.7,4.85v2.14l-5.82.81,5.82,2.59Z" transform="translate(-1.72 -1.9)"/><path class="cls-2" d="M12.75,747.47,2.05,742v-2.94l10.7-2.16v2.85l-2.07.38v3.39l2.07,1Zm-4.53-4.91v-2.11L4.8,741Z" transform="translate(-1.72 -1.9)"/><path class="cls-2" d="M12.75,735.7l-10.7-1.63v-2.89l10.7,1.62Z" transform="translate(-1.72 -1.9)"/><path class="cls-2" d="M12.75,728.52l-8.17-1.23v3l-2.53-.39v-9l2.53.39v3.06l8.17,1.26Z" transform="translate(-1.72 -1.9)"/><path class="cls-2" d="M12.75,721.24l-10.7-1.63v-2.89l10.7,1.62Z" transform="translate(-1.72 -1.9)"/><path class="cls-2" d="M12.75,716.21l-10.7-1.65v-2.9l6-3.26-6-.91V704.6l10.7,1.64v2.6l-6.38,3.5,6.38,1Z" transform="translate(-1.72 -1.9)"/><path class="cls-2" d="M12.9,699.5a4.51,4.51,0,0,1-.69,2.56,3.87,3.87,0,0,1-1.93,1.48,5.75,5.75,0,0,1-2.84.19,7.16,7.16,0,0,1-2.92-1.12,6.07,6.07,0,0,1-1.93-2.14,5.9,5.9,0,0,1-.69-2.83,4.67,4.67,0,0,1,.56-2.39,3.44,3.44,0,0,1,1.47-1.39,3.23,3.23,0,0,1,1.89-.3v3a2.13,2.13,0,0,0-.78.2,1.29,1.29,0,0,0-.55.48,1.5,1.5,0,0,0-.21.83,2.1,2.1,0,0,0,.29,1,2.51,2.51,0,0,0,.95.9,5.58,5.58,0,0,0,1.83.56,4.82,4.82,0,0,0,1.59,0,2,2,0,0,0,.92-.38,1.48,1.48,0,0,0,.43-.64,2.61,2.61,0,0,0,.11-.71,1.9,1.9,0,0,0-.09-.58,2.45,2.45,0,0,0-.23-.49,2.12,2.12,0,0,0-.33-.39,1.56,1.56,0,0,0-.36-.25L9,697v1.86l-1.94-.3,0-4.9,5.65.86v1.9l-1.18-.17c.18.2.37.45.58.73a4,4,0,0,1,.53,1A4.3,4.3,0,0,1,12.9,699.5Z" transform="translate(-1.72 -1.9)"/><path class="cls-2" d="M9.54,687a2.17,2.17,0,0,1-.3,1.13,2.35,2.35,0,0,1-.82.81,2.16,2.16,0,0,1-2.23,0,2.3,2.3,0,0,1-.8-.81A2.09,2.09,0,0,1,5.08,687a2.11,2.11,0,0,1,.31-1.13,2.3,2.3,0,0,1,.8-.81,2.16,2.16,0,0,1,2.23,0,2.35,2.35,0,0,1,.82.81A2.2,2.2,0,0,1,9.54,687Z" transform="translate(-1.72 -1.9)"/><path class="cls-2" d="M12.75,678.68l-10.7,1.59v-2.79l5.74-.77-5.74-2.48v-2l5.74-.79L2.05,669v-2.79L12.75,671v2.14L6.93,674l5.82,2.59Z" transform="translate(-1.72 -1.9)"/><path class="cls-2" d="M12.75,668.87l-10.7-5.44v-2.94l10.7-2.16v2.85l-2.07.38V665l2.07,1ZM8.22,664v-2.11l-3.42.52Z" transform="translate(-1.72 -1.9)"/><path class="cls-2" d="M12.75,657.09l-10.7-1.63v-2.89l10.7,1.62Z" transform="translate(-1.72 -1.9)"/><path class="cls-2" d="M12.75,649.92l-8.17-1.23v3l-2.53-.39v-9l2.53.39v3.07l8.17,1.25Z" transform="translate(-1.72 -1.9)"/><path class="cls-2" d="M12.75,642.64,2.05,641v-2.89l10.7,1.63Z" transform="translate(-1.72 -1.9)"/><path class="cls-2" d="M12.75,637.6,2.05,636v-2.9l6-3.26-6-.91V626l10.7,1.64v2.6l-6.38,3.5,6.38,1Z" transform="translate(-1.72 -1.9)"/><path class="cls-2" d="M12.9,620.89a4.51,4.51,0,0,1-.69,2.56,3.87,3.87,0,0,1-1.93,1.48,5.87,5.87,0,0,1-2.84.19A7.16,7.16,0,0,1,4.52,624a6.07,6.07,0,0,1-1.93-2.14A5.9,5.9,0,0,1,1.9,619a4.67,4.67,0,0,1,.56-2.39,3.44,3.44,0,0,1,1.47-1.39,3.23,3.23,0,0,1,1.89-.3v3a2.13,2.13,0,0,0-.78.2,1.29,1.29,0,0,0-.55.48,1.48,1.48,0,0,0-.21.83,2.1,2.1,0,0,0,.29,1,2.42,2.42,0,0,0,.95.89,5.34,5.34,0,0,0,1.83.57,5.11,5.11,0,0,0,1.59,0,1.86,1.86,0,0,0,.92-.39,1.43,1.43,0,0,0,.43-.64,2.49,2.49,0,0,0,.11-.7,1.85,1.85,0,0,0-.09-.58,2.45,2.45,0,0,0-.23-.49,2.12,2.12,0,0,0-.33-.39,1.56,1.56,0,0,0-.36-.25L9,618.39v1.86L7.07,620l0-4.9,5.65.86v1.9l-1.18-.18c.18.21.37.46.58.74a4,4,0,0,1,.53,1A4.3,4.3,0,0,1,12.9,620.89Z" transform="translate(-1.72 -1.9)"/><path class="cls-2" d="M9.54,608.41a2.17,2.17,0,0,1-.3,1.13,2.35,2.35,0,0,1-.82.81,2.16,2.16,0,0,1-2.23,0,2.3,2.3,0,0,1-.8-.81,2.09,2.09,0,0,1-.31-1.13,2.11,2.11,0,0,1,.31-1.13,2.3,2.3,0,0,1,.8-.81,2.16,2.16,0,0,1,2.23,0,2.35,2.35,0,0,1,.82.81A2.2,2.2,0,0,1,9.54,608.41Z" transform="translate(-1.72 -1.9)"/><path class="cls-2" d="M12.75,600.07l-10.7,1.59v-2.79l5.74-.77-5.74-2.47v-2l5.74-.79-5.74-2.47v-2.79l10.7,4.85v2.14l-5.82.81L12.75,598Z" transform="translate(-1.72 -1.9)"/><path class="cls-2" d="M12.75,590.26l-10.7-5.44v-2.94l10.7-2.16v2.85l-2.07.39v3.38l2.07,1Zm-4.53-4.9v-2.12l-3.42.52Z" transform="translate(-1.72 -1.9)"/><path class="cls-2" d="M12.75,578.49l-10.7-1.63V574l10.7,1.62Z" transform="translate(-1.72 -1.9)"/><path class="cls-2" d="M12.75,571.31l-8.17-1.23v3l-2.53-.39v-9l2.53.39v3.07l8.17,1.25Z" transform="translate(-1.72 -1.9)"/><path class="cls-2" d="M12.75,564l-10.7-1.64V559.5l10.7,1.63Z" transform="translate(-1.72 -1.9)"/><path class="cls-2" d="M12.75,559l-10.7-1.65v-2.9l6-3.27-6-.9v-2.9L12.75,549v2.6l-6.38,3.5,6.38,1Z" transform="translate(-1.72 -1.9)"/><path class="cls-2" d="M12.9,542.28a4.51,4.51,0,0,1-.69,2.56,3.85,3.85,0,0,1-1.93,1.47,5.63,5.63,0,0,1-2.84.19,6.88,6.88,0,0,1-2.92-1.12,6,6,0,0,1-1.93-2.14,5.86,5.86,0,0,1-.69-2.82,4.73,4.73,0,0,1,.56-2.4,3.5,3.5,0,0,1,1.47-1.39,3.23,3.23,0,0,1,1.89-.29v3a2.13,2.13,0,0,0-.78.19,1.24,1.24,0,0,0-.55.49,1.47,1.47,0,0,0-.21.82,2.13,2.13,0,0,0,.29,1,2.49,2.49,0,0,0,.95.89,5.34,5.34,0,0,0,1.83.57,5.11,5.11,0,0,0,1.59,0,1.86,1.86,0,0,0,.92-.39,1.43,1.43,0,0,0,.43-.64,2.49,2.49,0,0,0,.11-.7,1.81,1.81,0,0,0-.09-.58,2.54,2.54,0,0,0-.23-.5,2,2,0,0,0-.33-.38,1.56,1.56,0,0,0-.36-.25L9,539.77v1.87l-1.94-.3,0-4.9,5.65.86v1.89L11.57,539c.18.21.37.46.58.74a4.07,4.07,0,0,1,.53,1A4.4,4.4,0,0,1,12.9,542.28Z" transform="translate(-1.72 -1.9)"/><path class="cls-2" d="M9.54,529.82a2.17,2.17,0,0,1-.3,1.13,2.47,2.47,0,0,1-.82.82,2.22,2.22,0,0,1-2.23,0,2.41,2.41,0,0,1-.8-.82,2.2,2.2,0,0,1,0-2.25,2.33,2.33,0,0,1,.8-.82,2.16,2.16,0,0,1,2.23,0,2.38,2.38,0,0,1,.82.82A2.16,2.16,0,0,1,9.54,529.82Z" transform="translate(-1.72 -1.9)"/><path class="cls-2" d="M12.75,521.45,2.05,523v-2.78l5.74-.78L2.05,517v-2l5.74-.79-5.74-2.48V509l10.7,4.84v2.14l-5.82.81,5.82,2.59Z" transform="translate(-1.72 -1.9)"/><path class="cls-2" d="M12.75,511.64,2.05,506.2v-2.94l10.7-2.16V504l-2.07.38v3.39l2.07,1Zm-4.53-4.91v-2.11l-3.42.52Z" transform="translate(-1.72 -1.9)"/><path class="cls-2" d="M12.75,499.88l-10.7-1.64v-2.89L12.75,497Z" transform="translate(-1.72 -1.9)"/><path class="cls-2" d="M12.75,492.7l-8.17-1.23v3l-2.53-.39v-9l2.53.39v3.06l8.17,1.26Z" transform="translate(-1.72 -1.9)"/><path class="cls-2" d="M12.75,485.4l-10.7-1.63v-2.89l10.7,1.63Z" transform="translate(-1.72 -1.9)"/><path class="cls-2" d="M12.75,480.38l-10.7-1.65v-2.9l6-3.27-6-.9v-2.9l10.7,1.65V473l-6.38,3.5,6.38,1Z" transform="translate(-1.72 -1.9)"/><path class="cls-2" d="M12.9,463.69a4.51,4.51,0,0,1-.69,2.56,3.8,3.8,0,0,1-1.93,1.47,5.63,5.63,0,0,1-2.84.19,7,7,0,0,1-2.92-1.11,6.1,6.1,0,0,1-1.93-2.15,5.86,5.86,0,0,1-.69-2.82,4.73,4.73,0,0,1,.56-2.4A3.5,3.5,0,0,1,3.93,458a3.23,3.23,0,0,1,1.89-.29v3A2.13,2.13,0,0,0,5,461a1.24,1.24,0,0,0-.55.49,1.47,1.47,0,0,0-.21.82,2.13,2.13,0,0,0,.29,1.05,2.49,2.49,0,0,0,.95.89,5.34,5.34,0,0,0,1.83.57,5.11,5.11,0,0,0,1.59,0,1.86,1.86,0,0,0,.92-.39,1.43,1.43,0,0,0,.43-.64,2.49,2.49,0,0,0,.11-.7,1.81,1.81,0,0,0-.09-.58,2.54,2.54,0,0,0-.23-.5,2.43,2.43,0,0,0-.33-.38,1.56,1.56,0,0,0-.36-.25L9,461.18v1.87l-1.94-.3,0-4.9,5.65.86v1.89l-1.18-.17c.18.21.37.46.58.74a4.07,4.07,0,0,1,.53,1A4.4,4.4,0,0,1,12.9,463.69Z" transform="translate(-1.72 -1.9)"/><path class="cls-2" d="M9.54,451.2a2.17,2.17,0,0,1-.3,1.13,2.35,2.35,0,0,1-.82.81,2.16,2.16,0,0,1-2.23,0,2.3,2.3,0,0,1-.8-.81,2.09,2.09,0,0,1-.31-1.13,2.11,2.11,0,0,1,.31-1.13,2.3,2.3,0,0,1,.8-.81,2.16,2.16,0,0,1,2.23,0,2.35,2.35,0,0,1,.82.81A2.2,2.2,0,0,1,9.54,451.2Z" transform="translate(-1.72 -1.9)"/><path class="cls-2" d="M12.75,442.85l-10.7,1.6v-2.79l5.74-.77-5.74-2.48v-2l5.74-.79-5.74-2.47v-2.79l10.7,4.84v2.15l-5.82.8,5.82,2.6Z" transform="translate(-1.72 -1.9)"/><path class="cls-2" d="M12.75,433,2.05,427.6v-2.93l10.7-2.16v2.84l-2.07.39v3.38l2.07,1.05Zm-4.53-4.9V426l-3.42.53Z" transform="translate(-1.72 -1.9)"/><path class="cls-2" d="M12.75,421.27l-10.7-1.64v-2.89l10.7,1.63Z" transform="translate(-1.72 -1.9)"/><path class="cls-2" d="M12.75,414.09l-8.17-1.24v3l-2.53-.39v-9l2.53.39V410l8.17,1.25Z" transform="translate(-1.72 -1.9)"/><path class="cls-2" d="M12.75,406.8l-10.7-1.63v-2.89l10.7,1.62Z" transform="translate(-1.72 -1.9)"/><path class="cls-2" d="M12.75,401.79l-10.7-1.65v-2.9L8,394l-6-.9v-2.9l10.7,1.65v2.6l-6.38,3.5,6.38,1Z" transform="translate(-1.72 -1.9)"/><path class="cls-2" d="M12.9,385.07a4.51,4.51,0,0,1-.69,2.56,3.87,3.87,0,0,1-1.93,1.48,5.75,5.75,0,0,1-2.84.19,7.16,7.16,0,0,1-2.92-1.12A6.07,6.07,0,0,1,2.59,386a5.9,5.9,0,0,1-.69-2.83,4.67,4.67,0,0,1,.56-2.39,3.44,3.44,0,0,1,1.47-1.39,3.23,3.23,0,0,1,1.89-.3v3a2.13,2.13,0,0,0-.78.2,1.29,1.29,0,0,0-.55.48,1.5,1.5,0,0,0-.21.83,2.1,2.1,0,0,0,.29,1,2.51,2.51,0,0,0,.95.9,5.58,5.58,0,0,0,1.83.56,4.82,4.82,0,0,0,1.59,0,2,2,0,0,0,.92-.38,1.48,1.48,0,0,0,.43-.64,2.61,2.61,0,0,0,.11-.71,1.9,1.9,0,0,0-.09-.58,2.45,2.45,0,0,0-.23-.49,2.12,2.12,0,0,0-.33-.39,1.56,1.56,0,0,0-.36-.25L9,382.57v1.86l-1.94-.3,0-4.9,5.65.86V382l-1.18-.17c.18.2.37.45.58.73a4,4,0,0,1,.53,1A4.3,4.3,0,0,1,12.9,385.07Z" transform="translate(-1.72 -1.9)"/><path class="cls-2" d="M9.54,372.6a2.2,2.2,0,0,1-.3,1.13,2.35,2.35,0,0,1-.82.81,2.22,2.22,0,0,1-2.23,0,2.3,2.3,0,0,1-.8-.81,2.21,2.21,0,0,1,0-2.26,2.41,2.41,0,0,1,.8-.82,2.22,2.22,0,0,1,2.23,0,2.47,2.47,0,0,1,.82.82A2.2,2.2,0,0,1,9.54,372.6Z" transform="translate(-1.72 -1.9)"/><path class="cls-2" d="M12.75,364.24l-10.7,1.59v-2.78l5.74-.78L2.05,359.8v-2L7.79,357l-5.74-2.48v-2.78l10.7,4.84v2.15l-5.82.8,5.82,2.59Z" transform="translate(-1.72 -1.9)"/><path class="cls-2" d="M12.75,354.44,2.05,349v-2.93l10.7-2.16v2.84l-2.07.39v3.38l2.07,1.05Zm-4.53-4.9v-2.12L4.8,348Z" transform="translate(-1.72 -1.9)"/><path class="cls-2" d="M12.75,342.67,2.05,341v-2.89l10.7,1.62Z" transform="translate(-1.72 -1.9)"/><path class="cls-2" d="M12.75,335.49l-8.17-1.23v3l-2.53-.39v-9l2.53.39v3.06l8.17,1.26Z" transform="translate(-1.72 -1.9)"/><path class="cls-2" d="M12.75,328.18l-10.7-1.63v-2.89l10.7,1.62Z" transform="translate(-1.72 -1.9)"/><path class="cls-2" d="M12.75,323.18l-10.7-1.65v-2.9l6-3.27-6-.9v-2.9l10.7,1.65v2.6l-6.38,3.5,6.38,1Z" transform="translate(-1.72 -1.9)"/><path class="cls-2" d="M12.9,306.46a4.51,4.51,0,0,1-.69,2.56,3.87,3.87,0,0,1-1.93,1.48,5.75,5.75,0,0,1-2.84.19,7.16,7.16,0,0,1-2.92-1.12,6.07,6.07,0,0,1-1.93-2.14,5.9,5.9,0,0,1-.69-2.83,4.67,4.67,0,0,1,.56-2.39,3.44,3.44,0,0,1,1.47-1.39,3.23,3.23,0,0,1,1.89-.3v3a2.13,2.13,0,0,0-.78.2,1.29,1.29,0,0,0-.55.48,1.5,1.5,0,0,0-.21.83,2.1,2.1,0,0,0,.29,1,2.51,2.51,0,0,0,.95.9,5.58,5.58,0,0,0,1.83.56,4.82,4.82,0,0,0,1.59,0,2,2,0,0,0,.92-.38,1.48,1.48,0,0,0,.43-.64,2.61,2.61,0,0,0,.11-.71,1.9,1.9,0,0,0-.09-.58,2.45,2.45,0,0,0-.23-.49,2.12,2.12,0,0,0-.33-.39,1.56,1.56,0,0,0-.36-.25L9,304v1.86l-1.94-.3,0-4.9,5.65.86v1.9l-1.18-.17c.18.2.37.45.58.73a4,4,0,0,1,.53,1A4.3,4.3,0,0,1,12.9,306.46Z" transform="translate(-1.72 -1.9)"/><path class="cls-2" d="M9.54,294a2.2,2.2,0,0,1-.3,1.13,2.35,2.35,0,0,1-.82.81,2.22,2.22,0,0,1-2.23,0,2.3,2.3,0,0,1-.8-.81,2.21,2.21,0,0,1,0-2.26,2.41,2.41,0,0,1,.8-.82,2.22,2.22,0,0,1,2.23,0,2.47,2.47,0,0,1,.82.82A2.2,2.2,0,0,1,9.54,294Z" transform="translate(-1.72 -1.9)"/><path class="cls-2" d="M12.75,285.64l-10.7,1.6v-2.79l5.74-.77L2.05,281.2v-2l5.74-.79-5.74-2.47v-2.79L12.75,278v2.15l-5.82.81,5.82,2.59Z" transform="translate(-1.72 -1.9)"/><path class="cls-2" d="M12.75,275.83l-10.7-5.44v-2.94l10.7-2.16v2.85l-2.07.38v3.39l2.07,1Zm-4.53-4.91v-2.11l-3.42.52Z" transform="translate(-1.72 -1.9)"/><path class="cls-2" d="M12.75,264.06l-10.7-1.63v-2.89l10.7,1.62Z" transform="translate(-1.72 -1.9)"/><path class="cls-2" d="M12.75,256.88l-8.17-1.24v3l-2.53-.38v-9l2.53.39v3.07L12.75,254Z" transform="translate(-1.72 -1.9)"/><path class="cls-2" d="M12.75,249.58,2.05,248v-2.89l10.7,1.62Z" transform="translate(-1.72 -1.9)"/><path class="cls-2" d="M12.75,244.58l-10.7-1.65V240l6-3.26-6-.9V233l10.7,1.65v2.6l-6.38,3.5,6.38,1Z" transform="translate(-1.72 -1.9)"/><path class="cls-2" d="M12.9,227.84a4.51,4.51,0,0,1-.69,2.56,3.87,3.87,0,0,1-1.93,1.48,5.75,5.75,0,0,1-2.84.19A7.16,7.16,0,0,1,4.52,231a6.07,6.07,0,0,1-1.93-2.14A5.9,5.9,0,0,1,1.9,226a4.67,4.67,0,0,1,.56-2.39,3.44,3.44,0,0,1,1.47-1.39,3.23,3.23,0,0,1,1.89-.3v3a2.13,2.13,0,0,0-.78.2,1.29,1.29,0,0,0-.55.48,1.5,1.5,0,0,0-.21.83,2.1,2.1,0,0,0,.29,1,2.51,2.51,0,0,0,.95.9,5.58,5.58,0,0,0,1.83.56,4.82,4.82,0,0,0,1.59,0,2,2,0,0,0,.92-.38,1.48,1.48,0,0,0,.43-.64,2.61,2.61,0,0,0,.11-.71,1.9,1.9,0,0,0-.09-.58,2.45,2.45,0,0,0-.23-.49,2.12,2.12,0,0,0-.33-.39,1.56,1.56,0,0,0-.36-.25L9,225.34v1.86l-1.94-.3,0-4.9,5.65.86v1.9l-1.18-.17c.18.2.37.45.58.73a4,4,0,0,1,.53,1A4.3,4.3,0,0,1,12.9,227.84Z" transform="translate(-1.72 -1.9)"/><path class="cls-2" d="M9.54,215.37a2.2,2.2,0,0,1-.3,1.13,2.35,2.35,0,0,1-.82.81,2.22,2.22,0,0,1-2.23,0,2.3,2.3,0,0,1-.8-.81,2.21,2.21,0,0,1,0-2.26,2.3,2.3,0,0,1,.8-.81,2.16,2.16,0,0,1,2.23,0,2.35,2.35,0,0,1,.82.81A2.2,2.2,0,0,1,9.54,215.37Z" transform="translate(-1.72 -1.9)"/><path class="cls-2" d="M12.75,207l-10.7,1.59v-2.79l5.74-.77-5.74-2.47v-2l5.74-.79-5.74-2.47v-2.79l10.7,4.85v2.14l-5.82.81,5.82,2.59Z" transform="translate(-1.72 -1.9)"/><path class="cls-2" d="M12.75,197.22l-10.7-5.44v-2.93l10.7-2.16v2.84l-2.07.39v3.38l2.07,1Zm-4.53-4.9v-2.11l-3.42.52Z" transform="translate(-1.72 -1.9)"/><path class="cls-2" d="M12.75,185.43,2.05,183.8v-2.89l10.7,1.63Z" transform="translate(-1.72 -1.9)"/><path class="cls-2" d="M12.75,178.25,4.58,177v3l-2.53-.39v-9l2.53.39v3.07l8.17,1.25Z" transform="translate(-1.72 -1.9)"/><path class="cls-2" d="M12.75,171l-10.7-1.63v-2.89l10.7,1.62Z" transform="translate(-1.72 -1.9)"/><path class="cls-2" d="M12.75,166l-10.7-1.65v-2.9l6-3.27-6-.9v-2.9L12.75,156v2.6l-6.38,3.5,6.38,1Z" transform="translate(-1.72 -1.9)"/><path class="cls-2" d="M12.9,149.23a4.48,4.48,0,0,1-.69,2.56,3.87,3.87,0,0,1-1.93,1.48,5.75,5.75,0,0,1-2.84.19,7,7,0,0,1-2.92-1.12,6,6,0,0,1-1.93-2.14,5.9,5.9,0,0,1-.69-2.83A4.7,4.7,0,0,1,2.46,145a3.44,3.44,0,0,1,1.47-1.39,3.15,3.15,0,0,1,1.89-.29v3a2.13,2.13,0,0,0-.78.19,1.29,1.29,0,0,0-.55.48,1.5,1.5,0,0,0-.21.83,2.07,2.07,0,0,0,.29,1,2.51,2.51,0,0,0,.95.9,5.14,5.14,0,0,0,1.83.56,5.16,5.16,0,0,0,1.59.05,2.06,2.06,0,0,0,.92-.39,1.48,1.48,0,0,0,.43-.64,2.56,2.56,0,0,0,.11-.71,1.79,1.79,0,0,0-.09-.57,2.3,2.3,0,0,0-.23-.5,2.12,2.12,0,0,0-.33-.39,1.26,1.26,0,0,0-.36-.24L9,146.73v1.86l-1.94-.29,0-4.91,5.65.87v1.89L11.57,146c.18.21.37.45.58.73a4.14,4.14,0,0,1,.53,1A4.34,4.34,0,0,1,12.9,149.23Z" transform="translate(-1.72 -1.9)"/><path class="cls-2" d="M9.54,136.76a2.2,2.2,0,0,1-.3,1.13,2.35,2.35,0,0,1-.82.81,2.22,2.22,0,0,1-2.23,0,2.3,2.3,0,0,1-.8-.81,2.21,2.21,0,0,1,0-2.26,2.41,2.41,0,0,1,.8-.82,2.22,2.22,0,0,1,2.23,0,2.47,2.47,0,0,1,.82.82A2.2,2.2,0,0,1,9.54,136.76Z" transform="translate(-1.72 -1.9)"/><path class="cls-2" d="M12.75,128.43,2.05,130v-2.79l5.74-.77L2.05,124v-2l5.74-.79-5.74-2.48v-2.79l10.7,4.85v2.14l-5.82.81,5.82,2.59Z" transform="translate(-1.72 -1.9)"/><path class="cls-2" d="M12.75,118.59l-10.7-5.44v-2.94l10.7-2.16v2.85l-2.07.39v3.38l2.07,1Zm-4.53-4.9v-2.12l-3.42.52Z" transform="translate(-1.72 -1.9)"/><path class="cls-2" d="M12.75,106.84l-10.7-1.63v-2.9l10.7,1.63Z" transform="translate(-1.72 -1.9)"/><path class="cls-2" d="M12.75,99.66,4.58,98.42v3l-2.53-.39v-9l2.53.39v3.07l8.17,1.25Z" transform="translate(-1.72 -1.9)"/><path class="cls-2" d="M12.75,92.37,2.05,90.74v-2.9l10.7,1.63Z" transform="translate(-1.72 -1.9)"/><path class="cls-2" d="M12.75,87.35,2.05,85.7V82.79l6-3.26-6-.9v-2.9l10.7,1.65V80l-6.38,3.5,6.38,1Z" transform="translate(-1.72 -1.9)"/><path class="cls-2" d="M12.9,70.62a4.51,4.51,0,0,1-.69,2.56,3.87,3.87,0,0,1-1.93,1.48,5.75,5.75,0,0,1-2.84.19,7.16,7.16,0,0,1-2.92-1.12,6.07,6.07,0,0,1-1.93-2.14,5.9,5.9,0,0,1-.69-2.83,4.67,4.67,0,0,1,.56-2.39A3.44,3.44,0,0,1,3.93,65a3.23,3.23,0,0,1,1.89-.3v3a2.13,2.13,0,0,0-.78.2,1.29,1.29,0,0,0-.55.48,1.5,1.5,0,0,0-.21.83,2.07,2.07,0,0,0,.29,1,2.51,2.51,0,0,0,.95.9,5.35,5.35,0,0,0,1.83.56,4.82,4.82,0,0,0,1.59,0,2,2,0,0,0,.92-.38,1.48,1.48,0,0,0,.43-.64A2.56,2.56,0,0,0,10.4,70a1.9,1.9,0,0,0-.09-.58,2.45,2.45,0,0,0-.23-.49,2.12,2.12,0,0,0-.33-.39,1.26,1.26,0,0,0-.36-.24L9,68.12V70l-1.94-.3,0-4.9,5.65.87v1.89l-1.18-.17c.18.21.37.45.58.73a4,4,0,0,1,.53,1A4.3,4.3,0,0,1,12.9,70.62Z" transform="translate(-1.72 -1.9)"/><path class="cls-2" d="M9.54,58.16a2.2,2.2,0,0,1-.3,1.13,2.35,2.35,0,0,1-.82.81,2.22,2.22,0,0,1-2.23,0,2.3,2.3,0,0,1-.8-.81,2.21,2.21,0,0,1,0-2.26,2.3,2.3,0,0,1,.8-.81,2.16,2.16,0,0,1,2.23,0,2.35,2.35,0,0,1,.82.81A2.2,2.2,0,0,1,9.54,58.16Z" transform="translate(-1.72 -1.9)"/><path class="cls-2" d="M12.53,50.28l-10.81.43L2,47.94l5.79-.15L2.38,44.71l.22-2,5.79-.16L3,39.47l.3-2.77,10.11,6-.23,2.13L7.26,45l5.5,3.21Z" transform="translate(-1.72 -1.9)"/><path class="cls-2" d="M13.3,41.5,5,32.81,6,30l10.81,1.53-.94,2.68-2.09-.32-1.12,3.19,1.6,1.67Zm-2.63-6.13.7-2L8,32.73Z" transform="translate(-1.72 -1.9)"/><path class="cls-2" d="M17.21,31.26,8.7,24.57l1.43-2.52,8.5,6.69Z" transform="translate(-1.72 -1.9)"/><path class="cls-2" d="M20.54,25.77,15,19.63,13.08,22l-1.71-1.9,5.7-7L18.78,15l-2,2.38,5.53,6.14Z" transform="translate(-1.72 -1.9)"/><path class="cls-2" d="M24.77,20.92l-5.64-9.24,2.22-1.86L27,19.05Z" transform="translate(-1.72 -1.9)"/><path class="cls-2" d="M27.54,18,24.32,7.64l2.61-1.27,5.55,3.92L30.67,4.54l2.6-1.28L36.5,13.6l-2.34,1.14-5.95-4.19,1.94,6.15Z" transform="translate(-1.72 -1.9)"/><path class="cls-2" d="M41.58,13a4.53,4.53,0,0,1-2.6-.49,3.84,3.84,0,0,1-1.62-1.8,5.76,5.76,0,0,1-.42-2.82,7,7,0,0,1,.89-3,5.93,5.93,0,0,1,2-2.09,5.84,5.84,0,0,1,2.77-.91A4.66,4.66,0,0,1,45,2.3a3.47,3.47,0,0,1,1.5,1.35A3.28,3.28,0,0,1,47,5.52l-3,.23A2.28,2.28,0,0,0,43.69,5a1.22,1.22,0,0,0-.52-.51,1.5,1.5,0,0,0-.84-.14,2.16,2.16,0,0,0-1,.36,2.5,2.5,0,0,0-.82,1,5.33,5.33,0,0,0-.42,1.86,4.73,4.73,0,0,0,.09,1.58,1.82,1.82,0,0,0,.45.89,1.37,1.37,0,0,0,.68.38,2.47,2.47,0,0,0,.71.06,1.83,1.83,0,0,0,.57-.14,2.09,2.09,0,0,0,.83-.62,1.49,1.49,0,0,0,.22-.38l.15-.4-1.85.15.14-2L47,6.79l-.42,5.71-1.88.15.08-1.2c-.2.2-.43.42-.69.64a3.73,3.73,0,0,1-1,.61A4.55,4.55,0,0,1,41.58,13Z" transform="translate(-1.72 -1.9)"/><path class="cls-2" d="M53.68,9.54a2.11,2.11,0,0,1-1.13-.31,2.25,2.25,0,0,1-.81-.81,2.22,2.22,0,0,1,0-2.23,2.3,2.3,0,0,1,.81-.8,2.21,2.21,0,0,1,2.26,0,2.3,2.3,0,0,1,.81.8,2.16,2.16,0,0,1,0,2.23,2.25,2.25,0,0,1-.81.81A2.11,2.11,0,0,1,53.68,9.54Z" transform="translate(-1.72 -1.9)"/><path class="cls-2" d="M62,12.75,60.43,2.05h2.79L64,7.79l2.48-5.74h2l.79,5.74,2.47-5.74h2.79l-4.85,10.7H67.54l-.81-5.82-2.59,5.82Z" transform="translate(-1.72 -1.9)"/><path class="cls-2" d="M71.83,12.75l5.44-10.7h2.94l2.16,10.7H79.52l-.38-2.07H75.75l-1,2.07Zm4.91-4.53h2.11L78.33,4.8Z" transform="translate(-1.72 -1.9)"/><path class="cls-2" d="M83.62,12.75l1.63-10.7h2.89l-1.62,10.7Z" transform="translate(-1.72 -1.9)"/><path class="cls-2" d="M90.8,12.75,92,4.58H89l.39-2.53h9L98,4.58H94.93l-1.25,8.17Z" transform="translate(-1.72 -1.9)"/><path class="cls-2" d="M98.1,12.75l1.63-10.7h2.89L101,12.75Z" transform="translate(-1.72 -1.9)"/><path class="cls-2" d="M103.09,12.75l1.64-10.7h2.91l3.26,6,.91-6h2.89l-1.64,10.7h-2.6L107,6.37l-1,6.38Z" transform="translate(-1.72 -1.9)"/><path class="cls-2" d="M119.81,12.9a4.51,4.51,0,0,1-2.56-.69,3.87,3.87,0,0,1-1.48-1.93,5.87,5.87,0,0,1-.19-2.84,7.16,7.16,0,0,1,1.12-2.92,6.07,6.07,0,0,1,2.14-1.93,5.9,5.9,0,0,1,2.83-.69,4.67,4.67,0,0,1,2.39.56,3.44,3.44,0,0,1,1.39,1.47,3.23,3.23,0,0,1,.3,1.89h-3a2.13,2.13,0,0,0-.2-.78,1.29,1.29,0,0,0-.48-.55,1.48,1.48,0,0,0-.83-.21,2.1,2.1,0,0,0-1,.29,2.51,2.51,0,0,0-.9.95,5.58,5.58,0,0,0-.56,1.83,5.11,5.11,0,0,0,0,1.59,2,2,0,0,0,.38.92,1.46,1.46,0,0,0,.65.43,2.49,2.49,0,0,0,.7.11,1.85,1.85,0,0,0,.58-.09,2,2,0,0,0,.49-.24,1.76,1.76,0,0,0,.39-.32,1.56,1.56,0,0,0,.25-.36l.18-.38h-1.86l.3-1.94,4.9,0-.86,5.65h-1.9l.17-1.18c-.2.18-.45.37-.73.58a4,4,0,0,1-1,.53A4.3,4.3,0,0,1,119.81,12.9Z" transform="translate(-1.72 -1.9)"/><path class="cls-2" d="M132.29,9.54a2.11,2.11,0,0,1-1.13-.31,2.25,2.25,0,0,1-.81-.81,2.22,2.22,0,0,1,0-2.23,2.3,2.3,0,0,1,.81-.8,2.21,2.21,0,0,1,2.26,0,2.3,2.3,0,0,1,.81.8,2.16,2.16,0,0,1,0,2.23,2.25,2.25,0,0,1-.81.81A2.11,2.11,0,0,1,132.29,9.54Z" transform="translate(-1.72 -1.9)"/><path class="cls-2" d="M140.63,12.75,139,2.05h2.79l.77,5.74,2.48-5.74h2l.79,5.74,2.47-5.74h2.79l-4.84,10.7h-2.15l-.8-5.82-2.6,5.82Z" transform="translate(-1.72 -1.9)"/><path class="cls-2" d="M150.45,12.75l5.44-10.7h2.93L161,12.75h-2.84l-.39-2.07h-3.38l-1.05,2.07Zm4.9-4.53h2.12l-.53-3.42Z" transform="translate(-1.72 -1.9)"/><path class="cls-2" d="M162.22,12.75l1.63-10.7h2.89l-1.62,10.7Z" transform="translate(-1.72 -1.9)"/><path class="cls-2" d="M169.39,12.75l1.23-8.17h-3L168,2.05h9l-.39,2.53h-3.07l-1.25,8.17Z" transform="translate(-1.72 -1.9)"/><path class="cls-2" d="M176.71,12.75l1.63-10.7h2.89l-1.62,10.7Z" transform="translate(-1.72 -1.9)"/><path class="cls-2" d="M181.72,12.75l1.64-10.7h2.91l3.26,6,.9-6h2.9l-1.65,10.7h-2.6l-3.5-6.38-1,6.38Z" transform="translate(-1.72 -1.9)"/><path class="cls-2" d="M198.41,12.9a4.51,4.51,0,0,1-2.56-.69,3.85,3.85,0,0,1-1.47-1.93,5.63,5.63,0,0,1-.19-2.84,6.88,6.88,0,0,1,1.12-2.92,6,6,0,0,1,2.14-1.93,5.87,5.87,0,0,1,2.83-.69,4.72,4.72,0,0,1,2.39.56,3.5,3.5,0,0,1,1.39,1.47,3.15,3.15,0,0,1,.29,1.89h-3a2.13,2.13,0,0,0-.19-.78,1.24,1.24,0,0,0-.49-.55,1.47,1.47,0,0,0-.82-.21,2.13,2.13,0,0,0-1.05.29,2.49,2.49,0,0,0-.89.95,5.34,5.34,0,0,0-.57,1.83,5.11,5.11,0,0,0,0,1.59,1.86,1.86,0,0,0,.39.92,1.48,1.48,0,0,0,.64.43,2.54,2.54,0,0,0,.7.11,1.81,1.81,0,0,0,.58-.09,2.1,2.1,0,0,0,.5-.24,1.7,1.7,0,0,0,.38-.32,1.3,1.3,0,0,0,.25-.36l.19-.38h-1.87l.3-1.94,4.9,0-.86,5.65H201.5l.17-1.18c-.21.18-.45.37-.74.58a4.07,4.07,0,0,1-1,.53A4.4,4.4,0,0,1,198.41,12.9Z" transform="translate(-1.72 -1.9)"/><path class="cls-2" d="M210.89,9.54a2.11,2.11,0,0,1-1.13-.31,2.25,2.25,0,0,1-.81-.81,2.22,2.22,0,0,1,0-2.23,2.3,2.3,0,0,1,.81-.8,2.21,2.21,0,0,1,2.26,0,2.3,2.3,0,0,1,.81.8,2.16,2.16,0,0,1,0,2.23,2.25,2.25,0,0,1-.81.81A2.11,2.11,0,0,1,210.89,9.54Z" transform="translate(-1.72 -1.9)"/><path class="cls-2" d="M219.25,12.75l-1.59-10.7h2.79l.77,5.74,2.47-5.74h2l.79,5.74L229,2.05h2.79l-4.85,10.7h-2.14L224,6.93l-2.59,5.82Z" transform="translate(-1.72 -1.9)"/><path class="cls-2" d="M229.07,12.75l5.44-10.7h2.94l2.16,10.7h-2.85l-.39-2.07H233l-1,2.07ZM234,8.22h2.12l-.52-3.42Z" transform="translate(-1.72 -1.9)"/><path class="cls-2" d="M240.85,12.75l1.63-10.7h2.89l-1.62,10.7Z" transform="translate(-1.72 -1.9)"/><path class="cls-2" d="M248,12.75l1.24-8.17h-3l.39-2.53h9l-.39,2.53h-3.07l-1.25,8.17Z" transform="translate(-1.72 -1.9)"/><path class="cls-2" d="M255.3,12.75l1.63-10.7h2.89l-1.63,10.7Z" transform="translate(-1.72 -1.9)"/><path class="cls-2" d="M260.32,12.75,262,2.05h2.91l3.26,6,.9-6h2.9l-1.64,10.7h-2.6l-3.51-6.38-1,6.38Z" transform="translate(-1.72 -1.9)"/><path class="cls-2" d="M277,12.9a4.47,4.47,0,0,1-2.55-.69A3.87,3.87,0,0,1,273,10.28a5.63,5.63,0,0,1-.19-2.84,7,7,0,0,1,1.12-2.92,6,6,0,0,1,2.14-1.93,5.9,5.9,0,0,1,2.83-.69,4.7,4.7,0,0,1,2.39.56,3.44,3.44,0,0,1,1.39,1.47A3.15,3.15,0,0,1,283,5.82h-3a2.13,2.13,0,0,0-.19-.78,1.29,1.29,0,0,0-.48-.55,1.5,1.5,0,0,0-.83-.21,2.07,2.07,0,0,0-1,.29,2.51,2.51,0,0,0-.9.95A5.34,5.34,0,0,0,276,7.35a5.44,5.44,0,0,0,0,1.59,2,2,0,0,0,.39.92,1.48,1.48,0,0,0,.64.43,2.56,2.56,0,0,0,.71.11,1.79,1.79,0,0,0,.57-.09,2.1,2.1,0,0,0,.5-.24,1.76,1.76,0,0,0,.39-.32,1.26,1.26,0,0,0,.24-.36l.19-.38h-1.86L278,7.07l4.91,0L282,12.75h-1.89l.17-1.18c-.21.18-.45.37-.73.58a4.14,4.14,0,0,1-1,.53A4.36,4.36,0,0,1,277,12.9Z" transform="translate(-1.72 -1.9)"/><path class="cls-2" d="M289.5,9.54a2.11,2.11,0,0,1-1.13-.31,2.25,2.25,0,0,1-.81-.81,2.22,2.22,0,0,1,0-2.23,2.3,2.3,0,0,1,.81-.8,2.11,2.11,0,0,1,1.13-.31,2.09,2.09,0,0,1,1.13.31,2.41,2.41,0,0,1,.82.8,2.22,2.22,0,0,1,0,2.23,2.35,2.35,0,0,1-.82.81A2.09,2.09,0,0,1,289.5,9.54Z" transform="translate(-1.72 -1.9)"/><path class="cls-2" d="M297.85,12.75l-1.59-10.7H299l.78,5.74,2.47-5.74h2l.79,5.74,2.48-5.74h2.78l-4.84,10.7h-2.15l-.8-5.82L300,12.75Z" transform="translate(-1.72 -1.9)"/><path class="cls-2" d="M307.69,12.75l5.43-10.7h2.94l2.16,10.7h-2.85L315,10.68H311.6l-1,2.07Zm4.9-4.53h2.11l-.52-3.42Z" transform="translate(-1.72 -1.9)"/><path class="cls-2" d="M319.45,12.75l1.63-10.7H324l-1.63,10.7Z" transform="translate(-1.72 -1.9)"/><path class="cls-2" d="M326.61,12.75l1.23-8.17h-3l.38-2.53h9l-.39,2.53h-3.07l-1.25,8.17Z" transform="translate(-1.72 -1.9)"/><path class="cls-2" d="M333.92,12.75l1.63-10.7h2.89l-1.62,10.7Z" transform="translate(-1.72 -1.9)"/><path class="cls-2" d="M338.94,12.75l1.64-10.7h2.91l3.26,6,.9-6h2.9l-1.65,10.7h-2.6l-3.5-6.38-1,6.38Z" transform="translate(-1.72 -1.9)"/><path class="cls-2" d="M355.63,12.9a4.51,4.51,0,0,1-2.56-.69,3.87,3.87,0,0,1-1.48-1.93,5.75,5.75,0,0,1-.19-2.84,7.16,7.16,0,0,1,1.12-2.92,6.07,6.07,0,0,1,2.14-1.93,5.9,5.9,0,0,1,2.83-.69,4.67,4.67,0,0,1,2.39.56,3.44,3.44,0,0,1,1.39,1.47,3.23,3.23,0,0,1,.3,1.89h-3a2.13,2.13,0,0,0-.2-.78,1.29,1.29,0,0,0-.48-.55,1.5,1.5,0,0,0-.83-.21,2.1,2.1,0,0,0-1,.29,2.51,2.51,0,0,0-.9.95,5.58,5.58,0,0,0-.56,1.83,4.82,4.82,0,0,0,0,1.59,2,2,0,0,0,.38.92,1.46,1.46,0,0,0,.65.43,2.49,2.49,0,0,0,.7.11,1.85,1.85,0,0,0,.58-.09,2,2,0,0,0,.49-.24,1.76,1.76,0,0,0,.39-.32,1.56,1.56,0,0,0,.25-.36l.18-.38h-1.86l.3-1.94,4.9,0-.86,5.65h-1.9l.17-1.18c-.2.18-.45.37-.73.58a4,4,0,0,1-1,.53A4.3,4.3,0,0,1,355.63,12.9Z" transform="translate(-1.72 -1.9)"/><path class="cls-2" d="M368.12,9.54A2.11,2.11,0,0,1,367,9.23a2.25,2.25,0,0,1-.81-.81,2.22,2.22,0,0,1,0-2.23,2.3,2.3,0,0,1,.81-.8,2.21,2.21,0,0,1,2.26,0,2.41,2.41,0,0,1,.82.8,2.22,2.22,0,0,1,0,2.23,2.35,2.35,0,0,1-.82.81A2.11,2.11,0,0,1,368.12,9.54Z" transform="translate(-1.72 -1.9)"/><path class="cls-2" d="M376.47,12.75l-1.59-10.7h2.78l.78,5.74,2.47-5.74h2l.79,5.74,2.48-5.74H389l-4.84,10.7H382l-.8-5.82-2.59,5.82Z" transform="translate(-1.72 -1.9)"/><path class="cls-2" d="M386.29,12.75l5.44-10.7h2.93l2.17,10.7H394l-.39-2.07h-3.38l-1,2.07Zm4.9-4.53h2.12l-.52-3.42Z" transform="translate(-1.72 -1.9)"/><path class="cls-2" d="M398.05,12.75l1.63-10.7h2.89L401,12.75Z" transform="translate(-1.72 -1.9)"/><path class="cls-2" d="M405.21,12.75l1.24-8.17h-3l.39-2.53h9l-.39,2.53h-3.07l-1.25,8.17Z" transform="translate(-1.72 -1.9)"/><path class="cls-2" d="M412.53,12.75l1.63-10.7h2.89l-1.62,10.7Z" transform="translate(-1.72 -1.9)"/><path class="cls-2" d="M417.54,12.75l1.65-10.7h2.9l3.26,6,.91-6h2.89l-1.64,10.7h-2.6l-3.5-6.38-1,6.38Z" transform="translate(-1.72 -1.9)"/><path class="cls-2" d="M434.24,12.9a4.51,4.51,0,0,1-2.56-.69,3.85,3.85,0,0,1-1.47-1.93A5.63,5.63,0,0,1,430,7.44a7,7,0,0,1,1.12-2.92,6,6,0,0,1,2.14-1.93,5.9,5.9,0,0,1,2.83-.69,4.72,4.72,0,0,1,2.39.56,3.5,3.5,0,0,1,1.39,1.47,3.15,3.15,0,0,1,.29,1.89h-3A2.13,2.13,0,0,0,437,5a1.24,1.24,0,0,0-.49-.55,1.47,1.47,0,0,0-.82-.21,2.13,2.13,0,0,0-1.05.29,2.57,2.57,0,0,0-.89.95,5.34,5.34,0,0,0-.57,1.83,5.11,5.11,0,0,0,0,1.59,1.86,1.86,0,0,0,.39.92,1.48,1.48,0,0,0,.64.43,2.54,2.54,0,0,0,.7.11,1.81,1.81,0,0,0,.58-.09,2.1,2.1,0,0,0,.5-.24,1.5,1.5,0,0,0,.38-.32,1.3,1.3,0,0,0,.25-.36l.19-.38h-1.87l.3-1.94,4.9,0-.86,5.65h-1.89l.17-1.18c-.21.18-.45.37-.73.58a4.32,4.32,0,0,1-1,.53A4.4,4.4,0,0,1,434.24,12.9Z" transform="translate(-1.72 -1.9)"/><path class="cls-2" d="M446.73,9.54a2.11,2.11,0,0,1-1.13-.31,2.25,2.25,0,0,1-.81-.81,2.22,2.22,0,0,1,0-2.23,2.3,2.3,0,0,1,.81-.8,2.11,2.11,0,0,1,1.13-.31,2.09,2.09,0,0,1,1.13.31,2.41,2.41,0,0,1,.82.8,2.22,2.22,0,0,1,0,2.23,2.35,2.35,0,0,1-.82.81A2.09,2.09,0,0,1,446.73,9.54Z" transform="translate(-1.72 -1.9)"/><path class="cls-2" d="M455.07,12.75l-1.59-10.7h2.78L457,7.79l2.47-5.74h2l.79,5.74,2.48-5.74h2.78l-4.84,10.7h-2.15l-.8-5.82-2.59,5.82Z" transform="translate(-1.72 -1.9)"/><path class="cls-2" d="M464.88,12.75l5.44-10.7h2.94l2.16,10.7h-2.85l-.39-2.07H468.8l-1,2.07Zm4.9-4.53h2.12l-.52-3.42Z" transform="translate(-1.72 -1.9)"/><path class="cls-2" d="M476.64,12.75l1.64-10.7h2.89l-1.63,10.7Z" transform="translate(-1.72 -1.9)"/><path class="cls-2" d="M483.82,12.75l1.24-8.17h-3l.39-2.53h9L491,4.58H488l-1.25,8.17Z" transform="translate(-1.72 -1.9)"/><path class="cls-2" d="M491.13,12.75l1.64-10.7h2.89L494,12.75Z" transform="translate(-1.72 -1.9)"/><path class="cls-2" d="M496.15,12.75l1.65-10.7h2.9L504,8l.9-6h2.9l-1.65,10.7h-2.6L500,6.37l-1,6.38Z" transform="translate(-1.72 -1.9)"/><path class="cls-2" d="M512.87,12.9a4.51,4.51,0,0,1-2.56-.69,3.87,3.87,0,0,1-1.48-1.93,5.87,5.87,0,0,1-.19-2.84,7.16,7.16,0,0,1,1.12-2.92,6.07,6.07,0,0,1,2.14-1.93,5.9,5.9,0,0,1,2.83-.69,4.67,4.67,0,0,1,2.39.56,3.44,3.44,0,0,1,1.39,1.47,3.23,3.23,0,0,1,.3,1.89h-3a2.13,2.13,0,0,0-.2-.78,1.29,1.29,0,0,0-.48-.55,1.48,1.48,0,0,0-.83-.21,2.1,2.1,0,0,0-1,.29,2.42,2.42,0,0,0-.89.95,5.34,5.34,0,0,0-.57,1.83,5.11,5.11,0,0,0,0,1.59,1.86,1.86,0,0,0,.39.92,1.38,1.38,0,0,0,.64.43,2.49,2.49,0,0,0,.7.11,1.85,1.85,0,0,0,.58-.09,2,2,0,0,0,.49-.24,1.76,1.76,0,0,0,.39-.32,1.56,1.56,0,0,0,.25-.36l.18-.38h-1.86l.3-1.94,4.9,0-.86,5.65H516l.18-1.18c-.21.18-.46.37-.74.58a4,4,0,0,1-1,.53A4.3,4.3,0,0,1,512.87,12.9Z" transform="translate(-1.72 -1.9)"/><path class="cls-2" d="M525.34,9.54a2.11,2.11,0,0,1-1.13-.31,2.25,2.25,0,0,1-.81-.81,2.22,2.22,0,0,1,0-2.23,2.3,2.3,0,0,1,.81-.8,2.21,2.21,0,0,1,2.26,0,2.41,2.41,0,0,1,.82.8,2.22,2.22,0,0,1,0,2.23,2.35,2.35,0,0,1-.82.81A2.11,2.11,0,0,1,525.34,9.54Z" transform="translate(-1.72 -1.9)"/><path class="cls-2" d="M533.68,12.75l-1.59-10.7h2.78l.78,5.74,2.47-5.74h2l.79,5.74,2.48-5.74h2.78l-4.84,10.7H539.2l-.81-5.82-2.59,5.82Z" transform="translate(-1.72 -1.9)"/><path class="cls-2" d="M543.5,12.75l5.44-10.7h2.94L554,12.75h-2.85l-.38-2.07h-3.39l-1,2.07Zm4.91-4.53h2.11L550,4.8Z" transform="translate(-1.72 -1.9)"/><path class="cls-2" d="M555.27,12.75l1.63-10.7h2.89l-1.62,10.7Z" transform="translate(-1.72 -1.9)"/><path class="cls-2" d="M562.46,12.75l1.23-8.17h-3l.38-2.53h9l-.39,2.53h-3.07l-1.25,8.17Z" transform="translate(-1.72 -1.9)"/><path class="cls-2" d="M569.75,12.75l1.63-10.7h2.89l-1.62,10.7Z" transform="translate(-1.72 -1.9)"/><path class="cls-2" d="M574.76,12.75l1.65-10.7h2.9l3.27,6,.9-6h2.9l-1.65,10.7h-2.6l-3.5-6.38-1,6.38Z" transform="translate(-1.72 -1.9)"/><path class="cls-2" d="M591.47,12.9a4.48,4.48,0,0,1-2.56-.69,3.87,3.87,0,0,1-1.48-1.93,5.75,5.75,0,0,1-.19-2.84,7.16,7.16,0,0,1,1.12-2.92,6,6,0,0,1,2.14-1.93,5.9,5.9,0,0,1,2.83-.69,4.7,4.7,0,0,1,2.39.56,3.44,3.44,0,0,1,1.39,1.47,3.15,3.15,0,0,1,.29,1.89h-3A2.13,2.13,0,0,0,594.2,5a1.29,1.29,0,0,0-.48-.55,1.5,1.5,0,0,0-.83-.21,2.07,2.07,0,0,0-1,.29,2.51,2.51,0,0,0-.9.95,5.14,5.14,0,0,0-.56,1.83,5.16,5.16,0,0,0,0,1.59,2.06,2.06,0,0,0,.39.92,1.48,1.48,0,0,0,.64.43,2.56,2.56,0,0,0,.71.11,1.79,1.79,0,0,0,.57-.09,1.93,1.93,0,0,0,.5-.24,1.76,1.76,0,0,0,.39-.32,1.26,1.26,0,0,0,.24-.36L594,9h-1.86l.29-1.94,4.91,0-.87,5.65h-1.89l.17-1.18c-.21.18-.45.37-.73.58a4.14,4.14,0,0,1-1,.53A4.3,4.3,0,0,1,591.47,12.9Z" transform="translate(-1.72 -1.9)"/><path class="cls-2" d="M603.93,9.54a2.08,2.08,0,0,1-1.12-.31,2.27,2.27,0,0,1-.82-.81,2.22,2.22,0,0,1,0-2.23,2.33,2.33,0,0,1,.82-.8,2.2,2.2,0,0,1,2.25,0,2.33,2.33,0,0,1,.82.8,2.22,2.22,0,0,1,0,2.23,2.27,2.27,0,0,1-.82.81A2.09,2.09,0,0,1,603.93,9.54Z" transform="translate(-1.72 -1.9)"/><path class="cls-2" d="M612.3,12.75l-1.59-10.7h2.79l.77,5.74,2.47-5.74h2l.79,5.74L622,2.05h2.79L620,12.75h-2.14L617,6.93l-2.59,5.82Z" transform="translate(-1.72 -1.9)"/><path class="cls-2" d="M622.12,12.75l5.44-10.7h2.93l2.16,10.7h-2.84l-.39-2.07H626l-1,2.07ZM627,8.22h2.12l-.53-3.42Z" transform="translate(-1.72 -1.9)"/><path class="cls-2" d="M633.87,12.75l1.64-10.7h2.89l-1.63,10.7Z" transform="translate(-1.72 -1.9)"/><path class="cls-2" d="M641.05,12.75l1.24-8.17h-3l.38-2.53h9l-.39,2.53h-3.07l-1.25,8.17Z" transform="translate(-1.72 -1.9)"/><path class="cls-2" d="M648.36,12.75,650,2.05h2.89l-1.63,10.7Z" transform="translate(-1.72 -1.9)"/><path class="cls-2" d="M653.35,12.75,655,2.05h2.91l3.26,6,.9-6H665l-1.65,10.7h-2.6l-3.5-6.38-1,6.38Z" transform="translate(-1.72 -1.9)"/><path class="cls-2" d="M670.07,12.9a4.51,4.51,0,0,1-2.56-.69A3.8,3.8,0,0,1,666,10.28a5.63,5.63,0,0,1-.19-2.84A7,7,0,0,1,667,4.52a6,6,0,0,1,2.15-1.93,5.83,5.83,0,0,1,2.82-.69,4.67,4.67,0,0,1,2.39.56,3.44,3.44,0,0,1,1.39,1.47,3.23,3.23,0,0,1,.3,1.89h-3a2.13,2.13,0,0,0-.2-.78,1.22,1.22,0,0,0-.48-.55,1.48,1.48,0,0,0-.83-.21,2.13,2.13,0,0,0-1,.29,2.42,2.42,0,0,0-.89.95A5.34,5.34,0,0,0,669,7.35a5.11,5.11,0,0,0,0,1.59,1.86,1.86,0,0,0,.39.92,1.43,1.43,0,0,0,.64.43,2.49,2.49,0,0,0,.7.11,1.81,1.81,0,0,0,.58-.09,1.86,1.86,0,0,0,.49-.24,1.76,1.76,0,0,0,.39-.32,1.56,1.56,0,0,0,.25-.36l.18-.38h-1.86l.3-1.94,4.9,0-.86,5.65h-1.89l.17-1.18c-.21.18-.46.37-.74.58a4,4,0,0,1-1,.53A4.3,4.3,0,0,1,670.07,12.9Z" transform="translate(-1.72 -1.9)"/><path class="cls-2" d="M682.54,9.54a2.08,2.08,0,0,1-1.12-.31,2.27,2.27,0,0,1-.82-.81,2.22,2.22,0,0,1,0-2.23,2.33,2.33,0,0,1,.82-.8,2.2,2.2,0,0,1,2.25,0,2.33,2.33,0,0,1,.82.8,2.22,2.22,0,0,1,0,2.23,2.27,2.27,0,0,1-.82.81A2.09,2.09,0,0,1,682.54,9.54Z" transform="translate(-1.72 -1.9)"/><path class="cls-2" d="M690.9,12.75l-1.59-10.7h2.79l.77,5.74,2.47-5.74h2l.79,5.74,2.47-5.74h2.79l-4.85,10.7h-2.14l-.81-5.82L693,12.75Z" transform="translate(-1.72 -1.9)"/><path class="cls-2" d="M700.72,12.75l5.43-10.7h2.94l2.16,10.7H708.4L708,10.68h-3.39l-1,2.07Zm4.9-4.53h2.11l-.52-3.42Z" transform="translate(-1.72 -1.9)"/><path class="cls-2" d="M712.49,12.75l1.63-10.7H717l-1.62,10.7Z" transform="translate(-1.72 -1.9)"/><path class="cls-2" d="M719.65,12.75l1.24-8.17h-3l.39-2.53h9l-.39,2.53h-3.07l-1.25,8.17Z" transform="translate(-1.72 -1.9)"/><path class="cls-2" d="M727,12.75l1.63-10.7h2.89l-1.63,10.7Z" transform="translate(-1.72 -1.9)"/><path class="cls-2" d="M732,12.75l1.65-10.7h2.91l3.26,6,.9-6h2.9l-1.65,10.7h-2.6l-3.5-6.38-1,6.38Z" transform="translate(-1.72 -1.9)"/><path class="cls-2" d="M748.69,12.9a4.51,4.51,0,0,1-2.56-.69,3.8,3.8,0,0,1-1.47-1.93,5.63,5.63,0,0,1-.19-2.84,7,7,0,0,1,1.11-2.92,6,6,0,0,1,2.15-1.93,5.83,5.83,0,0,1,2.82-.69,4.67,4.67,0,0,1,2.39.56,3.44,3.44,0,0,1,1.39,1.47,3.16,3.16,0,0,1,.3,1.89h-3a2.13,2.13,0,0,0-.2-.78,1.22,1.22,0,0,0-.48-.55,1.48,1.48,0,0,0-.83-.21,2.13,2.13,0,0,0-1,.29,2.42,2.42,0,0,0-.89.95,5.34,5.34,0,0,0-.57,1.83,5.11,5.11,0,0,0,0,1.59,1.86,1.86,0,0,0,.39.92,1.43,1.43,0,0,0,.64.43,2.49,2.49,0,0,0,.7.11,1.81,1.81,0,0,0,.58-.09,1.86,1.86,0,0,0,.49-.24,1.76,1.76,0,0,0,.39-.32,1.56,1.56,0,0,0,.25-.36l.18-.38h-1.86l.3-1.94,4.9,0-.86,5.65h-1.89l.17-1.18c-.21.18-.46.37-.74.58a4,4,0,0,1-1,.53A4.3,4.3,0,0,1,748.69,12.9Z" transform="translate(-1.72 -1.9)"/><path class="cls-2" d="M761.15,9.54A2.11,2.11,0,0,1,760,9.23a2.25,2.25,0,0,1-.81-.81,2.22,2.22,0,0,1,0-2.23,2.3,2.3,0,0,1,.81-.8,2.21,2.21,0,0,1,2.26,0,2.41,2.41,0,0,1,.82.8,2.22,2.22,0,0,1,0,2.23,2.35,2.35,0,0,1-.82.81A2.11,2.11,0,0,1,761.15,9.54Z" transform="translate(-1.72 -1.9)"/><path class="cls-2" d="M769.5,12.75l-1.6-10.7h2.79l.77,5.74,2.48-5.74h2l.79,5.74,2.47-5.74H782l-4.84,10.7H775l-.8-5.82-2.6,5.82Z" transform="translate(-1.72 -1.9)"/><path class="cls-2" d="M779.32,12.75l5.44-10.7h2.94l2.16,10.7H787l-.39-2.07h-3.38l-1,2.07Zm4.91-4.53h2.11l-.52-3.42Z" transform="translate(-1.72 -1.9)"/><path class="cls-2" d="M791.09,12.75l1.63-10.7h2.89L794,12.75Z" transform="translate(-1.72 -1.9)"/><path class="cls-2" d="M798.27,12.75l1.24-8.17h-3l.39-2.53h9l-.39,2.53H802.4l-1.25,8.17Z" transform="translate(-1.72 -1.9)"/><path class="cls-2" d="M805.56,12.75l1.63-10.7h2.89l-1.62,10.7Z" transform="translate(-1.72 -1.9)"/><path class="cls-2" d="M810.58,12.75l1.65-10.7h2.91l3.26,6,.9-6h2.9l-1.65,10.7H818l-3.5-6.38-1,6.38Z" transform="translate(-1.72 -1.9)"/><path class="cls-2" d="M827.3,12.9a4.48,4.48,0,0,1-2.56-.69,3.87,3.87,0,0,1-1.48-1.93,5.75,5.75,0,0,1-.19-2.84,7.16,7.16,0,0,1,1.12-2.92,6,6,0,0,1,2.14-1.93,5.9,5.9,0,0,1,2.83-.69,4.7,4.7,0,0,1,2.39.56,3.44,3.44,0,0,1,1.39,1.47,3.15,3.15,0,0,1,.29,1.89h-3A2.13,2.13,0,0,0,830,5a1.29,1.29,0,0,0-.48-.55,1.5,1.5,0,0,0-.83-.21,2.07,2.07,0,0,0-1,.29,2.51,2.51,0,0,0-.9.95,5.35,5.35,0,0,0-.56,1.83,5.16,5.16,0,0,0-.05,1.59,2.06,2.06,0,0,0,.39.92,1.48,1.48,0,0,0,.64.43,2.56,2.56,0,0,0,.71.11,1.79,1.79,0,0,0,.57-.09,1.93,1.93,0,0,0,.5-.24,1.76,1.76,0,0,0,.39-.32,1.26,1.26,0,0,0,.24-.36L829.8,9h-1.86l.3-1.94,4.9,0-.87,5.65h-1.89l.17-1.18c-.21.18-.45.37-.73.58a4.14,4.14,0,0,1-1,.53A4.3,4.3,0,0,1,827.3,12.9Z" transform="translate(-1.72 -1.9)"/><path class="cls-2" d="M839.77,9.54a2.11,2.11,0,0,1-1.13-.31,2.25,2.25,0,0,1-.81-.81,2.22,2.22,0,0,1,0-2.23,2.3,2.3,0,0,1,.81-.8,2.11,2.11,0,0,1,1.13-.31,2.09,2.09,0,0,1,1.13.31,2.41,2.41,0,0,1,.82.8,2.22,2.22,0,0,1,0,2.23,2.35,2.35,0,0,1-.82.81A2.09,2.09,0,0,1,839.77,9.54Z" transform="translate(-1.72 -1.9)"/><path class="cls-2" d="M848.1,12.75l-1.59-10.7h2.78l.78,5.74,2.47-5.74h2l.79,5.74,2.48-5.74h2.78l-4.84,10.7h-2.14l-.81-5.82-2.59,5.82Z" transform="translate(-1.72 -1.9)"/><path class="cls-2" d="M857.93,12.75l5.44-10.7h2.94l2.16,10.7h-2.85l-.38-2.07h-3.39l-1,2.07Zm4.91-4.53H865l-.52-3.42Z" transform="translate(-1.72 -1.9)"/><path class="cls-2" d="M869.71,12.75l1.63-10.7h2.89l-1.62,10.7Z" transform="translate(-1.72 -1.9)"/><path class="cls-2" d="M876.88,12.75l1.24-8.17h-3l.39-2.53h9l-.39,2.53H881l-1.25,8.17Z" transform="translate(-1.72 -1.9)"/><path class="cls-2" d="M884.18,12.75l1.63-10.7h2.89l-1.62,10.7Z" transform="translate(-1.72 -1.9)"/><path class="cls-2" d="M889.18,12.75l1.65-10.7h2.91L897,8l.9-6h2.9l-1.65,10.7h-2.6l-3.5-6.38-1,6.38Z" transform="translate(-1.72 -1.9)"/><path class="cls-2" d="M905.9,12.9a4.51,4.51,0,0,1-2.56-.69,3.8,3.8,0,0,1-1.47-1.93,5.63,5.63,0,0,1-.19-2.84,7,7,0,0,1,1.11-2.92,6.1,6.1,0,0,1,2.15-1.93,5.86,5.86,0,0,1,2.82-.69,4.73,4.73,0,0,1,2.4.56,3.56,3.56,0,0,1,1.39,1.47,3.23,3.23,0,0,1,.29,1.89h-3a2.35,2.35,0,0,0-.19-.78,1.31,1.31,0,0,0-.49-.55,1.48,1.48,0,0,0-.83-.21,2.13,2.13,0,0,0-1,.29,2.49,2.49,0,0,0-.89.95,5.34,5.34,0,0,0-.57,1.83,5.11,5.11,0,0,0,0,1.59,1.86,1.86,0,0,0,.39.92,1.43,1.43,0,0,0,.64.43,2.49,2.49,0,0,0,.7.11,1.81,1.81,0,0,0,.58-.09,1.86,1.86,0,0,0,.49-.24,1.76,1.76,0,0,0,.39-.32,1.56,1.56,0,0,0,.25-.36L908.4,9h-1.86l.3-1.94,4.9,0-.86,5.65H909l.17-1.18c-.21.18-.46.37-.74.58a4,4,0,0,1-1,.53A4.3,4.3,0,0,1,905.9,12.9Z" transform="translate(-1.72 -1.9)"/><path class="cls-2" d="M918.37,9.54a2.11,2.11,0,0,1-1.13-.31,2.25,2.25,0,0,1-.81-.81,2.22,2.22,0,0,1,0-2.23,2.3,2.3,0,0,1,.81-.8,2.21,2.21,0,0,1,2.26,0,2.3,2.3,0,0,1,.81.8,2.16,2.16,0,0,1,0,2.23,2.25,2.25,0,0,1-.81.81A2.11,2.11,0,0,1,918.37,9.54Z" transform="translate(-1.72 -1.9)"/><path class="cls-2" d="M926.72,12.75l-1.6-10.7h2.79l.78,5.74,2.47-5.74h2L934,7.79l2.47-5.74h2.79l-4.84,10.7h-2.15l-.8-5.82-2.6,5.82Z" transform="translate(-1.72 -1.9)"/><path class="cls-2" d="M936.54,12.75,942,2.05h2.93l2.16,10.7h-2.84l-.39-2.07h-3.38l-1.05,2.07Zm4.9-4.53h2.12L943,4.8Z" transform="translate(-1.72 -1.9)"/><path class="cls-2" d="M948.3,12.75l1.63-10.7h2.89l-1.62,10.7Z" transform="translate(-1.72 -1.9)"/><path class="cls-2" d="M955.49,12.75l1.24-8.17h-3l.39-2.53h9l-.38,2.53h-3.07l-1.25,8.17Z" transform="translate(-1.72 -1.9)"/><path class="cls-2" d="M962.78,12.75l1.63-10.7h2.89l-1.62,10.7Z" transform="translate(-1.72 -1.9)"/><path class="cls-2" d="M967.79,12.75l1.64-10.7h2.91l3.26,6,.9-6h2.9l-1.64,10.7h-2.6l-3.51-6.38-1,6.38Z" transform="translate(-1.72 -1.9)"/><path class="cls-2" d="M984.51,12.9a4.51,4.51,0,0,1-2.56-.69,3.85,3.85,0,0,1-1.47-1.93,5.63,5.63,0,0,1-.19-2.84,6.88,6.88,0,0,1,1.12-2.92,6,6,0,0,1,2.14-1.93,5.9,5.9,0,0,1,2.83-.69,4.72,4.72,0,0,1,2.39.56,3.5,3.5,0,0,1,1.39,1.47,3.15,3.15,0,0,1,.29,1.89h-3a2.13,2.13,0,0,0-.19-.78,1.24,1.24,0,0,0-.49-.55,1.47,1.47,0,0,0-.82-.21,2.13,2.13,0,0,0-1.05.29,2.57,2.57,0,0,0-.89.95,5.34,5.34,0,0,0-.57,1.83,5.11,5.11,0,0,0,0,1.59,1.86,1.86,0,0,0,.39.92,1.48,1.48,0,0,0,.64.43,2.54,2.54,0,0,0,.7.11,1.81,1.81,0,0,0,.58-.09,2.1,2.1,0,0,0,.5-.24,1.5,1.5,0,0,0,.38-.32,1.3,1.3,0,0,0,.25-.36L987,9h-1.87l.3-1.94,4.9,0-.86,5.65H987.6l.17-1.18c-.21.18-.45.37-.73.58a4.32,4.32,0,0,1-1,.53A4.4,4.4,0,0,1,984.51,12.9Z" transform="translate(-1.72 -1.9)"/><path class="cls-2" d="M997,9.54a2.11,2.11,0,0,1-1.13-.31,2.25,2.25,0,0,1-.81-.81,2.16,2.16,0,0,1,0-2.23,2.3,2.3,0,0,1,.81-.8,2.21,2.21,0,0,1,2.26,0,2.3,2.3,0,0,1,.81.8,2.16,2.16,0,0,1,0,2.23,2.25,2.25,0,0,1-.81.81A2.11,2.11,0,0,1,997,9.54Z" transform="translate(-1.72 -1.9)"/><path class="cls-2" d="M1005.33,12.75l-1.6-10.7h2.79l.78,5.74,2.47-5.74h2l.79,5.74L1015,2.05h2.79L1013,12.75h-2.15l-.8-5.82-2.6,5.82Z" transform="translate(-1.72 -1.9)"/><path class="cls-2" d="M1015.15,12.75l5.44-10.7h2.93l2.16,10.7h-2.84l-.39-2.07h-3.38L1018,12.75Zm4.9-4.53h2.12l-.53-3.42Z" transform="translate(-1.72 -1.9)"/><path class="cls-2" d="M1026.9,12.75l1.63-10.7h2.89l-1.62,10.7Z" transform="translate(-1.72 -1.9)"/><path class="cls-2" d="M1034.09,12.75l1.24-8.17h-3l.38-2.53h9l-.39,2.53h-3.07L1037,12.75Z" transform="translate(-1.72 -1.9)"/><path class="cls-2" d="M1041.39,12.75,1043,2.05h2.89l-1.62,10.7Z" transform="translate(-1.72 -1.9)"/><path class="cls-2" d="M1046.4,12.75l1.65-10.7h2.9l3.27,6,.9-6h2.9l-1.65,10.7h-2.6l-3.5-6.38-1,6.38Z" transform="translate(-1.72 -1.9)"/><path class="cls-2" d="M1063.12,12.9a4.47,4.47,0,0,1-2.55-.69,3.87,3.87,0,0,1-1.48-1.93,5.63,5.63,0,0,1-.19-2.84A7,7,0,0,1,1060,4.52a6,6,0,0,1,2.14-1.93A5.9,5.9,0,0,1,1065,1.9a4.7,4.7,0,0,1,2.39.56,3.5,3.5,0,0,1,1.39,1.47,3.15,3.15,0,0,1,.29,1.89h-3a2.13,2.13,0,0,0-.19-.78,1.29,1.29,0,0,0-.48-.55,1.5,1.5,0,0,0-.83-.21,2.13,2.13,0,0,0-1,.29,2.57,2.57,0,0,0-.89.95,5.34,5.34,0,0,0-.57,1.83,5.44,5.44,0,0,0,0,1.59,2,2,0,0,0,.39.92,1.48,1.48,0,0,0,.64.43,2.56,2.56,0,0,0,.71.11,1.79,1.79,0,0,0,.57-.09,2.1,2.1,0,0,0,.5-.24,1.76,1.76,0,0,0,.39-.32,1.26,1.26,0,0,0,.24-.36l.19-.38h-1.86l.29-1.94,4.91,0-.87,5.65h-1.89l.17-1.18c-.21.18-.45.37-.73.58a4.14,4.14,0,0,1-1,.53A4.36,4.36,0,0,1,1063.12,12.9Z" transform="translate(-1.72 -1.9)"/><path class="cls-2" d="M1075.58,9.54a2.09,2.09,0,0,1-1.13-.31,2.25,2.25,0,0,1-.81-.81,2.16,2.16,0,0,1,0-2.23,2.3,2.3,0,0,1,.81-.8,2.2,2.2,0,0,1,2.25,0,2.25,2.25,0,0,1,.82.8,2.16,2.16,0,0,1,0,2.23,2.2,2.2,0,0,1-.82.81A2.08,2.08,0,0,1,1075.58,9.54Z" transform="translate(-1.72 -1.9)"/><path class="cls-2" d="M1083.94,12.75l-1.6-10.7h2.79l.77,5.74,2.48-5.74h2l.79,5.74,2.47-5.74h2.79l-4.85,10.7h-2.14l-.81-5.82-2.59,5.82Z" transform="translate(-1.72 -1.9)"/><path class="cls-2" d="M1093.75,12.75l5.43-10.7h2.94l2.16,10.7h-2.85l-.38-2.07h-3.39l-1,2.07Zm4.9-4.53h2.11l-.52-3.42Z" transform="translate(-1.72 -1.9)"/><path class="cls-2" d="M1105.52,12.75l1.63-10.7H1110l-1.62,10.7Z" transform="translate(-1.72 -1.9)"/><path class="cls-2" d="M1112.69,12.75l1.24-8.17h-3l.39-2.53h9l-.38,2.53h-3.07l-1.26,8.17Z" transform="translate(-1.72 -1.9)"/><path class="cls-2" d="M1120,12.75l1.63-10.7h2.89l-1.62,10.7Z" transform="translate(-1.72 -1.9)"/><path class="cls-2" d="M1125,12.75l1.65-10.7h2.9l3.27,6,.9-6h2.9L1135,12.75h-2.6l-3.5-6.38-1,6.38Z" transform="translate(-1.72 -1.9)"/><path class="cls-2" d="M1141.71,12.9a4.51,4.51,0,0,1-2.56-.69,3.85,3.85,0,0,1-1.47-1.93,5.63,5.63,0,0,1-.19-2.84,6.88,6.88,0,0,1,1.12-2.92,6,6,0,0,1,2.14-1.93,5.87,5.87,0,0,1,2.83-.69,4.72,4.72,0,0,1,2.39.56,3.5,3.5,0,0,1,1.39,1.47,3.15,3.15,0,0,1,.29,1.89h-3a2.13,2.13,0,0,0-.19-.78,1.24,1.24,0,0,0-.49-.55,1.47,1.47,0,0,0-.82-.21,2.13,2.13,0,0,0-1.05.29,2.49,2.49,0,0,0-.89.95,5.34,5.34,0,0,0-.57,1.83,5.11,5.11,0,0,0,0,1.59,1.86,1.86,0,0,0,.39.92,1.48,1.48,0,0,0,.64.43,2.54,2.54,0,0,0,.7.11,1.81,1.81,0,0,0,.58-.09,2.1,2.1,0,0,0,.5-.24,1.7,1.7,0,0,0,.38-.32,1.3,1.3,0,0,0,.25-.36l.19-.38h-1.87l.3-1.94,4.9,0-.86,5.65h-1.89l.17-1.18c-.21.18-.45.37-.74.58a4.07,4.07,0,0,1-1,.53A4.4,4.4,0,0,1,1141.71,12.9Z" transform="translate(-1.72 -1.9)"/><path class="cls-2" d="M1154.19,9.54a2.11,2.11,0,0,1-1.13-.31,2.25,2.25,0,0,1-.81-.81,2.22,2.22,0,0,1,0-2.23,2.3,2.3,0,0,1,.81-.8,2.21,2.21,0,0,1,2.26,0,2.41,2.41,0,0,1,.82.8,2.22,2.22,0,0,1,0,2.23,2.35,2.35,0,0,1-.82.81A2.11,2.11,0,0,1,1154.19,9.54Z" transform="translate(-1.72 -1.9)"/><path class="cls-2" d="M1162.52,12.75l-1.59-10.7h2.78l.78,5.74L1167,2.05h2l.79,5.74,2.48-5.74H1175l-4.84,10.7H1168l-.81-5.82-2.59,5.82Z" transform="translate(-1.72 -1.9)"/><path class="cls-2" d="M1172.34,12.75l5.44-10.7h2.94l2.16,10.7H1180l-.38-2.07h-3.39l-1,2.07Zm4.91-4.53h2.11l-.52-3.42Z" transform="translate(-1.72 -1.9)"/><path class="cls-2" d="M1184.13,12.75l1.63-10.7h2.89L1187,12.75Z" transform="translate(-1.72 -1.9)"/><path class="cls-2" d="M1191.31,12.75l1.23-8.17h-3l.39-2.53h9l-.39,2.53h-3.07l-1.25,8.17Z" transform="translate(-1.72 -1.9)"/><path class="cls-2" d="M1198.6,12.75l1.63-10.7h2.89l-1.62,10.7Z" transform="translate(-1.72 -1.9)"/><path class="cls-2" d="M1203.62,12.75l1.65-10.7h2.9l3.27,6,.9-6h2.9l-1.65,10.7H1211l-3.5-6.38-1,6.38Z" transform="translate(-1.72 -1.9)"/><path class="cls-2" d="M1220.34,12.9a4.51,4.51,0,0,1-2.56-.69,3.87,3.87,0,0,1-1.48-1.93,5.75,5.75,0,0,1-.19-2.84,7.16,7.16,0,0,1,1.12-2.92,6.07,6.07,0,0,1,2.14-1.93,5.9,5.9,0,0,1,2.83-.69,4.67,4.67,0,0,1,2.39.56A3.44,3.44,0,0,1,1226,3.93a3.23,3.23,0,0,1,.3,1.89h-3a2.13,2.13,0,0,0-.2-.78,1.29,1.29,0,0,0-.48-.55,1.5,1.5,0,0,0-.83-.21,2.1,2.1,0,0,0-1,.29,2.51,2.51,0,0,0-.9.95,5.58,5.58,0,0,0-.56,1.83,4.82,4.82,0,0,0,0,1.59,2,2,0,0,0,.38.92,1.48,1.48,0,0,0,.64.43,2.61,2.61,0,0,0,.71.11,1.85,1.85,0,0,0,.58-.09,2,2,0,0,0,.49-.24,1.76,1.76,0,0,0,.39-.32,1.56,1.56,0,0,0,.25-.36l.18-.38H1221l.3-1.94,4.9,0-.86,5.65h-1.9l.17-1.18c-.2.18-.45.37-.73.58a4,4,0,0,1-1,.53A4.3,4.3,0,0,1,1220.34,12.9Z" transform="translate(-1.72 -1.9)"/><path class="cls-2" d="M1232.79,9.54a2.11,2.11,0,0,1-1.13-.31,2.25,2.25,0,0,1-.81-.81,2.22,2.22,0,0,1,0-2.23,2.3,2.3,0,0,1,.81-.8,2.21,2.21,0,0,1,2.26,0,2.3,2.3,0,0,1,.81.8,2.16,2.16,0,0,1,0,2.23,2.25,2.25,0,0,1-.81.81A2.11,2.11,0,0,1,1232.79,9.54Z" transform="translate(-1.72 -1.9)"/><path class="cls-2" d="M1241.15,12.75l-1.59-10.7h2.78l.78,5.74,2.47-5.74h2l.79,5.74,2.48-5.74h2.78l-4.84,10.7h-2.15l-.8-5.82-2.59,5.82Z" transform="translate(-1.72 -1.9)"/><path class="cls-2" d="M1251,12.75l5.44-10.7h2.93l2.16,10.7h-2.84l-.39-2.07h-3.38l-1.05,2.07Zm4.9-4.53H1258l-.53-3.42Z" transform="translate(-1.72 -1.9)"/><path class="cls-2" d="M1262.74,12.75l1.63-10.7h2.89l-1.63,10.7Z" transform="translate(-1.72 -1.9)"/><path class="cls-2" d="M1269.91,12.75l1.24-8.17h-3l.39-2.53h9l-.38,2.53H1274l-1.25,8.17Z" transform="translate(-1.72 -1.9)"/><path class="cls-2" d="M1277.22,12.75l1.63-10.7h2.89l-1.62,10.7Z" transform="translate(-1.72 -1.9)"/><path class="cls-2" d="M1282.22,12.75l1.65-10.7h2.91L1290,8l.9-6h2.9l-1.65,10.7h-2.6l-3.5-6.38-1,6.38Z" transform="translate(-1.72 -1.9)"/><path class="cls-2" d="M1298.93,12.9a4.53,4.53,0,0,1-2.56-.69,3.85,3.85,0,0,1-1.47-1.93,5.63,5.63,0,0,1-.19-2.84,7,7,0,0,1,1.12-2.92A6,6,0,0,1,1298,2.59a5.9,5.9,0,0,1,2.83-.69,4.72,4.72,0,0,1,2.39.56,3.5,3.5,0,0,1,1.39,1.47,3.15,3.15,0,0,1,.29,1.89h-3a2.13,2.13,0,0,0-.19-.78,1.24,1.24,0,0,0-.49-.55,1.47,1.47,0,0,0-.82-.21,2.13,2.13,0,0,0-1,.29,2.57,2.57,0,0,0-.89.95,5.34,5.34,0,0,0-.57,1.83,5.11,5.11,0,0,0,0,1.59,1.86,1.86,0,0,0,.39.92,1.48,1.48,0,0,0,.64.43,2.54,2.54,0,0,0,.7.11,1.81,1.81,0,0,0,.58-.09,2.1,2.1,0,0,0,.5-.24,1.5,1.5,0,0,0,.38-.32,1.3,1.3,0,0,0,.25-.36l.19-.38h-1.87l.3-1.94,4.9,0-.86,5.65H1302l.17-1.18c-.21.18-.45.37-.73.58a4.32,4.32,0,0,1-1,.53A4.4,4.4,0,0,1,1298.93,12.9Z" transform="translate(-1.72 -1.9)"/><path class="cls-2" d="M1311.4,9.54a2.09,2.09,0,0,1-1.13-.31,2.25,2.25,0,0,1-.81-.81,2.16,2.16,0,0,1,0-2.23,2.3,2.3,0,0,1,.81-.8,2.09,2.09,0,0,1,1.13-.31,2.11,2.11,0,0,1,1.13.31,2.3,2.3,0,0,1,.81.8,2.16,2.16,0,0,1,0,2.23,2.25,2.25,0,0,1-.81.81A2.11,2.11,0,0,1,1311.4,9.54Z" transform="translate(-1.72 -1.9)"/><path class="cls-2" d="M1319.74,12.75l-1.59-10.7h2.79l.77,5.74,2.48-5.74h2l.79,5.74,2.47-5.74h2.79l-4.85,10.7h-2.14l-.81-5.82-2.59,5.82Z" transform="translate(-1.72 -1.9)"/><path class="cls-2" d="M1329.57,12.75,1335,2.05H1338l2.16,10.7h-2.85l-.39-2.07h-3.38l-1,2.07Zm4.9-4.53h2.12l-.52-3.42Z" transform="translate(-1.72 -1.9)"/><path class="cls-2" d="M1341.33,12.75,1343,2.05h2.9l-1.63,10.7Z" transform="translate(-1.72 -1.9)"/><path class="cls-2" d="M1348.51,12.75l1.24-8.17h-3l.38-2.53h9l-.39,2.53h-3.07l-1.25,8.17Z" transform="translate(-1.72 -1.9)"/><path class="cls-2" d="M1355.8,12.75l1.64-10.7h2.89l-1.63,10.7Z" transform="translate(-1.72 -1.9)"/><path class="cls-2" d="M1360.84,12.75l1.65-10.7h2.9l3.26,6,.91-6h2.89l-1.64,10.7h-2.6l-3.5-6.38-1,6.38Z" transform="translate(-1.72 -1.9)"/><path class="cls-2" d="M1377.55,12.9a4.51,4.51,0,0,1-2.56-.69,3.8,3.8,0,0,1-1.47-1.93,5.63,5.63,0,0,1-.19-2.84,7,7,0,0,1,1.11-2.92,6.1,6.1,0,0,1,2.15-1.93,5.86,5.86,0,0,1,2.82-.69,4.73,4.73,0,0,1,2.4.56,3.56,3.56,0,0,1,1.39,1.47,3.23,3.23,0,0,1,.29,1.89h-3a2.13,2.13,0,0,0-.19-.78,1.24,1.24,0,0,0-.49-.55,1.48,1.48,0,0,0-.83-.21,2.13,2.13,0,0,0-1,.29,2.49,2.49,0,0,0-.89.95,5.34,5.34,0,0,0-.57,1.83,5.11,5.11,0,0,0,0,1.59,1.86,1.86,0,0,0,.39.92,1.43,1.43,0,0,0,.64.43,2.49,2.49,0,0,0,.7.11,1.81,1.81,0,0,0,.58-.09,2.1,2.1,0,0,0,.5-.24,2,2,0,0,0,.38-.32,1.56,1.56,0,0,0,.25-.36l.19-.38h-1.87l.3-1.94,4.9,0-.86,5.65h-1.89l.17-1.18c-.21.18-.46.37-.74.58a4.07,4.07,0,0,1-1,.53A4.4,4.4,0,0,1,1377.55,12.9Z" transform="translate(-1.72 -1.9)"/><path class="cls-2" d="M1390,9.54a2.11,2.11,0,0,1-1.13-.31,2.25,2.25,0,0,1-.81-.81,2.22,2.22,0,0,1,0-2.23,2.3,2.3,0,0,1,.81-.8,2.21,2.21,0,0,1,2.26,0,2.41,2.41,0,0,1,.82.8,2.22,2.22,0,0,1,0,2.23,2.35,2.35,0,0,1-.82.81A2.11,2.11,0,0,1,1390,9.54Z" transform="translate(-1.72 -1.9)"/><path class="cls-2" d="M1398.37,12.75l-1.59-10.7h2.78l.78,5.74,2.47-5.74h2l.79,5.74,2.48-5.74h2.78L1406,12.75h-2.14l-.81-5.82-2.59,5.82Z" transform="translate(-1.72 -1.9)"/><path class="cls-2" d="M1408.18,12.75l5.44-10.7h2.94l2.16,10.7h-2.85l-.39-2.07h-3.38l-1,2.07Zm4.9-4.53h2.12l-.52-3.42Z" transform="translate(-1.72 -1.9)"/><path class="cls-2" d="M1420,12.75l1.63-10.7h2.89l-1.62,10.7Z" transform="translate(-1.72 -1.9)"/><path class="cls-2" d="M1427.14,12.75l1.24-8.17h-3l.39-2.53h9l-.39,2.53h-3.07L1430,12.75Z" transform="translate(-1.72 -1.9)"/><path class="cls-2" d="M1434.42,12.75l1.63-10.7h2.89l-1.62,10.7Z" transform="translate(-1.72 -1.9)"/><path class="cls-2" d="M1439.43,12.75l1.65-10.7H1444l3.26,6,.9-6h2.9l-1.65,10.7h-2.6l-3.5-6.38-1,6.38Z" transform="translate(-1.72 -1.9)"/><path class="cls-2" d="M1456.15,12.9a4.51,4.51,0,0,1-2.56-.69,3.87,3.87,0,0,1-1.48-1.93,5.87,5.87,0,0,1-.19-2.84A7.16,7.16,0,0,1,1453,4.52a6.07,6.07,0,0,1,2.14-1.93A5.9,5.9,0,0,1,1458,1.9a4.67,4.67,0,0,1,2.39.56,3.44,3.44,0,0,1,1.39,1.47,3.23,3.23,0,0,1,.3,1.89h-3a2.13,2.13,0,0,0-.2-.78,1.29,1.29,0,0,0-.48-.55,1.48,1.48,0,0,0-.83-.21,2.1,2.1,0,0,0-1,.29,2.51,2.51,0,0,0-.9.95,5.58,5.58,0,0,0-.56,1.83,5.11,5.11,0,0,0,0,1.59,2,2,0,0,0,.38.92,1.46,1.46,0,0,0,.65.43,2.49,2.49,0,0,0,.7.11,1.85,1.85,0,0,0,.58-.09,2,2,0,0,0,.49-.24,1.76,1.76,0,0,0,.39-.32,1.56,1.56,0,0,0,.25-.36l.18-.38h-1.86l.3-1.94,4.9,0-.86,5.65h-1.9l.17-1.18c-.2.18-.45.37-.73.58a4,4,0,0,1-1,.53A4.3,4.3,0,0,1,1456.15,12.9Z" transform="translate(-1.72 -1.9)"/><path class="cls-2" d="M1468.63,9.54a2.11,2.11,0,0,1-1.13-.31,2.25,2.25,0,0,1-.81-.81,2.22,2.22,0,0,1,0-2.23,2.3,2.3,0,0,1,.81-.8,2.21,2.21,0,0,1,2.26,0,2.3,2.3,0,0,1,.81.8,2.16,2.16,0,0,1,0,2.23,2.25,2.25,0,0,1-.81.81A2.11,2.11,0,0,1,1468.63,9.54Z" transform="translate(-1.72 -1.9)"/><path class="cls-2" d="M1477,12.75l-1.6-10.7h2.79l.77,5.74,2.48-5.74h2l.79,5.74,2.47-5.74h2.79l-4.84,10.7h-2.15l-.8-5.82-2.6,5.82Z" transform="translate(-1.72 -1.9)"/><path class="cls-2" d="M1486.78,12.75l5.44-10.7h2.94l2.16,10.7h-2.85l-.39-2.07h-3.38l-1,2.07Zm4.9-4.53h2.12l-.52-3.42Z" transform="translate(-1.72 -1.9)"/><path class="cls-2" d="M1498.55,12.75l1.63-10.7h2.89l-1.63,10.7Z" transform="translate(-1.72 -1.9)"/><path class="cls-2" d="M1505.73,12.75,1507,4.58h-3l.39-2.53h9l-.38,2.53h-3.07l-1.25,8.17Z" transform="translate(-1.72 -1.9)"/><path class="cls-2" d="M1513,12.75l1.63-10.7h2.89l-1.63,10.7Z" transform="translate(-1.72 -1.9)"/><path class="cls-2" d="M1518,12.75l1.65-10.7h2.9l3.27,6,.9-6h2.9L1528,12.75h-2.6l-3.5-6.38-1,6.38Z" transform="translate(-1.72 -1.9)"/><path class="cls-2" d="M1534.77,12.9a4.51,4.51,0,0,1-2.56-.69,3.87,3.87,0,0,1-1.48-1.93,5.87,5.87,0,0,1-.19-2.84,7.16,7.16,0,0,1,1.12-2.92,6.07,6.07,0,0,1,2.14-1.93,5.9,5.9,0,0,1,2.83-.69,4.67,4.67,0,0,1,2.39.56,3.44,3.44,0,0,1,1.39,1.47,3.23,3.23,0,0,1,.3,1.89h-3a2.13,2.13,0,0,0-.2-.78,1.29,1.29,0,0,0-.48-.55,1.48,1.48,0,0,0-.83-.21,2.1,2.1,0,0,0-1,.29,2.51,2.51,0,0,0-.9.95,5.58,5.58,0,0,0-.56,1.83,5.11,5.11,0,0,0,0,1.59,2,2,0,0,0,.38.92,1.46,1.46,0,0,0,.65.43,2.49,2.49,0,0,0,.7.11,1.85,1.85,0,0,0,.58-.09,2,2,0,0,0,.49-.24,1.76,1.76,0,0,0,.39-.32,1.56,1.56,0,0,0,.25-.36l.18-.38h-1.86l.3-1.94,4.9,0-.86,5.65h-1.9l.17-1.18c-.2.18-.45.37-.73.58a4,4,0,0,1-1,.53A4.3,4.3,0,0,1,1534.77,12.9Z" transform="translate(-1.72 -1.9)"/><path class="cls-2" d="M1547.23,9.54a2.11,2.11,0,0,1-1.13-.31,2.25,2.25,0,0,1-.81-.81,2.22,2.22,0,0,1,0-2.23,2.3,2.3,0,0,1,.81-.8,2.21,2.21,0,0,1,2.26,0,2.3,2.3,0,0,1,.81.8,2.16,2.16,0,0,1,0,2.23,2.25,2.25,0,0,1-.81.81A2.11,2.11,0,0,1,1547.23,9.54Z" transform="translate(-1.72 -1.9)"/><path class="cls-2" d="M1555.59,12.75,1554,2.05h2.79l.77,5.74L1560,2.05h2l.79,5.74,2.47-5.74h2.79l-4.84,10.7h-2.15l-.8-5.82-2.6,5.82Z" transform="translate(-1.72 -1.9)"/><path class="cls-2" d="M1565.39,12.75l5.44-10.7h2.93l2.16,10.7h-2.84l-.39-2.07h-3.38l-1,2.07Zm4.9-4.53h2.12l-.52-3.42Z" transform="translate(-1.72 -1.9)"/><path class="cls-2" d="M1577.16,12.75l1.63-10.7h2.89l-1.62,10.7Z" transform="translate(-1.72 -1.9)"/><path class="cls-2" d="M1584.34,12.75l1.24-8.17h-3l.39-2.53h9l-.39,2.53h-3.07l-1.25,8.17Z" transform="translate(-1.72 -1.9)"/><path class="cls-2" d="M1591.64,12.75l1.63-10.7h2.89l-1.62,10.7Z" transform="translate(-1.72 -1.9)"/><path class="cls-2" d="M1596.66,12.75l1.64-10.7h2.91l3.26,6,.9-6h2.9l-1.65,10.7H1604l-3.5-6.38-1,6.38Z" transform="translate(-1.72 -1.9)"/><path class="cls-2" d="M1613.36,12.9a4.51,4.51,0,0,1-2.56-.69,3.87,3.87,0,0,1-1.48-1.93,5.75,5.75,0,0,1-.19-2.84,7.16,7.16,0,0,1,1.12-2.92,6.07,6.07,0,0,1,2.14-1.93,5.9,5.9,0,0,1,2.83-.69,4.67,4.67,0,0,1,2.39.56A3.44,3.44,0,0,1,1619,3.93a3.23,3.23,0,0,1,.3,1.89h-3a2.13,2.13,0,0,0-.2-.78,1.29,1.29,0,0,0-.48-.55,1.5,1.5,0,0,0-.83-.21,2.1,2.1,0,0,0-1,.29,2.51,2.51,0,0,0-.9.95,5.58,5.58,0,0,0-.56,1.83,4.82,4.82,0,0,0,0,1.59,2,2,0,0,0,.38.92,1.48,1.48,0,0,0,.64.43,2.61,2.61,0,0,0,.71.11,1.85,1.85,0,0,0,.58-.09,2,2,0,0,0,.49-.24,1.76,1.76,0,0,0,.39-.32,1.26,1.26,0,0,0,.24-.36l.19-.38H1614l.3-1.94,4.9,0-.87,5.65h-1.89l.17-1.18c-.2.18-.45.37-.73.58a4,4,0,0,1-1,.53A4.3,4.3,0,0,1,1613.36,12.9Z" transform="translate(-1.72 -1.9)"/><path class="cls-2" d="M1625.83,9.54a2.11,2.11,0,0,1-1.13-.31,2.25,2.25,0,0,1-.81-.81,2.22,2.22,0,0,1,0-2.23,2.3,2.3,0,0,1,.81-.8,2.21,2.21,0,0,1,2.26,0,2.3,2.3,0,0,1,.81.8,2.16,2.16,0,0,1,0,2.23,2.25,2.25,0,0,1-.81.81A2.11,2.11,0,0,1,1625.83,9.54Z" transform="translate(-1.72 -1.9)"/><path class="cls-2" d="M1634.18,12.75l-1.6-10.7h2.79l.77,5.74,2.48-5.74h2l.79,5.74,2.47-5.74h2.79l-4.84,10.7h-2.15l-.8-5.82-2.6,5.82Z" transform="translate(-1.72 -1.9)"/><path class="cls-2" d="M1644,12.75l5.44-10.7h2.94l2.16,10.7h-2.85l-.39-2.07h-3.38l-1,2.07Zm4.9-4.53H1651l-.52-3.42Z" transform="translate(-1.72 -1.9)"/><path class="cls-2" d="M1655.75,12.75l1.64-10.7h2.89l-1.63,10.7Z" transform="translate(-1.72 -1.9)"/><path class="cls-2" d="M1663,12.75l1.24-8.17h-3l.39-2.53h9l-.38,2.53h-3.07l-1.26,8.17Z" transform="translate(-1.72 -1.9)"/><path class="cls-2" d="M1670.23,12.75l1.63-10.7h2.89l-1.62,10.7Z" transform="translate(-1.72 -1.9)"/><path class="cls-2" d="M1675.25,12.75l1.65-10.7h2.9l3.27,6,.9-6h2.9l-1.65,10.7h-2.6l-3.5-6.38-1,6.38Z" transform="translate(-1.72 -1.9)"/><path class="cls-2" d="M1692,12.9a4.53,4.53,0,0,1-2.56-.69,3.91,3.91,0,0,1-1.47-1.93,5.63,5.63,0,0,1-.19-2.84,7,7,0,0,1,1.12-2.92A6,6,0,0,1,1691,2.59a5.9,5.9,0,0,1,2.83-.69,4.7,4.7,0,0,1,2.39.56,3.5,3.5,0,0,1,1.39,1.47,3.15,3.15,0,0,1,.29,1.89h-3a2.13,2.13,0,0,0-.19-.78,1.24,1.24,0,0,0-.49-.55,1.45,1.45,0,0,0-.82-.21,2.13,2.13,0,0,0-1.05.29,2.57,2.57,0,0,0-.89.95,5.34,5.34,0,0,0-.57,1.83,5.11,5.11,0,0,0,0,1.59,1.86,1.86,0,0,0,.39.92,1.48,1.48,0,0,0,.64.43,2.54,2.54,0,0,0,.7.11,1.81,1.81,0,0,0,.58-.09,2.1,2.1,0,0,0,.5-.24,1.76,1.76,0,0,0,.39-.32,1.5,1.5,0,0,0,.24-.36l.19-.38h-1.86l.29-1.94,4.91,0-.87,5.65h-1.89l.17-1.18c-.21.18-.45.37-.73.58a4.14,4.14,0,0,1-1,.53A4.36,4.36,0,0,1,1692,12.9Z" transform="translate(-1.72 -1.9)"/><path class="cls-2" d="M1704.43,9.54a2.11,2.11,0,0,1-1.13-.31,2.25,2.25,0,0,1-.81-.81,2.22,2.22,0,0,1,0-2.23,2.3,2.3,0,0,1,.81-.8,2.21,2.21,0,0,1,2.26,0,2.41,2.41,0,0,1,.82.8,2.22,2.22,0,0,1,0,2.23,2.35,2.35,0,0,1-.82.81A2.11,2.11,0,0,1,1704.43,9.54Z" transform="translate(-1.72 -1.9)"/><path class="cls-2" d="M1712.78,12.75l-1.59-10.7H1714l.78,5.74,2.47-5.74h2l.78,5.74,2.48-5.74h2.78l-4.84,10.7h-2.14l-.81-5.82-2.59,5.82Z" transform="translate(-1.72 -1.9)"/><path class="cls-2" d="M1722.6,12.75,1728,2.05H1731l2.16,10.7h-2.84l-.39-2.07h-3.38l-1,2.07Zm4.9-4.53h2.12l-.52-3.42Z" transform="translate(-1.72 -1.9)"/><path class="cls-2" d="M1734.37,12.75,1736,2.05h2.89l-1.63,10.7Z" transform="translate(-1.72 -1.9)"/><path class="cls-2" d="M1741.55,12.75l1.23-8.17h-3l.39-2.53h9l-.39,2.53h-3.06l-1.26,8.17Z" transform="translate(-1.72 -1.9)"/><path class="cls-2" d="M1748.84,12.75l1.63-10.7h2.89l-1.62,10.7Z" transform="translate(-1.72 -1.9)"/><path class="cls-2" d="M1753.87,12.75l1.65-10.7h2.9l3.27,6,.9-6h2.9l-1.65,10.7h-2.6l-3.5-6.38-1,6.38Z" transform="translate(-1.72 -1.9)"/><path class="cls-2" d="M1770.58,12.9a4.51,4.51,0,0,1-2.56-.69,3.87,3.87,0,0,1-1.48-1.93,5.75,5.75,0,0,1-.19-2.84,7.16,7.16,0,0,1,1.12-2.92,6.07,6.07,0,0,1,2.14-1.93,5.9,5.9,0,0,1,2.83-.69,4.67,4.67,0,0,1,2.39.56,3.44,3.44,0,0,1,1.39,1.47,3.23,3.23,0,0,1,.3,1.89h-3a2.13,2.13,0,0,0-.2-.78,1.29,1.29,0,0,0-.48-.55,1.48,1.48,0,0,0-.83-.21,2.1,2.1,0,0,0-1,.29,2.51,2.51,0,0,0-.9.95,5.58,5.58,0,0,0-.56,1.83,4.82,4.82,0,0,0,0,1.59,2,2,0,0,0,.38.92,1.46,1.46,0,0,0,.65.43,2.49,2.49,0,0,0,.7.11,1.85,1.85,0,0,0,.58-.09,2,2,0,0,0,.49-.24,1.76,1.76,0,0,0,.39-.32,1.56,1.56,0,0,0,.25-.36l.18-.38h-1.86l.3-1.94,4.9,0-.86,5.65h-1.9l.17-1.18c-.2.18-.45.37-.73.58a4,4,0,0,1-1,.53A4.3,4.3,0,0,1,1770.58,12.9Z" transform="translate(-1.72 -1.9)"/><path class="cls-2" d="M1783.05,9.54a2.09,2.09,0,0,1-1.13-.31,2.35,2.35,0,0,1-.82-.81,2.22,2.22,0,0,1,0-2.23,2.41,2.41,0,0,1,.82-.8,2.2,2.2,0,0,1,2.25,0,2.33,2.33,0,0,1,.82.8,2.16,2.16,0,0,1,0,2.23,2.27,2.27,0,0,1-.82.81A2.08,2.08,0,0,1,1783.05,9.54Z" transform="translate(-1.72 -1.9)"/><path class="cls-2" d="M1791.39,12.75l-1.59-10.7h2.78l.78,5.74,2.47-5.74h2l.79,5.74,2.48-5.74h2.78l-4.84,10.7h-2.14l-.81-5.82-2.59,5.82Z" transform="translate(-1.72 -1.9)"/><path class="cls-2" d="M1801.22,12.75l5.44-10.7h2.93l2.16,10.7h-2.84l-.39-2.07h-3.39l-1,2.07Zm4.9-4.53h2.11l-.52-3.42Z" transform="translate(-1.72 -1.9)"/><path class="cls-2" d="M1813,12.75l1.63-10.7h2.89l-1.62,10.7Z" transform="translate(-1.72 -1.9)"/><path class="cls-2" d="M1820.16,12.75l1.23-8.17h-3l.39-2.53h9l-.39,2.53h-3.07L1823,12.75Z" transform="translate(-1.72 -1.9)"/><path class="cls-2" d="M1827.46,12.75l1.63-10.7H1832l-1.63,10.7Z" transform="translate(-1.72 -1.9)"/><path class="cls-2" d="M1832.46,12.75l1.64-10.7H1837l3.26,6,.9-6h2.9l-1.64,10.7h-2.6l-3.51-6.38-1,6.38Z" transform="translate(-1.72 -1.9)"/><path class="cls-2" d="M1849.19,12.9a4.51,4.51,0,0,1-2.56-.69,3.85,3.85,0,0,1-1.47-1.93,5.63,5.63,0,0,1-.19-2.84,6.88,6.88,0,0,1,1.12-2.92,6,6,0,0,1,2.14-1.93,5.87,5.87,0,0,1,2.83-.69,4.72,4.72,0,0,1,2.39.56,3.5,3.5,0,0,1,1.39,1.47,3.23,3.23,0,0,1,.29,1.89h-3a2.13,2.13,0,0,0-.19-.78,1.24,1.24,0,0,0-.49-.55,1.47,1.47,0,0,0-.82-.21,2.13,2.13,0,0,0-1,.29,2.49,2.49,0,0,0-.89.95,5.34,5.34,0,0,0-.57,1.83,5.11,5.11,0,0,0,0,1.59,1.86,1.86,0,0,0,.39.92,1.43,1.43,0,0,0,.64.43,2.54,2.54,0,0,0,.7.11,1.81,1.81,0,0,0,.58-.09,2.1,2.1,0,0,0,.5-.24,1.7,1.7,0,0,0,.38-.32,1.56,1.56,0,0,0,.25-.36l.19-.38h-1.87l.3-1.94,4.9,0-.86,5.65h-1.89l.17-1.18c-.21.18-.46.37-.74.58a4.07,4.07,0,0,1-1,.53A4.4,4.4,0,0,1,1849.19,12.9Z" transform="translate(-1.72 -1.9)"/><path class="cls-2" d="M1861.66,9.54a2.09,2.09,0,0,1-1.13-.31,2.25,2.25,0,0,1-.81-.81,2.16,2.16,0,0,1,0-2.23,2.3,2.3,0,0,1,.81-.8,2.09,2.09,0,0,1,1.13-.31,2.11,2.11,0,0,1,1.13.31,2.3,2.3,0,0,1,.81.8,2.16,2.16,0,0,1,0,2.23,2.25,2.25,0,0,1-.81.81A2.11,2.11,0,0,1,1861.66,9.54Z" transform="translate(-1.72 -1.9)"/><path class="cls-2" d="M1870,12.75l-1.59-10.7h2.78l.78,5.74,2.47-5.74h2l.79,5.74,2.48-5.74h2.78l-4.84,10.7h-2.15l-.8-5.82-2.59,5.82Z" transform="translate(-1.72 -1.9)"/><path class="cls-2" d="M1879.84,12.75l5.43-10.7h2.94l2.16,10.7h-2.85l-.38-2.07h-3.39l-1,2.07Zm4.9-4.53h2.11l-.52-3.42Z" transform="translate(-1.72 -1.9)"/><path class="cls-2" d="M1891.59,12.75l1.64-10.7h2.89l-1.63,10.7Z" transform="translate(-1.72 -1.9)"/><path class="cls-2" d="M1898.75,12.75,1900,4.58h-3l.38-2.53h9L1906,4.58h-3.07l-1.25,8.17Z" transform="translate(-1.72 -1.9)"/><path class="cls-2" d="M1906.07,12.75l1.63-10.7h2.89L1909,12.75Z" transform="translate(-1.72 -1.9)"/><path class="cls-2" d="M1911.08,12.75l1.65-10.7h2.91l3.26,6,.9-6h2.9l-1.65,10.7h-2.6L1915,6.37l-1,6.38Z" transform="translate(-1.72 -1.9)"/><path class="cls-2" d="M1927.79,12.9a4.51,4.51,0,0,1-2.56-.69,3.85,3.85,0,0,1-1.47-1.93,5.63,5.63,0,0,1-.19-2.84,6.88,6.88,0,0,1,1.12-2.92,6,6,0,0,1,2.14-1.93,5.87,5.87,0,0,1,2.83-.69,4.72,4.72,0,0,1,2.39.56,3.5,3.5,0,0,1,1.39,1.47,3.15,3.15,0,0,1,.29,1.89h-3a2.13,2.13,0,0,0-.19-.78,1.24,1.24,0,0,0-.49-.55,1.47,1.47,0,0,0-.82-.21,2.13,2.13,0,0,0-1,.29,2.49,2.49,0,0,0-.89.95,5.34,5.34,0,0,0-.57,1.83,5.11,5.11,0,0,0,0,1.59,1.86,1.86,0,0,0,.39.92,1.43,1.43,0,0,0,.64.43,2.54,2.54,0,0,0,.7.11,1.81,1.81,0,0,0,.58-.09,2.1,2.1,0,0,0,.5-.24,1.7,1.7,0,0,0,.38-.32,1.3,1.3,0,0,0,.25-.36l.19-.38h-1.87l.3-1.94,4.9,0-.86,5.65h-1.89l.17-1.18c-.21.18-.45.37-.73.58a4.32,4.32,0,0,1-1,.53A4.4,4.4,0,0,1,1927.79,12.9Z" transform="translate(-1.72 -1.9)"/><path class="cls-2" d="M1940.25,9.54a2.11,2.11,0,0,1-1.13-.31,2.25,2.25,0,0,1-.81-.81,2.22,2.22,0,0,1,0-2.23,2.3,2.3,0,0,1,.81-.8,2.21,2.21,0,0,1,2.26,0,2.3,2.3,0,0,1,.81.8,2.16,2.16,0,0,1,0,2.23,2.25,2.25,0,0,1-.81.81A2.11,2.11,0,0,1,1940.25,9.54Z" transform="translate(-1.72 -1.9)"/><path class="cls-2" d="M1948.61,12.75,1947,2.05h2.78l.78,5.74,2.47-5.74h2l.79,5.74,2.48-5.74h2.78l-4.84,10.7h-2.15l-.8-5.82-2.59,5.82Z" transform="translate(-1.72 -1.9)"/><path class="cls-2" d="M1958.42,12.75l5.44-10.7h2.93l2.16,10.7h-2.84l-.39-2.07h-3.38l-1,2.07Zm4.9-4.53h2.11l-.52-3.42Z" transform="translate(-1.72 -1.9)"/><path class="cls-2" d="M1970.18,12.75l1.64-10.7h2.89l-1.63,10.7Z" transform="translate(-1.72 -1.9)"/><path class="cls-2" d="M1977.37,12.75l1.23-8.17h-3l.39-2.53h9l-.39,2.53h-3.07l-1.25,8.17Z" transform="translate(-1.72 -1.9)"/><path class="cls-2" d="M1984.65,12.75l1.64-10.7h2.89l-1.63,10.7Z" transform="translate(-1.72 -1.9)"/><path class="cls-2" d="M1989.7,12.75l1.65-10.7h2.9l3.26,6,.91-6h2.89l-1.64,10.7h-2.6l-3.5-6.38-1,6.38Z" transform="translate(-1.72 -1.9)"/><path class="cls-2" d="M2006.4,12.9a4.51,4.51,0,0,1-2.56-.69,3.8,3.8,0,0,1-1.47-1.93,5.63,5.63,0,0,1-.19-2.84,7,7,0,0,1,1.11-2.92,6.1,6.1,0,0,1,2.15-1.93,5.86,5.86,0,0,1,2.82-.69,4.73,4.73,0,0,1,2.4.56,3.5,3.5,0,0,1,1.39,1.47,3.23,3.23,0,0,1,.29,1.89h-3a2.13,2.13,0,0,0-.19-.78,1.24,1.24,0,0,0-.49-.55,1.47,1.47,0,0,0-.82-.21,2.13,2.13,0,0,0-1,.29,2.49,2.49,0,0,0-.89.95,5.34,5.34,0,0,0-.57,1.83,5.11,5.11,0,0,0,0,1.59,1.86,1.86,0,0,0,.39.92,1.43,1.43,0,0,0,.64.43,2.49,2.49,0,0,0,.7.11,1.81,1.81,0,0,0,.58-.09,2.1,2.1,0,0,0,.5-.24,2,2,0,0,0,.38-.32,1.56,1.56,0,0,0,.25-.36l.19-.38H2007l.3-1.94,4.9,0-.86,5.65h-1.89l.17-1.18c-.21.18-.46.37-.74.58a4.07,4.07,0,0,1-1,.53A4.4,4.4,0,0,1,2006.4,12.9Z" transform="translate(-1.72 -1.9)"/><path class="cls-2" d="M2018.86,9.54a2.09,2.09,0,0,1-1.13-.31,2.25,2.25,0,0,1-.81-.81,2.16,2.16,0,0,1,0-2.23,2.3,2.3,0,0,1,.81-.8,2.09,2.09,0,0,1,1.13-.31,2.14,2.14,0,0,1,1.13.31,2.3,2.3,0,0,1,.81.8,2.16,2.16,0,0,1,0,2.23,2.25,2.25,0,0,1-.81.81A2.14,2.14,0,0,1,2018.86,9.54Z" transform="translate(-1.72 -1.9)"/><path class="cls-2" d="M2027.23,12.75l-1.6-10.7h2.79l.77,5.74,2.48-5.74h2l.79,5.74,2.47-5.74h2.79l-4.84,10.7h-2.15l-.8-5.82-2.6,5.82Z" transform="translate(-1.72 -1.9)"/><path class="cls-2" d="M2037,12.75l5.44-10.7h2.94l2.16,10.7h-2.85l-.39-2.07H2041l-1,2.07Zm4.9-4.53h2.12l-.52-3.42Z" transform="translate(-1.72 -1.9)"/><path class="cls-2" d="M2048.8,12.75l1.63-10.7h2.89l-1.62,10.7Z" transform="translate(-1.72 -1.9)"/><path class="cls-2" d="M2056,12.75l1.24-8.17h-3l.39-2.53h9l-.39,2.53h-3.07l-1.25,8.17Z" transform="translate(-1.72 -1.9)"/><path class="cls-2" d="M2063.28,12.75l1.63-10.7h2.89l-1.63,10.7Z" transform="translate(-1.72 -1.9)"/><path class="cls-2" d="M2068.31,12.75,2070,2.05h2.91l3.26,6,.9-6h2.9l-1.64,10.7h-2.6l-3.51-6.38-1,6.38Z" transform="translate(-1.72 -1.9)"/><path class="cls-2" d="M2085,12.9a4.51,4.51,0,0,1-2.56-.69,3.8,3.8,0,0,1-1.47-1.93,5.63,5.63,0,0,1-.19-2.84,7,7,0,0,1,1.11-2.92,6.1,6.1,0,0,1,2.15-1.93,5.86,5.86,0,0,1,2.82-.69,4.73,4.73,0,0,1,2.4.56,3.5,3.5,0,0,1,1.39,1.47,3.23,3.23,0,0,1,.29,1.89h-3a2.13,2.13,0,0,0-.19-.78,1.24,1.24,0,0,0-.49-.55,1.48,1.48,0,0,0-.83-.21,2.13,2.13,0,0,0-1,.29,2.49,2.49,0,0,0-.89.95,5.34,5.34,0,0,0-.57,1.83,5.11,5.11,0,0,0,0,1.59,1.86,1.86,0,0,0,.39.92,1.43,1.43,0,0,0,.64.43,2.49,2.49,0,0,0,.7.11,1.81,1.81,0,0,0,.58-.09,2.1,2.1,0,0,0,.5-.24,2,2,0,0,0,.38-.32,1.56,1.56,0,0,0,.25-.36l.18-.38h-1.86l.3-1.94,4.9,0-.86,5.65h-1.89l.17-1.18c-.21.18-.46.37-.74.58a4.07,4.07,0,0,1-1,.53A4.4,4.4,0,0,1,2085,12.9Z" transform="translate(-1.72 -1.9)"/><path class="cls-2" d="M2097.49,9.54a2.09,2.09,0,0,1-1.13-.31,2.35,2.35,0,0,1-.82-.81,2.22,2.22,0,0,1,0-2.23,2.41,2.41,0,0,1,.82-.8,2.2,2.2,0,0,1,2.25,0,2.33,2.33,0,0,1,.82.8,2.16,2.16,0,0,1,0,2.23,2.27,2.27,0,0,1-.82.81A2.08,2.08,0,0,1,2097.49,9.54Z" transform="translate(-1.72 -1.9)"/><path class="cls-2" d="M2105.82,12.75l-1.59-10.7H2107l.78,5.74,2.47-5.74h2l.79,5.74,2.48-5.74h2.78l-4.84,10.7h-2.15l-.8-5.82-2.59,5.82Z" transform="translate(-1.72 -1.9)"/><path class="cls-2" d="M2115.64,12.75l5.44-10.7H2124l2.16,10.7h-2.84l-.39-2.07h-3.38l-1,2.07Zm4.9-4.53h2.12l-.53-3.42Z" transform="translate(-1.72 -1.9)"/><path class="cls-2" d="M2127.41,12.75,2129,2.05h2.89l-1.62,10.7Z" transform="translate(-1.72 -1.9)"/><path class="cls-2" d="M2134.59,12.75l1.23-8.17h-3l.39-2.53h9l-.39,2.53h-3.07l-1.25,8.17Z" transform="translate(-1.72 -1.9)"/><path class="cls-2" d="M2141.88,12.75l1.63-10.7h2.89l-1.62,10.7Z" transform="translate(-1.72 -1.9)"/><path class="cls-2" d="M2146.91,12.75l1.64-10.7h2.91l3.26,6,.9-6h2.9l-1.64,10.7h-2.6l-3.51-6.38-1,6.38Z" transform="translate(-1.72 -1.9)"/><path class="cls-2" d="M2163.62,12.9a4.51,4.51,0,0,1-2.56-.69,3.87,3.87,0,0,1-1.48-1.93,5.75,5.75,0,0,1-.19-2.84,7.16,7.16,0,0,1,1.12-2.92,6.07,6.07,0,0,1,2.14-1.93,5.9,5.9,0,0,1,2.83-.69,4.67,4.67,0,0,1,2.39.56,3.44,3.44,0,0,1,1.39,1.47,3.23,3.23,0,0,1,.3,1.89h-3a2.13,2.13,0,0,0-.2-.78,1.29,1.29,0,0,0-.48-.55,1.5,1.5,0,0,0-.83-.21,2.07,2.07,0,0,0-1,.29,2.51,2.51,0,0,0-.9.95,5.35,5.35,0,0,0-.56,1.83,4.82,4.82,0,0,0,0,1.59,2,2,0,0,0,.38.92,1.48,1.48,0,0,0,.64.43,2.56,2.56,0,0,0,.71.11,1.9,1.9,0,0,0,.58-.09,2,2,0,0,0,.49-.24,1.76,1.76,0,0,0,.39-.32,1.26,1.26,0,0,0,.24-.36l.19-.38h-1.86l.3-1.94,4.9,0-.87,5.65h-1.89l.17-1.18c-.21.18-.45.37-.73.58a4,4,0,0,1-1,.53A4.3,4.3,0,0,1,2163.62,12.9Z" transform="translate(-1.72 -1.9)"/><path class="cls-2" d="M2176.07,9.54a2.11,2.11,0,0,1-1.13-.31,2.25,2.25,0,0,1-.81-.81,2.22,2.22,0,0,1,0-2.23,2.3,2.3,0,0,1,.81-.8,2.11,2.11,0,0,1,1.13-.31,2.09,2.09,0,0,1,1.13.31,2.41,2.41,0,0,1,.82.8,2.22,2.22,0,0,1,0,2.23,2.35,2.35,0,0,1-.82.81A2.09,2.09,0,0,1,2176.07,9.54Z" transform="translate(-1.72 -1.9)"/></g></g></g></g></svg>