<svg xmlns="http://www.w3.org/2000/svg" viewBox="0 0 1124.32 365.16"><defs><style>.cls-1{fill:#fff;}</style></defs><g id="Layer_2" data-name="Layer 2"><g id="Accordion_menu_expanded" data-name="Accordion menu expanded"><g id="Layer_4_copy_2" data-name="Layer 4 copy 2"><path class="cls-1" d="M13.72,360.85a4.5,4.5,0,0,1-.68,2.56,3.79,3.79,0,0,1-1.9,1.47,5.59,5.59,0,0,1-2.8.19A6.93,6.93,0,0,1,5.46,364a5.91,5.91,0,0,1-1.9-2.14A5.82,5.82,0,0,1,2.88,359a4.66,4.66,0,0,1,.55-2.38,3.37,3.37,0,0,1,1.44-1.39,3.12,3.12,0,0,1,1.88-.29v3a2.13,2.13,0,0,0-.78.19,1.22,1.22,0,0,0-.54.49,1.45,1.45,0,0,0-.2.82,2.06,2.06,0,0,0,.28,1,2.48,2.48,0,0,0,.94.9,5.39,5.39,0,0,0,1.8.56,4.92,4.92,0,0,0,1.56,0,1.78,1.78,0,0,0,.91-.39,1.38,1.38,0,0,0,.43-.64,2.49,2.49,0,0,0,.11-.7,1.79,1.79,0,0,0-.09-.57,2.54,2.54,0,0,0-.23-.5,1.74,1.74,0,0,0-.32-.38,1.17,1.17,0,0,0-.36-.25l-.38-.19v1.86L8,359.92,8,355l5.58.87v1.88l-1.17-.17c.18.21.37.46.58.73a4.31,4.31,0,0,1,.52,1A4.61,4.61,0,0,1,13.72,360.85Z"/><path class="cls-1" d="M13.58,354.49,3,349.06v-2.93L13.58,344v2.84l-2.05.39v3.38l2.05,1Zm-4.47-4.9v-2.11L5.74,348Z"/><path class="cls-1" d="M13.58,342.75,3,341.12v-2.88l10.56,1.62Z"/><path class="cls-1" d="M13.58,337.75,3,336.18v-1.43c0-.74,0-1.47.06-2.18a10.9,10.9,0,0,1,.26-2A4.9,4.9,0,0,1,4,329a3.12,3.12,0,0,1,1.26-1.09,4.76,4.76,0,0,1,2.06-.39,8.8,8.8,0,0,1,1.15.1,8.42,8.42,0,0,1,1.35.35,5.9,5.9,0,0,1,1.36.71,5,5,0,0,1,1.21,1.15,5.77,5.77,0,0,1,.86,1.7,7.81,7.81,0,0,1,.32,2.35Zm-2.24-3.24v-1a2.36,2.36,0,0,0-.32-1.21,3.4,3.4,0,0,0-.88-1,4.56,4.56,0,0,0-1.28-.66,4.79,4.79,0,0,0-1.52-.24,2.48,2.48,0,0,0-1.15.24,1.61,1.61,0,0,0-.7.69,2.27,2.27,0,0,0-.23,1.08v1.1Z"/><path class="cls-1" d="M2,326.31.23,326v-5.91l1.74.26Zm11.61.36L3,325v-2.88l10.56,1.62Z"/><path class="cls-1" d="M2.14,316.57,0,318.29v-2l1.2-.88L0,314.35v-2.06l2.14,2.3Zm11.58.7a6.88,6.88,0,0,1-.19,1.64,4.54,4.54,0,0,1-.6,1.42,2.79,2.79,0,0,1-1,1,2.7,2.7,0,0,1-1.51.28v-3a1.11,1.11,0,0,0,.63-.22,1.26,1.26,0,0,0,.41-.56,2.4,2.4,0,0,0,.14-.85,4,4,0,0,0-.09-.87,2.08,2.08,0,0,0-.29-.71.87.87,0,0,0-.59-.34.46.46,0,0,0-.49.18,1.67,1.67,0,0,0-.27.63c-.06.26-.12.54-.17.84l-.28,1.61a2.94,2.94,0,0,1-1,1.88,2.66,2.66,0,0,1-2.13.46,3.19,3.19,0,0,1-1.82-.88A4.65,4.65,0,0,1,3.29,318a6.52,6.52,0,0,1-.4-2.31,5.06,5.06,0,0,1,.47-2.26A3.73,3.73,0,0,1,4.59,312a2.75,2.75,0,0,1,1.63-.46v2.92a1.12,1.12,0,0,0-.66.15,1,1,0,0,0-.37.51,2.92,2.92,0,0,0-.11.85,2.52,2.52,0,0,0,.13.9,1.17,1.17,0,0,0,.32.5.9.9,0,0,0,.38.19.68.68,0,0,0,.58-.16,1.6,1.6,0,0,0,.34-.88l.28-1.61a4.34,4.34,0,0,1,.61-1.74,2.32,2.32,0,0,1,.93-.83,2.45,2.45,0,0,1,1-.24,5,5,0,0,1,.9.05,2.81,2.81,0,0,1,1.61.86,5,5,0,0,1,1.13,1.84A7.23,7.23,0,0,1,13.72,317.27Z"/><path class="cls-1" d="M13.58,311.89,3,306.46v-2.93l10.56-2.16v2.84l-2.05.39V308l2.05,1ZM9.11,307v-2.11l-3.37.52Z"/><path class="cls-1" d="M13.58,300.15,3,298.5v-2.9l5.89-3.25L3,291.45v-2.89l10.56,1.64v2.59l-6.29,3.5,6.29,1Z"/><path class="cls-1" d="M13.58,288.85,3,283.42v-2.93l10.56-2.16v2.84l-2.05.39v3.38l2.05,1ZM9.11,284v-2.12l-3.37.52Z"/><path class="cls-1" d="M10.41,271.64a2.13,2.13,0,0,1-.3,1.12,2.41,2.41,0,0,1-.8.82,2.17,2.17,0,0,1-2.2,0,2.41,2.41,0,0,1-.8-.82A2.22,2.22,0,0,1,6,271.64a2.21,2.21,0,0,1,1.09-1.94,2.11,2.11,0,0,1,2.2,0,2.3,2.3,0,0,1,.8.81A2.2,2.2,0,0,1,10.41,271.64Z"/><path class="cls-1" d="M13.72,260.92a4.45,4.45,0,0,1-.68,2.55,3.75,3.75,0,0,1-1.9,1.48,5.7,5.7,0,0,1-2.8.19A6.93,6.93,0,0,1,5.46,264a5.91,5.91,0,0,1-1.9-2.14,5.82,5.82,0,0,1-.68-2.82,4.72,4.72,0,0,1,.55-2.39,3.41,3.41,0,0,1,1.44-1.38A3.12,3.12,0,0,1,6.75,255v3a2.13,2.13,0,0,0-.78.19,1.26,1.26,0,0,0-.54.48,1.5,1.5,0,0,0-.2.83,2.08,2.08,0,0,0,.28,1,2.39,2.39,0,0,0,.94.89,5.15,5.15,0,0,0,1.8.57,4.92,4.92,0,0,0,1.56,0,1.78,1.78,0,0,0,.91-.39,1.43,1.43,0,0,0,.43-.64,2.49,2.49,0,0,0,.11-.7,1.9,1.9,0,0,0-.09-.58,2.45,2.45,0,0,0-.23-.49,2.08,2.08,0,0,0-.32-.39,1.13,1.13,0,0,0-.36-.24l-.38-.19v1.86L8,260l0-4.89,5.58.86v1.89l-1.17-.17c.18.21.37.45.58.73a4.13,4.13,0,0,1,.52,1A4.57,4.57,0,0,1,13.72,260.92Z"/><path class="cls-1" d="M13.58,254.55,3,249.12v-2.93L13.58,244v2.84l-2.05.38v3.38l2.05,1Zm-4.47-4.89v-2.12l-3.37.53Z"/><path class="cls-1" d="M13.58,242.8,3,241.18v-2.89l10.56,1.62Z"/><path class="cls-1" d="M13.58,237.81,3,236.25v-1.43c0-.75,0-1.47.06-2.18a10.9,10.9,0,0,1,.26-2A4.9,4.9,0,0,1,4,229,3.12,3.12,0,0,1,5.27,228a4.76,4.76,0,0,1,2.06-.39,7.35,7.35,0,0,1,1.15.1,7.48,7.48,0,0,1,1.35.35,6.27,6.27,0,0,1,1.36.7,5.3,5.3,0,0,1,1.21,1.16,5.65,5.65,0,0,1,.86,1.7,7.81,7.81,0,0,1,.32,2.35Zm-2.24-3.23v-1a2.36,2.36,0,0,0-.32-1.21,3.4,3.4,0,0,0-.88-1,4.09,4.09,0,0,0-1.28-.66,4.79,4.79,0,0,0-1.52-.24,2.48,2.48,0,0,0-1.15.24,1.61,1.61,0,0,0-.7.69,2.27,2.27,0,0,0-.23,1.08v1.1Z"/><path class="cls-1" d="M2,226.39l-1.74-.27v-5.91l1.74.26Zm11.61.36L3,225.12v-2.89l10.56,1.63Z"/><path class="cls-1" d="M2.14,216.62,0,218.35v-2l1.2-.88L0,214.41v-2.07l2.14,2.31Zm11.58.7a6.88,6.88,0,0,1-.19,1.64,4.54,4.54,0,0,1-.6,1.42,2.79,2.79,0,0,1-1,1,2.62,2.62,0,0,1-1.51.28v-3a1,1,0,0,0,.63-.22,1.26,1.26,0,0,0,.41-.56,2.36,2.36,0,0,0,.14-.85,4.14,4.14,0,0,0-.09-.87,1.94,1.94,0,0,0-.29-.7.88.88,0,0,0-.59-.35.49.49,0,0,0-.49.18,1.67,1.67,0,0,0-.27.63c-.06.26-.12.54-.17.84l-.28,1.61a2.91,2.91,0,0,1-1,1.88,2.66,2.66,0,0,1-2.13.47,3.32,3.32,0,0,1-1.82-.88A4.76,4.76,0,0,1,3.29,218a6.52,6.52,0,0,1-.4-2.31,5.06,5.06,0,0,1,.47-2.26A3.7,3.7,0,0,1,4.59,212a2.69,2.69,0,0,1,1.63-.47v2.93a1,1,0,0,0-.66.14,1,1,0,0,0-.37.51,2.92,2.92,0,0,0-.11.85,2.52,2.52,0,0,0,.13.9,1.11,1.11,0,0,0,.32.5.8.8,0,0,0,.38.19.71.71,0,0,0,.58-.15,1.64,1.64,0,0,0,.34-.88l.28-1.62a4.34,4.34,0,0,1,.61-1.74,2.32,2.32,0,0,1,.93-.83,2.8,2.8,0,0,1,1-.24,7.85,7.85,0,0,1,.9.05,2.81,2.81,0,0,1,1.61.86,5,5,0,0,1,1.13,1.84A7.23,7.23,0,0,1,13.72,217.32Z"/><path class="cls-1" d="M13.58,211.93,3,206.51v-2.93l10.56-2.16v2.84l-2.05.39V208l2.05,1ZM9.11,207v-2.11l-3.37.52Z"/><path class="cls-1" d="M13.58,200.2,3,198.56v-2.9l5.89-3.25L3,191.51v-2.9l10.56,1.65v2.59l-6.29,3.5,6.29,1Z"/><path class="cls-1" d="M13.58,188.89,3,183.46v-2.93l10.56-2.15v2.83l-2.05.39V185l2.05,1ZM9.11,184v-2.12l-3.37.52Z"/><path class="cls-1" d="M10.41,171.7a2.2,2.2,0,0,1-.3,1.13,2.3,2.3,0,0,1-.8.81,2.17,2.17,0,0,1-2.2,0A2.21,2.21,0,0,1,6,171.7a2.25,2.25,0,0,1,.29-1.12,2.41,2.41,0,0,1,.8-.82,2.17,2.17,0,0,1,2.2,0,2.41,2.41,0,0,1,.8.82A2.16,2.16,0,0,1,10.41,171.7Z"/><path class="cls-1" d="M13.72,161A4.49,4.49,0,0,1,13,163.5a3.68,3.68,0,0,1-1.9,1.47,5.48,5.48,0,0,1-2.8.19,6.78,6.78,0,0,1-2.88-1.11,6,6,0,0,1-1.9-2.14,5.88,5.88,0,0,1-.68-2.82,4.67,4.67,0,0,1,.55-2.39,3.43,3.43,0,0,1,1.44-1.39A3.2,3.2,0,0,1,6.75,155v3a2.13,2.13,0,0,0-.78.2,1.26,1.26,0,0,0-.54.48,1.48,1.48,0,0,0-.2.83,2.11,2.11,0,0,0,.28,1,2.54,2.54,0,0,0,.94.89,5.17,5.17,0,0,0,1.8.56,4.64,4.64,0,0,0,1.56,0,1.87,1.87,0,0,0,.91-.38,1.48,1.48,0,0,0,.43-.64,2.54,2.54,0,0,0,.11-.7,1.81,1.81,0,0,0-.09-.58,2.22,2.22,0,0,0-.23-.49,2.08,2.08,0,0,0-.32-.39,1.38,1.38,0,0,0-.36-.25l-.38-.18v1.86L8,160l0-4.89,5.58.86v1.89l-1.17-.17c.18.21.37.45.58.73a4,4,0,0,1,.52,1A4.57,4.57,0,0,1,13.72,161Z"/><path class="cls-1" d="M13.58,154.59,3,149.16v-2.93l10.56-2.15v2.84l-2.05.38v3.38l2.05,1ZM9.11,149.7v-2.12l-3.37.53Z"/><path class="cls-1" d="M13.58,142.87,3,141.24v-2.89L13.58,140Z"/><path class="cls-1" d="M13.58,137.87,3,136.3v-1.42c0-.75,0-1.47.06-2.18a10.9,10.9,0,0,1,.26-2A4.81,4.81,0,0,1,4,129.1,3,3,0,0,1,5.27,128a4.76,4.76,0,0,1,2.06-.39,7.35,7.35,0,0,1,1.15.1,7.48,7.48,0,0,1,1.35.35,6.27,6.27,0,0,1,1.36.7,5.09,5.09,0,0,1,1.21,1.16,5.65,5.65,0,0,1,.86,1.7,7.76,7.76,0,0,1,.32,2.35Zm-2.24-3.23v-1a2.33,2.33,0,0,0-.32-1.21,3.4,3.4,0,0,0-.88-1,4.34,4.34,0,0,0-1.28-.67,5.08,5.08,0,0,0-1.52-.23,2.48,2.48,0,0,0-1.15.24,1.61,1.61,0,0,0-.7.69,2.27,2.27,0,0,0-.23,1.08v1.1Z"/><path class="cls-1" d="M2,126.43l-1.74-.26v-5.92l1.74.27Zm11.61.36L3,125.16v-2.88l10.56,1.62Z"/><path class="cls-1" d="M2.14,116.69,0,118.41v-2l1.2-.89L0,114.47v-2.06l2.14,2.3Zm11.58.7a6.94,6.94,0,0,1-.19,1.64,4.64,4.64,0,0,1-.6,1.42,2.79,2.79,0,0,1-1,1,2.7,2.7,0,0,1-1.51.28v-3a1.19,1.19,0,0,0,.63-.22,1.32,1.32,0,0,0,.41-.56,2.42,2.42,0,0,0,.14-.86,4.14,4.14,0,0,0-.09-.87,2,2,0,0,0-.29-.7.87.87,0,0,0-.59-.34.46.46,0,0,0-.49.18,1.53,1.53,0,0,0-.27.63c-.06.26-.12.54-.17.84l-.28,1.61a2.94,2.94,0,0,1-1,1.88,2.66,2.66,0,0,1-2.13.46,3.25,3.25,0,0,1-1.82-.88,4.69,4.69,0,0,1-1.15-1.81,6.51,6.51,0,0,1-.4-2.3,5.06,5.06,0,0,1,.47-2.26,3.66,3.66,0,0,1,1.23-1.44,2.68,2.68,0,0,1,1.63-.46v2.92a1,1,0,0,0-.66.15,1,1,0,0,0-.37.51,2.85,2.85,0,0,0-.11.84,2.52,2.52,0,0,0,.13.9,1.06,1.06,0,0,0,.32.5.8.8,0,0,0,.38.19.64.64,0,0,0,.58-.15,1.64,1.64,0,0,0,.34-.88L7.11,115a4.34,4.34,0,0,1,.61-1.74,2.32,2.32,0,0,1,.93-.83,2.45,2.45,0,0,1,1-.24,5,5,0,0,1,.9,0,2.8,2.8,0,0,1,1.61.85,5.08,5.08,0,0,1,1.13,1.85A7.23,7.23,0,0,1,13.72,117.39Z"/><path class="cls-1" d="M13.58,112,3,106.58v-2.93l10.56-2.16v2.84l-2.05.39v3.37l2.05,1Zm-4.47-4.89V105l-3.37.52Z"/><path class="cls-1" d="M13.58,100.25,3,98.61v-2.9l5.89-3.26L3,91.55V88.66L13.58,90.3v2.6L7.29,96.39l6.29,1Z"/><path class="cls-1" d="M13.58,89,3,83.54V80.61l10.56-2.16v2.84l-2.05.39v3.37l2.05,1ZM9.11,84.07V82l-3.37.52Z"/><path class="cls-1" d="M10.41,71.76a2.16,2.16,0,0,1-.3,1.12,2.3,2.3,0,0,1-.8.81,2.17,2.17,0,0,1-2.2,0,2.3,2.3,0,0,1-.8-.81A2.25,2.25,0,0,1,6,71.76a2.21,2.21,0,0,1,1.09-1.94,2.11,2.11,0,0,1,2.2,0,2.3,2.3,0,0,1,.8.81A2.2,2.2,0,0,1,10.41,71.76Z"/><path class="cls-1" d="M13.72,61A4.45,4.45,0,0,1,13,63.56,3.75,3.75,0,0,1,11.14,65a5.7,5.7,0,0,1-2.8.19,6.93,6.93,0,0,1-2.88-1.12A5.91,5.91,0,0,1,3.56,62a5.82,5.82,0,0,1-.68-2.82,4.66,4.66,0,0,1,.55-2.38,3.37,3.37,0,0,1,1.44-1.39,3.12,3.12,0,0,1,1.88-.29v3a2.13,2.13,0,0,0-.78.19,1.22,1.22,0,0,0-.54.49,1.45,1.45,0,0,0-.2.82,2.08,2.08,0,0,0,.28,1,2.39,2.39,0,0,0,.94.89,5.15,5.15,0,0,0,1.8.57,4.92,4.92,0,0,0,1.56,0,1.78,1.78,0,0,0,.91-.39,1.43,1.43,0,0,0,.43-.64,2.49,2.49,0,0,0,.11-.7,1.79,1.79,0,0,0-.09-.57,2.3,2.3,0,0,0-.23-.5,2.08,2.08,0,0,0-.32-.39,1.13,1.13,0,0,0-.36-.24l-.38-.19v1.86L8,60.07l0-4.89,5.58.86v1.89l-1.17-.17c.18.21.37.45.58.73a4.13,4.13,0,0,1,.52,1A4.57,4.57,0,0,1,13.72,61Z"/><path class="cls-1" d="M13.58,54.65,3,49.23V46.3l10.56-2.16V47l-2.05.39v3.37l2.05,1ZM9.11,49.76V47.65l-3.37.52Z"/><path class="cls-1" d="M13.58,42.92,3,41.29V38.41L13.58,40Z"/><path class="cls-1" d="M13.58,37.91,3,36.34V34.92c0-.75,0-1.47.06-2.18a10.9,10.9,0,0,1,.26-2A4.73,4.73,0,0,1,4,29.14a3,3,0,0,1,1.26-1.09,4.76,4.76,0,0,1,2.06-.39,7.35,7.35,0,0,1,1.15.1,7.48,7.48,0,0,1,1.35.35,6.27,6.27,0,0,1,1.36.7A5.09,5.09,0,0,1,12.4,30a5.65,5.65,0,0,1,.86,1.7A7.76,7.76,0,0,1,13.58,34Zm-2.24-3.23v-1A2.33,2.33,0,0,0,11,32.51a3.4,3.4,0,0,0-.88-1,4.34,4.34,0,0,0-1.28-.67,5.09,5.09,0,0,0-1.52-.24,2.48,2.48,0,0,0-1.15.25,1.61,1.61,0,0,0-.7.69,2.27,2.27,0,0,0-.23,1.08v1.1Z"/><path class="cls-1" d="M1.92,26.14.2,25.81.41,19.9l1.72.32Zm11.59.76L3,24.91,3.12,22l10.49,2Z"/><path class="cls-1" d="M6.4,13.08l-2.75.08L4.84,11.6H6.33L6,10,7.28,8.37l.31,3.13Zm8.82,7.54a7.56,7.56,0,0,1-1.14,1.19,4.43,4.43,0,0,1-1.34.77,2.88,2.88,0,0,1-1.42.15A2.84,2.84,0,0,1,9.94,22l1.81-2.38a1.1,1.1,0,0,0,.64.2,1.21,1.21,0,0,0,.66-.2,2.42,2.42,0,0,0,.62-.59,3.69,3.69,0,0,0,.46-.75,1.93,1.93,0,0,0,.19-.74.83.83,0,0,0-.26-.62.48.48,0,0,0-.5-.16,1.85,1.85,0,0,0-.6.34c-.21.17-.42.36-.64.57l-1.19,1.12a2.86,2.86,0,0,1-1.92.9,2.66,2.66,0,0,1-2-.91A3.25,3.25,0,0,1,6.31,17a4.78,4.78,0,0,1,.17-2.14,6.78,6.78,0,0,1,1.08-2.08,4.85,4.85,0,0,1,1.73-1.51,3.63,3.63,0,0,1,1.85-.41,2.78,2.78,0,0,1,1.58.61L11,13.82a1.06,1.06,0,0,0-.62-.29,1,1,0,0,0-.6.19,3.16,3.16,0,0,0-.6.61,2.67,2.67,0,0,0-.44.79,1.15,1.15,0,0,0,0,.6.72.72,0,0,0,.19.38.66.66,0,0,0,.55.22,1.6,1.6,0,0,0,.8-.49l1.2-1.12a4.31,4.31,0,0,1,1.53-1,2.3,2.3,0,0,1,1.25-.11,2.63,2.63,0,0,1,1,.43,5.5,5.5,0,0,1,.69.59,2.77,2.77,0,0,1,.77,1.65,4.93,4.93,0,0,1-.22,2.15A7.18,7.18,0,0,1,15.22,20.62Z"/><path class="cls-1" d="M16.78,17.43l1-11.83,2.71-1.11,6,9-2.63,1.07-1.13-1.74-3.13,1.27-.19,2.29Zm2.83-6,2-.8L19.81,7.72Z"/><path class="cls-1" d="M26.17,13.58,27.82,3h2.89L34,8.91,34.87,3h2.89L36.12,13.58h-2.6L30,7.29l-1,6.29Z"/><path class="cls-1" d="M37.51,13.58,42.94,3h2.92L48,13.58H45.18l-.39-2.05H41.42l-1,2.05ZM42.4,9.11h2.11L44,5.74Z"/><path class="cls-1" d="M54.69,10.41a2.17,2.17,0,0,1-1.13-.3,2.3,2.3,0,0,1-.81-.8,2.17,2.17,0,0,1,0-2.2,2.3,2.3,0,0,1,.81-.8,2.33,2.33,0,0,1,2.25,0,2.41,2.41,0,0,1,.82.8,2.17,2.17,0,0,1,0,2.2,2.41,2.41,0,0,1-.82.8A2.16,2.16,0,0,1,54.69,10.41Z"/><path class="cls-1" d="M65.44,13.72A4.47,4.47,0,0,1,62.89,13a3.68,3.68,0,0,1-1.47-1.9,5.48,5.48,0,0,1-.19-2.8,6.78,6.78,0,0,1,1.11-2.88,5.91,5.91,0,0,1,2.14-1.9,5.82,5.82,0,0,1,2.82-.68,4.7,4.7,0,0,1,2.39.55,3.41,3.41,0,0,1,1.38,1.44,3.2,3.2,0,0,1,.3,1.88h-3A2.13,2.13,0,0,0,68.17,6a1.26,1.26,0,0,0-.48-.54,1.5,1.5,0,0,0-.83-.2,2.08,2.08,0,0,0-1,.28,2.46,2.46,0,0,0-.89.94,5.15,5.15,0,0,0-.57,1.8,5,5,0,0,0,0,1.57,1.79,1.79,0,0,0,.39.9,1.43,1.43,0,0,0,.64.43,2.49,2.49,0,0,0,.7.11,1.85,1.85,0,0,0,.58-.09,2.45,2.45,0,0,0,.49-.23,2.08,2.08,0,0,0,.39-.32,1.13,1.13,0,0,0,.24-.36l.19-.38H66.08L66.38,8l4.89,0-.86,5.58H68.52l.17-1.17c-.21.18-.45.37-.73.58a4,4,0,0,1-1,.52A4.57,4.57,0,0,1,65.44,13.72Z"/><path class="cls-1" d="M71.79,13.58,77.21,3h2.93L82.3,13.58H79.46l-.39-2.05H75.7l-1,2.05Zm4.89-4.47h2.11l-.52-3.37Z"/><path class="cls-1" d="M83.52,13.58,85.15,3H88L86.41,13.58Z"/><path class="cls-1" d="M88.54,13.58,90.11,3h1.42c.75,0,1.47,0,2.18.06a10.9,10.9,0,0,1,2,.26A4.81,4.81,0,0,1,97.31,4,3,3,0,0,1,98.4,5.27a4.76,4.76,0,0,1,.39,2.06,7.35,7.35,0,0,1-.1,1.15,7.48,7.48,0,0,1-.35,1.35,6.27,6.27,0,0,1-.7,1.36,5.3,5.3,0,0,1-1.16,1.21,5.65,5.65,0,0,1-1.7.86,7.76,7.76,0,0,1-2.35.32Zm3.23-2.24h1A2.36,2.36,0,0,0,93.94,11a3.4,3.4,0,0,0,1-.88,4.34,4.34,0,0,0,.67-1.28,5.08,5.08,0,0,0,.23-1.52,2.48,2.48,0,0,0-.24-1.15,1.61,1.61,0,0,0-.69-.7,2.27,2.27,0,0,0-1.08-.23h-1.1Z"/><path class="cls-1" d="M99.59,13.58,101.22,3h2.89l-1.62,10.56ZM100,2l.27-1.74h5.92L105.87,2Z"/><path class="cls-1" d="M109,13.72a6.94,6.94,0,0,1-1.64-.19,4.64,4.64,0,0,1-1.42-.6,2.79,2.79,0,0,1-1-1,2.7,2.7,0,0,1-.28-1.51h3a1.11,1.11,0,0,0,.22.63,1.32,1.32,0,0,0,.56.41,2.4,2.4,0,0,0,.85.14,4.17,4.17,0,0,0,.88-.09,2,2,0,0,0,.7-.29.87.87,0,0,0,.34-.59.46.46,0,0,0-.18-.49,1.53,1.53,0,0,0-.63-.27c-.26-.06-.54-.12-.84-.17L108,9.37a2.89,2.89,0,0,1-1.88-1,2.66,2.66,0,0,1-.46-2.13,3.25,3.25,0,0,1,.88-1.82,4.65,4.65,0,0,1,1.8-1.15,6.6,6.6,0,0,1,2.31-.4,5.06,5.06,0,0,1,2.26.47,3.66,3.66,0,0,1,1.44,1.23,2.75,2.75,0,0,1,.46,1.63h-2.92a1.12,1.12,0,0,0-.15-.66,1,1,0,0,0-.51-.37,2.85,2.85,0,0,0-.84-.11,2.45,2.45,0,0,0-.9.13,1.15,1.15,0,0,0-.51.32.9.9,0,0,0-.19.38.68.68,0,0,0,.16.58,1.6,1.6,0,0,0,.88.34l1.61.28a4.5,4.5,0,0,1,1.74.61,2.26,2.26,0,0,1,.83.93,2.45,2.45,0,0,1,.24,1,5,5,0,0,1,0,.9,2.76,2.76,0,0,1-.86,1.61,5,5,0,0,1-1.84,1.13A7.23,7.23,0,0,1,109,13.72Zm.7-11.58L108,0h2l.88,1.2,1.1-1.2H114l-2.3,2.14Z"/><path class="cls-1" d="M114.41,13.58,119.83,3h2.93l2.16,10.56h-2.84l-.39-2.05h-3.37l-1,2.05Zm4.89-4.47h2.11l-.52-3.37Z"/><path class="cls-1" d="M126.15,13.58,127.79,3h2.9L134,8.91l.9-5.89h2.89L136.1,13.58h-2.6L130,7.29l-1,6.29Z"/><path class="cls-1" d="M137.45,13.58,142.88,3h2.93L148,13.58h-2.84l-.38-2.05h-3.38l-1,2.05Zm4.89-4.47h2.12l-.53-3.37Z"/><path class="cls-1" d="M154.64,10.41a2.2,2.2,0,0,1-1.13-.3,2.3,2.3,0,0,1-.81-.8,2.17,2.17,0,0,1,0-2.2A2.21,2.21,0,0,1,154.64,6a2.22,2.22,0,0,1,1.12.29,2.33,2.33,0,0,1,.82.8,2.17,2.17,0,0,1,0,2.2,2.33,2.33,0,0,1-.82.8A2.13,2.13,0,0,1,154.64,10.41Z"/><path class="cls-1" d="M165.39,13.72a4.5,4.5,0,0,1-2.56-.68,3.79,3.79,0,0,1-1.47-1.9,5.59,5.59,0,0,1-.19-2.8,6.93,6.93,0,0,1,1.12-2.88,6,6,0,0,1,2.13-1.9,5.89,5.89,0,0,1,2.83-.68,4.66,4.66,0,0,1,2.38.55A3.37,3.37,0,0,1,171,4.87a3.12,3.12,0,0,1,.29,1.88h-3a2.13,2.13,0,0,0-.19-.78,1.22,1.22,0,0,0-.49-.54,1.47,1.47,0,0,0-.82-.2,2.06,2.06,0,0,0-1,.28,2.48,2.48,0,0,0-.9.94,5.39,5.39,0,0,0-.56,1.8,5,5,0,0,0,0,1.57,1.79,1.79,0,0,0,.39.9,1.4,1.4,0,0,0,.63.43,2.56,2.56,0,0,0,.71.11,1.79,1.79,0,0,0,.57-.09,2.54,2.54,0,0,0,.5-.23,1.74,1.74,0,0,0,.38-.32,1.17,1.17,0,0,0,.25-.36l.19-.38H166L166.32,8l4.9,0-.87,5.58h-1.88l.17-1.17c-.21.18-.46.37-.74.58a4.06,4.06,0,0,1-1,.52A4.61,4.61,0,0,1,165.39,13.72Z"/><path class="cls-1" d="M171.73,13.58,177.16,3h2.93l2.16,10.56h-2.84L179,11.53h-3.38l-1,2.05Zm4.9-4.47h2.11l-.52-3.37Z"/><path class="cls-1" d="M183.47,13.58,185.1,3H188l-1.62,10.56Z"/><path class="cls-1" d="M188.48,13.58,190,3h1.43c.75,0,1.47,0,2.18.06a10.9,10.9,0,0,1,2,.26,4.9,4.9,0,0,1,1.62.67,3.12,3.12,0,0,1,1.09,1.26,4.76,4.76,0,0,1,.39,2.06,8.8,8.8,0,0,1-.1,1.15,8.42,8.42,0,0,1-.35,1.35,6.27,6.27,0,0,1-.7,1.36,5.3,5.3,0,0,1-1.16,1.21,5.77,5.77,0,0,1-1.7.86,7.81,7.81,0,0,1-2.35.32Zm3.23-2.24h1a2.36,2.36,0,0,0,1.21-.32,3.4,3.4,0,0,0,1-.88,4.56,4.56,0,0,0,.66-1.28,4.79,4.79,0,0,0,.24-1.52,2.48,2.48,0,0,0-.24-1.15,1.61,1.61,0,0,0-.69-.7,2.27,2.27,0,0,0-1.08-.23h-1.1Z"/><path class="cls-1" d="M199.56,13.58,201.18,3h2.89l-1.62,10.56ZM199.91,2l.27-1.74h5.92L205.83,2Z"/><path class="cls-1" d="M209,13.72a6.88,6.88,0,0,1-1.64-.19,4.54,4.54,0,0,1-1.42-.6,2.79,2.79,0,0,1-1-1,2.62,2.62,0,0,1-.28-1.51h3a1.11,1.11,0,0,0,.22.63,1.26,1.26,0,0,0,.56.41,2.4,2.4,0,0,0,.85.14,4,4,0,0,0,.87-.09,2,2,0,0,0,.71-.29.87.87,0,0,0,.34-.59.46.46,0,0,0-.18-.49,1.67,1.67,0,0,0-.63-.27c-.26-.06-.54-.12-.84-.17l-1.61-.28a2.89,2.89,0,0,1-1.88-1,2.66,2.66,0,0,1-.46-2.13,3.19,3.19,0,0,1,.88-1.82,4.65,4.65,0,0,1,1.8-1.15,6.52,6.52,0,0,1,2.31-.4,5.06,5.06,0,0,1,2.26.47,3.66,3.66,0,0,1,1.44,1.23,2.75,2.75,0,0,1,.46,1.63h-2.92a1.12,1.12,0,0,0-.15-.66,1,1,0,0,0-.51-.37,2.92,2.92,0,0,0-.85-.11,2.52,2.52,0,0,0-.9.13,1.17,1.17,0,0,0-.5.32.9.9,0,0,0-.19.38.68.68,0,0,0,.16.58,1.6,1.6,0,0,0,.88.34l1.61.28a4.5,4.5,0,0,1,1.74.61,2.26,2.26,0,0,1,.83.93,2.45,2.45,0,0,1,.24,1,5,5,0,0,1,0,.9,2.81,2.81,0,0,1-.86,1.61,5,5,0,0,1-1.84,1.13A7.23,7.23,0,0,1,209,13.72Zm.7-11.58L207.93,0h2l.88,1.2,1.1-1.2h2.06l-2.3,2.14Z"/><path class="cls-1" d="M214.33,13.58,219.75,3h2.93l2.16,10.56H222l-.39-2.05h-3.37l-1.05,2.05Zm4.89-4.47h2.11l-.52-3.37Z"/><path class="cls-1" d="M226.08,13.58,227.73,3h2.9l3.25,5.89.9-5.89h2.89L236,13.58h-2.59l-3.5-6.29-1,6.29Z"/><path class="cls-1" d="M237.38,13.58,242.8,3h2.93l2.16,10.56h-2.84l-.39-2.05h-3.37l-1,2.05Zm4.89-4.47h2.11l-.52-3.37Z"/><path class="cls-1" d="M254.57,10.41a2.17,2.17,0,0,1-1.13-.3,2.3,2.3,0,0,1-.81-.8,2.17,2.17,0,0,1,0-2.2,2.3,2.3,0,0,1,.81-.8,2.33,2.33,0,0,1,2.25,0,2.41,2.41,0,0,1,.82.8,2.17,2.17,0,0,1,0,2.2,2.41,2.41,0,0,1-.82.8A2.16,2.16,0,0,1,254.57,10.41Z"/><path class="cls-1" d="M265.34,13.72a4.5,4.5,0,0,1-2.56-.68,3.74,3.74,0,0,1-1.47-1.9,5.59,5.59,0,0,1-.19-2.8,6.79,6.79,0,0,1,1.12-2.88,6,6,0,0,1,2.13-1.9,5.88,5.88,0,0,1,2.82-.68,4.67,4.67,0,0,1,2.39.55A3.37,3.37,0,0,1,271,4.87a3.2,3.2,0,0,1,.29,1.88h-3a2.13,2.13,0,0,0-.2-.78,1.2,1.2,0,0,0-.48-.54,1.47,1.47,0,0,0-.82-.2,2.12,2.12,0,0,0-1.05.28,2.54,2.54,0,0,0-.89.94,5.17,5.17,0,0,0-.56,1.8,5,5,0,0,0,0,1.57,1.87,1.87,0,0,0,.38.9,1.48,1.48,0,0,0,.64.43,2.56,2.56,0,0,0,.71.11,1.79,1.79,0,0,0,.57-.09,2.54,2.54,0,0,0,.5-.23,2.38,2.38,0,0,0,.38-.32,1.38,1.38,0,0,0,.25-.36l.18-.38H266L266.27,8l4.89,0-.86,5.58h-1.89l.17-1.17c-.2.18-.45.37-.73.58a4.06,4.06,0,0,1-1,.52A4.61,4.61,0,0,1,265.34,13.72Z"/><path class="cls-1" d="M271.67,13.58,277.1,3H280l2.15,10.56h-2.84L279,11.53h-3.38l-1,2.05Zm4.89-4.47h2.11l-.52-3.37Z"/><path class="cls-1" d="M283.41,13.58,285,3h2.89l-1.62,10.56Z"/><path class="cls-1" d="M288.43,13.58,290,3h1.42c.75,0,1.47,0,2.18.06a10.9,10.9,0,0,1,2,.26A4.81,4.81,0,0,1,297.2,4a3,3,0,0,1,1.09,1.26,4.76,4.76,0,0,1,.39,2.06,7.35,7.35,0,0,1-.1,1.15,7.48,7.48,0,0,1-.35,1.35,6.27,6.27,0,0,1-.7,1.36,5.09,5.09,0,0,1-1.16,1.21,5.65,5.65,0,0,1-1.7.86,7.76,7.76,0,0,1-2.35.32Zm3.23-2.24h1a2.36,2.36,0,0,0,1.21-.32,3.4,3.4,0,0,0,1-.88,4.34,4.34,0,0,0,.67-1.28,5.08,5.08,0,0,0,.23-1.52,2.48,2.48,0,0,0-.24-1.15,1.61,1.61,0,0,0-.69-.7,2.27,2.27,0,0,0-1.08-.23h-1.1Z"/><path class="cls-1" d="M299.47,13.58,301.1,3H304l-1.62,10.56ZM299.82,2l.27-1.74H306L305.74,2Z"/><path class="cls-1" d="M308.87,13.72a6.94,6.94,0,0,1-1.64-.19,4.64,4.64,0,0,1-1.42-.6,2.79,2.79,0,0,1-1-1,2.7,2.7,0,0,1-.28-1.51h3a1.19,1.19,0,0,0,.22.63,1.32,1.32,0,0,0,.56.41,2.42,2.42,0,0,0,.86.14,4.14,4.14,0,0,0,.87-.09,2,2,0,0,0,.7-.29.87.87,0,0,0,.34-.59.46.46,0,0,0-.18-.49,1.53,1.53,0,0,0-.63-.27c-.26-.06-.54-.12-.84-.17l-1.61-.28a2.89,2.89,0,0,1-1.88-1,2.66,2.66,0,0,1-.46-2.13,3.25,3.25,0,0,1,.88-1.82,4.61,4.61,0,0,1,1.81-1.15,6.51,6.51,0,0,1,2.3-.4,5.06,5.06,0,0,1,2.26.47,3.66,3.66,0,0,1,1.44,1.23,2.68,2.68,0,0,1,.46,1.63h-2.92a1,1,0,0,0-.15-.66,1,1,0,0,0-.51-.37,2.85,2.85,0,0,0-.84-.11,2.48,2.48,0,0,0-.9.13,1.06,1.06,0,0,0-.5.32.8.8,0,0,0-.19.38.64.64,0,0,0,.15.58,1.6,1.6,0,0,0,.88.34l1.61.28a4.5,4.5,0,0,1,1.74.61,2.26,2.26,0,0,1,.83.93,2.45,2.45,0,0,1,.24,1,5,5,0,0,1,0,.9,2.8,2.8,0,0,1-.85,1.61,5.08,5.08,0,0,1-1.85,1.13A7.23,7.23,0,0,1,308.87,13.72Zm.7-11.58L307.85,0h2l.89,1.2L311.79,0h2.06l-2.3,2.14Z"/><path class="cls-1" d="M314.26,13.58,319.69,3h2.93l2.16,10.56h-2.84l-.39-2.05h-3.37l-1.05,2.05Zm4.9-4.47h2.11l-.52-3.37Z"/><path class="cls-1" d="M326,13.58,327.65,3h2.89l3.26,5.89L334.7,3h2.89L336,13.58h-2.6l-3.49-6.29-1,6.29Z"/><path class="cls-1" d="M337.31,13.58,342.74,3h2.93l2.15,10.56H345l-.38-2.05h-3.38l-1,2.05Zm4.89-4.47h2.11l-.52-3.37Z"/><path class="cls-1" d="M354.52,10.41a2.2,2.2,0,0,1-1.13-.3,2.3,2.3,0,0,1-.81-.8,2.17,2.17,0,0,1,0-2.2,2.26,2.26,0,0,1,3.88,0,2.11,2.11,0,0,1,0,2.2,2.3,2.3,0,0,1-.81.8A2.2,2.2,0,0,1,354.52,10.41Z"/><path class="cls-1" d="M365.26,13.72a4.45,4.45,0,0,1-2.55-.68,3.75,3.75,0,0,1-1.48-1.9,5.59,5.59,0,0,1-.18-2.8,6.78,6.78,0,0,1,1.11-2.88,5.91,5.91,0,0,1,2.14-1.9,5.82,5.82,0,0,1,2.82-.68,4.7,4.7,0,0,1,2.39.55,3.41,3.41,0,0,1,1.38,1.44,3.2,3.2,0,0,1,.3,1.88h-3A2.13,2.13,0,0,0,368,6a1.26,1.26,0,0,0-.48-.54,1.5,1.5,0,0,0-.83-.2,2.08,2.08,0,0,0-1,.28,2.46,2.46,0,0,0-.89.94,5.15,5.15,0,0,0-.57,1.8,5,5,0,0,0,0,1.57,1.79,1.79,0,0,0,.39.9,1.43,1.43,0,0,0,.64.43,2.49,2.49,0,0,0,.7.11,1.85,1.85,0,0,0,.58-.09,2.45,2.45,0,0,0,.49-.23,2.08,2.08,0,0,0,.39-.32,1.13,1.13,0,0,0,.24-.36l.19-.38H365.9L366.2,8l4.89,0-.86,5.58h-1.89l.17-1.17c-.21.18-.45.37-.73.58a4.13,4.13,0,0,1-1,.52A4.57,4.57,0,0,1,365.26,13.72Z"/><path class="cls-1" d="M371.6,13.58,377,3H380l2.15,10.56h-2.84l-.38-2.05h-3.38l-1,2.05Zm4.89-4.47h2.11l-.52-3.37Z"/><path class="cls-1" d="M383.35,13.58,385,3h2.89l-1.62,10.56Z"/><path class="cls-1" d="M388.36,13.58,389.93,3h1.43c.74,0,1.47,0,2.18.06a10.9,10.9,0,0,1,2,.26,4.9,4.9,0,0,1,1.62.67,3.12,3.12,0,0,1,1.09,1.26,4.76,4.76,0,0,1,.39,2.06,8.8,8.8,0,0,1-.1,1.15,8.42,8.42,0,0,1-.35,1.35,5.9,5.9,0,0,1-.71,1.36,5,5,0,0,1-1.15,1.21,5.77,5.77,0,0,1-1.7.86,7.86,7.86,0,0,1-2.35.32Zm3.24-2.24h1a2.36,2.36,0,0,0,1.21-.32,3.4,3.4,0,0,0,1-.88,4.56,4.56,0,0,0,.66-1.28,4.79,4.79,0,0,0,.24-1.52,2.48,2.48,0,0,0-.24-1.15,1.61,1.61,0,0,0-.69-.7,2.28,2.28,0,0,0-1.09-.23h-1.1Z"/><path class="cls-1" d="M399.42,13.58,401.05,3h2.89l-1.62,10.56ZM399.78,2l.27-1.74H406L405.7,2Z"/><path class="cls-1" d="M408.82,13.72a6.79,6.79,0,0,1-1.63-.19,4.6,4.6,0,0,1-1.43-.6,2.87,2.87,0,0,1-1-1,2.7,2.7,0,0,1-.28-1.51h3a1.19,1.19,0,0,0,.22.63,1.32,1.32,0,0,0,.56.41,2.42,2.42,0,0,0,.86.14,4.14,4.14,0,0,0,.87-.09,2,2,0,0,0,.7-.29.83.83,0,0,0,.34-.59.46.46,0,0,0-.18-.49,1.53,1.53,0,0,0-.63-.27c-.26-.06-.54-.12-.84-.17l-1.61-.28a2.89,2.89,0,0,1-1.88-1,2.7,2.7,0,0,1-.46-2.13,3.25,3.25,0,0,1,.88-1.82,4.69,4.69,0,0,1,1.81-1.15,6.52,6.52,0,0,1,2.31-.4,5,5,0,0,1,2.25.47,3.66,3.66,0,0,1,1.44,1.23,2.68,2.68,0,0,1,.46,1.63h-2.92a1,1,0,0,0-.15-.66,1,1,0,0,0-.51-.37,2.85,2.85,0,0,0-.84-.11,2.52,2.52,0,0,0-.9.13,1.06,1.06,0,0,0-.5.32.8.8,0,0,0-.19.38.64.64,0,0,0,.15.58,1.64,1.64,0,0,0,.88.34l1.61.28a4.5,4.5,0,0,1,1.74.61,2.36,2.36,0,0,1,.84.93,2.6,2.6,0,0,1,.23,1,5,5,0,0,1-.05.9,2.8,2.8,0,0,1-.85,1.61,5.08,5.08,0,0,1-1.85,1.13A7.23,7.23,0,0,1,408.82,13.72Zm.7-11.58L407.8,0h2l.89,1.2L411.74,0h2.07L411.5,2.14Z"/><path class="cls-1" d="M414.2,13.58,419.63,3h2.93l2.15,10.56h-2.84l-.39-2.05h-3.37l-1,2.05Zm4.89-4.47h2.11l-.52-3.37Z"/><path class="cls-1" d="M426,13.58,427.61,3h2.9l3.25,5.89.9-5.89h2.89l-1.64,10.56h-2.59l-3.5-6.29-1,6.29Z"/><path class="cls-1" d="M437.25,13.58,442.68,3h2.93l2.16,10.56h-2.84l-.39-2.05h-3.37l-1.05,2.05Zm4.9-4.47h2.11l-.52-3.37Z"/><path class="cls-1" d="M454.44,10.41a2.16,2.16,0,0,1-1.12-.3,2.3,2.3,0,0,1-.81-.8,2.11,2.11,0,0,1,0-2.2,2.3,2.3,0,0,1,.81-.8A2.25,2.25,0,0,1,454.44,6a2.21,2.21,0,0,1,1.94,1.09,2.11,2.11,0,0,1,0,2.2,2.3,2.3,0,0,1-.81.8A2.2,2.2,0,0,1,454.44,10.41Z"/><path class="cls-1" d="M465.19,13.72a4.47,4.47,0,0,1-2.55-.68,3.68,3.68,0,0,1-1.47-1.9,5.48,5.48,0,0,1-.19-2.8,6.78,6.78,0,0,1,1.11-2.88,5.91,5.91,0,0,1,2.14-1.9,5.82,5.82,0,0,1,2.82-.68,4.7,4.7,0,0,1,2.39.55,3.41,3.41,0,0,1,1.38,1.44,3.2,3.2,0,0,1,.3,1.88h-3a2.13,2.13,0,0,0-.19-.78,1.26,1.26,0,0,0-.48-.54,1.5,1.5,0,0,0-.83-.2,2.08,2.08,0,0,0-1,.28,2.46,2.46,0,0,0-.89.94,5.15,5.15,0,0,0-.57,1.8,5,5,0,0,0,0,1.57,1.79,1.79,0,0,0,.39.9,1.43,1.43,0,0,0,.64.43,2.49,2.49,0,0,0,.7.11,1.85,1.85,0,0,0,.58-.09,2.45,2.45,0,0,0,.49-.23,2.08,2.08,0,0,0,.39-.32,1.13,1.13,0,0,0,.24-.36l.19-.38h-1.86l.3-1.91L471,8l-.86,5.58h-1.89l.17-1.17c-.21.18-.45.37-.73.58a4,4,0,0,1-1,.52A4.57,4.57,0,0,1,465.19,13.72Z"/><path class="cls-1" d="M471.55,13.58,477,3h2.93l2.16,10.56h-2.84l-.39-2.05h-3.37l-1,2.05Zm4.89-4.47h2.11L478,5.74Z"/><path class="cls-1" d="M483.3,13.58,484.93,3h2.88l-1.62,10.56Z"/><path class="cls-1" d="M488.31,13.58,489.88,3h1.42c.75,0,1.47,0,2.18.06a10.9,10.9,0,0,1,2,.26,4.73,4.73,0,0,1,1.62.67,3,3,0,0,1,1.09,1.26,4.76,4.76,0,0,1,.39,2.06,7.35,7.35,0,0,1-.1,1.15,7.48,7.48,0,0,1-.35,1.35,6.27,6.27,0,0,1-.7,1.36,5.09,5.09,0,0,1-1.16,1.21,5.65,5.65,0,0,1-1.7.86,7.76,7.76,0,0,1-2.35.32Zm3.23-2.24h1a2.33,2.33,0,0,0,1.21-.32,3.4,3.4,0,0,0,1-.88,4.34,4.34,0,0,0,.67-1.28,4.79,4.79,0,0,0,.23-1.52,2.48,2.48,0,0,0-.24-1.15,1.61,1.61,0,0,0-.69-.7,2.27,2.27,0,0,0-1.08-.23h-1.1Z"/><path class="cls-1" d="M499.34,13.58,501,3h2.89l-1.62,10.56ZM499.7,2,500,.23h5.92L505.62,2Z"/><path class="cls-1" d="M508.76,13.72a6.94,6.94,0,0,1-1.64-.19,4.64,4.64,0,0,1-1.42-.6,2.79,2.79,0,0,1-1-1,2.7,2.7,0,0,1-.28-1.51h3a1.11,1.11,0,0,0,.22.63,1.32,1.32,0,0,0,.56.41,2.4,2.4,0,0,0,.85.14,4,4,0,0,0,.87-.09,2,2,0,0,0,.71-.29.87.87,0,0,0,.34-.59.46.46,0,0,0-.18-.49,1.6,1.6,0,0,0-.63-.27c-.26-.06-.54-.12-.84-.17l-1.61-.28a2.89,2.89,0,0,1-1.88-1,2.66,2.66,0,0,1-.46-2.13,3.25,3.25,0,0,1,.88-1.82,4.65,4.65,0,0,1,1.8-1.15,6.6,6.6,0,0,1,2.31-.4,5.06,5.06,0,0,1,2.26.47,3.66,3.66,0,0,1,1.44,1.23,2.75,2.75,0,0,1,.46,1.63h-2.92a1.12,1.12,0,0,0-.15-.66,1,1,0,0,0-.51-.37,2.9,2.9,0,0,0-.84-.11,2.45,2.45,0,0,0-.9.13,1.15,1.15,0,0,0-.51.32.9.9,0,0,0-.19.38.68.68,0,0,0,.16.58,1.6,1.6,0,0,0,.88.34l1.61.28a4.5,4.5,0,0,1,1.74.61,2.26,2.26,0,0,1,.83.93,2.45,2.45,0,0,1,.24,1,5,5,0,0,1-.05.9,2.76,2.76,0,0,1-.86,1.61,5,5,0,0,1-1.84,1.13A7.23,7.23,0,0,1,508.76,13.72Zm.7-11.58L507.74,0h2l.88,1.2,1.1-1.2h2.06l-2.3,2.14Z"/><path class="cls-1" d="M514.16,13.58,519.59,3h2.93l2.15,10.56h-2.84l-.39-2.05h-3.37l-1,2.05Zm4.89-4.47h2.11l-.52-3.37Z"/><path class="cls-1" d="M525.91,13.58,527.55,3h2.9l3.26,5.89L534.6,3h2.9l-1.65,10.56h-2.59l-3.49-6.29-1,6.29Z"/><path class="cls-1" d="M537.19,13.58,542.61,3h2.93l2.16,10.56h-2.84l-.39-2.05H541.1l-1,2.05Zm4.89-4.47h2.11l-.52-3.37Z"/><path class="cls-1" d="M554.39,10.41a2.2,2.2,0,0,1-1.13-.3,2.3,2.3,0,0,1-.81-.8,2.17,2.17,0,0,1,0-2.2A2.21,2.21,0,0,1,554.39,6a2.25,2.25,0,0,1,1.12.29,2.41,2.41,0,0,1,.82.8,2.17,2.17,0,0,1,0,2.2,2.41,2.41,0,0,1-.82.8A2.16,2.16,0,0,1,554.39,10.41Z"/><path class="cls-1" d="M565.14,13.72a4.45,4.45,0,0,1-2.55-.68,3.75,3.75,0,0,1-1.48-1.9,5.7,5.7,0,0,1-.19-2.8A6.93,6.93,0,0,1,562,5.46a5.91,5.91,0,0,1,2.14-1.9A5.82,5.82,0,0,1,567,2.88a4.63,4.63,0,0,1,2.38.55,3.37,3.37,0,0,1,1.39,1.44,3.12,3.12,0,0,1,.29,1.88h-3a2.13,2.13,0,0,0-.19-.78,1.26,1.26,0,0,0-.48-.54,1.5,1.5,0,0,0-.83-.2,2.08,2.08,0,0,0-1,.28,2.39,2.39,0,0,0-.89.94,5.15,5.15,0,0,0-.57,1.8,5,5,0,0,0,0,1.57,1.79,1.79,0,0,0,.39.9,1.43,1.43,0,0,0,.64.43,2.49,2.49,0,0,0,.7.11,1.9,1.9,0,0,0,.58-.09,2.45,2.45,0,0,0,.49-.23,2.08,2.08,0,0,0,.39-.32,1.13,1.13,0,0,0,.24-.36l.19-.38h-1.86l.3-1.91L571,8l-.86,5.58h-1.89l.17-1.17c-.21.18-.45.37-.73.58a4.13,4.13,0,0,1-1,.52A4.57,4.57,0,0,1,565.14,13.72Z"/><path class="cls-1" d="M571.5,13.58,576.93,3h2.93L582,13.58h-2.84l-.39-2.05h-3.38l-1,2.05Zm4.9-4.47h2.11L578,5.74Z"/><path class="cls-1" d="M583.23,13.58,584.86,3h2.88l-1.62,10.56Z"/><path class="cls-1" d="M588.24,13.58,589.81,3h1.43c.74,0,1.47,0,2.18.06a10.9,10.9,0,0,1,2,.26A4.9,4.9,0,0,1,597,4a3.12,3.12,0,0,1,1.09,1.26,4.76,4.76,0,0,1,.39,2.06,8.8,8.8,0,0,1-.1,1.15,8.42,8.42,0,0,1-.35,1.35,5.9,5.9,0,0,1-.71,1.36,5,5,0,0,1-1.15,1.21,5.77,5.77,0,0,1-1.7.86,7.86,7.86,0,0,1-2.35.32Zm3.24-2.24h1a2.36,2.36,0,0,0,1.21-.32,3.4,3.4,0,0,0,1-.88,4.56,4.56,0,0,0,.66-1.28,4.79,4.79,0,0,0,.24-1.52,2.48,2.48,0,0,0-.24-1.15,1.61,1.61,0,0,0-.69-.7,2.28,2.28,0,0,0-1.09-.23h-1.1Z"/><path class="cls-1" d="M599.29,13.58,600.92,3h2.88l-1.62,10.56ZM599.65,2l.26-1.74h5.92L605.56,2Z"/><path class="cls-1" d="M608.7,13.72a6.88,6.88,0,0,1-1.64-.19,4.6,4.6,0,0,1-1.43-.6,2.87,2.87,0,0,1-1-1,2.62,2.62,0,0,1-.27-1.51h3a1.12,1.12,0,0,0,.23.63,1.29,1.29,0,0,0,.55.41,2.46,2.46,0,0,0,.86.14,4.14,4.14,0,0,0,.87-.09,1.94,1.94,0,0,0,.7-.29.88.88,0,0,0,.35-.59.49.49,0,0,0-.18-.49,1.67,1.67,0,0,0-.63-.27l-.84-.17-1.62-.28a2.87,2.87,0,0,1-1.87-1,2.66,2.66,0,0,1-.47-2.13,3.32,3.32,0,0,1,.88-1.82A4.76,4.76,0,0,1,608,3.29a6.52,6.52,0,0,1,2.31-.4,5,5,0,0,1,2.25.47A3.66,3.66,0,0,1,614,4.59a2.68,2.68,0,0,1,.46,1.63h-2.92a1,1,0,0,0-.14-.66,1,1,0,0,0-.51-.37,2.92,2.92,0,0,0-.85-.11,2.52,2.52,0,0,0-.9.13,1.11,1.11,0,0,0-.5.32.8.8,0,0,0-.19.38.67.67,0,0,0,.15.58,1.64,1.64,0,0,0,.88.34l1.62.28a4.62,4.62,0,0,1,1.74.61,2.33,2.33,0,0,1,.83.93,2.8,2.8,0,0,1,.24,1,6,6,0,0,1-.06.9,2.8,2.8,0,0,1-.85,1.61,5.12,5.12,0,0,1-1.84,1.13A7.27,7.27,0,0,1,608.7,13.72Zm.7-11.58L607.67,0h2l.89,1.2L611.61,0h2.07l-2.31,2.14Z"/><path class="cls-1" d="M614.08,13.58,619.5,3h2.93l2.16,10.56h-2.84l-.39-2.05H618l-1,2.05ZM619,9.11h2.11l-.52-3.37Z"/><path class="cls-1" d="M625.83,13.58,627.47,3h2.9l3.25,5.89.9-5.89h2.9l-1.65,10.56h-2.59l-3.5-6.29-1,6.29Z"/><path class="cls-1" d="M637.14,13.58,642.57,3h2.93l2.16,10.56h-2.84l-.39-2.05h-3.38l-1,2.05ZM642,9.11h2.11l-.52-3.37Z"/><path class="cls-1" d="M654.34,10.41a2.16,2.16,0,0,1-1.12-.3,2.3,2.3,0,0,1-.81-.8,2.17,2.17,0,0,1,0-2.2,2.3,2.3,0,0,1,.81-.8,2.33,2.33,0,0,1,2.25,0,2.3,2.3,0,0,1,.81.8,2.11,2.11,0,0,1,0,2.2,2.3,2.3,0,0,1-.81.8A2.17,2.17,0,0,1,654.34,10.41Z"/><path class="cls-1" d="M665.08,13.72a4.47,4.47,0,0,1-2.55-.68,3.68,3.68,0,0,1-1.47-1.9,5.48,5.48,0,0,1-.19-2.8A6.78,6.78,0,0,1,662,5.46a5.95,5.95,0,0,1,5-2.58,4.7,4.7,0,0,1,2.39.55,3.41,3.41,0,0,1,1.38,1.44,3.2,3.2,0,0,1,.3,1.88h-3a2.13,2.13,0,0,0-.19-.78,1.26,1.26,0,0,0-.48-.54,1.5,1.5,0,0,0-.83-.2,2.11,2.11,0,0,0-1,.28,2.46,2.46,0,0,0-.89.94,5.15,5.15,0,0,0-.57,1.8,5.3,5.3,0,0,0,0,1.57,1.88,1.88,0,0,0,.39.9,1.48,1.48,0,0,0,.64.43,2.49,2.49,0,0,0,.7.11,1.81,1.81,0,0,0,.58-.09,2.45,2.45,0,0,0,.49-.23,2.08,2.08,0,0,0,.39-.32,1.13,1.13,0,0,0,.24-.36l.19-.38h-1.86L666,8l4.89,0-.86,5.58h-1.89l.17-1.17c-.21.18-.45.37-.73.58a4,4,0,0,1-1,.52A4.57,4.57,0,0,1,665.08,13.72Z"/><path class="cls-1" d="M671.44,13.58,676.87,3h2.93L682,13.58h-2.84l-.39-2.05h-3.38l-1,2.05Zm4.9-4.47h2.11l-.52-3.37Z"/><path class="cls-1" d="M683.18,13.58,684.81,3h2.88l-1.62,10.56Z"/><path class="cls-1" d="M688.19,13.58,689.76,3h1.42c.75,0,1.47,0,2.18.06a10.9,10.9,0,0,1,2,.26A4.81,4.81,0,0,1,697,4a3,3,0,0,1,1.09,1.26,4.76,4.76,0,0,1,.39,2.06,7.35,7.35,0,0,1-.1,1.15A7.48,7.48,0,0,1,698,9.83a6.27,6.27,0,0,1-.7,1.36,5.09,5.09,0,0,1-1.16,1.21,5.65,5.65,0,0,1-1.7.86,7.76,7.76,0,0,1-2.35.32Zm3.23-2.24h1a2.36,2.36,0,0,0,1.21-.32,3.4,3.4,0,0,0,1-.88,4.34,4.34,0,0,0,.67-1.28,5.08,5.08,0,0,0,.23-1.52,2.48,2.48,0,0,0-.24-1.15,1.61,1.61,0,0,0-.69-.7,2.27,2.27,0,0,0-1.08-.23h-1.1Z"/><path class="cls-1" d="M699.26,13.58,700.88,3h2.89l-1.62,10.56ZM699.61,2l.27-1.74h5.92L705.53,2Z"/><path class="cls-1" d="M708.65,13.72a6.82,6.82,0,0,1-1.64-.19,4.6,4.6,0,0,1-1.43-.6,2.87,2.87,0,0,1-1-1,2.7,2.7,0,0,1-.28-1.51h3a1.19,1.19,0,0,0,.22.63,1.32,1.32,0,0,0,.56.41,2.46,2.46,0,0,0,.86.14,4.14,4.14,0,0,0,.87-.09,2,2,0,0,0,.7-.29.88.88,0,0,0,.35-.59.48.48,0,0,0-.19-.49,1.55,1.55,0,0,0-.62-.27l-.84-.17-1.62-.28a2.89,2.89,0,0,1-1.88-1,2.7,2.7,0,0,1-.46-2.13,3.25,3.25,0,0,1,.88-1.82A4.69,4.69,0,0,1,708,3.29a6.52,6.52,0,0,1,2.31-.4,5,5,0,0,1,2.25.47A3.66,3.66,0,0,1,714,4.59a2.68,2.68,0,0,1,.46,1.63H711.5a1,1,0,0,0-.15-.66,1,1,0,0,0-.5-.37,2.92,2.92,0,0,0-.85-.11,2.52,2.52,0,0,0-.9.13,1.06,1.06,0,0,0-.5.32.8.8,0,0,0-.19.38.64.64,0,0,0,.15.58,1.64,1.64,0,0,0,.88.34l1.61.28a4.5,4.5,0,0,1,1.74.61,2.29,2.29,0,0,1,.84.93,2.6,2.6,0,0,1,.23,1,5,5,0,0,1-.05.9,2.8,2.8,0,0,1-.85,1.61,5.08,5.08,0,0,1-1.85,1.13A7.17,7.17,0,0,1,708.65,13.72Zm.69-11.58L707.62,0h2l.89,1.2L711.56,0h2.07l-2.31,2.14Z"/><path class="cls-1" d="M714,13.58,719.47,3h2.93l2.15,10.56h-2.84l-.38-2.05H718l-1,2.05Zm4.89-4.47H721l-.52-3.37Z"/><path class="cls-1" d="M725.77,13.58,727.41,3h2.9l3.25,5.89.9-5.89h2.9l-1.65,10.56h-2.59l-3.5-6.29-1,6.29Z"/><path class="cls-1" d="M737.09,13.58,742.52,3h2.93l2.15,10.56h-2.84l-.38-2.05H741l-1,2.05ZM742,9.11h2.11l-.52-3.37Z"/><path class="cls-1" d="M754.29,10.41a2.2,2.2,0,0,1-1.13-.3,2.3,2.3,0,0,1-.81-.8,2.17,2.17,0,0,1,0-2.2A2.21,2.21,0,0,1,754.29,6a2.25,2.25,0,0,1,1.12.29,2.41,2.41,0,0,1,.82.8,2.17,2.17,0,0,1,0,2.2,2.41,2.41,0,0,1-.82.8A2.16,2.16,0,0,1,754.29,10.41Z"/><path class="cls-1" d="M765,13.72a4.5,4.5,0,0,1-2.56-.68,3.68,3.68,0,0,1-1.47-1.9,5.48,5.48,0,0,1-.19-2.8,6.79,6.79,0,0,1,1.12-2.88,6,6,0,0,1,2.13-1.9,5.88,5.88,0,0,1,2.82-.68,4.67,4.67,0,0,1,2.39.55,3.37,3.37,0,0,1,1.39,1.44A3.2,3.2,0,0,1,771,6.75h-3a2.13,2.13,0,0,0-.2-.78,1.26,1.26,0,0,0-.48-.54,1.47,1.47,0,0,0-.82-.2,2.12,2.12,0,0,0-1.05.28,2.54,2.54,0,0,0-.89.94,5.17,5.17,0,0,0-.56,1.8,4.7,4.7,0,0,0,0,1.57,1.87,1.87,0,0,0,.38.9,1.48,1.48,0,0,0,.64.43,2.56,2.56,0,0,0,.71.11,1.79,1.79,0,0,0,.57-.09,2.54,2.54,0,0,0,.5-.23,2.38,2.38,0,0,0,.38-.32,1.38,1.38,0,0,0,.25-.36l.18-.38h-1.86L766,8l4.89,0L770,13.58h-1.89l.17-1.17c-.2.18-.45.37-.73.58a4.06,4.06,0,0,1-1,.52A4.65,4.65,0,0,1,765,13.72Z"/><path class="cls-1" d="M771.39,13.58,776.82,3h2.93l2.15,10.56h-2.84l-.38-2.05H775.3l-1,2.05Zm4.89-4.47h2.11l-.52-3.37Z"/><path class="cls-1" d="M783.12,13.58,784.75,3h2.88L786,13.58Z"/><path class="cls-1" d="M788.14,13.58,789.71,3h1.42c.75,0,1.47,0,2.18.06a10.9,10.9,0,0,1,2,.26,4.9,4.9,0,0,1,1.62.67A3,3,0,0,1,798,5.27a4.76,4.76,0,0,1,.39,2.06,7.35,7.35,0,0,1-.1,1.15,7.48,7.48,0,0,1-.35,1.35,6.27,6.27,0,0,1-.7,1.36,5.3,5.3,0,0,1-1.16,1.21,5.65,5.65,0,0,1-1.7.86,7.76,7.76,0,0,1-2.35.32Zm3.23-2.24h1a2.36,2.36,0,0,0,1.21-.32,3.4,3.4,0,0,0,1-.88,4.34,4.34,0,0,0,.67-1.28,5.08,5.08,0,0,0,.23-1.52,2.48,2.48,0,0,0-.24-1.15,1.61,1.61,0,0,0-.69-.7,2.27,2.27,0,0,0-1.08-.23h-1.1Z"/><path class="cls-1" d="M799.19,13.58,800.82,3h2.88l-1.62,10.56ZM799.55,2l.27-1.74h5.91L805.47,2Z"/><path class="cls-1" d="M808.6,13.72a6.88,6.88,0,0,1-1.64-.19,4.6,4.6,0,0,1-1.43-.6,2.87,2.87,0,0,1-1-1,2.7,2.7,0,0,1-.28-1.51h3a1.12,1.12,0,0,0,.23.63,1.29,1.29,0,0,0,.55.41,2.46,2.46,0,0,0,.86.14,4.14,4.14,0,0,0,.87-.09,1.94,1.94,0,0,0,.7-.29.88.88,0,0,0,.35-.59.48.48,0,0,0-.19-.49,1.55,1.55,0,0,0-.62-.27l-.84-.17-1.62-.28a2.84,2.84,0,0,1-1.87-1,2.66,2.66,0,0,1-.47-2.13,3.32,3.32,0,0,1,.88-1.82,4.76,4.76,0,0,1,1.81-1.15,6.52,6.52,0,0,1,2.31-.4,5,5,0,0,1,2.25.47,3.66,3.66,0,0,1,1.44,1.23,2.68,2.68,0,0,1,.46,1.63h-2.92a1,1,0,0,0-.14-.66,1,1,0,0,0-.51-.37,2.92,2.92,0,0,0-.85-.11,2.52,2.52,0,0,0-.9.13,1.06,1.06,0,0,0-.5.32.8.8,0,0,0-.19.38.64.64,0,0,0,.15.58,1.64,1.64,0,0,0,.88.34l1.62.28a4.62,4.62,0,0,1,1.74.61,2.33,2.33,0,0,1,.83.93,2.8,2.8,0,0,1,.24,1,6,6,0,0,1-.06.9,2.8,2.8,0,0,1-.85,1.61,5.08,5.08,0,0,1-1.85,1.13A7.17,7.17,0,0,1,808.6,13.72Zm.7-11.58L807.57,0h2l.89,1.2L811.51,0h2.07l-2.31,2.14Z"/><path class="cls-1" d="M814,13.58,819.4,3h2.93l2.15,10.56h-2.84l-.38-2.05h-3.38l-1,2.05Zm4.89-4.47H821l-.53-3.37Z"/><path class="cls-1" d="M825.74,13.58,827.38,3h2.9l3.26,5.89L834.43,3h2.9l-1.65,10.56h-2.59l-3.5-6.29-1,6.29Z"/><path class="cls-1" d="M837,13.58,842.46,3h2.93l2.16,10.56h-2.84l-.39-2.05h-3.38l-1,2.05Zm4.9-4.47H844l-.52-3.37Z"/><path class="cls-1" d="M854.25,10.41a2.17,2.17,0,0,1-1.13-.3,2.3,2.3,0,0,1-.81-.8,2.17,2.17,0,0,1,0-2.2,2.3,2.3,0,0,1,.81-.8,2.33,2.33,0,0,1,2.25,0,2.41,2.41,0,0,1,.82.8,2.17,2.17,0,0,1,0,2.2,2.41,2.41,0,0,1-.82.8A2.16,2.16,0,0,1,854.25,10.41Z"/><path class="cls-1" d="M865,13.72a4.49,4.49,0,0,1-2.55-.68,3.68,3.68,0,0,1-1.47-1.9,5.48,5.48,0,0,1-.19-2.8,6.78,6.78,0,0,1,1.11-2.88A6,6,0,0,1,864,3.56a5.88,5.88,0,0,1,2.82-.68,4.7,4.7,0,0,1,2.39.55,3.43,3.43,0,0,1,1.39,1.44,3.2,3.2,0,0,1,.29,1.88h-3a2.13,2.13,0,0,0-.2-.78,1.26,1.26,0,0,0-.48-.54,1.48,1.48,0,0,0-.83-.2,2.11,2.11,0,0,0-1,.28,2.54,2.54,0,0,0-.89.94,5,5,0,0,0-.56,1.8,4.7,4.7,0,0,0,0,1.57,1.87,1.87,0,0,0,.38.9,1.48,1.48,0,0,0,.64.43,2.54,2.54,0,0,0,.7.11,1.81,1.81,0,0,0,.58-.09,2.22,2.22,0,0,0,.49-.23,2.08,2.08,0,0,0,.39-.32,1.38,1.38,0,0,0,.25-.36l.18-.38h-1.86l.3-1.91,4.89,0L870,13.58h-1.89l.17-1.17c-.21.18-.45.37-.73.58a4,4,0,0,1-1,.52A4.57,4.57,0,0,1,865,13.72Z"/><path class="cls-1" d="M871.33,13.58,876.76,3h2.93l2.16,10.56H879l-.38-2.05h-3.38l-1,2.05Zm4.89-4.47h2.12l-.52-3.37Z"/><path class="cls-1" d="M883.08,13.58,884.7,3h2.89L886,13.58Z"/><path class="cls-1" d="M888.08,13.58,889.65,3h1.43c.74,0,1.46,0,2.17.06a10.9,10.9,0,0,1,2,.26,4.73,4.73,0,0,1,1.62.67,3,3,0,0,1,1.09,1.26,4.76,4.76,0,0,1,.39,2.06,7.35,7.35,0,0,1-.1,1.15,7.48,7.48,0,0,1-.35,1.35,5.86,5.86,0,0,1-.7,1.36A5.09,5.09,0,0,1,896,12.4a5.65,5.65,0,0,1-1.7.86,7.76,7.76,0,0,1-2.35.32Zm3.23-2.24h1a2.33,2.33,0,0,0,1.21-.32,3.57,3.57,0,0,0,1-.88,4.56,4.56,0,0,0,.66-1.28,4.79,4.79,0,0,0,.23-1.52,2.48,2.48,0,0,0-.24-1.15,1.61,1.61,0,0,0-.69-.7,2.27,2.27,0,0,0-1.08-.23h-1.1Z"/><path class="cls-1" d="M899.14,13.58,900.77,3h2.88L902,13.58ZM899.5,2l.27-1.74h5.91L905.42,2Z"/><path class="cls-1" d="M908.55,13.72a6.88,6.88,0,0,1-1.64-.19,4.54,4.54,0,0,1-1.42-.6,2.79,2.79,0,0,1-1-1,2.54,2.54,0,0,1-.28-1.51h3a1.12,1.12,0,0,0,.23.63,1.26,1.26,0,0,0,.56.41,2.36,2.36,0,0,0,.85.14,4.14,4.14,0,0,0,.87-.09,1.94,1.94,0,0,0,.7-.29.88.88,0,0,0,.35-.59.49.49,0,0,0-.18-.49,1.67,1.67,0,0,0-.63-.27c-.26-.06-.54-.12-.84-.17l-1.62-.28a2.87,2.87,0,0,1-1.87-1,2.66,2.66,0,0,1-.47-2.13,3.32,3.32,0,0,1,.88-1.82,4.76,4.76,0,0,1,1.81-1.15,6.52,6.52,0,0,1,2.31-.4,5.06,5.06,0,0,1,2.26.47,3.7,3.7,0,0,1,1.43,1.23,2.62,2.62,0,0,1,.46,1.63H911.4a1,1,0,0,0-.14-.66,1,1,0,0,0-.51-.37,2.92,2.92,0,0,0-.85-.11,2.52,2.52,0,0,0-.9.13,1.11,1.11,0,0,0-.5.32.8.8,0,0,0-.19.38.71.71,0,0,0,.15.58,1.64,1.64,0,0,0,.88.34l1.62.28a4.56,4.56,0,0,1,1.74.61,2.26,2.26,0,0,1,.83.93,2.8,2.8,0,0,1,.24,1,7.85,7.85,0,0,1,0,.9,2.81,2.81,0,0,1-.86,1.61A5.12,5.12,0,0,1,911,13.32,7.23,7.23,0,0,1,908.55,13.72Zm.7-11.58L907.52,0h2l.89,1.2L911.46,0h2.07l-2.31,2.14Z"/><path class="cls-1" d="M913.92,13.58,919.35,3h2.92l2.16,10.56h-2.84l-.39-2.05h-3.37l-1,2.05Zm4.89-4.47h2.11l-.52-3.37Z"/><path class="cls-1" d="M925.67,13.58,927.31,3h2.9l3.25,5.89.9-5.89h2.9l-1.65,10.56H933l-3.5-6.29-1,6.29Z"/><path class="cls-1" d="M937,13.58,942.42,3h2.92l2.16,10.56h-2.84l-.39-2.05H940.9l-1,2.05Zm4.89-4.47H944l-.52-3.37Z"/><path class="cls-1" d="M954.16,10.41a2.16,2.16,0,0,1-1.12-.3,2.3,2.3,0,0,1-.81-.8,2.17,2.17,0,0,1,0-2.2,2.3,2.3,0,0,1,.81-.8,2.33,2.33,0,0,1,2.25,0,2.3,2.3,0,0,1,.81.8,2.11,2.11,0,0,1,0,2.2,2.3,2.3,0,0,1-.81.8A2.17,2.17,0,0,1,954.16,10.41Z"/><path class="cls-1" d="M964.94,13.72a4.5,4.5,0,0,1-2.56-.68,3.68,3.68,0,0,1-1.47-1.9,5.48,5.48,0,0,1-.19-2.8,6.78,6.78,0,0,1,1.11-2.88A6,6,0,0,1,964,3.56a5.88,5.88,0,0,1,2.82-.68,4.67,4.67,0,0,1,2.39.55,3.43,3.43,0,0,1,1.39,1.44,3.2,3.2,0,0,1,.29,1.88h-3a2.13,2.13,0,0,0-.2-.78,1.26,1.26,0,0,0-.48-.54,1.48,1.48,0,0,0-.83-.2,2.11,2.11,0,0,0-1,.28,2.54,2.54,0,0,0-.89.94,5.17,5.17,0,0,0-.56,1.8,4.7,4.7,0,0,0,0,1.57,1.87,1.87,0,0,0,.38.9,1.48,1.48,0,0,0,.64.43,2.54,2.54,0,0,0,.7.11,1.81,1.81,0,0,0,.58-.09,2.54,2.54,0,0,0,.5-.23,2.38,2.38,0,0,0,.38-.32,1.38,1.38,0,0,0,.25-.36l.18-.38h-1.86l.3-1.91,4.89,0-.86,5.58H968l.17-1.17c-.2.18-.45.37-.73.58a4.06,4.06,0,0,1-1,.52A4.65,4.65,0,0,1,964.94,13.72Z"/><path class="cls-1" d="M971.27,13.58,976.7,3h2.93l2.15,10.56h-2.84l-.38-2.05h-3.38l-1,2.05Zm4.89-4.47h2.12l-.53-3.37Z"/><path class="cls-1" d="M983,13.58,984.64,3h2.88L985.9,13.58Z"/><path class="cls-1" d="M988,13.58,989.58,3H991c.75,0,1.47,0,2.18.06a10.9,10.9,0,0,1,2,.26,4.81,4.81,0,0,1,1.62.67,3,3,0,0,1,1.09,1.26,4.76,4.76,0,0,1,.39,2.06,7.35,7.35,0,0,1-.1,1.15,7.48,7.48,0,0,1-.35,1.35,6.27,6.27,0,0,1-.7,1.36A5.09,5.09,0,0,1,996,12.4a5.65,5.65,0,0,1-1.7.86,7.76,7.76,0,0,1-2.35.32Zm3.23-2.24h1a2.36,2.36,0,0,0,1.21-.32,3.4,3.4,0,0,0,1-.88,4.34,4.34,0,0,0,.67-1.28,5.08,5.08,0,0,0,.23-1.52,2.48,2.48,0,0,0-.24-1.15,1.61,1.61,0,0,0-.69-.7,2.27,2.27,0,0,0-1.08-.23h-1.1Z"/><path class="cls-1" d="M999.07,13.58,1000.7,3h2.88L1002,13.58ZM999.43,2l.26-1.74h5.92L1005.34,2Z"/><path class="cls-1" d="M1008.5,13.72a6.88,6.88,0,0,1-1.64-.19,4.6,4.6,0,0,1-1.43-.6,2.87,2.87,0,0,1-1-1,2.7,2.7,0,0,1-.28-1.51h3a1.12,1.12,0,0,0,.23.63,1.23,1.23,0,0,0,.55.41,2.46,2.46,0,0,0,.86.14,4.14,4.14,0,0,0,.87-.09,1.94,1.94,0,0,0,.7-.29.88.88,0,0,0,.35-.59.48.48,0,0,0-.19-.49,1.55,1.55,0,0,0-.62-.27l-.84-.17-1.62-.28a2.89,2.89,0,0,1-1.88-1,2.7,2.7,0,0,1-.46-2.13,3.25,3.25,0,0,1,.88-1.82,4.69,4.69,0,0,1,1.81-1.15,6.52,6.52,0,0,1,2.31-.4,5,5,0,0,1,2.25.47,3.66,3.66,0,0,1,1.44,1.23,2.68,2.68,0,0,1,.46,1.63h-2.92a1,1,0,0,0-.14-.66,1,1,0,0,0-.51-.37,2.92,2.92,0,0,0-.85-.11,2.52,2.52,0,0,0-.9.13,1.06,1.06,0,0,0-.5.32.8.8,0,0,0-.19.38.64.64,0,0,0,.15.58,1.64,1.64,0,0,0,.88.34l1.61.28a4.5,4.5,0,0,1,1.74.61,2.29,2.29,0,0,1,.84.93,2.6,2.6,0,0,1,.23,1,5,5,0,0,1-.05.9,2.8,2.8,0,0,1-.85,1.61,5.08,5.08,0,0,1-1.85,1.13A7.17,7.17,0,0,1,1008.5,13.72Zm.69-11.58L1007.47,0h2l.89,1.2,1.09-1.2h2.07l-2.31,2.14Z"/><path class="cls-1" d="M1013.86,13.58,1019.28,3h2.93l2.16,10.56h-2.84l-.39-2.05h-3.37l-1,2.05Zm4.89-4.47h2.11l-.52-3.37Z"/><path class="cls-1" d="M1025.61,13.58,1027.25,3h2.9l3.26,5.89.9-5.89h2.89l-1.64,10.56H1033l-3.49-6.29-1,6.29Z"/><path class="cls-1" d="M1036.93,13.58,1042.36,3h2.93l2.15,10.56h-2.84l-.38-2.05h-3.38l-1,2.05Zm4.89-4.47h2.11l-.52-3.37Z"/><path class="cls-1" d="M1054.12,10.41a2.13,2.13,0,0,1-1.12-.3,2.3,2.3,0,0,1-.81-.8,2.11,2.11,0,0,1,0-2.2,2.3,2.3,0,0,1,.81-.8,2.22,2.22,0,0,1,1.12-.29,2.21,2.21,0,0,1,1.94,1.09,2.11,2.11,0,0,1,0,2.2,2.3,2.3,0,0,1-.81.8A2.2,2.2,0,0,1,1054.12,10.41Z"/><path class="cls-1" d="M1064.85,13.72a4.45,4.45,0,0,1-2.55-.68,3.75,3.75,0,0,1-1.48-1.9,5.59,5.59,0,0,1-.18-2.8,6.78,6.78,0,0,1,1.11-2.88,5.91,5.91,0,0,1,2.14-1.9,5.82,5.82,0,0,1,2.82-.68,4.7,4.7,0,0,1,2.39.55,3.41,3.41,0,0,1,1.38,1.44,3.2,3.2,0,0,1,.3,1.88h-3a2.13,2.13,0,0,0-.19-.78,1.26,1.26,0,0,0-.48-.54,1.5,1.5,0,0,0-.83-.2,2.08,2.08,0,0,0-1,.28,2.46,2.46,0,0,0-.89.94,5.15,5.15,0,0,0-.57,1.8,5,5,0,0,0,0,1.57,1.79,1.79,0,0,0,.39.9,1.43,1.43,0,0,0,.64.43,2.49,2.49,0,0,0,.7.11,1.9,1.9,0,0,0,.58-.09,2.45,2.45,0,0,0,.49-.23,2.08,2.08,0,0,0,.39-.32,1.13,1.13,0,0,0,.24-.36l.19-.38h-1.86l.3-1.91,4.89,0-.86,5.58h-1.89l.17-1.17c-.21.18-.45.37-.73.58a4.13,4.13,0,0,1-1,.52A4.57,4.57,0,0,1,1064.85,13.72Z"/><path class="cls-1" d="M1071.22,13.58,1076.65,3h2.93l2.16,10.56h-2.84l-.39-2.05h-3.38l-1,2.05Zm4.9-4.47h2.11l-.52-3.37Z"/><path class="cls-1" d="M1083,13.58,1084.59,3h2.89l-1.62,10.56Z"/><path class="cls-1" d="M1088,13.58,1089.52,3h1.42c.75,0,1.47,0,2.18.06a10.9,10.9,0,0,1,2,.26,4.9,4.9,0,0,1,1.62.67,3.12,3.12,0,0,1,1.09,1.26,4.76,4.76,0,0,1,.39,2.06,7.35,7.35,0,0,1-.1,1.15,8.42,8.42,0,0,1-.35,1.35,6.27,6.27,0,0,1-.7,1.36,5.3,5.3,0,0,1-1.16,1.21,5.65,5.65,0,0,1-1.7.86,7.81,7.81,0,0,1-2.35.32Zm3.23-2.24h1a2.36,2.36,0,0,0,1.21-.32,3.4,3.4,0,0,0,1-.88,4.09,4.09,0,0,0,.66-1.28,4.79,4.79,0,0,0,.24-1.52,2.48,2.48,0,0,0-.24-1.15,1.61,1.61,0,0,0-.69-.7,2.27,2.27,0,0,0-1.08-.23h-1.1Z"/><path class="cls-1" d="M1099,13.58,1100.65,3h2.88l-1.62,10.56ZM1099.38,2l.27-1.74h5.91L1105.3,2Z"/><path class="cls-1" d="M1108.43,13.72a6.88,6.88,0,0,1-1.64-.19,4.54,4.54,0,0,1-1.42-.6,2.79,2.79,0,0,1-1-1,2.54,2.54,0,0,1-.28-1.51h3a1.12,1.12,0,0,0,.23.63,1.26,1.26,0,0,0,.56.41,2.36,2.36,0,0,0,.85.14,4.14,4.14,0,0,0,.87-.09,1.94,1.94,0,0,0,.7-.29.88.88,0,0,0,.35-.59.49.49,0,0,0-.18-.49,1.67,1.67,0,0,0-.63-.27c-.26-.06-.54-.12-.84-.17l-1.62-.28a2.87,2.87,0,0,1-1.87-1,2.66,2.66,0,0,1-.47-2.13,3.32,3.32,0,0,1,.88-1.82,4.76,4.76,0,0,1,1.81-1.15,6.52,6.52,0,0,1,2.31-.4,5.06,5.06,0,0,1,2.26.47,3.7,3.7,0,0,1,1.43,1.23,2.62,2.62,0,0,1,.46,1.63h-2.92a1,1,0,0,0-.14-.66,1,1,0,0,0-.51-.37,2.92,2.92,0,0,0-.85-.11,2.52,2.52,0,0,0-.9.13,1.11,1.11,0,0,0-.5.32.8.8,0,0,0-.19.38.71.71,0,0,0,.15.58,1.64,1.64,0,0,0,.88.34l1.62.28a4.56,4.56,0,0,1,1.74.61,2.26,2.26,0,0,1,.83.93,2.8,2.8,0,0,1,.24,1,7.85,7.85,0,0,1-.05.9,2.81,2.81,0,0,1-.86,1.61,5.12,5.12,0,0,1-1.84,1.13A7.23,7.23,0,0,1,1108.43,13.72Zm.7-11.58L1107.4,0h2l.89,1.2,1.09-1.2h2.07l-2.31,2.14Z"/><path class="cls-1" d="M1113.8,13.58,1119.23,3h2.93l2.16,10.56h-2.84l-.39-2.05h-3.38l-1,2.05Zm4.89-4.47h2.12l-.52-3.37Z"/></g></g></g></svg>