<svg xmlns="http://www.w3.org/2000/svg" viewBox="0 0 1340.33 587.2"><defs><style>.cls-1{fill:#fff;}</style></defs><g id="Layer_2" data-name="Layer 2"><g id="Accordion_menu_expanded" data-name="Accordion menu expanded"><g id="Layer_7_copy_2" data-name="Layer 7 copy 2"><path class="cls-1" d="M12.85,584.78a4.58,4.58,0,0,1-.68,2.56,3.79,3.79,0,0,1-1.92,1.47,5.63,5.63,0,0,1-2.84.19,6.93,6.93,0,0,1-2.9-1.12,6,6,0,0,1-1.93-2.14,5.82,5.82,0,0,1-.68-2.82,4.57,4.57,0,0,1,.56-2.39,3.34,3.34,0,0,1,1.45-1.39,3.25,3.25,0,0,1,1.89-.3v3a2.13,2.13,0,0,0-.78.2,1.35,1.35,0,0,0-.55.48,1.57,1.57,0,0,0-.2.83,2.11,2.11,0,0,0,.28,1,2.39,2.39,0,0,0,1,.89,5.21,5.21,0,0,0,1.81.57,5.11,5.11,0,0,0,1.59,0,1.78,1.78,0,0,0,.91-.39,1.35,1.35,0,0,0,.43-.64,2.49,2.49,0,0,0,.11-.7,1.81,1.81,0,0,0-.09-.58,2,2,0,0,0-.23-.49,1.76,1.76,0,0,0-.32-.39,1.56,1.56,0,0,0-.36-.25L9,582.28v1.86L7,583.84l0-4.9,5.64.87v1.89l-1.18-.17c.18.2.37.45.58.73a4,4,0,0,1,.53,1A4.57,4.57,0,0,1,12.85,584.78Z" transform="translate(-1.9 -1.9)"/><path class="cls-1" d="M12.71,578.41,2,573V570l10.67-2.16v2.84l-2.07.39v3.38l2.07,1Zm-4.52-4.9v-2.12l-3.4.53Z" transform="translate(-1.9 -1.9)"/><path class="cls-1" d="M12.71,566.65,2,565v-2.87l8.31,1.26v-4.27l2.36.36Z" transform="translate(-1.9 -1.9)"/><path class="cls-1" d="M12.71,558.61,2,553.17v-2.93l10.67-2.16v2.85l-2.07.38v3.38l2.07,1Zm-4.52-4.9V551.6l-3.4.52Z" transform="translate(-1.9 -1.9)"/><path class="cls-1" d="M12.85,539.52a6.88,6.88,0,0,1-.19,1.64,4.39,4.39,0,0,1-.61,1.43,2.87,2.87,0,0,1-1.05,1,2.72,2.72,0,0,1-1.54.28v-3a1.13,1.13,0,0,0,.64-.23,1.21,1.21,0,0,0,.41-.55,2.24,2.24,0,0,0,.15-.86,4.14,4.14,0,0,0-.09-.87,1.91,1.91,0,0,0-.3-.71.87.87,0,0,0-.59-.34.47.47,0,0,0-.5.18,1.67,1.67,0,0,0-.27.63c-.06.26-.12.54-.17.84l-.28,1.62a2.9,2.9,0,0,1-1,1.88,2.72,2.72,0,0,1-2.15.46A3.28,3.28,0,0,1,3.48,542a4.73,4.73,0,0,1-1.17-1.81,6.52,6.52,0,0,1-.4-2.31,4.93,4.93,0,0,1,.48-2.26,3.53,3.53,0,0,1,1.24-1.44,2.71,2.71,0,0,1,1.64-.46v2.92a1.12,1.12,0,0,0-.66.15.9.9,0,0,0-.37.51,2.6,2.6,0,0,0-.12.85,2.77,2.77,0,0,0,.13.9,1.21,1.21,0,0,0,.33.5.8.8,0,0,0,.38.19.69.69,0,0,0,.59-.15,1.72,1.72,0,0,0,.34-.88l.28-1.62a4.49,4.49,0,0,1,.62-1.74,2.38,2.38,0,0,1,.94-.84,2.61,2.61,0,0,1,1-.23,5.09,5.09,0,0,1,.91.05,2.85,2.85,0,0,1,1.63.85,5,5,0,0,1,1.13,1.85A7,7,0,0,1,12.85,539.52Z" transform="translate(-1.9 -1.9)"/><path class="cls-1" d="M12.71,530.9l-8.15-1.24v3L2,532.3v-9l2.52.39v3.06L12.71,528Z" transform="translate(-1.9 -1.9)"/><path class="cls-1" d="M12.71,525.71,2,520.27v-2.93l10.67-2.16V518l-2.07.39v3.38l2.07,1Zm-4.52-4.9v-2.12l-3.4.52Z" transform="translate(-1.9 -1.9)"/><path class="cls-1" d="M12.85,509.8a4.56,4.56,0,0,1-.57,2.34,3.85,3.85,0,0,1-1.59,1.48,5.09,5.09,0,0,1-2.36.52A7.54,7.54,0,0,1,6,513.76a6.36,6.36,0,0,1-2.07-1.14,5.5,5.5,0,0,1-1.48-1.88,6,6,0,0,1-.54-2.62A4.65,4.65,0,0,1,2.36,506a3.16,3.16,0,0,1,1.33-1.4,4.22,4.22,0,0,1,2.11-.49v3a2,2,0,0,0-.85.17,1.32,1.32,0,0,0-.56.51,1.59,1.59,0,0,0-.19.83,1.75,1.75,0,0,0,.4,1.17,2.85,2.85,0,0,0,1.06.74,5.86,5.86,0,0,0,1.39.4,9,9,0,0,0,1.42.12,2.48,2.48,0,0,0,1.6-.4,1.35,1.35,0,0,0,.48-1.07,1.59,1.59,0,0,0-.25-.89,2.28,2.28,0,0,0-.66-.69,3.39,3.39,0,0,0-.92-.44v-3a9.1,9.1,0,0,1,1.58.62,5,5,0,0,1,1.32,1,4.16,4.16,0,0,1,.91,1.5A6.41,6.41,0,0,1,12.85,509.8Z" transform="translate(-1.9 -1.9)"/><path class="cls-1" d="M12.71,503.4,2,501.77v-2.89l10.67,1.62Z" transform="translate(-1.9 -1.9)"/><path class="cls-1" d="M12.85,497.25c0,.3,0,.64,0,1a7.16,7.16,0,0,1-.1.9l-2.58-.39c0-.13,0-.28,0-.45a4.15,4.15,0,0,0,0-.49,1.3,1.3,0,0,0-.39-1.08,2.54,2.54,0,0,0-1.22-.44l-6.55-1v-2.87l7.29,1.11a6.94,6.94,0,0,1,2,.56,2.43,2.43,0,0,1,1.17,1.11A4.39,4.39,0,0,1,12.85,497.25Z" transform="translate(-1.9 -1.9)"/><path class="cls-1" d="M12.71,493.6,2,488.16v-2.93l10.67-2.16v2.85l-2.07.38v3.38l2.07,1.05Zm-4.52-4.9v-2.11l-3.4.52Z" transform="translate(-1.9 -1.9)"/><path class="cls-1" d="M9.51,476.38a2.11,2.11,0,0,1-.31,1.13,2.3,2.3,0,0,1-.8.81,2.22,2.22,0,0,1-2.23,0,2.3,2.3,0,0,1-.8-.81,2.28,2.28,0,0,1,0-2.26,2.38,2.38,0,0,1,.8-.81,2.16,2.16,0,0,1,2.23,0,2.38,2.38,0,0,1,.8.81A2.11,2.11,0,0,1,9.51,476.38Z" transform="translate(-1.9 -1.9)"/><path class="cls-1" d="M12.85,465.61a4.58,4.58,0,0,1-.68,2.56,3.8,3.8,0,0,1-1.92,1.48,5.75,5.75,0,0,1-2.84.18,6.92,6.92,0,0,1-2.9-1.11,6.07,6.07,0,0,1-1.93-2.14,5.89,5.89,0,0,1-.68-2.83,4.6,4.6,0,0,1,.56-2.39A3.4,3.4,0,0,1,3.91,460a3.24,3.24,0,0,1,1.89-.29v3a2.13,2.13,0,0,0-.78.19,1.3,1.3,0,0,0-.55.49,1.53,1.53,0,0,0-.2.82,2.06,2.06,0,0,0,.28,1,2.47,2.47,0,0,0,1,.9,5.23,5.23,0,0,0,1.81.56,4.82,4.82,0,0,0,1.59,0,1.87,1.87,0,0,0,.91-.38,1.4,1.4,0,0,0,.43-.64,2.56,2.56,0,0,0,.11-.71,1.79,1.79,0,0,0-.09-.57,2.07,2.07,0,0,0-.23-.5,1.76,1.76,0,0,0-.32-.39,1.26,1.26,0,0,0-.36-.24L9,463.11V465L7,464.68l0-4.9,5.64.86v1.89l-1.18-.17c.18.21.37.45.58.73a4.14,4.14,0,0,1,.53,1A4.61,4.61,0,0,1,12.85,465.61Z" transform="translate(-1.9 -1.9)"/><path class="cls-1" d="M12.71,459.25,2,453.81v-2.93l10.67-2.16v2.85l-2.07.38v3.38l2.07,1.05Zm-4.52-4.9v-2.11l-3.4.52Z" transform="translate(-1.9 -1.9)"/><path class="cls-1" d="M12.71,447.49,2,445.84V443l8.31,1.27V440l2.36.37Z" transform="translate(-1.9 -1.9)"/><path class="cls-1" d="M12.71,439.43,2,434v-2.94l10.67-2.16v2.85l-2.07.38v3.38l2.07,1.05Zm-4.52-4.9v-2.11l-3.4.52Z" transform="translate(-1.9 -1.9)"/><path class="cls-1" d="M12.85,420.37a6.88,6.88,0,0,1-.19,1.64,4.39,4.39,0,0,1-.61,1.43,2.87,2.87,0,0,1-1.05,1,2.72,2.72,0,0,1-1.54.28v-3a1.13,1.13,0,0,0,.64-.23,1.21,1.21,0,0,0,.41-.55,2.24,2.24,0,0,0,.15-.86,4.14,4.14,0,0,0-.09-.87,1.79,1.79,0,0,0-.3-.7.85.85,0,0,0-.59-.35.49.49,0,0,0-.5.18,1.67,1.67,0,0,0-.27.63c-.06.26-.12.54-.17.84l-.28,1.62a2.9,2.9,0,0,1-1,1.88,2.72,2.72,0,0,1-2.15.46,3.28,3.28,0,0,1-1.84-.88,4.73,4.73,0,0,1-1.17-1.81,6.52,6.52,0,0,1-.4-2.31,4.93,4.93,0,0,1,.48-2.26,3.53,3.53,0,0,1,1.24-1.44,2.71,2.71,0,0,1,1.64-.46v2.92a1.12,1.12,0,0,0-.66.15.9.9,0,0,0-.37.51,2.6,2.6,0,0,0-.12.85,2.77,2.77,0,0,0,.13.9,1.21,1.21,0,0,0,.33.5.8.8,0,0,0,.38.19.69.69,0,0,0,.59-.15,1.72,1.72,0,0,0,.34-.88L6.17,418a4.49,4.49,0,0,1,.62-1.74,2.38,2.38,0,0,1,.94-.84,2.61,2.61,0,0,1,1-.23,5.09,5.09,0,0,1,.91.05,2.85,2.85,0,0,1,1.63.85,5,5,0,0,1,1.13,1.85A7,7,0,0,1,12.85,420.37Z" transform="translate(-1.9 -1.9)"/><path class="cls-1" d="M12.71,411.73l-8.15-1.24v3L2,413.13v-9l2.52.39v3.07l8.15,1.25Z" transform="translate(-1.9 -1.9)"/><path class="cls-1" d="M12.71,406.54,2,401.11v-2.94L12.71,396v2.84l-2.07.39v3.38l2.07,1Zm-4.52-4.9v-2.11l-3.4.52Z" transform="translate(-1.9 -1.9)"/><path class="cls-1" d="M12.85,390.62a4.56,4.56,0,0,1-.57,2.34,3.85,3.85,0,0,1-1.59,1.48,5.09,5.09,0,0,1-2.36.52A7.54,7.54,0,0,1,6,394.58a6.36,6.36,0,0,1-2.07-1.14,5.5,5.5,0,0,1-1.48-1.88,6,6,0,0,1-.54-2.62,4.65,4.65,0,0,1,.46-2.16,3.21,3.21,0,0,1,1.33-1.4,4.22,4.22,0,0,1,2.11-.49v3a1.87,1.87,0,0,0-.85.18,1.24,1.24,0,0,0-.56.5,1.62,1.62,0,0,0-.19.83,1.73,1.73,0,0,0,.4,1.17,3,3,0,0,0,1.06.75,6.35,6.35,0,0,0,1.39.39,9,9,0,0,0,1.42.12,2.48,2.48,0,0,0,1.6-.4,1.34,1.34,0,0,0,.48-1.07,1.59,1.59,0,0,0-.25-.89,2.28,2.28,0,0,0-.66-.69,3.72,3.72,0,0,0-.92-.44v-3a9.1,9.1,0,0,1,1.58.62,5,5,0,0,1,1.32,1,4.34,4.34,0,0,1,.91,1.5A6.41,6.41,0,0,1,12.85,390.62Z" transform="translate(-1.9 -1.9)"/><path class="cls-1" d="M12.71,384.22,2,382.59V379.7l10.67,1.63Z" transform="translate(-1.9 -1.9)"/><path class="cls-1" d="M12.85,378.09c0,.3,0,.64,0,1a7.16,7.16,0,0,1-.1.9l-2.58-.39c0-.13,0-.28,0-.45a4.12,4.12,0,0,0,0-.48,1.32,1.32,0,0,0-.39-1.09,2.54,2.54,0,0,0-1.22-.43l-6.55-1v-2.87l7.29,1.12a7,7,0,0,1,2,.55,2.52,2.52,0,0,1,1.17,1.11A4.39,4.39,0,0,1,12.85,378.09Z" transform="translate(-1.9 -1.9)"/><path class="cls-1" d="M12.71,374.42,2,369v-2.93l10.67-2.16v2.85l-2.07.38v3.38l2.07,1.05Zm-4.52-4.9v-2.11l-3.4.52Z" transform="translate(-1.9 -1.9)"/><path class="cls-1" d="M9.51,357.2a2.09,2.09,0,0,1-.31,1.13,2.3,2.3,0,0,1-.8.81,2.16,2.16,0,0,1-2.23,0,2.3,2.3,0,0,1-.8-.81,2.26,2.26,0,0,1,0-2.25,2.33,2.33,0,0,1,.8-.82,2.22,2.22,0,0,1,2.23,0,2.33,2.33,0,0,1,.8.82A2.08,2.08,0,0,1,9.51,357.2Z" transform="translate(-1.9 -1.9)"/><path class="cls-1" d="M12.85,346.45a4.55,4.55,0,0,1-.68,2.55,3.8,3.8,0,0,1-1.92,1.48,5.75,5.75,0,0,1-2.84.19,7.07,7.07,0,0,1-2.9-1.12,6,6,0,0,1-1.93-2.14,5.89,5.89,0,0,1-.68-2.83,4.62,4.62,0,0,1,.56-2.39,3.37,3.37,0,0,1,1.45-1.38,3.25,3.25,0,0,1,1.89-.3v3a2.13,2.13,0,0,0-.78.19,1.3,1.3,0,0,0-.55.49,1.56,1.56,0,0,0-.2.82,2.12,2.12,0,0,0,.28,1.05,2.53,2.53,0,0,0,1,.89,5.21,5.21,0,0,0,1.81.57,5.11,5.11,0,0,0,1.59,0,1.87,1.87,0,0,0,.91-.39,1.4,1.4,0,0,0,.43-.64,2.54,2.54,0,0,0,.11-.7,1.81,1.81,0,0,0-.09-.58,2.07,2.07,0,0,0-.23-.5,1.7,1.7,0,0,0-.32-.38,1.56,1.56,0,0,0-.36-.25L9,343.94v1.87L7,345.51l0-4.9,5.64.86v1.89l-1.18-.17c.18.21.37.46.58.74a4.07,4.07,0,0,1,.53,1A4.68,4.68,0,0,1,12.85,346.45Z" transform="translate(-1.9 -1.9)"/><path class="cls-1" d="M12.71,340.09,2,334.65v-2.93l10.67-2.16v2.84l-2.07.39v3.38l2.07,1Zm-4.52-4.9v-2.12l-3.4.53Z" transform="translate(-1.9 -1.9)"/><path class="cls-1" d="M12.71,328.32,2,326.67V323.8l8.31,1.27v-4.28l2.36.37Z" transform="translate(-1.9 -1.9)"/><path class="cls-1" d="M12.71,320.3,2,314.87v-2.94l10.67-2.15v2.84l-2.07.39v3.38l2.07,1Zm-4.52-4.9v-2.11l-3.4.52Z" transform="translate(-1.9 -1.9)"/><path class="cls-1" d="M12.85,301.22a7,7,0,0,1-.19,1.65,4.43,4.43,0,0,1-.61,1.42,2.87,2.87,0,0,1-1.05,1,2.72,2.72,0,0,1-1.54.28v-3a1.2,1.2,0,0,0,.64-.22,1.3,1.3,0,0,0,.41-.56,2.24,2.24,0,0,0,.15-.86,4.14,4.14,0,0,0-.09-.87,1.79,1.79,0,0,0-.3-.7.88.88,0,0,0-.59-.35.51.51,0,0,0-.5.18,1.67,1.67,0,0,0-.27.63c-.06.26-.12.54-.17.84l-.28,1.62a2.9,2.9,0,0,1-1,1.88,2.72,2.72,0,0,1-2.15.46,3.22,3.22,0,0,1-1.84-.88,4.73,4.73,0,0,1-1.17-1.81,6.52,6.52,0,0,1-.4-2.31,4.93,4.93,0,0,1,.48-2.26,3.53,3.53,0,0,1,1.24-1.44,2.71,2.71,0,0,1,1.64-.46v2.92a1.12,1.12,0,0,0-.66.15.9.9,0,0,0-.37.51,2.6,2.6,0,0,0-.12.85,2.77,2.77,0,0,0,.13.9,1.15,1.15,0,0,0,.33.5.8.8,0,0,0,.38.19.66.66,0,0,0,.59-.15,1.72,1.72,0,0,0,.34-.88l.28-1.62a4.49,4.49,0,0,1,.62-1.74,2.28,2.28,0,0,1,.94-.83,2.46,2.46,0,0,1,1-.24,5.09,5.09,0,0,1,.91.05,2.81,2.81,0,0,1,1.63.86,4.9,4.9,0,0,1,1.13,1.84A7,7,0,0,1,12.85,301.22Z" transform="translate(-1.9 -1.9)"/><path class="cls-1" d="M12.71,292.56l-8.15-1.23v3L2,294v-9l2.52.39v3.07l8.15,1.25Z" transform="translate(-1.9 -1.9)"/><path class="cls-1" d="M12.71,287.38,2,282V279l10.67-2.16v2.85l-2.07.38v3.39l2.07,1Zm-4.52-4.9v-2.11l-3.4.52Z" transform="translate(-1.9 -1.9)"/><path class="cls-1" d="M12.85,271.47a4.56,4.56,0,0,1-.57,2.34,3.85,3.85,0,0,1-1.59,1.48,5.09,5.09,0,0,1-2.36.52A7.54,7.54,0,0,1,6,275.43a6.36,6.36,0,0,1-2.07-1.14,5.5,5.5,0,0,1-1.48-1.88,6,6,0,0,1-.54-2.62,4.65,4.65,0,0,1,.46-2.16,3.21,3.21,0,0,1,1.33-1.4,4.22,4.22,0,0,1,2.11-.49v3a1.87,1.87,0,0,0-.85.18,1.24,1.24,0,0,0-.56.5,1.62,1.62,0,0,0-.19.83,1.71,1.71,0,0,0,.4,1.17,3,3,0,0,0,1.06.75,5.84,5.84,0,0,0,1.39.39,9,9,0,0,0,1.42.12,2.48,2.48,0,0,0,1.6-.4,1.34,1.34,0,0,0,.48-1.07,1.59,1.59,0,0,0-.25-.89,2.4,2.4,0,0,0-.66-.69,3.72,3.72,0,0,0-.92-.44v-3a9.1,9.1,0,0,1,1.58.62,5,5,0,0,1,1.32,1,4.34,4.34,0,0,1,.91,1.5A6.41,6.41,0,0,1,12.85,271.47Z" transform="translate(-1.9 -1.9)"/><path class="cls-1" d="M12.71,265.08,2,263.45v-2.89l10.67,1.62Z" transform="translate(-1.9 -1.9)"/><path class="cls-1" d="M12.85,258.93c0,.3,0,.64,0,1a7.16,7.16,0,0,1-.1.9l-2.58-.39c0-.13,0-.29,0-.46a4,4,0,0,0,0-.48,1.32,1.32,0,0,0-.39-1.09A2.65,2.65,0,0,0,8.59,258L2,257v-2.87l7.29,1.11a7.31,7.31,0,0,1,2,.55,2.49,2.49,0,0,1,1.17,1.12A4.39,4.39,0,0,1,12.85,258.93Z" transform="translate(-1.9 -1.9)"/><path class="cls-1" d="M12.71,255.27,2,249.84V246.9l10.67-2.15v2.84l-2.07.39v3.38l2.07,1Zm-4.52-4.9v-2.11l-3.4.52Z" transform="translate(-1.9 -1.9)"/><path class="cls-1" d="M9.51,238.05a2.08,2.08,0,0,1-.31,1.12,2.41,2.41,0,0,1-.8.82,2.22,2.22,0,0,1-2.23,0,2.41,2.41,0,0,1-.8-.82,2.26,2.26,0,0,1,0-2.25,2.41,2.41,0,0,1,.8-.82,2.22,2.22,0,0,1,2.23,0,2.41,2.41,0,0,1,.8.82A2.09,2.09,0,0,1,9.51,238.05Z" transform="translate(-1.9 -1.9)"/><path class="cls-1" d="M12.85,227.28a4.58,4.58,0,0,1-.68,2.56,3.73,3.73,0,0,1-1.92,1.47,5.63,5.63,0,0,1-2.84.19,6.8,6.8,0,0,1-2.9-1.12,6,6,0,0,1-1.93-2.14,5.82,5.82,0,0,1-.68-2.82A4.57,4.57,0,0,1,2.46,223a3.34,3.34,0,0,1,1.45-1.39,3.16,3.16,0,0,1,1.89-.29v3a2.13,2.13,0,0,0-.78.2,1.35,1.35,0,0,0-.55.48,1.59,1.59,0,0,0-.2.83,2.11,2.11,0,0,0,.28,1,2.39,2.39,0,0,0,1,.89,5.21,5.21,0,0,0,1.81.57,5.11,5.11,0,0,0,1.59,0,1.78,1.78,0,0,0,.91-.39,1.35,1.35,0,0,0,.43-.64,2.49,2.49,0,0,0,.11-.7,1.85,1.85,0,0,0-.09-.58,2,2,0,0,0-.23-.49,1.76,1.76,0,0,0-.32-.39,1.56,1.56,0,0,0-.36-.25L9,224.78v1.86L7,226.34l0-4.9,5.64.87v1.89L11.53,224c.18.2.37.45.58.73a4,4,0,0,1,.53,1A4.57,4.57,0,0,1,12.85,227.28Z" transform="translate(-1.9 -1.9)"/><path class="cls-1" d="M12.71,220.94,2,215.5v-2.93l10.67-2.16v2.85l-2.07.38V217l2.07,1ZM8.19,216v-2.11l-3.4.52Z" transform="translate(-1.9 -1.9)"/><path class="cls-1" d="M12.71,209.18,2,207.53v-2.87l8.31,1.26v-4.27l2.36.37Z" transform="translate(-1.9 -1.9)"/><path class="cls-1" d="M12.71,201.13,2,195.69v-2.93l10.67-2.16v2.85l-2.07.38v3.38l2.07,1Zm-4.52-4.9v-2.11l-3.4.52Z" transform="translate(-1.9 -1.9)"/><path class="cls-1" d="M12.85,182.06a6.88,6.88,0,0,1-.19,1.64,4.33,4.33,0,0,1-.61,1.42,2.9,2.9,0,0,1-1.05,1,2.81,2.81,0,0,1-1.54.28v-3a1.12,1.12,0,0,0,.64-.22,1.24,1.24,0,0,0,.41-.56,2.21,2.21,0,0,0,.15-.86,4.14,4.14,0,0,0-.09-.87,1.79,1.79,0,0,0-.3-.7.88.88,0,0,0-.59-.35.49.49,0,0,0-.5.19,1.55,1.55,0,0,0-.27.62c-.06.27-.12.55-.17.85l-.28,1.61a2.88,2.88,0,0,1-1,1.88,2.72,2.72,0,0,1-2.15.47,3.29,3.29,0,0,1-1.84-.89,4.69,4.69,0,0,1-1.17-1.8,6.62,6.62,0,0,1-.4-2.32,4.93,4.93,0,0,1,.48-2.26,3.66,3.66,0,0,1,1.24-1.44,2.78,2.78,0,0,1,1.64-.46v2.93a1,1,0,0,0-.66.14.94.94,0,0,0-.37.51,2.6,2.6,0,0,0-.12.85,2.77,2.77,0,0,0,.13.9,1.15,1.15,0,0,0,.33.5.72.72,0,0,0,.38.19.66.66,0,0,0,.59-.15,1.68,1.68,0,0,0,.34-.88l.28-1.62a4.49,4.49,0,0,1,.62-1.74,2.28,2.28,0,0,1,.94-.83,2.46,2.46,0,0,1,1-.24,6.23,6.23,0,0,1,.91,0,2.87,2.87,0,0,1,1.63.86,4.9,4.9,0,0,1,1.13,1.84A7.05,7.05,0,0,1,12.85,182.06Z" transform="translate(-1.9 -1.9)"/><path class="cls-1" d="M12.71,173.42l-8.15-1.23v3L2,174.82v-9l2.52.39v3.07l8.15,1.25Z" transform="translate(-1.9 -1.9)"/><path class="cls-1" d="M12.71,168.2,2,162.76v-2.93l10.67-2.16v2.84l-2.07.39v3.38l2.07,1Zm-4.52-4.9v-2.12l-3.4.53Z" transform="translate(-1.9 -1.9)"/><path class="cls-1" d="M12.85,152.31a4.56,4.56,0,0,1-.57,2.34,3.85,3.85,0,0,1-1.59,1.48,5.09,5.09,0,0,1-2.36.52A7.54,7.54,0,0,1,6,156.27a6.36,6.36,0,0,1-2.07-1.14,5.5,5.5,0,0,1-1.48-1.88,6,6,0,0,1-.54-2.62,4.65,4.65,0,0,1,.46-2.16,3.16,3.16,0,0,1,1.33-1.4,4.22,4.22,0,0,1,2.11-.49v3a2,2,0,0,0-.85.17,1.32,1.32,0,0,0-.56.51,1.59,1.59,0,0,0-.19.83,1.75,1.75,0,0,0,.4,1.17,2.85,2.85,0,0,0,1.06.74,5.86,5.86,0,0,0,1.39.4,9,9,0,0,0,1.42.12,2.48,2.48,0,0,0,1.6-.4,1.35,1.35,0,0,0,.48-1.07,1.59,1.59,0,0,0-.25-.89,2.28,2.28,0,0,0-.66-.69,3.39,3.39,0,0,0-.92-.44v-3a9.1,9.1,0,0,1,1.58.62,5,5,0,0,1,1.32,1,4.16,4.16,0,0,1,.91,1.5A6.41,6.41,0,0,1,12.85,152.31Z" transform="translate(-1.9 -1.9)"/><path class="cls-1" d="M12.71,145.91,2,144.28v-2.89L12.71,143Z" transform="translate(-1.9 -1.9)"/><path class="cls-1" d="M12.85,139.77c0,.31,0,.65,0,1a7.16,7.16,0,0,1-.1.9l-2.58-.39c0-.14,0-.29,0-.46a4,4,0,0,0,0-.48,1.32,1.32,0,0,0-.39-1.09,2.54,2.54,0,0,0-1.22-.43l-6.55-1V135l7.29,1.12a7,7,0,0,1,2,.55,2.49,2.49,0,0,1,1.17,1.12A4.37,4.37,0,0,1,12.85,139.77Z" transform="translate(-1.9 -1.9)"/><path class="cls-1" d="M12.71,136.12,2,130.68v-2.93l10.67-2.16v2.84l-2.07.39v3.38l2.07,1Zm-4.52-4.9V129.1l-3.4.52Z" transform="translate(-1.9 -1.9)"/><path class="cls-1" d="M9.51,118.89A2.08,2.08,0,0,1,9.2,120a2.41,2.41,0,0,1-.8.82,2.22,2.22,0,0,1-2.23,0,2.41,2.41,0,0,1-.8-.82,2.26,2.26,0,0,1,0-2.25,2.41,2.41,0,0,1,.8-.82,2.22,2.22,0,0,1,2.23,0,2.41,2.41,0,0,1,.8.82A2.09,2.09,0,0,1,9.51,118.89Z" transform="translate(-1.9 -1.9)"/><path class="cls-1" d="M12.85,108.12a4.58,4.58,0,0,1-.68,2.56,3.84,3.84,0,0,1-1.92,1.47,5.63,5.63,0,0,1-2.84.19,6.93,6.93,0,0,1-2.9-1.12,6,6,0,0,1-1.93-2.14,5.85,5.85,0,0,1-.68-2.82,4.57,4.57,0,0,1,.56-2.39,3.34,3.34,0,0,1,1.45-1.39,3.25,3.25,0,0,1,1.89-.3v3a2.13,2.13,0,0,0-.78.2,1.35,1.35,0,0,0-.55.48,1.57,1.57,0,0,0-.2.83,2.11,2.11,0,0,0,.28,1,2.46,2.46,0,0,0,1,.89,5.21,5.21,0,0,0,1.81.57,5.11,5.11,0,0,0,1.59,0,1.78,1.78,0,0,0,.91-.39,1.35,1.35,0,0,0,.43-.64,2.49,2.49,0,0,0,.11-.7,1.81,1.81,0,0,0-.09-.58,1.84,1.84,0,0,0-.23-.49,1.76,1.76,0,0,0-.32-.39,1.56,1.56,0,0,0-.36-.25L9,105.62v1.86L7,107.18l0-4.9,5.64.86V105l-1.18-.18c.18.21.37.46.58.74a4,4,0,0,1,.53,1A4.57,4.57,0,0,1,12.85,108.12Z" transform="translate(-1.9 -1.9)"/><path class="cls-1" d="M12.71,101.76,2,96.32V93.39l10.67-2.16v2.84l-2.07.39v3.38l2.07,1Zm-4.52-4.9V94.74l-3.4.52Z" transform="translate(-1.9 -1.9)"/><path class="cls-1" d="M12.71,90,2,88.37V85.5l8.31,1.26V82.49l2.36.36Z" transform="translate(-1.9 -1.9)"/><path class="cls-1" d="M12.71,82,2,76.53V73.6l10.67-2.16v2.85l-2.07.38v3.38l2.07,1Zm-4.52-4.9V75l-3.4.52Z" transform="translate(-1.9 -1.9)"/><path class="cls-1" d="M12.85,62.9a6.88,6.88,0,0,1-.19,1.64A4.48,4.48,0,0,1,12.05,66a3,3,0,0,1-1.05,1,2.81,2.81,0,0,1-1.54.28v-3A1.12,1.12,0,0,0,10.1,64a1.19,1.19,0,0,0,.41-.56,2.19,2.19,0,0,0,.15-.85,4.17,4.17,0,0,0-.09-.88,1.86,1.86,0,0,0-.3-.7.83.83,0,0,0-.59-.34.47.47,0,0,0-.5.18,1.53,1.53,0,0,0-.27.63c-.06.26-.12.54-.17.84l-.28,1.61a2.88,2.88,0,0,1-1,1.88,2.72,2.72,0,0,1-2.15.47,3.35,3.35,0,0,1-1.84-.88,4.8,4.8,0,0,1-1.17-1.81,6.56,6.56,0,0,1-.4-2.31A4.9,4.9,0,0,1,2.39,59a3.53,3.53,0,0,1,1.24-1.44,2.72,2.72,0,0,1,1.64-.47V60a1,1,0,0,0-.66.14,1,1,0,0,0-.37.51,2.64,2.64,0,0,0-.12.85,2.68,2.68,0,0,0,.13.9,1.25,1.25,0,0,0,.33.51.9.9,0,0,0,.38.19A.7.7,0,0,0,5.55,63a1.68,1.68,0,0,0,.34-.88l.28-1.61a4.6,4.6,0,0,1,.62-1.75,2.28,2.28,0,0,1,.94-.83,2.81,2.81,0,0,1,1-.24,6.23,6.23,0,0,1,.91,0,2.87,2.87,0,0,1,1.63.86,5,5,0,0,1,1.13,1.85A7,7,0,0,1,12.85,62.9Z" transform="translate(-1.9 -1.9)"/><path class="cls-1" d="M12.71,54.25,4.56,53v3L2,55.66v-9l2.52.38v3.07l8.15,1.25Z" transform="translate(-1.9 -1.9)"/><path class="cls-1" d="M12.71,49,2,43.6V40.67l10.67-2.16v2.84l-2.07.39v3.38l2.07,1Zm-4.52-4.9V42l-3.4.52Z" transform="translate(-1.9 -1.9)"/><path class="cls-1" d="M13.27,34a4.61,4.61,0,0,1-1,2.2,3.89,3.89,0,0,1-1.84,1.17,5.06,5.06,0,0,1-2.4.08,7.22,7.22,0,0,1-2.24-.79A6.44,6.44,0,0,1,4,35.19a5.39,5.39,0,0,1-1.11-2.12,5.85,5.85,0,0,1-.07-2.68,4.73,4.73,0,0,1,.84-2A3.31,3.31,0,0,1,5.2,27.21a4.29,4.29,0,0,1,2.16-.1l-.54,2.95a2.1,2.1,0,0,0-.87,0,1.23,1.23,0,0,0-.64.4,1.56,1.56,0,0,0-.34.78,1.73,1.73,0,0,0,.19,1.22,2.84,2.84,0,0,0,.9.93,6.29,6.29,0,0,0,1.3.64,8.6,8.6,0,0,0,1.38.37,2.42,2.42,0,0,0,1.64-.11,1.32,1.32,0,0,0,.67-1,1.6,1.6,0,0,0-.09-.92,2.28,2.28,0,0,0-.53-.8,3.85,3.85,0,0,0-.82-.6l.55-3a8.36,8.36,0,0,1,1.43.89,5.15,5.15,0,0,1,1.13,1.2,4.41,4.41,0,0,1,.62,1.64A6.71,6.71,0,0,1,13.27,34Z" transform="translate(-1.9 -1.9)"/><path class="cls-1" d="M14.41,28.85,5.37,23l1.19-2.63,9.05,5.88Z" transform="translate(-1.9 -1.9)"/><path class="cls-1" d="M16.89,24.12c-.18.25-.38.52-.62.82a8.26,8.26,0,0,1-.6.68l-1.9-1.79.3-.34a3.27,3.27,0,0,0,.29-.39,1.3,1.3,0,0,0,.3-1.11,2.59,2.59,0,0,0-.76-1L9.09,16.39,10.72,14l5.36,5.06a6.73,6.73,0,0,1,1.3,1.57,2.52,2.52,0,0,1,.34,1.58A4.57,4.57,0,0,1,16.89,24.12Z" transform="translate(-1.9 -1.9)"/><path class="cls-1" d="M17.7,21.53,15,9.87,17.26,8l8.5,6.79L23.58,16.6,22,15.26l-2.59,2.17.53,2.26Zm.85-6.6,1.62-1.36-2.59-2.28Z" transform="translate(-1.9 -1.9)"/><path class="cls-1" d="M29.66,10.31a2.12,2.12,0,0,1-1.17,0,2.22,2.22,0,0,1-1-.56,2.12,2.12,0,0,1-.59-1,2,2,0,0,1,0-1.15,2.36,2.36,0,0,1,.57-1,2.09,2.09,0,0,1,1-.58,2.21,2.21,0,0,1,1.17,0,2.32,2.32,0,0,1,1,.56,2.18,2.18,0,0,1,.59,2.15,2.4,2.4,0,0,1-.57,1A2.24,2.24,0,0,1,29.66,10.31Z" transform="translate(-1.9 -1.9)"/><path class="cls-1" d="M40,12.85a4.47,4.47,0,0,1-2.55-.68A3.8,3.8,0,0,1,36,10.25a5.75,5.75,0,0,1-.19-2.84,7.07,7.07,0,0,1,1.12-2.9A6,6,0,0,1,39,2.58a5.88,5.88,0,0,1,2.82-.68,4.57,4.57,0,0,1,2.39.56,3.39,3.39,0,0,1,1.39,1.45,3.25,3.25,0,0,1,.3,1.89h-3A2.35,2.35,0,0,0,42.73,5a1.37,1.37,0,0,0-.49-.55,1.56,1.56,0,0,0-.82-.2,2.23,2.23,0,0,0-1.05.28,2.57,2.57,0,0,0-.89,1,5.35,5.35,0,0,0-.57,1.82,5.11,5.11,0,0,0,0,1.59,1.78,1.78,0,0,0,.39.91,1.33,1.33,0,0,0,.64.43,2.22,2.22,0,0,0,.7.11,1.81,1.81,0,0,0,.58-.09,2.07,2.07,0,0,0,.5-.23,2,2,0,0,0,.38-.32,1.56,1.56,0,0,0,.25-.36L42.49,9H40.63L40.93,7l4.9,0L45,12.71H43.08l.17-1.18c-.21.18-.46.37-.74.58a4.07,4.07,0,0,1-1,.53A4.68,4.68,0,0,1,40,12.85Z" transform="translate(-1.9 -1.9)"/><path class="cls-1" d="M46.37,12.71,51.81,2h2.93L56.9,12.71H54.06l-.39-2.07H50.29l-1,2.07Zm4.9-4.52h2.12l-.53-3.4Z" transform="translate(-1.9 -1.9)"/><path class="cls-1" d="M58.12,12.71,59.76,2h2.88l-1.27,8.31h4.28l-.37,2.36Z" transform="translate(-1.9 -1.9)"/><path class="cls-1" d="M66.15,12.71,71.59,2h2.93l2.16,10.67H73.83l-.38-2.07H70.07l-1,2.07Zm4.9-4.52h2.11l-.52-3.4Z" transform="translate(-1.9 -1.9)"/><path class="cls-1" d="M85.24,12.85a6.88,6.88,0,0,1-1.64-.19,4.39,4.39,0,0,1-1.43-.61,2.87,2.87,0,0,1-1-1.05,2.81,2.81,0,0,1-.28-1.54h3a1.13,1.13,0,0,0,.23.64,1.19,1.19,0,0,0,.56.41,2.15,2.15,0,0,0,.85.15,4.14,4.14,0,0,0,.87-.09,1.84,1.84,0,0,0,.71-.3.87.87,0,0,0,.34-.59.47.47,0,0,0-.18-.5,1.67,1.67,0,0,0-.63-.27c-.26-.07-.54-.12-.84-.17L84.2,8.46a2.9,2.9,0,0,1-1.88-1,2.72,2.72,0,0,1-.46-2.15,3.28,3.28,0,0,1,.88-1.84,4.8,4.8,0,0,1,1.81-1.17,6.52,6.52,0,0,1,2.31-.4,4.93,4.93,0,0,1,2.26.48,3.53,3.53,0,0,1,1.44,1.24A2.71,2.71,0,0,1,91,5.27H88.1A1.12,1.12,0,0,0,88,4.61a.9.9,0,0,0-.51-.37,2.6,2.6,0,0,0-.85-.12,2.77,2.77,0,0,0-.9.13,1.21,1.21,0,0,0-.5.33A.8.8,0,0,0,85,5a.73.73,0,0,0,.15.59,1.73,1.73,0,0,0,.89.34l1.61.28a4.49,4.49,0,0,1,1.74.62,2.31,2.31,0,0,1,.84.94,2.81,2.81,0,0,1,.24,1,6.12,6.12,0,0,1-.06.91,2.85,2.85,0,0,1-.85,1.63,5,5,0,0,1-1.85,1.13A7,7,0,0,1,85.24,12.85Z" transform="translate(-1.9 -1.9)"/><path class="cls-1" d="M93.87,12.71,95.1,4.57h-3L92.47,2h9l-.39,2.53H98l-1.25,8.14Z" transform="translate(-1.9 -1.9)"/><path class="cls-1" d="M99.09,12.71,104.52,2h2.94l2.15,10.67h-2.84l-.39-2.07H103l-1,2.07ZM104,8.19h2.11l-.52-3.4Z" transform="translate(-1.9 -1.9)"/><path class="cls-1" d="M115,12.85a4.51,4.51,0,0,1-2.34-.57,3.81,3.81,0,0,1-1.49-1.59,5.22,5.22,0,0,1-.52-2.36A7.54,7.54,0,0,1,111,6a6.75,6.75,0,0,1,1.14-2.07A5.5,5.5,0,0,1,114,2.44a6.06,6.06,0,0,1,2.63-.54,4.71,4.71,0,0,1,2.16.46,3.27,3.27,0,0,1,1.4,1.33,4.33,4.33,0,0,1,.49,2.11h-3a2.18,2.18,0,0,0-.18-.85,1.24,1.24,0,0,0-.5-.56,1.62,1.62,0,0,0-.83-.19,1.71,1.71,0,0,0-1.17.4,2.79,2.79,0,0,0-.75,1.06,5.86,5.86,0,0,0-.4,1.39,9,9,0,0,0-.12,1.42,2.48,2.48,0,0,0,.41,1.6,1.32,1.32,0,0,0,1.07.48,1.64,1.64,0,0,0,.89-.25,2.37,2.37,0,0,0,.68-.66,3.39,3.39,0,0,0,.44-.92h3a8,8,0,0,1-.62,1.57,4.93,4.93,0,0,1-1,1.33,4.3,4.3,0,0,1-1.5.91A6.39,6.39,0,0,1,115,12.85Z" transform="translate(-1.9 -1.9)"/><path class="cls-1" d="M121.38,12.71,123,2h2.89l-1.63,10.67Z" transform="translate(-1.9 -1.9)"/><path class="cls-1" d="M127.53,12.85c-.3,0-.65,0-1,0a7,7,0,0,1-.89-.1l.38-2.58.46,0,.48,0A1.32,1.32,0,0,0,128,9.81a2.54,2.54,0,0,0,.43-1.22l1-6.55h2.88l-1.12,7.29a7,7,0,0,1-.55,2,2.52,2.52,0,0,1-1.11,1.17A4.41,4.41,0,0,1,127.53,12.85Z" transform="translate(-1.9 -1.9)"/><path class="cls-1" d="M131.17,12.71,136.61,2h2.93l2.16,10.67h-2.84l-.39-2.07h-3.38l-1,2.07Zm4.9-4.52h2.12l-.52-3.4Z" transform="translate(-1.9 -1.9)"/><path class="cls-1" d="M148.39,9.51a2.11,2.11,0,0,1-1.13-.31,2.3,2.3,0,0,1-.81-.8,2.22,2.22,0,0,1,0-2.23,2.3,2.3,0,0,1,.81-.8,2.28,2.28,0,0,1,2.26,0,2.3,2.3,0,0,1,.81.8,2.16,2.16,0,0,1,0,2.23,2.3,2.3,0,0,1-.81.8A2.11,2.11,0,0,1,148.39,9.51Z" transform="translate(-1.9 -1.9)"/><path class="cls-1" d="M159.17,12.85a4.5,4.5,0,0,1-2.56-.68,3.8,3.8,0,0,1-1.48-1.92,5.87,5.87,0,0,1-.19-2.84,7.07,7.07,0,0,1,1.12-2.9,6.07,6.07,0,0,1,2.14-1.93A5.89,5.89,0,0,1,161,1.9a4.6,4.6,0,0,1,2.39.56,3.45,3.45,0,0,1,1.39,1.45,3.24,3.24,0,0,1,.29,1.89h-3A2.13,2.13,0,0,0,161.9,5a1.3,1.3,0,0,0-.49-.55,1.53,1.53,0,0,0-.82-.2,2.16,2.16,0,0,0-1,.28,2.51,2.51,0,0,0-.9,1,5.36,5.36,0,0,0-.56,1.82,4.82,4.82,0,0,0,0,1.59,1.87,1.87,0,0,0,.38.91,1.33,1.33,0,0,0,.64.43,2.23,2.23,0,0,0,.71.11,1.79,1.79,0,0,0,.57-.09,1.91,1.91,0,0,0,.5-.23,1.76,1.76,0,0,0,.39-.32,1.26,1.26,0,0,0,.24-.36l.19-.38h-1.86L160.1,7l4.9,0-.86,5.64h-1.89l.17-1.18c-.21.18-.45.37-.73.58a4.14,4.14,0,0,1-1,.53A4.61,4.61,0,0,1,159.17,12.85Z" transform="translate(-1.9 -1.9)"/><path class="cls-1" d="M165.53,12.71,171,2h2.94l2.16,10.67h-2.85l-.39-2.07h-3.38l-1,2.07Zm4.9-4.52h2.11L172,4.79Z" transform="translate(-1.9 -1.9)"/><path class="cls-1" d="M177.27,12.71,178.92,2h2.87l-1.26,8.31h4.27l-.36,2.36Z" transform="translate(-1.9 -1.9)"/><path class="cls-1" d="M185.31,12.71,190.75,2h2.93l2.16,10.67H193l-.38-2.07h-3.38l-1,2.07Zm4.9-4.52h2.11l-.52-3.4Z" transform="translate(-1.9 -1.9)"/><path class="cls-1" d="M204.41,12.85a6.94,6.94,0,0,1-1.64-.19,4.33,4.33,0,0,1-1.42-.61,2.87,2.87,0,0,1-1-1.05,2.64,2.64,0,0,1-.28-1.54h3a1.12,1.12,0,0,0,.22.64,1.24,1.24,0,0,0,.56.41,2.21,2.21,0,0,0,.86.15,4.14,4.14,0,0,0,.87-.09,1.79,1.79,0,0,0,.7-.3.88.88,0,0,0,.35-.59.51.51,0,0,0-.18-.5,1.67,1.67,0,0,0-.63-.27c-.27-.07-.55-.12-.84-.17l-1.62-.28a2.9,2.9,0,0,1-1.88-1A2.76,2.76,0,0,1,201,5.32a3.29,3.29,0,0,1,.89-1.84,4.65,4.65,0,0,1,1.81-1.17,6.52,6.52,0,0,1,2.31-.4,4.93,4.93,0,0,1,2.26.48,3.53,3.53,0,0,1,1.44,1.24,2.78,2.78,0,0,1,.46,1.64h-2.93a1,1,0,0,0-.14-.66.9.9,0,0,0-.51-.37,2.6,2.6,0,0,0-.85-.12,2.77,2.77,0,0,0-.9.13,1.15,1.15,0,0,0-.5.33.8.8,0,0,0-.19.38.66.66,0,0,0,.15.59,1.72,1.72,0,0,0,.88.34l1.62.28a4.49,4.49,0,0,1,1.74.62,2.28,2.28,0,0,1,.83.94,2.46,2.46,0,0,1,.24,1,5.09,5.09,0,0,1,0,.91,2.87,2.87,0,0,1-.86,1.63,4.9,4.9,0,0,1-1.84,1.13A7.05,7.05,0,0,1,204.41,12.85Z" transform="translate(-1.9 -1.9)"/><path class="cls-1" d="M213,12.71l1.23-8.14h-3L211.63,2h9l-.39,2.53h-3.07l-1.25,8.14Z" transform="translate(-1.9 -1.9)"/><path class="cls-1" d="M218.24,12.71,223.67,2h2.94l2.16,10.67h-2.85l-.39-2.07h-3.38l-1,2.07Zm4.9-4.52h2.11l-.52-3.4Z" transform="translate(-1.9 -1.9)"/><path class="cls-1" d="M234.16,12.85a4.51,4.51,0,0,1-2.34-.57,3.81,3.81,0,0,1-1.49-1.59,5.22,5.22,0,0,1-.52-2.36A7.54,7.54,0,0,1,230.19,6a6.75,6.75,0,0,1,1.14-2.07,5.5,5.5,0,0,1,1.88-1.48,6.06,6.06,0,0,1,2.63-.54,4.71,4.71,0,0,1,2.16.46,3.27,3.27,0,0,1,1.4,1.33,4.33,4.33,0,0,1,.49,2.11h-3a2.18,2.18,0,0,0-.18-.85,1.24,1.24,0,0,0-.5-.56,1.62,1.62,0,0,0-.83-.19,1.71,1.71,0,0,0-1.17.4,2.9,2.9,0,0,0-.75,1.06,5.86,5.86,0,0,0-.4,1.39,9,9,0,0,0-.12,1.42,2.48,2.48,0,0,0,.41,1.6,1.32,1.32,0,0,0,1.07.48,1.64,1.64,0,0,0,.89-.25,2.37,2.37,0,0,0,.68-.66,3.39,3.39,0,0,0,.44-.92h3a8,8,0,0,1-.62,1.57,4.93,4.93,0,0,1-1,1.33,4.3,4.3,0,0,1-1.5.91A6.39,6.39,0,0,1,234.16,12.85Z" transform="translate(-1.9 -1.9)"/><path class="cls-1" d="M240.54,12.71,242.17,2h2.89l-1.62,10.67Z" transform="translate(-1.9 -1.9)"/><path class="cls-1" d="M246.69,12.85c-.31,0-.65,0-1,0a7.16,7.16,0,0,1-.9-.1l.39-2.58.46,0,.48,0a1.32,1.32,0,0,0,1.09-.39,2.54,2.54,0,0,0,.43-1.22l1-6.55h2.88l-1.12,7.29a7,7,0,0,1-.55,2,2.49,2.49,0,0,1-1.12,1.17A4.37,4.37,0,0,1,246.69,12.85Z" transform="translate(-1.9 -1.9)"/><path class="cls-1" d="M250.32,12.71,255.76,2h2.93l2.16,10.67H258l-.39-2.07h-3.38l-1,2.07Zm4.9-4.52h2.12l-.52-3.4Z" transform="translate(-1.9 -1.9)"/><path class="cls-1" d="M267.56,9.51a2.11,2.11,0,0,1-1.13-.31,2.3,2.3,0,0,1-.81-.8,2.22,2.22,0,0,1,0-2.23,2.3,2.3,0,0,1,.81-.8,2.28,2.28,0,0,1,2.26,0,2.41,2.41,0,0,1,.82.8,2.22,2.22,0,0,1,0,2.23,2.41,2.41,0,0,1-.82.8A2.11,2.11,0,0,1,267.56,9.51Z" transform="translate(-1.9 -1.9)"/><path class="cls-1" d="M278.3,12.85a4.47,4.47,0,0,1-2.55-.68,3.8,3.8,0,0,1-1.48-1.92,5.75,5.75,0,0,1-.19-2.84,6.93,6.93,0,0,1,1.12-2.9,6,6,0,0,1,2.14-1.93,5.85,5.85,0,0,1,2.82-.68,4.57,4.57,0,0,1,2.39.56,3.39,3.39,0,0,1,1.39,1.45,3.25,3.25,0,0,1,.3,1.89h-3A2.35,2.35,0,0,0,281,5a1.37,1.37,0,0,0-.49-.55,1.57,1.57,0,0,0-.83-.2,2.22,2.22,0,0,0-1,.28,2.49,2.49,0,0,0-.89,1,5.35,5.35,0,0,0-.57,1.82,5.11,5.11,0,0,0,0,1.59,1.78,1.78,0,0,0,.39.91,1.33,1.33,0,0,0,.64.43,2.17,2.17,0,0,0,.7.11,1.81,1.81,0,0,0,.58-.09A2.07,2.07,0,0,0,280,10a2,2,0,0,0,.38-.32,1.56,1.56,0,0,0,.25-.36L280.8,9h-1.86l.3-1.94,4.9,0-.86,5.64h-1.9l.18-1.18c-.21.18-.46.37-.74.58a4.07,4.07,0,0,1-1,.53A4.68,4.68,0,0,1,278.3,12.85Z" transform="translate(-1.9 -1.9)"/><path class="cls-1" d="M284.67,12.71,290.11,2H293l2.16,10.67h-2.85L292,10.64h-3.38l-1,2.07Zm4.9-4.52h2.11l-.52-3.4Z" transform="translate(-1.9 -1.9)"/><path class="cls-1" d="M296.43,12.71,298.07,2h2.87l-1.26,8.31H304l-.36,2.36Z" transform="translate(-1.9 -1.9)"/><path class="cls-1" d="M304.49,12.71,309.93,2h2.93L315,12.71h-2.85l-.38-2.07h-3.38l-1.05,2.07Zm4.9-4.52h2.11L311,4.79Z" transform="translate(-1.9 -1.9)"/><path class="cls-1" d="M323.55,12.85a6.94,6.94,0,0,1-1.64-.19,4.33,4.33,0,0,1-1.42-.61,3,3,0,0,1-1-1.05,2.81,2.81,0,0,1-.28-1.54h3a1.12,1.12,0,0,0,.22.64,1.24,1.24,0,0,0,.56.41,2.21,2.21,0,0,0,.86.15,4.14,4.14,0,0,0,.87-.09,1.79,1.79,0,0,0,.7-.3.88.88,0,0,0,.35-.59.49.49,0,0,0-.19-.5,1.55,1.55,0,0,0-.62-.27c-.27-.07-.55-.12-.85-.17l-1.61-.28a2.88,2.88,0,0,1-1.88-1,2.72,2.72,0,0,1-.47-2.15,3.29,3.29,0,0,1,.89-1.84,4.69,4.69,0,0,1,1.8-1.17,6.62,6.62,0,0,1,2.32-.4,5,5,0,0,1,2.26.48,3.66,3.66,0,0,1,1.44,1.24,2.78,2.78,0,0,1,.46,1.64h-2.93a1,1,0,0,0-.14-.66.9.9,0,0,0-.51-.37,2.6,2.6,0,0,0-.85-.12,2.77,2.77,0,0,0-.9.13,1.25,1.25,0,0,0-.51.33.9.9,0,0,0-.19.38.7.7,0,0,0,.16.59,1.68,1.68,0,0,0,.88.34l1.62.28a4.49,4.49,0,0,1,1.74.62,2.28,2.28,0,0,1,.83.94,2.62,2.62,0,0,1,.24,1,6.23,6.23,0,0,1,0,.91,2.87,2.87,0,0,1-.86,1.63A5,5,0,0,1,326,12.44,7,7,0,0,1,323.55,12.85Z" transform="translate(-1.9 -1.9)"/><path class="cls-1" d="M332.19,12.71l1.23-8.14h-3L330.79,2h9l-.39,2.53h-3.07l-1.25,8.14Z" transform="translate(-1.9 -1.9)"/><path class="cls-1" d="M337.4,12.71,342.84,2h2.93l2.16,10.67h-2.84l-.39-2.07h-3.38l-1,2.07Zm4.9-4.52h2.12l-.52-3.4Z" transform="translate(-1.9 -1.9)"/><path class="cls-1" d="M353.29,12.85a4.56,4.56,0,0,1-2.34-.57,3.79,3.79,0,0,1-1.48-1.59A5.09,5.09,0,0,1,349,8.33,7.54,7.54,0,0,1,349.33,6a6.36,6.36,0,0,1,1.14-2.07,5.5,5.5,0,0,1,1.88-1.48A6,6,0,0,1,355,1.9a4.65,4.65,0,0,1,2.16.46,3.16,3.16,0,0,1,1.4,1.33A4.22,4.22,0,0,1,359,5.8h-3a2,2,0,0,0-.17-.85,1.32,1.32,0,0,0-.51-.56,1.62,1.62,0,0,0-.83-.19,1.75,1.75,0,0,0-1.17.4,2.77,2.77,0,0,0-.74,1.06,5.86,5.86,0,0,0-.4,1.39,9,9,0,0,0-.12,1.42,2.48,2.48,0,0,0,.4,1.6,1.34,1.34,0,0,0,1.07.48,1.59,1.59,0,0,0,.89-.25,2.28,2.28,0,0,0,.69-.66,3.39,3.39,0,0,0,.44-.92h3a8.7,8.7,0,0,1-.62,1.57,4.93,4.93,0,0,1-1,1.33,4.5,4.5,0,0,1-1.5.91A6.41,6.41,0,0,1,353.29,12.85Z" transform="translate(-1.9 -1.9)"/><path class="cls-1" d="M359.68,12.71,361.31,2h2.89l-1.62,10.67Z" transform="translate(-1.9 -1.9)"/><path class="cls-1" d="M365.84,12.85c-.3,0-.64,0-1,0a7.16,7.16,0,0,1-.9-.1l.39-2.58.45,0,.49,0a1.3,1.3,0,0,0,1.08-.39,2.54,2.54,0,0,0,.44-1.22l1-6.55h2.87l-1.11,7.29a7.31,7.31,0,0,1-.55,2,2.49,2.49,0,0,1-1.12,1.17A4.39,4.39,0,0,1,365.84,12.85Z" transform="translate(-1.9 -1.9)"/><path class="cls-1" d="M369.48,12.71,374.91,2h2.93L380,12.71h-2.84l-.39-2.07h-3.38l-1,2.07Zm4.9-4.52h2.11L376,4.79Z" transform="translate(-1.9 -1.9)"/><path class="cls-1" d="M386.71,9.51a2.09,2.09,0,0,1-1.13-.31,2.3,2.3,0,0,1-.81-.8,2.16,2.16,0,0,1,0-2.23,2.3,2.3,0,0,1,.81-.8,2.26,2.26,0,0,1,2.25,0,2.41,2.41,0,0,1,.82.8,2.22,2.22,0,0,1,0,2.23,2.41,2.41,0,0,1-.82.8A2.08,2.08,0,0,1,386.71,9.51Z" transform="translate(-1.9 -1.9)"/><path class="cls-1" d="M397.46,12.85a4.5,4.5,0,0,1-2.56-.68,3.73,3.73,0,0,1-1.47-1.92,5.63,5.63,0,0,1-.19-2.84,6.92,6.92,0,0,1,1.11-2.9,6.1,6.1,0,0,1,2.15-1.93,5.82,5.82,0,0,1,2.82-.68,4.57,4.57,0,0,1,2.39.56,3.39,3.39,0,0,1,1.39,1.45,3.16,3.16,0,0,1,.29,1.89h-3a2.13,2.13,0,0,0-.2-.78,1.35,1.35,0,0,0-.48-.55,1.59,1.59,0,0,0-.83-.2,2.19,2.19,0,0,0-1,.28,2.42,2.42,0,0,0-.89,1,5.35,5.35,0,0,0-.57,1.82,5.11,5.11,0,0,0,0,1.59,1.78,1.78,0,0,0,.39.91,1.28,1.28,0,0,0,.64.43,2.17,2.17,0,0,0,.7.11,1.85,1.85,0,0,0,.58-.09,2,2,0,0,0,.49-.23,1.76,1.76,0,0,0,.39-.32,1.26,1.26,0,0,0,.24-.36L400,9H398.1L398.4,7l4.9,0-.87,5.64h-1.89l.17-1.18c-.21.18-.45.37-.73.58a4,4,0,0,1-1,.53A4.57,4.57,0,0,1,397.46,12.85Z" transform="translate(-1.9 -1.9)"/><path class="cls-1" d="M403.82,12.71,409.25,2h2.94l2.15,10.67H411.5l-.39-2.07h-3.38l-1,2.07Zm4.9-4.52h2.11l-.52-3.4Z" transform="translate(-1.9 -1.9)"/><path class="cls-1" d="M415.59,12.71,417.23,2h2.88l-1.27,8.31h4.28l-.37,2.36Z" transform="translate(-1.9 -1.9)"/><path class="cls-1" d="M423.63,12.71,429.07,2H432l2.16,10.67h-2.85l-.38-2.07h-3.38l-1.05,2.07Zm4.9-4.52h2.11l-.52-3.4Z" transform="translate(-1.9 -1.9)"/><path class="cls-1" d="M442.71,12.85a6.88,6.88,0,0,1-1.64-.19,4.48,4.48,0,0,1-1.43-.61,3,3,0,0,1-1-1.05,2.81,2.81,0,0,1-.28-1.54h3a1.12,1.12,0,0,0,.22.64,1.19,1.19,0,0,0,.56.41,2.19,2.19,0,0,0,.85.15,4.17,4.17,0,0,0,.88-.09,1.86,1.86,0,0,0,.7-.3.88.88,0,0,0,.35-.59.49.49,0,0,0-.19-.5,1.53,1.53,0,0,0-.63-.27c-.26-.07-.54-.12-.84-.17l-1.61-.28a2.88,2.88,0,0,1-1.88-1,2.72,2.72,0,0,1-.47-2.15,3.35,3.35,0,0,1,.88-1.84A4.8,4.8,0,0,1,442,2.31a6.6,6.6,0,0,1,2.31-.4,4.9,4.9,0,0,1,2.26.48A3.62,3.62,0,0,1,448,3.63a2.78,2.78,0,0,1,.46,1.64h-2.93a1,1,0,0,0-.14-.66,1,1,0,0,0-.51-.37,2.64,2.64,0,0,0-.85-.12,2.68,2.68,0,0,0-.9.13,1.25,1.25,0,0,0-.51.33.9.9,0,0,0-.19.38.7.7,0,0,0,.16.59,1.68,1.68,0,0,0,.88.34l1.61.28a4.6,4.6,0,0,1,1.75.62,2.28,2.28,0,0,1,.83.94,2.81,2.81,0,0,1,.24,1,6.23,6.23,0,0,1-.05.91,2.87,2.87,0,0,1-.86,1.63,5,5,0,0,1-1.85,1.13A7,7,0,0,1,442.71,12.85Z" transform="translate(-1.9 -1.9)"/><path class="cls-1" d="M451.35,12.71l1.24-8.14h-3L450,2h9l-.39,2.53h-3.06l-1.25,8.14Z" transform="translate(-1.9 -1.9)"/><path class="cls-1" d="M456.53,12.71,462,2h2.94l2.16,10.67h-2.85l-.39-2.07h-3.38l-1,2.07Zm4.9-4.52h2.11L463,4.79Z" transform="translate(-1.9 -1.9)"/><path class="cls-1" d="M472.44,12.85a4.56,4.56,0,0,1-2.34-.57,3.79,3.79,0,0,1-1.48-1.59,5.09,5.09,0,0,1-.52-2.36A7.54,7.54,0,0,1,468.48,6a6.52,6.52,0,0,1,1.13-2.07,5.63,5.63,0,0,1,1.89-1.48,6,6,0,0,1,2.62-.54,4.65,4.65,0,0,1,2.16.46,3.21,3.21,0,0,1,1.4,1.33,4.22,4.22,0,0,1,.49,2.11h-3A1.87,1.87,0,0,0,475,5a1.24,1.24,0,0,0-.5-.56,1.62,1.62,0,0,0-.83-.19,1.73,1.73,0,0,0-1.17.4,2.9,2.9,0,0,0-.75,1.06,6.35,6.35,0,0,0-.39,1.39,9,9,0,0,0-.12,1.42,2.48,2.48,0,0,0,.4,1.6,1.34,1.34,0,0,0,1.07.48,1.59,1.59,0,0,0,.89-.25,2.4,2.4,0,0,0,.69-.66,3.72,3.72,0,0,0,.44-.92h3a8.7,8.7,0,0,1-.62,1.57,4.93,4.93,0,0,1-1,1.33,4.5,4.5,0,0,1-1.5.91A6.41,6.41,0,0,1,472.44,12.85Z" transform="translate(-1.9 -1.9)"/><path class="cls-1" d="M478.85,12.71,480.48,2h2.89l-1.63,10.67Z" transform="translate(-1.9 -1.9)"/><path class="cls-1" d="M485,12.85c-.31,0-.65,0-1,0a6.75,6.75,0,0,1-.89-.1l.38-2.58.46,0,.48,0a1.32,1.32,0,0,0,1.09-.39,2.54,2.54,0,0,0,.43-1.22l1-6.55h2.88l-1.12,7.29a7,7,0,0,1-.55,2A2.52,2.52,0,0,1,487,12.46,4.41,4.41,0,0,1,485,12.85Z" transform="translate(-1.9 -1.9)"/><path class="cls-1" d="M488.64,12.71,494.08,2H497l2.16,10.67h-2.85l-.38-2.07h-3.38l-1.05,2.07Zm4.9-4.52h2.11l-.52-3.4Z" transform="translate(-1.9 -1.9)"/><path class="cls-1" d="M505.87,9.51a2.11,2.11,0,0,1-1.13-.31,2.3,2.3,0,0,1-.81-.8,2.22,2.22,0,0,1,0-2.23,2.3,2.3,0,0,1,.81-.8,2.28,2.28,0,0,1,2.26,0,2.41,2.41,0,0,1,.82.8,2.22,2.22,0,0,1,0,2.23,2.41,2.41,0,0,1-.82.8A2.11,2.11,0,0,1,505.87,9.51Z" transform="translate(-1.9 -1.9)"/><path class="cls-1" d="M516.62,12.85a4.47,4.47,0,0,1-2.55-.68,3.8,3.8,0,0,1-1.48-1.92,5.75,5.75,0,0,1-.19-2.84,7.07,7.07,0,0,1,1.12-2.9,6,6,0,0,1,2.14-1.93,5.88,5.88,0,0,1,2.82-.68,4.57,4.57,0,0,1,2.39.56,3.39,3.39,0,0,1,1.39,1.45,3.25,3.25,0,0,1,.3,1.89h-3a2.35,2.35,0,0,0-.19-.78,1.37,1.37,0,0,0-.49-.55,1.57,1.57,0,0,0-.83-.2,2.22,2.22,0,0,0-1,.28,2.57,2.57,0,0,0-.89,1,5.35,5.35,0,0,0-.57,1.82,5.11,5.11,0,0,0,0,1.59,1.78,1.78,0,0,0,.39.91,1.33,1.33,0,0,0,.64.43,2.17,2.17,0,0,0,.7.11,1.81,1.81,0,0,0,.58-.09,2.07,2.07,0,0,0,.5-.23,2,2,0,0,0,.38-.32,1.56,1.56,0,0,0,.25-.36l.18-.38h-1.86l.3-1.94,4.9,0-.86,5.64h-1.89l.17-1.18c-.21.18-.46.37-.74.58a4.07,4.07,0,0,1-1,.53A4.68,4.68,0,0,1,516.62,12.85Z" transform="translate(-1.9 -1.9)"/><path class="cls-1" d="M523,12.71,528.43,2h2.93l2.16,10.67h-2.84l-.39-2.07h-3.38l-1,2.07Zm4.9-4.52H530l-.52-3.4Z" transform="translate(-1.9 -1.9)"/><path class="cls-1" d="M534.75,12.71,536.39,2h2.88L538,10.35h4.27l-.36,2.36Z" transform="translate(-1.9 -1.9)"/><path class="cls-1" d="M542.8,12.71,548.23,2h2.94l2.16,10.67h-2.85l-.38-2.07h-3.38l-1.05,2.07Zm4.9-4.52h2.11l-.52-3.4Z" transform="translate(-1.9 -1.9)"/><path class="cls-1" d="M561.85,12.85a6.88,6.88,0,0,1-1.64-.19,4.33,4.33,0,0,1-1.42-.61,2.9,2.9,0,0,1-1-1.05,2.81,2.81,0,0,1-.28-1.54h3a1.12,1.12,0,0,0,.22.64,1.19,1.19,0,0,0,.56.41,2.21,2.21,0,0,0,.86.15,4.14,4.14,0,0,0,.87-.09,1.86,1.86,0,0,0,.7-.3.88.88,0,0,0,.35-.59.49.49,0,0,0-.19-.5,1.53,1.53,0,0,0-.63-.27c-.26-.07-.54-.12-.84-.17l-1.61-.28a2.88,2.88,0,0,1-1.88-1,2.72,2.72,0,0,1-.47-2.15,3.35,3.35,0,0,1,.88-1.84,4.8,4.8,0,0,1,1.81-1.17,6.62,6.62,0,0,1,2.32-.4,5,5,0,0,1,2.26.48,3.66,3.66,0,0,1,1.44,1.24,2.78,2.78,0,0,1,.46,1.64h-2.93a1,1,0,0,0-.14-.66,1,1,0,0,0-.51-.37,2.64,2.64,0,0,0-.85-.12,2.77,2.77,0,0,0-.9.13,1.25,1.25,0,0,0-.51.33.9.9,0,0,0-.19.38.7.7,0,0,0,.16.59,1.68,1.68,0,0,0,.88.34l1.61.28a4.6,4.6,0,0,1,1.75.62,2.28,2.28,0,0,1,.83.94,2.81,2.81,0,0,1,.24,1,6.23,6.23,0,0,1-.05.91,2.87,2.87,0,0,1-.86,1.63,5,5,0,0,1-1.85,1.13A7,7,0,0,1,561.85,12.85Z" transform="translate(-1.9 -1.9)"/><path class="cls-1" d="M570.49,12.71l1.23-8.14h-3L569.09,2h9l-.39,2.53h-3.07l-1.25,8.14Z" transform="translate(-1.9 -1.9)"/><path class="cls-1" d="M575.71,12.71,581.15,2h2.93l2.16,10.67H583.4L583,10.64h-3.38l-1,2.07Zm4.9-4.52h2.12l-.53-3.4Z" transform="translate(-1.9 -1.9)"/><path class="cls-1" d="M591.63,12.85a4.51,4.51,0,0,1-2.34-.57,3.81,3.81,0,0,1-1.49-1.59,5.22,5.22,0,0,1-.52-2.36A7.54,7.54,0,0,1,587.66,6a6.75,6.75,0,0,1,1.14-2.07,5.5,5.5,0,0,1,1.88-1.48,6.06,6.06,0,0,1,2.63-.54,4.71,4.71,0,0,1,2.16.46,3.27,3.27,0,0,1,1.4,1.33,4.33,4.33,0,0,1,.49,2.11h-3a2.18,2.18,0,0,0-.18-.85,1.3,1.3,0,0,0-.5-.56,1.62,1.62,0,0,0-.83-.19,1.71,1.71,0,0,0-1.17.4,2.79,2.79,0,0,0-.75,1.06,5.86,5.86,0,0,0-.4,1.39,9,9,0,0,0-.12,1.42,2.48,2.48,0,0,0,.41,1.6,1.32,1.32,0,0,0,1.07.48,1.64,1.64,0,0,0,.89-.25,2.37,2.37,0,0,0,.68-.66,3.39,3.39,0,0,0,.44-.92h3a8,8,0,0,1-.62,1.57,4.93,4.93,0,0,1-1,1.33,4.3,4.3,0,0,1-1.5.91A6.39,6.39,0,0,1,591.63,12.85Z" transform="translate(-1.9 -1.9)"/><path class="cls-1" d="M598,12.71,599.65,2h2.89l-1.63,10.67Z" transform="translate(-1.9 -1.9)"/><path class="cls-1" d="M604.16,12.85c-.31,0-.65,0-1,0a7,7,0,0,1-.89-.1l.38-2.58.46,0,.48,0a1.32,1.32,0,0,0,1.09-.39,2.54,2.54,0,0,0,.43-1.22l1-6.55H609l-1.12,7.29a7,7,0,0,1-.55,2,2.52,2.52,0,0,1-1.11,1.17A4.41,4.41,0,0,1,604.16,12.85Z" transform="translate(-1.9 -1.9)"/><path class="cls-1" d="M607.81,12.71,613.24,2h2.94l2.15,10.67h-2.84l-.39-2.07h-3.38l-1,2.07Zm4.9-4.52h2.11l-.52-3.4Z" transform="translate(-1.9 -1.9)"/><path class="cls-1" d="M625,9.51a2.08,2.08,0,0,1-1.12-.31,2.41,2.41,0,0,1-.82-.8,2.22,2.22,0,0,1,0-2.23,2.41,2.41,0,0,1,.82-.8,2.26,2.26,0,0,1,2.25,0,2.41,2.41,0,0,1,.82.8,2.22,2.22,0,0,1,0,2.23,2.41,2.41,0,0,1-.82.8A2.09,2.09,0,0,1,625,9.51Z" transform="translate(-1.9 -1.9)"/><path class="cls-1" d="M635.79,12.85a4.5,4.5,0,0,1-2.56-.68,3.84,3.84,0,0,1-1.47-1.92,5.63,5.63,0,0,1-.19-2.84,6.93,6.93,0,0,1,1.12-2.9,6,6,0,0,1,2.14-1.93,5.82,5.82,0,0,1,2.82-.68,4.57,4.57,0,0,1,2.39.56,3.39,3.39,0,0,1,1.39,1.45,3.25,3.25,0,0,1,.3,1.89h-3a2.13,2.13,0,0,0-.2-.78,1.35,1.35,0,0,0-.48-.55,1.57,1.57,0,0,0-.83-.2,2.22,2.22,0,0,0-1,.28,2.49,2.49,0,0,0-.89,1,5.35,5.35,0,0,0-.57,1.82,5.11,5.11,0,0,0,0,1.59,1.78,1.78,0,0,0,.39.91,1.28,1.28,0,0,0,.64.43,2.17,2.17,0,0,0,.7.11,1.81,1.81,0,0,0,.58-.09,1.84,1.84,0,0,0,.49-.23,1.76,1.76,0,0,0,.39-.32,1.56,1.56,0,0,0,.25-.36l.18-.38h-1.86l.3-1.94,4.9,0-.87,5.64h-1.89l.17-1.18c-.2.18-.45.37-.73.58a4,4,0,0,1-1,.53A4.57,4.57,0,0,1,635.79,12.85Z" transform="translate(-1.9 -1.9)"/><path class="cls-1" d="M642.17,12.71,647.6,2h2.94l2.15,10.67h-2.84l-.39-2.07h-3.38l-1,2.07Zm4.9-4.52h2.11l-.52-3.4Z" transform="translate(-1.9 -1.9)"/><path class="cls-1" d="M653.91,12.71,655.55,2h2.88l-1.27,8.31h4.27l-.36,2.36Z" transform="translate(-1.9 -1.9)"/><path class="cls-1" d="M662,12.71,667.39,2h2.94l2.15,10.67h-2.84l-.39-2.07h-3.38l-1,2.07Zm4.9-4.52H669l-.52-3.4Z" transform="translate(-1.9 -1.9)"/><path class="cls-1" d="M681,12.85a6.88,6.88,0,0,1-1.64-.19,4.48,4.48,0,0,1-1.43-.61A3,3,0,0,1,677,11a2.81,2.81,0,0,1-.28-1.54h3a1.12,1.12,0,0,0,.22.64,1.19,1.19,0,0,0,.56.41,2.19,2.19,0,0,0,.85.15,4.17,4.17,0,0,0,.88-.09,1.86,1.86,0,0,0,.7-.3.88.88,0,0,0,.35-.59.49.49,0,0,0-.19-.5,1.53,1.53,0,0,0-.63-.27c-.26-.07-.54-.12-.84-.17L680,8.46a2.88,2.88,0,0,1-1.88-1,2.72,2.72,0,0,1-.47-2.15,3.35,3.35,0,0,1,.88-1.84,4.8,4.8,0,0,1,1.81-1.17,6.62,6.62,0,0,1,2.32-.4,4.88,4.88,0,0,1,2.25.48,3.62,3.62,0,0,1,1.45,1.24,2.78,2.78,0,0,1,.46,1.64h-2.93a1,1,0,0,0-.14-.66,1,1,0,0,0-.51-.37,2.64,2.64,0,0,0-.85-.12,2.68,2.68,0,0,0-.9.13,1.25,1.25,0,0,0-.51.33.9.9,0,0,0-.19.38.7.7,0,0,0,.16.59,1.68,1.68,0,0,0,.88.34l1.61.28a4.6,4.6,0,0,1,1.75.62,2.28,2.28,0,0,1,.83.94,2.81,2.81,0,0,1,.24,1,6.23,6.23,0,0,1,0,.91,2.87,2.87,0,0,1-.86,1.63,5,5,0,0,1-1.85,1.13A7,7,0,0,1,681,12.85Z" transform="translate(-1.9 -1.9)"/><path class="cls-1" d="M689.66,12.71l1.23-8.14h-3L688.26,2h9l-.39,2.53h-3.07l-1.25,8.14Z" transform="translate(-1.9 -1.9)"/><path class="cls-1" d="M694.86,12.71,700.3,2h2.93l2.16,10.67h-2.84l-.39-2.07h-3.38l-1,2.07Zm4.9-4.52h2.12l-.52-3.4Z" transform="translate(-1.9 -1.9)"/><path class="cls-1" d="M710.76,12.85a4.56,4.56,0,0,1-2.34-.57,3.79,3.79,0,0,1-1.48-1.59,5.09,5.09,0,0,1-.52-2.36A7.26,7.26,0,0,1,706.8,6a6.52,6.52,0,0,1,1.13-2.07,5.63,5.63,0,0,1,1.89-1.48,6,6,0,0,1,2.62-.54,4.65,4.65,0,0,1,2.16.46A3.21,3.21,0,0,1,716,3.69a4.22,4.22,0,0,1,.49,2.11h-3a1.87,1.87,0,0,0-.18-.85,1.24,1.24,0,0,0-.5-.56A1.62,1.62,0,0,0,712,4.2a1.71,1.71,0,0,0-1.17.4,2.9,2.9,0,0,0-.75,1.06,6.36,6.36,0,0,0-.4,1.39,10.26,10.26,0,0,0-.11,1.42,2.48,2.48,0,0,0,.4,1.6,1.34,1.34,0,0,0,1.07.48,1.62,1.62,0,0,0,.89-.25,2.37,2.37,0,0,0,.68-.66,3.42,3.42,0,0,0,.45-.92h3a8.7,8.7,0,0,1-.62,1.57,5,5,0,0,1-1,1.33,4.3,4.3,0,0,1-1.5.91A6.31,6.31,0,0,1,710.76,12.85Z" transform="translate(-1.9 -1.9)"/><path class="cls-1" d="M717.17,12.71,718.8,2h2.89l-1.62,10.67Z" transform="translate(-1.9 -1.9)"/><path class="cls-1" d="M723.3,12.85c-.3,0-.64,0-1,0a7.16,7.16,0,0,1-.9-.1l.39-2.58.45,0,.49,0a1.32,1.32,0,0,0,1.08-.39,2.54,2.54,0,0,0,.44-1.22l1-6.55h2.87L727,9.33a6.64,6.64,0,0,1-.55,2,2.47,2.47,0,0,1-1.11,1.17A4.39,4.39,0,0,1,723.3,12.85Z" transform="translate(-1.9 -1.9)"/><path class="cls-1" d="M727,12.71,732.41,2h2.94l2.15,10.67h-2.84l-.39-2.07h-3.38l-1,2.07Zm4.9-4.52H734l-.52-3.4Z" transform="translate(-1.9 -1.9)"/><path class="cls-1" d="M744.19,9.51a2.09,2.09,0,0,1-1.13-.31,2.3,2.3,0,0,1-.81-.8,2.22,2.22,0,0,1,0-2.23,2.3,2.3,0,0,1,.81-.8,2.26,2.26,0,0,1,2.25,0,2.33,2.33,0,0,1,.82.8,2.16,2.16,0,0,1,0,2.23,2.33,2.33,0,0,1-.82.8A2.08,2.08,0,0,1,744.19,9.51Z" transform="translate(-1.9 -1.9)"/><path class="cls-1" d="M754.94,12.85a4.47,4.47,0,0,1-2.55-.68,3.8,3.8,0,0,1-1.48-1.92,5.75,5.75,0,0,1-.19-2.84,7.07,7.07,0,0,1,1.12-2.9A6,6,0,0,1,754,2.58a5.89,5.89,0,0,1,2.83-.68,4.62,4.62,0,0,1,2.39.56,3.43,3.43,0,0,1,1.38,1.45,3.25,3.25,0,0,1,.3,1.89h-3a2.13,2.13,0,0,0-.19-.78,1.3,1.3,0,0,0-.49-.55,1.56,1.56,0,0,0-.82-.2,2.23,2.23,0,0,0-1,.28,2.57,2.57,0,0,0-.89,1,5.35,5.35,0,0,0-.57,1.82,5.44,5.44,0,0,0,0,1.59,1.87,1.87,0,0,0,.39.91,1.33,1.33,0,0,0,.64.43,2.22,2.22,0,0,0,.7.11,1.81,1.81,0,0,0,.58-.09,2.07,2.07,0,0,0,.5-.23,1.7,1.7,0,0,0,.38-.32,1.3,1.3,0,0,0,.25-.36l.19-.38h-1.87l.3-1.94,4.9,0-.86,5.64H758l.17-1.18c-.21.18-.46.37-.74.58a4.07,4.07,0,0,1-1,.53A4.68,4.68,0,0,1,754.94,12.85Z" transform="translate(-1.9 -1.9)"/><path class="cls-1" d="M761.31,12.71,766.75,2h2.93l2.16,10.67H769l-.38-2.07h-3.38l-1.05,2.07Zm4.9-4.52h2.11l-.52-3.4Z" transform="translate(-1.9 -1.9)"/><path class="cls-1" d="M773.07,12.71,774.72,2h2.87l-1.26,8.31h4.27l-.36,2.36Z" transform="translate(-1.9 -1.9)"/><path class="cls-1" d="M781.1,12.71,786.53,2h2.93l2.16,10.67h-2.84l-.39-2.07H785l-1,2.07ZM786,8.19h2.12l-.52-3.4Z" transform="translate(-1.9 -1.9)"/><path class="cls-1" d="M800.19,12.85a6.88,6.88,0,0,1-1.64-.19,4.39,4.39,0,0,1-1.43-.61,3,3,0,0,1-1-1.05,2.81,2.81,0,0,1-.28-1.54h3a1.13,1.13,0,0,0,.23.64,1.19,1.19,0,0,0,.56.41,2.15,2.15,0,0,0,.85.15,4.07,4.07,0,0,0,.87-.09,1.84,1.84,0,0,0,.71-.3.87.87,0,0,0,.34-.59.47.47,0,0,0-.18-.5,1.67,1.67,0,0,0-.63-.27c-.26-.07-.54-.12-.84-.17l-1.62-.28a2.9,2.9,0,0,1-1.88-1,2.76,2.76,0,0,1-.46-2.15,3.28,3.28,0,0,1,.88-1.84,4.8,4.8,0,0,1,1.81-1.17,6.52,6.52,0,0,1,2.31-.4,4.93,4.93,0,0,1,2.26.48,3.53,3.53,0,0,1,1.44,1.24A2.65,2.65,0,0,1,806,5.27h-2.92a1,1,0,0,0-.15-.66.9.9,0,0,0-.51-.37,2.55,2.55,0,0,0-.85-.12,2.77,2.77,0,0,0-.9.13,1.28,1.28,0,0,0-.5.33A.8.8,0,0,0,800,5a.73.73,0,0,0,.15.59,1.73,1.73,0,0,0,.89.34l1.61.28a4.49,4.49,0,0,1,1.74.62,2.31,2.31,0,0,1,.84.94,2.81,2.81,0,0,1,.24,1,6.12,6.12,0,0,1-.06.91,2.85,2.85,0,0,1-.85,1.63,5,5,0,0,1-1.85,1.13A7,7,0,0,1,800.19,12.85Z" transform="translate(-1.9 -1.9)"/><path class="cls-1" d="M808.82,12.71l1.24-8.14h-3L807.42,2h9L816,4.57H813l-1.25,8.14Z" transform="translate(-1.9 -1.9)"/><path class="cls-1" d="M814,12.71,819.46,2h2.93l2.16,10.67h-2.84l-.39-2.07h-3.38l-1,2.07Zm4.9-4.52H821l-.52-3.4Z" transform="translate(-1.9 -1.9)"/><path class="cls-1" d="M829.92,12.85a4.5,4.5,0,0,1-2.33-.57,3.81,3.81,0,0,1-1.49-1.59,5.22,5.22,0,0,1-.52-2.36A7.54,7.54,0,0,1,826,6a6.75,6.75,0,0,1,1.14-2.07A5.5,5.5,0,0,1,829,2.44a6,6,0,0,1,2.63-.54,4.71,4.71,0,0,1,2.16.46,3.27,3.27,0,0,1,1.4,1.33,4.33,4.33,0,0,1,.49,2.11h-3a2.18,2.18,0,0,0-.18-.85,1.3,1.3,0,0,0-.5-.56,1.64,1.64,0,0,0-.83-.19,1.71,1.71,0,0,0-1.17.4,2.68,2.68,0,0,0-.75,1.06,5.86,5.86,0,0,0-.4,1.39,9,9,0,0,0-.12,1.42,2.48,2.48,0,0,0,.41,1.6,1.32,1.32,0,0,0,1.07.48,1.64,1.64,0,0,0,.89-.25,2.37,2.37,0,0,0,.68-.66,3.39,3.39,0,0,0,.44-.92h3a8,8,0,0,1-.62,1.57,4.93,4.93,0,0,1-1,1.33,4.3,4.3,0,0,1-1.5.91A6.41,6.41,0,0,1,829.92,12.85Z" transform="translate(-1.9 -1.9)"/><path class="cls-1" d="M836.31,12.71,837.94,2h2.89L839.2,12.71Z" transform="translate(-1.9 -1.9)"/><path class="cls-1" d="M842.47,12.85c-.3,0-.65,0-1,0a7,7,0,0,1-.89-.1l.38-2.58.46,0,.48,0A1.32,1.32,0,0,0,843,9.81a2.54,2.54,0,0,0,.43-1.22l1-6.55h2.88l-1.12,7.29a7,7,0,0,1-.55,2,2.52,2.52,0,0,1-1.11,1.17A4.41,4.41,0,0,1,842.47,12.85Z" transform="translate(-1.9 -1.9)"/><path class="cls-1" d="M846.11,12.71,851.55,2h2.93l2.16,10.67H853.8l-.39-2.07H850l-1,2.07ZM851,8.19h2.12l-.52-3.4Z" transform="translate(-1.9 -1.9)"/><path class="cls-1" d="M863.34,9.51a2.11,2.11,0,0,1-1.13-.31,2.3,2.3,0,0,1-.81-.8,2.22,2.22,0,0,1,0-2.23,2.3,2.3,0,0,1,.81-.8,2.28,2.28,0,0,1,2.26,0,2.3,2.3,0,0,1,.81.8,2.16,2.16,0,0,1,0,2.23,2.3,2.3,0,0,1-.81.8A2.11,2.11,0,0,1,863.34,9.51Z" transform="translate(-1.9 -1.9)"/><path class="cls-1" d="M874.1,12.85a4.5,4.5,0,0,1-2.56-.68,3.79,3.79,0,0,1-1.47-1.92,5.63,5.63,0,0,1-.19-2.84A6.93,6.93,0,0,1,871,4.51a6,6,0,0,1,2.14-1.93A5.82,5.82,0,0,1,876,1.9a4.57,4.57,0,0,1,2.39.56,3.39,3.39,0,0,1,1.39,1.45A3.16,3.16,0,0,1,880,5.8h-3a2.13,2.13,0,0,0-.2-.78,1.35,1.35,0,0,0-.48-.55,1.57,1.57,0,0,0-.83-.2,2.22,2.22,0,0,0-1,.28,2.49,2.49,0,0,0-.89,1A5.35,5.35,0,0,0,873,7.32a5.11,5.11,0,0,0,0,1.59,1.78,1.78,0,0,0,.39.91,1.28,1.28,0,0,0,.64.43,2.17,2.17,0,0,0,.7.11,1.81,1.81,0,0,0,.58-.09,2,2,0,0,0,.49-.23,1.76,1.76,0,0,0,.39-.32,1.56,1.56,0,0,0,.25-.36L876.6,9h-1.86L875,7l4.9,0-.87,5.64h-1.89l.17-1.18c-.2.18-.45.37-.73.58a4,4,0,0,1-1,.53A4.57,4.57,0,0,1,874.1,12.85Z" transform="translate(-1.9 -1.9)"/><path class="cls-1" d="M880.47,12.71,885.9,2h2.93L891,12.71h-2.84l-.39-2.07h-3.38l-1,2.07Zm4.9-4.52h2.11L887,4.79Z" transform="translate(-1.9 -1.9)"/><path class="cls-1" d="M892.22,12.71,893.87,2h2.87l-1.26,8.31h4.27l-.36,2.36Z" transform="translate(-1.9 -1.9)"/><path class="cls-1" d="M900.26,12.71,905.7,2h2.93l2.16,10.67h-2.85l-.38-2.07h-3.38l-1,2.07Zm4.9-4.52h2.11l-.52-3.4Z" transform="translate(-1.9 -1.9)"/><path class="cls-1" d="M919.36,12.85a6.88,6.88,0,0,1-1.64-.19,4.39,4.39,0,0,1-1.43-.61,2.87,2.87,0,0,1-1-1.05A2.81,2.81,0,0,1,915,9.46h3a1.13,1.13,0,0,0,.23.64,1.19,1.19,0,0,0,.56.41,2.15,2.15,0,0,0,.85.15,4.14,4.14,0,0,0,.87-.09,1.84,1.84,0,0,0,.71-.3.87.87,0,0,0,.34-.59.47.47,0,0,0-.18-.5,1.67,1.67,0,0,0-.63-.27c-.26-.07-.54-.12-.84-.17l-1.62-.28a2.9,2.9,0,0,1-1.88-1A2.72,2.72,0,0,1,916,5.32a3.28,3.28,0,0,1,.88-1.84,4.8,4.8,0,0,1,1.81-1.17,6.52,6.52,0,0,1,2.31-.4,4.93,4.93,0,0,1,2.26.48,3.53,3.53,0,0,1,1.44,1.24,2.71,2.71,0,0,1,.46,1.64h-2.92a1.12,1.12,0,0,0-.15-.66.9.9,0,0,0-.51-.37,2.6,2.6,0,0,0-.85-.12,2.77,2.77,0,0,0-.9.13,1.21,1.21,0,0,0-.5.33.8.8,0,0,0-.19.38.73.73,0,0,0,.15.59,1.73,1.73,0,0,0,.89.34l1.61.28a4.49,4.49,0,0,1,1.74.62,2.31,2.31,0,0,1,.84.94,2.81,2.81,0,0,1,.24,1,6.12,6.12,0,0,1-.06.91,2.85,2.85,0,0,1-.85,1.63,5,5,0,0,1-1.85,1.13A7,7,0,0,1,919.36,12.85Z" transform="translate(-1.9 -1.9)"/><path class="cls-1" d="M928,12.71l1.24-8.14h-3L926.58,2h9l-.38,2.53h-3.07l-1.25,8.14Z" transform="translate(-1.9 -1.9)"/><path class="cls-1" d="M933.18,12.71,938.61,2h2.94l2.16,10.67h-2.85l-.39-2.07h-3.38l-1,2.07Zm4.9-4.52h2.11l-.52-3.4Z" transform="translate(-1.9 -1.9)"/><path class="cls-1" d="M949.08,12.85a4.56,4.56,0,0,1-2.34-.57,3.79,3.79,0,0,1-1.48-1.59,5.09,5.09,0,0,1-.52-2.36A7.54,7.54,0,0,1,945.12,6a6.36,6.36,0,0,1,1.14-2.07,5.5,5.5,0,0,1,1.88-1.48,6,6,0,0,1,2.62-.54,4.65,4.65,0,0,1,2.16.46,3.21,3.21,0,0,1,1.4,1.33,4.22,4.22,0,0,1,.49,2.11h-3a1.87,1.87,0,0,0-.18-.85,1.24,1.24,0,0,0-.5-.56,1.62,1.62,0,0,0-.83-.19,1.75,1.75,0,0,0-1.17.4,2.9,2.9,0,0,0-.75,1.06A6.35,6.35,0,0,0,948,7.05a9,9,0,0,0-.12,1.42,2.48,2.48,0,0,0,.4,1.6,1.34,1.34,0,0,0,1.07.48,1.59,1.59,0,0,0,.89-.25,2.28,2.28,0,0,0,.69-.66,3.72,3.72,0,0,0,.44-.92h3a8.7,8.7,0,0,1-.62,1.57,4.93,4.93,0,0,1-1,1.33,4.5,4.5,0,0,1-1.5.91A6.41,6.41,0,0,1,949.08,12.85Z" transform="translate(-1.9 -1.9)"/><path class="cls-1" d="M955.47,12.71,957.1,2H960l-1.62,10.67Z" transform="translate(-1.9 -1.9)"/><path class="cls-1" d="M961.64,12.85c-.3,0-.64,0-1,0a7.16,7.16,0,0,1-.9-.1l.39-2.58.45,0,.49,0a1.34,1.34,0,0,0,1.09-.39,2.65,2.65,0,0,0,.43-1.22l1-6.55h2.87l-1.11,7.29a7.31,7.31,0,0,1-.55,2,2.49,2.49,0,0,1-1.12,1.17A4.39,4.39,0,0,1,961.64,12.85Z" transform="translate(-1.9 -1.9)"/><path class="cls-1" d="M965.3,12.71,970.73,2h2.93l2.16,10.67H973l-.39-2.07h-3.38l-1,2.07Zm4.89-4.52h2.12l-.52-3.4Z" transform="translate(-1.9 -1.9)"/><path class="cls-1" d="M982.5,9.51a2.11,2.11,0,0,1-1.13-.31,2.3,2.3,0,0,1-.81-.8,2.22,2.22,0,0,1,0-2.23,2.3,2.3,0,0,1,.81-.8,2.28,2.28,0,0,1,2.26,0,2.3,2.3,0,0,1,.81.8,2.16,2.16,0,0,1,0,2.23,2.3,2.3,0,0,1-.81.8A2.11,2.11,0,0,1,982.5,9.51Z" transform="translate(-1.9 -1.9)"/><path class="cls-1" d="M993.28,12.85a4.5,4.5,0,0,1-2.56-.68,3.73,3.73,0,0,1-1.47-1.92,5.63,5.63,0,0,1-.19-2.84,6.92,6.92,0,0,1,1.11-2.9,6.07,6.07,0,0,1,2.14-1.93,5.89,5.89,0,0,1,2.83-.68,4.6,4.6,0,0,1,2.39.56,3.45,3.45,0,0,1,1.39,1.45,3.16,3.16,0,0,1,.29,1.89h-3A2.13,2.13,0,0,0,996,5a1.35,1.35,0,0,0-.48-.55,1.59,1.59,0,0,0-.83-.2,2.16,2.16,0,0,0-1,.28,2.51,2.51,0,0,0-.9,1,5.59,5.59,0,0,0-.56,1.82,4.82,4.82,0,0,0,0,1.59,1.87,1.87,0,0,0,.38.91,1.33,1.33,0,0,0,.64.43,2.28,2.28,0,0,0,.71.11,1.9,1.9,0,0,0,.58-.09A2,2,0,0,0,995,10a1.76,1.76,0,0,0,.39-.32,1.26,1.26,0,0,0,.24-.36l.19-.38h-1.86l.3-1.94,4.89,0-.86,5.64h-1.89l.17-1.18c-.21.18-.45.37-.73.58a4.14,4.14,0,0,1-1,.53A4.57,4.57,0,0,1,993.28,12.85Z" transform="translate(-1.9 -1.9)"/><path class="cls-1" d="M999.62,12.71,1005.06,2H1008l2.16,10.67h-2.85l-.38-2.07h-3.38l-1,2.07Zm4.9-4.52h2.11l-.52-3.4Z" transform="translate(-1.9 -1.9)"/><path class="cls-1" d="M1011.4,12.71,1013,2h2.87l-1.26,8.31h4.27l-.36,2.36Z" transform="translate(-1.9 -1.9)"/><path class="cls-1" d="M1019.44,12.71,1024.88,2h2.93L1030,12.71h-2.84l-.39-2.07h-3.38l-1,2.07Zm4.9-4.52h2.12l-.52-3.4Z" transform="translate(-1.9 -1.9)"/><path class="cls-1" d="M1038.52,12.85a6.88,6.88,0,0,1-1.64-.19,4.33,4.33,0,0,1-1.42-.61,2.9,2.9,0,0,1-1-1.05,2.81,2.81,0,0,1-.28-1.54h3a1.12,1.12,0,0,0,.22.64,1.19,1.19,0,0,0,.56.41,2.21,2.21,0,0,0,.86.15,4.14,4.14,0,0,0,.87-.09,1.86,1.86,0,0,0,.7-.3.88.88,0,0,0,.35-.59.49.49,0,0,0-.19-.5,1.53,1.53,0,0,0-.63-.27c-.26-.07-.54-.12-.84-.17l-1.61-.28a2.88,2.88,0,0,1-1.88-1,2.72,2.72,0,0,1-.47-2.15,3.35,3.35,0,0,1,.88-1.84,4.8,4.8,0,0,1,1.81-1.17,6.62,6.62,0,0,1,2.32-.4,5,5,0,0,1,2.26.48,3.66,3.66,0,0,1,1.44,1.24,2.78,2.78,0,0,1,.46,1.64h-2.93a1,1,0,0,0-.14-.66,1,1,0,0,0-.51-.37,2.64,2.64,0,0,0-.85-.12,2.77,2.77,0,0,0-.9.13,1.25,1.25,0,0,0-.51.33.9.9,0,0,0-.19.38.7.7,0,0,0,.16.59,1.68,1.68,0,0,0,.88.34l1.61.28a4.6,4.6,0,0,1,1.75.62,2.28,2.28,0,0,1,.83.94,2.81,2.81,0,0,1,.24,1,6.23,6.23,0,0,1,0,.91,2.87,2.87,0,0,1-.86,1.63,5,5,0,0,1-1.85,1.13A7,7,0,0,1,1038.52,12.85Z" transform="translate(-1.9 -1.9)"/><path class="cls-1" d="M1047.13,12.71l1.24-8.14h-3l.39-2.53h9l-.38,2.53h-3.07L1050,12.71Z" transform="translate(-1.9 -1.9)"/><path class="cls-1" d="M1052.36,12.71,1057.79,2h2.94l2.15,10.67H1060l-.39-2.07h-3.38l-1,2.07Zm4.9-4.52h2.11l-.52-3.4Z" transform="translate(-1.9 -1.9)"/><path class="cls-1" d="M1068.25,12.85a4.56,4.56,0,0,1-2.34-.57,3.79,3.79,0,0,1-1.48-1.59,5.09,5.09,0,0,1-.52-2.36,7.54,7.54,0,0,1,.38-2.34,6.52,6.52,0,0,1,1.13-2.07,5.63,5.63,0,0,1,1.89-1.48,6,6,0,0,1,2.62-.54,4.65,4.65,0,0,1,2.16.46,3.21,3.21,0,0,1,1.4,1.33A4.22,4.22,0,0,1,1074,5.8h-3a1.87,1.87,0,0,0-.18-.85,1.24,1.24,0,0,0-.5-.56,1.62,1.62,0,0,0-.83-.19,1.73,1.73,0,0,0-1.17.4,2.9,2.9,0,0,0-.75,1.06,6.35,6.35,0,0,0-.39,1.39,9,9,0,0,0-.12,1.42,2.48,2.48,0,0,0,.4,1.6,1.34,1.34,0,0,0,1.07.48,1.59,1.59,0,0,0,.89-.25,2.4,2.4,0,0,0,.69-.66,3.72,3.72,0,0,0,.44-.92h3a8.7,8.7,0,0,1-.62,1.57,4.93,4.93,0,0,1-1,1.33,4.5,4.5,0,0,1-1.5.91A6.41,6.41,0,0,1,1068.25,12.85Z" transform="translate(-1.9 -1.9)"/><path class="cls-1" d="M1074.64,12.71,1076.27,2h2.89l-1.63,10.67Z" transform="translate(-1.9 -1.9)"/><path class="cls-1" d="M1080.78,12.85c-.31,0-.65,0-1,0a7,7,0,0,1-.89-.1l.38-2.58.46,0,.48,0a1.32,1.32,0,0,0,1.09-.39,2.54,2.54,0,0,0,.43-1.22l1-6.55h2.88l-1.12,7.29a7,7,0,0,1-.55,2,2.52,2.52,0,0,1-1.11,1.17A4.41,4.41,0,0,1,1080.78,12.85Z" transform="translate(-1.9 -1.9)"/><path class="cls-1" d="M1084.44,12.71,1089.88,2h2.93L1095,12.71h-2.84l-.39-2.07h-3.38l-1,2.07Zm4.9-4.52h2.12l-.52-3.4Z" transform="translate(-1.9 -1.9)"/><path class="cls-1" d="M1101.67,9.51a2.11,2.11,0,0,1-1.13-.31,2.3,2.3,0,0,1-.81-.8,2.22,2.22,0,0,1,0-2.23,2.3,2.3,0,0,1,.81-.8,2.28,2.28,0,0,1,2.26,0,2.3,2.3,0,0,1,.81.8,2.16,2.16,0,0,1,0,2.23,2.3,2.3,0,0,1-.81.8A2.11,2.11,0,0,1,1101.67,9.51Z" transform="translate(-1.9 -1.9)"/><path class="cls-1" d="M1112.42,12.85a4.5,4.5,0,0,1-2.56-.68,3.79,3.79,0,0,1-1.47-1.92,5.63,5.63,0,0,1-.19-2.84,6.93,6.93,0,0,1,1.12-2.9,6,6,0,0,1,2.14-1.93,5.82,5.82,0,0,1,2.82-.68,4.57,4.57,0,0,1,2.39.56,3.39,3.39,0,0,1,1.39,1.45,3.16,3.16,0,0,1,.29,1.89h-3a2.13,2.13,0,0,0-.2-.78,1.35,1.35,0,0,0-.48-.55,1.57,1.57,0,0,0-.83-.2,2.22,2.22,0,0,0-1,.28,2.49,2.49,0,0,0-.89,1,5.35,5.35,0,0,0-.57,1.82,5.11,5.11,0,0,0,0,1.59,1.78,1.78,0,0,0,.39.91,1.28,1.28,0,0,0,.64.43,2.17,2.17,0,0,0,.7.11,1.85,1.85,0,0,0,.58-.09,2,2,0,0,0,.49-.23,1.76,1.76,0,0,0,.39-.32,1.56,1.56,0,0,0,.25-.36l.18-.38h-1.86l.3-1.94,4.9,0-.87,5.64h-1.89l.17-1.18c-.2.18-.45.37-.73.58a4,4,0,0,1-1,.53A4.57,4.57,0,0,1,1112.42,12.85Z" transform="translate(-1.9 -1.9)"/><path class="cls-1" d="M1118.78,12.71,1124.22,2h2.93l2.16,10.67h-2.85l-.38-2.07h-3.38l-1,2.07Zm4.9-4.52h2.11l-.52-3.4Z" transform="translate(-1.9 -1.9)"/><path class="cls-1" d="M1130.54,12.71,1132.18,2h2.88l-1.27,8.31h4.28l-.37,2.36Z" transform="translate(-1.9 -1.9)"/><path class="cls-1" d="M1138.58,12.71,1144,2h2.93l2.16,10.67h-2.84l-.39-2.07h-3.38l-1,2.07Zm4.9-4.52h2.11l-.52-3.4Z" transform="translate(-1.9 -1.9)"/><path class="cls-1" d="M1157.66,12.85a6.88,6.88,0,0,1-1.64-.19,4.48,4.48,0,0,1-1.43-.61,3,3,0,0,1-1-1.05,2.81,2.81,0,0,1-.28-1.54h3a1.12,1.12,0,0,0,.22.64,1.19,1.19,0,0,0,.56.41,2.19,2.19,0,0,0,.85.15,4.17,4.17,0,0,0,.88-.09,1.86,1.86,0,0,0,.7-.3.88.88,0,0,0,.35-.59.49.49,0,0,0-.19-.5,1.53,1.53,0,0,0-.63-.27c-.26-.07-.54-.12-.84-.17l-1.61-.28a2.88,2.88,0,0,1-1.88-1,2.72,2.72,0,0,1-.47-2.15,3.35,3.35,0,0,1,.88-1.84A4.8,4.8,0,0,1,1157,2.31a6.6,6.6,0,0,1,2.31-.4,4.9,4.9,0,0,1,2.26.48A3.53,3.53,0,0,1,1163,3.63a2.72,2.72,0,0,1,.47,1.64h-2.93a1,1,0,0,0-.14-.66,1,1,0,0,0-.51-.37,2.64,2.64,0,0,0-.85-.12,2.68,2.68,0,0,0-.9.13,1.25,1.25,0,0,0-.51.33.9.9,0,0,0-.19.38.7.7,0,0,0,.16.59,1.68,1.68,0,0,0,.88.34l1.61.28a4.6,4.6,0,0,1,1.75.62,2.28,2.28,0,0,1,.83.94,2.81,2.81,0,0,1,.24,1,6.23,6.23,0,0,1-.05.91,2.87,2.87,0,0,1-.86,1.63,5,5,0,0,1-1.85,1.13A7,7,0,0,1,1157.66,12.85Z" transform="translate(-1.9 -1.9)"/><path class="cls-1" d="M1166.31,12.71l1.24-8.14h-3l.38-2.53h9l-.38,2.53h-3.07l-1.25,8.14Z" transform="translate(-1.9 -1.9)"/><path class="cls-1" d="M1171.5,12.71,1176.93,2h2.94L1182,12.71h-2.84l-.39-2.07h-3.38l-1,2.07Zm4.9-4.52h2.11l-.52-3.4Z" transform="translate(-1.9 -1.9)"/><path class="cls-1" d="M1187.42,12.85a4.51,4.51,0,0,1-2.34-.57,3.81,3.81,0,0,1-1.49-1.59,5.22,5.22,0,0,1-.52-2.36,7.54,7.54,0,0,1,.38-2.34,6.75,6.75,0,0,1,1.14-2.07,5.5,5.5,0,0,1,1.88-1.48,6.06,6.06,0,0,1,2.63-.54,4.71,4.71,0,0,1,2.16.46,3.27,3.27,0,0,1,1.4,1.33,4.33,4.33,0,0,1,.49,2.11h-3A2.18,2.18,0,0,0,1190,5a1.3,1.3,0,0,0-.5-.56,1.62,1.62,0,0,0-.83-.19,1.71,1.71,0,0,0-1.17.4,2.79,2.79,0,0,0-.75,1.06,5.86,5.86,0,0,0-.4,1.39,9,9,0,0,0-.12,1.42,2.48,2.48,0,0,0,.41,1.6,1.32,1.32,0,0,0,1.07.48,1.64,1.64,0,0,0,.89-.25,2.37,2.37,0,0,0,.68-.66,3.39,3.39,0,0,0,.44-.92h3a8,8,0,0,1-.62,1.57,4.93,4.93,0,0,1-1,1.33,4.3,4.3,0,0,1-1.5.91A6.39,6.39,0,0,1,1187.42,12.85Z" transform="translate(-1.9 -1.9)"/><path class="cls-1" d="M1193.79,12.71,1195.42,2h2.89l-1.62,10.67Z" transform="translate(-1.9 -1.9)"/><path class="cls-1" d="M1199.94,12.85c-.3,0-.64,0-1,0a7.16,7.16,0,0,1-.9-.1l.39-2.58.45,0,.48,0a1.32,1.32,0,0,0,1.09-.39,2.54,2.54,0,0,0,.43-1.22l1-6.55h2.87l-1.12,7.29a7,7,0,0,1-.55,2,2.52,2.52,0,0,1-1.11,1.17A4.41,4.41,0,0,1,1199.94,12.85Z" transform="translate(-1.9 -1.9)"/><path class="cls-1" d="M1203.62,12.71,1209.05,2H1212l2.16,10.67h-2.84l-.39-2.07h-3.38l-1,2.07Zm4.89-4.52h2.12l-.52-3.4Z" transform="translate(-1.9 -1.9)"/><path class="cls-1" d="M1220.82,9.51a2.08,2.08,0,0,1-1.12-.31,2.41,2.41,0,0,1-.82-.8,2.22,2.22,0,0,1,0-2.23,2.41,2.41,0,0,1,.82-.8,2.26,2.26,0,0,1,2.25,0,2.41,2.41,0,0,1,.82.8,2.22,2.22,0,0,1,0,2.23,2.41,2.41,0,0,1-.82.8A2.09,2.09,0,0,1,1220.82,9.51Z" transform="translate(-1.9 -1.9)"/><path class="cls-1" d="M1231.58,12.85a4.5,4.5,0,0,1-2.56-.68,3.73,3.73,0,0,1-1.47-1.92,5.63,5.63,0,0,1-.19-2.84,6.8,6.8,0,0,1,1.12-2.9,6,6,0,0,1,2.14-1.93,5.82,5.82,0,0,1,2.82-.68,4.57,4.57,0,0,1,2.39.56,3.39,3.39,0,0,1,1.39,1.45,3.16,3.16,0,0,1,.29,1.89h-3a2.13,2.13,0,0,0-.2-.78,1.35,1.35,0,0,0-.48-.55,1.59,1.59,0,0,0-.83-.2,2.19,2.19,0,0,0-1,.28,2.42,2.42,0,0,0-.89,1,5.35,5.35,0,0,0-.57,1.82,5.11,5.11,0,0,0,0,1.59,1.78,1.78,0,0,0,.39.91,1.28,1.28,0,0,0,.64.43,2.17,2.17,0,0,0,.7.11,1.85,1.85,0,0,0,.58-.09,2,2,0,0,0,.49-.23,1.76,1.76,0,0,0,.39-.32,1.56,1.56,0,0,0,.25-.36l.18-.38h-1.86l.3-1.94,4.9,0-.87,5.64h-1.89l.17-1.18c-.21.18-.45.37-.73.58a4,4,0,0,1-1,.53A4.57,4.57,0,0,1,1231.58,12.85Z" transform="translate(-1.9 -1.9)"/><path class="cls-1" d="M1237.94,12.71,1243.38,2h2.93l2.16,10.67h-2.84l-.39-2.07h-3.38l-1,2.07Zm4.9-4.52H1245l-.52-3.4Z" transform="translate(-1.9 -1.9)"/><path class="cls-1" d="M1249.72,12.71,1251.36,2h2.88L1253,10.35h4.28l-.37,2.36Z" transform="translate(-1.9 -1.9)"/><path class="cls-1" d="M1257.76,12.71,1263.19,2h2.93l2.16,10.67h-2.84l-.39-2.07h-3.38l-1,2.07Zm4.9-4.52h2.11l-.52-3.4Z" transform="translate(-1.9 -1.9)"/><path class="cls-1" d="M1276.82,12.85a6.94,6.94,0,0,1-1.64-.19,4.33,4.33,0,0,1-1.42-.61,2.87,2.87,0,0,1-1-1.05,2.64,2.64,0,0,1-.28-1.54h3a1.12,1.12,0,0,0,.22.64,1.24,1.24,0,0,0,.56.41,2.21,2.21,0,0,0,.86.15,4.14,4.14,0,0,0,.87-.09,1.79,1.79,0,0,0,.7-.3.88.88,0,0,0,.35-.59.51.51,0,0,0-.18-.5,1.67,1.67,0,0,0-.63-.27c-.27-.07-.55-.12-.85-.17l-1.61-.28a2.9,2.9,0,0,1-1.88-1,2.76,2.76,0,0,1-.47-2.15,3.29,3.29,0,0,1,.89-1.84,4.65,4.65,0,0,1,1.81-1.17,6.52,6.52,0,0,1,2.31-.4,4.93,4.93,0,0,1,2.26.48,3.66,3.66,0,0,1,1.44,1.24,2.78,2.78,0,0,1,.46,1.64h-2.93a1,1,0,0,0-.14-.66.9.9,0,0,0-.51-.37,2.6,2.6,0,0,0-.85-.12,2.77,2.77,0,0,0-.9.13,1.15,1.15,0,0,0-.5.33.8.8,0,0,0-.19.38.66.66,0,0,0,.15.59,1.72,1.72,0,0,0,.88.34l1.62.28a4.49,4.49,0,0,1,1.74.62,2.28,2.28,0,0,1,.83.94,2.46,2.46,0,0,1,.24,1,5.09,5.09,0,0,1,0,.91,2.87,2.87,0,0,1-.86,1.63,4.9,4.9,0,0,1-1.84,1.13A7.05,7.05,0,0,1,1276.82,12.85Z" transform="translate(-1.9 -1.9)"/><path class="cls-1" d="M1285.46,12.71l1.24-8.14h-3l.38-2.53h9l-.38,2.53h-3.07l-1.25,8.14Z" transform="translate(-1.9 -1.9)"/><path class="cls-1" d="M1290.66,12.71,1296.09,2H1299l2.16,10.67h-2.84l-.39-2.07h-3.38l-1,2.07Zm4.9-4.52h2.11l-.52-3.4Z" transform="translate(-1.9 -1.9)"/><path class="cls-1" d="M1306.56,12.85a4.5,4.5,0,0,1-2.33-.57,3.81,3.81,0,0,1-1.49-1.59,5.22,5.22,0,0,1-.52-2.36A7.54,7.54,0,0,1,1302.6,6a6.75,6.75,0,0,1,1.14-2.07,5.5,5.5,0,0,1,1.88-1.48,6.06,6.06,0,0,1,2.63-.54,4.71,4.71,0,0,1,2.16.46,3.27,3.27,0,0,1,1.4,1.33,4.33,4.33,0,0,1,.49,2.11h-3a2.18,2.18,0,0,0-.18-.85,1.3,1.3,0,0,0-.5-.56,1.62,1.62,0,0,0-.83-.19,1.71,1.71,0,0,0-1.17.4,2.68,2.68,0,0,0-.75,1.06,5.86,5.86,0,0,0-.4,1.39,9,9,0,0,0-.12,1.42,2.48,2.48,0,0,0,.41,1.6,1.32,1.32,0,0,0,1.07.48,1.64,1.64,0,0,0,.89-.25,2.37,2.37,0,0,0,.68-.66,3.39,3.39,0,0,0,.44-.92h3a8,8,0,0,1-.62,1.57,4.93,4.93,0,0,1-1,1.33,4.3,4.3,0,0,1-1.5.91A6.41,6.41,0,0,1,1306.56,12.85Z" transform="translate(-1.9 -1.9)"/><path class="cls-1" d="M1313,12.71,1314.58,2h2.89l-1.63,10.67Z" transform="translate(-1.9 -1.9)"/><path class="cls-1" d="M1319.12,12.85c-.3,0-.64,0-1,0a7.16,7.16,0,0,1-.9-.1l.39-2.58.45,0,.48,0a1.32,1.32,0,0,0,1.09-.39,2.54,2.54,0,0,0,.43-1.22l1-6.55h2.87l-1.12,7.29a7,7,0,0,1-.55,2,2.52,2.52,0,0,1-1.11,1.17A4.41,4.41,0,0,1,1319.12,12.85Z" transform="translate(-1.9 -1.9)"/><path class="cls-1" d="M1322.76,12.71,1328.2,2h2.93l2.16,10.67h-2.84l-.39-2.07h-3.38l-1,2.07Zm4.9-4.52h2.12l-.52-3.4Z" transform="translate(-1.9 -1.9)"/><path class="cls-1" d="M1340,9.51a2.09,2.09,0,0,1-1.13-.31,2.3,2.3,0,0,1-.81-.8,2.22,2.22,0,0,1,0-2.23,2.3,2.3,0,0,1,.81-.8,2.26,2.26,0,0,1,2.25,0,2.33,2.33,0,0,1,.82.8,2.22,2.22,0,0,1,0,2.23,2.33,2.33,0,0,1-.82.8A2.08,2.08,0,0,1,1340,9.51Z" transform="translate(-1.9 -1.9)"/></g></g></g></svg>