<svg xmlns="http://www.w3.org/2000/svg" viewBox="0 0 2170.52 1229.39"><defs><style>.cls-1{opacity:0.6;}.cls-2{fill:#fff;}</style></defs><g id="Layer_2" data-name="Layer 2"><g id="Accordion_menu_expanded" data-name="Accordion menu expanded"><g id="Layer_9_copy_2" data-name="Layer 9 copy 2"><g class="cls-1"><path class="cls-2" d="M12.75,1231.29l-10.7-1.65v-7.89l2.38.37v5l1.78.27v-4.17l2.32.35v4.19l1.82.29v-5l2.4.37Z" transform="translate(-1.9 -1.9)"/><path class="cls-2" d="M12.75,1221.56l-10.7-1.65V1217l6-3.27-6-.9v-2.9l10.7,1.65v2.6l-6.38,3.5,6.38,1Z" transform="translate(-1.9 -1.9)"/><path class="cls-2" d="M12.75,1209.47l-10.7-1.57v-1.43c0-.74,0-1.47.06-2.18a11.13,11.13,0,0,1,.26-2,4.91,4.91,0,0,1,.68-1.62,3.18,3.18,0,0,1,1.28-1.09,4.87,4.87,0,0,1,2.09-.39,7.46,7.46,0,0,1,1.16.1,7.67,7.67,0,0,1,1.37.35,6.41,6.41,0,0,1,1.38.7,5.38,5.38,0,0,1,1.23,1.16,5.49,5.49,0,0,1,.86,1.71,7.49,7.49,0,0,1,.33,2.35Zm-2.26-3.24v-1a2.37,2.37,0,0,0-.33-1.21,3.49,3.49,0,0,0-.9-1,4.62,4.62,0,0,0-1.29-.66,4.91,4.91,0,0,0-1.54-.24,2.54,2.54,0,0,0-1.17.24,1.66,1.66,0,0,0-.71.7,2.27,2.27,0,0,0-.24,1.08v1.1Z" transform="translate(-1.9 -1.9)"/><path class="cls-2" d="M12.9,1191.05a7,7,0,0,1-.2,1.64,4.48,4.48,0,0,1-.61,1.43,2.9,2.9,0,0,1-1.06,1,2.81,2.81,0,0,1-1.54.28v-3a1.15,1.15,0,0,0,.65-.22,1.32,1.32,0,0,0,.41-.56,2.42,2.42,0,0,0,.14-.86,4.14,4.14,0,0,0-.09-.87,1.65,1.65,0,0,0-.3-.7.86.86,0,0,0-.58-.35.52.52,0,0,0-.51.18,1.67,1.67,0,0,0-.27.63c-.06.27-.12.55-.17.84l-.28,1.62a2.93,2.93,0,0,1-1,1.88,2.72,2.72,0,0,1-2.15.47,3.38,3.38,0,0,1-1.85-.88,4.76,4.76,0,0,1-1.17-1.82,6.52,6.52,0,0,1-.4-2.31,5.06,5.06,0,0,1,.47-2.26,3.62,3.62,0,0,1,1.25-1.44,2.72,2.72,0,0,1,1.65-.46v2.92a1.13,1.13,0,0,0-.67.15,1,1,0,0,0-.37.51,2.62,2.62,0,0,0-.11.85,2.52,2.52,0,0,0,.13.9,1.06,1.06,0,0,0,.32.5.79.79,0,0,0,.39.19.64.64,0,0,0,.58-.15,1.63,1.63,0,0,0,.35-.88l.28-1.62a4.49,4.49,0,0,1,.62-1.74,2.38,2.38,0,0,1,.94-.84,2.69,2.69,0,0,1,1.05-.23,5.26,5.26,0,0,1,.92,0,2.88,2.88,0,0,1,1.63.85,5,5,0,0,1,1.13,1.85A7.05,7.05,0,0,1,12.9,1191.05Z" transform="translate(-1.9 -1.9)"/><path class="cls-2" d="M12.75,1182.41l-8.17-1.24v3l-2.53-.39v-9l2.53.38v3.07l8.17,1.25Z" transform="translate(-1.9 -1.9)"/><path class="cls-2" d="M12.75,1177.2l-10.7-5.44v-2.93l10.7-2.17v2.85l-2.07.39v3.38l2.07,1Zm-4.53-4.9v-2.12l-3.42.52Z" transform="translate(-1.9 -1.9)"/><path class="cls-2" d="M12.75,1163.86l-8.17-1.24v3l-2.53-.39v-9l2.53.38v3.07l8.17,1.26Z" transform="translate(-1.9 -1.9)"/><path class="cls-2" d="M12.75,1156.59,2.05,1155v-2.89l10.7,1.63Z" transform="translate(-1.9 -1.9)"/><path class="cls-2" d="M12.9,1146.8a4.89,4.89,0,0,1-.68,2.66,3.7,3.7,0,0,1-1.9,1.51,5.83,5.83,0,0,1-2.9.2,7.18,7.18,0,0,1-2.91-1.1,5.84,5.84,0,0,1-2.61-5,4.68,4.68,0,0,1,.69-2.61A3.74,3.74,0,0,1,4.51,1141a5.88,5.88,0,0,1,2.91-.2,7,7,0,0,1,2.89,1.08,5.79,5.79,0,0,1,1.91,2.09A6,6,0,0,1,12.9,1146.8Zm-2.31-.34a2.09,2.09,0,0,0-.3-1.1,2.5,2.5,0,0,0-1-.88,5.52,5.52,0,0,0-1.84-.54,5.4,5.4,0,0,0-1.91,0,1.77,1.77,0,0,0-1,.57,1.62,1.62,0,0,0-.32,1,2.13,2.13,0,0,0,.73,1.59,4.81,4.81,0,0,0,2.53,1,5.37,5.37,0,0,0,1.84,0,1.63,1.63,0,0,0,1-.59A1.65,1.65,0,0,0,10.59,1146.46Z" transform="translate(-1.9 -1.9)"/><path class="cls-2" d="M12.75,1139.89l-10.7-1.64v-2.91l6-3.26-6-.9v-2.9l10.7,1.65v2.6L6.37,1136l6.38,1Z" transform="translate(-1.9 -1.9)"/><path class="cls-2" d="M9.54,1122.34a2.16,2.16,0,0,1-.3,1.12,2.47,2.47,0,0,1-.82.82,2.22,2.22,0,0,1-2.23,0,2.41,2.41,0,0,1-.8-.82,2.2,2.2,0,0,1,0-2.25,2.33,2.33,0,0,1,.8-.82,2.22,2.22,0,0,1,2.23,0,2.38,2.38,0,0,1,.82.82A2.17,2.17,0,0,1,9.54,1122.34Z" transform="translate(-1.9 -1.9)"/><path class="cls-2" d="M12.75,1116.17l-10.7-1.65v-7.89l2.38.37v5l1.78.27v-4.17l2.32.35v4.19l1.82.28v-5l2.4.37Z" transform="translate(-1.9 -1.9)"/><path class="cls-2" d="M12.75,1106.45l-10.7-1.64v-2.91l6-3.26-6-.91v-2.89l10.7,1.64v2.6l-6.38,3.51,6.38,1Z" transform="translate(-1.9 -1.9)"/><path class="cls-2" d="M12.75,1094.35l-10.7-1.57v-1.43c0-.75,0-1.47.06-2.18a11,11,0,0,1,.26-2,4.91,4.91,0,0,1,.68-1.62,3.11,3.11,0,0,1,1.28-1.09,4.87,4.87,0,0,1,2.09-.39,7.46,7.46,0,0,1,1.16.1,7.67,7.67,0,0,1,1.37.35,6,6,0,0,1,1.38.7,5.38,5.38,0,0,1,1.23,1.16,5.54,5.54,0,0,1,.86,1.7,7.55,7.55,0,0,1,.33,2.36Zm-2.26-3.24v-1a2.34,2.34,0,0,0-.33-1.21,3.25,3.25,0,0,0-.9-1,4.62,4.62,0,0,0-1.29-.66,4.91,4.91,0,0,0-1.54-.24,2.54,2.54,0,0,0-1.17.24,1.6,1.6,0,0,0-.71.7,2.27,2.27,0,0,0-.24,1.08v1.1Z" transform="translate(-1.9 -1.9)"/><path class="cls-2" d="M12.9,1075.93a7,7,0,0,1-.2,1.64,4.48,4.48,0,0,1-.61,1.43,2.9,2.9,0,0,1-1.06,1,2.81,2.81,0,0,1-1.54.28v-3a1.15,1.15,0,0,0,.65-.22,1.32,1.32,0,0,0,.41-.56,2.42,2.42,0,0,0,.14-.86,4.14,4.14,0,0,0-.09-.87,1.65,1.65,0,0,0-.3-.7.86.86,0,0,0-.58-.35.52.52,0,0,0-.51.18,1.67,1.67,0,0,0-.27.63c-.06.27-.12.55-.17.84L8.49,1077a2.93,2.93,0,0,1-1,1.88,2.72,2.72,0,0,1-2.15.47,3.38,3.38,0,0,1-1.85-.88,4.76,4.76,0,0,1-1.17-1.82,6.52,6.52,0,0,1-.4-2.31,5.06,5.06,0,0,1,.47-2.26,3.62,3.62,0,0,1,1.25-1.44,2.72,2.72,0,0,1,1.65-.46v2.92a1.13,1.13,0,0,0-.67.15,1,1,0,0,0-.37.51,2.62,2.62,0,0,0-.11.85,2.52,2.52,0,0,0,.13.9,1.06,1.06,0,0,0,.32.5.79.79,0,0,0,.39.19.64.64,0,0,0,.58-.15,1.63,1.63,0,0,0,.35-.88l.28-1.62a4.49,4.49,0,0,1,.62-1.74,2.38,2.38,0,0,1,.94-.84,2.69,2.69,0,0,1,1.05-.23,5.26,5.26,0,0,1,.92,0,2.88,2.88,0,0,1,1.63.85,5,5,0,0,1,1.13,1.85A7.05,7.05,0,0,1,12.9,1075.93Z" transform="translate(-1.9 -1.9)"/><path class="cls-2" d="M12.75,1067.31l-8.17-1.24v3l-2.53-.39v-9l2.53.39v3.07l8.17,1.25Z" transform="translate(-1.9 -1.9)"/><path class="cls-2" d="M12.75,1062.09l-10.7-5.44v-2.94l10.7-2.16v2.85l-2.07.38v3.39l2.07,1Zm-4.53-4.91v-2.11l-3.42.52Z" transform="translate(-1.9 -1.9)"/><path class="cls-2" d="M12.75,1048.75l-8.17-1.24v3l-2.53-.39v-9l2.53.39v3.07l8.17,1.25Z" transform="translate(-1.9 -1.9)"/><path class="cls-2" d="M12.75,1041.46l-10.7-1.63v-2.89l10.7,1.62Z" transform="translate(-1.9 -1.9)"/><path class="cls-2" d="M12.9,1031.7a4.89,4.89,0,0,1-.68,2.66,3.7,3.7,0,0,1-1.9,1.51,5.84,5.84,0,0,1-2.9.19,7,7,0,0,1-2.91-1.1A5.84,5.84,0,0,1,1.9,1030a4.71,4.71,0,0,1,.69-2.62,3.72,3.72,0,0,1,1.92-1.51,5.76,5.76,0,0,1,2.91-.21,7,7,0,0,1,2.89,1.08,5.74,5.74,0,0,1,1.91,2.1A5.93,5.93,0,0,1,12.9,1031.7Zm-2.31-.35a2.14,2.14,0,0,0-.3-1.1,2.5,2.5,0,0,0-1-.88,6,6,0,0,0-1.84-.54,5.36,5.36,0,0,0-1.91,0,1.67,1.67,0,0,0-1,.57,1.6,1.6,0,0,0-.32,1,2.11,2.11,0,0,0,.73,1.58,4.73,4.73,0,0,0,2.53,1,4.91,4.91,0,0,0,1.84,0,1.62,1.62,0,0,0,1-.58A1.7,1.7,0,0,0,10.59,1031.35Z" transform="translate(-1.9 -1.9)"/><path class="cls-2" d="M12.75,1024.8l-10.7-1.65v-2.9L8,1017l-6-.9v-2.9l10.7,1.65v2.6l-6.38,3.5,6.38,1Z" transform="translate(-1.9 -1.9)"/><path class="cls-2" d="M9.54,1007.2a2.2,2.2,0,0,1-.3,1.13,2.35,2.35,0,0,1-.82.81,2.22,2.22,0,0,1-2.23,0,2.3,2.3,0,0,1-.8-.81,2.21,2.21,0,0,1,0-2.26,2.41,2.41,0,0,1,.8-.82,2.22,2.22,0,0,1,2.23,0,2.47,2.47,0,0,1,.82.82A2.2,2.2,0,0,1,9.54,1007.2Z" transform="translate(-1.9 -1.9)"/><path class="cls-2" d="M12.75,1001.05l-10.7-1.64v-7.9l2.38.37v5l1.78.27V993l2.32.35v4.19l1.82.28v-5l2.4.37Z" transform="translate(-1.9 -1.9)"/><path class="cls-2" d="M12.75,991.35l-10.7-1.64V986.8l6-3.26-6-.9v-2.9l10.7,1.64V984l-6.38,3.5,6.38,1Z" transform="translate(-1.9 -1.9)"/><path class="cls-2" d="M12.75,979.23l-10.7-1.57v-1.43c0-.75,0-1.47.06-2.18a10.9,10.9,0,0,1,.26-2,4.91,4.91,0,0,1,.68-1.62,3.11,3.11,0,0,1,1.28-1.09A4.87,4.87,0,0,1,6.42,969a7.46,7.46,0,0,1,1.16.1,6.9,6.9,0,0,1,1.37.35,6,6,0,0,1,1.38.7,5.17,5.17,0,0,1,1.23,1.16,5.54,5.54,0,0,1,.86,1.7,7.55,7.55,0,0,1,.33,2.36ZM10.49,976v-1a2.34,2.34,0,0,0-.33-1.21,3.25,3.25,0,0,0-.9-1A4.62,4.62,0,0,0,8,972.17a4.91,4.91,0,0,0-1.54-.24,2.54,2.54,0,0,0-1.17.24,1.58,1.58,0,0,0-.71.69A2.31,2.31,0,0,0,4.31,974v1.1Z" transform="translate(-1.9 -1.9)"/><path class="cls-2" d="M12.9,960.82a6.88,6.88,0,0,1-.2,1.64,4.48,4.48,0,0,1-.61,1.43,2.9,2.9,0,0,1-1.06,1,2.81,2.81,0,0,1-1.54.28v-3a1.15,1.15,0,0,0,.65-.22,1.26,1.26,0,0,0,.41-.56,2.42,2.42,0,0,0,.14-.86,4.14,4.14,0,0,0-.09-.87,1.71,1.71,0,0,0-.3-.7.86.86,0,0,0-.58-.35.5.5,0,0,0-.51.19,1.55,1.55,0,0,0-.27.62c-.06.27-.12.55-.17.85l-.28,1.61a2.91,2.91,0,0,1-1,1.88,2.72,2.72,0,0,1-2.15.47,3.31,3.31,0,0,1-1.85-.88,4.8,4.8,0,0,1-1.17-1.81,6.62,6.62,0,0,1-.4-2.32,5.06,5.06,0,0,1,.47-2.26,3.62,3.62,0,0,1,1.25-1.44A2.72,2.72,0,0,1,5.29,955V958a1.06,1.06,0,0,0-.67.14,1,1,0,0,0-.37.51,2.62,2.62,0,0,0-.11.85,2.52,2.52,0,0,0,.13.9,1.15,1.15,0,0,0,.32.51.88.88,0,0,0,.39.19.67.67,0,0,0,.58-.16,1.59,1.59,0,0,0,.35-.88l.28-1.62a4.49,4.49,0,0,1,.62-1.74,2.28,2.28,0,0,1,.94-.83,2.54,2.54,0,0,1,1.05-.24,5.26,5.26,0,0,1,.92,0,2.84,2.84,0,0,1,1.63.86,4.9,4.9,0,0,1,1.13,1.84A7.05,7.05,0,0,1,12.9,960.82Z" transform="translate(-1.9 -1.9)"/><path class="cls-2" d="M12.75,952.19,4.58,951v3l-2.53-.39v-9l2.53.38v3.07l8.17,1.26Z" transform="translate(-1.9 -1.9)"/><path class="cls-2" d="M12.75,947l-10.7-5.44V938.6l10.7-2.16v2.84l-2.07.39v3.38l2.07,1.05Zm-4.53-4.9V940l-3.42.53Z" transform="translate(-1.9 -1.9)"/><path class="cls-2" d="M12.75,933.63,4.58,932.4v3L2.05,935v-9l2.53.39v3.07l8.17,1.25Z" transform="translate(-1.9 -1.9)"/><path class="cls-2" d="M12.75,926.34l-10.7-1.63v-2.89l10.7,1.62Z" transform="translate(-1.9 -1.9)"/><path class="cls-2" d="M12.9,916.58a4.85,4.85,0,0,1-.68,2.65,3.67,3.67,0,0,1-1.9,1.52,5.84,5.84,0,0,1-2.9.19,7,7,0,0,1-2.91-1.1A5.84,5.84,0,0,1,1.9,914.9a4.71,4.71,0,0,1,.69-2.62,3.72,3.72,0,0,1,1.92-1.51,5.76,5.76,0,0,1,2.91-.21,7,7,0,0,1,2.89,1.08,5.74,5.74,0,0,1,1.91,2.1A5.93,5.93,0,0,1,12.9,916.58Zm-2.31-.35a2.14,2.14,0,0,0-.3-1.1,2.5,2.5,0,0,0-1-.88,6,6,0,0,0-1.84-.54,5.36,5.36,0,0,0-1.91,0,1.67,1.67,0,0,0-1,.57,1.6,1.6,0,0,0-.32,1,2.11,2.11,0,0,0,.73,1.58,4.73,4.73,0,0,0,2.53,1,4.91,4.91,0,0,0,1.84,0,1.62,1.62,0,0,0,1-.58A1.7,1.7,0,0,0,10.59,916.23Z" transform="translate(-1.9 -1.9)"/><path class="cls-2" d="M12.75,909.66,2.05,908v-2.9l6-3.27-6-.9V898l10.7,1.65v2.6l-6.38,3.5,6.38,1Z" transform="translate(-1.9 -1.9)"/><path class="cls-2" d="M9.54,892.11a2.16,2.16,0,0,1-.3,1.12,2.3,2.3,0,0,1-.82.82,2.22,2.22,0,0,1-2.23,0,2.25,2.25,0,0,1-.8-.82,2.2,2.2,0,0,1,0-2.25,2.41,2.41,0,0,1,.8-.82,2.22,2.22,0,0,1,2.23,0,2.47,2.47,0,0,1,.82.82A2.17,2.17,0,0,1,9.54,892.11Z" transform="translate(-1.9 -1.9)"/><path class="cls-2" d="M12.75,885.93l-10.7-1.65v-7.89l2.38.37v5l1.78.27v-4.17l2.32.35v4.19l1.82.28v-5l2.4.37Z" transform="translate(-1.9 -1.9)"/><path class="cls-2" d="M12.75,876.22l-10.7-1.65v-2.9l6-3.27-6-.9v-2.9l10.7,1.65v2.6l-6.38,3.5,6.38,1Z" transform="translate(-1.9 -1.9)"/><path class="cls-2" d="M12.75,864.13l-10.7-1.57v-1.43q0-1.12.06-2.19a10.9,10.9,0,0,1,.26-2,4.74,4.74,0,0,1,.68-1.62,3.13,3.13,0,0,1,1.28-1.1,4.87,4.87,0,0,1,2.09-.39,8.94,8.94,0,0,1,1.16.1A8.63,8.63,0,0,1,9,854.3a6.46,6.46,0,0,1,1.38.71,5.17,5.17,0,0,1,1.23,1.16,5.43,5.43,0,0,1,.86,1.7,7.49,7.49,0,0,1,.33,2.35Zm-2.26-3.24v-1a2.38,2.38,0,0,0-.33-1.22,3.33,3.33,0,0,0-.9-1A4.39,4.39,0,0,0,8,857.06a5.22,5.22,0,0,0-1.54-.23,2.54,2.54,0,0,0-1.17.24,1.58,1.58,0,0,0-.71.69,2.27,2.27,0,0,0-.24,1.08V860Z" transform="translate(-1.9 -1.9)"/><path class="cls-2" d="M12.9,845.7a6.88,6.88,0,0,1-.2,1.64,4.39,4.39,0,0,1-.61,1.43A2.71,2.71,0,0,1,9.49,850v-3a1.08,1.08,0,0,0,.65-.22,1.26,1.26,0,0,0,.41-.56,2.4,2.4,0,0,0,.14-.85,4.17,4.17,0,0,0-.09-.88,1.71,1.71,0,0,0-.3-.7.86.86,0,0,0-.58-.35.5.5,0,0,0-.51.19,1.53,1.53,0,0,0-.27.63c-.06.26-.12.54-.17.84l-.28,1.61a3,3,0,0,1-1,1.89,2.72,2.72,0,0,1-2.15.46,3.31,3.31,0,0,1-1.85-.88,4.8,4.8,0,0,1-1.17-1.81,6.58,6.58,0,0,1-.4-2.32,5.09,5.09,0,0,1,.47-2.26,3.62,3.62,0,0,1,1.25-1.44,2.72,2.72,0,0,1,1.65-.46v2.93a1.06,1.06,0,0,0-.67.14,1,1,0,0,0-.37.51,2.62,2.62,0,0,0-.11.85,2.48,2.48,0,0,0,.13.9,1.15,1.15,0,0,0,.32.51.88.88,0,0,0,.39.19.67.67,0,0,0,.58-.16,1.59,1.59,0,0,0,.35-.88l.28-1.62a4.49,4.49,0,0,1,.62-1.74,2.28,2.28,0,0,1,.94-.83,2.54,2.54,0,0,1,1.05-.24,5.26,5.26,0,0,1,.92,0,2.9,2.9,0,0,1,1.63.86,5,5,0,0,1,1.13,1.85A7,7,0,0,1,12.9,845.7Z" transform="translate(-1.9 -1.9)"/><path class="cls-2" d="M12.75,837.06l-8.17-1.23v3l-2.53-.39v-9l2.53.39v3.07l8.17,1.25Z" transform="translate(-1.9 -1.9)"/><path class="cls-2" d="M12.75,831.84,2.05,826.4v-2.93l10.7-2.16v2.84l-2.07.39v3.38l2.07,1Zm-4.53-4.9v-2.12l-3.42.52Z" transform="translate(-1.9 -1.9)"/><path class="cls-2" d="M12.75,818.51l-8.17-1.24v3l-2.53-.39v-9l2.53.38v3.07l8.17,1.26Z" transform="translate(-1.9 -1.9)"/><path class="cls-2" d="M12.75,811.24l-10.7-1.63v-2.89l10.7,1.62Z" transform="translate(-1.9 -1.9)"/><path class="cls-2" d="M12.9,801.44a4.89,4.89,0,0,1-.68,2.66,3.7,3.7,0,0,1-1.9,1.51,6,6,0,0,1-2.9.2,7.18,7.18,0,0,1-2.91-1.1,5.87,5.87,0,0,1-2.61-5,4.68,4.68,0,0,1,.69-2.61,3.74,3.74,0,0,1,1.92-1.52,5.88,5.88,0,0,1,2.91-.2,7,7,0,0,1,2.89,1.08,5.79,5.79,0,0,1,1.91,2.09A6,6,0,0,1,12.9,801.44Zm-2.31-.34a2.15,2.15,0,0,0-.3-1.11,2.49,2.49,0,0,0-1-.87,5.52,5.52,0,0,0-1.84-.54,5.4,5.4,0,0,0-1.91,0,1.77,1.77,0,0,0-1,.57,1.62,1.62,0,0,0-.32,1,2.15,2.15,0,0,0,.73,1.59,4.81,4.81,0,0,0,2.53,1,5.09,5.09,0,0,0,1.84,0,1.62,1.62,0,0,0,1-.58A1.67,1.67,0,0,0,10.59,801.1Z" transform="translate(-1.9 -1.9)"/><path class="cls-2" d="M12.75,794.56l-10.7-1.65V790l6-3.26-6-.9v-2.9l10.7,1.65v2.6l-6.38,3.5,6.38,1Z" transform="translate(-1.9 -1.9)"/><path class="cls-2" d="M9.54,777a2.2,2.2,0,0,1-.3,1.13,2.35,2.35,0,0,1-.82.81,2.22,2.22,0,0,1-2.23,0,2.3,2.3,0,0,1-.8-.81,2.21,2.21,0,0,1,0-2.26,2.41,2.41,0,0,1,.8-.82,2.22,2.22,0,0,1,2.23,0,2.47,2.47,0,0,1,.82.82A2.2,2.2,0,0,1,9.54,777Z" transform="translate(-1.9 -1.9)"/><path class="cls-2" d="M12.75,770.81l-10.7-1.65v-7.89l2.38.37v5l1.78.27v-4.17l2.32.35v4.19l1.82.29v-5l2.4.37Z" transform="translate(-1.9 -1.9)"/><path class="cls-2" d="M12.75,761.09l-10.7-1.65v-2.9l6-3.27-6-.9v-2.9l10.7,1.65v2.6l-6.38,3.5,6.38,1Z" transform="translate(-1.9 -1.9)"/><path class="cls-2" d="M12.75,749l-10.7-1.58V746c0-.74,0-1.47.06-2.18a10.9,10.9,0,0,1,.26-2,4.88,4.88,0,0,1,.68-1.63,3.18,3.18,0,0,1,1.28-1.09,4.87,4.87,0,0,1,2.09-.39,8.94,8.94,0,0,1,1.16.1,8.63,8.63,0,0,1,1.37.35,6,6,0,0,1,1.38.71,5.17,5.17,0,0,1,1.23,1.16,5.32,5.32,0,0,1,.86,1.7,7.49,7.49,0,0,1,.33,2.35Zm-2.26-3.24v-1a2.37,2.37,0,0,0-.33-1.21,3.33,3.33,0,0,0-.9-1A4.39,4.39,0,0,0,8,741.94a4.91,4.91,0,0,0-1.54-.24,2.53,2.53,0,0,0-1.17.25,1.58,1.58,0,0,0-.71.69,2.27,2.27,0,0,0-.24,1.08v1.11Z" transform="translate(-1.9 -1.9)"/><path class="cls-2" d="M12.9,730.59a6.88,6.88,0,0,1-.2,1.64,4.48,4.48,0,0,1-.61,1.43,2.9,2.9,0,0,1-1.06,1,2.81,2.81,0,0,1-1.54.28v-3a1.15,1.15,0,0,0,.65-.22,1.26,1.26,0,0,0,.41-.56,2.42,2.42,0,0,0,.14-.86,4.14,4.14,0,0,0-.09-.87,1.65,1.65,0,0,0-.3-.7.86.86,0,0,0-.58-.35.52.52,0,0,0-.51.18,1.67,1.67,0,0,0-.27.63c-.06.27-.12.55-.17.85l-.28,1.61a2.93,2.93,0,0,1-1,1.88,2.72,2.72,0,0,1-2.15.47,3.31,3.31,0,0,1-1.85-.88,4.8,4.8,0,0,1-1.17-1.81,6.62,6.62,0,0,1-.4-2.32,5.06,5.06,0,0,1,.47-2.26,3.62,3.62,0,0,1,1.25-1.44,2.72,2.72,0,0,1,1.65-.46v2.93a1.06,1.06,0,0,0-.67.14,1,1,0,0,0-.37.51,2.62,2.62,0,0,0-.11.85,2.52,2.52,0,0,0,.13.9,1.15,1.15,0,0,0,.32.51.88.88,0,0,0,.39.19.67.67,0,0,0,.58-.16,1.59,1.59,0,0,0,.35-.88l.28-1.62a4.49,4.49,0,0,1,.62-1.74,2.38,2.38,0,0,1,.94-.84,2.69,2.69,0,0,1,1.05-.23,5.26,5.26,0,0,1,.92,0,2.84,2.84,0,0,1,1.63.86,4.9,4.9,0,0,1,1.13,1.84A7.05,7.05,0,0,1,12.9,730.59Z" transform="translate(-1.9 -1.9)"/><path class="cls-2" d="M12.75,722l-8.17-1.24v3l-2.53-.38v-9l2.53.39v3.07l8.17,1.25Z" transform="translate(-1.9 -1.9)"/><path class="cls-2" d="M12.75,716.73l-10.7-5.44v-2.94l10.7-2.16V709l-2.07.39v3.38l2.07,1Zm-4.53-4.91v-2.11l-3.42.52Z" transform="translate(-1.9 -1.9)"/><path class="cls-2" d="M12.75,703.41l-8.17-1.24v3l-2.53-.38v-9l2.53.39v3.07l8.17,1.25Z" transform="translate(-1.9 -1.9)"/><path class="cls-2" d="M12.75,696.09l-10.7-1.63v-2.89l10.7,1.62Z" transform="translate(-1.9 -1.9)"/><path class="cls-2" d="M12.9,686.32a4.89,4.89,0,0,1-.68,2.66,3.7,3.7,0,0,1-1.9,1.51,5.84,5.84,0,0,1-2.9.19,7.17,7.17,0,0,1-2.91-1.09,5.87,5.87,0,0,1-2.61-5A4.65,4.65,0,0,1,2.59,682a3.74,3.74,0,0,1,1.92-1.52,5.88,5.88,0,0,1,2.91-.2,7,7,0,0,1,2.89,1.08,5.79,5.79,0,0,1,1.91,2.09A5.93,5.93,0,0,1,12.9,686.32ZM10.59,686a2.15,2.15,0,0,0-.3-1.11,2.49,2.49,0,0,0-1-.87,5.52,5.52,0,0,0-1.84-.54,5.4,5.4,0,0,0-1.91,0,1.67,1.67,0,0,0-1,.57,1.62,1.62,0,0,0-.32,1,2.15,2.15,0,0,0,.73,1.59,4.81,4.81,0,0,0,2.53,1,5.09,5.09,0,0,0,1.84,0,1.62,1.62,0,0,0,1-.58A1.67,1.67,0,0,0,10.59,686Z" transform="translate(-1.9 -1.9)"/><path class="cls-2" d="M12.75,679.44l-10.7-1.65v-2.9l6-3.27-6-.9v-2.9l10.7,1.65v2.6l-6.38,3.5,6.38,1Z" transform="translate(-1.9 -1.9)"/><path class="cls-2" d="M9.54,661.86a2.2,2.2,0,0,1-.3,1.13,2.35,2.35,0,0,1-.82.81,2.22,2.22,0,0,1-2.23,0,2.3,2.3,0,0,1-.8-.81,2.11,2.11,0,0,1-.31-1.13,2.09,2.09,0,0,1,.31-1.13,2.41,2.41,0,0,1,.8-.82,2.22,2.22,0,0,1,2.23,0,2.47,2.47,0,0,1,.82.82A2.17,2.17,0,0,1,9.54,661.86Z" transform="translate(-1.9 -1.9)"/><path class="cls-2" d="M12.75,655.7l-10.7-1.65v-7.9l2.38.38v5l1.78.27v-4.17l2.32.35v4.19l1.82.28v-5l2.4.37Z" transform="translate(-1.9 -1.9)"/><path class="cls-2" d="M12.75,646l-10.7-1.64v-2.91l6-3.26-6-.9v-2.9L12.75,636v2.6l-6.38,3.51,6.38,1Z" transform="translate(-1.9 -1.9)"/><path class="cls-2" d="M12.75,633.87,2.05,632.3v-1.43c0-.75,0-1.47.06-2.19a10.9,10.9,0,0,1,.26-2,4.91,4.91,0,0,1,.68-1.62A3.11,3.11,0,0,1,4.33,624a4.87,4.87,0,0,1,2.09-.39,7.46,7.46,0,0,1,1.16.1,6.9,6.9,0,0,1,1.37.35,6,6,0,0,1,1.38.7,5.17,5.17,0,0,1,1.23,1.16,5.54,5.54,0,0,1,.86,1.7,7.55,7.55,0,0,1,.33,2.36Zm-2.26-3.24v-1a2.34,2.34,0,0,0-.33-1.21,3.25,3.25,0,0,0-.9-1A4.62,4.62,0,0,0,8,626.81a4.91,4.91,0,0,0-1.54-.24,2.54,2.54,0,0,0-1.17.24,1.58,1.58,0,0,0-.71.69,2.31,2.31,0,0,0-.24,1.09v1.1Z" transform="translate(-1.9 -1.9)"/><path class="cls-2" d="M12.9,615.46a6.88,6.88,0,0,1-.2,1.64,4.39,4.39,0,0,1-.61,1.43,2.71,2.71,0,0,1-2.6,1.25v-3a1.08,1.08,0,0,0,.65-.22,1.26,1.26,0,0,0,.41-.56,2.4,2.4,0,0,0,.14-.85,4.17,4.17,0,0,0-.09-.88,1.71,1.71,0,0,0-.3-.7.86.86,0,0,0-.58-.35.5.5,0,0,0-.51.19,1.53,1.53,0,0,0-.27.63c-.06.26-.12.54-.17.84l-.28,1.61a3,3,0,0,1-1,1.89,2.72,2.72,0,0,1-2.15.46A3.31,3.31,0,0,1,3.49,618a4.8,4.8,0,0,1-1.17-1.81,6.62,6.62,0,0,1-.4-2.32,5.09,5.09,0,0,1,.47-2.26,3.62,3.62,0,0,1,1.25-1.44,2.72,2.72,0,0,1,1.65-.46v2.93a1.06,1.06,0,0,0-.67.14,1,1,0,0,0-.37.51,2.62,2.62,0,0,0-.11.85,2.48,2.48,0,0,0,.13.9,1.15,1.15,0,0,0,.32.51.88.88,0,0,0,.39.19.67.67,0,0,0,.58-.16,1.59,1.59,0,0,0,.35-.88L6.19,613a4.49,4.49,0,0,1,.62-1.74,2.28,2.28,0,0,1,.94-.83,2.54,2.54,0,0,1,1.05-.24,5.26,5.26,0,0,1,.92,0,2.9,2.9,0,0,1,1.63.86A4.9,4.9,0,0,1,12.48,613,7.05,7.05,0,0,1,12.9,615.46Z" transform="translate(-1.9 -1.9)"/><path class="cls-2" d="M12.75,606.82l-8.17-1.23v3l-2.53-.39v-9l2.53.39v3.06L12.75,604Z" transform="translate(-1.9 -1.9)"/><path class="cls-2" d="M12.75,601.62l-10.7-5.44v-2.94l10.7-2.16v2.85l-2.07.38v3.39l2.07,1Zm-4.53-4.91V594.6l-3.42.52Z" transform="translate(-1.9 -1.9)"/><path class="cls-2" d="M12.75,588.28,4.58,587v3l-2.53-.39v-9l2.53.39v3.07l8.17,1.25Z" transform="translate(-1.9 -1.9)"/><path class="cls-2" d="M12.75,581l-10.7-1.63v-2.89l10.7,1.62Z" transform="translate(-1.9 -1.9)"/><path class="cls-2" d="M12.9,571.22a4.89,4.89,0,0,1-.68,2.66,3.7,3.7,0,0,1-1.9,1.51,5.84,5.84,0,0,1-2.9.19,7.17,7.17,0,0,1-2.91-1.09,5.87,5.87,0,0,1-2.61-5,4.65,4.65,0,0,1,.69-2.61,3.74,3.74,0,0,1,1.92-1.52,5.88,5.88,0,0,1,2.91-.2,6.75,6.75,0,0,1,2.89,1.08,5.79,5.79,0,0,1,1.91,2.09A5.93,5.93,0,0,1,12.9,571.22Zm-2.31-.34a2.15,2.15,0,0,0-.3-1.11,2.49,2.49,0,0,0-1-.87,5.52,5.52,0,0,0-1.84-.54,5.4,5.4,0,0,0-1.91,0,1.67,1.67,0,0,0-1,.57,1.62,1.62,0,0,0-.32,1,2.15,2.15,0,0,0,.73,1.59,4.81,4.81,0,0,0,2.53,1,5.09,5.09,0,0,0,1.84,0,1.62,1.62,0,0,0,1-.58A1.67,1.67,0,0,0,10.59,570.88Z" transform="translate(-1.9 -1.9)"/><path class="cls-2" d="M12.75,564.3l-10.7-1.65v-2.9l6-3.27-6-.9v-2.9l10.7,1.65v2.6l-6.38,3.5,6.38,1Z" transform="translate(-1.9 -1.9)"/><path class="cls-2" d="M9.54,546.72a2.17,2.17,0,0,1-.3,1.13,2.35,2.35,0,0,1-.82.81,2.16,2.16,0,0,1-2.23,0,2.3,2.3,0,0,1-.8-.81,2.09,2.09,0,0,1-.31-1.13,2.11,2.11,0,0,1,.31-1.13,2.3,2.3,0,0,1,.8-.81,2.16,2.16,0,0,1,2.23,0,2.35,2.35,0,0,1,.82.81A2.2,2.2,0,0,1,9.54,546.72Z" transform="translate(-1.9 -1.9)"/><path class="cls-2" d="M12.75,540.57l-10.7-1.65V531l2.38.37v5l1.78.26v-4.16l2.32.35V537l1.82.28v-5l2.4.38Z" transform="translate(-1.9 -1.9)"/><path class="cls-2" d="M12.75,530.85,2.05,529.2v-2.9L8,523l-6-.9v-2.9l10.7,1.65v2.6L6.37,527l6.38,1Z" transform="translate(-1.9 -1.9)"/><path class="cls-2" d="M12.75,518.76l-10.7-1.57v-1.43c0-.74,0-1.47.06-2.18a11.13,11.13,0,0,1,.26-2A4.91,4.91,0,0,1,3.05,510a3.18,3.18,0,0,1,1.28-1.09,4.87,4.87,0,0,1,2.09-.39,7.46,7.46,0,0,1,1.16.1,7.67,7.67,0,0,1,1.37.35,6.41,6.41,0,0,1,1.38.7,5.38,5.38,0,0,1,1.23,1.16,5.49,5.49,0,0,1,.86,1.71,7.49,7.49,0,0,1,.33,2.35Zm-2.26-3.24v-1a2.37,2.37,0,0,0-.33-1.21,3.49,3.49,0,0,0-.9-1A4.62,4.62,0,0,0,8,511.7a4.91,4.91,0,0,0-1.54-.24,2.54,2.54,0,0,0-1.17.24,1.66,1.66,0,0,0-.71.7,2.27,2.27,0,0,0-.24,1.08v1.1Z" transform="translate(-1.9 -1.9)"/><path class="cls-2" d="M12.9,500.33a6.88,6.88,0,0,1-.2,1.64,4.39,4.39,0,0,1-.61,1.43,2.82,2.82,0,0,1-1.06,1,2.72,2.72,0,0,1-1.54.28v-3a1.16,1.16,0,0,0,.65-.23,1.26,1.26,0,0,0,.41-.56,2.4,2.4,0,0,0,.14-.85,4.17,4.17,0,0,0-.09-.88,1.71,1.71,0,0,0-.3-.7.86.86,0,0,0-.58-.35.5.5,0,0,0-.51.19,1.53,1.53,0,0,0-.27.63c-.06.26-.12.54-.17.84l-.28,1.62a3,3,0,0,1-1,1.88,2.72,2.72,0,0,1-2.15.46,3.31,3.31,0,0,1-1.85-.88A4.8,4.8,0,0,1,2.32,501a6.56,6.56,0,0,1-.4-2.31,5.11,5.11,0,0,1,.47-2.27A3.76,3.76,0,0,1,3.64,495a2.79,2.79,0,0,1,1.65-.46v2.93a1.06,1.06,0,0,0-.67.14,1,1,0,0,0-.37.51,2.66,2.66,0,0,0-.11.85,2.54,2.54,0,0,0,.13.91,1.17,1.17,0,0,0,.32.5.88.88,0,0,0,.39.19.7.7,0,0,0,.58-.15,1.67,1.67,0,0,0,.35-.89l.28-1.61a4.54,4.54,0,0,1,.62-1.75,2.28,2.28,0,0,1,.94-.83,2.54,2.54,0,0,1,1.05-.24,5.26,5.26,0,0,1,.92,0,2.9,2.9,0,0,1,1.63.86,5,5,0,0,1,1.13,1.85A7,7,0,0,1,12.9,500.33Z" transform="translate(-1.9 -1.9)"/><path class="cls-2" d="M12.75,491.71l-8.17-1.24v3l-2.53-.38v-9l2.53.39v3.07l8.17,1.25Z" transform="translate(-1.9 -1.9)"/><path class="cls-2" d="M12.75,486.5l-10.7-5.44v-2.93L12.75,476v2.84l-2.07.39v3.38l2.07,1.05Zm-4.53-4.9v-2.12L4.8,480Z" transform="translate(-1.9 -1.9)"/><path class="cls-2" d="M12.75,473.17l-8.17-1.24v3l-2.53-.38v-9l2.53.39V469l8.17,1.25Z" transform="translate(-1.9 -1.9)"/><path class="cls-2" d="M12.75,465.88l-10.7-1.63v-2.89L12.75,463Z" transform="translate(-1.9 -1.9)"/><path class="cls-2" d="M12.9,456.11a4.89,4.89,0,0,1-.68,2.66,3.7,3.7,0,0,1-1.9,1.51,5.83,5.83,0,0,1-2.9.2,7.18,7.18,0,0,1-2.91-1.1,5.84,5.84,0,0,1-2.61-4.95,4.68,4.68,0,0,1,.69-2.61,3.74,3.74,0,0,1,1.92-1.52,5.88,5.88,0,0,1,2.91-.2,7,7,0,0,1,2.89,1.08,5.79,5.79,0,0,1,1.91,2.09A6,6,0,0,1,12.9,456.11Zm-2.31-.34a2.15,2.15,0,0,0-.3-1.11,2.56,2.56,0,0,0-1-.87,5.52,5.52,0,0,0-1.84-.54,5.4,5.4,0,0,0-1.91,0,1.77,1.77,0,0,0-1,.57,1.62,1.62,0,0,0-.32,1,2.13,2.13,0,0,0,.73,1.59,4.81,4.81,0,0,0,2.53,1,5.09,5.09,0,0,0,1.84,0,1.58,1.58,0,0,0,1-.58A1.65,1.65,0,0,0,10.59,455.77Z" transform="translate(-1.9 -1.9)"/><path class="cls-2" d="M12.75,449.19l-10.7-1.64v-2.91l6-3.26-6-.9v-2.9l10.7,1.65v2.6l-6.38,3.5,6.38,1Z" transform="translate(-1.9 -1.9)"/><path class="cls-2" d="M9.54,431.62a2.2,2.2,0,0,1-.3,1.13,2.35,2.35,0,0,1-.82.81,2.22,2.22,0,0,1-2.23,0,2.3,2.3,0,0,1-.8-.81,2.21,2.21,0,0,1,0-2.26,2.41,2.41,0,0,1,.8-.82,2.22,2.22,0,0,1,2.23,0,2.47,2.47,0,0,1,.82.82A2.2,2.2,0,0,1,9.54,431.62Z" transform="translate(-1.9 -1.9)"/><path class="cls-2" d="M12.75,425.46l-10.7-1.65v-7.9l2.38.37v5l1.78.26v-4.16l2.32.35v4.19l1.82.28v-5l2.4.38Z" transform="translate(-1.9 -1.9)"/><path class="cls-2" d="M12.75,415.76l-10.7-1.64v-2.91L8,408l-6-.9v-2.9l10.7,1.64v2.61l-6.38,3.5,6.38,1Z" transform="translate(-1.9 -1.9)"/><path class="cls-2" d="M12.75,403.64l-10.7-1.57v-1.43c0-.74,0-1.47.06-2.18a11.13,11.13,0,0,1,.26-2,4.91,4.91,0,0,1,.68-1.62,3.11,3.11,0,0,1,1.28-1.09,4.87,4.87,0,0,1,2.09-.39,7.46,7.46,0,0,1,1.16.1,7.67,7.67,0,0,1,1.37.35,6.41,6.41,0,0,1,1.38.7,5.38,5.38,0,0,1,1.23,1.16,5.54,5.54,0,0,1,.86,1.7,7.6,7.6,0,0,1,.33,2.36Zm-2.26-3.24v-1a2.37,2.37,0,0,0-.33-1.21,3.49,3.49,0,0,0-.9-1A4.62,4.62,0,0,0,8,396.58a4.91,4.91,0,0,0-1.54-.24,2.54,2.54,0,0,0-1.17.24,1.66,1.66,0,0,0-.71.7,2.27,2.27,0,0,0-.24,1.08v1.1Z" transform="translate(-1.9 -1.9)"/><path class="cls-2" d="M12.9,385.23a6.88,6.88,0,0,1-.2,1.64,4.48,4.48,0,0,1-.61,1.43,2.9,2.9,0,0,1-1.06,1,2.81,2.81,0,0,1-1.54.28v-3a1.15,1.15,0,0,0,.65-.22,1.26,1.26,0,0,0,.41-.56,2.42,2.42,0,0,0,.14-.86,4.14,4.14,0,0,0-.09-.87,1.65,1.65,0,0,0-.3-.7.86.86,0,0,0-.58-.35.52.52,0,0,0-.51.18,1.67,1.67,0,0,0-.27.63c-.06.27-.12.55-.17.85l-.28,1.61a2.93,2.93,0,0,1-1,1.88,2.72,2.72,0,0,1-2.15.47,3.31,3.31,0,0,1-1.85-.88,4.8,4.8,0,0,1-1.17-1.81,6.62,6.62,0,0,1-.4-2.32,5.06,5.06,0,0,1,.47-2.26,3.62,3.62,0,0,1,1.25-1.44,2.72,2.72,0,0,1,1.65-.46v2.93a1.06,1.06,0,0,0-.67.14,1,1,0,0,0-.37.51,2.62,2.62,0,0,0-.11.85,2.52,2.52,0,0,0,.13.9,1.15,1.15,0,0,0,.32.51.88.88,0,0,0,.39.19.67.67,0,0,0,.58-.16,1.59,1.59,0,0,0,.35-.88l.28-1.62a4.49,4.49,0,0,1,.62-1.74,2.28,2.28,0,0,1,.94-.83A2.54,2.54,0,0,1,8.8,380a5.26,5.26,0,0,1,.92.05,2.84,2.84,0,0,1,1.63.86,4.9,4.9,0,0,1,1.13,1.84A7.05,7.05,0,0,1,12.9,385.23Z" transform="translate(-1.9 -1.9)"/><path class="cls-2" d="M12.75,376.58l-8.17-1.24v3L2.05,378v-9l2.53.39v3.07l8.17,1.25Z" transform="translate(-1.9 -1.9)"/><path class="cls-2" d="M12.75,371.38l-10.7-5.44V363l10.7-2.16v2.85l-2.07.38v3.39l2.07,1Zm-4.53-4.91v-2.11l-3.42.52Z" transform="translate(-1.9 -1.9)"/><path class="cls-2" d="M12.75,358,4.58,356.8v3l-2.53-.39v-9l2.53.39v3.07l8.17,1.25Z" transform="translate(-1.9 -1.9)"/><path class="cls-2" d="M12.75,350.75l-10.7-1.63v-2.89l10.7,1.62Z" transform="translate(-1.9 -1.9)"/><path class="cls-2" d="M12.9,341a4.86,4.86,0,0,1-.68,2.66,3.72,3.72,0,0,1-1.9,1.52,6,6,0,0,1-2.9.19,7,7,0,0,1-2.91-1.1A5.84,5.84,0,0,1,1.9,339.3a4.71,4.71,0,0,1,.69-2.62,3.72,3.72,0,0,1,1.92-1.51A5.76,5.76,0,0,1,7.42,335,7,7,0,0,1,10.31,336a5.74,5.74,0,0,1,1.91,2.1A5.92,5.92,0,0,1,12.9,341Zm-2.31-.34a2.12,2.12,0,0,0-.3-1.1,2.5,2.5,0,0,0-1-.88,6,6,0,0,0-1.84-.54,5.14,5.14,0,0,0-1.91,0,1.67,1.67,0,0,0-1,.57,1.6,1.6,0,0,0-.32,1,2.11,2.11,0,0,0,.73,1.58,4.73,4.73,0,0,0,2.53,1,4.91,4.91,0,0,0,1.84,0,1.62,1.62,0,0,0,1-.58A1.7,1.7,0,0,0,10.59,340.63Z" transform="translate(-1.9 -1.9)"/><path class="cls-2" d="M12.75,334.09l-10.7-1.65v-2.91l6-3.26-6-.9v-2.9l10.7,1.65v2.6l-6.38,3.5,6.38,1Z" transform="translate(-1.9 -1.9)"/><path class="cls-2" d="M9.54,316.5a2.17,2.17,0,0,1-.3,1.13,2.35,2.35,0,0,1-.82.81,2.16,2.16,0,0,1-2.23,0,2.3,2.3,0,0,1-.8-.81,2.09,2.09,0,0,1-.31-1.13,2.11,2.11,0,0,1,.31-1.13,2.3,2.3,0,0,1,.8-.81,2.16,2.16,0,0,1,2.23,0,2.35,2.35,0,0,1,.82.81A2.2,2.2,0,0,1,9.54,316.5Z" transform="translate(-1.9 -1.9)"/><path class="cls-2" d="M12.75,310.34,2.05,308.7v-7.9l2.38.37v5l1.78.27v-4.16l2.32.35v4.18l1.82.29v-5l2.4.37Z" transform="translate(-1.9 -1.9)"/><path class="cls-2" d="M12.75,300.65,2.05,299v-2.91l6-3.26-6-.9V289l10.7,1.65v2.6l-6.38,3.5,6.38,1Z" transform="translate(-1.9 -1.9)"/><path class="cls-2" d="M12.75,288.54,2.05,287v-1.43c0-.74,0-1.47.06-2.18a11.13,11.13,0,0,1,.26-2,4.91,4.91,0,0,1,.68-1.62,3.18,3.18,0,0,1,1.28-1.09,4.87,4.87,0,0,1,2.09-.39,7.46,7.46,0,0,1,1.16.1,8.63,8.63,0,0,1,1.37.35,6,6,0,0,1,1.38.71,5.33,5.33,0,0,1,1.23,1.15,5.49,5.49,0,0,1,.86,1.71,7.49,7.49,0,0,1,.33,2.35Zm-2.26-3.25v-1a2.37,2.37,0,0,0-.33-1.21,3.33,3.33,0,0,0-.9-1A4.39,4.39,0,0,0,8,281.47a4.91,4.91,0,0,0-1.54-.24,2.53,2.53,0,0,0-1.17.25,1.58,1.58,0,0,0-.71.69,2.27,2.27,0,0,0-.24,1.08v1.11Z" transform="translate(-1.9 -1.9)"/><path class="cls-2" d="M12.9,270.12a6.88,6.88,0,0,1-.2,1.64,4.39,4.39,0,0,1-.61,1.43,2.82,2.82,0,0,1-1.06,1,2.64,2.64,0,0,1-1.54.28v-3a1.16,1.16,0,0,0,.65-.23,1.29,1.29,0,0,0,.41-.55,2.46,2.46,0,0,0,.14-.86,4.14,4.14,0,0,0-.09-.87,1.7,1.7,0,0,0-.3-.71.85.85,0,0,0-.58-.34.48.48,0,0,0-.51.18,1.67,1.67,0,0,0-.27.63c-.06.26-.12.54-.17.84l-.28,1.62a3,3,0,0,1-1,1.88,2.72,2.72,0,0,1-2.15.46,3.25,3.25,0,0,1-1.85-.88,4.73,4.73,0,0,1-1.17-1.81,6.52,6.52,0,0,1-.4-2.31,5,5,0,0,1,.47-2.26,3.72,3.72,0,0,1,1.25-1.45,2.79,2.79,0,0,1,1.65-.46v2.93a1.06,1.06,0,0,0-.67.15,1,1,0,0,0-.37.51,2.62,2.62,0,0,0-.11.85,2.52,2.52,0,0,0,.13.9,1.11,1.11,0,0,0,.32.5.79.79,0,0,0,.39.19.66.66,0,0,0,.58-.15,1.63,1.63,0,0,0,.35-.89l.28-1.61A4.6,4.6,0,0,1,6.81,266a2.28,2.28,0,0,1,.94-.83,2.9,2.9,0,0,1,1.05-.24,6.46,6.46,0,0,1,.92.05,2.9,2.9,0,0,1,1.63.86,5,5,0,0,1,1.13,1.85A7,7,0,0,1,12.9,270.12Z" transform="translate(-1.9 -1.9)"/><path class="cls-2" d="M12.75,261.46l-8.17-1.24v3l-2.53-.39v-9l2.53.38v3.07l8.17,1.26Z" transform="translate(-1.9 -1.9)"/><path class="cls-2" d="M12.75,256.26l-10.7-5.44v-2.93l10.7-2.16v2.84l-2.07.39v3.38l2.07,1Zm-4.53-4.9v-2.12l-3.42.53Z" transform="translate(-1.9 -1.9)"/><path class="cls-2" d="M12.75,242.93l-8.17-1.24v3l-2.53-.39v-9l2.53.38v3.07l8.17,1.25Z" transform="translate(-1.9 -1.9)"/><path class="cls-2" d="M12.75,235.62,2.05,234V231.1l10.7,1.62Z" transform="translate(-1.9 -1.9)"/><path class="cls-2" d="M12.9,225.85a4.89,4.89,0,0,1-.68,2.66,3.7,3.7,0,0,1-1.9,1.51,5.84,5.84,0,0,1-2.9.19,7,7,0,0,1-2.91-1.1A5.71,5.71,0,0,1,2.59,227a5.84,5.84,0,0,1-.69-2.83,4.65,4.65,0,0,1,.69-2.61A3.69,3.69,0,0,1,4.51,220a5.87,5.87,0,0,1,2.91-.21,7,7,0,0,1,2.89,1.08,5.82,5.82,0,0,1,1.91,2.1A5.93,5.93,0,0,1,12.9,225.85Zm-2.31-.35a2.14,2.14,0,0,0-.3-1.1,2.41,2.41,0,0,0-1-.87A5.52,5.52,0,0,0,7.47,223a5.18,5.18,0,0,0-1.91,0,1.67,1.67,0,0,0-1,.57,1.6,1.6,0,0,0-.32,1,2.11,2.11,0,0,0,.73,1.58,4.65,4.65,0,0,0,2.53,1,4.91,4.91,0,0,0,1.84,0,1.62,1.62,0,0,0,1-.58A1.68,1.68,0,0,0,10.59,225.5Z" transform="translate(-1.9 -1.9)"/><path class="cls-2" d="M12.75,219l-10.7-1.64v-2.91l6-3.26-6-.9v-2.9L12.75,209v2.6l-6.38,3.5,6.38,1Z" transform="translate(-1.9 -1.9)"/><path class="cls-2" d="M9.54,201.38a2.2,2.2,0,0,1-.3,1.13,2.35,2.35,0,0,1-.82.81,2.22,2.22,0,0,1-2.23,0,2.3,2.3,0,0,1-.8-.81,2.21,2.21,0,0,1,0-2.26,2.41,2.41,0,0,1,.8-.82,2.22,2.22,0,0,1,2.23,0,2.47,2.47,0,0,1,.82.82A2.2,2.2,0,0,1,9.54,201.38Z" transform="translate(-1.9 -1.9)"/><path class="cls-2" d="M12.75,195.22l-10.7-1.65v-7.9l2.38.37v5l1.78.26v-4.16l2.32.35v4.19l1.82.28v-5l2.4.38Z" transform="translate(-1.9 -1.9)"/><path class="cls-2" d="M12.75,185.5l-10.7-1.65V181l6-3.27-6-.9v-2.9l10.7,1.65v2.6l-6.38,3.5,6.38,1Z" transform="translate(-1.9 -1.9)"/><path class="cls-2" d="M12.75,173.41l-10.7-1.57V170.4c0-.74,0-1.47.06-2.18a10.9,10.9,0,0,1,.26-2,4.74,4.74,0,0,1,.68-1.62,3.13,3.13,0,0,1,1.28-1.1,4.87,4.87,0,0,1,2.09-.39,8.94,8.94,0,0,1,1.16.1,8.63,8.63,0,0,1,1.37.35,6,6,0,0,1,1.38.71,5.17,5.17,0,0,1,1.23,1.16,5.43,5.43,0,0,1,.86,1.7,7.49,7.49,0,0,1,.33,2.35Zm-2.26-3.24v-1a2.38,2.38,0,0,0-.33-1.22,3.33,3.33,0,0,0-.9-1A4.39,4.39,0,0,0,8,166.34a5.22,5.22,0,0,0-1.54-.23,2.54,2.54,0,0,0-1.17.24,1.58,1.58,0,0,0-.71.69,2.27,2.27,0,0,0-.24,1.08v1.11Z" transform="translate(-1.9 -1.9)"/><path class="cls-2" d="M12.9,155a7,7,0,0,1-.2,1.65,4.33,4.33,0,0,1-.61,1.42A2.93,2.93,0,0,1,11,159a2.72,2.72,0,0,1-1.54.27v-3a1.23,1.23,0,0,0,.65-.22,1.32,1.32,0,0,0,.41-.56,2.46,2.46,0,0,0,.14-.86,4.14,4.14,0,0,0-.09-.87,1.76,1.76,0,0,0-.3-.71.85.85,0,0,0-.58-.34.48.48,0,0,0-.51.18,1.67,1.67,0,0,0-.27.63c-.06.26-.12.54-.17.84L8.49,156a3,3,0,0,1-1,1.88,2.76,2.76,0,0,1-2.15.47,3.32,3.32,0,0,1-1.85-.89,4.73,4.73,0,0,1-1.17-1.81,6.52,6.52,0,0,1-.4-2.31,5.06,5.06,0,0,1,.47-2.26,3.62,3.62,0,0,1,1.25-1.44,2.73,2.73,0,0,1,1.65-.47v2.93a1.13,1.13,0,0,0-.67.15,1,1,0,0,0-.37.51,2.62,2.62,0,0,0-.11.85,2.52,2.52,0,0,0,.13.9,1.11,1.11,0,0,0,.32.5.79.79,0,0,0,.39.19.64.64,0,0,0,.58-.15,1.63,1.63,0,0,0,.35-.88l.28-1.62a4.49,4.49,0,0,1,.62-1.74,2.24,2.24,0,0,1,.94-.84,2.9,2.9,0,0,1,1.05-.24,5.2,5.2,0,0,1,.92.06,2.82,2.82,0,0,1,1.63.85,5,5,0,0,1,1.13,1.85A7,7,0,0,1,12.9,155Z" transform="translate(-1.9 -1.9)"/><path class="cls-2" d="M12.75,146.36l-8.17-1.24v3l-2.53-.39v-9l2.53.38v3.07l8.17,1.26Z" transform="translate(-1.9 -1.9)"/><path class="cls-2" d="M12.75,141.14,2.05,135.7v-2.94l10.7-2.16v2.85l-2.07.39v3.38l2.07,1Zm-4.53-4.9v-2.12l-3.42.52Z" transform="translate(-1.9 -1.9)"/><path class="cls-2" d="M12.75,127.82l-8.17-1.24v3l-2.53-.39v-9l2.53.39v3.07l8.17,1.25Z" transform="translate(-1.9 -1.9)"/><path class="cls-2" d="M12.75,120.52l-10.7-1.63V116l10.7,1.62Z" transform="translate(-1.9 -1.9)"/><path class="cls-2" d="M12.9,110.75a4.89,4.89,0,0,1-.68,2.66,3.7,3.7,0,0,1-1.9,1.51,5.84,5.84,0,0,1-2.9.19A7,7,0,0,1,4.51,114a5.71,5.71,0,0,1-1.92-2.11,5.84,5.84,0,0,1-.69-2.83,4.65,4.65,0,0,1,.69-2.61,3.74,3.74,0,0,1,1.92-1.52,5.87,5.87,0,0,1,2.91-.21,6.89,6.89,0,0,1,2.89,1.09,5.71,5.71,0,0,1,1.91,2.09A5.93,5.93,0,0,1,12.9,110.75Zm-2.31-.35a2.14,2.14,0,0,0-.3-1.1,2.41,2.41,0,0,0-1-.87,5.52,5.52,0,0,0-1.84-.54,5.18,5.18,0,0,0-1.91,0,1.67,1.67,0,0,0-1,.57,1.6,1.6,0,0,0-.32,1A2.11,2.11,0,0,0,4.94,111a4.65,4.65,0,0,0,2.53,1,4.91,4.91,0,0,0,1.84,0,1.62,1.62,0,0,0,1-.58A1.68,1.68,0,0,0,10.59,110.4Z" transform="translate(-1.9 -1.9)"/><path class="cls-2" d="M12.75,103.83l-10.7-1.64V99.28L8,96l-6-.91V92.22l10.7,1.64v2.6L6.37,100l6.38,1Z" transform="translate(-1.9 -1.9)"/><path class="cls-2" d="M9.54,86.24a2.17,2.17,0,0,1-.3,1.13,2.47,2.47,0,0,1-.82.82,2.22,2.22,0,0,1-2.23,0,2.41,2.41,0,0,1-.8-.82,2.2,2.2,0,0,1,0-2.25,2.33,2.33,0,0,1,.8-.82,2.16,2.16,0,0,1,2.23,0,2.38,2.38,0,0,1,.82.82A2.16,2.16,0,0,1,9.54,86.24Z" transform="translate(-1.9 -1.9)"/><path class="cls-2" d="M12.75,80.1,2.05,78.45v-7.9l2.38.38v5l1.78.27V72l2.32.35v4.19l1.82.28v-5l2.4.37Z" transform="translate(-1.9 -1.9)"/><path class="cls-2" d="M12.75,70.4,2.05,68.75V65.84l6-3.26-6-.9v-2.9l10.7,1.65V63l-6.38,3.5,6.38,1Z" transform="translate(-1.9 -1.9)"/><path class="cls-2" d="M12.75,58.26,2.05,56.69V55.26c0-.74,0-1.47.06-2.18a11.13,11.13,0,0,1,.26-2,4.91,4.91,0,0,1,.68-1.62,3.11,3.11,0,0,1,1.28-1.09A4.87,4.87,0,0,1,6.42,48a7.46,7.46,0,0,1,1.16.1A7.67,7.67,0,0,1,9,48.44a6.41,6.41,0,0,1,1.38.7,5.38,5.38,0,0,1,1.23,1.16,5.54,5.54,0,0,1,.86,1.7,7.6,7.6,0,0,1,.33,2.36ZM10.49,55v-1a2.37,2.37,0,0,0-.33-1.21,3.49,3.49,0,0,0-.9-1A4.62,4.62,0,0,0,8,51.2,4.91,4.91,0,0,0,6.43,51a2.54,2.54,0,0,0-1.17.24,1.66,1.66,0,0,0-.71.7A2.27,2.27,0,0,0,4.31,53v1.1Z" transform="translate(-1.9 -1.9)"/><path class="cls-2" d="M14,41a7,7,0,0,1-.57,1.55,4.55,4.55,0,0,1-.92,1.25,2.85,2.85,0,0,1-1.25.71,2.81,2.81,0,0,1-1.56-.08l.68-2.92a1.11,1.11,0,0,0,.68-.07,1.24,1.24,0,0,0,.52-.45,2.35,2.35,0,0,0,.34-.8,3.7,3.7,0,0,0,.11-.87,1.65,1.65,0,0,0-.13-.75.84.84,0,0,0-.49-.47.46.46,0,0,0-.53.06,1.64,1.64,0,0,0-.41.55,7,7,0,0,0-.36.78L9.43,41A2.91,2.91,0,0,1,8,42.64a2.74,2.74,0,0,1-2.21,0,3.35,3.35,0,0,1-1.6-1.29,4.79,4.79,0,0,1-.72-2A6.69,6.69,0,0,1,3.63,37a5,5,0,0,1,1-2.09,3.58,3.58,0,0,1,1.54-1.12,2.71,2.71,0,0,1,1.71-.07L7.2,36.52a1.06,1.06,0,0,0-.68,0,.94.94,0,0,0-.48.41,2.39,2.39,0,0,0-.3.8,2.32,2.32,0,0,0-.08.91,1.06,1.06,0,0,0,.2.56.82.82,0,0,0,.33.27.68.68,0,0,0,.61,0,1.76,1.76,0,0,0,.54-.78L8,37.16A4.47,4.47,0,0,1,9,35.6a2.26,2.26,0,0,1,1.11-.6,2.75,2.75,0,0,1,1.07,0,5.16,5.16,0,0,1,.88.26,2.89,2.89,0,0,1,1.39,1.21,5,5,0,0,1,.69,2.05A7.46,7.46,0,0,1,14,41Z" transform="translate(-1.9 -1.9)"/><path class="cls-2" d="M16.07,33.72,9.25,29.06,7.94,31.78,5.83,30.33l3.9-8.09,2.11,1.45-1.33,2.76,6.81,4.68Z" transform="translate(-1.9 -1.9)"/><path class="cls-2" d="M17.62,29.63,12.45,18.8l1.79-2.33L24,21.28l-1.73,2.26-1.88-1-2.06,2.69,1,2.09ZM17,23l1.29-1.68-3-1.67Z" transform="translate(-1.9 -1.9)"/><path class="cls-2" d="M25.45,20.29l-4.1-7.18L19,15l-1.27-2.23,7.05-5.57L26,9.41l-2.41,1.91L27.7,18.5Z" transform="translate(-1.9 -1.9)"/><path class="cls-2" d="M30.58,16.5,27.29,6.19l2.59-1.28,3.3,10.31Z" transform="translate(-1.9 -1.9)"/><path class="cls-2" d="M38.59,13.54a4.89,4.89,0,0,1-2.74-.14A3.74,3.74,0,0,1,34,11.83,6,6,0,0,1,33.23,9,7.12,7.12,0,0,1,33.73,6a5.92,5.92,0,0,1,1.69-2.3,5.86,5.86,0,0,1,2.64-1.23,4.66,4.66,0,0,1,2.7.15,3.8,3.8,0,0,1,1.87,1.59A5.89,5.89,0,0,1,43.41,7a7.05,7.05,0,0,1-.49,3,5.8,5.8,0,0,1-1.68,2.28A6,6,0,0,1,38.59,13.54Zm-.12-2.33a2.08,2.08,0,0,0,1-.52,2.37,2.37,0,0,0,.67-1.13,5.76,5.76,0,0,0,.16-1.91A5.22,5.22,0,0,0,40,5.77a1.74,1.74,0,0,0-.76-.9,1.59,1.59,0,0,0-1-.11,2.15,2.15,0,0,0-1.41,1,4.76,4.76,0,0,0-.46,2.67,5.19,5.19,0,0,0,.35,1.8,1.63,1.63,0,0,0,.77.85A1.73,1.73,0,0,0,38.47,11.21Z" transform="translate(-1.9 -1.9)"/><path class="cls-2" d="M44.51,12.75l1.64-10.7h2.91l3.26,6,.9-6h2.9l-1.64,10.7H51.87l-3.5-6.38-1,6.38Z" transform="translate(-1.9 -1.9)"/><path class="cls-2" d="M62.1,9.54A2.11,2.11,0,0,1,61,9.23a2.25,2.25,0,0,1-.81-.81,2.22,2.22,0,0,1,0-2.23,2.3,2.3,0,0,1,.81-.8,2.21,2.21,0,0,1,2.26,0,2.3,2.3,0,0,1,.81.8,2.16,2.16,0,0,1,0,2.23,2.25,2.25,0,0,1-.81.81A2.11,2.11,0,0,1,62.1,9.54Z" transform="translate(-1.9 -1.9)"/><path class="cls-2" d="M68.25,12.75,69.9,2.05h7.9l-.37,2.38h-5l-.26,1.78h4.16L76,8.53H71.79l-.28,1.82h5l-.38,2.4Z" transform="translate(-1.9 -1.9)"/><path class="cls-2" d="M78,12.75l1.65-10.7h2.9l3.27,6,.9-6h2.9l-1.65,10.7h-2.6l-3.5-6.38-1,6.38Z" transform="translate(-1.9 -1.9)"/><path class="cls-2" d="M90.05,12.75l1.58-10.7h1.43c.74,0,1.47,0,2.18.06a11.13,11.13,0,0,1,2,.26,4.91,4.91,0,0,1,1.62.68,3.18,3.18,0,0,1,1.09,1.28,4.87,4.87,0,0,1,.39,2.09,7.46,7.46,0,0,1-.1,1.16A8.63,8.63,0,0,1,99.88,9a6,6,0,0,1-.71,1.38A5.1,5.1,0,0,1,98,11.55a5.29,5.29,0,0,1-1.71.87,7.49,7.49,0,0,1-2.35.33Zm3.25-2.26h1a2.37,2.37,0,0,0,1.21-.33,3.33,3.33,0,0,0,1-.9A4.39,4.39,0,0,0,97.12,8a4.91,4.91,0,0,0,.24-1.54,2.53,2.53,0,0,0-.25-1.17,1.58,1.58,0,0,0-.69-.71,2.27,2.27,0,0,0-1.08-.24H94.23Z" transform="translate(-1.9 -1.9)"/><path class="cls-2" d="M108.48,12.9a7,7,0,0,1-1.65-.2,4.33,4.33,0,0,1-1.42-.61,2.85,2.85,0,0,1-1-1.06,2.81,2.81,0,0,1-.28-1.54h3a1.15,1.15,0,0,0,.22.65,1.32,1.32,0,0,0,.56.41,2.46,2.46,0,0,0,.86.14,4.14,4.14,0,0,0,.87-.09,1.65,1.65,0,0,0,.7-.3.83.83,0,0,0,.35-.58.5.5,0,0,0-.18-.51,1.67,1.67,0,0,0-.63-.27c-.26-.06-.54-.12-.84-.17l-1.62-.28a3,3,0,0,1-1.88-1,2.72,2.72,0,0,1-.47-2.15A3.29,3.29,0,0,1,106,3.49a4.65,4.65,0,0,1,1.81-1.17,6.52,6.52,0,0,1,2.31-.4,5.06,5.06,0,0,1,2.26.47,3.62,3.62,0,0,1,1.44,1.25,2.66,2.66,0,0,1,.46,1.65h-2.92a1.13,1.13,0,0,0-.15-.67,1,1,0,0,0-.51-.37,2.62,2.62,0,0,0-.85-.11,2.52,2.52,0,0,0-.9.13,1.06,1.06,0,0,0-.5.32.79.79,0,0,0-.19.39.64.64,0,0,0,.15.58,1.63,1.63,0,0,0,.88.35l1.62.28a4.49,4.49,0,0,1,1.74.62,2.31,2.31,0,0,1,.84.94,2.9,2.9,0,0,1,.24,1.05,6.36,6.36,0,0,1-.06.92,2.88,2.88,0,0,1-.85,1.63A5,5,0,0,1,111,12.48,7,7,0,0,1,108.48,12.9Z" transform="translate(-1.9 -1.9)"/><path class="cls-2" d="M117.1,12.75l1.24-8.17h-3l.38-2.53h9l-.39,2.53h-3.07L120,12.75Z" transform="translate(-1.9 -1.9)"/><path class="cls-2" d="M122.33,12.75l5.44-10.7h2.94l2.16,10.7H130l-.38-2.07h-3.39l-1,2.07Zm4.91-4.53h2.11l-.52-3.42Z" transform="translate(-1.9 -1.9)"/><path class="cls-2" d="M135.65,12.75l1.23-8.17h-3l.39-2.53h9l-.39,2.53h-3.07l-1.25,8.17Z" transform="translate(-1.9 -1.9)"/><path class="cls-2" d="M143,12.75l1.63-10.7h2.89l-1.62,10.7Z" transform="translate(-1.9 -1.9)"/><path class="cls-2" d="M152.72,12.9a4.86,4.86,0,0,1-2.66-.68,3.66,3.66,0,0,1-1.51-1.9,5.83,5.83,0,0,1-.2-2.9,7.18,7.18,0,0,1,1.1-2.91,5.79,5.79,0,0,1,2.11-1.92,5.87,5.87,0,0,1,2.83-.69,4.71,4.71,0,0,1,2.62.69,3.79,3.79,0,0,1,1.52,1.92,5.88,5.88,0,0,1,.2,2.91,7,7,0,0,1-1.08,2.89,5.79,5.79,0,0,1-2.09,1.91A6,6,0,0,1,152.72,12.9Zm.34-2.31a2.09,2.09,0,0,0,1.1-.3,2.5,2.5,0,0,0,.88-1,6,6,0,0,0,.54-1.84,5.4,5.4,0,0,0,0-1.91,1.77,1.77,0,0,0-.57-1,1.62,1.62,0,0,0-1-.32,2.13,2.13,0,0,0-1.58.73,4.81,4.81,0,0,0-1,2.53,5.13,5.13,0,0,0,0,1.84,1.67,1.67,0,0,0,.58,1A1.7,1.7,0,0,0,153.06,10.59Z" transform="translate(-1.9 -1.9)"/><path class="cls-2" d="M159.64,12.75l1.64-10.7h2.91l3.26,6,.9-6h2.9l-1.64,10.7H167l-3.5-6.38-1,6.38Z" transform="translate(-1.9 -1.9)"/><path class="cls-2" d="M177.2,9.54a2.11,2.11,0,0,1-1.13-.31,2.25,2.25,0,0,1-.81-.81,2.22,2.22,0,0,1,0-2.23,2.3,2.3,0,0,1,.81-.8,2.21,2.21,0,0,1,2.26,0,2.41,2.41,0,0,1,.82.8,2.22,2.22,0,0,1,0,2.23,2.35,2.35,0,0,1-.82.81A2.11,2.11,0,0,1,177.2,9.54Z" transform="translate(-1.9 -1.9)"/><path class="cls-2" d="M183.36,12.75,185,2.05h7.9l-.38,2.38h-5l-.27,1.78h4.17l-.35,2.32H186.9l-.28,1.82h5l-.37,2.4Z" transform="translate(-1.9 -1.9)"/><path class="cls-2" d="M193.07,12.75l1.65-10.7h2.9l3.27,6,.9-6h2.9L203,12.75h-2.6l-3.5-6.38-1,6.38Z" transform="translate(-1.9 -1.9)"/><path class="cls-2" d="M205.19,12.75l1.58-10.7h1.43c.74,0,1.47,0,2.18.06a11.13,11.13,0,0,1,2,.26,4.91,4.91,0,0,1,1.62.68,3.18,3.18,0,0,1,1.09,1.28,4.87,4.87,0,0,1,.39,2.09,8.94,8.94,0,0,1-.1,1.16A8.63,8.63,0,0,1,215,9a6,6,0,0,1-.71,1.38,5,5,0,0,1-1.16,1.22,5.14,5.14,0,0,1-1.7.87,7.49,7.49,0,0,1-2.35.33Zm3.24-2.26h1a2.37,2.37,0,0,0,1.21-.33,3.33,3.33,0,0,0,1-.9A4.39,4.39,0,0,0,212.26,8a4.91,4.91,0,0,0,.24-1.54,2.53,2.53,0,0,0-.25-1.17,1.58,1.58,0,0,0-.69-.71,2.27,2.27,0,0,0-1.08-.24h-1.11Z" transform="translate(-1.9 -1.9)"/><path class="cls-2" d="M223.61,12.9a6.88,6.88,0,0,1-1.64-.2,4.39,4.39,0,0,1-1.43-.61,2.82,2.82,0,0,1-1-1.06,2.72,2.72,0,0,1-.28-1.54h3a1.16,1.16,0,0,0,.23.65,1.26,1.26,0,0,0,.56.41,2.36,2.36,0,0,0,.85.14,4,4,0,0,0,.87-.09,1.7,1.7,0,0,0,.71-.3.85.85,0,0,0,.34-.58.48.48,0,0,0-.18-.51,1.53,1.53,0,0,0-.63-.27c-.26-.06-.54-.12-.84-.17l-1.62-.28a3,3,0,0,1-1.88-1,2.72,2.72,0,0,1-.46-2.15,3.28,3.28,0,0,1,.88-1.85,4.73,4.73,0,0,1,1.81-1.17,6.52,6.52,0,0,1,2.31-.4,5,5,0,0,1,2.26.47,3.72,3.72,0,0,1,1.45,1.25,2.79,2.79,0,0,1,.46,1.65h-2.93a1.06,1.06,0,0,0-.14-.67,1,1,0,0,0-.52-.37,3.26,3.26,0,0,0-1.75,0,1.17,1.17,0,0,0-.5.32.79.79,0,0,0-.19.39.7.7,0,0,0,.15.58,1.63,1.63,0,0,0,.89.35l1.61.28a4.6,4.6,0,0,1,1.75.62,2.28,2.28,0,0,1,.83.94,2.71,2.71,0,0,1,.24,1.05,6.46,6.46,0,0,1-.05.92,2.9,2.9,0,0,1-.86,1.63,5,5,0,0,1-1.85,1.13A7,7,0,0,1,223.61,12.9Z" transform="translate(-1.9 -1.9)"/><path class="cls-2" d="M232.25,12.75l1.24-8.17h-3l.39-2.53h9l-.39,2.53h-3.07l-1.25,8.17Z" transform="translate(-1.9 -1.9)"/><path class="cls-2" d="M237.44,12.75l5.44-10.7h2.93L248,12.75h-2.85l-.39-2.07h-3.38l-1,2.07Zm4.9-4.53h2.12l-.52-3.42Z" transform="translate(-1.9 -1.9)"/><path class="cls-2" d="M250.79,12.75,252,4.58h-3l.39-2.53h9L258,4.58h-3.07l-1.25,8.17Z" transform="translate(-1.9 -1.9)"/><path class="cls-2" d="M258.07,12.75l1.64-10.7h2.89L261,12.75Z" transform="translate(-1.9 -1.9)"/><path class="cls-2" d="M267.84,12.9a4.89,4.89,0,0,1-2.66-.68,3.66,3.66,0,0,1-1.51-1.9,5.83,5.83,0,0,1-.2-2.9,7.18,7.18,0,0,1,1.1-2.91,5.79,5.79,0,0,1,2.11-1.92,5.87,5.87,0,0,1,2.83-.69,4.71,4.71,0,0,1,2.62.69,3.74,3.74,0,0,1,1.52,1.92,5.88,5.88,0,0,1,.2,2.91,7,7,0,0,1-1.08,2.89,5.79,5.79,0,0,1-2.09,1.91A6,6,0,0,1,267.84,12.9Zm.34-2.31a2.09,2.09,0,0,0,1.1-.3,2.5,2.5,0,0,0,.88-1,5.52,5.52,0,0,0,.54-1.84,5.4,5.4,0,0,0,0-1.91,1.77,1.77,0,0,0-.57-1,1.62,1.62,0,0,0-1-.32,2.13,2.13,0,0,0-1.58.73,4.81,4.81,0,0,0-1,2.53,5.13,5.13,0,0,0,0,1.84,1.63,1.63,0,0,0,.59,1A1.65,1.65,0,0,0,268.18,10.59Z" transform="translate(-1.9 -1.9)"/><path class="cls-2" d="M274.74,12.75l1.65-10.7h2.9l3.27,6,.9-6h2.9l-1.65,10.7h-2.6l-3.5-6.38-1,6.38Z" transform="translate(-1.9 -1.9)"/><path class="cls-2" d="M292.31,9.54a2.11,2.11,0,0,1-1.13-.31,2.25,2.25,0,0,1-.81-.81,2.22,2.22,0,0,1,0-2.23,2.3,2.3,0,0,1,.81-.8,2.21,2.21,0,0,1,2.26,0,2.41,2.41,0,0,1,.82.8,2.22,2.22,0,0,1,0,2.23,2.35,2.35,0,0,1-.82.81A2.11,2.11,0,0,1,292.31,9.54Z" transform="translate(-1.9 -1.9)"/><path class="cls-2" d="M298.47,12.75l1.65-10.7H308l-.38,2.38h-5l-.27,1.78h4.17l-.35,2.32H302l-.28,1.82h5l-.37,2.4Z" transform="translate(-1.9 -1.9)"/><path class="cls-2" d="M308.18,12.75l1.64-10.7h2.91L316,8l.9-6h2.9l-1.65,10.7h-2.6L312,6.37l-1,6.38Z" transform="translate(-1.9 -1.9)"/><path class="cls-2" d="M320.29,12.75l1.57-10.7h1.43c.74,0,1.47,0,2.18.06a11.13,11.13,0,0,1,2,.26,4.91,4.91,0,0,1,1.62.68,3.18,3.18,0,0,1,1.09,1.28,4.87,4.87,0,0,1,.39,2.09,7.46,7.46,0,0,1-.1,1.16A7.67,7.67,0,0,1,330.11,9a6,6,0,0,1-.71,1.38,4.91,4.91,0,0,1-1.15,1.22,5.29,5.29,0,0,1-1.71.87,7.49,7.49,0,0,1-2.35.33Zm3.24-2.26h1a2.37,2.37,0,0,0,1.21-.33,3.49,3.49,0,0,0,1-.9A4.62,4.62,0,0,0,327.35,8a4.91,4.91,0,0,0,.24-1.54,2.41,2.41,0,0,0-.25-1.17,1.58,1.58,0,0,0-.69-.71,2.27,2.27,0,0,0-1.08-.24h-1.1Z" transform="translate(-1.9 -1.9)"/><path class="cls-2" d="M338.72,12.9a6.88,6.88,0,0,1-1.64-.2,4.48,4.48,0,0,1-1.43-.61,2.9,2.9,0,0,1-1-1.06,2.81,2.81,0,0,1-.28-1.54h3a1.15,1.15,0,0,0,.22.65,1.26,1.26,0,0,0,.56.41,2.42,2.42,0,0,0,.86.14,4.14,4.14,0,0,0,.87-.09,1.65,1.65,0,0,0,.7-.3.86.86,0,0,0,.35-.58.52.52,0,0,0-.18-.51,1.67,1.67,0,0,0-.63-.27c-.27-.06-.55-.12-.85-.17l-1.61-.28a2.93,2.93,0,0,1-1.88-1,2.72,2.72,0,0,1-.47-2.15,3.28,3.28,0,0,1,.88-1.85A4.8,4.8,0,0,1,338,2.32a6.62,6.62,0,0,1,2.32-.4,5.06,5.06,0,0,1,2.26.47,3.62,3.62,0,0,1,1.44,1.25,2.72,2.72,0,0,1,.46,1.65h-2.93a1.06,1.06,0,0,0-.14-.67,1,1,0,0,0-.51-.37,2.62,2.62,0,0,0-.85-.11,2.52,2.52,0,0,0-.9.13,1.15,1.15,0,0,0-.51.32.88.88,0,0,0-.19.39.67.67,0,0,0,.16.58,1.59,1.59,0,0,0,.88.35l1.62.28a4.49,4.49,0,0,1,1.74.62,2.38,2.38,0,0,1,.84.94A2.69,2.69,0,0,1,344,8.8a5.26,5.26,0,0,1-.05.92,2.84,2.84,0,0,1-.86,1.63,4.9,4.9,0,0,1-1.84,1.13A7.05,7.05,0,0,1,338.72,12.9Z" transform="translate(-1.9 -1.9)"/><path class="cls-2" d="M347.34,12.75l1.24-8.17h-3l.39-2.53h9l-.39,2.53h-3.07l-1.25,8.17Z" transform="translate(-1.9 -1.9)"/><path class="cls-2" d="M352.56,12.75,358,2.05h2.93l2.16,10.7h-2.84l-.39-2.07h-3.38l-1.05,2.07Zm4.9-4.53h2.12l-.53-3.42Z" transform="translate(-1.9 -1.9)"/><path class="cls-2" d="M365.9,12.75l1.24-8.17h-3l.39-2.53h9l-.39,2.53H370l-1.25,8.17Z" transform="translate(-1.9 -1.9)"/><path class="cls-2" d="M373.18,12.75l1.63-10.7h2.89l-1.62,10.7Z" transform="translate(-1.9 -1.9)"/><path class="cls-2" d="M383,12.9a4.86,4.86,0,0,1-2.66-.68,3.72,3.72,0,0,1-1.52-1.9,6,6,0,0,1-.19-2.9,7,7,0,0,1,1.1-2.91,5.79,5.79,0,0,1,2.11-1.92,5.87,5.87,0,0,1,2.83-.69,4.71,4.71,0,0,1,2.62.69,3.72,3.72,0,0,1,1.51,1.92A5.76,5.76,0,0,1,389,7.42a7,7,0,0,1-1.08,2.89,5.79,5.79,0,0,1-2.09,1.91A6,6,0,0,1,383,12.9Zm.34-2.31a2.12,2.12,0,0,0,1.1-.3,2.5,2.5,0,0,0,.88-1,6,6,0,0,0,.54-1.84,5.4,5.4,0,0,0,0-1.91,1.77,1.77,0,0,0-.57-1,1.62,1.62,0,0,0-1-.32,2.11,2.11,0,0,0-1.58.73,4.81,4.81,0,0,0-1,2.53,5.13,5.13,0,0,0,0,1.84,1.67,1.67,0,0,0,.58,1A1.7,1.7,0,0,0,383.3,10.59Z" transform="translate(-1.9 -1.9)"/><path class="cls-2" d="M389.87,12.75l1.65-10.7h2.9l3.27,6,.9-6h2.9l-1.65,10.7h-2.6l-3.5-6.38-1,6.38Z" transform="translate(-1.9 -1.9)"/><path class="cls-2" d="M407.43,9.54a2.11,2.11,0,0,1-1.13-.31,2.25,2.25,0,0,1-.81-.81,2.22,2.22,0,0,1,0-2.23,2.3,2.3,0,0,1,.81-.8,2.21,2.21,0,0,1,2.26,0,2.41,2.41,0,0,1,.82.8,2.22,2.22,0,0,1,0,2.23,2.35,2.35,0,0,1-.82.81A2.11,2.11,0,0,1,407.43,9.54Z" transform="translate(-1.9 -1.9)"/><path class="cls-2" d="M413.6,12.75l1.65-10.7h7.9l-.38,2.38h-5l-.27,1.78h4.17l-.35,2.32h-4.19l-.28,1.82h5l-.38,2.4Z" transform="translate(-1.9 -1.9)"/><path class="cls-2" d="M423.3,12.75,425,2.05h2.9l3.27,6,.9-6h2.9l-1.65,10.7h-2.6l-3.5-6.38-1,6.38Z" transform="translate(-1.9 -1.9)"/><path class="cls-2" d="M435.43,12.75,437,2.05h1.43c.75,0,1.47,0,2.18.06a11,11,0,0,1,2,.26,4.91,4.91,0,0,1,1.62.68,3.11,3.11,0,0,1,1.09,1.28,4.87,4.87,0,0,1,.39,2.09,7.46,7.46,0,0,1-.1,1.16A7.67,7.67,0,0,1,445.25,9a6,6,0,0,1-.7,1.38,5.14,5.14,0,0,1-1.16,1.22,5.34,5.34,0,0,1-1.7.87,7.55,7.55,0,0,1-2.36.33Zm3.24-2.26h1a2.34,2.34,0,0,0,1.21-.33,3.37,3.37,0,0,0,1-.9A4.62,4.62,0,0,0,442.49,8a4.91,4.91,0,0,0,.24-1.54,2.54,2.54,0,0,0-.24-1.17,1.55,1.55,0,0,0-.7-.71,2.27,2.27,0,0,0-1.08-.24h-1.1Z" transform="translate(-1.9 -1.9)"/><path class="cls-2" d="M453.84,12.9a6.88,6.88,0,0,1-1.64-.2,4.48,4.48,0,0,1-1.43-.61,2.9,2.9,0,0,1-1-1.06,2.81,2.81,0,0,1-.28-1.54h3a1.15,1.15,0,0,0,.22.65,1.26,1.26,0,0,0,.56.41,2.42,2.42,0,0,0,.86.14,4.14,4.14,0,0,0,.87-.09,1.65,1.65,0,0,0,.7-.3.86.86,0,0,0,.35-.58.52.52,0,0,0-.18-.51,1.67,1.67,0,0,0-.63-.27c-.27-.06-.55-.12-.85-.17l-1.61-.28a2.93,2.93,0,0,1-1.88-1,2.72,2.72,0,0,1-.47-2.15,3.34,3.34,0,0,1,.88-1.85,4.8,4.8,0,0,1,1.81-1.17,6.62,6.62,0,0,1,2.32-.4,5.06,5.06,0,0,1,2.26.47,3.62,3.62,0,0,1,1.44,1.25,2.72,2.72,0,0,1,.46,1.65H456.7a1.06,1.06,0,0,0-.14-.67,1,1,0,0,0-.51-.37,2.62,2.62,0,0,0-.85-.11,2.52,2.52,0,0,0-.9.13,1.06,1.06,0,0,0-.5.32.71.71,0,0,0-.19.39.64.64,0,0,0,.15.58,1.59,1.59,0,0,0,.88.35l1.62.28a4.49,4.49,0,0,1,1.74.62,2.38,2.38,0,0,1,.84.94,2.69,2.69,0,0,1,.23,1.05,5.26,5.26,0,0,1-.05.92,2.84,2.84,0,0,1-.86,1.63,4.9,4.9,0,0,1-1.84,1.13A7.05,7.05,0,0,1,453.84,12.9Z" transform="translate(-1.9 -1.9)"/><path class="cls-2" d="M462.47,12.75l1.24-8.17h-3l.38-2.53h9l-.39,2.53H466.6l-1.25,8.17Z" transform="translate(-1.9 -1.9)"/><path class="cls-2" d="M467.69,12.75l5.44-10.7h2.93l2.16,10.7h-2.84L475,10.68h-3.38l-1.05,2.07Zm4.9-4.53h2.12l-.52-3.42Z" transform="translate(-1.9 -1.9)"/><path class="cls-2" d="M481,12.75l1.23-8.17h-3l.39-2.53h9l-.39,2.53h-3.07l-1.25,8.17Z" transform="translate(-1.9 -1.9)"/><path class="cls-2" d="M488.3,12.75l1.64-10.7h2.89l-1.63,10.7Z" transform="translate(-1.9 -1.9)"/><path class="cls-2" d="M498.08,12.9a4.89,4.89,0,0,1-2.66-.68,3.7,3.7,0,0,1-1.51-1.9,6,6,0,0,1-.2-2.9,7.18,7.18,0,0,1,1.1-2.91,5.87,5.87,0,0,1,4.95-2.61,4.65,4.65,0,0,1,2.61.69,3.74,3.74,0,0,1,1.52,1.92,5.88,5.88,0,0,1,.2,2.91A7,7,0,0,1,503,10.31a5.79,5.79,0,0,1-2.09,1.91A6,6,0,0,1,498.08,12.9Zm.34-2.31a2.15,2.15,0,0,0,1.11-.3,2.49,2.49,0,0,0,.87-1,5.52,5.52,0,0,0,.54-1.84,5.4,5.4,0,0,0,0-1.91,1.77,1.77,0,0,0-.57-1,1.62,1.62,0,0,0-1-.32,2.15,2.15,0,0,0-1.59.73,4.81,4.81,0,0,0-1,2.53,5.09,5.09,0,0,0,0,1.84,1.62,1.62,0,0,0,.58,1A1.67,1.67,0,0,0,498.42,10.59Z" transform="translate(-1.9 -1.9)"/><path class="cls-2" d="M505,12.75l1.64-10.7h2.91l3.26,6,.9-6h2.9L515,12.75h-2.6l-3.5-6.38-1,6.38Z" transform="translate(-1.9 -1.9)"/><path class="cls-2" d="M522.55,9.54a2.11,2.11,0,0,1-1.13-.31,2.25,2.25,0,0,1-.81-.81,2.22,2.22,0,0,1,0-2.23,2.3,2.3,0,0,1,.81-.8,2.21,2.21,0,0,1,2.26,0,2.41,2.41,0,0,1,.82.8,2.22,2.22,0,0,1,0,2.23,2.35,2.35,0,0,1-.82.81A2.11,2.11,0,0,1,522.55,9.54Z" transform="translate(-1.9 -1.9)"/><path class="cls-2" d="M528.74,12.75l1.64-10.7h7.9l-.37,2.38h-5l-.27,1.78h4.16l-.35,2.32h-4.18L532,10.35h5l-.37,2.4Z" transform="translate(-1.9 -1.9)"/><path class="cls-2" d="M538.42,12.75l1.65-10.7H543l3.27,6,.9-6H550l-1.65,10.7h-2.6l-3.5-6.38-1,6.38Z" transform="translate(-1.9 -1.9)"/><path class="cls-2" d="M550.53,12.75l1.57-10.7h1.44c.74,0,1.47,0,2.18.06a10.9,10.9,0,0,1,2,.26,4.74,4.74,0,0,1,1.62.68,3.13,3.13,0,0,1,1.1,1.28,4.87,4.87,0,0,1,.39,2.09,8.94,8.94,0,0,1-.1,1.16A8.63,8.63,0,0,1,560.36,9a6,6,0,0,1-.71,1.38,5,5,0,0,1-1.16,1.22,5.24,5.24,0,0,1-1.7.87,7.49,7.49,0,0,1-2.35.33Zm3.24-2.26h1a2.38,2.38,0,0,0,1.22-.33,3.33,3.33,0,0,0,1-.9A4.39,4.39,0,0,0,557.6,8a5.22,5.22,0,0,0,.23-1.54,2.54,2.54,0,0,0-.24-1.17,1.58,1.58,0,0,0-.69-.71,2.27,2.27,0,0,0-1.08-.24h-1.11Z" transform="translate(-1.9 -1.9)"/><path class="cls-2" d="M568.94,12.9a6.88,6.88,0,0,1-1.64-.2,4.39,4.39,0,0,1-1.43-.61,2.71,2.71,0,0,1-1.25-2.6h3a1.08,1.08,0,0,0,.22.65,1.26,1.26,0,0,0,.56.41,2.4,2.4,0,0,0,.85.14,4.17,4.17,0,0,0,.88-.09,1.71,1.71,0,0,0,.7-.3.86.86,0,0,0,.35-.58.5.5,0,0,0-.19-.51,1.53,1.53,0,0,0-.63-.27c-.26-.06-.54-.12-.84-.17l-1.61-.28a3,3,0,0,1-1.89-1,2.72,2.72,0,0,1-.46-2.15,3.28,3.28,0,0,1,.88-1.85,4.8,4.8,0,0,1,1.81-1.17,6.58,6.58,0,0,1,2.32-.4,5.09,5.09,0,0,1,2.26.47,3.62,3.62,0,0,1,1.44,1.25,2.72,2.72,0,0,1,.46,1.65H571.8a1.06,1.06,0,0,0-.14-.67,1,1,0,0,0-.51-.37,2.62,2.62,0,0,0-.85-.11,2.45,2.45,0,0,0-.9.13,1.15,1.15,0,0,0-.51.32.88.88,0,0,0-.19.39.67.67,0,0,0,.16.58,1.59,1.59,0,0,0,.88.35l1.62.28a4.49,4.49,0,0,1,1.74.62,2.28,2.28,0,0,1,.83.94,2.54,2.54,0,0,1,.24,1.05,5.26,5.26,0,0,1,0,.92,2.9,2.9,0,0,1-.86,1.63,4.9,4.9,0,0,1-1.84,1.13A7.09,7.09,0,0,1,568.94,12.9Z" transform="translate(-1.9 -1.9)"/><path class="cls-2" d="M577.6,12.75l1.24-8.17h-3l.39-2.53h9l-.39,2.53h-3.07l-1.25,8.17Z" transform="translate(-1.9 -1.9)"/><path class="cls-2" d="M582.79,12.75l5.44-10.7h2.94l2.16,10.7h-2.85l-.39-2.07h-3.38l-1,2.07Zm4.9-4.53h2.12l-.52-3.42Z" transform="translate(-1.9 -1.9)"/><path class="cls-2" d="M596.14,12.75l1.23-8.17h-3l.38-2.53h9l-.39,2.53h-3.07L599,12.75Z" transform="translate(-1.9 -1.9)"/><path class="cls-2" d="M603.43,12.75l1.64-10.7H608l-1.63,10.7Z" transform="translate(-1.9 -1.9)"/><path class="cls-2" d="M613.19,12.9a4.86,4.86,0,0,1-2.66-.68,3.72,3.72,0,0,1-1.52-1.9,6,6,0,0,1-.19-2.9,7,7,0,0,1,1.1-2.91,5.84,5.84,0,0,1,4.94-2.61,4.71,4.71,0,0,1,2.62.69A3.72,3.72,0,0,1,619,4.51a5.76,5.76,0,0,1,.21,2.91,7,7,0,0,1-1.08,2.89,5.74,5.74,0,0,1-2.1,1.91A5.92,5.92,0,0,1,613.19,12.9Zm.34-2.31a2.12,2.12,0,0,0,1.1-.3,2.5,2.5,0,0,0,.88-1,6,6,0,0,0,.54-1.84,5.14,5.14,0,0,0,0-1.91,1.67,1.67,0,0,0-.57-1,1.6,1.6,0,0,0-1-.32,2.11,2.11,0,0,0-1.58.73,4.73,4.73,0,0,0-1,2.53,4.91,4.91,0,0,0,0,1.84,1.62,1.62,0,0,0,.58,1A1.7,1.7,0,0,0,613.53,10.59Z" transform="translate(-1.9 -1.9)"/><path class="cls-2" d="M620.11,12.75l1.64-10.7h2.91l3.26,6,.91-6h2.89l-1.64,10.7h-2.6L624,6.37l-1,6.38Z" transform="translate(-1.9 -1.9)"/><path class="cls-2" d="M637.68,9.54a2.09,2.09,0,0,1-1.13-.31,2.35,2.35,0,0,1-.82-.81,2.22,2.22,0,0,1,0-2.23,2.41,2.41,0,0,1,.82-.8,2.2,2.2,0,0,1,2.25,0,2.33,2.33,0,0,1,.82.8,2.16,2.16,0,0,1,0,2.23,2.27,2.27,0,0,1-.82.81A2.08,2.08,0,0,1,637.68,9.54Z" transform="translate(-1.9 -1.9)"/><path class="cls-2" d="M643.85,12.75l1.65-10.7h7.89L653,4.43h-5l-.27,1.78h4.17l-.35,2.32h-4.19l-.28,1.82h5l-.37,2.4Z" transform="translate(-1.9 -1.9)"/><path class="cls-2" d="M653.55,12.75l1.65-10.7h2.91l3.26,6,.9-6h2.9l-1.65,10.7h-2.6l-3.5-6.38-1,6.38Z" transform="translate(-1.9 -1.9)"/><path class="cls-2" d="M665.66,12.75l1.57-10.7h1.43c.74,0,1.47,0,2.18.06a11.13,11.13,0,0,1,2,.26,4.91,4.91,0,0,1,1.62.68,3.18,3.18,0,0,1,1.09,1.28,4.87,4.87,0,0,1,.39,2.09,7.46,7.46,0,0,1-.1,1.16A7.67,7.67,0,0,1,675.48,9a6,6,0,0,1-.71,1.38,4.91,4.91,0,0,1-1.15,1.22,5.29,5.29,0,0,1-1.71.87,7.49,7.49,0,0,1-2.35.33Zm3.24-2.26h1a2.37,2.37,0,0,0,1.21-.33,3.49,3.49,0,0,0,1-.9A4.62,4.62,0,0,0,672.72,8,4.91,4.91,0,0,0,673,6.43a2.41,2.41,0,0,0-.25-1.17,1.58,1.58,0,0,0-.69-.71,2.27,2.27,0,0,0-1.08-.24h-1.1Z" transform="translate(-1.9 -1.9)"/><path class="cls-2" d="M684.08,12.9a7,7,0,0,1-1.64-.2,4.48,4.48,0,0,1-1.43-.61A2.9,2.9,0,0,1,680,11a2.81,2.81,0,0,1-.28-1.54h3a1.15,1.15,0,0,0,.22.65,1.32,1.32,0,0,0,.56.41,2.42,2.42,0,0,0,.86.14,4.14,4.14,0,0,0,.87-.09,1.65,1.65,0,0,0,.7-.3.86.86,0,0,0,.35-.58.52.52,0,0,0-.18-.51,1.67,1.67,0,0,0-.63-.27l-.84-.17-1.62-.28a2.93,2.93,0,0,1-1.88-1,2.72,2.72,0,0,1-.47-2.15,3.34,3.34,0,0,1,.88-1.85,4.76,4.76,0,0,1,1.82-1.17,6.52,6.52,0,0,1,2.31-.4,5.06,5.06,0,0,1,2.26.47,3.62,3.62,0,0,1,1.44,1.25,2.72,2.72,0,0,1,.46,1.65H687a1.13,1.13,0,0,0-.15-.67,1,1,0,0,0-.51-.37,2.62,2.62,0,0,0-.85-.11,2.52,2.52,0,0,0-.9.13,1.06,1.06,0,0,0-.5.32.79.79,0,0,0-.19.39.64.64,0,0,0,.15.58,1.63,1.63,0,0,0,.88.35l1.62.28a4.49,4.49,0,0,1,1.74.62,2.38,2.38,0,0,1,.84.94,2.69,2.69,0,0,1,.23,1.05,5.26,5.26,0,0,1,0,.92,2.88,2.88,0,0,1-.85,1.63,5,5,0,0,1-1.85,1.13A7.05,7.05,0,0,1,684.08,12.9Z" transform="translate(-1.9 -1.9)"/><path class="cls-2" d="M692.71,12.75,694,4.58h-3l.39-2.53h9l-.38,2.53h-3.07l-1.25,8.17Z" transform="translate(-1.9 -1.9)"/><path class="cls-2" d="M697.91,12.75l5.44-10.7h2.93l2.16,10.7H705.6l-.39-2.07h-3.38l-1.05,2.07Zm4.9-4.53h2.12L704.4,4.8Z" transform="translate(-1.9 -1.9)"/><path class="cls-2" d="M711.26,12.75l1.24-8.17h-3l.39-2.53h9l-.38,2.53h-3.07l-1.25,8.17Z" transform="translate(-1.9 -1.9)"/><path class="cls-2" d="M718.56,12.75l1.64-10.7h2.89l-1.63,10.7Z" transform="translate(-1.9 -1.9)"/><path class="cls-2" d="M728.32,12.9a4.89,4.89,0,0,1-2.66-.68,3.7,3.7,0,0,1-1.51-1.9,6,6,0,0,1-.2-2.9,7.18,7.18,0,0,1,1.1-2.91,5.87,5.87,0,0,1,5-2.61,4.65,4.65,0,0,1,2.61.69,3.74,3.74,0,0,1,1.52,1.92,5.88,5.88,0,0,1,.2,2.91,7,7,0,0,1-1.08,2.89,5.79,5.79,0,0,1-2.09,1.91A5.93,5.93,0,0,1,728.32,12.9Zm.34-2.31a2.15,2.15,0,0,0,1.11-.3,2.49,2.49,0,0,0,.87-1,5.52,5.52,0,0,0,.54-1.84,5.4,5.4,0,0,0,0-1.91,1.77,1.77,0,0,0-.57-1,1.62,1.62,0,0,0-1-.32,2.15,2.15,0,0,0-1.59.73,4.81,4.81,0,0,0-1,2.53,5.09,5.09,0,0,0,0,1.84,1.62,1.62,0,0,0,.58,1A1.67,1.67,0,0,0,728.66,10.59Z" transform="translate(-1.9 -1.9)"/><path class="cls-2" d="M735.22,12.75l1.65-10.7h2.9L743,8l.9-6h2.9l-1.65,10.7h-2.6l-3.5-6.38-1,6.38Z" transform="translate(-1.9 -1.9)"/><path class="cls-2" d="M752.81,9.54a2.11,2.11,0,0,1-1.13-.31,2.25,2.25,0,0,1-.81-.81,2.22,2.22,0,0,1,0-2.23,2.3,2.3,0,0,1,.81-.8,2.21,2.21,0,0,1,2.26,0,2.3,2.3,0,0,1,.81.8,2.16,2.16,0,0,1,0,2.23,2.25,2.25,0,0,1-.81.81A2.11,2.11,0,0,1,752.81,9.54Z" transform="translate(-1.9 -1.9)"/><path class="cls-2" d="M759,12.75l1.65-10.7h7.9l-.38,2.38h-5l-.27,1.78H767l-.35,2.32h-4.19l-.28,1.82h5l-.37,2.4Z" transform="translate(-1.9 -1.9)"/><path class="cls-2" d="M768.66,12.75l1.65-10.7h2.91l3.26,6,.9-6h2.9l-1.65,10.7H776l-3.5-6.38-1,6.38Z" transform="translate(-1.9 -1.9)"/><path class="cls-2" d="M780.78,12.75l1.57-10.7h1.43q1.13,0,2.19.06a10.9,10.9,0,0,1,2,.26,4.83,4.83,0,0,1,1.62.68,3.11,3.11,0,0,1,1.09,1.28,4.87,4.87,0,0,1,.39,2.09,7.46,7.46,0,0,1-.1,1.16A6.9,6.9,0,0,1,790.6,9a6,6,0,0,1-.7,1.38,5,5,0,0,1-1.16,1.22,5.34,5.34,0,0,1-1.7.87,7.55,7.55,0,0,1-2.36.33ZM784,10.49h1a2.34,2.34,0,0,0,1.21-.33,3.25,3.25,0,0,0,1-.9A4.62,4.62,0,0,0,787.84,8a4.91,4.91,0,0,0,.24-1.54,2.54,2.54,0,0,0-.24-1.17,1.58,1.58,0,0,0-.69-.71,2.31,2.31,0,0,0-1.09-.24H785Z" transform="translate(-1.9 -1.9)"/><path class="cls-2" d="M799.17,12.9a7,7,0,0,1-1.64-.2,4.48,4.48,0,0,1-1.43-.61,2.9,2.9,0,0,1-1-1.06,2.81,2.81,0,0,1-.28-1.54h3a1.15,1.15,0,0,0,.22.65,1.32,1.32,0,0,0,.56.41,2.42,2.42,0,0,0,.86.14,4.14,4.14,0,0,0,.87-.09,1.65,1.65,0,0,0,.7-.3.86.86,0,0,0,.35-.58.52.52,0,0,0-.18-.51,1.67,1.67,0,0,0-.63-.27l-.84-.17-1.62-.28a2.93,2.93,0,0,1-1.88-1,2.72,2.72,0,0,1-.47-2.15,3.34,3.34,0,0,1,.88-1.85,4.8,4.8,0,0,1,1.81-1.17,6.62,6.62,0,0,1,2.32-.4,5.06,5.06,0,0,1,2.26.47,3.62,3.62,0,0,1,1.44,1.25A2.72,2.72,0,0,1,805,5.29H802a1.13,1.13,0,0,0-.15-.67,1,1,0,0,0-.51-.37,2.62,2.62,0,0,0-.85-.11,2.52,2.52,0,0,0-.9.13,1.06,1.06,0,0,0-.5.32.79.79,0,0,0-.19.39.64.64,0,0,0,.15.58,1.59,1.59,0,0,0,.88.35l1.62.28a4.49,4.49,0,0,1,1.74.62,2.38,2.38,0,0,1,.84.94,2.69,2.69,0,0,1,.23,1.05,5.26,5.26,0,0,1,0,.92,2.88,2.88,0,0,1-.85,1.63,5,5,0,0,1-1.85,1.13A7.05,7.05,0,0,1,799.17,12.9Z" transform="translate(-1.9 -1.9)"/><path class="cls-2" d="M807.84,12.75l1.23-8.17h-3l.39-2.53h9L815,4.58H812l-1.25,8.17Z" transform="translate(-1.9 -1.9)"/><path class="cls-2" d="M813,12.75l5.44-10.7h2.94l2.16,10.7h-2.85l-.38-2.07H817l-1,2.07Zm4.91-4.53h2.11l-.52-3.42Z" transform="translate(-1.9 -1.9)"/><path class="cls-2" d="M826.38,12.75l1.23-8.17h-3L825,2.05h9l-.39,2.53H830.5l-1.25,8.17Z" transform="translate(-1.9 -1.9)"/><path class="cls-2" d="M833.67,12.75l1.63-10.7h2.89l-1.62,10.7Z" transform="translate(-1.9 -1.9)"/><path class="cls-2" d="M843.45,12.9a4.86,4.86,0,0,1-2.66-.68,3.72,3.72,0,0,1-1.52-1.9,6,6,0,0,1-.19-2.9,7,7,0,0,1,1.1-2.91,5.84,5.84,0,0,1,4.94-2.61,4.71,4.71,0,0,1,2.62.69,3.72,3.72,0,0,1,1.51,1.92,5.76,5.76,0,0,1,.21,2.91,7,7,0,0,1-1.08,2.89,5.74,5.74,0,0,1-2.1,1.91A5.92,5.92,0,0,1,843.45,12.9Zm.34-2.31a2.12,2.12,0,0,0,1.1-.3,2.5,2.5,0,0,0,.88-1,6,6,0,0,0,.54-1.84,5.14,5.14,0,0,0,0-1.91,1.67,1.67,0,0,0-.57-1,1.6,1.6,0,0,0-1-.32,2.11,2.11,0,0,0-1.58.73,4.73,4.73,0,0,0-1,2.53,4.91,4.91,0,0,0,0,1.84,1.62,1.62,0,0,0,.58,1A1.7,1.7,0,0,0,843.79,10.59Z" transform="translate(-1.9 -1.9)"/><path class="cls-2" d="M850.33,12.75,852,2.05h2.91l3.26,6,.9-6h2.9l-1.65,10.7h-2.6l-3.5-6.38-1,6.38Z" transform="translate(-1.9 -1.9)"/><path class="cls-2" d="M867.92,9.54a2.08,2.08,0,0,1-1.12-.31,2.27,2.27,0,0,1-.82-.81,2.22,2.22,0,0,1,0-2.23,2.33,2.33,0,0,1,.82-.8,2.2,2.2,0,0,1,2.25,0,2.33,2.33,0,0,1,.82.8,2.22,2.22,0,0,1,0,2.23,2.27,2.27,0,0,1-.82.81A2.09,2.09,0,0,1,867.92,9.54Z" transform="translate(-1.9 -1.9)"/><path class="cls-2" d="M874.07,12.75l1.65-10.7h7.89l-.37,2.38h-5L878,6.21h4.17l-.35,2.32h-4.19l-.28,1.82h5l-.37,2.4Z" transform="translate(-1.9 -1.9)"/><path class="cls-2" d="M883.78,12.75l1.65-10.7h2.9l3.27,6,.9-6h2.9l-1.65,10.7h-2.6l-3.5-6.38-1,6.38Z" transform="translate(-1.9 -1.9)"/><path class="cls-2" d="M895.87,12.75l1.58-10.7h1.43c.74,0,1.47,0,2.18.06a10.9,10.9,0,0,1,2,.26,4.88,4.88,0,0,1,1.63.68,3.18,3.18,0,0,1,1.09,1.28,4.87,4.87,0,0,1,.39,2.09,8.94,8.94,0,0,1-.1,1.16A8.63,8.63,0,0,1,905.7,9a6,6,0,0,1-.71,1.38,5,5,0,0,1-1.16,1.22,5.14,5.14,0,0,1-1.7.87,7.49,7.49,0,0,1-2.35.33Zm3.24-2.26h1a2.37,2.37,0,0,0,1.21-.33,3.33,3.33,0,0,0,1-.9A4.39,4.39,0,0,0,902.94,8a4.91,4.91,0,0,0,.24-1.54,2.53,2.53,0,0,0-.25-1.17,1.58,1.58,0,0,0-.69-.71,2.27,2.27,0,0,0-1.08-.24h-1.11Z" transform="translate(-1.9 -1.9)"/><path class="cls-2" d="M914.31,12.9a6.88,6.88,0,0,1-1.64-.2,4.39,4.39,0,0,1-1.43-.61,2.82,2.82,0,0,1-1-1.06A2.72,2.72,0,0,1,910,9.49h3a1.16,1.16,0,0,0,.23.65,1.29,1.29,0,0,0,.55.41,2.46,2.46,0,0,0,.86.14,4.14,4.14,0,0,0,.87-.09,1.7,1.7,0,0,0,.71-.3.85.85,0,0,0,.34-.58.48.48,0,0,0-.18-.51,1.67,1.67,0,0,0-.63-.27c-.26-.06-.54-.12-.84-.17l-1.62-.28a3,3,0,0,1-1.88-1,2.72,2.72,0,0,1-.46-2.15,3.22,3.22,0,0,1,.88-1.85,4.73,4.73,0,0,1,1.81-1.17,6.52,6.52,0,0,1,2.31-.4,5,5,0,0,1,2.26.47,3.72,3.72,0,0,1,1.45,1.25,2.79,2.79,0,0,1,.46,1.65h-2.93a1.06,1.06,0,0,0-.15-.67,1,1,0,0,0-.51-.37,2.62,2.62,0,0,0-.85-.11,2.52,2.52,0,0,0-.9.13,1.11,1.11,0,0,0-.5.32.79.79,0,0,0-.19.39.66.66,0,0,0,.15.58,1.63,1.63,0,0,0,.89.35l1.61.28a4.6,4.6,0,0,1,1.75.62,2.28,2.28,0,0,1,.83.94,2.9,2.9,0,0,1,.24,1.05,6.46,6.46,0,0,1,0,.92,2.9,2.9,0,0,1-.86,1.63,5,5,0,0,1-1.85,1.13A7,7,0,0,1,914.31,12.9Z" transform="translate(-1.9 -1.9)"/><path class="cls-2" d="M922.93,12.75l1.24-8.17h-3l.39-2.53h9l-.39,2.53h-3.07l-1.25,8.17Z" transform="translate(-1.9 -1.9)"/><path class="cls-2" d="M928.14,12.75l5.44-10.7h2.94l2.16,10.7h-2.85l-.39-2.07h-3.38l-1,2.07ZM933,8.22h2.12l-.52-3.42Z" transform="translate(-1.9 -1.9)"/><path class="cls-2" d="M941.48,12.75l1.24-8.17h-3l.39-2.53h9l-.38,2.53h-3.07l-1.25,8.17Z" transform="translate(-1.9 -1.9)"/><path class="cls-2" d="M948.78,12.75l1.64-10.7h2.89l-1.63,10.7Z" transform="translate(-1.9 -1.9)"/><path class="cls-2" d="M958.54,12.9a4.86,4.86,0,0,1-2.66-.68,3.72,3.72,0,0,1-1.52-1.9,6,6,0,0,1-.19-2.9,7,7,0,0,1,1.1-2.91,5.84,5.84,0,0,1,4.94-2.61,4.71,4.71,0,0,1,2.62.69,3.72,3.72,0,0,1,1.51,1.92,5.76,5.76,0,0,1,.21,2.91,7,7,0,0,1-1.08,2.89,5.74,5.74,0,0,1-2.1,1.91A5.92,5.92,0,0,1,958.54,12.9Zm.34-2.31a2.12,2.12,0,0,0,1.1-.3,2.5,2.5,0,0,0,.88-1,6,6,0,0,0,.54-1.84,5.14,5.14,0,0,0,0-1.91,1.67,1.67,0,0,0-.57-1,1.6,1.6,0,0,0-1-.32,2.11,2.11,0,0,0-1.58.73,4.73,4.73,0,0,0-1,2.53,4.91,4.91,0,0,0,0,1.84,1.62,1.62,0,0,0,.58,1A1.7,1.7,0,0,0,958.88,10.59Z" transform="translate(-1.9 -1.9)"/><path class="cls-2" d="M965.45,12.75l1.65-10.7H970l3.26,6,.9-6h2.9l-1.65,10.7h-2.6l-3.5-6.38-1,6.38Z" transform="translate(-1.9 -1.9)"/><path class="cls-2" d="M983,9.54a2.09,2.09,0,0,1-1.13-.31,2.25,2.25,0,0,1-.81-.81,2.16,2.16,0,0,1,0-2.23,2.3,2.3,0,0,1,.81-.8,2.2,2.2,0,0,1,2.25,0,2.25,2.25,0,0,1,.82.8,2.16,2.16,0,0,1,0,2.23,2.2,2.2,0,0,1-.82.81A2.08,2.08,0,0,1,983,9.54Z" transform="translate(-1.9 -1.9)"/><path class="cls-2" d="M989.18,12.75l1.65-10.7h7.9l-.37,2.38h-5l-.26,1.78h4.16l-.35,2.32h-4.19l-.28,1.82h5l-.38,2.4Z" transform="translate(-1.9 -1.9)"/><path class="cls-2" d="M998.9,12.75l1.65-10.7h2.9l3.26,6,.91-6h2.89l-1.64,10.7h-2.6l-3.5-6.38-1,6.38Z" transform="translate(-1.9 -1.9)"/><path class="cls-2" d="M1011,12.75l1.57-10.7H1014c.74,0,1.47,0,2.18.06a11.13,11.13,0,0,1,2,.26,4.91,4.91,0,0,1,1.62.68,3.18,3.18,0,0,1,1.09,1.28,4.87,4.87,0,0,1,.39,2.09,7.46,7.46,0,0,1-.1,1.16,7.67,7.67,0,0,1-.35,1.37,6,6,0,0,1-.71,1.38,4.91,4.91,0,0,1-1.15,1.22,5.29,5.29,0,0,1-1.71.87,7.49,7.49,0,0,1-2.35.33Zm3.24-2.26h1a2.37,2.37,0,0,0,1.21-.33,3.49,3.49,0,0,0,1-.9,4.62,4.62,0,0,0,.66-1.29,4.91,4.91,0,0,0,.24-1.54,2.41,2.41,0,0,0-.25-1.17,1.58,1.58,0,0,0-.69-.71,2.27,2.27,0,0,0-1.08-.24h-1.1Z" transform="translate(-1.9 -1.9)"/><path class="cls-2" d="M1029.42,12.9a7,7,0,0,1-1.64-.2,4.33,4.33,0,0,1-1.42-.61,2.85,2.85,0,0,1-1-1.06,2.81,2.81,0,0,1-.28-1.54h3a1.15,1.15,0,0,0,.22.65,1.32,1.32,0,0,0,.56.41,2.42,2.42,0,0,0,.86.14,4.14,4.14,0,0,0,.87-.09,1.65,1.65,0,0,0,.7-.3.86.86,0,0,0,.35-.58.52.52,0,0,0-.18-.51,1.67,1.67,0,0,0-.63-.27l-.84-.17-1.62-.28a2.93,2.93,0,0,1-1.88-1,2.72,2.72,0,0,1-.47-2.15,3.29,3.29,0,0,1,.89-1.85,4.65,4.65,0,0,1,1.81-1.17,6.52,6.52,0,0,1,2.31-.4,5.06,5.06,0,0,1,2.26.47,3.62,3.62,0,0,1,1.44,1.25,2.72,2.72,0,0,1,.46,1.65h-2.92a1.13,1.13,0,0,0-.15-.67,1,1,0,0,0-.51-.37,2.62,2.62,0,0,0-.85-.11,2.52,2.52,0,0,0-.9.13,1.06,1.06,0,0,0-.5.32.79.79,0,0,0-.19.39.64.64,0,0,0,.15.58,1.63,1.63,0,0,0,.88.35l1.62.28a4.49,4.49,0,0,1,1.74.62,2.38,2.38,0,0,1,.84.94,2.9,2.9,0,0,1,.24,1.05,6.36,6.36,0,0,1-.06.92,2.88,2.88,0,0,1-.85,1.63,5,5,0,0,1-1.85,1.13A7.05,7.05,0,0,1,1029.42,12.9Z" transform="translate(-1.9 -1.9)"/><path class="cls-2" d="M1038.05,12.75l1.24-8.17h-3l.38-2.53h9l-.39,2.53h-3.07l-1.25,8.17Z" transform="translate(-1.9 -1.9)"/><path class="cls-2" d="M1043.27,12.75l5.44-10.7h2.94l2.16,10.7H1051l-.39-2.07h-3.38l-1,2.07Zm4.9-4.53h2.12l-.52-3.42Z" transform="translate(-1.9 -1.9)"/><path class="cls-2" d="M1056.59,12.75l1.24-8.17h-3l.39-2.53h9l-.39,2.53h-3.07l-1.25,8.17Z" transform="translate(-1.9 -1.9)"/><path class="cls-2" d="M1063.89,12.75l1.64-10.7h2.89l-1.63,10.7Z" transform="translate(-1.9 -1.9)"/><path class="cls-2" d="M1073.67,12.9a4.89,4.89,0,0,1-2.66-.68,3.7,3.7,0,0,1-1.51-1.9,5.84,5.84,0,0,1-.19-2.9,7,7,0,0,1,1.1-2.91,5.84,5.84,0,0,1,4.94-2.61,4.71,4.71,0,0,1,2.62.69,3.72,3.72,0,0,1,1.51,1.92,5.76,5.76,0,0,1,.21,2.91,7,7,0,0,1-1.08,2.89,5.74,5.74,0,0,1-2.1,1.91A5.93,5.93,0,0,1,1073.67,12.9Zm.35-2.31a2.14,2.14,0,0,0,1.1-.3,2.5,2.5,0,0,0,.88-1,6,6,0,0,0,.54-1.84,5.36,5.36,0,0,0,0-1.91,1.67,1.67,0,0,0-.57-1,1.6,1.6,0,0,0-1-.32,2.11,2.11,0,0,0-1.58.73,4.73,4.73,0,0,0-1,2.53,4.91,4.91,0,0,0,0,1.84,1.62,1.62,0,0,0,.58,1A1.68,1.68,0,0,0,1074,10.59Z" transform="translate(-1.9 -1.9)"/><path class="cls-2" d="M1080.57,12.75l1.65-10.7h2.9l3.26,6,.91-6h2.89l-1.64,10.7h-2.6l-3.5-6.38-1,6.38Z" transform="translate(-1.9 -1.9)"/><path class="cls-2" d="M1098.15,9.54a2.08,2.08,0,0,1-1.12-.31,2.27,2.27,0,0,1-.82-.81,2.22,2.22,0,0,1,0-2.23,2.33,2.33,0,0,1,.82-.8,2.2,2.2,0,0,1,2.25,0,2.33,2.33,0,0,1,.82.8,2.22,2.22,0,0,1,0,2.23,2.27,2.27,0,0,1-.82.81A2.09,2.09,0,0,1,1098.15,9.54Z" transform="translate(-1.9 -1.9)"/><path class="cls-2" d="M1104.31,12.75,1106,2.05h7.9l-.37,2.38h-5l-.27,1.78h4.16L1112,8.53h-4.19l-.28,1.82h5l-.37,2.4Z" transform="translate(-1.9 -1.9)"/><path class="cls-2" d="M1114,12.75l1.65-10.7h2.91l3.26,6,.9-6h2.9L1124,12.75h-2.6l-3.5-6.38-1,6.38Z" transform="translate(-1.9 -1.9)"/><path class="cls-2" d="M1126.12,12.75l1.58-10.7h1.43c.74,0,1.47,0,2.18.06a11.13,11.13,0,0,1,2,.26,4.91,4.91,0,0,1,1.62.68A3.18,3.18,0,0,1,1136,4.33a4.87,4.87,0,0,1,.39,2.09,8.94,8.94,0,0,1-.1,1.16A8.63,8.63,0,0,1,1136,9a6,6,0,0,1-.71,1.38,5.1,5.1,0,0,1-1.15,1.22,5.29,5.29,0,0,1-1.71.87,7.49,7.49,0,0,1-2.35.33Zm3.24-2.26h1a2.37,2.37,0,0,0,1.21-.33,3.33,3.33,0,0,0,1-.9,4.39,4.39,0,0,0,.67-1.29,4.91,4.91,0,0,0,.24-1.54,2.53,2.53,0,0,0-.25-1.17,1.58,1.58,0,0,0-.69-.71,2.27,2.27,0,0,0-1.08-.24h-1.11Z" transform="translate(-1.9 -1.9)"/><path class="cls-2" d="M1144.52,12.9a6.88,6.88,0,0,1-1.64-.2,4.48,4.48,0,0,1-1.43-.61,2.9,2.9,0,0,1-1-1.06,2.81,2.81,0,0,1-.28-1.54h3a1.15,1.15,0,0,0,.22.65,1.26,1.26,0,0,0,.56.41,2.42,2.42,0,0,0,.86.14,4.14,4.14,0,0,0,.87-.09,1.71,1.71,0,0,0,.7-.3.86.86,0,0,0,.35-.58.52.52,0,0,0-.18-.51,1.67,1.67,0,0,0-.63-.27c-.27-.06-.55-.12-.85-.17l-1.61-.28a2.91,2.91,0,0,1-1.88-1,2.72,2.72,0,0,1-.47-2.15,3.28,3.28,0,0,1,.88-1.85,4.8,4.8,0,0,1,1.81-1.17,6.62,6.62,0,0,1,2.32-.4,5.06,5.06,0,0,1,2.26.47,3.62,3.62,0,0,1,1.44,1.25,2.72,2.72,0,0,1,.46,1.65h-2.93a1.06,1.06,0,0,0-.14-.67,1,1,0,0,0-.51-.37,2.62,2.62,0,0,0-.85-.11,2.52,2.52,0,0,0-.9.13,1.15,1.15,0,0,0-.51.32.88.88,0,0,0-.19.39.67.67,0,0,0,.16.58,1.59,1.59,0,0,0,.88.35l1.62.28a4.49,4.49,0,0,1,1.74.62,2.28,2.28,0,0,1,.83.94,2.54,2.54,0,0,1,.24,1.05,5.26,5.26,0,0,1,0,.92,2.84,2.84,0,0,1-.86,1.63,4.9,4.9,0,0,1-1.84,1.13A7.05,7.05,0,0,1,1144.52,12.9Z" transform="translate(-1.9 -1.9)"/><path class="cls-2" d="M1153.17,12.75l1.24-8.17h-3l.39-2.53h9l-.39,2.53h-3.07l-1.25,8.17Z" transform="translate(-1.9 -1.9)"/><path class="cls-2" d="M1158.37,12.75l5.44-10.7h2.94l2.16,10.7h-2.85l-.38-2.07h-3.39l-1,2.07Zm4.91-4.53h2.11l-.52-3.42Z" transform="translate(-1.9 -1.9)"/><path class="cls-2" d="M1171.7,12.75l1.23-8.17h-3l.39-2.53h9l-.39,2.53h-3.06l-1.26,8.17Z" transform="translate(-1.9 -1.9)"/><path class="cls-2" d="M1179,12.75l1.63-10.7h2.89l-1.62,10.7Z" transform="translate(-1.9 -1.9)"/><path class="cls-2" d="M1188.77,12.9a4.86,4.86,0,0,1-2.66-.68,3.66,3.66,0,0,1-1.51-1.9,5.83,5.83,0,0,1-.2-2.9,7.18,7.18,0,0,1,1.1-2.91,5.79,5.79,0,0,1,2.11-1.92,5.87,5.87,0,0,1,2.83-.69,4.71,4.71,0,0,1,2.62.69,3.79,3.79,0,0,1,1.52,1.92,5.88,5.88,0,0,1,.2,2.91,7,7,0,0,1-1.08,2.89,5.79,5.79,0,0,1-2.09,1.91A6,6,0,0,1,1188.77,12.9Zm.34-2.31a2.09,2.09,0,0,0,1.1-.3,2.5,2.5,0,0,0,.88-1,6,6,0,0,0,.54-1.84,5.4,5.4,0,0,0,0-1.91,1.77,1.77,0,0,0-.57-1,1.62,1.62,0,0,0-1-.32,2.13,2.13,0,0,0-1.58.73,4.81,4.81,0,0,0-1,2.53,5.13,5.13,0,0,0,0,1.84,1.67,1.67,0,0,0,.58,1A1.7,1.7,0,0,0,1189.11,10.59Z" transform="translate(-1.9 -1.9)"/><path class="cls-2" d="M1195.69,12.75l1.64-10.7h2.91l3.26,6,.9-6h2.9l-1.64,10.7h-2.61l-3.5-6.38-1,6.38Z" transform="translate(-1.9 -1.9)"/><path class="cls-2" d="M1213.26,9.54a2.11,2.11,0,0,1-1.13-.31,2.25,2.25,0,0,1-.81-.81,2.22,2.22,0,0,1,0-2.23,2.3,2.3,0,0,1,.81-.8,2.21,2.21,0,0,1,2.26,0,2.3,2.3,0,0,1,.81.8,2.16,2.16,0,0,1,0,2.23,2.25,2.25,0,0,1-.81.81A2.11,2.11,0,0,1,1213.26,9.54Z" transform="translate(-1.9 -1.9)"/><path class="cls-2" d="M1219.41,12.75l1.65-10.7h7.9l-.37,2.38h-5l-.26,1.78h4.16l-.35,2.32H1223l-.28,1.82h5l-.38,2.4Z" transform="translate(-1.9 -1.9)"/><path class="cls-2" d="M1229.13,12.75l1.65-10.7h2.9L1237,8l.9-6h2.89l-1.64,10.7h-2.6L1233,6.37l-1,6.38Z" transform="translate(-1.9 -1.9)"/><path class="cls-2" d="M1241.23,12.75l1.57-10.7h1.43c.75,0,1.47,0,2.18.06a11,11,0,0,1,2,.26,4.91,4.91,0,0,1,1.62.68,3.11,3.11,0,0,1,1.09,1.28,4.87,4.87,0,0,1,.39,2.09,7.46,7.46,0,0,1-.1,1.16,7.67,7.67,0,0,1-.35,1.37,6,6,0,0,1-.7,1.38,5.14,5.14,0,0,1-1.16,1.22,5.34,5.34,0,0,1-1.7.87,7.55,7.55,0,0,1-2.36.33Zm3.24-2.26h1a2.34,2.34,0,0,0,1.21-.33,3.37,3.37,0,0,0,1-.9,4.62,4.62,0,0,0,.66-1.29,4.91,4.91,0,0,0,.24-1.54,2.54,2.54,0,0,0-.24-1.17,1.55,1.55,0,0,0-.7-.71,2.27,2.27,0,0,0-1.08-.24h-1.1Z" transform="translate(-1.9 -1.9)"/><path class="cls-2" d="M1259.65,12.9a7,7,0,0,1-1.65-.2,4.33,4.33,0,0,1-1.42-.61,2.82,2.82,0,0,1-1-1.06,2.64,2.64,0,0,1-.28-1.54h3a1.23,1.23,0,0,0,.22.65,1.39,1.39,0,0,0,.56.41,2.46,2.46,0,0,0,.86.14,4.14,4.14,0,0,0,.87-.09,1.7,1.7,0,0,0,.71-.3.85.85,0,0,0,.34-.58.48.48,0,0,0-.18-.51,1.67,1.67,0,0,0-.63-.27c-.26-.06-.54-.12-.84-.17l-1.62-.28a3,3,0,0,1-1.88-1,2.76,2.76,0,0,1-.47-2.15,3.29,3.29,0,0,1,.89-1.85A4.73,4.73,0,0,1,1259,2.32a6.52,6.52,0,0,1,2.31-.4,5.06,5.06,0,0,1,2.26.47A3.62,3.62,0,0,1,1265,3.64a2.73,2.73,0,0,1,.47,1.65h-2.93a1.13,1.13,0,0,0-.15-.67,1,1,0,0,0-.51-.37,2.62,2.62,0,0,0-.85-.11,2.52,2.52,0,0,0-.9.13,1.11,1.11,0,0,0-.5.32.79.79,0,0,0-.19.39.66.66,0,0,0,.15.58,1.63,1.63,0,0,0,.88.35l1.62.28a4.6,4.6,0,0,1,1.75.62,2.28,2.28,0,0,1,.83.94,2.9,2.9,0,0,1,.24,1.05,6.46,6.46,0,0,1-.05.92,2.9,2.9,0,0,1-.86,1.63,5,5,0,0,1-1.85,1.13A7,7,0,0,1,1259.65,12.9Z" transform="translate(-1.9 -1.9)"/><path class="cls-2" d="M1268.28,12.75l1.24-8.17h-3l.38-2.53h9l-.39,2.53h-3.07l-1.25,8.17Z" transform="translate(-1.9 -1.9)"/><path class="cls-2" d="M1273.5,12.75l5.44-10.7h2.94l2.16,10.7h-2.85l-.39-2.07h-3.38l-1,2.07Zm4.9-4.53h2.12L1280,4.8Z" transform="translate(-1.9 -1.9)"/><path class="cls-2" d="M1286.82,12.75l1.24-8.17h-3l.38-2.53h9L1294,4.58H1291l-1.25,8.17Z" transform="translate(-1.9 -1.9)"/><path class="cls-2" d="M1294.12,12.75l1.63-10.7h2.89L1297,12.75Z" transform="translate(-1.9 -1.9)"/><path class="cls-2" d="M1303.89,12.9a4.89,4.89,0,0,1-2.66-.68,3.66,3.66,0,0,1-1.51-1.9,5.83,5.83,0,0,1-.2-2.9,7.18,7.18,0,0,1,1.1-2.91,5.79,5.79,0,0,1,2.11-1.92,5.87,5.87,0,0,1,2.83-.69,4.71,4.71,0,0,1,2.62.69,3.74,3.74,0,0,1,1.52,1.92,5.88,5.88,0,0,1,.2,2.91,7,7,0,0,1-1.08,2.89,5.79,5.79,0,0,1-2.09,1.91A6,6,0,0,1,1303.89,12.9Zm.34-2.31a2.09,2.09,0,0,0,1.1-.3,2.5,2.5,0,0,0,.88-1,6,6,0,0,0,.54-1.84,5.4,5.4,0,0,0,0-1.91,1.77,1.77,0,0,0-.57-1,1.62,1.62,0,0,0-1-.32,2.13,2.13,0,0,0-1.58.73,4.81,4.81,0,0,0-1,2.53,5.13,5.13,0,0,0,0,1.84,1.63,1.63,0,0,0,.59,1A1.65,1.65,0,0,0,1304.23,10.59Z" transform="translate(-1.9 -1.9)"/><path class="cls-2" d="M1310.8,12.75l1.65-10.7h2.9l3.27,6,.9-6h2.9l-1.65,10.7h-2.6l-3.5-6.38-1,6.38Z" transform="translate(-1.9 -1.9)"/><path class="cls-2" d="M1328.38,9.54a2.11,2.11,0,0,1-1.13-.31,2.25,2.25,0,0,1-.81-.81,2.22,2.22,0,0,1,0-2.23,2.3,2.3,0,0,1,.81-.8,2.21,2.21,0,0,1,2.26,0,2.41,2.41,0,0,1,.82.8,2.22,2.22,0,0,1,0,2.23,2.35,2.35,0,0,1-.82.81A2.11,2.11,0,0,1,1328.38,9.54Z" transform="translate(-1.9 -1.9)"/><path class="cls-2" d="M1334.52,12.75l1.65-10.7h7.9l-.37,2.38h-5l-.26,1.78h4.16l-.35,2.32h-4.19l-.28,1.82h5l-.37,2.4Z" transform="translate(-1.9 -1.9)"/><path class="cls-2" d="M1344.24,12.75l1.64-10.7h2.91l3.26,6,.9-6h2.9l-1.65,10.7h-2.6l-3.5-6.38-1,6.38Z" transform="translate(-1.9 -1.9)"/><path class="cls-2" d="M1356.35,12.75l1.58-10.7h1.43c.74,0,1.47,0,2.18.06a11.13,11.13,0,0,1,2,.26,4.91,4.91,0,0,1,1.62.68,3.18,3.18,0,0,1,1.09,1.28,4.87,4.87,0,0,1,.39,2.09,7.46,7.46,0,0,1-.1,1.16,7.67,7.67,0,0,1-.35,1.37,6,6,0,0,1-.71,1.38,4.91,4.91,0,0,1-1.15,1.22,5.29,5.29,0,0,1-1.71.87,7.49,7.49,0,0,1-2.35.33Zm3.25-2.26h1a2.37,2.37,0,0,0,1.21-.33,3.33,3.33,0,0,0,1-.9,4.39,4.39,0,0,0,.67-1.29,4.91,4.91,0,0,0,.24-1.54,2.41,2.41,0,0,0-.25-1.17,1.58,1.58,0,0,0-.69-.71,2.27,2.27,0,0,0-1.08-.24h-1.11Z" transform="translate(-1.9 -1.9)"/><path class="cls-2" d="M1374.76,12.9a6.88,6.88,0,0,1-1.64-.2,4.48,4.48,0,0,1-1.43-.61,2.9,2.9,0,0,1-1-1.06,2.81,2.81,0,0,1-.28-1.54h3a1.15,1.15,0,0,0,.22.65,1.26,1.26,0,0,0,.56.41,2.42,2.42,0,0,0,.86.14,4.14,4.14,0,0,0,.87-.09,1.65,1.65,0,0,0,.7-.3.86.86,0,0,0,.35-.58.52.52,0,0,0-.18-.51,1.67,1.67,0,0,0-.63-.27c-.27-.06-.55-.12-.85-.17l-1.61-.28a2.93,2.93,0,0,1-1.88-1,2.72,2.72,0,0,1-.47-2.15,3.34,3.34,0,0,1,.88-1.85,4.8,4.8,0,0,1,1.81-1.17,6.62,6.62,0,0,1,2.32-.4,5.06,5.06,0,0,1,2.26.47,3.62,3.62,0,0,1,1.44,1.25,2.72,2.72,0,0,1,.46,1.65h-2.93a1.06,1.06,0,0,0-.14-.67,1,1,0,0,0-.51-.37,2.62,2.62,0,0,0-.85-.11,2.52,2.52,0,0,0-.9.13,1.15,1.15,0,0,0-.51.32.88.88,0,0,0-.19.39.67.67,0,0,0,.16.58,1.59,1.59,0,0,0,.88.35l1.62.28a4.49,4.49,0,0,1,1.74.62,2.38,2.38,0,0,1,.84.94A2.69,2.69,0,0,1,1380,8.8a5.26,5.26,0,0,1,0,.92,2.84,2.84,0,0,1-.86,1.63,4.9,4.9,0,0,1-1.84,1.13A7.05,7.05,0,0,1,1374.76,12.9Z" transform="translate(-1.9 -1.9)"/><path class="cls-2" d="M1383.42,12.75l1.23-8.17h-3l.39-2.53h9l-.39,2.53h-3.07l-1.25,8.17Z" transform="translate(-1.9 -1.9)"/><path class="cls-2" d="M1388.62,12.75l5.44-10.7H1397l2.17,10.7h-2.85l-.39-2.07h-3.38l-1,2.07Zm4.9-4.53h2.12l-.52-3.42Z" transform="translate(-1.9 -1.9)"/><path class="cls-2" d="M1402,12.75l1.24-8.17h-3l.38-2.53h9l-.39,2.53h-3.07l-1.25,8.17Z" transform="translate(-1.9 -1.9)"/><path class="cls-2" d="M1409.23,12.75l1.63-10.7h2.89l-1.62,10.7Z" transform="translate(-1.9 -1.9)"/><path class="cls-2" d="M1419,12.9a4.89,4.89,0,0,1-2.66-.68,3.7,3.7,0,0,1-1.51-1.9,5.84,5.84,0,0,1-.19-2.9,7,7,0,0,1,1.1-2.91,5.84,5.84,0,0,1,4.94-2.61,4.71,4.71,0,0,1,2.62.69,3.72,3.72,0,0,1,1.51,1.92,5.87,5.87,0,0,1,.21,2.91,7,7,0,0,1-1.08,2.89,5.82,5.82,0,0,1-2.1,1.91A5.93,5.93,0,0,1,1419,12.9Zm.35-2.31a2.14,2.14,0,0,0,1.1-.3,2.41,2.41,0,0,0,.87-1,5.52,5.52,0,0,0,.54-1.84,5.18,5.18,0,0,0,0-1.91,1.67,1.67,0,0,0-.57-1,1.6,1.6,0,0,0-1-.32,2.11,2.11,0,0,0-1.58.73,4.73,4.73,0,0,0-1,2.53,4.91,4.91,0,0,0,0,1.84,1.62,1.62,0,0,0,.58,1A1.68,1.68,0,0,0,1419.37,10.59Z" transform="translate(-1.9 -1.9)"/><path class="cls-2" d="M1425.91,12.75l1.65-10.7h2.91l3.26,6,.9-6h2.9l-1.65,10.7h-2.6l-3.5-6.38-1,6.38Z" transform="translate(-1.9 -1.9)"/><path class="cls-2" d="M1443.5,9.54a2.11,2.11,0,0,1-1.13-.31,2.25,2.25,0,0,1-.81-.81,2.22,2.22,0,0,1,0-2.23,2.3,2.3,0,0,1,.81-.8,2.21,2.21,0,0,1,2.26,0,2.3,2.3,0,0,1,.81.8,2.16,2.16,0,0,1,0,2.23,2.25,2.25,0,0,1-.81.81A2.11,2.11,0,0,1,1443.5,9.54Z" transform="translate(-1.9 -1.9)"/><path class="cls-2" d="M1449.67,12.75l1.64-10.7h7.9l-.37,2.38h-5l-.27,1.78h4.16l-.35,2.32h-4.18l-.29,1.82h5l-.37,2.4Z" transform="translate(-1.9 -1.9)"/><path class="cls-2" d="M1459.36,12.75,1461,2.05h2.9l3.27,6,.9-6H1471l-1.64,10.7h-2.6l-3.5-6.38-1,6.38Z" transform="translate(-1.9 -1.9)"/><path class="cls-2" d="M1471.47,12.75,1473,2.05h1.43q1.13,0,2.19.06a10.9,10.9,0,0,1,2,.26,4.74,4.74,0,0,1,1.62.68,3.11,3.11,0,0,1,1.09,1.28,4.87,4.87,0,0,1,.39,2.09,7.46,7.46,0,0,1-.1,1.16,6.9,6.9,0,0,1-.35,1.37,6,6,0,0,1-.7,1.38,5,5,0,0,1-1.16,1.22,5.34,5.34,0,0,1-1.7.87,7.55,7.55,0,0,1-2.36.33Zm3.24-2.26h1a2.34,2.34,0,0,0,1.21-.33,3.25,3.25,0,0,0,1-.9,4.62,4.62,0,0,0,.66-1.29,4.91,4.91,0,0,0,.24-1.54,2.54,2.54,0,0,0-.24-1.17,1.58,1.58,0,0,0-.69-.71,2.28,2.28,0,0,0-1.09-.24h-1.1Z" transform="translate(-1.9 -1.9)"/><path class="cls-2" d="M1489.88,12.9a6.88,6.88,0,0,1-1.64-.2,4.39,4.39,0,0,1-1.43-.61,2.82,2.82,0,0,1-1-1.06,2.72,2.72,0,0,1-.28-1.54h3a1.16,1.16,0,0,0,.23.65,1.26,1.26,0,0,0,.56.41,2.36,2.36,0,0,0,.85.14,4,4,0,0,0,.87-.09,1.7,1.7,0,0,0,.71-.3.81.81,0,0,0,.34-.58.48.48,0,0,0-.18-.51,1.53,1.53,0,0,0-.63-.27c-.26-.06-.54-.12-.84-.17l-1.62-.28a3,3,0,0,1-1.88-1,2.72,2.72,0,0,1-.46-2.15,3.28,3.28,0,0,1,.88-1.85,4.73,4.73,0,0,1,1.81-1.17,6.52,6.52,0,0,1,2.31-.4,5.11,5.11,0,0,1,2.27.47,3.76,3.76,0,0,1,1.44,1.25,2.79,2.79,0,0,1,.46,1.65h-2.93a1.06,1.06,0,0,0-.14-.67,1,1,0,0,0-.51-.37,2.66,2.66,0,0,0-.85-.11,2.54,2.54,0,0,0-.91.13,1.17,1.17,0,0,0-.5.32.79.79,0,0,0-.19.39.7.7,0,0,0,.15.58,1.63,1.63,0,0,0,.89.35l1.61.28a4.6,4.6,0,0,1,1.75.62,2.28,2.28,0,0,1,.83.94,2.54,2.54,0,0,1,.24,1.05,6.46,6.46,0,0,1,0,.92,2.9,2.9,0,0,1-.86,1.63,5,5,0,0,1-1.85,1.13A7,7,0,0,1,1489.88,12.9Z" transform="translate(-1.9 -1.9)"/><path class="cls-2" d="M1498.51,12.75l1.24-8.17h-3l.39-2.53h9l-.38,2.53h-3.07l-1.25,8.17Z" transform="translate(-1.9 -1.9)"/><path class="cls-2" d="M1503.74,12.75l5.44-10.7h2.94l2.16,10.7h-2.85l-.38-2.07h-3.39l-1,2.07Zm4.91-4.53h2.11l-.52-3.42Z" transform="translate(-1.9 -1.9)"/><path class="cls-2" d="M1517.07,12.75l1.24-8.17h-3l.39-2.53h9l-.39,2.53h-3.07L1520,12.75Z" transform="translate(-1.9 -1.9)"/><path class="cls-2" d="M1524.35,12.75,1526,2.05h2.89l-1.62,10.7Z" transform="translate(-1.9 -1.9)"/><path class="cls-2" d="M1534.12,12.9a4.89,4.89,0,0,1-2.66-.68,3.66,3.66,0,0,1-1.51-1.9,5.83,5.83,0,0,1-.2-2.9,7.18,7.18,0,0,1,1.1-2.91A5.79,5.79,0,0,1,1533,2.59a5.87,5.87,0,0,1,2.83-.69,4.71,4.71,0,0,1,2.62.69,3.74,3.74,0,0,1,1.52,1.92,5.88,5.88,0,0,1,.2,2.91,7,7,0,0,1-1.08,2.89,5.79,5.79,0,0,1-2.09,1.91A6,6,0,0,1,1534.12,12.9Zm.34-2.31a2.09,2.09,0,0,0,1.1-.3,2.5,2.5,0,0,0,.88-1,5.52,5.52,0,0,0,.54-1.84,5.4,5.4,0,0,0,0-1.91,1.77,1.77,0,0,0-.57-1,1.62,1.62,0,0,0-1-.32,2.13,2.13,0,0,0-1.58.73,4.81,4.81,0,0,0-1,2.53,5.13,5.13,0,0,0,0,1.84,1.63,1.63,0,0,0,.59,1A1.65,1.65,0,0,0,1534.46,10.59Z" transform="translate(-1.9 -1.9)"/><path class="cls-2" d="M1541,12.75l1.65-10.7h2.91l3.26,6,.9-6h2.9L1551,12.75h-2.6l-3.5-6.38-1,6.38Z" transform="translate(-1.9 -1.9)"/><path class="cls-2" d="M1558.6,9.54a2.08,2.08,0,0,1-1.12-.31,2.27,2.27,0,0,1-.82-.81,2.22,2.22,0,0,1,0-2.23,2.33,2.33,0,0,1,.82-.8,2.2,2.2,0,0,1,2.25,0,2.33,2.33,0,0,1,.82.8,2.22,2.22,0,0,1,0,2.23,2.27,2.27,0,0,1-.82.81A2.09,2.09,0,0,1,1558.6,9.54Z" transform="translate(-1.9 -1.9)"/><path class="cls-2" d="M1564.77,12.75l1.65-10.7h7.9l-.38,2.38h-5l-.27,1.78h4.17l-.35,2.32h-4.19l-.28,1.82h5l-.38,2.4Z" transform="translate(-1.9 -1.9)"/><path class="cls-2" d="M1574.46,12.75l1.65-10.7h2.9l3.27,6,.9-6h2.9l-1.65,10.7h-2.6l-3.5-6.38-1,6.38Z" transform="translate(-1.9 -1.9)"/><path class="cls-2" d="M1586.58,12.75l1.58-10.7h1.43c.74,0,1.47,0,2.18.06a11.13,11.13,0,0,1,2,.26,4.91,4.91,0,0,1,1.62.68,3.18,3.18,0,0,1,1.09,1.28,4.87,4.87,0,0,1,.39,2.09,7.46,7.46,0,0,1-.1,1.16,8.63,8.63,0,0,1-.35,1.37,6,6,0,0,1-.71,1.38,5.1,5.1,0,0,1-1.15,1.22,5.29,5.29,0,0,1-1.71.87,7.49,7.49,0,0,1-2.35.33Zm3.25-2.26h1a2.37,2.37,0,0,0,1.21-.33,3.33,3.33,0,0,0,1-.9,4.39,4.39,0,0,0,.67-1.29,4.91,4.91,0,0,0,.24-1.54,2.41,2.41,0,0,0-.25-1.17,1.58,1.58,0,0,0-.69-.71,2.27,2.27,0,0,0-1.08-.24h-1.11Z" transform="translate(-1.9 -1.9)"/><path class="cls-2" d="M1605,12.9a7,7,0,0,1-1.64-.2,4.48,4.48,0,0,1-1.43-.61,2.9,2.9,0,0,1-1-1.06,2.81,2.81,0,0,1-.28-1.54h3a1.15,1.15,0,0,0,.22.65,1.32,1.32,0,0,0,.56.41,2.42,2.42,0,0,0,.86.14,4.14,4.14,0,0,0,.87-.09,1.65,1.65,0,0,0,.7-.3.86.86,0,0,0,.35-.58.52.52,0,0,0-.18-.51,1.67,1.67,0,0,0-.63-.27l-.84-.17L1604,8.49a2.93,2.93,0,0,1-1.88-1,2.72,2.72,0,0,1-.47-2.15,3.34,3.34,0,0,1,.88-1.85,4.76,4.76,0,0,1,1.82-1.17,6.52,6.52,0,0,1,2.31-.4,5.06,5.06,0,0,1,2.26.47,3.62,3.62,0,0,1,1.44,1.25,2.72,2.72,0,0,1,.46,1.65h-2.92a1.13,1.13,0,0,0-.15-.67,1,1,0,0,0-.51-.37,2.62,2.62,0,0,0-.85-.11,2.52,2.52,0,0,0-.9.13,1.06,1.06,0,0,0-.5.32.79.79,0,0,0-.19.39.64.64,0,0,0,.15.58,1.63,1.63,0,0,0,.88.35l1.62.28a4.49,4.49,0,0,1,1.74.62,2.38,2.38,0,0,1,.84.94,2.69,2.69,0,0,1,.23,1.05,5.26,5.26,0,0,1,0,.92,2.88,2.88,0,0,1-.85,1.63,5,5,0,0,1-1.85,1.13A7.05,7.05,0,0,1,1605,12.9Z" transform="translate(-1.9 -1.9)"/><path class="cls-2" d="M1613.63,12.75l1.24-8.17h-3l.39-2.53h9l-.39,2.53h-3.07l-1.25,8.17Z" transform="translate(-1.9 -1.9)"/><path class="cls-2" d="M1618.83,12.75l5.44-10.7h2.94l2.16,10.7h-2.85l-.39-2.07h-3.38l-1,2.07Zm4.91-4.53h2.11l-.52-3.42Z" transform="translate(-1.9 -1.9)"/><path class="cls-2" d="M1632.17,12.75l1.23-8.17h-3l.39-2.53h9l-.39,2.53h-3.07L1635,12.75Z" transform="translate(-1.9 -1.9)"/><path class="cls-2" d="M1639.47,12.75l1.63-10.7H1644l-1.62,10.7Z" transform="translate(-1.9 -1.9)"/><path class="cls-2" d="M1649.24,12.9a4.86,4.86,0,0,1-2.66-.68,3.72,3.72,0,0,1-1.52-1.9,6,6,0,0,1-.19-2.9,7,7,0,0,1,1.1-2.91,5.84,5.84,0,0,1,4.94-2.61,4.71,4.71,0,0,1,2.62.69A3.72,3.72,0,0,1,1655,4.51a5.76,5.76,0,0,1,.21,2.91,7,7,0,0,1-1.08,2.89,5.74,5.74,0,0,1-2.1,1.91A5.92,5.92,0,0,1,1649.24,12.9Zm.34-2.31a2.12,2.12,0,0,0,1.1-.3,2.5,2.5,0,0,0,.88-1,6,6,0,0,0,.54-1.84,5.14,5.14,0,0,0,0-1.91,1.67,1.67,0,0,0-.57-1,1.6,1.6,0,0,0-1-.32,2.11,2.11,0,0,0-1.58.73,4.73,4.73,0,0,0-1,2.53,4.91,4.91,0,0,0,0,1.84,1.62,1.62,0,0,0,.58,1A1.7,1.7,0,0,0,1649.58,10.59Z" transform="translate(-1.9 -1.9)"/><path class="cls-2" d="M1656.15,12.75l1.65-10.7h2.9L1664,8l.91-6h2.89l-1.64,10.7h-2.6L1660,6.37l-1,6.38Z" transform="translate(-1.9 -1.9)"/><path class="cls-2" d="M1673.71,9.54a2.11,2.11,0,0,1-1.13-.31,2.25,2.25,0,0,1-.81-.81,2.22,2.22,0,0,1,0-2.23,2.3,2.3,0,0,1,.81-.8,2.21,2.21,0,0,1,2.26,0,2.3,2.3,0,0,1,.81.8,2.16,2.16,0,0,1,0,2.23,2.25,2.25,0,0,1-.81.81A2.11,2.11,0,0,1,1673.71,9.54Z" transform="translate(-1.9 -1.9)"/><path class="cls-2" d="M1679.88,12.75l1.65-10.7h7.89l-.37,2.38h-5l-.27,1.78H1688l-.36,2.32h-4.18l-.29,1.82h5l-.37,2.4Z" transform="translate(-1.9 -1.9)"/><path class="cls-2" d="M1689.59,12.75l1.65-10.7h2.9l3.27,6,.9-6h2.9l-1.65,10.7H1697l-3.5-6.38-1,6.38Z" transform="translate(-1.9 -1.9)"/><path class="cls-2" d="M1701.69,12.75l1.57-10.7h1.43q1.13,0,2.19.06a10.9,10.9,0,0,1,2,.26,4.74,4.74,0,0,1,1.62.68,3.11,3.11,0,0,1,1.09,1.28,4.72,4.72,0,0,1,.4,2.09,7.6,7.6,0,0,1-.11,1.16,6.9,6.9,0,0,1-.35,1.37,6,6,0,0,1-.7,1.38,5,5,0,0,1-1.16,1.22,5.24,5.24,0,0,1-1.7.87,7.53,7.53,0,0,1-2.35.33Zm3.24-2.26h1a2.32,2.32,0,0,0,1.21-.33,3.25,3.25,0,0,0,1-.9,4.37,4.37,0,0,0,.66-1.29,4.91,4.91,0,0,0,.24-1.54,2.54,2.54,0,0,0-.24-1.17,1.58,1.58,0,0,0-.69-.71,2.28,2.28,0,0,0-1.09-.24h-1.1Z" transform="translate(-1.9 -1.9)"/><path class="cls-2" d="M1720.11,12.9a7,7,0,0,1-1.65-.2,4.33,4.33,0,0,1-1.42-.61,2.82,2.82,0,0,1-1-1.06,2.64,2.64,0,0,1-.28-1.54h3a1.23,1.23,0,0,0,.22.65,1.32,1.32,0,0,0,.56.41,2.46,2.46,0,0,0,.86.14,4.14,4.14,0,0,0,.87-.09,1.76,1.76,0,0,0,.71-.3.85.85,0,0,0,.34-.58.48.48,0,0,0-.18-.51,1.67,1.67,0,0,0-.63-.27c-.26-.06-.54-.12-.84-.17l-1.62-.28a3,3,0,0,1-1.88-1,2.76,2.76,0,0,1-.47-2.15,3.29,3.29,0,0,1,.89-1.85,4.73,4.73,0,0,1,1.81-1.17,6.52,6.52,0,0,1,2.31-.4,5.06,5.06,0,0,1,2.26.47,3.62,3.62,0,0,1,1.44,1.25,2.73,2.73,0,0,1,.47,1.65H1723a1.13,1.13,0,0,0-.15-.67,1,1,0,0,0-.51-.37,2.62,2.62,0,0,0-.85-.11,2.52,2.52,0,0,0-.9.13,1.11,1.11,0,0,0-.5.32.79.79,0,0,0-.19.39.64.64,0,0,0,.15.58,1.63,1.63,0,0,0,.88.35l1.62.28a4.49,4.49,0,0,1,1.74.62,2.31,2.31,0,0,1,.84.94,2.9,2.9,0,0,1,.24,1.05,8.36,8.36,0,0,1,0,.92,2.9,2.9,0,0,1-.86,1.63,5,5,0,0,1-1.85,1.13A7,7,0,0,1,1720.11,12.9Z" transform="translate(-1.9 -1.9)"/><path class="cls-2" d="M1728.76,12.75,1730,4.58h-3l.39-2.53h9L1736,4.58h-3.07l-1.25,8.17Z" transform="translate(-1.9 -1.9)"/><path class="cls-2" d="M1733.94,12.75l5.44-10.7h2.94l2.16,10.7h-2.85l-.38-2.07h-3.39l-1,2.07Zm4.91-4.53H1741l-.52-3.42Z" transform="translate(-1.9 -1.9)"/><path class="cls-2" d="M1747.29,12.75l1.24-8.17h-3l.39-2.53h9l-.38,2.53h-3.07l-1.25,8.17Z" transform="translate(-1.9 -1.9)"/><path class="cls-2" d="M1754.59,12.75l1.63-10.7h2.89l-1.62,10.7Z" transform="translate(-1.9 -1.9)"/><path class="cls-2" d="M1764.34,12.9a4.89,4.89,0,0,1-2.66-.68,3.7,3.7,0,0,1-1.51-1.9,5.84,5.84,0,0,1-.19-2.9,7.17,7.17,0,0,1,1.09-2.91,5.87,5.87,0,0,1,5-2.61,4.65,4.65,0,0,1,2.61.69,3.74,3.74,0,0,1,1.52,1.92,5.77,5.77,0,0,1,.2,2.91,6.75,6.75,0,0,1-1.08,2.89,5.79,5.79,0,0,1-2.09,1.91A5.93,5.93,0,0,1,1764.34,12.9Zm.34-2.31a2.15,2.15,0,0,0,1.11-.3,2.49,2.49,0,0,0,.87-1,5.52,5.52,0,0,0,.54-1.84,5.4,5.4,0,0,0,0-1.91,1.67,1.67,0,0,0-.57-1,1.62,1.62,0,0,0-1-.32,2.15,2.15,0,0,0-1.59.73,4.73,4.73,0,0,0-1,2.53,4.91,4.91,0,0,0,0,1.84,1.62,1.62,0,0,0,.58,1A1.67,1.67,0,0,0,1764.68,10.59Z" transform="translate(-1.9 -1.9)"/><path class="cls-2" d="M1771.26,12.75l1.64-10.7h2.91l3.26,6,.9-6h2.9l-1.64,10.7h-2.6l-3.51-6.38-1,6.38Z" transform="translate(-1.9 -1.9)"/><path class="cls-2" d="M1788.82,9.54a2.11,2.11,0,0,1-1.13-.31,2.25,2.25,0,0,1-.81-.81,2.22,2.22,0,0,1,0-2.23,2.3,2.3,0,0,1,.81-.8,2.21,2.21,0,0,1,2.26,0,2.41,2.41,0,0,1,.82.8,2.22,2.22,0,0,1,0,2.23,2.35,2.35,0,0,1-.82.81A2.11,2.11,0,0,1,1788.82,9.54Z" transform="translate(-1.9 -1.9)"/><path class="cls-2" d="M1795,12.75l1.64-10.7h7.9l-.37,2.38h-5l-.27,1.78h4.16l-.35,2.32h-4.18l-.29,1.82h5l-.37,2.4Z" transform="translate(-1.9 -1.9)"/><path class="cls-2" d="M1804.7,12.75l1.64-10.7h2.91l3.26,6,.9-6h2.9l-1.65,10.7h-2.6l-3.5-6.38-1,6.38Z" transform="translate(-1.9 -1.9)"/><path class="cls-2" d="M1816.82,12.75l1.57-10.7h1.43c.75,0,1.47,0,2.19.06a10.9,10.9,0,0,1,2,.26,4.91,4.91,0,0,1,1.62.68,3.11,3.11,0,0,1,1.09,1.28,4.87,4.87,0,0,1,.39,2.09,7.46,7.46,0,0,1-.1,1.16,6.9,6.9,0,0,1-.35,1.37,6,6,0,0,1-.7,1.38,5,5,0,0,1-1.16,1.22,5.34,5.34,0,0,1-1.7.87,7.55,7.55,0,0,1-2.36.33Zm3.24-2.26h1a2.34,2.34,0,0,0,1.21-.33,3.25,3.25,0,0,0,1-.9,4.62,4.62,0,0,0,.66-1.29,4.91,4.91,0,0,0,.24-1.54,2.54,2.54,0,0,0-.24-1.17,1.58,1.58,0,0,0-.69-.71,2.31,2.31,0,0,0-1.09-.24H1821Z" transform="translate(-1.9 -1.9)"/><path class="cls-2" d="M1835.22,12.9a6.88,6.88,0,0,1-1.64-.2,4.48,4.48,0,0,1-1.43-.61,2.9,2.9,0,0,1-1-1.06,2.81,2.81,0,0,1-.28-1.54h3a1.15,1.15,0,0,0,.22.65,1.26,1.26,0,0,0,.56.41,2.4,2.4,0,0,0,.85.14,4.17,4.17,0,0,0,.88-.09,1.71,1.71,0,0,0,.7-.3.86.86,0,0,0,.35-.58.52.52,0,0,0-.18-.51,1.67,1.67,0,0,0-.63-.27l-.85-.17-1.61-.28a2.93,2.93,0,0,1-1.88-1,2.72,2.72,0,0,1-.47-2.15,3.28,3.28,0,0,1,.88-1.85,4.8,4.8,0,0,1,1.81-1.17,6.62,6.62,0,0,1,2.32-.4,5.06,5.06,0,0,1,2.26.47,3.62,3.62,0,0,1,1.44,1.25,2.72,2.72,0,0,1,.46,1.65h-2.93a1.06,1.06,0,0,0-.14-.67,1,1,0,0,0-.51-.37,2.62,2.62,0,0,0-.85-.11,2.52,2.52,0,0,0-.9.13,1.15,1.15,0,0,0-.51.32A.88.88,0,0,0,1835,5a.67.67,0,0,0,.16.58,1.59,1.59,0,0,0,.88.35l1.62.28a4.49,4.49,0,0,1,1.74.62,2.28,2.28,0,0,1,.83.94,2.54,2.54,0,0,1,.24,1.05,5.26,5.26,0,0,1,0,.92,2.84,2.84,0,0,1-.86,1.63,4.9,4.9,0,0,1-1.84,1.13A7.05,7.05,0,0,1,1835.22,12.9Z" transform="translate(-1.9 -1.9)"/><path class="cls-2" d="M1843.86,12.75l1.24-8.17h-3l.39-2.53h9l-.39,2.53H1848l-1.25,8.17Z" transform="translate(-1.9 -1.9)"/><path class="cls-2" d="M1849.06,12.75l5.44-10.7h2.94l2.16,10.7h-2.85l-.38-2.07H1853l-1,2.07ZM1854,8.22h2.11l-.52-3.42Z" transform="translate(-1.9 -1.9)"/><path class="cls-2" d="M1862.41,12.75l1.23-8.17h-3l.39-2.53h9l-.39,2.53h-3.07l-1.25,8.17Z" transform="translate(-1.9 -1.9)"/><path class="cls-2" d="M1869.7,12.75l1.64-10.7h2.89l-1.63,10.7Z" transform="translate(-1.9 -1.9)"/><path class="cls-2" d="M1879.48,12.9a4.89,4.89,0,0,1-2.66-.68,3.7,3.7,0,0,1-1.51-1.9,5.84,5.84,0,0,1-.19-2.9,7,7,0,0,1,1.1-2.91,5.84,5.84,0,0,1,4.94-2.61,4.71,4.71,0,0,1,2.62.69,3.72,3.72,0,0,1,1.51,1.92,5.76,5.76,0,0,1,.21,2.91,7,7,0,0,1-1.08,2.89,5.74,5.74,0,0,1-2.1,1.91A5.93,5.93,0,0,1,1879.48,12.9Zm.35-2.31a2.14,2.14,0,0,0,1.1-.3,2.5,2.5,0,0,0,.88-1,6,6,0,0,0,.54-1.84,5.36,5.36,0,0,0,0-1.91,1.67,1.67,0,0,0-.57-1,1.6,1.6,0,0,0-1-.32,2.11,2.11,0,0,0-1.58.73,4.73,4.73,0,0,0-1,2.53,4.91,4.91,0,0,0,0,1.84,1.62,1.62,0,0,0,.58,1A1.68,1.68,0,0,0,1879.83,10.59Z" transform="translate(-1.9 -1.9)"/><path class="cls-2" d="M1886.37,12.75,1888,2.05h2.9l3.27,6,.9-6h2.9l-1.65,10.7h-2.6l-3.5-6.38-1,6.38Z" transform="translate(-1.9 -1.9)"/><path class="cls-2" d="M1903.94,9.54a2.11,2.11,0,0,1-1.13-.31,2.25,2.25,0,0,1-.81-.81,2.22,2.22,0,0,1,0-2.23,2.3,2.3,0,0,1,.81-.8,2.21,2.21,0,0,1,2.26,0,2.3,2.3,0,0,1,.81.8,2.16,2.16,0,0,1,0,2.23,2.25,2.25,0,0,1-.81.81A2.11,2.11,0,0,1,1903.94,9.54Z" transform="translate(-1.9 -1.9)"/><path class="cls-2" d="M1910.12,12.75l1.65-10.7h7.9l-.38,2.38h-5L1914,6.21h4.17l-.35,2.32h-4.19l-.28,1.82h5l-.37,2.4Z" transform="translate(-1.9 -1.9)"/><path class="cls-2" d="M1919.81,12.75l1.64-10.7h2.91l3.26,6,.91-6h2.89l-1.64,10.7h-2.6l-3.5-6.38-1,6.38Z" transform="translate(-1.9 -1.9)"/><path class="cls-2" d="M1931.92,12.75l1.57-10.7h1.43c.74,0,1.47,0,2.18.06a11.13,11.13,0,0,1,2,.26,4.91,4.91,0,0,1,1.62.68,3.18,3.18,0,0,1,1.09,1.28,4.87,4.87,0,0,1,.39,2.09,7.46,7.46,0,0,1-.1,1.16,7.67,7.67,0,0,1-.35,1.37,6.41,6.41,0,0,1-.7,1.38,5.14,5.14,0,0,1-1.16,1.22,5.29,5.29,0,0,1-1.71.87,7.49,7.49,0,0,1-2.35.33Zm3.24-2.26h1a2.37,2.37,0,0,0,1.21-.33,3.49,3.49,0,0,0,1-.9A4.62,4.62,0,0,0,1939,8a4.91,4.91,0,0,0,.24-1.54,2.54,2.54,0,0,0-.24-1.17,1.66,1.66,0,0,0-.7-.71,2.27,2.27,0,0,0-1.08-.24h-1.1Z" transform="translate(-1.9 -1.9)"/><path class="cls-2" d="M1950.36,12.9a7,7,0,0,1-1.65-.2,4.33,4.33,0,0,1-1.42-.61,2.93,2.93,0,0,1-1-1.06,2.72,2.72,0,0,1-.27-1.54h3a1.23,1.23,0,0,0,.22.65,1.32,1.32,0,0,0,.56.41,2.46,2.46,0,0,0,.86.14,4.14,4.14,0,0,0,.87-.09,1.76,1.76,0,0,0,.71-.3.85.85,0,0,0,.34-.58.48.48,0,0,0-.18-.51,1.67,1.67,0,0,0-.63-.27c-.26-.06-.54-.12-.84-.17l-1.62-.28a3,3,0,0,1-1.88-1,2.76,2.76,0,0,1-.47-2.15,3.29,3.29,0,0,1,.89-1.85,4.73,4.73,0,0,1,1.81-1.17,6.52,6.52,0,0,1,2.31-.4,5.06,5.06,0,0,1,2.26.47,3.62,3.62,0,0,1,1.44,1.25,2.73,2.73,0,0,1,.47,1.65h-2.93a1.13,1.13,0,0,0-.15-.67,1,1,0,0,0-.51-.37,2.62,2.62,0,0,0-.85-.11,2.52,2.52,0,0,0-.9.13,1.11,1.11,0,0,0-.5.32.79.79,0,0,0-.19.39.64.64,0,0,0,.15.58,1.63,1.63,0,0,0,.88.35l1.62.28a4.49,4.49,0,0,1,1.74.62,2.24,2.24,0,0,1,.84.94,2.9,2.9,0,0,1,.24,1.05,5.2,5.2,0,0,1-.06.92,2.82,2.82,0,0,1-.85,1.63,5,5,0,0,1-1.85,1.13A7,7,0,0,1,1950.36,12.9Z" transform="translate(-1.9 -1.9)"/><path class="cls-2" d="M1959,12.75l1.24-8.17h-3l.39-2.53h9l-.38,2.53h-3.07l-1.25,8.17Z" transform="translate(-1.9 -1.9)"/><path class="cls-2" d="M1964.2,12.75l5.44-10.7h2.93l2.16,10.7h-2.84l-.39-2.07h-3.38l-1,2.07Zm4.9-4.53h2.12l-.53-3.42Z" transform="translate(-1.9 -1.9)"/><path class="cls-2" d="M1977.52,12.75l1.23-8.17h-3l.39-2.53h9l-.38,2.53h-3.07l-1.26,8.17Z" transform="translate(-1.9 -1.9)"/><path class="cls-2" d="M1984.8,12.75l1.64-10.7h2.89l-1.63,10.7Z" transform="translate(-1.9 -1.9)"/><path class="cls-2" d="M1994.59,12.9a4.89,4.89,0,0,1-2.66-.68,3.7,3.7,0,0,1-1.51-1.9,5.84,5.84,0,0,1-.19-2.9,7.17,7.17,0,0,1,1.09-2.91,5.87,5.87,0,0,1,5-2.61,4.65,4.65,0,0,1,2.61.69,3.74,3.74,0,0,1,1.52,1.92,5.88,5.88,0,0,1,.2,2.91,6.88,6.88,0,0,1-1.08,2.89,5.79,5.79,0,0,1-2.09,1.91A5.93,5.93,0,0,1,1994.59,12.9Zm.34-2.31a2.15,2.15,0,0,0,1.11-.3,2.49,2.49,0,0,0,.87-1,5.52,5.52,0,0,0,.54-1.84,5.4,5.4,0,0,0,0-1.91,1.67,1.67,0,0,0-.57-1,1.62,1.62,0,0,0-1-.32,2.15,2.15,0,0,0-1.59.73,4.81,4.81,0,0,0-1,2.53,5.09,5.09,0,0,0,0,1.84,1.62,1.62,0,0,0,.58,1A1.67,1.67,0,0,0,1994.93,10.59Z" transform="translate(-1.9 -1.9)"/><path class="cls-2" d="M2001.49,12.75l1.64-10.7H2006l3.26,6,.9-6h2.9l-1.64,10.7h-2.61l-3.5-6.38-1,6.38Z" transform="translate(-1.9 -1.9)"/><path class="cls-2" d="M2019.08,9.54a2.11,2.11,0,0,1-1.13-.31,2.25,2.25,0,0,1-.81-.81,2.22,2.22,0,0,1,0-2.23,2.3,2.3,0,0,1,.81-.8,2.21,2.21,0,0,1,2.26,0,2.3,2.3,0,0,1,.81.8,2.16,2.16,0,0,1,0,2.23,2.25,2.25,0,0,1-.81.81A2.11,2.11,0,0,1,2019.08,9.54Z" transform="translate(-1.9 -1.9)"/><path class="cls-2" d="M2025.22,12.75l1.65-10.7h7.89l-.37,2.38h-5l-.27,1.78h4.17L2033,8.53h-4.19l-.29,1.82h5l-.37,2.4Z" transform="translate(-1.9 -1.9)"/><path class="cls-2" d="M2034.93,12.75l1.65-10.7h2.9l3.27,6,.9-6h2.9l-1.65,10.7h-2.6l-3.5-6.38-1,6.38Z" transform="translate(-1.9 -1.9)"/><path class="cls-2" d="M2047.05,12.75l1.57-10.7h1.43q1.13,0,2.19.06a10.9,10.9,0,0,1,2,.26,4.91,4.91,0,0,1,1.62.68,3.11,3.11,0,0,1,1.09,1.28,4.87,4.87,0,0,1,.39,2.09,7.46,7.46,0,0,1-.1,1.16,6.9,6.9,0,0,1-.35,1.37,6,6,0,0,1-.7,1.38,5,5,0,0,1-1.16,1.22,5.34,5.34,0,0,1-1.7.87,7.55,7.55,0,0,1-2.36.33Zm3.24-2.26h1a2.34,2.34,0,0,0,1.21-.33,3.25,3.25,0,0,0,1-.9,4.62,4.62,0,0,0,.66-1.29,4.91,4.91,0,0,0,.24-1.54,2.54,2.54,0,0,0-.24-1.17,1.58,1.58,0,0,0-.69-.71,2.31,2.31,0,0,0-1.09-.24h-1.1Z" transform="translate(-1.9 -1.9)"/><path class="cls-2" d="M2065.45,12.9a6.88,6.88,0,0,1-1.64-.2,4.39,4.39,0,0,1-1.43-.61,2.82,2.82,0,0,1-1-1.06,2.72,2.72,0,0,1-.28-1.54h3a1.16,1.16,0,0,0,.23.65,1.26,1.26,0,0,0,.56.41,2.36,2.36,0,0,0,.85.14,4.17,4.17,0,0,0,.88-.09,1.71,1.71,0,0,0,.7-.3.86.86,0,0,0,.35-.58.5.5,0,0,0-.19-.51,1.53,1.53,0,0,0-.63-.27c-.26-.06-.54-.12-.84-.17l-1.62-.28a3,3,0,0,1-1.88-1,2.72,2.72,0,0,1-.46-2.15,3.28,3.28,0,0,1,.88-1.85,4.73,4.73,0,0,1,1.81-1.17,6.52,6.52,0,0,1,2.31-.4,5.11,5.11,0,0,1,2.27.47,3.76,3.76,0,0,1,1.44,1.25,2.79,2.79,0,0,1,.46,1.65h-2.93a1.06,1.06,0,0,0-.14-.67,1,1,0,0,0-.51-.37,2.66,2.66,0,0,0-.85-.11,2.54,2.54,0,0,0-.91.13,1.17,1.17,0,0,0-.5.32.79.79,0,0,0-.19.39.7.7,0,0,0,.15.58,1.67,1.67,0,0,0,.89.35l1.61.28a4.54,4.54,0,0,1,1.75.62,2.28,2.28,0,0,1,.83.94,2.54,2.54,0,0,1,.24,1.05,5.26,5.26,0,0,1,0,.92,2.9,2.9,0,0,1-.86,1.63,5,5,0,0,1-1.85,1.13A7,7,0,0,1,2065.45,12.9Z" transform="translate(-1.9 -1.9)"/><path class="cls-2" d="M2074.09,12.75l1.24-8.17h-3l.39-2.53h9l-.39,2.53h-3.07L2077,12.75Z" transform="translate(-1.9 -1.9)"/><path class="cls-2" d="M2079.29,12.75l5.44-10.7h2.93l2.17,10.7H2087l-.39-2.07h-3.38l-1,2.07Zm4.9-4.53h2.12l-.52-3.42Z" transform="translate(-1.9 -1.9)"/><path class="cls-2" d="M2092.65,12.75l1.24-8.17h-3l.39-2.53h9l-.38,2.53h-3.07l-1.26,8.17Z" transform="translate(-1.9 -1.9)"/><path class="cls-2" d="M2099.92,12.75l1.63-10.7h2.89l-1.62,10.7Z" transform="translate(-1.9 -1.9)"/><path class="cls-2" d="M2109.71,12.9a4.86,4.86,0,0,1-2.66-.68,3.72,3.72,0,0,1-1.52-1.9,6,6,0,0,1-.19-2.9,7,7,0,0,1,1.1-2.91,5.84,5.84,0,0,1,4.94-2.61,4.71,4.71,0,0,1,2.62.69,3.72,3.72,0,0,1,1.51,1.92,5.76,5.76,0,0,1,.21,2.91,7,7,0,0,1-1.08,2.89,5.79,5.79,0,0,1-2.09,1.91A6,6,0,0,1,2109.71,12.9Zm.34-2.31a2.12,2.12,0,0,0,1.1-.3,2.5,2.5,0,0,0,.88-1,6,6,0,0,0,.54-1.84,5.14,5.14,0,0,0,0-1.91,1.67,1.67,0,0,0-.57-1,1.58,1.58,0,0,0-1-.32,2.11,2.11,0,0,0-1.58.73,4.81,4.81,0,0,0-1,2.53,5.13,5.13,0,0,0,0,1.84,1.62,1.62,0,0,0,.58,1A1.7,1.7,0,0,0,2110.05,10.59Z" transform="translate(-1.9 -1.9)"/><path class="cls-2" d="M2116.62,12.75l1.64-10.7h2.91l3.26,6,.9-6h2.9l-1.65,10.7H2124l-3.5-6.38-1,6.38Z" transform="translate(-1.9 -1.9)"/><path class="cls-2" d="M2134.18,9.54a2.09,2.09,0,0,1-1.13-.31,2.35,2.35,0,0,1-.82-.81,2.22,2.22,0,0,1,0-2.23,2.41,2.41,0,0,1,.82-.8,2.2,2.2,0,0,1,2.25,0,2.33,2.33,0,0,1,.82.8,2.16,2.16,0,0,1,0,2.23,2.27,2.27,0,0,1-.82.81A2.08,2.08,0,0,1,2134.18,9.54Z" transform="translate(-1.9 -1.9)"/><path class="cls-2" d="M2140.33,12.75,2142,2.05h7.9l-.38,2.38h-5l-.27,1.78h4.17l-.35,2.32h-4.19l-.28,1.82h5l-.37,2.4Z" transform="translate(-1.9 -1.9)"/><path class="cls-2" d="M2150.06,12.75l1.64-10.7h2.91l3.26,6,.91-6h2.89L2160,12.75h-2.6l-3.5-6.38-1,6.38Z" transform="translate(-1.9 -1.9)"/><path class="cls-2" d="M2162.15,12.75l1.57-10.7h1.43c.75,0,1.47,0,2.18.06a11,11,0,0,1,2,.26,4.91,4.91,0,0,1,1.62.68A3.11,3.11,0,0,1,2172,4.33a4.87,4.87,0,0,1,.39,2.09,7.46,7.46,0,0,1-.1,1.16A7.67,7.67,0,0,1,2172,9a6,6,0,0,1-.7,1.38,5.14,5.14,0,0,1-1.16,1.22,5.34,5.34,0,0,1-1.7.87,7.55,7.55,0,0,1-2.36.33Zm3.24-2.26h1a2.34,2.34,0,0,0,1.21-.33,3.37,3.37,0,0,0,1-.9,4.62,4.62,0,0,0,.66-1.29,4.91,4.91,0,0,0,.24-1.54,2.54,2.54,0,0,0-.24-1.17,1.6,1.6,0,0,0-.7-.71,2.27,2.27,0,0,0-1.08-.24h-1.1Z" transform="translate(-1.9 -1.9)"/></g></g></g></g></svg>