<svg xmlns="http://www.w3.org/2000/svg" viewBox="0 0 1935.81 1105.24"><defs><style>.cls-1{fill:#fff;}</style></defs><g id="Layer_2" data-name="Layer 2"><g id="Accordion_menu_expanded" data-name="Accordion menu expanded"><path class="cls-1" d="M16.56,1102.12a5.85,5.85,0,0,1-.89,3.3,4.91,4.91,0,0,1-2.47,1.9,7.28,7.28,0,0,1-3.65.24,8.82,8.82,0,0,1-3.74-1.44,7.55,7.55,0,0,1-3.37-6.39,6,6,0,0,1,.72-3.08A4.37,4.37,0,0,1,5,1094.86a4.1,4.1,0,0,1,2.44-.38v3.87a2.88,2.88,0,0,0-1,.25,1.66,1.66,0,0,0-.71.63,2,2,0,0,0-.26,1.06,2.63,2.63,0,0,0,.37,1.34,3.19,3.19,0,0,0,1.22,1.16,6.88,6.88,0,0,0,2.34.72,6.55,6.55,0,0,0,2,.06,2.44,2.44,0,0,0,1.18-.5,1.71,1.71,0,0,0,.55-.83,2.93,2.93,0,0,0,.15-.9,2.31,2.31,0,0,0-.12-.75,2.78,2.78,0,0,0-.71-1.13,1.83,1.83,0,0,0-.46-.32l-.5-.24v2.4l-2.49-.38,0-6.32,7.26,1.12v2.43l-1.52-.22c.23.27.48.59.75,1a5.43,5.43,0,0,1,.68,1.32A5.9,5.9,0,0,1,16.56,1102.12Z" transform="translate(-2.44 -2.44)"/><path class="cls-1" d="M16.37,1094.12l-13.74-7v-3.77l13.74-2.79v3.67l-2.66.5v4.35l2.66,1.34Zm-5.82-6.31v-2.73l-4.38.67Z" transform="translate(-2.44 -2.44)"/><path class="cls-1" d="M16.37,1079l-13.74-2.12v-3.7l10.7,1.63v-5.51l3,.47Z" transform="translate(-2.44 -2.44)"/><path class="cls-1" d="M16.37,1068.9l-13.74-7v-3.78l13.74-2.78V1059l-2.66.49v4.36l2.66,1.34Zm-5.82-6.31v-2.72l-4.38.67Z" transform="translate(-2.44 -2.44)"/><path class="cls-1" d="M16.56,1044.32a9.3,9.3,0,0,1-.25,2.11,5.76,5.76,0,0,1-.79,1.84,3.63,3.63,0,0,1-1.36,1.25,3.48,3.48,0,0,1-2,.36V1046a1.47,1.47,0,0,0,.82-.28,1.7,1.7,0,0,0,.53-.72,2.87,2.87,0,0,0,.19-1.11,5.13,5.13,0,0,0-.12-1.12,2.17,2.17,0,0,0-.38-.9,1.09,1.09,0,0,0-.76-.45.62.62,0,0,0-.64.23,2.3,2.3,0,0,0-.35.82,10.28,10.28,0,0,0-.22,1.08l-.36,2.08a3.74,3.74,0,0,1-1.28,2.42,3.53,3.53,0,0,1-2.77.6,4.14,4.14,0,0,1-2.37-1.14A5.94,5.94,0,0,1,3,1045.2a8.36,8.36,0,0,1-.52-3,6.32,6.32,0,0,1,.61-2.91,4.74,4.74,0,0,1,1.6-1.86,3.47,3.47,0,0,1,2.12-.59v3.76a1.51,1.51,0,0,0-.86.19,1.22,1.22,0,0,0-.47.66,3.41,3.41,0,0,0-.15,1.09,3.34,3.34,0,0,0,.17,1.16,1.55,1.55,0,0,0,.41.65,1,1,0,0,0,.5.24.86.86,0,0,0,.75-.19,2.21,2.21,0,0,0,.45-1.14l.36-2.08a5.75,5.75,0,0,1,.79-2.24,3,3,0,0,1,1.22-1.08,3.44,3.44,0,0,1,1.34-.31,8.17,8.17,0,0,1,1.17.07,3.72,3.72,0,0,1,2.1,1.1,6.66,6.66,0,0,1,1.46,2.38A9.32,9.32,0,0,1,16.56,1044.32Z" transform="translate(-2.44 -2.44)"/><path class="cls-1" d="M16.37,1033.4l-10.49-1.59v3.89l-3.25-.5v-11.57l3.25.5v3.95l10.49,1.62Z" transform="translate(-2.44 -2.44)"/><path class="cls-1" d="M16.37,1025l-13.74-7v-3.78l13.74-2.78v3.66l-2.66.5V1020l2.66,1.34Zm-5.82-6.31V1016l-4.38.67Z" transform="translate(-2.44 -2.44)"/><path class="cls-1" d="M16.56,1003.86a5.81,5.81,0,0,1-.74,3,5,5,0,0,1-2.05,1.92,6.7,6.7,0,0,1-3,.66,9.4,9.4,0,0,1-3-.49,8.08,8.08,0,0,1-2.67-1.46,7.08,7.08,0,0,1-1.9-2.42,7.68,7.68,0,0,1-.71-3.38,6,6,0,0,1,.6-2.79,4.13,4.13,0,0,1,1.71-1.8,5.54,5.54,0,0,1,2.73-.63v3.86a2.84,2.84,0,0,0-1.11.23,1.6,1.6,0,0,0-.71.65,2.07,2.07,0,0,0-.25,1.07,2.24,2.24,0,0,0,.52,1.51,3.71,3.71,0,0,0,1.36,1,7.48,7.48,0,0,0,1.8.51,10.62,10.62,0,0,0,1.83.16,3.17,3.17,0,0,0,2.05-.53,1.67,1.67,0,0,0,.62-1.37,2.06,2.06,0,0,0-.32-1.15,3,3,0,0,0-.86-.88,4.23,4.23,0,0,0-1.17-.57v-3.88a11.48,11.48,0,0,1,2,.8A6.45,6.45,0,0,1,15,999.12a5.6,5.6,0,0,1,1.17,1.93A8.28,8.28,0,0,1,16.56,1003.86Z" transform="translate(-2.44 -2.44)"/><path class="cls-1" d="M16.37,995.61l-13.74-2.1v-3.72l13.74,2.09Z" transform="translate(-2.44 -2.44)"/><path class="cls-1" d="M16.56,987.69c0,.39,0,.83,0,1.32a9.72,9.72,0,0,1-.14,1.15l-3.33-.5c0-.17,0-.36.07-.58s0-.43,0-.62a1.7,1.7,0,0,0-.5-1.4,3.26,3.26,0,0,0-1.57-.56l-8.44-1.3v-3.71L12,982.93a9.27,9.27,0,0,1,2.52.71,3.16,3.16,0,0,1,1.51,1.44A5.55,5.55,0,0,1,16.56,987.69Z" transform="translate(-2.44 -2.44)"/><path class="cls-1" d="M16.37,982.14l-13.74-7v-3.77l13.74-2.78v3.66l-2.66.5v4.35l2.66,1.34Zm-5.82-6.31V973.1l-4.38.67Z" transform="translate(-2.44 -2.44)"/><path class="cls-1" d="M12.25,959.94a2.79,2.79,0,0,1-.39,1.45,3,3,0,0,1-1,1.05,2.78,2.78,0,0,1-1.44.39A2.72,2.72,0,0,1,8,962.44a3,3,0,0,1-1-1.05,2.89,2.89,0,0,1,0-2.9,3,3,0,0,1,1-1,2.64,2.64,0,0,1,1.43-.4,2.7,2.7,0,0,1,1.44.4,3,3,0,0,1,1,1A2.76,2.76,0,0,1,12.25,959.94Z" transform="translate(-2.44 -2.44)"/><path class="cls-1" d="M16.56,946.08a5.85,5.85,0,0,1-.89,3.3,4.91,4.91,0,0,1-2.47,1.9,7.28,7.28,0,0,1-3.65.24,8.82,8.82,0,0,1-3.74-1.44,7.59,7.59,0,0,1-3.37-6.4,6,6,0,0,1,.72-3.07A4.37,4.37,0,0,1,5,938.82a4.1,4.1,0,0,1,2.44-.38v3.87a2.88,2.88,0,0,0-1,.25,1.66,1.66,0,0,0-.71.63,2,2,0,0,0-.26,1.06,2.63,2.63,0,0,0,.37,1.34,3.1,3.1,0,0,0,1.22,1.15,6.66,6.66,0,0,0,2.34.73,6.55,6.55,0,0,0,2,.06,2.44,2.44,0,0,0,1.18-.5,1.71,1.71,0,0,0,.55-.83,2.93,2.93,0,0,0,.15-.9,2.31,2.31,0,0,0-.12-.75,2.61,2.61,0,0,0-.71-1.13,1.83,1.83,0,0,0-.46-.32l-.5-.24v2.4l-2.49-.39,0-6.31,7.26,1.12v2.43l-1.52-.22c.23.27.48.58.75,1a5.43,5.43,0,0,1,.68,1.32A5.9,5.9,0,0,1,16.56,946.08Z" transform="translate(-2.44 -2.44)"/><path class="cls-1" d="M16.37,938.09l-13.74-7v-3.77l13.74-2.79v3.67l-2.66.5V933l2.66,1.34Zm-5.82-6.31v-2.73l-4.38.67Z" transform="translate(-2.44 -2.44)"/><path class="cls-1" d="M16.37,922.94,2.63,920.82v-3.7l10.7,1.63v-5.5l3,.47Z" transform="translate(-2.44 -2.44)"/><path class="cls-1" d="M16.37,912.86l-13.74-7v-3.78l13.74-2.78V903l-2.66.5v4.35l2.66,1.34Zm-5.82-6.31v-2.72l-4.38.67Z" transform="translate(-2.44 -2.44)"/><path class="cls-1" d="M16.56,888.29a9.23,9.23,0,0,1-.25,2.11,5.76,5.76,0,0,1-.79,1.84,3.55,3.55,0,0,1-1.36,1.25,3.48,3.48,0,0,1-2,.36V890a1.47,1.47,0,0,0,.82-.29,1.58,1.58,0,0,0,.53-.72,2.81,2.81,0,0,0,.19-1.1,5.06,5.06,0,0,0-.12-1.12,2.28,2.28,0,0,0-.38-.91,1.09,1.09,0,0,0-.76-.45.63.63,0,0,0-.64.24,2.17,2.17,0,0,0-.35.81,10.83,10.83,0,0,0-.22,1.08l-.36,2.08A3.74,3.74,0,0,1,9.62,892a3.45,3.45,0,0,1-2.77.6,4.19,4.19,0,0,1-2.37-1.13A6,6,0,0,1,3,889.18a8.41,8.41,0,0,1-.52-3,6.38,6.38,0,0,1,.61-2.91,4.74,4.74,0,0,1,1.6-1.86,3.54,3.54,0,0,1,2.12-.59v3.77a1.43,1.43,0,0,0-.86.18,1.25,1.25,0,0,0-.47.66,4.07,4.07,0,0,0,0,2.26,1.51,1.51,0,0,0,.41.64,1.12,1.12,0,0,0,.5.25.87.87,0,0,0,.75-.2,2.17,2.17,0,0,0,.45-1.14L8,885.18a5.81,5.81,0,0,1,.79-2.24A3,3,0,0,1,10,881.86a3.42,3.42,0,0,1,1.34-.3,7,7,0,0,1,1.17.06,3.73,3.73,0,0,1,2.1,1.11A6.49,6.49,0,0,1,16,885.11,9.22,9.22,0,0,1,16.56,888.29Z" transform="translate(-2.44 -2.44)"/><path class="cls-1" d="M16.37,877.36,5.88,875.77v3.9l-3.25-.5V867.6l3.25.5v3.95l10.49,1.61Z" transform="translate(-2.44 -2.44)"/><path class="cls-1" d="M16.37,869,2.63,862v-3.77l13.74-2.79v3.67l-2.66.5v4.35l2.66,1.34Zm-5.82-6.31V860l-4.38.67Z" transform="translate(-2.44 -2.44)"/><path class="cls-1" d="M16.56,847.83a5.88,5.88,0,0,1-.74,3,5,5,0,0,1-2.05,1.91,6.7,6.7,0,0,1-3,.67,9.68,9.68,0,0,1-3-.49,8.29,8.29,0,0,1-2.67-1.47,7,7,0,0,1-1.9-2.42,7.68,7.68,0,0,1-.71-3.38,6,6,0,0,1,.6-2.78,4.16,4.16,0,0,1,1.71-1.81,5.54,5.54,0,0,1,2.73-.63v3.86a2.84,2.84,0,0,0-1.11.23,1.6,1.6,0,0,0-.71.65,2.07,2.07,0,0,0-.25,1.07,2.24,2.24,0,0,0,.52,1.51,3.71,3.71,0,0,0,1.36,1,7.48,7.48,0,0,0,1.8.51,10.62,10.62,0,0,0,1.83.16,3.17,3.17,0,0,0,2.05-.53,1.67,1.67,0,0,0,.62-1.37,2.08,2.08,0,0,0-.32-1.15,3,3,0,0,0-.86-.88,4.23,4.23,0,0,0-1.17-.57V841a11.48,11.48,0,0,1,2,.8A6.45,6.45,0,0,1,15,843.09,5.6,5.6,0,0,1,16.14,845,8.28,8.28,0,0,1,16.56,847.83Z" transform="translate(-2.44 -2.44)"/><path class="cls-1" d="M16.37,839.61l-13.74-2.1v-3.73l13.74,2.1Z" transform="translate(-2.44 -2.44)"/><path class="cls-1" d="M16.56,831.67c0,.39,0,.83,0,1.32a9.72,9.72,0,0,1-.14,1.15l-3.33-.5c0-.17,0-.36.07-.58s0-.43,0-.62a1.7,1.7,0,0,0-.5-1.4,3.26,3.26,0,0,0-1.57-.56l-8.44-1.3v-3.71L12,826.91a9.27,9.27,0,0,1,2.52.71,3.16,3.16,0,0,1,1.51,1.44A5.55,5.55,0,0,1,16.56,831.67Z" transform="translate(-2.44 -2.44)"/><path class="cls-1" d="M16.37,826.09l-13.74-7v-3.78l13.74-2.78v3.67l-2.66.5v4.35l2.66,1.34Zm-5.82-6.31v-2.72l-4.38.67Z" transform="translate(-2.44 -2.44)"/><path class="cls-1" d="M12.25,803.94a2.79,2.79,0,0,1-.39,1.45,2.88,2.88,0,0,1-1,1,2.78,2.78,0,0,1-1.44.39A2.72,2.72,0,0,1,8,806.43a2.85,2.85,0,0,1-1-1,2.79,2.79,0,0,1-.39-1.45,2.83,2.83,0,0,1,.39-1.46,3.13,3.13,0,0,1,1-1.05A2.72,2.72,0,0,1,9.38,801a2.78,2.78,0,0,1,1.44.39,3.16,3.16,0,0,1,1,1.05A2.83,2.83,0,0,1,12.25,803.94Z" transform="translate(-2.44 -2.44)"/><path class="cls-1" d="M16.56,790.05a5.85,5.85,0,0,1-.89,3.3,4.91,4.91,0,0,1-2.47,1.9,7.28,7.28,0,0,1-3.65.24,8.82,8.82,0,0,1-3.74-1.44,7.59,7.59,0,0,1-3.37-6.39,6,6,0,0,1,.72-3.08A4.37,4.37,0,0,1,5,782.79a4.1,4.1,0,0,1,2.44-.38v3.87a2.88,2.88,0,0,0-1,.25,1.66,1.66,0,0,0-.71.63,2,2,0,0,0-.26,1.06,2.63,2.63,0,0,0,.37,1.34,3.1,3.1,0,0,0,1.22,1.15,6.66,6.66,0,0,0,2.34.73,6.55,6.55,0,0,0,2,.06,2.44,2.44,0,0,0,1.18-.5,1.71,1.71,0,0,0,.55-.83,2.93,2.93,0,0,0,.15-.9,2.31,2.31,0,0,0-.12-.75,2.78,2.78,0,0,0-.71-1.13,1.83,1.83,0,0,0-.46-.32l-.5-.24v2.4l-2.49-.39,0-6.31,7.26,1.12v2.43l-1.52-.22c.23.27.48.59.75.95a5.43,5.43,0,0,1,.68,1.32A5.9,5.9,0,0,1,16.56,790.05Z" transform="translate(-2.44 -2.44)"/><path class="cls-1" d="M16.37,782.06l-13.74-7v-3.78l13.74-2.78v3.66l-2.66.5V777l2.66,1.34Zm-5.82-6.31V773l-4.38.67Z" transform="translate(-2.44 -2.44)"/><path class="cls-1" d="M16.37,766.92,2.63,764.8v-3.7l10.7,1.63v-5.5l3,.47Z" transform="translate(-2.44 -2.44)"/><path class="cls-1" d="M16.37,756.84l-13.74-7v-3.78l13.74-2.78V747l-2.66.5v4.35l2.66,1.34Zm-5.82-6.31v-2.72l-4.38.67Z" transform="translate(-2.44 -2.44)"/><path class="cls-1" d="M16.56,732.26a9.23,9.23,0,0,1-.25,2.11,5.76,5.76,0,0,1-.79,1.84,3.55,3.55,0,0,1-1.36,1.25,3.48,3.48,0,0,1-2,.36V734a1.47,1.47,0,0,0,.82-.29,1.58,1.58,0,0,0,.53-.72,2.81,2.81,0,0,0,.19-1.1,5.22,5.22,0,0,0-.12-1.13,2.23,2.23,0,0,0-.38-.9,1.09,1.09,0,0,0-.76-.45.63.63,0,0,0-.64.24,2.17,2.17,0,0,0-.35.81,10.83,10.83,0,0,0-.22,1.08l-.36,2.08A3.74,3.74,0,0,1,9.62,736a3.45,3.45,0,0,1-2.77.6,4.19,4.19,0,0,1-2.37-1.13A6,6,0,0,1,3,733.15a8.41,8.41,0,0,1-.52-3,6.38,6.38,0,0,1,.61-2.91,4.74,4.74,0,0,1,1.6-1.86,3.54,3.54,0,0,1,2.12-.59v3.77a1.43,1.43,0,0,0-.86.18,1.25,1.25,0,0,0-.47.66,3.41,3.41,0,0,0-.15,1.09,3.34,3.34,0,0,0,.17,1.16,1.55,1.55,0,0,0,.41.65,1.12,1.12,0,0,0,.5.25.87.87,0,0,0,.75-.2,2.17,2.17,0,0,0,.45-1.14L8,729.15a5.81,5.81,0,0,1,.79-2.24A3,3,0,0,1,10,725.83a3.42,3.42,0,0,1,1.34-.3,7,7,0,0,1,1.17.06,3.73,3.73,0,0,1,2.1,1.11A6.49,6.49,0,0,1,16,729.08,9.22,9.22,0,0,1,16.56,732.26Z" transform="translate(-2.44 -2.44)"/><path class="cls-1" d="M16.37,721.35l-10.49-1.6v3.9l-3.25-.5V711.58l3.25.5V716l10.49,1.61Z" transform="translate(-2.44 -2.44)"/><path class="cls-1" d="M16.37,713,2.63,706v-3.78l13.74-2.78v3.66l-2.66.5v4.36l2.66,1.34Zm-5.82-6.31v-2.72l-4.38.67Z" transform="translate(-2.44 -2.44)"/><path class="cls-1" d="M16.56,691.81a5.88,5.88,0,0,1-.74,3,5,5,0,0,1-2.05,1.91,6.7,6.7,0,0,1-3,.67,9.68,9.68,0,0,1-3-.49,8.29,8.29,0,0,1-2.67-1.47A6.9,6.9,0,0,1,3.15,693a7.68,7.68,0,0,1-.71-3.38,6,6,0,0,1,.6-2.78,4.16,4.16,0,0,1,1.71-1.81,5.54,5.54,0,0,1,2.73-.63v3.86a2.84,2.84,0,0,0-1.11.23,1.6,1.6,0,0,0-.71.65,2.07,2.07,0,0,0-.25,1.07,2.24,2.24,0,0,0,.52,1.51,3.71,3.71,0,0,0,1.36,1,7.48,7.48,0,0,0,1.8.51,10.62,10.62,0,0,0,1.83.16,3.17,3.17,0,0,0,2.05-.53,1.67,1.67,0,0,0,.62-1.37,2.08,2.08,0,0,0-.32-1.15,3,3,0,0,0-.86-.88,4.23,4.23,0,0,0-1.17-.57V685a11.45,11.45,0,0,1,2,.79A6.45,6.45,0,0,1,15,687.07,5.6,5.6,0,0,1,16.14,689,8.28,8.28,0,0,1,16.56,691.81Z" transform="translate(-2.44 -2.44)"/><path class="cls-1" d="M16.37,683.57l-13.74-2.1v-3.72l13.74,2.09Z" transform="translate(-2.44 -2.44)"/><path class="cls-1" d="M16.56,675.64c0,.39,0,.82,0,1.31a9.94,9.94,0,0,1-.14,1.16l-3.33-.5c0-.17,0-.37.07-.58s0-.43,0-.63a1.72,1.72,0,0,0-.5-1.4,3.26,3.26,0,0,0-1.57-.55l-8.44-1.31v-3.7L12,670.88a8.92,8.92,0,0,1,2.52.71A3.18,3.18,0,0,1,16.05,673,5.62,5.62,0,0,1,16.56,675.64Z" transform="translate(-2.44 -2.44)"/><path class="cls-1" d="M16.37,670.08l-13.74-7V659.3l13.74-2.78v3.66l-2.66.5V665l2.66,1.34Zm-5.82-6.31v-2.72l-4.38.67Z" transform="translate(-2.44 -2.44)"/><path class="cls-1" d="M12.25,647.9a2.83,2.83,0,0,1-.39,1.46,3,3,0,0,1-1,1,2.78,2.78,0,0,1-1.44.39A2.72,2.72,0,0,1,8,650.4a3,3,0,0,1-1-1,2.83,2.83,0,0,1-.39-1.46,2.79,2.79,0,0,1,.39-1.45,3,3,0,0,1,1-1.05A2.72,2.72,0,0,1,9.38,645a2.78,2.78,0,0,1,1.44.39,3,3,0,0,1,1,1.05A2.79,2.79,0,0,1,12.25,647.9Z" transform="translate(-2.44 -2.44)"/><path class="cls-1" d="M16.56,634a5.79,5.79,0,0,1-.89,3.29,4.86,4.86,0,0,1-2.47,1.9,7.28,7.28,0,0,1-3.65.25A9.09,9.09,0,0,1,5.81,638a7.59,7.59,0,0,1-3.37-6.4,6,6,0,0,1,.72-3.08A4.4,4.4,0,0,1,5,626.77a4.1,4.1,0,0,1,2.44-.38v3.87a2.88,2.88,0,0,0-1,.25,1.71,1.71,0,0,0-.71.62,2,2,0,0,0-.26,1.07,2.63,2.63,0,0,0,.37,1.34,3.1,3.1,0,0,0,1.22,1.15,6.87,6.87,0,0,0,2.34.73,6.21,6.21,0,0,0,2,.05,2.43,2.43,0,0,0,1.18-.49,1.76,1.76,0,0,0,.55-.83,2.94,2.94,0,0,0,.15-.91,2.25,2.25,0,0,0-.12-.74,2.35,2.35,0,0,0-.3-.64,2.55,2.55,0,0,0-.41-.5,1.77,1.77,0,0,0-.46-.31l-.5-.24v2.4l-2.49-.39,0-6.31,7.26,1.11v2.44l-1.52-.22c.23.27.48.58.75.94a5.7,5.7,0,0,1,.68,1.33A5.9,5.9,0,0,1,16.56,634Z" transform="translate(-2.44 -2.44)"/><path class="cls-1" d="M16.37,626,2.63,619v-3.78l13.74-2.78v3.66l-2.66.5V621l2.66,1.34Zm-5.82-6.31V617l-4.38.67Z" transform="translate(-2.44 -2.44)"/><path class="cls-1" d="M16.37,610.88,2.63,608.76v-3.7l10.7,1.63v-5.51l3,.47Z" transform="translate(-2.44 -2.44)"/><path class="cls-1" d="M16.37,600.81l-13.74-7V590l13.74-2.78v3.66l-2.66.5v4.35l2.66,1.34Zm-5.82-6.31v-2.73l-4.38.67Z" transform="translate(-2.44 -2.44)"/><path class="cls-1" d="M16.56,576.23a9.32,9.32,0,0,1-.25,2.12,5.76,5.76,0,0,1-.79,1.84,3.71,3.71,0,0,1-1.36,1.25,3.65,3.65,0,0,1-2,.36v-3.86a1.4,1.4,0,0,0,.82-.29,1.58,1.58,0,0,0,.53-.72,2.78,2.78,0,0,0,.19-1.1,5.13,5.13,0,0,0-.12-1.12,2.28,2.28,0,0,0-.38-.91,1.12,1.12,0,0,0-.76-.44.6.6,0,0,0-.64.23,2.17,2.17,0,0,0-.35.81,10.49,10.49,0,0,0-.22,1.09l-.36,2.08A3.74,3.74,0,0,1,9.62,580a3.53,3.53,0,0,1-2.77.6,4.2,4.2,0,0,1-2.37-1.14A5.94,5.94,0,0,1,3,577.12a8.37,8.37,0,0,1-.52-3,6.38,6.38,0,0,1,.61-2.91,4.71,4.71,0,0,1,1.6-1.85,3.55,3.55,0,0,1,2.12-.6v3.77a1.43,1.43,0,0,0-.86.19,1.18,1.18,0,0,0-.47.66,4,4,0,0,0,0,2.25,1.62,1.62,0,0,0,.41.65,1.09,1.09,0,0,0,.5.24.84.84,0,0,0,.75-.2,2.13,2.13,0,0,0,.45-1.13L8,573.13a5.86,5.86,0,0,1,.79-2.25A3,3,0,0,1,10,569.81a3.44,3.44,0,0,1,1.34-.31,8.17,8.17,0,0,1,1.17.07,3.66,3.66,0,0,1,2.1,1.1A6.57,6.57,0,0,1,16,573.05,9.31,9.31,0,0,1,16.56,576.23Z" transform="translate(-2.44 -2.44)"/><path class="cls-1" d="M16.37,565.3,5.88,563.71v3.89l-3.25-.49V555.54l3.25.5v4l10.49,1.61Z" transform="translate(-2.44 -2.44)"/><path class="cls-1" d="M16.37,556.92l-13.74-7v-3.78l13.74-2.78V547l-2.66.49v4.36l2.66,1.34Zm-5.82-6.31v-2.72l-4.38.67Z" transform="translate(-2.44 -2.44)"/><path class="cls-1" d="M16.56,535.77a5.84,5.84,0,0,1-.74,3,5,5,0,0,1-2.05,1.91,6.7,6.7,0,0,1-3,.67,9.68,9.68,0,0,1-3-.49,8.29,8.29,0,0,1-2.67-1.47A6.9,6.9,0,0,1,3.15,537a7.68,7.68,0,0,1-.71-3.38,6,6,0,0,1,.6-2.78A4.21,4.21,0,0,1,4.75,529a5.54,5.54,0,0,1,2.73-.63v3.87a2.53,2.53,0,0,0-1.11.23,1.53,1.53,0,0,0-.71.64,2.07,2.07,0,0,0-.25,1.07,2.22,2.22,0,0,0,.52,1.51,3.71,3.71,0,0,0,1.36,1,7.48,7.48,0,0,0,1.8.51,10.62,10.62,0,0,0,1.83.16,3.24,3.24,0,0,0,2.05-.52,1.7,1.7,0,0,0,.62-1.38,2.1,2.1,0,0,0-.32-1.15,3,3,0,0,0-.86-.88,4.53,4.53,0,0,0-1.17-.57V529a11.45,11.45,0,0,1,2,.79A6.45,6.45,0,0,1,15,531,5.7,5.7,0,0,1,16.14,533,8.3,8.3,0,0,1,16.56,535.77Z" transform="translate(-2.44 -2.44)"/><path class="cls-1" d="M16.37,527.54l-13.74-2.1v-3.72l13.74,2.09Z" transform="translate(-2.44 -2.44)"/><path class="cls-1" d="M16.56,519.63c0,.39,0,.83,0,1.31a9.94,9.94,0,0,1-.14,1.16L13,521.6c0-.17,0-.37.07-.58s0-.43,0-.63a1.72,1.72,0,0,0-.5-1.4,3.26,3.26,0,0,0-1.57-.55l-8.44-1.31v-3.7L12,514.87a8.92,8.92,0,0,1,2.52.71A3.18,3.18,0,0,1,16.05,517,5.62,5.62,0,0,1,16.56,519.63Z" transform="translate(-2.44 -2.44)"/><path class="cls-1" d="M16.37,514.05l-13.74-7v-3.78l13.74-2.78v3.67l-2.66.5V509l2.66,1.34Zm-5.82-6.31V505l-4.38.67Z" transform="translate(-2.44 -2.44)"/><path class="cls-1" d="M12.25,491.87a2.79,2.79,0,0,1-.39,1.45,3,3,0,0,1-1,1,2.78,2.78,0,0,1-1.44.39A2.72,2.72,0,0,1,8,494.36a2.93,2.93,0,0,1-1-1,2.79,2.79,0,0,1-.39-1.45,2.83,2.83,0,0,1,.39-1.46,3,3,0,0,1,1-1.05A2.72,2.72,0,0,1,9.38,489a2.78,2.78,0,0,1,1.44.39,3.07,3.07,0,0,1,1,1.05A2.83,2.83,0,0,1,12.25,491.87Z" transform="translate(-2.44 -2.44)"/><path class="cls-1" d="M16.56,478a5.79,5.79,0,0,1-.89,3.29,4.86,4.86,0,0,1-2.47,1.9,7.39,7.39,0,0,1-3.65.25A9.09,9.09,0,0,1,5.81,482a7.82,7.82,0,0,1-2.49-2.76,7.71,7.71,0,0,1-.88-3.64,6,6,0,0,1,.72-3.08A4.43,4.43,0,0,1,5,470.74a4.09,4.09,0,0,1,2.44-.37v3.87a2.88,2.88,0,0,0-1,.25,1.71,1.71,0,0,0-.71.62,2,2,0,0,0-.26,1.07,2.66,2.66,0,0,0,.37,1.34,3.17,3.17,0,0,0,1.22,1.15,6.87,6.87,0,0,0,2.34.73,6.49,6.49,0,0,0,2,.05,2.34,2.34,0,0,0,1.18-.5,1.69,1.69,0,0,0,.55-.82,2.94,2.94,0,0,0,.15-.91,2.25,2.25,0,0,0-.12-.74,2.35,2.35,0,0,0-.3-.64,2.55,2.55,0,0,0-.41-.5,1.77,1.77,0,0,0-.46-.31l-.5-.24v2.39l-2.49-.38,0-6.31,7.26,1.11V474l-1.52-.22c.23.27.48.58.75.94a5.33,5.33,0,0,1,.68,1.33A5.9,5.9,0,0,1,16.56,478Z" transform="translate(-2.44 -2.44)"/><path class="cls-1" d="M16.37,470,2.63,463v-3.77l13.74-2.79v3.67l-2.66.5V465l2.66,1.34Zm-5.82-6.31V461l-4.38.67Z" transform="translate(-2.44 -2.44)"/><path class="cls-1" d="M16.37,454.85,2.63,452.74V449l10.7,1.63v-5.5l3,.47Z" transform="translate(-2.44 -2.44)"/><path class="cls-1" d="M16.37,444.79l-13.74-7V434l13.74-2.78v3.66l-2.66.5v4.36l2.66,1.34Zm-5.82-6.31v-2.72l-4.38.67Z" transform="translate(-2.44 -2.44)"/><path class="cls-1" d="M16.56,420.23a9.23,9.23,0,0,1-.25,2.11,5.76,5.76,0,0,1-.79,1.84,3.63,3.63,0,0,1-1.36,1.25,3.48,3.48,0,0,1-2,.36v-3.85a1.47,1.47,0,0,0,.82-.29,1.7,1.7,0,0,0,.53-.72,2.85,2.85,0,0,0,.19-1.1,5.22,5.22,0,0,0-.12-1.13,2.17,2.17,0,0,0-.38-.9,1.09,1.09,0,0,0-.76-.45.61.61,0,0,0-.64.24,2.17,2.17,0,0,0-.35.81,10.28,10.28,0,0,0-.22,1.08l-.36,2.08A3.74,3.74,0,0,1,9.62,424a3.45,3.45,0,0,1-2.77.6,4.19,4.19,0,0,1-2.37-1.13A6,6,0,0,1,3,421.11a8.36,8.36,0,0,1-.52-3,6.38,6.38,0,0,1,.61-2.91,4.74,4.74,0,0,1,1.6-1.86,3.47,3.47,0,0,1,2.12-.59v3.76a1.51,1.51,0,0,0-.86.19,1.25,1.25,0,0,0-.47.66,3.41,3.41,0,0,0-.15,1.09,3.34,3.34,0,0,0,.17,1.16,1.55,1.55,0,0,0,.41.65,1,1,0,0,0,.5.24.86.86,0,0,0,.75-.19,2.21,2.21,0,0,0,.45-1.14L8,417.12a5.75,5.75,0,0,1,.79-2.24A3,3,0,0,1,10,413.8a3.26,3.26,0,0,1,1.34-.3,7,7,0,0,1,1.17.06,3.73,3.73,0,0,1,2.1,1.11A6.53,6.53,0,0,1,16,417,9.32,9.32,0,0,1,16.56,420.23Z" transform="translate(-2.44 -2.44)"/><path class="cls-1" d="M16.37,409.3,5.88,407.71v3.89l-3.25-.5V399.54l3.25.5V404l10.49,1.61Z" transform="translate(-2.44 -2.44)"/><path class="cls-1" d="M16.37,400.9l-13.74-7v-3.78l13.74-2.78V391l-2.66.49v4.36l2.66,1.34Zm-5.82-6.31v-2.72l-4.38.67Z" transform="translate(-2.44 -2.44)"/><path class="cls-1" d="M16.56,379.74a5.81,5.81,0,0,1-.74,3,5.06,5.06,0,0,1-2.05,1.92,6.7,6.7,0,0,1-3,.66,9.4,9.4,0,0,1-3-.49,8.08,8.08,0,0,1-2.67-1.46A7.08,7.08,0,0,1,3.15,381a7.69,7.69,0,0,1-.71-3.39,6,6,0,0,1,.6-2.78A4.13,4.13,0,0,1,4.75,373a5.54,5.54,0,0,1,2.73-.63v3.86a2.84,2.84,0,0,0-1.11.23,1.6,1.6,0,0,0-.71.65,2,2,0,0,0-.25,1.07,2.24,2.24,0,0,0,.52,1.51,3.71,3.71,0,0,0,1.36,1,7.48,7.48,0,0,0,1.8.51,11.71,11.71,0,0,0,1.83.16,3.17,3.17,0,0,0,2.05-.53,1.68,1.68,0,0,0,.62-1.37,2.06,2.06,0,0,0-.32-1.15,2.88,2.88,0,0,0-.86-.88,4.23,4.23,0,0,0-1.17-.57v-3.88a11.48,11.48,0,0,1,2,.8A6.45,6.45,0,0,1,15,375a5.6,5.6,0,0,1,1.17,1.93A8.28,8.28,0,0,1,16.56,379.74Z" transform="translate(-2.44 -2.44)"/><path class="cls-1" d="M16.37,371.53l-13.74-2.1v-3.72l13.74,2.09Z" transform="translate(-2.44 -2.44)"/><path class="cls-1" d="M16.56,363.61c0,.39,0,.83,0,1.32a10,10,0,0,1-.14,1.15l-3.33-.5c0-.17,0-.37.07-.58s0-.43,0-.63a1.72,1.72,0,0,0-.5-1.4,3.37,3.37,0,0,0-1.57-.55l-8.44-1.31v-3.7L12,358.85a8.92,8.92,0,0,1,2.52.71A3.18,3.18,0,0,1,16.05,361,5.62,5.62,0,0,1,16.56,363.61Z" transform="translate(-2.44 -2.44)"/><path class="cls-1" d="M16.37,358,2.63,351v-3.78l13.74-2.78v3.66l-2.66.5V353l2.66,1.34Zm-5.82-6.31V349l-4.38.67Z" transform="translate(-2.44 -2.44)"/><path class="cls-1" d="M12.25,335.84a2.76,2.76,0,0,1-.39,1.45,3,3,0,0,1-1,1,2.78,2.78,0,0,1-1.44.39A2.72,2.72,0,0,1,8,338.34a3,3,0,0,1-1-1,2.89,2.89,0,0,1,0-2.9,3,3,0,0,1,1-1.05A2.72,2.72,0,0,1,9.38,333a2.78,2.78,0,0,1,1.44.39,3,3,0,0,1,1,1.05A2.79,2.79,0,0,1,12.25,335.84Z" transform="translate(-2.44 -2.44)"/><path class="cls-1" d="M16.56,322a5.85,5.85,0,0,1-.89,3.3,5,5,0,0,1-2.47,1.9,7.28,7.28,0,0,1-3.65.24A8.82,8.82,0,0,1,5.81,326a7.59,7.59,0,0,1-3.37-6.4,6,6,0,0,1,.72-3.07A4.37,4.37,0,0,1,5,314.71a4.1,4.1,0,0,1,2.44-.38v3.87a2.88,2.88,0,0,0-1,.25,1.66,1.66,0,0,0-.71.63,2,2,0,0,0-.26,1.06,2.63,2.63,0,0,0,.37,1.34,3.1,3.1,0,0,0,1.22,1.15,6.66,6.66,0,0,0,2.34.73,6.55,6.55,0,0,0,2,.06,2.44,2.44,0,0,0,1.18-.5,1.71,1.71,0,0,0,.55-.83,2.93,2.93,0,0,0,.15-.9,2.31,2.31,0,0,0-.12-.75,2.61,2.61,0,0,0-.71-1.13,1.83,1.83,0,0,0-.46-.32l-.5-.24v2.4l-2.49-.39,0-6.31,7.26,1.11V318l-1.52-.22c.23.27.48.58.75,1a5.43,5.43,0,0,1,.68,1.32A5.9,5.9,0,0,1,16.56,322Z" transform="translate(-2.44 -2.44)"/><path class="cls-1" d="M16.37,314,2.63,307v-3.78l13.74-2.78v3.66l-2.66.5V309l2.66,1.35Zm-5.82-6.31V305l-4.38.68Z" transform="translate(-2.44 -2.44)"/><path class="cls-1" d="M16.37,298.84,2.63,296.72V293l10.7,1.63v-5.51l3,.47Z" transform="translate(-2.44 -2.44)"/><path class="cls-1" d="M16.37,288.76l-13.74-7V278l13.74-2.79v3.67l-2.66.5v4.35l2.66,1.34Zm-5.82-6.31v-2.73l-4.38.67Z" transform="translate(-2.44 -2.44)"/><path class="cls-1" d="M16.56,264.18a9.32,9.32,0,0,1-.25,2.12,5.76,5.76,0,0,1-.79,1.84,3.71,3.71,0,0,1-1.36,1.25,3.65,3.65,0,0,1-2,.36v-3.86a1.4,1.4,0,0,0,.82-.29,1.58,1.58,0,0,0,.53-.72,2.78,2.78,0,0,0,.19-1.1,5.13,5.13,0,0,0-.12-1.12,2.28,2.28,0,0,0-.38-.91,1.12,1.12,0,0,0-.76-.44.6.6,0,0,0-.64.23,2.17,2.17,0,0,0-.35.81,10.49,10.49,0,0,0-.22,1.09l-.36,2.08a3.74,3.74,0,0,1-1.28,2.42,3.53,3.53,0,0,1-2.77.6,4.27,4.27,0,0,1-2.37-1.14A5.94,5.94,0,0,1,3,265.07a8.37,8.37,0,0,1-.52-3,6.38,6.38,0,0,1,.61-2.91,4.64,4.64,0,0,1,1.6-1.85,3.55,3.55,0,0,1,2.12-.6v3.77a1.36,1.36,0,0,0-.86.19,1.18,1.18,0,0,0-.47.66,4,4,0,0,0,0,2.25,1.62,1.62,0,0,0,.41.65,1.09,1.09,0,0,0,.5.24.84.84,0,0,0,.75-.2,2.13,2.13,0,0,0,.45-1.13L8,261.08a5.86,5.86,0,0,1,.79-2.25A3,3,0,0,1,10,257.76a3.44,3.44,0,0,1,1.34-.31,6.94,6.94,0,0,1,1.17.07,3.66,3.66,0,0,1,2.1,1.1A6.49,6.49,0,0,1,16,261,9.31,9.31,0,0,1,16.56,264.18Z" transform="translate(-2.44 -2.44)"/><path class="cls-1" d="M16.37,253.26,5.88,251.67v3.89l-3.25-.49V243.5l3.25.5V248l10.49,1.61Z" transform="translate(-2.44 -2.44)"/><path class="cls-1" d="M16.37,244.87l-13.74-7v-3.78l13.74-2.78V235l-2.66.49v4.36l2.66,1.34Zm-5.82-6.31v-2.72l-4.38.67Z" transform="translate(-2.44 -2.44)"/><path class="cls-1" d="M16.56,223.74a5.81,5.81,0,0,1-.74,3,5,5,0,0,1-2.05,1.91,6.58,6.58,0,0,1-3,.67,9.4,9.4,0,0,1-3-.49,8.26,8.26,0,0,1-2.67-1.46A7,7,0,0,1,3.15,225a7.65,7.65,0,0,1-.71-3.38,6,6,0,0,1,.6-2.78A4.13,4.13,0,0,1,4.75,217a5.43,5.43,0,0,1,2.73-.64v3.87a2.67,2.67,0,0,0-1.11.23,1.55,1.55,0,0,0-.71.65,2,2,0,0,0-.25,1.07,2.19,2.19,0,0,0,.52,1.5,3.73,3.73,0,0,0,1.36,1,7.48,7.48,0,0,0,1.8.51,11.67,11.67,0,0,0,1.83.15,3.18,3.18,0,0,0,2.05-.52,1.7,1.7,0,0,0,.62-1.38,2,2,0,0,0-.32-1.14,3,3,0,0,0-.86-.89,4.88,4.88,0,0,0-1.17-.57v-3.87a10.76,10.76,0,0,1,2,.8A6.21,6.21,0,0,1,15,219a5.7,5.7,0,0,1,1.17,1.93A8.3,8.3,0,0,1,16.56,223.74Z" transform="translate(-2.44 -2.44)"/><path class="cls-1" d="M16.37,215.49l-13.74-2.1v-3.72l13.74,2.09Z" transform="translate(-2.44 -2.44)"/><path class="cls-1" d="M16.56,207.56c0,.39,0,.83,0,1.32a9.94,9.94,0,0,1-.14,1.16l-3.33-.5c0-.17,0-.37.07-.59s0-.42,0-.62a1.72,1.72,0,0,0-.5-1.4,3.36,3.36,0,0,0-1.57-.56l-8.44-1.3v-3.7L12,202.81a8.92,8.92,0,0,1,2.52.71A3.14,3.14,0,0,1,16.05,205,5.6,5.6,0,0,1,16.56,207.56Z" transform="translate(-2.44 -2.44)"/><path class="cls-1" d="M16.37,202,2.63,195v-3.78l13.74-2.78v3.67l-2.66.49V197l2.66,1.34Zm-5.82-6.31V193l-4.38.67Z" transform="translate(-2.44 -2.44)"/><path class="cls-1" d="M12.25,179.83a2.76,2.76,0,0,1-.39,1.45,3,3,0,0,1-1,1.05,2.78,2.78,0,0,1-1.44.39A2.72,2.72,0,0,1,8,182.33a3,3,0,0,1-1-1.05,2.89,2.89,0,0,1,0-2.9,3,3,0,0,1,1-1,2.73,2.73,0,0,1,1.43-.4,2.79,2.79,0,0,1,1.44.4,3,3,0,0,1,1,1A2.79,2.79,0,0,1,12.25,179.83Z" transform="translate(-2.44 -2.44)"/><path class="cls-1" d="M16.56,166a5.85,5.85,0,0,1-.89,3.3,4.89,4.89,0,0,1-2.47,1.89,7.28,7.28,0,0,1-3.65.25A9,9,0,0,1,5.81,170a7.59,7.59,0,0,1-3.37-6.4,6,6,0,0,1,.72-3.08A4.4,4.4,0,0,1,5,158.71a4.1,4.1,0,0,1,2.44-.38v3.87a2.88,2.88,0,0,0-1,.25,1.71,1.71,0,0,0-.71.62,2,2,0,0,0-.26,1.07,2.63,2.63,0,0,0,.37,1.34,3.1,3.1,0,0,0,1.22,1.15,6.87,6.87,0,0,0,2.34.73,6.21,6.21,0,0,0,2,0,2.34,2.34,0,0,0,1.18-.49,1.71,1.71,0,0,0,.55-.83,2.94,2.94,0,0,0,.15-.91,2.25,2.25,0,0,0-.12-.74,2.5,2.5,0,0,0-.3-.64,2.88,2.88,0,0,0-.41-.5,1.77,1.77,0,0,0-.46-.31l-.5-.24v2.4l-2.49-.39,0-6.31,7.26,1.11V162l-1.52-.22c.23.27.48.58.75.94a5.7,5.7,0,0,1,.68,1.33A5.9,5.9,0,0,1,16.56,166Z" transform="translate(-2.44 -2.44)"/><path class="cls-1" d="M16.37,158,2.63,151v-3.78l13.74-2.78v3.66l-2.66.5v4.36l2.66,1.34Zm-5.82-6.31v-2.72l-4.38.67Z" transform="translate(-2.44 -2.44)"/><path class="cls-1" d="M16.37,142.82,2.63,140.7V137l10.7,1.63v-5.5l3,.47Z" transform="translate(-2.44 -2.44)"/><path class="cls-1" d="M16.37,132.75l-13.74-7V122l13.74-2.78v3.66l-2.66.5v4.35l2.66,1.35Zm-5.82-6.31v-2.73l-4.38.68Z" transform="translate(-2.44 -2.44)"/><path class="cls-1" d="M16.56,108.16a9.38,9.38,0,0,1-.25,2.12,5.7,5.7,0,0,1-.79,1.83,3.45,3.45,0,0,1-3.33,1.62v-3.86a1.47,1.47,0,0,0,.82-.29,1.58,1.58,0,0,0,.53-.72,2.78,2.78,0,0,0,.19-1.1,5.13,5.13,0,0,0-.12-1.12,2.28,2.28,0,0,0-.38-.91,1.08,1.08,0,0,0-.76-.44.6.6,0,0,0-.64.23,2.17,2.17,0,0,0-.35.81,10.83,10.83,0,0,0-.22,1.08l-.36,2.09a3.77,3.77,0,0,1-1.28,2.42,3.53,3.53,0,0,1-2.77.6,4.27,4.27,0,0,1-2.37-1.14A5.94,5.94,0,0,1,3,109.05a8.37,8.37,0,0,1-.52-3,6.38,6.38,0,0,1,.61-2.91,4.64,4.64,0,0,1,1.6-1.85,3.55,3.55,0,0,1,2.12-.6v3.77a1.36,1.36,0,0,0-.86.19,1.19,1.19,0,0,0-.47.65,3.48,3.48,0,0,0-.15,1.1,3.38,3.38,0,0,0,.17,1.16,1.51,1.51,0,0,0,.41.64,1.12,1.12,0,0,0,.5.25.87.87,0,0,0,.75-.2,2.13,2.13,0,0,0,.45-1.13L8,105.06a5.86,5.86,0,0,1,.79-2.25A3,3,0,0,1,10,101.74a3.44,3.44,0,0,1,1.34-.31,6.94,6.94,0,0,1,1.17.07,3.66,3.66,0,0,1,2.1,1.1A6.49,6.49,0,0,1,16,105,9.26,9.26,0,0,1,16.56,108.16Z" transform="translate(-2.44 -2.44)"/><path class="cls-1" d="M16.37,97.24,5.88,95.65v3.89l-3.25-.49V87.48l3.25.5v4l10.49,1.61Z" transform="translate(-2.44 -2.44)"/><path class="cls-1" d="M16.37,88.86l-13.74-7V78.08L16.37,75.3V79l-2.66.5v4.36l2.66,1.34Zm-5.82-6.31V79.83l-4.38.67Z" transform="translate(-2.44 -2.44)"/><path class="cls-1" d="M16.71,68.09a5.8,5.8,0,0,1-.94,3,4.92,4.92,0,0,1-2.17,1.78,6.59,6.59,0,0,1-3.06.47,9.57,9.57,0,0,1-3-.68A8.51,8.51,0,0,1,5,71a7.14,7.14,0,0,1-1.74-2.55A7.62,7.62,0,0,1,2.76,65a6.12,6.12,0,0,1,.77-2.73A4.2,4.2,0,0,1,5.36,60.6a5.4,5.4,0,0,1,2.76-.46L7.87,64a2.6,2.6,0,0,0-1.11.16,1.55,1.55,0,0,0-.76.6,2,2,0,0,0-.32,1,2.2,2.2,0,0,0,.42,1.53,3.68,3.68,0,0,0,1.3,1A7.37,7.37,0,0,0,9.16,69a12.33,12.33,0,0,0,1.82.27,3.2,3.2,0,0,0,2.08-.39,1.67,1.67,0,0,0,.71-1.33,2.05,2.05,0,0,0-.25-1.17,3.05,3.05,0,0,0-.8-.93,4.37,4.37,0,0,0-1.13-.65L11.84,61a12.21,12.21,0,0,1,2,.92,6.85,6.85,0,0,1,1.62,1.37,5.48,5.48,0,0,1,1,2A8.29,8.29,0,0,1,16.71,68.09Z" transform="translate(-2.44 -2.44)"/><path class="cls-1" d="M17.25,60.53,4.11,56l.66-3.66,13.15,4.5Z" transform="translate(-2.44 -2.44)"/><path class="cls-1" d="M18.88,53.27c-.1.38-.23.8-.4,1.26a9.62,9.62,0,0,1-.43,1.08L15,54.26l.21-.55a5.14,5.14,0,0,0,.2-.59,1.72,1.72,0,0,0-.12-1.48,3.34,3.34,0,0,0-1.37-1L6.08,47.23l1-3.57,8.68,3.84A9.23,9.23,0,0,1,18,48.84a3.2,3.2,0,0,1,1.08,1.78A5.58,5.58,0,0,1,18.88,53.27Z" transform="translate(-2.44 -2.44)"/><path class="cls-1" d="M19.61,48.5,9.75,36.65l1.49-3.47L25,36l-1.44,3.37-2.64-.59-1.72,4,1.91,2.28Zm-2.85-8.09,1.07-2.5-4.29-1.12Z" transform="translate(-2.44 -2.44)"/><path class="cls-1" d="M25.84,27.53a2.74,2.74,0,0,1-1.17.94,2.94,2.94,0,0,1-1.46.23,2.78,2.78,0,0,1-1.39-.54A2.64,2.64,0,0,1,20.9,27a3,3,0,0,1-.22-1.46,2.83,2.83,0,0,1,.55-1.4,2.8,2.8,0,0,1,1.17-.94A3.06,3.06,0,0,1,23.86,23a2.73,2.73,0,0,1,1.38.53,2.79,2.79,0,0,1,.93,1.17,3,3,0,0,1,.22,1.46A2.83,2.83,0,0,1,25.84,27.53Z" transform="translate(-2.44 -2.44)"/><path class="cls-1" d="M37.65,21.54a5.75,5.75,0,0,1-3.21,1.15,4.89,4.89,0,0,1-3-1,7.34,7.34,0,0,1-2.28-2.86,9,9,0,0,1-1-3.89,7.84,7.84,0,0,1,.85-3.62,7.65,7.65,0,0,1,2.49-2.8,6,6,0,0,1,2.94-1.16,4.39,4.39,0,0,1,2.54.53,4.12,4.12,0,0,1,1.7,1.78l-3.18,2.21a2.89,2.89,0,0,0-.78-.68,1.66,1.66,0,0,0-.92-.23,1.92,1.92,0,0,0-1,.39,2.71,2.71,0,0,0-.9,1.07,3.18,3.18,0,0,0-.24,1.66,6.64,6.64,0,0,0,.73,2.34,6.64,6.64,0,0,0,1.12,1.7,2.36,2.36,0,0,0,1.08.69,1.78,1.78,0,0,0,1,0,2.84,2.84,0,0,0,.82-.4,2.24,2.24,0,0,0,.55-.51,2.9,2.9,0,0,0,.35-.61,2.11,2.11,0,0,0,.17-.63,1.75,1.75,0,0,0,0-.56l-.08-.54-2,1.37L34.38,14.7l5.21-3.56,3.22,6.59-2,1.39-.69-1.37c-.08.34-.2.73-.34,1.15a5.3,5.3,0,0,1-.7,1.32A5.79,5.79,0,0,1,37.65,21.54Z" transform="translate(-2.44 -2.44)"/><path class="cls-1" d="M41.77,17.39,47.11,2.92l3.76-.44L55.24,15.8l-3.64.43-.8-2.59-4.33.51-1,2.8Zm5.59-6.52,2.7-.32L48.88,6.27Z" transform="translate(-2.44 -2.44)"/><path class="cls-1" d="M56.2,16.37,58.32,2.63H62l-1.63,10.7h5.5l-.46,3Z" transform="translate(-2.44 -2.44)"/><path class="cls-1" d="M66.29,16.37l7-13.74h3.78l2.78,13.74H76.19l-.5-2.66H71.33L70,16.37Zm6.31-5.82h2.72l-.67-4.38Z" transform="translate(-2.44 -2.44)"/><path class="cls-1" d="M90.85,16.56a9.23,9.23,0,0,1-2.11-.25,5.76,5.76,0,0,1-1.84-.79,3.63,3.63,0,0,1-1.25-1.36,3.46,3.46,0,0,1-.36-2h3.85a1.54,1.54,0,0,0,.29.83,1.64,1.64,0,0,0,.72.52,2.85,2.85,0,0,0,1.1.19,5.22,5.22,0,0,0,1.13-.12,2.23,2.23,0,0,0,.9-.38,1.09,1.09,0,0,0,.45-.76.63.63,0,0,0-.24-.64,2.17,2.17,0,0,0-.81-.35,10.83,10.83,0,0,0-1.08-.22l-2.08-.36A3.74,3.74,0,0,1,87.1,9.62a3.45,3.45,0,0,1-.6-2.77,4.19,4.19,0,0,1,1.13-2.37A6,6,0,0,1,90,3a8.41,8.41,0,0,1,3-.52,6.51,6.51,0,0,1,2.91.61,4.74,4.74,0,0,1,1.86,1.6,3.54,3.54,0,0,1,.59,2.12H94.53a1.43,1.43,0,0,0-.18-.86,1.25,1.25,0,0,0-.66-.47,3.41,3.41,0,0,0-1.09-.15,3.34,3.34,0,0,0-1.16.17,1.47,1.47,0,0,0-.65.42,1,1,0,0,0-.25.49.9.9,0,0,0,.2.75,2.21,2.21,0,0,0,1.14.45L94,8a5.58,5.58,0,0,1,2.24.8A2.92,2.92,0,0,1,97.28,10a3.26,3.26,0,0,1,.3,1.34,7,7,0,0,1-.06,1.17,3.73,3.73,0,0,1-1.11,2.1A6.53,6.53,0,0,1,94,16,9.32,9.32,0,0,1,90.85,16.56Z" transform="translate(-2.44 -2.44)"/><path class="cls-1" d="M101.78,16.37l1.59-10.49H99.48L100,2.63h11.57L111,5.88h-4l-1.61,10.49Z" transform="translate(-2.44 -2.44)"/><path class="cls-1" d="M110.18,16.37l7-13.74H121l2.78,13.74h-3.66l-.5-2.66h-4.36l-1.34,2.66Zm6.31-5.82h2.72l-.67-4.38Z" transform="translate(-2.44 -2.44)"/><path class="cls-1" d="M131.33,16.56a5.84,5.84,0,0,1-3-.74,5,5,0,0,1-1.91-2.05,6.69,6.69,0,0,1-.67-3,9.69,9.69,0,0,1,.49-3,8.29,8.29,0,0,1,1.47-2.67,6.9,6.9,0,0,1,2.42-1.9,7.68,7.68,0,0,1,3.38-.71,6,6,0,0,1,2.78.6,4.21,4.21,0,0,1,1.81,1.71,5.54,5.54,0,0,1,.63,2.73h-3.87a2.56,2.56,0,0,0-.23-1.11,1.58,1.58,0,0,0-.64-.71,2.07,2.07,0,0,0-1.07-.25,2.22,2.22,0,0,0-1.51.52,3.71,3.71,0,0,0-1,1.36,8,8,0,0,0-.52,1.8,11.67,11.67,0,0,0-.15,1.83,3.24,3.24,0,0,0,.52,2.05,1.7,1.7,0,0,0,1.38.62,2.1,2.1,0,0,0,1.15-.32,3,3,0,0,0,.88-.86,4.53,4.53,0,0,0,.57-1.17h3.87a11.45,11.45,0,0,1-.79,2A6.45,6.45,0,0,1,136.08,15a5.7,5.7,0,0,1-1.93,1.17A8.3,8.3,0,0,1,131.33,16.56Z" transform="translate(-2.44 -2.44)"/><path class="cls-1" d="M139.57,16.37l2.1-13.74h3.72L143.3,16.37Z" transform="translate(-2.44 -2.44)"/><path class="cls-1" d="M147.49,16.56c-.39,0-.83,0-1.32,0a9.72,9.72,0,0,1-1.15-.14l.5-3.33.58.07.63,0a1.72,1.72,0,0,0,1.4-.5,3.37,3.37,0,0,0,.55-1.57L150,2.63h3.7L152.25,12a8.92,8.92,0,0,1-.71,2.52,3.25,3.25,0,0,1-1.43,1.52A5.76,5.76,0,0,1,147.49,16.56Z" transform="translate(-2.44 -2.44)"/><path class="cls-1" d="M153.05,16.37l7-13.74h3.78l2.78,13.74H163l-.5-2.66H158.1l-1.34,2.66Zm6.31-5.82h2.73l-.67-4.38Z" transform="translate(-2.44 -2.44)"/><path class="cls-1" d="M175.23,12.25a2.83,2.83,0,0,1-1.46-.39,3,3,0,0,1-1-1,2.78,2.78,0,0,1-.39-1.44A2.72,2.72,0,0,1,172.73,8a3,3,0,0,1,1-1,2.83,2.83,0,0,1,1.46-.39,2.79,2.79,0,0,1,1.45.39,3,3,0,0,1,1,1,2.72,2.72,0,0,1,.39,1.43,2.78,2.78,0,0,1-.39,1.44,3,3,0,0,1-1,1A2.79,2.79,0,0,1,175.23,12.25Z" transform="translate(-2.44 -2.44)"/><path class="cls-1" d="M189.1,16.56a5.79,5.79,0,0,1-3.29-.89,4.86,4.86,0,0,1-1.9-2.47,7.39,7.39,0,0,1-.25-3.65,9.09,9.09,0,0,1,1.44-3.74,7.7,7.7,0,0,1,2.76-2.48,7.57,7.57,0,0,1,3.64-.89,6,6,0,0,1,3.08.72A4.48,4.48,0,0,1,196.37,5a4.09,4.09,0,0,1,.37,2.44h-3.87a2.88,2.88,0,0,0-.25-1,1.71,1.71,0,0,0-.62-.71,2,2,0,0,0-1.07-.26,2.63,2.63,0,0,0-1.34.37,3.1,3.1,0,0,0-1.15,1.22,6.87,6.87,0,0,0-.73,2.34,6.21,6.21,0,0,0-.05,2,2.34,2.34,0,0,0,.5,1.18,1.78,1.78,0,0,0,.82.56,3.25,3.25,0,0,0,.91.14,2.25,2.25,0,0,0,.74-.12,2.35,2.35,0,0,0,.64-.3,2.55,2.55,0,0,0,.5-.41,1.77,1.77,0,0,0,.31-.46l.24-.5h-2.39l.38-2.49,6.31,0-1.11,7.26h-2.44l.22-1.52c-.27.23-.58.48-.94.75a5.18,5.18,0,0,1-1.33.68A5.64,5.64,0,0,1,189.1,16.56Z" transform="translate(-2.44 -2.44)"/><path class="cls-1" d="M197.1,16.37l7-13.74h3.78l2.78,13.74H207l-.5-2.66h-4.35l-1.35,2.66Zm6.31-5.82h2.72l-.67-4.38Z" transform="translate(-2.44 -2.44)"/><path class="cls-1" d="M212.23,16.37l2.12-13.74h3.7l-1.63,10.7h5.5l-.46,3Z" transform="translate(-2.44 -2.44)"/><path class="cls-1" d="M222.32,16.37l7-13.74h3.78l2.78,13.74h-3.66l-.5-2.66h-4.35L226,16.37Zm6.31-5.82h2.73l-.67-4.38Z" transform="translate(-2.44 -2.44)"/><path class="cls-1" d="M246.89,16.56a9.32,9.32,0,0,1-2.12-.25,5.61,5.61,0,0,1-1.83-.79,3.45,3.45,0,0,1-1.62-3.33h3.86a1.46,1.46,0,0,0,.29.83,1.64,1.64,0,0,0,.72.52,2.78,2.78,0,0,0,1.1.19,5.13,5.13,0,0,0,1.12-.12,2.28,2.28,0,0,0,.91-.38,1.12,1.12,0,0,0,.44-.76.6.6,0,0,0-.23-.64,2.17,2.17,0,0,0-.81-.35,10.49,10.49,0,0,0-1.09-.22l-2.08-.36a3.77,3.77,0,0,1-2.42-1.28,3.52,3.52,0,0,1-.6-2.77,4.27,4.27,0,0,1,1.14-2.37A5.94,5.94,0,0,1,246,3a8.37,8.37,0,0,1,3-.52,6.51,6.51,0,0,1,2.91.61,4.64,4.64,0,0,1,1.85,1.6,3.55,3.55,0,0,1,.6,2.12h-3.77a1.36,1.36,0,0,0-.19-.86,1.19,1.19,0,0,0-.65-.47,3.48,3.48,0,0,0-1.1-.15,3.38,3.38,0,0,0-1.16.17,1.53,1.53,0,0,0-.65.42,1.12,1.12,0,0,0-.24.49.84.84,0,0,0,.2.75,2.13,2.13,0,0,0,1.13.45L250,8a5.69,5.69,0,0,1,2.25.8A2.89,2.89,0,0,1,253.31,10a3.44,3.44,0,0,1,.31,1.34,6.94,6.94,0,0,1-.07,1.17,3.66,3.66,0,0,1-1.1,2.1A6.49,6.49,0,0,1,250.07,16,9.26,9.26,0,0,1,246.89,16.56Z" transform="translate(-2.44 -2.44)"/><path class="cls-1" d="M257.82,16.37l1.59-10.49h-3.9l.5-3.25h11.57l-.5,3.25h-3.95l-1.61,10.49Z" transform="translate(-2.44 -2.44)"/><path class="cls-1" d="M266.2,16.37l7-13.74H277l2.79,13.74H276.1l-.5-2.66h-4.35l-1.34,2.66Zm6.31-5.82h2.73l-.67-4.38Z" transform="translate(-2.44 -2.44)"/><path class="cls-1" d="M287.37,16.56a5.81,5.81,0,0,1-3-.74,5.06,5.06,0,0,1-1.92-2.05,6.69,6.69,0,0,1-.66-3,9.41,9.41,0,0,1,.49-3,8.08,8.08,0,0,1,1.46-2.67,7,7,0,0,1,2.43-1.9,7.61,7.61,0,0,1,3.38-.71,6,6,0,0,1,2.78.6,4.13,4.13,0,0,1,1.8,1.71,5.54,5.54,0,0,1,.63,2.73h-3.86a2.71,2.71,0,0,0-.23-1.11,1.6,1.6,0,0,0-.65-.71,2,2,0,0,0-1.07-.25,2.19,2.19,0,0,0-1.5.52,3.62,3.62,0,0,0-1,1.36,7.48,7.48,0,0,0-.51,1.8,11.67,11.67,0,0,0-.15,1.83,3.18,3.18,0,0,0,.52,2.05,1.69,1.69,0,0,0,1.37.62,2.06,2.06,0,0,0,1.15-.32,2.88,2.88,0,0,0,.88-.86,4.23,4.23,0,0,0,.57-1.17h3.88a11.48,11.48,0,0,1-.8,2A6.42,6.42,0,0,1,292.12,15a5.74,5.74,0,0,1-1.94,1.17A8.28,8.28,0,0,1,287.37,16.56Z" transform="translate(-2.44 -2.44)"/><path class="cls-1" d="M295.6,16.37l2.1-13.74h3.72l-2.09,13.74Z" transform="translate(-2.44 -2.44)"/><path class="cls-1" d="M303.51,16.56c-.39,0-.83,0-1.32,0a9.72,9.72,0,0,1-1.15-.14l.5-3.33.58.07.63,0a1.72,1.72,0,0,0,1.4-.5,3.37,3.37,0,0,0,.55-1.57L306,2.63h3.7L308.27,12a8.92,8.92,0,0,1-.71,2.52,3.25,3.25,0,0,1-1.43,1.52A5.76,5.76,0,0,1,303.51,16.56Z" transform="translate(-2.44 -2.44)"/><path class="cls-1" d="M309.06,16.37l7-13.74h3.78l2.78,13.74H319l-.5-2.66h-4.35l-1.35,2.66Zm6.31-5.82h2.73l-.67-4.38Z" transform="translate(-2.44 -2.44)"/><path class="cls-1" d="M331.27,12.25a2.76,2.76,0,0,1-1.45-.39,3,3,0,0,1-1.05-1,2.78,2.78,0,0,1-.39-1.44A2.72,2.72,0,0,1,328.77,8a3,3,0,0,1,1.05-1,2.89,2.89,0,0,1,2.9,0,3,3,0,0,1,1,1,2.72,2.72,0,0,1,.39,1.43,2.78,2.78,0,0,1-.39,1.44,3,3,0,0,1-1,1A2.79,2.79,0,0,1,331.27,12.25Z" transform="translate(-2.44 -2.44)"/><path class="cls-1" d="M345.12,16.56a5.81,5.81,0,0,1-3.29-.89,4.91,4.91,0,0,1-1.9-2.47,7.28,7.28,0,0,1-.24-3.65,8.82,8.82,0,0,1,1.44-3.74,7.62,7.62,0,0,1,6.39-3.37,6,6,0,0,1,3.08.72A4.42,4.42,0,0,1,352.39,5a4.17,4.17,0,0,1,.38,2.44h-3.88a2.51,2.51,0,0,0-.25-1,1.64,1.64,0,0,0-.62-.71A2,2,0,0,0,347,5.5a2.7,2.7,0,0,0-1.35.37,3.25,3.25,0,0,0-1.15,1.22,7.1,7.1,0,0,0-.73,2.34,6.81,6.81,0,0,0-.05,2,2.34,2.34,0,0,0,.5,1.18,1.81,1.81,0,0,0,.83.56,3.23,3.23,0,0,0,.9.14,2.25,2.25,0,0,0,.74-.12,2.22,2.22,0,0,0,.64-.3,2.55,2.55,0,0,0,.5-.41,1.83,1.83,0,0,0,.32-.46l.24-.5H346l.38-2.49,6.31,0-1.11,7.26H349.1l.22-1.52c-.27.23-.59.48-.95.75a5.1,5.1,0,0,1-1.32.68A5.66,5.66,0,0,1,345.12,16.56Z" transform="translate(-2.44 -2.44)"/><path class="cls-1" d="M353.13,16.37l7-13.74h3.78l2.78,13.74H363l-.5-2.66h-4.36l-1.34,2.66Zm6.31-5.82h2.72l-.67-4.38Z" transform="translate(-2.44 -2.44)"/><path class="cls-1" d="M368.28,16.37,370.4,2.63h3.71l-1.64,10.7H378l-.47,3Z" transform="translate(-2.44 -2.44)"/><path class="cls-1" d="M378.34,16.37l7-13.74h3.78l2.78,13.74h-3.66l-.5-2.66h-4.35L382,16.37Zm6.31-5.82h2.73l-.68-4.38Z" transform="translate(-2.44 -2.44)"/><path class="cls-1" d="M402.92,16.56a9.32,9.32,0,0,1-2.12-.25,5.7,5.7,0,0,1-1.83-.79,3.45,3.45,0,0,1-1.62-3.33h3.86a1.54,1.54,0,0,0,.29.83,1.64,1.64,0,0,0,.72.52,2.78,2.78,0,0,0,1.1.19,5.13,5.13,0,0,0,1.12-.12,2.28,2.28,0,0,0,.91-.38,1.12,1.12,0,0,0,.44-.76.6.6,0,0,0-.23-.64,2.17,2.17,0,0,0-.81-.35,10.83,10.83,0,0,0-1.08-.22l-2.09-.36a3.77,3.77,0,0,1-2.42-1.28,3.52,3.52,0,0,1-.6-2.77,4.27,4.27,0,0,1,1.14-2.37A5.94,5.94,0,0,1,402,3a8.37,8.37,0,0,1,3-.52,6.51,6.51,0,0,1,2.91.61,4.64,4.64,0,0,1,1.85,1.6,3.55,3.55,0,0,1,.6,2.12H406.6a1.36,1.36,0,0,0-.19-.86,1.19,1.19,0,0,0-.65-.47,3.48,3.48,0,0,0-1.1-.15,3.38,3.38,0,0,0-1.16.17,1.53,1.53,0,0,0-.65.42,1.12,1.12,0,0,0-.24.49.87.87,0,0,0,.2.75,2.13,2.13,0,0,0,1.13.45L406,8a5.69,5.69,0,0,1,2.25.8A2.89,2.89,0,0,1,409.34,10a3.44,3.44,0,0,1,.31,1.34,6.94,6.94,0,0,1-.07,1.17,3.66,3.66,0,0,1-1.1,2.1A6.49,6.49,0,0,1,406.1,16,9.26,9.26,0,0,1,402.92,16.56Z" transform="translate(-2.44 -2.44)"/><path class="cls-1" d="M413.84,16.37l1.6-10.49h-3.9l.5-3.25h11.57l-.5,3.25h-3.95l-1.61,10.49Z" transform="translate(-2.44 -2.44)"/><path class="cls-1" d="M422.23,16.37l7-13.74H433l2.78,13.74h-3.66l-.5-2.66h-4.35l-1.35,2.66Zm6.31-5.82h2.73l-.68-4.38Z" transform="translate(-2.44 -2.44)"/><path class="cls-1" d="M443.38,16.56a5.84,5.84,0,0,1-3-.74,5,5,0,0,1-1.91-2.05,6.56,6.56,0,0,1-.67-3,9.69,9.69,0,0,1,.49-3,8.46,8.46,0,0,1,1.46-2.67,7,7,0,0,1,2.43-1.9,7.68,7.68,0,0,1,3.38-.71,6,6,0,0,1,2.78.6,4.21,4.21,0,0,1,1.81,1.71,5.54,5.54,0,0,1,.63,2.73H446.9a2.56,2.56,0,0,0-.23-1.11,1.58,1.58,0,0,0-.64-.71A2.07,2.07,0,0,0,445,5.41a2.22,2.22,0,0,0-1.51.52,3.71,3.71,0,0,0-1,1.36,8,8,0,0,0-.52,1.8,11.67,11.67,0,0,0-.15,1.83,3.18,3.18,0,0,0,.52,2.05,1.7,1.7,0,0,0,1.38.62,2.1,2.1,0,0,0,1.15-.32,3,3,0,0,0,.88-.86,4.88,4.88,0,0,0,.57-1.17h3.87a11.45,11.45,0,0,1-.79,2A6.45,6.45,0,0,1,448.13,15a5.7,5.7,0,0,1-1.93,1.17A8.3,8.3,0,0,1,443.38,16.56Z" transform="translate(-2.44 -2.44)"/><path class="cls-1" d="M451.63,16.37l2.1-13.74h3.72l-2.09,13.74Z" transform="translate(-2.44 -2.44)"/><path class="cls-1" d="M459.56,16.56c-.39,0-.83,0-1.32,0a9.94,9.94,0,0,1-1.16-.14l.5-3.33.59.07.62,0a1.71,1.71,0,0,0,1.4-.5,3.36,3.36,0,0,0,.56-1.57l1.3-8.44h3.7L464.31,12a8.92,8.92,0,0,1-.71,2.52,3.2,3.2,0,0,1-1.43,1.52A5.74,5.74,0,0,1,459.56,16.56Z" transform="translate(-2.44 -2.44)"/><path class="cls-1" d="M465.12,16.37l7-13.74h3.78l2.78,13.74H475l-.49-2.66h-4.36l-1.34,2.66Zm6.31-5.82h2.72l-.67-4.38Z" transform="translate(-2.44 -2.44)"/><path class="cls-1" d="M487.29,12.25a2.8,2.8,0,0,1-1.46-.39,3,3,0,0,1-1-1,2.78,2.78,0,0,1-.39-1.44A2.72,2.72,0,0,1,484.79,8a2.93,2.93,0,0,1,1-1,2.91,2.91,0,0,1,2.91,0,3,3,0,0,1,1.05,1,2.72,2.72,0,0,1,.39,1.43,2.78,2.78,0,0,1-.39,1.44,3,3,0,0,1-1.05,1A2.79,2.79,0,0,1,487.29,12.25Z" transform="translate(-2.44 -2.44)"/><path class="cls-1" d="M501.15,16.56a5.79,5.79,0,0,1-3.29-.89A4.86,4.86,0,0,1,496,13.2a7.39,7.39,0,0,1-.25-3.65,9.09,9.09,0,0,1,1.44-3.74,7.7,7.7,0,0,1,2.76-2.48,7.6,7.6,0,0,1,3.64-.89,6,6,0,0,1,3.08.72A4.48,4.48,0,0,1,508.42,5a4.17,4.17,0,0,1,.38,2.44h-3.88a2.68,2.68,0,0,0-.25-1,1.71,1.71,0,0,0-.62-.71A2,2,0,0,0,503,5.5a2.66,2.66,0,0,0-1.34.37,3.17,3.17,0,0,0-1.15,1.22,6.87,6.87,0,0,0-.73,2.34,6.49,6.49,0,0,0-.05,2,2.34,2.34,0,0,0,.5,1.18,1.78,1.78,0,0,0,.82.56,3.25,3.25,0,0,0,.91.14,2.25,2.25,0,0,0,.74-.12,2.35,2.35,0,0,0,.64-.3,2.55,2.55,0,0,0,.5-.41,1.77,1.77,0,0,0,.31-.46l.24-.5H502l.38-2.49,6.31,0-1.11,7.26h-2.44l.22-1.52c-.27.23-.58.48-.94.75a5,5,0,0,1-1.33.68A5.64,5.64,0,0,1,501.15,16.56Z" transform="translate(-2.44 -2.44)"/><path class="cls-1" d="M509.16,16.37l7-13.74h3.78l2.78,13.74h-3.66l-.5-2.66H514.2l-1.34,2.66Zm6.31-5.82h2.72l-.67-4.38Z" transform="translate(-2.44 -2.44)"/><path class="cls-1" d="M524.3,16.37l2.12-13.74h3.7l-1.63,10.7H534l-.47,3Z" transform="translate(-2.44 -2.44)"/><path class="cls-1" d="M534.39,16.37l7-13.74h3.78L548,16.37h-3.66l-.5-2.66h-4.35l-1.35,2.66Zm6.31-5.82h2.73l-.68-4.38Z" transform="translate(-2.44 -2.44)"/><path class="cls-1" d="M559,16.56a9.3,9.3,0,0,1-2.11-.25,5.76,5.76,0,0,1-1.84-.79,3.71,3.71,0,0,1-1.25-1.36,3.46,3.46,0,0,1-.36-2h3.86a1.53,1.53,0,0,0,.28.83,1.76,1.76,0,0,0,.72.52,2.87,2.87,0,0,0,1.11.19,5.13,5.13,0,0,0,1.12-.12,2.17,2.17,0,0,0,.9-.38,1.09,1.09,0,0,0,.45-.76.6.6,0,0,0-.23-.64,2.33,2.33,0,0,0-.81-.35,10.49,10.49,0,0,0-1.09-.22l-2.08-.36a3.74,3.74,0,0,1-2.42-1.28,3.52,3.52,0,0,1-.6-2.77,4.14,4.14,0,0,1,1.14-2.37A5.94,5.94,0,0,1,558.08,3a8.36,8.36,0,0,1,3-.52,6.52,6.52,0,0,1,2.92.61,4.78,4.78,0,0,1,1.85,1.6,3.55,3.55,0,0,1,.6,2.12h-3.77a1.43,1.43,0,0,0-.19-.86,1.18,1.18,0,0,0-.66-.47,3.41,3.41,0,0,0-1.09-.15,3.34,3.34,0,0,0-1.16.17,1.47,1.47,0,0,0-.65.42.94.94,0,0,0-.24.49.86.86,0,0,0,.19.75,2.21,2.21,0,0,0,1.14.45l2.08.36a5.69,5.69,0,0,1,2.25.8A3,3,0,0,1,565.39,10a3.44,3.44,0,0,1,.31,1.34,8.17,8.17,0,0,1-.07,1.17,3.72,3.72,0,0,1-1.1,2.1A6.57,6.57,0,0,1,562.15,16,9.32,9.32,0,0,1,559,16.56Z" transform="translate(-2.44 -2.44)"/><path class="cls-1" d="M569.88,16.37l1.6-10.49h-3.9l.5-3.25h11.57l-.5,3.25H575.2l-1.61,10.49Z" transform="translate(-2.44 -2.44)"/><path class="cls-1" d="M578.27,16.37l7-13.74h3.77l2.79,13.74h-3.67l-.5-2.66h-4.35L582,16.37Zm6.31-5.82h2.73l-.67-4.38Z" transform="translate(-2.44 -2.44)"/><path class="cls-1" d="M599.43,16.56a5.84,5.84,0,0,1-3-.74,5,5,0,0,1-1.91-2.05,6.56,6.56,0,0,1-.67-3,9.69,9.69,0,0,1,.49-3,8.26,8.26,0,0,1,1.46-2.67,7,7,0,0,1,2.43-1.9,7.68,7.68,0,0,1,3.38-.71,6,6,0,0,1,2.78.6,4.21,4.21,0,0,1,1.81,1.71,5.54,5.54,0,0,1,.63,2.73H603a2.56,2.56,0,0,0-.23-1.11,1.58,1.58,0,0,0-.64-.71A2.09,2.09,0,0,0,601,5.41a2.22,2.22,0,0,0-1.51.52,3.71,3.71,0,0,0-1,1.36,8,8,0,0,0-.52,1.8,11.67,11.67,0,0,0-.15,1.83,3.18,3.18,0,0,0,.52,2.05,1.7,1.7,0,0,0,1.38.62,2.1,2.1,0,0,0,1.15-.32,3,3,0,0,0,.88-.86,4.88,4.88,0,0,0,.57-1.17h3.87a11.45,11.45,0,0,1-.79,2A6.45,6.45,0,0,1,604.18,15a5.7,5.7,0,0,1-1.93,1.17A8.3,8.3,0,0,1,599.43,16.56Z" transform="translate(-2.44 -2.44)"/><path class="cls-1" d="M607.66,16.37l2.1-13.74h3.72l-2.09,13.74Z" transform="translate(-2.44 -2.44)"/><path class="cls-1" d="M615.59,16.56c-.39,0-.83,0-1.32,0a9.94,9.94,0,0,1-1.16-.14l.5-3.33.59.07.62,0a1.72,1.72,0,0,0,1.4-.5,3.26,3.26,0,0,0,.55-1.57l1.31-8.44h3.7L620.34,12a8.92,8.92,0,0,1-.71,2.52,3.2,3.2,0,0,1-1.43,1.52A5.74,5.74,0,0,1,615.59,16.56Z" transform="translate(-2.44 -2.44)"/><path class="cls-1" d="M621.14,16.37l7-13.74h3.78l2.78,13.74H631l-.5-2.66h-4.35l-1.35,2.66Zm6.31-5.82h2.73l-.67-4.38Z" transform="translate(-2.44 -2.44)"/><path class="cls-1" d="M643.33,12.25a2.79,2.79,0,0,1-1.45-.39,3,3,0,0,1-1-1,2.78,2.78,0,0,1-.39-1.44A2.72,2.72,0,0,1,640.83,8a3,3,0,0,1,1-1,2.89,2.89,0,0,1,2.9,0,3,3,0,0,1,1.05,1,2.64,2.64,0,0,1,.4,1.43,2.7,2.7,0,0,1-.4,1.44,3,3,0,0,1-1.05,1A2.76,2.76,0,0,1,643.33,12.25Z" transform="translate(-2.44 -2.44)"/><path class="cls-1" d="M657.19,16.56a5.79,5.79,0,0,1-3.29-.89A4.86,4.86,0,0,1,652,13.2a7.28,7.28,0,0,1-.24-3.65,8.94,8.94,0,0,1,1.43-3.74A7.7,7.7,0,0,1,656,3.33a7.6,7.6,0,0,1,3.64-.89,6,6,0,0,1,3.08.72A4.48,4.48,0,0,1,664.46,5a4.17,4.17,0,0,1,.38,2.44H661a2.68,2.68,0,0,0-.25-1,1.71,1.71,0,0,0-.62-.71A2,2,0,0,0,659,5.5a2.66,2.66,0,0,0-1.34.37,3.17,3.17,0,0,0-1.15,1.22,7.1,7.1,0,0,0-.73,2.34,6.49,6.49,0,0,0,0,2,2.34,2.34,0,0,0,.5,1.18,1.78,1.78,0,0,0,.82.56,3.3,3.3,0,0,0,.91.14,2.25,2.25,0,0,0,.74-.12,2.22,2.22,0,0,0,.64-.3,2.55,2.55,0,0,0,.5-.41,1.83,1.83,0,0,0,.32-.46l.24-.5H658l.38-2.49,6.31,0-1.11,7.26h-2.44l.22-1.52c-.26.23-.58.48-.94.75a5.1,5.1,0,0,1-1.32.68A5.74,5.74,0,0,1,657.19,16.56Z" transform="translate(-2.44 -2.44)"/><path class="cls-1" d="M665.21,16.37l7-13.74H676l2.78,13.74H675.1l-.49-2.66h-4.36l-1.34,2.66Zm6.31-5.82h2.72l-.67-4.38Z" transform="translate(-2.44 -2.44)"/><path class="cls-1" d="M680.34,16.37l2.12-13.74h3.7l-1.63,10.7H690l-.47,3Z" transform="translate(-2.44 -2.44)"/><path class="cls-1" d="M690.41,16.37l7-13.74h3.77L704,16.37h-3.67l-.5-2.66h-4.35l-1.34,2.66Zm6.31-5.82h2.73l-.67-4.38Z" transform="translate(-2.44 -2.44)"/><path class="cls-1" d="M715,16.56a9.32,9.32,0,0,1-2.12-.25,5.76,5.76,0,0,1-1.84-.79,3.71,3.71,0,0,1-1.25-1.36,3.63,3.63,0,0,1-.36-2h3.86a1.46,1.46,0,0,0,.29.83,1.64,1.64,0,0,0,.72.52,2.78,2.78,0,0,0,1.1.19,5.13,5.13,0,0,0,1.12-.12,2.28,2.28,0,0,0,.91-.38,1.12,1.12,0,0,0,.44-.76.6.6,0,0,0-.23-.64,2.17,2.17,0,0,0-.81-.35,10.49,10.49,0,0,0-1.09-.22l-2.08-.36a3.74,3.74,0,0,1-2.42-1.28,3.52,3.52,0,0,1-.6-2.77,4.2,4.2,0,0,1,1.14-2.37A5.94,5.94,0,0,1,714.1,3a8.37,8.37,0,0,1,3-.52,6.51,6.51,0,0,1,2.91.61,4.71,4.71,0,0,1,1.85,1.6,3.55,3.55,0,0,1,.6,2.12h-3.77a1.36,1.36,0,0,0-.19-.86,1.18,1.18,0,0,0-.66-.47,4,4,0,0,0-2.25,0,1.53,1.53,0,0,0-.65.42,1,1,0,0,0-.24.49.84.84,0,0,0,.2.75,2.13,2.13,0,0,0,1.13.45l2.08.36a5.69,5.69,0,0,1,2.25.8A2.89,2.89,0,0,1,721.41,10a3.44,3.44,0,0,1,.31,1.34,8.17,8.17,0,0,1-.07,1.17,3.66,3.66,0,0,1-1.1,2.1A6.49,6.49,0,0,1,718.17,16,9.31,9.31,0,0,1,715,16.56Z" transform="translate(-2.44 -2.44)"/><path class="cls-1" d="M725.9,16.37l1.6-10.49h-3.9l.5-3.25h11.57l-.5,3.25h-3.95l-1.61,10.49Z" transform="translate(-2.44 -2.44)"/><path class="cls-1" d="M734.3,16.37l7-13.74h3.78l2.78,13.74H744.2l-.5-2.66h-4.36L738,16.37Zm6.31-5.82h2.72l-.67-4.38Z" transform="translate(-2.44 -2.44)"/><path class="cls-1" d="M755.46,16.56a5.85,5.85,0,0,1-3-.74,5,5,0,0,1-1.91-2.05,6.69,6.69,0,0,1-.67-3,9.69,9.69,0,0,1,.49-3,8.29,8.29,0,0,1,1.47-2.67,6.9,6.9,0,0,1,2.42-1.9,7.68,7.68,0,0,1,3.38-.71,6,6,0,0,1,2.78.6,4.16,4.16,0,0,1,1.81,1.71,5.54,5.54,0,0,1,.63,2.73H759a2.71,2.71,0,0,0-.24-1.11,1.58,1.58,0,0,0-.64-.71A2.07,2.07,0,0,0,757,5.41a2.24,2.24,0,0,0-1.51.52,3.71,3.71,0,0,0-1,1.36,7.48,7.48,0,0,0-.51,1.8,10.62,10.62,0,0,0-.16,1.83,3.24,3.24,0,0,0,.52,2.05,1.7,1.7,0,0,0,1.38.62,2.1,2.1,0,0,0,1.15-.32,3,3,0,0,0,.88-.86,4.23,4.23,0,0,0,.57-1.17h3.87a11.45,11.45,0,0,1-.79,2A6.45,6.45,0,0,1,760.2,15a5.7,5.7,0,0,1-1.93,1.17A8.28,8.28,0,0,1,755.46,16.56Z" transform="translate(-2.44 -2.44)"/><path class="cls-1" d="M763.69,16.37l2.1-13.74h3.72l-2.09,13.74Z" transform="translate(-2.44 -2.44)"/><path class="cls-1" d="M771.59,16.56c-.39,0-.82,0-1.31,0a9.94,9.94,0,0,1-1.16-.14l.5-3.33.58.07.63,0a1.72,1.72,0,0,0,1.4-.5,3.26,3.26,0,0,0,.55-1.57l1.31-8.44h3.7L776.35,12a8.92,8.92,0,0,1-.71,2.52,3.25,3.25,0,0,1-1.43,1.52A5.76,5.76,0,0,1,771.59,16.56Z" transform="translate(-2.44 -2.44)"/><path class="cls-1" d="M777.17,16.37l7-13.74H788l2.78,13.74h-3.66l-.5-2.66h-4.35l-1.35,2.66Zm6.31-5.82h2.73l-.67-4.38Z" transform="translate(-2.44 -2.44)"/><path class="cls-1" d="M799.36,12.25a2.83,2.83,0,0,1-1.46-.39,3,3,0,0,1-1-1,2.78,2.78,0,0,1-.39-1.44A2.72,2.72,0,0,1,796.86,8a3,3,0,0,1,1-1,2.83,2.83,0,0,1,1.46-.39,2.79,2.79,0,0,1,1.45.39,3,3,0,0,1,1.05,1,2.72,2.72,0,0,1,.39,1.43,2.78,2.78,0,0,1-.39,1.44,3,3,0,0,1-1.05,1A2.79,2.79,0,0,1,799.36,12.25Z" transform="translate(-2.44 -2.44)"/><path class="cls-1" d="M813.23,16.56a5.85,5.85,0,0,1-3.3-.89A4.89,4.89,0,0,1,808,13.2a7.16,7.16,0,0,1-.25-3.65,8.82,8.82,0,0,1,1.44-3.74,7.65,7.65,0,0,1,6.4-3.37,6,6,0,0,1,3.07.72A4.42,4.42,0,0,1,820.49,5a4.1,4.1,0,0,1,.38,2.44H817a2.88,2.88,0,0,0-.25-1,1.66,1.66,0,0,0-.63-.71,2,2,0,0,0-1.06-.26,2.63,2.63,0,0,0-1.34.37,3.1,3.1,0,0,0-1.15,1.22,6.66,6.66,0,0,0-.73,2.34,6.55,6.55,0,0,0-.06,2,2.44,2.44,0,0,0,.5,1.18,1.81,1.81,0,0,0,.83.56,3.23,3.23,0,0,0,.9.14,2.31,2.31,0,0,0,.75-.12,2.61,2.61,0,0,0,1.13-.71,1.6,1.6,0,0,0,.32-.46l.24-.5h-2.4l.39-2.49,6.31,0-1.12,7.26H817.2l.22-1.52c-.27.23-.58.48-.95.75a5.1,5.1,0,0,1-1.32.68A5.64,5.64,0,0,1,813.23,16.56Z" transform="translate(-2.44 -2.44)"/><path class="cls-1" d="M821.23,16.37l7-13.74H832l2.78,13.74h-3.66l-.5-2.66h-4.36l-1.34,2.66Zm6.31-5.82h2.72l-.67-4.38Z" transform="translate(-2.44 -2.44)"/><path class="cls-1" d="M836.35,16.37l2.12-13.74h3.7l-1.63,10.7h5.51l-.47,3Z" transform="translate(-2.44 -2.44)"/><path class="cls-1" d="M846.43,16.37l7-13.74h3.78L860,16.37h-3.66l-.5-2.66h-4.36l-1.34,2.66Zm6.31-5.82h2.72l-.67-4.38Z" transform="translate(-2.44 -2.44)"/><path class="cls-1" d="M871,16.56a9.32,9.32,0,0,1-2.12-.25,5.76,5.76,0,0,1-1.84-.79,3.71,3.71,0,0,1-1.25-1.36,3.63,3.63,0,0,1-.36-2h3.86a1.46,1.46,0,0,0,.29.83,1.64,1.64,0,0,0,.72.52,2.78,2.78,0,0,0,1.1.19,5.13,5.13,0,0,0,1.12-.12,2.28,2.28,0,0,0,.91-.38,1.12,1.12,0,0,0,.44-.76.6.6,0,0,0-.23-.64,2.17,2.17,0,0,0-.81-.35,10.49,10.49,0,0,0-1.09-.22l-2.08-.36a3.74,3.74,0,0,1-2.42-1.28,3.52,3.52,0,0,1-.6-2.77,4.27,4.27,0,0,1,1.14-2.37A5.94,5.94,0,0,1,870.14,3a8.37,8.37,0,0,1,3-.52,6.51,6.51,0,0,1,2.91.61,4.64,4.64,0,0,1,1.85,1.6,3.55,3.55,0,0,1,.6,2.12h-3.77a1.36,1.36,0,0,0-.19-.86,1.18,1.18,0,0,0-.66-.47,4,4,0,0,0-2.25,0,1.53,1.53,0,0,0-.65.42,1,1,0,0,0-.24.49.84.84,0,0,0,.2.75,2.13,2.13,0,0,0,1.13.45l2.08.36a5.69,5.69,0,0,1,2.25.8A2.89,2.89,0,0,1,877.45,10a3.44,3.44,0,0,1,.31,1.34,6.94,6.94,0,0,1-.07,1.17,3.66,3.66,0,0,1-1.1,2.1A6.49,6.49,0,0,1,874.21,16,9.31,9.31,0,0,1,871,16.56Z" transform="translate(-2.44 -2.44)"/><path class="cls-1" d="M881.93,16.37l1.59-10.49h-3.89l.49-3.25h11.57l-.5,3.25h-4l-1.61,10.49Z" transform="translate(-2.44 -2.44)"/><path class="cls-1" d="M890.32,16.37l7-13.74h3.77l2.79,13.74h-3.67l-.5-2.66h-4.35L894,16.37Zm6.32-5.82h2.72l-.67-4.38Z" transform="translate(-2.44 -2.44)"/><path class="cls-1" d="M911.48,16.56a5.81,5.81,0,0,1-3-.74,5,5,0,0,1-1.91-2.05,6.56,6.56,0,0,1-.67-3,9.41,9.41,0,0,1,.49-3,8.26,8.26,0,0,1,1.46-2.67,7,7,0,0,1,2.43-1.9,7.65,7.65,0,0,1,3.38-.71,6,6,0,0,1,2.78.6,4.13,4.13,0,0,1,1.8,1.71,5.54,5.54,0,0,1,.64,2.73H915a2.71,2.71,0,0,0-.23-1.11,1.6,1.6,0,0,0-.65-.71,2,2,0,0,0-1.07-.25,2.19,2.19,0,0,0-1.5.52,3.73,3.73,0,0,0-1,1.36,7.48,7.48,0,0,0-.51,1.8,11.67,11.67,0,0,0-.15,1.83,3.18,3.18,0,0,0,.52,2.05,1.7,1.7,0,0,0,1.38.62,2,2,0,0,0,1.14-.32,3,3,0,0,0,.89-.86,4.88,4.88,0,0,0,.57-1.17h3.87a10.76,10.76,0,0,1-.8,2A6.21,6.21,0,0,1,916.23,15a5.7,5.7,0,0,1-1.93,1.17A8.3,8.3,0,0,1,911.48,16.56Z" transform="translate(-2.44 -2.44)"/><path class="cls-1" d="M919.71,16.37l2.1-13.74h3.72l-2.09,13.74Z" transform="translate(-2.44 -2.44)"/><path class="cls-1" d="M927.65,16.56c-.39,0-.83,0-1.32,0a9.94,9.94,0,0,1-1.16-.14l.5-3.33.59.07.62,0a1.72,1.72,0,0,0,1.4-.5,3.36,3.36,0,0,0,.56-1.57l1.3-8.44h3.7L932.4,12a8.92,8.92,0,0,1-.71,2.52,3.2,3.2,0,0,1-1.43,1.52A5.74,5.74,0,0,1,927.65,16.56Z" transform="translate(-2.44 -2.44)"/><path class="cls-1" d="M933.21,16.37l7-13.74H944l2.78,13.74H943.1l-.5-2.66h-4.35l-1.34,2.66Zm6.31-5.82h2.72l-.67-4.38Z" transform="translate(-2.44 -2.44)"/><path class="cls-1" d="M955.38,12.25a2.76,2.76,0,0,1-1.45-.39,3,3,0,0,1-1-1,2.78,2.78,0,0,1-.39-1.44A2.72,2.72,0,0,1,952.88,8a3,3,0,0,1,1-1,2.89,2.89,0,0,1,2.9,0,3,3,0,0,1,1,1,2.72,2.72,0,0,1,.39,1.43,2.78,2.78,0,0,1-.39,1.44,3,3,0,0,1-1,1A2.79,2.79,0,0,1,955.38,12.25Z" transform="translate(-2.44 -2.44)"/><path class="cls-1" d="M969.23,16.56a5.79,5.79,0,0,1-3.29-.89A4.86,4.86,0,0,1,964,13.2a7.39,7.39,0,0,1-.25-3.65,9.09,9.09,0,0,1,1.44-3.74A7.7,7.7,0,0,1,968,3.33a7.6,7.6,0,0,1,3.64-.89,6,6,0,0,1,3.08.72A4.48,4.48,0,0,1,976.5,5a4.17,4.17,0,0,1,.38,2.44H973a2.68,2.68,0,0,0-.25-1,1.71,1.71,0,0,0-.62-.71,2,2,0,0,0-1.07-.26,2.66,2.66,0,0,0-1.34.37,3.17,3.17,0,0,0-1.15,1.22,7.1,7.1,0,0,0-.73,2.34,6.49,6.49,0,0,0-.05,2,2.34,2.34,0,0,0,.5,1.18,1.78,1.78,0,0,0,.82.56,3.25,3.25,0,0,0,.91.14,2.25,2.25,0,0,0,.74-.12,2.22,2.22,0,0,0,.64-.3,2.55,2.55,0,0,0,.5-.41,2.13,2.13,0,0,0,.32-.46l.24-.5h-2.4l.38-2.49,6.31,0-1.11,7.26H973.2l.22-1.52c-.26.23-.58.48-.94.75a5.1,5.1,0,0,1-1.32.68A5.74,5.74,0,0,1,969.23,16.56Z" transform="translate(-2.44 -2.44)"/><path class="cls-1" d="M977.26,16.37l7-13.74H988l2.78,13.74h-3.66l-.5-2.66H982.3L981,16.37Zm6.31-5.82h2.72l-.67-4.38Z" transform="translate(-2.44 -2.44)"/><path class="cls-1" d="M992.39,16.37l2.12-13.74h3.7l-1.63,10.7h5.51l-.47,3Z" transform="translate(-2.44 -2.44)"/><path class="cls-1" d="M1002.46,16.37l7-13.74h3.77L1016,16.37h-3.67l-.5-2.66h-4.35l-1.34,2.66Zm6.31-5.82h2.72l-.67-4.38Z" transform="translate(-2.44 -2.44)"/><path class="cls-1" d="M1027,16.56a9.32,9.32,0,0,1-2.12-.25,5.7,5.7,0,0,1-1.83-.79,3.45,3.45,0,0,1-1.62-3.33h3.86a1.54,1.54,0,0,0,.29.83,1.64,1.64,0,0,0,.72.52,2.78,2.78,0,0,0,1.1.19,5.13,5.13,0,0,0,1.12-.12,2.28,2.28,0,0,0,.91-.38,1.12,1.12,0,0,0,.44-.76.6.6,0,0,0-.23-.64,2.17,2.17,0,0,0-.81-.35,10.83,10.83,0,0,0-1.08-.22l-2.09-.36a3.77,3.77,0,0,1-2.42-1.28,3.52,3.52,0,0,1-.6-2.77,4.27,4.27,0,0,1,1.14-2.37,5.94,5.94,0,0,1,2.33-1.5,8.37,8.37,0,0,1,3-.52,6.51,6.51,0,0,1,2.91.61,4.64,4.64,0,0,1,1.85,1.6,3.55,3.55,0,0,1,.6,2.12h-3.77a1.36,1.36,0,0,0-.19-.86,1.19,1.19,0,0,0-.65-.47,3.48,3.48,0,0,0-1.1-.15,3.38,3.38,0,0,0-1.16.17,1.43,1.43,0,0,0-.64.42,1,1,0,0,0-.25.49.87.87,0,0,0,.2.75,2.13,2.13,0,0,0,1.13.45l2.08.36a5.69,5.69,0,0,1,2.25.8,2.89,2.89,0,0,1,1.07,1.21,3.44,3.44,0,0,1,.31,1.34,6.94,6.94,0,0,1-.07,1.17,3.66,3.66,0,0,1-1.1,2.1,6.49,6.49,0,0,1-2.38,1.46A9.26,9.26,0,0,1,1027,16.56Z" transform="translate(-2.44 -2.44)"/><path class="cls-1" d="M1038,16.37l1.59-10.49h-3.9l.5-3.25h11.57l-.5,3.25h-4l-1.61,10.49Z" transform="translate(-2.44 -2.44)"/><path class="cls-1" d="M1046.36,16.37l7-13.74h3.78l2.78,13.74h-3.66l-.5-2.66h-4.35l-1.35,2.66Zm6.31-5.82h2.73l-.68-4.38Z" transform="translate(-2.44 -2.44)"/><path class="cls-1" d="M1067.53,16.56a5.81,5.81,0,0,1-3-.74,5,5,0,0,1-1.92-2.05,6.69,6.69,0,0,1-.66-3,9.41,9.41,0,0,1,.49-3,8.08,8.08,0,0,1,1.46-2.67,7.08,7.08,0,0,1,2.42-1.9,7.68,7.68,0,0,1,3.38-.71,6,6,0,0,1,2.79.6,4.13,4.13,0,0,1,1.8,1.71,5.54,5.54,0,0,1,.63,2.73h-3.86a2.88,2.88,0,0,0-.23-1.11,1.66,1.66,0,0,0-.65-.71,2.07,2.07,0,0,0-1.07-.25,2.24,2.24,0,0,0-1.51.52,3.71,3.71,0,0,0-1,1.36,7.48,7.48,0,0,0-.51,1.8,11.71,11.71,0,0,0-.16,1.83,3.17,3.17,0,0,0,.53,2.05,1.67,1.67,0,0,0,1.37.62,2.06,2.06,0,0,0,1.15-.32,2.88,2.88,0,0,0,.88-.86,4.23,4.23,0,0,0,.57-1.17h3.88a11.48,11.48,0,0,1-.8,2,6.45,6.45,0,0,1-1.27,1.71,5.6,5.6,0,0,1-1.93,1.17A8.28,8.28,0,0,1,1067.53,16.56Z" transform="translate(-2.44 -2.44)"/><path class="cls-1" d="M1075.75,16.37l2.1-13.74h3.73l-2.1,13.74Z" transform="translate(-2.44 -2.44)"/><path class="cls-1" d="M1083.67,16.56c-.39,0-.83,0-1.32,0a9.72,9.72,0,0,1-1.15-.14l.5-3.33.58.07.63,0a1.72,1.72,0,0,0,1.4-.5,3.37,3.37,0,0,0,.55-1.57l1.31-8.44h3.7L1088.43,12a8.92,8.92,0,0,1-.71,2.52,3.25,3.25,0,0,1-1.43,1.52A5.76,5.76,0,0,1,1083.67,16.56Z" transform="translate(-2.44 -2.44)"/><path class="cls-1" d="M1089.22,16.37l7-13.74H1100l2.78,13.74h-3.66l-.5-2.66h-4.35l-1.35,2.66Zm6.31-5.82h2.73l-.67-4.38Z" transform="translate(-2.44 -2.44)"/><path class="cls-1" d="M1111.42,12.25a2.76,2.76,0,0,1-1.45-.39,3,3,0,0,1-1-1,2.78,2.78,0,0,1-.39-1.44,2.72,2.72,0,0,1,.39-1.43,3,3,0,0,1,1-1,2.89,2.89,0,0,1,2.9,0,3,3,0,0,1,1.05,1,2.72,2.72,0,0,1,.39,1.43,2.78,2.78,0,0,1-.39,1.44,3,3,0,0,1-1.05,1A2.79,2.79,0,0,1,1111.42,12.25Z" transform="translate(-2.44 -2.44)"/><path class="cls-1" d="M1125.28,16.56a5.79,5.79,0,0,1-3.29-.89,4.86,4.86,0,0,1-1.9-2.47,7.39,7.39,0,0,1-.25-3.65,9.09,9.09,0,0,1,1.44-3.74A7.7,7.7,0,0,1,1124,3.33a7.6,7.6,0,0,1,3.64-.89,6,6,0,0,1,3.08.72A4.48,4.48,0,0,1,1132.55,5a4.17,4.17,0,0,1,.38,2.44h-3.88a2.68,2.68,0,0,0-.25-1,1.71,1.71,0,0,0-.62-.71,2,2,0,0,0-1.07-.26,2.66,2.66,0,0,0-1.34.37,3.17,3.17,0,0,0-1.15,1.22,7.1,7.1,0,0,0-.73,2.34,6.49,6.49,0,0,0-.05,2,2.34,2.34,0,0,0,.5,1.18,1.78,1.78,0,0,0,.82.56,3.25,3.25,0,0,0,.91.14,2.25,2.25,0,0,0,.74-.12,2.22,2.22,0,0,0,.64-.3,2.55,2.55,0,0,0,.5-.41,2.13,2.13,0,0,0,.32-.46l.24-.5h-2.4l.38-2.49,6.31,0-1.11,7.26h-2.44l.22-1.52c-.26.23-.58.48-.94.75a5.1,5.1,0,0,1-1.32.68A5.74,5.74,0,0,1,1125.28,16.56Z" transform="translate(-2.44 -2.44)"/><path class="cls-1" d="M1133.27,16.37l7-13.74h3.78l2.78,13.74h-3.67l-.49-2.66h-4.36L1137,16.37Zm6.31-5.82h2.72l-.67-4.38Z" transform="translate(-2.44 -2.44)"/><path class="cls-1" d="M1148.41,16.37l2.12-13.74h3.7l-1.63,10.7h5.51l-.47,3Z" transform="translate(-2.44 -2.44)"/><path class="cls-1" d="M1158.5,16.37l7-13.74h3.77l2.79,13.74h-3.67l-.5-2.66h-4.35l-1.34,2.66Zm6.31-5.82h2.73l-.67-4.38Z" transform="translate(-2.44 -2.44)"/><path class="cls-1" d="M1183.08,16.56a9.23,9.23,0,0,1-2.11-.25,5.76,5.76,0,0,1-1.84-.79,3.55,3.55,0,0,1-1.25-1.36,3.46,3.46,0,0,1-.36-2h3.85a1.54,1.54,0,0,0,.29.83,1.64,1.64,0,0,0,.72.52,2.81,2.81,0,0,0,1.1.19,5.06,5.06,0,0,0,1.12-.12,2.28,2.28,0,0,0,.91-.38,1.09,1.09,0,0,0,.45-.76.63.63,0,0,0-.24-.64,2.17,2.17,0,0,0-.81-.35,10.83,10.83,0,0,0-1.08-.22l-2.08-.36a3.74,3.74,0,0,1-2.42-1.28,3.45,3.45,0,0,1-.6-2.77,4.19,4.19,0,0,1,1.13-2.37,6,6,0,0,1,2.33-1.5,8.41,8.41,0,0,1,3-.52,6.51,6.51,0,0,1,2.91.61,4.74,4.74,0,0,1,1.86,1.6,3.54,3.54,0,0,1,.59,2.12h-3.77a1.43,1.43,0,0,0-.18-.86,1.25,1.25,0,0,0-.66-.47,3.46,3.46,0,0,0-1.09-.15,3.34,3.34,0,0,0-1.16.17,1.41,1.41,0,0,0-.65.42,1,1,0,0,0-.25.49.87.87,0,0,0,.2.75,2.17,2.17,0,0,0,1.14.45l2.08.36a5.64,5.64,0,0,1,2.24.8,2.92,2.92,0,0,1,1.08,1.21,3.42,3.42,0,0,1,.3,1.34,7,7,0,0,1-.06,1.17,3.73,3.73,0,0,1-1.11,2.1,6.49,6.49,0,0,1-2.38,1.46A9.22,9.22,0,0,1,1183.08,16.56Z" transform="translate(-2.44 -2.44)"/><path class="cls-1" d="M1194,16.37l1.59-10.49h-3.89l.5-3.25h11.57l-.5,3.25h-4l-1.62,10.49Z" transform="translate(-2.44 -2.44)"/><path class="cls-1" d="M1202.36,16.37l7-13.74h3.77l2.79,13.74h-3.67l-.5-2.66h-4.35l-1.34,2.66Zm6.31-5.82h2.73l-.67-4.38Z" transform="translate(-2.44 -2.44)"/><path class="cls-1" d="M1223.54,16.56a5.81,5.81,0,0,1-3-.74,5,5,0,0,1-1.91-2.05,6.56,6.56,0,0,1-.67-3,9.41,9.41,0,0,1,.49-3,8.26,8.26,0,0,1,1.46-2.67,7,7,0,0,1,2.43-1.9,7.65,7.65,0,0,1,3.38-.71,6,6,0,0,1,2.78.6,4.13,4.13,0,0,1,1.8,1.71,5.54,5.54,0,0,1,.64,2.73h-3.87a2.71,2.71,0,0,0-.23-1.11,1.6,1.6,0,0,0-.65-.71,2,2,0,0,0-1.07-.25,2.19,2.19,0,0,0-1.5.52,3.73,3.73,0,0,0-1,1.36,7.48,7.48,0,0,0-.51,1.8,11.67,11.67,0,0,0-.15,1.83,3.18,3.18,0,0,0,.52,2.05,1.7,1.7,0,0,0,1.38.62,2,2,0,0,0,1.14-.32,3,3,0,0,0,.89-.86,4.88,4.88,0,0,0,.57-1.17h3.87a10.76,10.76,0,0,1-.8,2,6.21,6.21,0,0,1-1.26,1.71,5.7,5.7,0,0,1-1.93,1.17A8.3,8.3,0,0,1,1223.54,16.56Z" transform="translate(-2.44 -2.44)"/><path class="cls-1" d="M1231.77,16.37l2.1-13.74h3.72l-2.09,13.74Z" transform="translate(-2.44 -2.44)"/><path class="cls-1" d="M1239.69,16.56c-.39,0-.83,0-1.32,0a10.23,10.23,0,0,1-1.16-.14l.5-3.33.59.07.62,0a1.71,1.71,0,0,0,1.4-.5,3.26,3.26,0,0,0,.56-1.57l1.3-8.44h3.7L1244.45,12a9.27,9.27,0,0,1-.71,2.52,3.22,3.22,0,0,1-1.44,1.52A5.71,5.71,0,0,1,1239.69,16.56Z" transform="translate(-2.44 -2.44)"/><path class="cls-1" d="M1245.26,16.37l7-13.74H1256l2.78,13.74h-3.67l-.49-2.66h-4.36L1249,16.37Zm6.31-5.82h2.72l-.67-4.38Z" transform="translate(-2.44 -2.44)"/><path class="cls-1" d="M1267.44,12.25a2.83,2.83,0,0,1-1.46-.39,3,3,0,0,1-1-1,2.78,2.78,0,0,1-.39-1.44,2.72,2.72,0,0,1,.39-1.43,3,3,0,0,1,1-1,2.83,2.83,0,0,1,1.46-.39,2.79,2.79,0,0,1,1.45.39,3,3,0,0,1,1,1,2.72,2.72,0,0,1,.39,1.43,2.78,2.78,0,0,1-.39,1.44,3,3,0,0,1-1,1A2.79,2.79,0,0,1,1267.44,12.25Z" transform="translate(-2.44 -2.44)"/><path class="cls-1" d="M1281.32,16.56a5.79,5.79,0,0,1-3.29-.89,4.86,4.86,0,0,1-1.9-2.47,7.28,7.28,0,0,1-.25-3.65,9.09,9.09,0,0,1,1.44-3.74,7.7,7.7,0,0,1,2.76-2.48,7.57,7.57,0,0,1,3.64-.89,6,6,0,0,1,3.08.72A4.46,4.46,0,0,1,1288.58,5a4.1,4.1,0,0,1,.38,2.44h-3.87a2.88,2.88,0,0,0-.25-1,1.71,1.71,0,0,0-.62-.71,2,2,0,0,0-1.07-.26,2.63,2.63,0,0,0-1.34.37,3.1,3.1,0,0,0-1.15,1.22,6.87,6.87,0,0,0-.73,2.34,6.21,6.21,0,0,0,0,2,2.34,2.34,0,0,0,.5,1.18,1.78,1.78,0,0,0,.82.56,3.25,3.25,0,0,0,.91.14,2.25,2.25,0,0,0,.74-.12,2.35,2.35,0,0,0,.64-.3,2.55,2.55,0,0,0,.5-.41,1.77,1.77,0,0,0,.31-.46l.24-.5h-2.4l.39-2.49,6.31,0-1.11,7.26h-2.44l.22-1.52c-.27.23-.58.48-.94.75a5.18,5.18,0,0,1-1.33.68A5.64,5.64,0,0,1,1281.32,16.56Z" transform="translate(-2.44 -2.44)"/><path class="cls-1" d="M1289.32,16.37l7-13.74h3.78l2.78,13.74h-3.66l-.5-2.66h-4.36L1293,16.37Zm6.31-5.82h2.72l-.67-4.38Z" transform="translate(-2.44 -2.44)"/><path class="cls-1" d="M1304.45,16.37l2.12-13.74h3.7l-1.63,10.7h5.5l-.47,3Z" transform="translate(-2.44 -2.44)"/><path class="cls-1" d="M1314.53,16.37l7-13.74h3.78l2.78,13.74h-3.66l-.5-2.66h-4.35l-1.35,2.66Zm6.31-5.82h2.72l-.67-4.38Z" transform="translate(-2.44 -2.44)"/><path class="cls-1" d="M1339.11,16.56a9.23,9.23,0,0,1-2.11-.25,5.76,5.76,0,0,1-1.84-.79,3.55,3.55,0,0,1-1.25-1.36,3.46,3.46,0,0,1-.36-2h3.85a1.54,1.54,0,0,0,.29.83,1.64,1.64,0,0,0,.72.52,2.81,2.81,0,0,0,1.1.19,5.06,5.06,0,0,0,1.12-.12,2.28,2.28,0,0,0,.91-.38,1.09,1.09,0,0,0,.45-.76.63.63,0,0,0-.24-.64,2.17,2.17,0,0,0-.81-.35,10.83,10.83,0,0,0-1.08-.22l-2.08-.36a3.79,3.79,0,0,1-2.43-1.28,3.48,3.48,0,0,1-.59-2.77,4.19,4.19,0,0,1,1.13-2.37,6,6,0,0,1,2.33-1.5,8.41,8.41,0,0,1,3-.52,6.51,6.51,0,0,1,2.91.61,4.74,4.74,0,0,1,1.86,1.6,3.54,3.54,0,0,1,.59,2.12h-3.77a1.43,1.43,0,0,0-.18-.86,1.25,1.25,0,0,0-.66-.47,3.48,3.48,0,0,0-1.1-.15,3.43,3.43,0,0,0-1.16.17,1.43,1.43,0,0,0-.64.42,1,1,0,0,0-.25.49.87.87,0,0,0,.2.75,2.17,2.17,0,0,0,1.14.45l2.08.36a5.64,5.64,0,0,1,2.24.8,2.92,2.92,0,0,1,1.08,1.21,3.42,3.42,0,0,1,.3,1.34,6,6,0,0,1-.07,1.17,3.66,3.66,0,0,1-1.1,2.1,6.49,6.49,0,0,1-2.38,1.46A9.22,9.22,0,0,1,1339.11,16.56Z" transform="translate(-2.44 -2.44)"/><path class="cls-1" d="M1350,16.37l1.59-10.49h-3.89l.49-3.25h11.57l-.5,3.25h-4l-1.61,10.49Z" transform="translate(-2.44 -2.44)"/><path class="cls-1" d="M1358.4,16.37l7-13.74h3.77L1372,16.37h-3.67l-.5-2.66h-4.35l-1.34,2.66Zm6.32-5.82h2.72l-.67-4.38Z" transform="translate(-2.44 -2.44)"/><path class="cls-1" d="M1379.56,16.56a5.81,5.81,0,0,1-3-.74,5.06,5.06,0,0,1-1.92-2.05,6.69,6.69,0,0,1-.66-3,9.41,9.41,0,0,1,.49-3,8.08,8.08,0,0,1,1.46-2.67,7,7,0,0,1,2.43-1.9,7.61,7.61,0,0,1,3.38-.71,6,6,0,0,1,2.78.6,4.13,4.13,0,0,1,1.8,1.71,5.54,5.54,0,0,1,.63,2.73h-3.86a2.71,2.71,0,0,0-.23-1.11,1.6,1.6,0,0,0-.65-.71,2,2,0,0,0-1.07-.25,2.19,2.19,0,0,0-1.5.52,3.62,3.62,0,0,0-1,1.36,7.48,7.48,0,0,0-.51,1.8,11.67,11.67,0,0,0-.15,1.83,3.18,3.18,0,0,0,.52,2.05,1.7,1.7,0,0,0,1.38.62,2,2,0,0,0,1.14-.32,2.88,2.88,0,0,0,.88-.86,4.23,4.23,0,0,0,.57-1.17h3.88a11.48,11.48,0,0,1-.8,2,6.42,6.42,0,0,1-1.26,1.71,5.74,5.74,0,0,1-1.94,1.17A8.24,8.24,0,0,1,1379.56,16.56Z" transform="translate(-2.44 -2.44)"/><path class="cls-1" d="M1387.8,16.37l2.1-13.74h3.72l-2.09,13.74Z" transform="translate(-2.44 -2.44)"/><path class="cls-1" d="M1395.73,16.56c-.39,0-.83,0-1.32,0a10.23,10.23,0,0,1-1.16-.14l.5-3.33.59.07.62,0a1.71,1.71,0,0,0,1.4-.5,3.36,3.36,0,0,0,.56-1.57l1.3-8.44h3.7L1400.48,12a9.29,9.29,0,0,1-.7,2.52,3.22,3.22,0,0,1-1.44,1.52A5.71,5.71,0,0,1,1395.73,16.56Z" transform="translate(-2.44 -2.44)"/><path class="cls-1" d="M1401.29,16.37l7-13.74h3.78l2.78,13.74h-3.67l-.5-2.66h-4.35L1405,16.37Zm6.31-5.82h2.72l-.67-4.38Z" transform="translate(-2.44 -2.44)"/><path class="cls-1" d="M1423.49,12.25a2.83,2.83,0,0,1-1.46-.39,3,3,0,0,1-1-1,2.78,2.78,0,0,1-.39-1.44A2.72,2.72,0,0,1,1421,8a3,3,0,0,1,1-1,2.83,2.83,0,0,1,1.46-.39,2.79,2.79,0,0,1,1.45.39,3,3,0,0,1,1,1,2.72,2.72,0,0,1,.39,1.43,2.78,2.78,0,0,1-.39,1.44,3,3,0,0,1-1,1A2.79,2.79,0,0,1,1423.49,12.25Z" transform="translate(-2.44 -2.44)"/><path class="cls-1" d="M1437.33,16.56a5.79,5.79,0,0,1-3.29-.89,4.86,4.86,0,0,1-1.9-2.47,7.28,7.28,0,0,1-.24-3.65,8.94,8.94,0,0,1,1.43-3.74,7.7,7.7,0,0,1,2.76-2.48,7.6,7.6,0,0,1,3.64-.89,6,6,0,0,1,3.08.72A4.48,4.48,0,0,1,1444.6,5a4.17,4.17,0,0,1,.38,2.44h-3.88a2.68,2.68,0,0,0-.25-1,1.71,1.71,0,0,0-.62-.71,2,2,0,0,0-1.06-.26,2.67,2.67,0,0,0-1.35.37,3.17,3.17,0,0,0-1.15,1.22,7.1,7.1,0,0,0-.73,2.34,6.49,6.49,0,0,0,0,2,2.34,2.34,0,0,0,.5,1.18,1.78,1.78,0,0,0,.82.56,3.3,3.3,0,0,0,.91.14,2.25,2.25,0,0,0,.74-.12,2.22,2.22,0,0,0,.64-.3,2.55,2.55,0,0,0,.5-.41,1.83,1.83,0,0,0,.32-.46l.24-.5h-2.4l.38-2.49,6.31,0-1.11,7.26h-2.44l.22-1.52c-.26.23-.58.48-.94.75a5.1,5.1,0,0,1-1.32.68A5.74,5.74,0,0,1,1437.33,16.56Z" transform="translate(-2.44 -2.44)"/><path class="cls-1" d="M1445.35,16.37l7-13.74h3.77l2.79,13.74h-3.67l-.5-2.66h-4.35l-1.34,2.66Zm6.31-5.82h2.72l-.67-4.38Z" transform="translate(-2.44 -2.44)"/><path class="cls-1" d="M1460.46,16.37l2.12-13.74h3.71l-1.63,10.7h5.5l-.47,3Z" transform="translate(-2.44 -2.44)"/><path class="cls-1" d="M1470.55,16.37l7-13.74h3.78l2.78,13.74h-3.66l-.5-2.66h-4.35l-1.35,2.66Zm6.31-5.82h2.73l-.67-4.38Z" transform="translate(-2.44 -2.44)"/><path class="cls-1" d="M1495.13,16.56a9.23,9.23,0,0,1-2.11-.25,5.76,5.76,0,0,1-1.84-.79,3.63,3.63,0,0,1-1.25-1.36,3.46,3.46,0,0,1-.36-2h3.85a1.54,1.54,0,0,0,.29.83,1.64,1.64,0,0,0,.72.52,2.81,2.81,0,0,0,1.1.19,5.22,5.22,0,0,0,1.13-.12,2.23,2.23,0,0,0,.9-.38,1.09,1.09,0,0,0,.45-.76.63.63,0,0,0-.24-.64,2.17,2.17,0,0,0-.81-.35,10.83,10.83,0,0,0-1.08-.22l-2.08-.36a3.74,3.74,0,0,1-2.42-1.28,3.45,3.45,0,0,1-.6-2.77,4.19,4.19,0,0,1,1.13-2.37,6,6,0,0,1,2.33-1.5,8.41,8.41,0,0,1,3-.52,6.51,6.51,0,0,1,2.91.61,4.74,4.74,0,0,1,1.86,1.6,3.54,3.54,0,0,1,.59,2.12h-3.77a1.43,1.43,0,0,0-.18-.86,1.25,1.25,0,0,0-.66-.47,3.41,3.41,0,0,0-1.09-.15,3.34,3.34,0,0,0-1.16.17,1.47,1.47,0,0,0-.65.42,1,1,0,0,0-.25.49.87.87,0,0,0,.2.75,2.17,2.17,0,0,0,1.14.45l2.08.36a5.64,5.64,0,0,1,2.24.8,2.92,2.92,0,0,1,1.08,1.21,3.42,3.42,0,0,1,.3,1.34,7,7,0,0,1-.06,1.17,3.73,3.73,0,0,1-1.11,2.1,6.49,6.49,0,0,1-2.38,1.46A9.22,9.22,0,0,1,1495.13,16.56Z" transform="translate(-2.44 -2.44)"/><path class="cls-1" d="M1506.05,16.37l1.59-10.49h-3.89l.5-3.25h11.57l-.5,3.25h-4l-1.62,10.49Z" transform="translate(-2.44 -2.44)"/><path class="cls-1" d="M1514.44,16.37l7-13.74h3.78L1528,16.37h-3.66l-.5-2.66h-4.35l-1.35,2.66Zm6.31-5.82h2.73l-.68-4.38Z" transform="translate(-2.44 -2.44)"/><path class="cls-1" d="M1535.6,16.56a5.81,5.81,0,0,1-3-.74,5.06,5.06,0,0,1-1.92-2.05,6.69,6.69,0,0,1-.66-3,9.41,9.41,0,0,1,.49-3A8.08,8.08,0,0,1,1532,5.05a7,7,0,0,1,2.43-1.9,7.61,7.61,0,0,1,3.38-.71,6,6,0,0,1,2.78.6,4.13,4.13,0,0,1,1.8,1.71,5.54,5.54,0,0,1,.63,2.73h-3.86a2.71,2.71,0,0,0-.23-1.11,1.6,1.6,0,0,0-.65-.71,2,2,0,0,0-1.07-.25,2.19,2.19,0,0,0-1.5.52,3.62,3.62,0,0,0-1,1.36,7.48,7.48,0,0,0-.51,1.8,11.67,11.67,0,0,0-.15,1.83,3.18,3.18,0,0,0,.52,2.05,1.7,1.7,0,0,0,1.38.62,2,2,0,0,0,1.14-.32,2.88,2.88,0,0,0,.88-.86,4.23,4.23,0,0,0,.57-1.17h3.88a11.48,11.48,0,0,1-.8,2,6.42,6.42,0,0,1-1.26,1.71,5.74,5.74,0,0,1-1.94,1.17A8.24,8.24,0,0,1,1535.6,16.56Z" transform="translate(-2.44 -2.44)"/><path class="cls-1" d="M1543.82,16.37l2.1-13.74h3.72l-2.09,13.74Z" transform="translate(-2.44 -2.44)"/><path class="cls-1" d="M1551.74,16.56c-.39,0-.83,0-1.32,0a9.94,9.94,0,0,1-1.16-.14l.5-3.33.59.07.62,0a1.71,1.71,0,0,0,1.4-.5,3.36,3.36,0,0,0,.56-1.57l1.3-8.44h3.7L1556.49,12a9.29,9.29,0,0,1-.7,2.52,3.22,3.22,0,0,1-1.44,1.52A5.74,5.74,0,0,1,1551.74,16.56Z" transform="translate(-2.44 -2.44)"/><path class="cls-1" d="M1557.3,16.37l7-13.74h3.77l2.78,13.74h-3.66l-.5-2.66h-4.35L1561,16.37Zm6.31-5.82h2.73l-.67-4.38Z" transform="translate(-2.44 -2.44)"/><path class="cls-1" d="M1579.51,12.25a2.79,2.79,0,0,1-1.45-.39,3,3,0,0,1-1-1,2.87,2.87,0,0,1-.38-1.44A2.81,2.81,0,0,1,1577,8a3,3,0,0,1,1-1,2.79,2.79,0,0,1,1.45-.39,2.83,2.83,0,0,1,1.46.39,3.13,3.13,0,0,1,1,1,2.72,2.72,0,0,1,.39,1.43,2.78,2.78,0,0,1-.39,1.44,3.16,3.16,0,0,1-1,1A2.83,2.83,0,0,1,1579.51,12.25Z" transform="translate(-2.44 -2.44)"/><path class="cls-1" d="M1593.36,16.56a5.79,5.79,0,0,1-3.29-.89,4.86,4.86,0,0,1-1.9-2.47,7.28,7.28,0,0,1-.24-3.65,8.94,8.94,0,0,1,1.43-3.74,7.7,7.7,0,0,1,2.76-2.48,7.6,7.6,0,0,1,3.64-.89,6,6,0,0,1,3.08.72A4.48,4.48,0,0,1,1600.63,5a4.17,4.17,0,0,1,.38,2.44h-3.88a2.68,2.68,0,0,0-.25-1,1.71,1.71,0,0,0-.62-.71,2,2,0,0,0-1.06-.26,2.67,2.67,0,0,0-1.35.37,3.17,3.17,0,0,0-1.15,1.22,7.1,7.1,0,0,0-.73,2.34,6.49,6.49,0,0,0,0,2,2.34,2.34,0,0,0,.5,1.18,1.78,1.78,0,0,0,.82.56,3.3,3.3,0,0,0,.91.14,2.25,2.25,0,0,0,.74-.12,2.22,2.22,0,0,0,.64-.3,2.55,2.55,0,0,0,.5-.41,1.83,1.83,0,0,0,.32-.46l.24-.5h-2.4l.38-2.49,6.31,0-1.11,7.26h-2.44l.22-1.52c-.26.23-.58.48-.94.75a5.1,5.1,0,0,1-1.32.68A5.7,5.7,0,0,1,1593.36,16.56Z" transform="translate(-2.44 -2.44)"/><path class="cls-1" d="M1601.36,16.37l7-13.74h3.78l2.78,13.74h-3.67l-.5-2.66h-4.35l-1.34,2.66Zm6.31-5.82h2.72l-.67-4.38Z" transform="translate(-2.44 -2.44)"/><path class="cls-1" d="M1616.51,16.37l2.12-13.74h3.7l-1.63,10.7h5.51l-.47,3Z" transform="translate(-2.44 -2.44)"/><path class="cls-1" d="M1626.57,16.37l7-13.74h3.78l2.78,13.74h-3.66l-.5-2.66h-4.36l-1.34,2.66Zm6.31-5.82h2.72l-.67-4.38Z" transform="translate(-2.44 -2.44)"/><path class="cls-1" d="M1651.15,16.56a9.32,9.32,0,0,1-2.12-.25,5.76,5.76,0,0,1-1.84-.79,3.71,3.71,0,0,1-1.25-1.36,3.63,3.63,0,0,1-.36-2h3.86a1.46,1.46,0,0,0,.29.83,1.64,1.64,0,0,0,.72.52,2.78,2.78,0,0,0,1.1.19,5.13,5.13,0,0,0,1.12-.12,2.28,2.28,0,0,0,.91-.38,1.12,1.12,0,0,0,.44-.76.6.6,0,0,0-.23-.64,2.17,2.17,0,0,0-.81-.35,10.49,10.49,0,0,0-1.09-.22l-2.08-.36a3.74,3.74,0,0,1-2.42-1.28,3.52,3.52,0,0,1-.6-2.77,4.2,4.2,0,0,1,1.14-2.37,5.94,5.94,0,0,1,2.33-1.5,8.37,8.37,0,0,1,3-.52,6.51,6.51,0,0,1,2.91.61,4.71,4.71,0,0,1,1.85,1.6,3.55,3.55,0,0,1,.6,2.12h-3.77a1.36,1.36,0,0,0-.19-.86,1.18,1.18,0,0,0-.66-.47,4,4,0,0,0-2.25,0,1.53,1.53,0,0,0-.65.42,1,1,0,0,0-.24.49.84.84,0,0,0,.2.75,2.13,2.13,0,0,0,1.13.45l2.08.36a5.69,5.69,0,0,1,2.25.8,2.89,2.89,0,0,1,1.07,1.21,3.44,3.44,0,0,1,.31,1.34,8.17,8.17,0,0,1-.07,1.17,3.66,3.66,0,0,1-1.1,2.1,6.57,6.57,0,0,1-2.38,1.46A9.31,9.31,0,0,1,1651.15,16.56Z" transform="translate(-2.44 -2.44)"/><path class="cls-1" d="M1662.08,16.37l1.59-10.49h-3.89l.5-3.25h11.56l-.49,3.25h-4l-1.61,10.49Z" transform="translate(-2.44 -2.44)"/><path class="cls-1" d="M1670.46,16.37l7-13.74h3.78L1684,16.37h-3.66l-.5-2.66h-4.35l-1.34,2.66Zm6.31-5.82h2.73l-.67-4.38Z" transform="translate(-2.44 -2.44)"/><path class="cls-1" d="M1691.61,16.56a5.84,5.84,0,0,1-3-.74,5,5,0,0,1-1.91-2.05,6.56,6.56,0,0,1-.67-3,9.41,9.41,0,0,1,.49-3A8.26,8.26,0,0,1,1688,5.05a7,7,0,0,1,2.43-1.9,7.65,7.65,0,0,1,3.38-.71,6,6,0,0,1,2.78.6,4.13,4.13,0,0,1,1.8,1.71,5.43,5.43,0,0,1,.64,2.73h-3.87a2.56,2.56,0,0,0-.23-1.11,1.6,1.6,0,0,0-.65-.71,2,2,0,0,0-1.06-.25,2.2,2.2,0,0,0-1.51.52,3.71,3.71,0,0,0-1,1.36,7.49,7.49,0,0,0-.52,1.8,11.67,11.67,0,0,0-.15,1.83,3.18,3.18,0,0,0,.52,2.05,1.7,1.7,0,0,0,1.38.62,2,2,0,0,0,1.14-.32,2.91,2.91,0,0,0,.89-.86,4.88,4.88,0,0,0,.57-1.17h3.87a11.45,11.45,0,0,1-.79,2,6.45,6.45,0,0,1-1.27,1.71,5.7,5.7,0,0,1-1.93,1.17A8.3,8.3,0,0,1,1691.61,16.56Z" transform="translate(-2.44 -2.44)"/><path class="cls-1" d="M1699.85,16.37,1702,2.63h3.73l-2.1,13.74Z" transform="translate(-2.44 -2.44)"/><path class="cls-1" d="M1707.78,16.56c-.39,0-.83,0-1.32,0a9.72,9.72,0,0,1-1.15-.14l.5-3.33.58.07.63,0a1.72,1.72,0,0,0,1.4-.5,3.37,3.37,0,0,0,.55-1.57l1.31-8.44h3.7L1712.54,12a8.92,8.92,0,0,1-.71,2.52,3.25,3.25,0,0,1-1.43,1.52A5.76,5.76,0,0,1,1707.78,16.56Z" transform="translate(-2.44 -2.44)"/><path class="cls-1" d="M1713.35,16.37l7-13.74h3.78l2.78,13.74h-3.66l-.5-2.66h-4.35l-1.35,2.66Zm6.31-5.82h2.73l-.68-4.38Z" transform="translate(-2.44 -2.44)"/><path class="cls-1" d="M1735.53,12.25a2.83,2.83,0,0,1-1.46-.39,3,3,0,0,1-1-1,2.78,2.78,0,0,1-.39-1.44A2.72,2.72,0,0,1,1733,8a3,3,0,0,1,1-1,2.83,2.83,0,0,1,1.46-.39,2.79,2.79,0,0,1,1.45.39,3,3,0,0,1,1,1,2.72,2.72,0,0,1,.39,1.43,2.78,2.78,0,0,1-.39,1.44,3,3,0,0,1-1,1A2.79,2.79,0,0,1,1735.53,12.25Z" transform="translate(-2.44 -2.44)"/><path class="cls-1" d="M1749.4,16.56a5.85,5.85,0,0,1-3.3-.89,4.91,4.91,0,0,1-1.9-2.47,7.28,7.28,0,0,1-.24-3.65,8.82,8.82,0,0,1,1.44-3.74,7.62,7.62,0,0,1,6.39-3.37,6,6,0,0,1,3.08.72A4.42,4.42,0,0,1,1756.66,5a4.1,4.1,0,0,1,.38,2.44h-3.87a2.88,2.88,0,0,0-.25-1,1.66,1.66,0,0,0-.63-.71,2,2,0,0,0-1.06-.26,2.63,2.63,0,0,0-1.34.37,3.19,3.19,0,0,0-1.16,1.22,6.88,6.88,0,0,0-.72,2.34,6.55,6.55,0,0,0-.06,2,2.44,2.44,0,0,0,.5,1.18,1.81,1.81,0,0,0,.83.56,3.23,3.23,0,0,0,.9.14,2.31,2.31,0,0,0,.75-.12,2.78,2.78,0,0,0,1.13-.71,1.83,1.83,0,0,0,.32-.46l.24-.5h-2.4l.38-2.49,6.32,0-1.12,7.26h-2.43l.22-1.52c-.27.23-.59.48-.95.75a5.1,5.1,0,0,1-1.32.68A5.64,5.64,0,0,1,1749.4,16.56Z" transform="translate(-2.44 -2.44)"/><path class="cls-1" d="M1757.38,16.37l7-13.74h3.77L1771,16.37h-3.67l-.5-2.66h-4.35l-1.34,2.66Zm6.32-5.82h2.72l-.67-4.38Z" transform="translate(-2.44 -2.44)"/><path class="cls-1" d="M1772.53,16.37l2.12-13.74h3.7l-1.63,10.7h5.51l-.47,3Z" transform="translate(-2.44 -2.44)"/><path class="cls-1" d="M1782.61,16.37l7-13.74h3.78l2.78,13.74h-3.67l-.5-2.66h-4.35l-1.34,2.66Zm6.31-5.82h2.72L1791,6.17Z" transform="translate(-2.44 -2.44)"/><path class="cls-1" d="M1807.19,16.56a9.32,9.32,0,0,1-2.12-.25,5.61,5.61,0,0,1-1.83-.79,3.45,3.45,0,0,1-1.62-3.33h3.86a1.46,1.46,0,0,0,.29.83,1.64,1.64,0,0,0,.72.52,2.78,2.78,0,0,0,1.1.19,5.13,5.13,0,0,0,1.12-.12,2.28,2.28,0,0,0,.91-.38,1.12,1.12,0,0,0,.44-.76.6.6,0,0,0-.23-.64,2.17,2.17,0,0,0-.81-.35,10.83,10.83,0,0,0-1.08-.22l-2.09-.36a3.74,3.74,0,0,1-2.42-1.28,3.52,3.52,0,0,1-.6-2.77A4.27,4.27,0,0,1,1804,4.48,5.94,5.94,0,0,1,1806.3,3a8.37,8.37,0,0,1,3-.52,6.51,6.51,0,0,1,2.91.61,4.64,4.64,0,0,1,1.85,1.6,3.55,3.55,0,0,1,.6,2.12h-3.77a1.36,1.36,0,0,0-.19-.86,1.19,1.19,0,0,0-.65-.47,3.48,3.48,0,0,0-1.1-.15,3.38,3.38,0,0,0-1.16.17,1.53,1.53,0,0,0-.65.42,1.12,1.12,0,0,0-.24.49.84.84,0,0,0,.2.75,2.13,2.13,0,0,0,1.13.45l2.08.36a5.69,5.69,0,0,1,2.25.8,2.89,2.89,0,0,1,1.07,1.21,3.44,3.44,0,0,1,.31,1.34,6.94,6.94,0,0,1-.07,1.17,3.66,3.66,0,0,1-1.1,2.1,6.49,6.49,0,0,1-2.38,1.46A9.26,9.26,0,0,1,1807.19,16.56Z" transform="translate(-2.44 -2.44)"/><path class="cls-1" d="M1818.12,16.37l1.59-10.49h-3.9l.5-3.25h11.57l-.5,3.25h-4l-1.61,10.49Z" transform="translate(-2.44 -2.44)"/><path class="cls-1" d="M1826.49,16.37l7-13.74h3.78l2.78,13.74h-3.67l-.49-2.66h-4.36l-1.34,2.66Zm6.31-5.82h2.72l-.67-4.38Z" transform="translate(-2.44 -2.44)"/><path class="cls-1" d="M1847.67,16.56a5.81,5.81,0,0,1-3-.74,5,5,0,0,1-1.91-2.05,6.56,6.56,0,0,1-.67-3,9.41,9.41,0,0,1,.49-3A8.08,8.08,0,0,1,1844,5.05a7,7,0,0,1,2.43-1.9,7.65,7.65,0,0,1,3.38-.71,6,6,0,0,1,2.78.6,4.13,4.13,0,0,1,1.8,1.71,5.54,5.54,0,0,1,.64,2.73h-3.87a2.71,2.71,0,0,0-.23-1.11,1.6,1.6,0,0,0-.65-.71,2,2,0,0,0-1.07-.25,2.19,2.19,0,0,0-1.5.52,3.62,3.62,0,0,0-1,1.36,7.48,7.48,0,0,0-.51,1.8,11.67,11.67,0,0,0-.15,1.83,3.18,3.18,0,0,0,.52,2.05,1.7,1.7,0,0,0,1.38.62,2,2,0,0,0,1.14-.32,2.88,2.88,0,0,0,.88-.86,4.23,4.23,0,0,0,.57-1.17h3.88a11.48,11.48,0,0,1-.8,2,6.21,6.21,0,0,1-1.26,1.71,5.7,5.7,0,0,1-1.93,1.17A8.34,8.34,0,0,1,1847.67,16.56Z" transform="translate(-2.44 -2.44)"/><path class="cls-1" d="M1855.88,16.37,1858,2.63h3.73l-2.1,13.74Z" transform="translate(-2.44 -2.44)"/><path class="cls-1" d="M1863.82,16.56c-.39,0-.83,0-1.32,0a9.94,9.94,0,0,1-1.16-.14l.5-3.33.59.07.62,0a1.72,1.72,0,0,0,1.4-.5,3.26,3.26,0,0,0,.55-1.57l1.31-8.44h3.7L1868.57,12a8.92,8.92,0,0,1-.71,2.52,3.2,3.2,0,0,1-1.43,1.52A5.74,5.74,0,0,1,1863.82,16.56Z" transform="translate(-2.44 -2.44)"/><path class="cls-1" d="M1869.37,16.37l7-13.74h3.78l2.78,13.74h-3.67l-.5-2.66h-4.35l-1.34,2.66Zm6.31-5.82h2.72l-.67-4.38Z" transform="translate(-2.44 -2.44)"/><path class="cls-1" d="M1891.57,12.25a2.8,2.8,0,0,1-1.46-.39,3,3,0,0,1-1-1,2.78,2.78,0,0,1-.39-1.44,2.72,2.72,0,0,1,.39-1.43,2.93,2.93,0,0,1,1-1,2.91,2.91,0,0,1,2.91,0,3,3,0,0,1,1,1,2.72,2.72,0,0,1,.39,1.43,2.78,2.78,0,0,1-.39,1.44,3,3,0,0,1-1,1A2.79,2.79,0,0,1,1891.57,12.25Z" transform="translate(-2.44 -2.44)"/><path class="cls-1" d="M1905.43,16.56a5.81,5.81,0,0,1-3.29-.89,4.86,4.86,0,0,1-1.9-2.47,7.28,7.28,0,0,1-.24-3.65,8.82,8.82,0,0,1,1.44-3.74,7.62,7.62,0,0,1,6.39-3.37,6,6,0,0,1,3.08.72A4.42,4.42,0,0,1,1912.7,5a4.17,4.17,0,0,1,.38,2.44h-3.88a2.68,2.68,0,0,0-.25-1,1.64,1.64,0,0,0-.62-.71,2,2,0,0,0-1.06-.26,2.7,2.7,0,0,0-1.35.37,3.25,3.25,0,0,0-1.15,1.22,7.1,7.1,0,0,0-.73,2.34,6.81,6.81,0,0,0,0,2,2.34,2.34,0,0,0,.5,1.18,1.78,1.78,0,0,0,.82.56,3.3,3.3,0,0,0,.91.14,2.25,2.25,0,0,0,.74-.12,2.22,2.22,0,0,0,.64-.3,2.55,2.55,0,0,0,.5-.41,1.83,1.83,0,0,0,.32-.46l.24-.5h-2.4l.38-2.49,6.31,0-1.11,7.26h-2.43l.22-1.52c-.27.23-.59.48-1,.75a5.1,5.1,0,0,1-1.32.68A5.66,5.66,0,0,1,1905.43,16.56Z" transform="translate(-2.44 -2.44)"/><path class="cls-1" d="M1913.43,16.37l7-13.74h3.78L1927,16.37h-3.67l-.49-2.66h-4.36l-1.34,2.66Zm6.31-5.82h2.72l-.67-4.38Z" transform="translate(-2.44 -2.44)"/><path class="cls-1" d="M1928.56,16.37l2.12-13.74h3.7l-1.63,10.7h5.51l-.47,3Z" transform="translate(-2.44 -2.44)"/></g></g></svg>