<svg xmlns="http://www.w3.org/2000/svg" viewBox="0 0 1427.84 662.82"><defs><style>.cls-1{opacity:0.6;}.cls-2{fill:#fff;}</style></defs><g id="Layer_2" data-name="Layer 2"><g id="Accordion_menu_expanded" data-name="Accordion menu expanded"><g id="Layer_8_copy_2" data-name="Layer 8 copy 2"><g class="cls-1"><path class="cls-2" d="M12.73,664.34,2.05,662.69v-3l4.31.65L2.05,656.6v-3.23l4.08,3.57,6.6-2.41v3.08l-4.51,1.7,1.72,1.6,2.79.42Z" transform="translate(-1.9 -1.52)"/><path class="cls-2" d="M12.73,653.25,2.05,651.62v-4.85a4.28,4.28,0,0,1,.46-2.18,2.19,2.19,0,0,1,1.23-1,3.61,3.61,0,0,1,1.75-.12,4.19,4.19,0,0,1,1.4.44,3.41,3.41,0,0,1,1,.75,5,5,0,0,1,.71,1l4.14-1.25v2.95l-3.68,1v1.52l3.68.56Zm-5.82-3.77v-1.66a1.28,1.28,0,0,0-.2-.68,2.05,2.05,0,0,0-.52-.54,1.82,1.82,0,0,0-.67-.27,1.17,1.17,0,0,0-.95.25,1.06,1.06,0,0,0-.39.83v1.65Z" transform="translate(-1.9 -1.52)"/><path class="cls-2" d="M12.88,638.48a4.94,4.94,0,0,1-.58,2.65,2.61,2.61,0,0,1-1.6,1.2,5.86,5.86,0,0,1-2.39.08l-6.26-.95v-2.93l6.38,1a2.27,2.27,0,0,0,1.19-.06,1.2,1.2,0,0,0,.65-.53,1.68,1.68,0,0,0,.2-.81,1.93,1.93,0,0,0-.47-1.25,2.32,2.32,0,0,0-1.57-.76l-6.38-1v-2.92l6.26,1a6.55,6.55,0,0,1,2.39.8,4.14,4.14,0,0,1,1.6,1.69A6,6,0,0,1,12.88,638.48Z" transform="translate(-1.9 -1.52)"/><path class="cls-2" d="M12.88,627.52a7,7,0,0,1-.2,1.65,4.43,4.43,0,0,1-.61,1.42,2.79,2.79,0,0,1-1.05,1,2.72,2.72,0,0,1-1.54.28v-3a1.2,1.2,0,0,0,.64-.22,1.3,1.3,0,0,0,.41-.56,2.24,2.24,0,0,0,.15-.86,4.14,4.14,0,0,0-.09-.87,1.91,1.91,0,0,0-.3-.71.87.87,0,0,0-.59-.34.47.47,0,0,0-.5.18,1.67,1.67,0,0,0-.27.63c-.07.26-.12.54-.17.84l-.28,1.62a3,3,0,0,1-1,1.88,2.72,2.72,0,0,1-2.15.46A3.25,3.25,0,0,1,3.48,630a4.71,4.71,0,0,1-1.16-1.81,6.53,6.53,0,0,1-.41-2.31,4.93,4.93,0,0,1,.48-2.26,3.55,3.55,0,0,1,1.25-1.44,2.65,2.65,0,0,1,1.64-.46v2.92a1.15,1.15,0,0,0-.67.15.89.89,0,0,0-.36.51,2.6,2.6,0,0,0-.12.85,2.52,2.52,0,0,0,.13.9,1.2,1.2,0,0,0,.32.5.87.87,0,0,0,.39.19.66.66,0,0,0,.59-.15,1.72,1.72,0,0,0,.34-.88l.29-1.62a4.34,4.34,0,0,1,.61-1.74,2.31,2.31,0,0,1,.94-.84,2.86,2.86,0,0,1,1-.24,6.12,6.12,0,0,1,.91.06,2.85,2.85,0,0,1,1.63.85,5.1,5.1,0,0,1,1.14,1.85A7.23,7.23,0,0,1,12.88,627.52Z" transform="translate(-1.9 -1.52)"/><path class="cls-2" d="M12.73,618.89l-8.16-1.24v3l-2.52-.39v-9l2.52.38v3.07L12.73,616Z" transform="translate(-1.9 -1.52)"/><path class="cls-2" d="M12.88,606.83a4.86,4.86,0,0,1-.68,2.66A3.62,3.62,0,0,1,10.3,611a5.79,5.79,0,0,1-2.89.2,7,7,0,0,1-2.91-1.1,5.8,5.8,0,0,1-2.6-4.94,4.79,4.79,0,0,1,.68-2.62A3.8,3.8,0,0,1,4.5,601a5.87,5.87,0,0,1,2.91-.21,7,7,0,0,1,2.89,1.08,5.79,5.79,0,0,1,1.9,2.1A5.92,5.92,0,0,1,12.88,606.83Zm-2.31-.34a2.12,2.12,0,0,0-.3-1.1,2.37,2.37,0,0,0-1-.88A6,6,0,0,0,7.46,604a5.14,5.14,0,0,0-1.91,0,1.67,1.67,0,0,0-1,.57,1.6,1.6,0,0,0-.32,1,2.12,2.12,0,0,0,.74,1.58,4.66,4.66,0,0,0,2.52,1,5.07,5.07,0,0,0,1.83,0,1.56,1.56,0,0,0,1-.58A1.7,1.7,0,0,0,10.57,606.49Z" transform="translate(-1.9 -1.52)"/><path class="cls-2" d="M12.88,598.8c0,.3,0,.64,0,1a6.87,6.87,0,0,1-.11.9l-2.58-.39c0-.13,0-.28,0-.45a4.12,4.12,0,0,0,0-.48,1.32,1.32,0,0,0-.39-1.09,2.54,2.54,0,0,0-1.22-.43l-6.56-1V594l7.3,1.12a6.64,6.64,0,0,1,2,.55,2.54,2.54,0,0,1,1.18,1.11A4.39,4.39,0,0,1,12.88,598.8Z" transform="translate(-1.9 -1.52)"/><path class="cls-2" d="M12.88,589.16a5,5,0,0,1-.58,2.65,2.61,2.61,0,0,1-1.6,1.2,5.88,5.88,0,0,1-2.39.07l-6.26-1V589.2l6.38,1a2.5,2.5,0,0,0,1.19-.06,1.24,1.24,0,0,0,.65-.53,1.68,1.68,0,0,0,.2-.81,2,2,0,0,0-.47-1.26,2.31,2.31,0,0,0-1.57-.75l-6.38-1v-2.92l6.26,1a7,7,0,0,1,2.39.8,4.17,4.17,0,0,1,1.6,1.7A6,6,0,0,1,12.88,589.16Z" transform="translate(-1.9 -1.52)"/><path class="cls-2" d="M12.73,582.58,2.05,581v-4.28l6.51-.74-6.51-2.74v-4.25l10.68,1.61v2.89L5,572.27l7.74,3.26v2.08L5,578.52l7.74,1.18Z" transform="translate(-1.9 -1.52)"/><path class="cls-2" d="M12.88,564a6.88,6.88,0,0,1-.2,1.64,4.48,4.48,0,0,1-.61,1.43,2.87,2.87,0,0,1-1.05,1,2.81,2.81,0,0,1-1.54.28v-3a1.12,1.12,0,0,0,.64-.22,1.19,1.19,0,0,0,.41-.56,2.21,2.21,0,0,0,.15-.86,4.14,4.14,0,0,0-.09-.87,1.86,1.86,0,0,0-.3-.7.88.88,0,0,0-.59-.35.49.49,0,0,0-.5.19,1.55,1.55,0,0,0-.27.62c-.07.27-.12.55-.17.85l-.28,1.61a2.93,2.93,0,0,1-1,1.88,2.72,2.72,0,0,1-2.15.47,3.38,3.38,0,0,1-1.85-.88,4.78,4.78,0,0,1-1.16-1.81,6.62,6.62,0,0,1-.41-2.32,4.93,4.93,0,0,1,.48-2.26,3.68,3.68,0,0,1,1.25-1.44,2.78,2.78,0,0,1,1.64-.46v2.93a1.08,1.08,0,0,0-.67.14.89.89,0,0,0-.36.51,2.6,2.6,0,0,0-.12.85,2.52,2.52,0,0,0,.13.9,1.24,1.24,0,0,0,.32.51,1,1,0,0,0,.39.19.7.7,0,0,0,.59-.16,1.68,1.68,0,0,0,.34-.88l.29-1.62a4.34,4.34,0,0,1,.61-1.74,2.28,2.28,0,0,1,.94-.83,2.51,2.51,0,0,1,1-.24,5.09,5.09,0,0,1,.91.05,2.87,2.87,0,0,1,1.63.86,5.05,5.05,0,0,1,1.14,1.84A7.29,7.29,0,0,1,12.88,564Z" transform="translate(-1.9 -1.52)"/><path class="cls-2" d="M9.52,552.24a2.22,2.22,0,0,1-.3,1.13,2.25,2.25,0,0,1-.81.81,2.13,2.13,0,0,1-1.12.3,2.09,2.09,0,0,1-1.1-.3,2.25,2.25,0,0,1-.81-.81,2.22,2.22,0,0,1-.3-1.13,2.17,2.17,0,0,1,.3-1.13,2.35,2.35,0,0,1,.81-.82,2.09,2.09,0,0,1,1.1-.3,2.13,2.13,0,0,1,1.12.3,2.35,2.35,0,0,1,.81.82A2.17,2.17,0,0,1,9.52,552.24Z" transform="translate(-1.9 -1.52)"/><path class="cls-2" d="M12.73,546.09,2.05,544.44v-3l4.31.65-4.31-3.75v-3.23l4.08,3.57,6.6-2.41v3.08l-4.51,1.7,1.72,1.6,2.79.43Z" transform="translate(-1.9 -1.52)"/><path class="cls-2" d="M12.73,535,2.05,533.34v-4.86a4.27,4.27,0,0,1,.46-2.17,2.25,2.25,0,0,1,1.23-1,3.74,3.74,0,0,1,1.75-.11,4.44,4.44,0,0,1,1.4.43,3.62,3.62,0,0,1,1,.76,5,5,0,0,1,.71,1l4.14-1.25V529l-3.68,1v1.52l3.68.56ZM6.91,531.2v-1.66a1.28,1.28,0,0,0-.2-.68,1.79,1.79,0,0,0-.52-.54,1.82,1.82,0,0,0-.67-.27,1.13,1.13,0,0,0-.95.25,1.06,1.06,0,0,0-.39.83v1.65Z" transform="translate(-1.9 -1.52)"/><path class="cls-2" d="M12.88,520.23a5,5,0,0,1-.58,2.65,2.61,2.61,0,0,1-1.6,1.2,5.88,5.88,0,0,1-2.39.07l-6.26-.95v-2.93l6.38,1a2.5,2.5,0,0,0,1.19-.06,1.24,1.24,0,0,0,.65-.53,1.68,1.68,0,0,0,.2-.81A2,2,0,0,0,10,518.6a2.31,2.31,0,0,0-1.57-.75l-6.38-1V514l6.26.95a7,7,0,0,1,2.39.8,4.17,4.17,0,0,1,1.6,1.7A6,6,0,0,1,12.88,520.23Z" transform="translate(-1.9 -1.52)"/><path class="cls-2" d="M12.88,509.23a6.88,6.88,0,0,1-.2,1.64,4.48,4.48,0,0,1-.61,1.43,2.87,2.87,0,0,1-1.05,1,2.81,2.81,0,0,1-1.54.28v-3a1.12,1.12,0,0,0,.64-.22,1.19,1.19,0,0,0,.41-.56,2.19,2.19,0,0,0,.15-.85,4.17,4.17,0,0,0-.09-.88,1.86,1.86,0,0,0-.3-.7A.88.88,0,0,0,9.7,507a.49.49,0,0,0-.5.19,1.53,1.53,0,0,0-.27.63c-.07.26-.12.54-.17.84l-.28,1.61a2.93,2.93,0,0,1-1,1.88,2.72,2.72,0,0,1-2.15.47,3.31,3.31,0,0,1-1.85-.88,4.78,4.78,0,0,1-1.16-1.81,6.58,6.58,0,0,1-.41-2.32,5,5,0,0,1,.48-2.26,3.68,3.68,0,0,1,1.25-1.44,2.78,2.78,0,0,1,1.64-.46v2.93a1.08,1.08,0,0,0-.67.14,1,1,0,0,0-.36.51,2.64,2.64,0,0,0-.12.85,2.45,2.45,0,0,0,.13.9,1.24,1.24,0,0,0,.32.51,1,1,0,0,0,.39.19.7.7,0,0,0,.59-.16,1.68,1.68,0,0,0,.34-.88l.29-1.61a4.39,4.39,0,0,1,.61-1.75,2.28,2.28,0,0,1,.94-.83,2.51,2.51,0,0,1,1-.24,6.23,6.23,0,0,1,.91.05,2.87,2.87,0,0,1,1.63.86,5.1,5.1,0,0,1,1.14,1.85A7.23,7.23,0,0,1,12.88,509.23Z" transform="translate(-1.9 -1.52)"/><path class="cls-2" d="M12.73,500.62l-8.16-1.23v3L2.05,502v-9l2.52.39v3.07l8.16,1.25Z" transform="translate(-1.9 -1.52)"/><path class="cls-2" d="M12.88,488.55a4.89,4.89,0,0,1-.68,2.66,3.67,3.67,0,0,1-1.9,1.51,5.91,5.91,0,0,1-2.89.2,7.18,7.18,0,0,1-2.91-1.1,6.05,6.05,0,0,1-1.92-2.11,6,6,0,0,1-.68-2.83,4.79,4.79,0,0,1,.68-2.62,3.8,3.8,0,0,1,1.92-1.51,5.76,5.76,0,0,1,2.91-.21,7,7,0,0,1,2.89,1.08,5.76,5.76,0,0,1,1.9,2.09A6,6,0,0,1,12.88,488.55Zm-2.31-.34a2.09,2.09,0,0,0-.3-1.1,2.37,2.37,0,0,0-1-.88,6,6,0,0,0-1.83-.54,5.4,5.4,0,0,0-1.91,0,1.77,1.77,0,0,0-1,.57,1.62,1.62,0,0,0-.32,1,2.14,2.14,0,0,0,.74,1.58,4.73,4.73,0,0,0,2.52,1,5,5,0,0,0,1.83,0,1.52,1.52,0,0,0,1-.58A1.65,1.65,0,0,0,10.57,488.21Z" transform="translate(-1.9 -1.52)"/><path class="cls-2" d="M12.88,480.53c0,.3,0,.64,0,1a6.87,6.87,0,0,1-.11.9l-2.58-.39c0-.13,0-.29,0-.45a4.15,4.15,0,0,0,0-.49A1.34,1.34,0,0,0,9.83,480a2.65,2.65,0,0,0-1.22-.43l-6.56-1v-2.88l7.3,1.12a7,7,0,0,1,2,.55,2.52,2.52,0,0,1,1.18,1.12A4.39,4.39,0,0,1,12.88,480.53Z" transform="translate(-1.9 -1.52)"/><path class="cls-2" d="M12.88,470.88a5,5,0,0,1-.58,2.65,2.68,2.68,0,0,1-1.6,1.2,5.88,5.88,0,0,1-2.39.07l-6.26-.95v-2.93l6.38,1a2.27,2.27,0,0,0,1.19-.06,1.23,1.23,0,0,0,.65-.52,1.69,1.69,0,0,0,.2-.82,1.93,1.93,0,0,0-.47-1.25,2.32,2.32,0,0,0-1.57-.76l-6.38-1V464.6l6.26,1a7,7,0,0,1,2.39.8,4.11,4.11,0,0,1,1.6,1.7A6,6,0,0,1,12.88,470.88Z" transform="translate(-1.9 -1.52)"/><path class="cls-2" d="M12.73,464.32,2.05,462.69v-4.28l6.51-.74-6.51-2.74v-4.26l10.68,1.62v2.89L5,454l7.74,3.27v2.07L5,460.25l7.74,1.19Z" transform="translate(-1.9 -1.52)"/><path class="cls-2" d="M12.88,445.74a7,7,0,0,1-.2,1.65,4.43,4.43,0,0,1-.61,1.42,2.79,2.79,0,0,1-1.05,1,2.72,2.72,0,0,1-1.54.28v-3a1.2,1.2,0,0,0,.64-.22,1.24,1.24,0,0,0,.41-.56,2.24,2.24,0,0,0,.15-.86,4.14,4.14,0,0,0-.09-.87,1.79,1.79,0,0,0-.3-.7.85.85,0,0,0-.59-.35.49.49,0,0,0-.5.18,1.67,1.67,0,0,0-.27.63c-.07.26-.12.54-.17.84l-.28,1.62a3,3,0,0,1-1,1.88,2.76,2.76,0,0,1-2.15.47,3.32,3.32,0,0,1-1.85-.89,4.71,4.71,0,0,1-1.16-1.81,6.53,6.53,0,0,1-.41-2.31,4.93,4.93,0,0,1,.48-2.26,3.55,3.55,0,0,1,1.25-1.44A2.65,2.65,0,0,1,5.28,440v2.92a1.15,1.15,0,0,0-.67.15.89.89,0,0,0-.36.51,2.6,2.6,0,0,0-.12.85,2.52,2.52,0,0,0,.13.9,1.2,1.2,0,0,0,.32.5A.87.87,0,0,0,5,446a.66.66,0,0,0,.59-.15A1.72,1.72,0,0,0,5.9,445l.29-1.62a4.34,4.34,0,0,1,.61-1.74,2.31,2.31,0,0,1,.94-.84,2.86,2.86,0,0,1,1-.24,6.12,6.12,0,0,1,.91.06,2.85,2.85,0,0,1,1.63.85,5.18,5.18,0,0,1,1.14,1.85A7.23,7.23,0,0,1,12.88,445.74Z" transform="translate(-1.9 -1.52)"/><path class="cls-2" d="M9.52,434a2.2,2.2,0,0,1-.3,1.13,2.25,2.25,0,0,1-.81.81,2.13,2.13,0,0,1-1.12.3,2.09,2.09,0,0,1-1.1-.3,2.25,2.25,0,0,1-.81-.81,2.28,2.28,0,0,1,0-2.26,2.25,2.25,0,0,1,.81-.81,2,2,0,0,1,1.1-.31,2.05,2.05,0,0,1,1.12.31,2.25,2.25,0,0,1,.81.81A2.2,2.2,0,0,1,9.52,434Z" transform="translate(-1.9 -1.52)"/><path class="cls-2" d="M12.73,427.8,2.05,426.16v-3l4.31.65-4.31-3.75v-3.24l4.08,3.58,6.6-2.41v3.08l-4.51,1.7,1.72,1.6,2.79.42Z" transform="translate(-1.9 -1.52)"/><path class="cls-2" d="M12.73,416.72,2.05,415.09v-4.86a4.31,4.31,0,0,1,.46-2.18,2.19,2.19,0,0,1,1.23-1,3.61,3.61,0,0,1,1.75-.12,4.43,4.43,0,0,1,1.4.44,3.8,3.8,0,0,1,1,.75,5.4,5.4,0,0,1,.71,1l4.14-1.25v2.95l-3.68,1v1.52l3.68.55Zm-5.82-3.78v-1.65a1.32,1.32,0,0,0-.2-.69,1.87,1.87,0,0,0-.52-.53,1.53,1.53,0,0,0-.67-.27,1.1,1.1,0,0,0-.95.25,1,1,0,0,0-.39.82v1.65Z" transform="translate(-1.9 -1.52)"/><path class="cls-2" d="M12.88,401.94a5,5,0,0,1-.58,2.65,2.64,2.64,0,0,1-1.6,1.2,5.88,5.88,0,0,1-2.39.07l-6.26-.95V402l6.38,1a2.5,2.5,0,0,0,1.19-.06,1.24,1.24,0,0,0,.65-.53,1.68,1.68,0,0,0,.2-.81,2,2,0,0,0-.47-1.26,2.36,2.36,0,0,0-1.57-.76l-6.38-1v-2.92l6.26.95a7,7,0,0,1,2.39.8,4.17,4.17,0,0,1,1.6,1.7A6,6,0,0,1,12.88,401.94Z" transform="translate(-1.9 -1.52)"/><path class="cls-2" d="M12.88,391a7,7,0,0,1-.2,1.65,4.33,4.33,0,0,1-.61,1.42A2.9,2.9,0,0,1,11,395a2.72,2.72,0,0,1-1.54.27v-3a1.12,1.12,0,0,0,.64-.22,1.24,1.24,0,0,0,.41-.56,2.24,2.24,0,0,0,.15-.86,4.14,4.14,0,0,0-.09-.87,1.79,1.79,0,0,0-.3-.7.88.88,0,0,0-.59-.35.51.51,0,0,0-.5.18,1.67,1.67,0,0,0-.27.63c-.07.27-.12.55-.17.84L8.48,392a3,3,0,0,1-1,1.88,2.72,2.72,0,0,1-2.15.47,3.32,3.32,0,0,1-1.85-.89,4.63,4.63,0,0,1-1.16-1.81,6.53,6.53,0,0,1-.41-2.31,4.93,4.93,0,0,1,.48-2.26,3.55,3.55,0,0,1,1.25-1.44,2.71,2.71,0,0,1,1.64-.46v2.92a1.15,1.15,0,0,0-.67.15.89.89,0,0,0-.36.51,2.6,2.6,0,0,0-.12.85,2.52,2.52,0,0,0,.13.9,1.14,1.14,0,0,0,.32.5.87.87,0,0,0,.39.19.66.66,0,0,0,.59-.15,1.72,1.72,0,0,0,.34-.88l.29-1.62a4.34,4.34,0,0,1,.61-1.74,2.38,2.38,0,0,1,.94-.84,2.65,2.65,0,0,1,1-.23,5.09,5.09,0,0,1,.91.05,2.85,2.85,0,0,1,1.63.85,5.18,5.18,0,0,1,1.14,1.85A7.27,7.27,0,0,1,12.88,391Z" transform="translate(-1.9 -1.52)"/><path class="cls-2" d="M12.73,382.34,4.57,381.1v3l-2.52-.38v-9l2.52.39v3.07l8.16,1.25Z" transform="translate(-1.9 -1.52)"/><path class="cls-2" d="M12.88,370.29A4.89,4.89,0,0,1,12.2,373a3.67,3.67,0,0,1-1.9,1.51,5.8,5.8,0,0,1-2.89.19,7.17,7.17,0,0,1-2.91-1.09,5.83,5.83,0,0,1-2.6-4.95A4.76,4.76,0,0,1,2.58,366a3.82,3.82,0,0,1,1.92-1.52,5.88,5.88,0,0,1,2.91-.2,7,7,0,0,1,2.89,1.08,5.76,5.76,0,0,1,1.9,2.09A6,6,0,0,1,12.88,370.29ZM10.57,370a2.15,2.15,0,0,0-.3-1.11,2.35,2.35,0,0,0-1-.87,5.45,5.45,0,0,0-1.83-.54,5.4,5.4,0,0,0-1.91,0,1.77,1.77,0,0,0-1,.57,1.62,1.62,0,0,0-.32,1,2.16,2.16,0,0,0,.74,1.59,4.73,4.73,0,0,0,2.52,1,5,5,0,0,0,1.83,0,1.56,1.56,0,0,0,1-.58A1.67,1.67,0,0,0,10.57,370Z" transform="translate(-1.9 -1.52)"/><path class="cls-2" d="M12.88,362.25c0,.3,0,.64,0,1a6.87,6.87,0,0,1-.11.9l-2.58-.39c0-.13,0-.28,0-.45a4.15,4.15,0,0,0,0-.49,1.3,1.3,0,0,0-.39-1.08,2.44,2.44,0,0,0-1.22-.43l-6.56-1v-2.87l7.3,1.11a6.94,6.94,0,0,1,2,.56,2.45,2.45,0,0,1,1.18,1.11A4.39,4.39,0,0,1,12.88,362.25Z" transform="translate(-1.9 -1.52)"/><path class="cls-2" d="M12.88,352.6a5,5,0,0,1-.58,2.65,2.61,2.61,0,0,1-1.6,1.2,5.86,5.86,0,0,1-2.39.08l-6.26-1v-2.92l6.38,1a2.5,2.5,0,0,0,1.19-.06,1.2,1.2,0,0,0,.65-.53,1.68,1.68,0,0,0,.2-.81A2,2,0,0,0,10,351a2.36,2.36,0,0,0-1.57-.75l-6.38-1v-2.92l6.26.95a6.75,6.75,0,0,1,2.39.81,4.14,4.14,0,0,1,1.6,1.69A6,6,0,0,1,12.88,352.6Z" transform="translate(-1.9 -1.52)"/><path class="cls-2" d="M12.73,346,2.05,344.39V340.1l6.51-.73-6.51-2.74v-4.26L12.73,334v2.89L5,335.7,12.73,339V341L5,342l7.74,1.19Z" transform="translate(-1.9 -1.52)"/><path class="cls-2" d="M12.88,327.48a6.88,6.88,0,0,1-.2,1.64,4.39,4.39,0,0,1-.61,1.43,2.79,2.79,0,0,1-1.05,1,2.72,2.72,0,0,1-1.54.28v-3a1.13,1.13,0,0,0,.64-.23,1.21,1.21,0,0,0,.41-.55,2.24,2.24,0,0,0,.15-.86,4.14,4.14,0,0,0-.09-.87,1.84,1.84,0,0,0-.3-.71.87.87,0,0,0-.59-.34.47.47,0,0,0-.5.18,1.67,1.67,0,0,0-.27.63c-.07.26-.12.54-.17.84l-.28,1.62a3,3,0,0,1-1,1.88,2.72,2.72,0,0,1-2.15.46A3.31,3.31,0,0,1,3.48,330a4.71,4.71,0,0,1-1.16-1.81,6.53,6.53,0,0,1-.41-2.31,4.93,4.93,0,0,1,.48-2.26,3.55,3.55,0,0,1,1.25-1.44,2.72,2.72,0,0,1,1.64-.47v2.93a1.15,1.15,0,0,0-.67.15.89.89,0,0,0-.36.51,2.55,2.55,0,0,0-.12.85,2.52,2.52,0,0,0,.13.9,1.2,1.2,0,0,0,.32.5.87.87,0,0,0,.39.19.73.73,0,0,0,.59-.15,1.73,1.73,0,0,0,.34-.89l.29-1.61a4.34,4.34,0,0,1,.61-1.74,2.31,2.31,0,0,1,.94-.84,2.86,2.86,0,0,1,1-.24,8,8,0,0,1,.91.05,2.87,2.87,0,0,1,1.63.86A5.1,5.1,0,0,1,12.47,325,7.23,7.23,0,0,1,12.88,327.48Z" transform="translate(-1.9 -1.52)"/><path class="cls-2" d="M9.52,315.7a2.2,2.2,0,0,1-.3,1.13,2.25,2.25,0,0,1-.81.81,2.13,2.13,0,0,1-1.12.3,2.09,2.09,0,0,1-1.1-.3,2.25,2.25,0,0,1-.81-.81,2.28,2.28,0,0,1,0-2.26,2.25,2.25,0,0,1,.81-.81,2,2,0,0,1,1.1-.31,2.05,2.05,0,0,1,1.12.31,2.25,2.25,0,0,1,.81.81A2.2,2.2,0,0,1,9.52,315.7Z" transform="translate(-1.9 -1.52)"/><path class="cls-2" d="M12.73,309.52,2.05,307.88v-3l4.31.66-4.31-3.76v-3.23l4.08,3.58,6.6-2.42v3.09l-4.51,1.69,1.72,1.61,2.79.42Z" transform="translate(-1.9 -1.52)"/><path class="cls-2" d="M12.73,298.42,2.05,296.79v-4.86a4.31,4.31,0,0,1,.46-2.18,2.19,2.19,0,0,1,1.23-1,3.61,3.61,0,0,1,1.75-.12,4.43,4.43,0,0,1,1.4.44,3.41,3.41,0,0,1,1,.75,5.08,5.08,0,0,1,.71,1l4.14-1.25v2.94l-3.68,1V295l3.68.55Zm-5.82-3.78V293a1.29,1.29,0,0,0-.2-.69,2.05,2.05,0,0,0-.52-.54,1.64,1.64,0,0,0-.67-.26,1.1,1.1,0,0,0-.95.25,1,1,0,0,0-.39.82v1.65Z" transform="translate(-1.9 -1.52)"/><path class="cls-2" d="M12.88,283.66a4.94,4.94,0,0,1-.58,2.65,2.61,2.61,0,0,1-1.6,1.2,5.86,5.86,0,0,1-2.39.08l-6.26-1v-2.92l6.38,1a2.27,2.27,0,0,0,1.19-.06,1.2,1.2,0,0,0,.65-.53,1.68,1.68,0,0,0,.2-.81A1.93,1.93,0,0,0,10,282a2.32,2.32,0,0,0-1.57-.76l-6.38-1v-2.92l6.26,1a6.55,6.55,0,0,1,2.39.8,4.14,4.14,0,0,1,1.6,1.69A6,6,0,0,1,12.88,283.66Z" transform="translate(-1.9 -1.52)"/><path class="cls-2" d="M12.88,272.7a6.88,6.88,0,0,1-.2,1.64,4.48,4.48,0,0,1-.61,1.43,2.87,2.87,0,0,1-1.05,1,2.81,2.81,0,0,1-1.54.28v-3a1.12,1.12,0,0,0,.64-.22,1.19,1.19,0,0,0,.41-.56,2.21,2.21,0,0,0,.15-.86,4.14,4.14,0,0,0-.09-.87,1.86,1.86,0,0,0-.3-.7.88.88,0,0,0-.59-.35.49.49,0,0,0-.5.19,1.55,1.55,0,0,0-.27.62c-.07.27-.12.55-.17.85l-.28,1.61a2.93,2.93,0,0,1-1,1.88,2.72,2.72,0,0,1-2.15.47,3.38,3.38,0,0,1-1.85-.88,4.78,4.78,0,0,1-1.16-1.81,6.62,6.62,0,0,1-.41-2.32,4.93,4.93,0,0,1,.48-2.26,3.68,3.68,0,0,1,1.25-1.44,2.78,2.78,0,0,1,1.64-.46v2.93a1.08,1.08,0,0,0-.67.14.89.89,0,0,0-.36.51,2.6,2.6,0,0,0-.12.85,2.52,2.52,0,0,0,.13.9,1.24,1.24,0,0,0,.32.51,1,1,0,0,0,.39.19.7.7,0,0,0,.59-.16,1.68,1.68,0,0,0,.34-.88l.29-1.62a4.34,4.34,0,0,1,.61-1.74,2.28,2.28,0,0,1,.94-.83,2.51,2.51,0,0,1,1-.24,5.09,5.09,0,0,1,.91,0,2.87,2.87,0,0,1,1.63.86,5.05,5.05,0,0,1,1.14,1.84A7.29,7.29,0,0,1,12.88,272.7Z" transform="translate(-1.9 -1.52)"/><path class="cls-2" d="M12.73,264.06l-8.16-1.24v3l-2.52-.38v-9l2.52.39v3.07l8.16,1.25Z" transform="translate(-1.9 -1.52)"/><path class="cls-2" d="M12.88,252a4.89,4.89,0,0,1-.68,2.66,3.67,3.67,0,0,1-1.9,1.51,5.8,5.8,0,0,1-2.89.19,7,7,0,0,1-2.91-1.1,5.88,5.88,0,0,1-1.92-2.11,6,6,0,0,1-.68-2.83,4.73,4.73,0,0,1,.68-2.61A3.82,3.82,0,0,1,4.5,246.2a5.88,5.88,0,0,1,2.91-.2,7,7,0,0,1,2.89,1.08,5.76,5.76,0,0,1,1.9,2.09A5.93,5.93,0,0,1,12.88,252Zm-2.31-.34a2.15,2.15,0,0,0-.3-1.11,2.35,2.35,0,0,0-1-.87,5.45,5.45,0,0,0-1.83-.54,5.4,5.4,0,0,0-1.91,0,1.72,1.72,0,0,0-1,.57,1.62,1.62,0,0,0-.32,1,2.12,2.12,0,0,0,.74,1.58,4.58,4.58,0,0,0,2.52,1,4.85,4.85,0,0,0,1.83,0,1.56,1.56,0,0,0,1-.58A1.67,1.67,0,0,0,10.57,251.67Z" transform="translate(-1.9 -1.52)"/><path class="cls-2" d="M12.88,244c0,.31,0,.65,0,1a6.87,6.87,0,0,1-.11.9l-2.58-.39c0-.14,0-.29,0-.46a4.12,4.12,0,0,0,0-.48,1.32,1.32,0,0,0-.39-1.09,2.54,2.54,0,0,0-1.22-.43l-6.56-1v-2.88l7.3,1.12a7,7,0,0,1,2,.55,2.54,2.54,0,0,1,1.18,1.11A4.44,4.44,0,0,1,12.88,244Z" transform="translate(-1.9 -1.52)"/><path class="cls-2" d="M12.88,234.31A5,5,0,0,1,12.3,237a2.61,2.61,0,0,1-1.6,1.2,5.88,5.88,0,0,1-2.39.07l-6.26-.95v-2.93l6.38,1a2.5,2.5,0,0,0,1.19-.06,1.24,1.24,0,0,0,.65-.53,1.68,1.68,0,0,0,.2-.81,2,2,0,0,0-.47-1.26,2.31,2.31,0,0,0-1.57-.75l-6.38-1V228l6.26,1a7,7,0,0,1,2.39.8,4.17,4.17,0,0,1,1.6,1.7A6,6,0,0,1,12.88,234.31Z" transform="translate(-1.9 -1.52)"/><path class="cls-2" d="M12.73,227.74,2.05,226.11v-4.28l6.51-.74-6.51-2.74V214.1l10.68,1.62v2.89L5,217.43l7.74,3.26v2.08L5,223.68l7.74,1.18Z" transform="translate(-1.9 -1.52)"/><path class="cls-2" d="M12.88,209.19a6.88,6.88,0,0,1-.2,1.64,4.39,4.39,0,0,1-.61,1.43,2.79,2.79,0,0,1-1.05,1,2.72,2.72,0,0,1-1.54.28v-3a1.13,1.13,0,0,0,.64-.23,1.21,1.21,0,0,0,.41-.55,2.24,2.24,0,0,0,.15-.86,4.14,4.14,0,0,0-.09-.87,1.91,1.91,0,0,0-.3-.71A.87.87,0,0,0,9.7,207a.47.47,0,0,0-.5.18,1.67,1.67,0,0,0-.27.63c-.07.26-.12.54-.17.84l-.28,1.62a3,3,0,0,1-1,1.88,2.72,2.72,0,0,1-2.15.46,3.25,3.25,0,0,1-1.85-.88,4.71,4.71,0,0,1-1.16-1.81,6.53,6.53,0,0,1-.41-2.31,4.93,4.93,0,0,1,.48-2.26,3.55,3.55,0,0,1,1.25-1.44,2.65,2.65,0,0,1,1.64-.46v2.92a1.15,1.15,0,0,0-.67.15.89.89,0,0,0-.36.51,2.6,2.6,0,0,0-.12.85,2.52,2.52,0,0,0,.13.9,1.2,1.2,0,0,0,.32.5.87.87,0,0,0,.39.19.66.66,0,0,0,.59-.15,1.72,1.72,0,0,0,.34-.88l.29-1.62A4.34,4.34,0,0,1,6.8,205a2.31,2.31,0,0,1,.94-.84,2.86,2.86,0,0,1,1-.24,6.12,6.12,0,0,1,.91.06,2.85,2.85,0,0,1,1.63.85,5.1,5.1,0,0,1,1.14,1.85A7.23,7.23,0,0,1,12.88,209.19Z" transform="translate(-1.9 -1.52)"/><path class="cls-2" d="M9.52,197.4a2.2,2.2,0,0,1-.3,1.13,2.25,2.25,0,0,1-.81.81,2.13,2.13,0,0,1-1.12.3,2.09,2.09,0,0,1-1.1-.3,2.25,2.25,0,0,1-.81-.81,2.28,2.28,0,0,1,0-2.26,2.25,2.25,0,0,1,.81-.81,2,2,0,0,1,1.1-.31,2.05,2.05,0,0,1,1.12.31,2.25,2.25,0,0,1,.81.81A2.2,2.2,0,0,1,9.52,197.4Z" transform="translate(-1.9 -1.52)"/><path class="cls-2" d="M12.73,191.25,2.05,189.6v-3l4.31.65-4.31-3.75v-3.23l4.08,3.57,6.6-2.41v3.08l-4.51,1.7,1.72,1.6,2.79.43Z" transform="translate(-1.9 -1.52)"/><path class="cls-2" d="M12.73,180.15,2.05,178.52v-4.86a4.27,4.27,0,0,1,.46-2.17,2.25,2.25,0,0,1,1.23-1.05,3.74,3.74,0,0,1,1.75-.11,4.44,4.44,0,0,1,1.4.43,3.62,3.62,0,0,1,1,.76,5,5,0,0,1,.71,1l4.14-1.25v2.95l-3.68,1v1.52l3.68.56Zm-5.82-3.77v-1.66a1.28,1.28,0,0,0-.2-.68,1.79,1.79,0,0,0-.52-.54,1.82,1.82,0,0,0-.67-.27,1.13,1.13,0,0,0-.95.25,1.06,1.06,0,0,0-.39.82V176Z" transform="translate(-1.9 -1.52)"/><path class="cls-2" d="M12.88,165.39A5,5,0,0,1,12.3,168a2.64,2.64,0,0,1-1.6,1.2,5.88,5.88,0,0,1-2.39.07l-6.26-.95v-2.93l6.38,1a2.5,2.5,0,0,0,1.19-.06,1.24,1.24,0,0,0,.65-.53,1.68,1.68,0,0,0,.2-.81,2,2,0,0,0-.47-1.26A2.36,2.36,0,0,0,8.43,163l-6.38-1v-2.92l6.26.95a7,7,0,0,1,2.39.8,4.17,4.17,0,0,1,1.6,1.7A6,6,0,0,1,12.88,165.39Z" transform="translate(-1.9 -1.52)"/><path class="cls-2" d="M12.88,154.42a7,7,0,0,1-.2,1.65,4.33,4.33,0,0,1-.61,1.42,2.9,2.9,0,0,1-1.05,1,2.81,2.81,0,0,1-1.54.28v-3a1.12,1.12,0,0,0,.64-.22,1.24,1.24,0,0,0,.41-.56,2.24,2.24,0,0,0,.15-.86,4.14,4.14,0,0,0-.09-.87,1.79,1.79,0,0,0-.3-.7.88.88,0,0,0-.59-.35.51.51,0,0,0-.5.18,1.67,1.67,0,0,0-.27.63c-.07.27-.12.55-.17.84l-.28,1.62a3,3,0,0,1-1,1.88,2.72,2.72,0,0,1-2.15.47,3.32,3.32,0,0,1-1.85-.89,4.63,4.63,0,0,1-1.16-1.81,6.53,6.53,0,0,1-.41-2.31,4.93,4.93,0,0,1,.48-2.26,3.55,3.55,0,0,1,1.25-1.44,2.71,2.71,0,0,1,1.64-.46v2.92a1.15,1.15,0,0,0-.67.15.89.89,0,0,0-.36.51,2.6,2.6,0,0,0-.12.85,2.52,2.52,0,0,0,.13.9,1.14,1.14,0,0,0,.32.5.87.87,0,0,0,.39.19.66.66,0,0,0,.59-.15,1.72,1.72,0,0,0,.34-.88L6.19,152a4.34,4.34,0,0,1,.61-1.74,2.38,2.38,0,0,1,.94-.84,2.65,2.65,0,0,1,1-.23,5.09,5.09,0,0,1,.91.05,2.85,2.85,0,0,1,1.63.85A5.18,5.18,0,0,1,12.47,152,7.27,7.27,0,0,1,12.88,154.42Z" transform="translate(-1.9 -1.52)"/><path class="cls-2" d="M12.73,145.79l-8.16-1.24v3l-2.52-.39v-9l2.52.39v3.07l8.16,1.25Z" transform="translate(-1.9 -1.52)"/><path class="cls-2" d="M12.88,133.75a4.89,4.89,0,0,1-.68,2.66,3.67,3.67,0,0,1-1.9,1.51,5.8,5.8,0,0,1-2.89.19A7,7,0,0,1,4.5,137a5.88,5.88,0,0,1-1.92-2.11,6,6,0,0,1-.68-2.83,4.73,4.73,0,0,1,.68-2.61,3.82,3.82,0,0,1,1.92-1.52,5.88,5.88,0,0,1,2.91-.2,7,7,0,0,1,2.89,1.08,5.76,5.76,0,0,1,1.9,2.09A5.93,5.93,0,0,1,12.88,133.75Zm-2.31-.35a2.14,2.14,0,0,0-.3-1.1,2.29,2.29,0,0,0-1-.87,5.45,5.45,0,0,0-1.83-.54,5.4,5.4,0,0,0-1.91,0,1.67,1.67,0,0,0-1,.57,1.62,1.62,0,0,0-.32,1A2.12,2.12,0,0,0,4.94,134a4.66,4.66,0,0,0,2.52,1,4.85,4.85,0,0,0,1.83,0,1.56,1.56,0,0,0,1-.58A1.68,1.68,0,0,0,10.57,133.4Z" transform="translate(-1.9 -1.52)"/><path class="cls-2" d="M12.88,125.71c0,.3,0,.64,0,1a6.87,6.87,0,0,1-.11.9l-2.58-.39c0-.13,0-.29,0-.45a4.15,4.15,0,0,0,0-.49,1.34,1.34,0,0,0-.39-1.09,2.54,2.54,0,0,0-1.22-.43l-6.56-1v-2.88L9.35,122a7,7,0,0,1,2,.55,2.52,2.52,0,0,1,1.18,1.12A4.39,4.39,0,0,1,12.88,125.71Z" transform="translate(-1.9 -1.52)"/><path class="cls-2" d="M12.88,116a5,5,0,0,1-.58,2.65,2.61,2.61,0,0,1-1.6,1.2,5.88,5.88,0,0,1-2.39.07L2.05,119v-2.93l6.38,1A2.5,2.5,0,0,0,9.62,117a1.24,1.24,0,0,0,.65-.53,1.68,1.68,0,0,0,.2-.81,2,2,0,0,0-.47-1.26,2.31,2.31,0,0,0-1.57-.75l-6.38-1v-2.92l6.26,1a7,7,0,0,1,2.39.8,4.17,4.17,0,0,1,1.6,1.7A6,6,0,0,1,12.88,116Z" transform="translate(-1.9 -1.52)"/><path class="cls-2" d="M12.73,109.47,2.05,107.84v-4.28l6.51-.74-6.51-2.74V95.83l10.68,1.61v2.89L5,99.16l7.74,3.26v2.08L5,105.4l7.74,1.19Z" transform="translate(-1.9 -1.52)"/><path class="cls-2" d="M12.88,90.93a7,7,0,0,1-.2,1.65A4.43,4.43,0,0,1,12.07,94,2.79,2.79,0,0,1,11,95a2.72,2.72,0,0,1-1.54.28v-3a1.2,1.2,0,0,0,.64-.22,1.3,1.3,0,0,0,.41-.56,2.24,2.24,0,0,0,.15-.86,4.14,4.14,0,0,0-.09-.87,1.91,1.91,0,0,0-.3-.71.87.87,0,0,0-.59-.34.47.47,0,0,0-.5.18,1.67,1.67,0,0,0-.27.63c-.07.26-.12.54-.17.84L8.48,92a3,3,0,0,1-1,1.88,2.72,2.72,0,0,1-2.15.46,3.25,3.25,0,0,1-1.85-.88,4.71,4.71,0,0,1-1.16-1.81,6.53,6.53,0,0,1-.41-2.31,4.93,4.93,0,0,1,.48-2.26,3.55,3.55,0,0,1,1.25-1.44,2.65,2.65,0,0,1,1.64-.46v2.92a1.15,1.15,0,0,0-.67.15.89.89,0,0,0-.36.51,2.6,2.6,0,0,0-.12.85,2.52,2.52,0,0,0,.13.9,1.2,1.2,0,0,0,.32.5.87.87,0,0,0,.39.19A.66.66,0,0,0,5.56,91a1.72,1.72,0,0,0,.34-.88l.29-1.62a4.34,4.34,0,0,1,.61-1.74,2.31,2.31,0,0,1,.94-.84,2.86,2.86,0,0,1,1-.24,6.12,6.12,0,0,1,.91.06,2.85,2.85,0,0,1,1.63.85,5.1,5.1,0,0,1,1.14,1.85A7.23,7.23,0,0,1,12.88,90.93Z" transform="translate(-1.9 -1.52)"/><path class="cls-2" d="M9.52,79.14a2.17,2.17,0,0,1-.3,1.13,2.25,2.25,0,0,1-.81.81,2.05,2.05,0,0,1-1.12.31,2,2,0,0,1-1.1-.31,2.25,2.25,0,0,1-.81-.81,2.26,2.26,0,0,1,0-2.25,2.2,2.2,0,0,1,.81-.82,2.1,2.1,0,0,1,1.1-.31,2.14,2.14,0,0,1,1.12.31,2.2,2.2,0,0,1,.81.82A2.16,2.16,0,0,1,9.52,79.14Z" transform="translate(-1.9 -1.52)"/><path class="cls-2" d="M12.73,73,2.05,71.33v-3L6.36,69,2.05,65.24V62l4.08,3.57,6.6-2.41v3.08L8.22,68l1.72,1.6,2.79.43Z" transform="translate(-1.9 -1.52)"/><path class="cls-2" d="M12.73,61.89,2.05,60.26V55.4a4.24,4.24,0,0,1,.46-2.17,2.25,2.25,0,0,1,1.23-1,3.74,3.74,0,0,1,1.75-.12,4.43,4.43,0,0,1,1.4.44,3.8,3.8,0,0,1,1,.75,5.4,5.4,0,0,1,.71,1L12.73,53v2.95l-3.68,1v1.52l3.68.56ZM6.91,58.11V56.46a1.34,1.34,0,0,0-.2-.69,1.87,1.87,0,0,0-.52-.53A1.53,1.53,0,0,0,5.52,55a1.1,1.1,0,0,0-.95.25,1.06,1.06,0,0,0-.39.82V57.7Z" transform="translate(-1.9 -1.52)"/><path class="cls-2" d="M12.88,47.13a5,5,0,0,1-.58,2.65A2.68,2.68,0,0,1,10.7,51a5.88,5.88,0,0,1-2.39.07L2.05,50.1V47.17l6.38,1a2.27,2.27,0,0,0,1.19-.06,1.23,1.23,0,0,0,.65-.52,1.69,1.69,0,0,0,.2-.82A1.93,1.93,0,0,0,10,45.5a2.32,2.32,0,0,0-1.57-.76l-6.38-1V40.85l6.26,1a7,7,0,0,1,2.39.8,4.11,4.11,0,0,1,1.6,1.7A6,6,0,0,1,12.88,47.13Z" transform="translate(-1.9 -1.52)"/><path class="cls-2" d="M13.49,37.09A7,7,0,0,1,13,38.66a4.38,4.38,0,0,1-.87,1.28,2.84,2.84,0,0,1-1.22.75,2.71,2.71,0,0,1-1.57,0l.58-2.94a1.07,1.07,0,0,0,.67-.09,1.34,1.34,0,0,0,.51-.47,2.28,2.28,0,0,0,.31-.81,4.43,4.43,0,0,0,.08-.88,1.72,1.72,0,0,0-.16-.74.86.86,0,0,0-.51-.46.5.5,0,0,0-.53.08,2,2,0,0,0-.39.57c-.11.25-.22.51-.32.79L9,37.25a2.92,2.92,0,0,1-1.34,1.66,2.72,2.72,0,0,1-2.2,0,3.31,3.31,0,0,1-1.64-1.22,4.74,4.74,0,0,1-.8-2,6.65,6.65,0,0,1,0-2.35,5,5,0,0,1,.9-2.12,3.7,3.7,0,0,1,1.5-1.18A2.73,2.73,0,0,1,7.15,30l-.56,2.87a1.07,1.07,0,0,0-.69,0,1,1,0,0,0-.46.43,2.56,2.56,0,0,0-.27.81,2.45,2.45,0,0,0,0,.91,1.15,1.15,0,0,0,.22.56.84.84,0,0,0,.35.26.66.66,0,0,0,.6,0A1.65,1.65,0,0,0,6.8,35l.59-1.53a4.33,4.33,0,0,1,.94-1.59,2.36,2.36,0,0,1,1.08-.64,2.77,2.77,0,0,1,1.07,0,4.79,4.79,0,0,1,.89.23,2.79,2.79,0,0,1,1.43,1.15,5,5,0,0,1,.76,2A7.12,7.12,0,0,1,13.49,37.09Z" transform="translate(-1.9 -1.52)"/><path class="cls-2" d="M15.37,29.88,8.56,25.22,7.25,27.94,5.14,26.49,9,18.4l2.11,1.45L9.82,22.61l6.8,4.68Z" transform="translate(-1.9 -1.52)"/><path class="cls-2" d="M21.11,20.92a4.93,4.93,0,0,1-2.3,1.5,3.68,3.68,0,0,1-2.42-.19,5.71,5.71,0,0,1-2.26-1.82,6.91,6.91,0,0,1-1.38-2.78,5.85,5.85,0,0,1,0-2.85,5.76,5.76,0,0,1,1.42-2.54,4.64,4.64,0,0,1,2.28-1.46,3.81,3.81,0,0,1,2.44.19,5.86,5.86,0,0,1,2.27,1.83,6.93,6.93,0,0,1,1.38,2.75,5.76,5.76,0,0,1,0,2.83A5.89,5.89,0,0,1,21.11,20.92Zm-1.46-1.81a2.14,2.14,0,0,0,.53-1,2.46,2.46,0,0,0-.13-1.31,5.47,5.47,0,0,0-1-1.64,5.32,5.32,0,0,0-1.37-1.32,1.67,1.67,0,0,0-1.14-.28,1.6,1.6,0,0,0-.92.52,2.1,2.1,0,0,0-.53,1.66,4.7,4.7,0,0,0,1.18,2.43,5.14,5.14,0,0,0,1.34,1.25,1.61,1.61,0,0,0,1.12.24A1.72,1.72,0,0,0,19.65,19.11Z" transform="translate(-1.9 -1.52)"/><path class="cls-2" d="M26.09,16.49c-.27.15-.57.31-.91.47a6.71,6.71,0,0,1-.83.36l-1-2.43.41-.18a4.53,4.53,0,0,0,.44-.23A1.31,1.31,0,0,0,25,13.6a2.52,2.52,0,0,0-.24-1.27L22.33,6.14,24.81,4.7l2.7,6.88a7.26,7.26,0,0,1,.51,2,2.53,2.53,0,0,1-.37,1.58A4.48,4.48,0,0,1,26.09,16.49Z" transform="translate(-1.9 -1.52)"/><path class="cls-2" d="M33.5,13.33a5,5,0,0,1-2.71-.08,2.62,2.62,0,0,1-1.48-1.35,5.89,5.89,0,0,1-.52-2.33l-.22-6.33,2.87-.55.22,6.46a2.37,2.37,0,0,0,.28,1.15,1.23,1.23,0,0,0,.64.54,1.58,1.58,0,0,0,.84.05,2,2,0,0,0,1.14-.69A2.31,2.31,0,0,0,35,8.51l-.23-6.45,2.87-.54.23,6.33a6.88,6.88,0,0,1-.35,2.5,4.17,4.17,0,0,1-1.37,1.89A6.16,6.16,0,0,1,33.5,13.33Z" transform="translate(-1.9 -1.52)"/><path class="cls-2" d="M39.16,12.73,40.79,2.05h4.29l.73,6.51,2.74-6.51h4.26L51.19,12.73H48.3L49.48,5l-3.27,7.74H44.14L43.23,5,42,12.73Z" transform="translate(-1.9 -1.52)"/><path class="cls-2" d="M57.7,12.88a6.88,6.88,0,0,1-1.64-.2,4.48,4.48,0,0,1-1.43-.61,3,3,0,0,1-1-1.05,2.81,2.81,0,0,1-.28-1.54h3a1.12,1.12,0,0,0,.22.64,1.19,1.19,0,0,0,.56.41,2.21,2.21,0,0,0,.86.15,4.14,4.14,0,0,0,.87-.09,1.79,1.79,0,0,0,.7-.3.88.88,0,0,0,.35-.59.49.49,0,0,0-.19-.5,1.68,1.68,0,0,0-.63-.28c-.26-.06-.54-.12-.84-.17l-1.61-.28a2.88,2.88,0,0,1-1.88-1,2.72,2.72,0,0,1-.47-2.15,3.38,3.38,0,0,1,.88-1.85A4.67,4.67,0,0,1,57,2.32a6.62,6.62,0,0,1,2.32-.41,4.93,4.93,0,0,1,2.26.48A3.67,3.67,0,0,1,63,3.63a2.83,2.83,0,0,1,.46,1.65H60.56a1.08,1.08,0,0,0-.14-.67,1,1,0,0,0-.51-.37,2.92,2.92,0,0,0-.85-.11,2.52,2.52,0,0,0-.9.13,1.24,1.24,0,0,0-.51.32.88.88,0,0,0-.19.39.7.7,0,0,0,.16.59,1.68,1.68,0,0,0,.88.34l1.62.28a4.49,4.49,0,0,1,1.74.62,2.28,2.28,0,0,1,.83.94,2.51,2.51,0,0,1,.24,1,5.14,5.14,0,0,1,0,.91A2.87,2.87,0,0,1,62,11.33a5,5,0,0,1-1.84,1.13A7.05,7.05,0,0,1,57.7,12.88Z" transform="translate(-1.9 -1.52)"/><path class="cls-2" d="M69.5,9.52a2.17,2.17,0,0,1-1.13-.3,2.35,2.35,0,0,1-.82-.81,2.22,2.22,0,0,1,0-2.23,2.41,2.41,0,0,1,.82-.8,2.26,2.26,0,0,1,2.25,0,2.33,2.33,0,0,1,.82.8,2.22,2.22,0,0,1,0,2.23,2.27,2.27,0,0,1-.82.81A2.16,2.16,0,0,1,69.5,9.52Z" transform="translate(-1.9 -1.52)"/><path class="cls-2" d="M75.66,12.73,77.31,2.05h3l-.65,4.31L83.4,2.05h3.23L83.06,6.13l2.41,6.6H82.39l-1.7-4.51-1.6,1.72-.43,2.79Z" transform="translate(-1.9 -1.52)"/><path class="cls-2" d="M86.75,12.73,88.38,2.05h4.86a4.36,4.36,0,0,1,2.17.45,2.3,2.3,0,0,1,1,1.24,3.74,3.74,0,0,1,.11,1.75,4.44,4.44,0,0,1-.43,1.4,3.8,3.8,0,0,1-.75,1,5.4,5.4,0,0,1-1,.71l1.25,4.14h-3l-1-3.68H90.19l-.56,3.68Zm3.78-5.82h1.65a1.28,1.28,0,0,0,.68-.2,1.82,1.82,0,0,0,.81-1.19,1.1,1.1,0,0,0-.25-.95,1.07,1.07,0,0,0-.82-.4H90.94Z" transform="translate(-1.9 -1.52)"/><path class="cls-2" d="M101.5,12.88a5,5,0,0,1-2.66-.58,2.63,2.63,0,0,1-1.19-1.6,5.86,5.86,0,0,1-.08-2.39l1-6.26h2.93l-1,6.38a2.27,2.27,0,0,0,.06,1.19,1.23,1.23,0,0,0,.53.65,1.62,1.62,0,0,0,.81.2,2,2,0,0,0,1.25-.47,2.32,2.32,0,0,0,.76-1.57l1-6.38h2.92l-1,6.26a6.74,6.74,0,0,1-.8,2.39,4.11,4.11,0,0,1-1.7,1.6A6,6,0,0,1,101.5,12.88Z" transform="translate(-1.9 -1.52)"/><path class="cls-2" d="M112.49,12.88a6.88,6.88,0,0,1-1.64-.2,4.39,4.39,0,0,1-1.43-.61,2.87,2.87,0,0,1-1-1.05,2.72,2.72,0,0,1-.28-1.54h3a1.13,1.13,0,0,0,.23.64,1.21,1.21,0,0,0,.55.41,2.24,2.24,0,0,0,.86.15,4.07,4.07,0,0,0,.87-.09,1.84,1.84,0,0,0,.71-.3.87.87,0,0,0,.34-.59.47.47,0,0,0-.18-.5,1.84,1.84,0,0,0-.63-.28c-.26-.06-.54-.12-.84-.17l-1.62-.28a2.9,2.9,0,0,1-1.88-1,2.72,2.72,0,0,1-.46-2.15A3.31,3.31,0,0,1,110,3.48a4.59,4.59,0,0,1,1.81-1.16,6.53,6.53,0,0,1,2.31-.41,4.93,4.93,0,0,1,2.26.48,3.6,3.6,0,0,1,1.44,1.24,2.77,2.77,0,0,1,.47,1.65h-2.93a1.08,1.08,0,0,0-.15-.67,1,1,0,0,0-.51-.37,2.92,2.92,0,0,0-.85-.11,2.52,2.52,0,0,0-.9.13,1.2,1.2,0,0,0-.5.32.79.79,0,0,0-.19.39.73.73,0,0,0,.15.59,1.73,1.73,0,0,0,.89.34l1.61.28a4.49,4.49,0,0,1,1.74.62,2.24,2.24,0,0,1,.84.94,2.86,2.86,0,0,1,.24,1,8.17,8.17,0,0,1,0,.91,2.87,2.87,0,0,1-.86,1.63A5,5,0,0,1,115,12.46,7,7,0,0,1,112.49,12.88Z" transform="translate(-1.9 -1.52)"/><path class="cls-2" d="M121.11,12.73l1.24-8.16h-3l.38-2.52h9l-.39,2.52h-3.07L124,12.73Z" transform="translate(-1.9 -1.52)"/><path class="cls-2" d="M133.17,12.88a4.86,4.86,0,0,1-2.66-.68A3.62,3.62,0,0,1,129,10.3a5.79,5.79,0,0,1-.2-2.89,7.18,7.18,0,0,1,1.1-2.91,5.8,5.8,0,0,1,4.94-2.6,4.79,4.79,0,0,1,2.62.68A3.8,3.8,0,0,1,139,4.5a5.76,5.76,0,0,1,.21,2.91,7.07,7.07,0,0,1-1.08,2.89,5.71,5.71,0,0,1-2.1,1.9A5.92,5.92,0,0,1,133.17,12.88Zm.34-2.31a2.12,2.12,0,0,0,1.1-.3,2.43,2.43,0,0,0,.88-1A6,6,0,0,0,136,7.46a5.14,5.14,0,0,0,0-1.91,1.67,1.67,0,0,0-.57-1,1.6,1.6,0,0,0-1-.32,2.12,2.12,0,0,0-1.58.74,4.66,4.66,0,0,0-1,2.52,5.08,5.08,0,0,0,0,1.83,1.64,1.64,0,0,0,.58,1A1.7,1.7,0,0,0,133.51,10.57Z" transform="translate(-1.9 -1.52)"/><path class="cls-2" d="M141.2,12.88c-.3,0-.64,0-1,0s-.68-.07-.9-.11l.39-2.59.45,0,.49,0a1.34,1.34,0,0,0,1.09-.39,2.65,2.65,0,0,0,.43-1.22l1-6.56H146l-1.12,7.3a7.06,7.06,0,0,1-.55,2,2.52,2.52,0,0,1-1.12,1.18A4.39,4.39,0,0,1,141.2,12.88Z" transform="translate(-1.9 -1.52)"/><path class="cls-2" d="M150.87,12.88a5,5,0,0,1-2.65-.58,2.61,2.61,0,0,1-1.2-1.6A5.88,5.88,0,0,1,147,8.31l1-6.26h2.93l-1,6.38a2.5,2.5,0,0,0,.06,1.19,1.28,1.28,0,0,0,.53.65,1.68,1.68,0,0,0,.81.2A2,2,0,0,0,152.5,10a2.31,2.31,0,0,0,.75-1.57l1-6.38h2.92l-.95,6.26a6.75,6.75,0,0,1-.81,2.39,4.08,4.08,0,0,1-1.69,1.6A6,6,0,0,1,150.87,12.88Z" transform="translate(-1.9 -1.52)"/><path class="cls-2" d="M157.42,12.73l1.63-10.68h4.28l.74,6.51,2.74-6.51h4.25l-1.61,10.68h-2.89L167.73,5l-3.26,7.74h-2.08L161.49,5l-1.19,7.74Z" transform="translate(-1.9 -1.52)"/><path class="cls-2" d="M176,12.88a6.88,6.88,0,0,1-1.64-.2,4.48,4.48,0,0,1-1.43-.61,3,3,0,0,1-1-1.05,2.81,2.81,0,0,1-.28-1.54h3a1.12,1.12,0,0,0,.22.64,1.24,1.24,0,0,0,.56.41,2.21,2.21,0,0,0,.86.15,4.14,4.14,0,0,0,.87-.09,1.79,1.79,0,0,0,.7-.3.88.88,0,0,0,.35-.59.5.5,0,0,0-.18-.5,1.84,1.84,0,0,0-.63-.28c-.27-.06-.55-.12-.85-.17l-1.61-.28a2.88,2.88,0,0,1-1.88-1,2.72,2.72,0,0,1-.47-2.15,3.38,3.38,0,0,1,.88-1.85,4.67,4.67,0,0,1,1.81-1.16,6.62,6.62,0,0,1,2.32-.41,4.93,4.93,0,0,1,2.26.48,3.6,3.6,0,0,1,1.44,1.24,2.76,2.76,0,0,1,.46,1.65h-2.93a1.08,1.08,0,0,0-.14-.67,1,1,0,0,0-.51-.37,2.92,2.92,0,0,0-.85-.11,2.52,2.52,0,0,0-.9.13,1.14,1.14,0,0,0-.5.32.71.71,0,0,0-.19.39.66.66,0,0,0,.15.59,1.68,1.68,0,0,0,.88.34l1.62.28a4.49,4.49,0,0,1,1.74.62,2.28,2.28,0,0,1,.83.94,2.51,2.51,0,0,1,.24,1,5.14,5.14,0,0,1-.05.91,2.87,2.87,0,0,1-.86,1.63,4.9,4.9,0,0,1-1.84,1.13A7.05,7.05,0,0,1,176,12.88Z" transform="translate(-1.9 -1.52)"/><path class="cls-2" d="M187.76,9.52a2.2,2.2,0,0,1-1.13-.3,2.25,2.25,0,0,1-.81-.81,2.22,2.22,0,0,1,0-2.23,2.3,2.3,0,0,1,.81-.8,2.28,2.28,0,0,1,2.26,0,2.3,2.3,0,0,1,.81.8,2.16,2.16,0,0,1,0,2.23,2.25,2.25,0,0,1-.81.81A2.2,2.2,0,0,1,187.76,9.52Z" transform="translate(-1.9 -1.52)"/><path class="cls-2" d="M193.91,12.73l1.65-10.68h3l-.65,4.31,3.75-4.31h3.24l-3.58,4.08,2.41,6.6h-3.08l-1.7-4.51-1.6,1.72-.42,2.79Z" transform="translate(-1.9 -1.52)"/><path class="cls-2" d="M205,12.73l1.63-10.68h4.86a4.36,4.36,0,0,1,2.17.45,2.3,2.3,0,0,1,1.05,1.24,3.61,3.61,0,0,1,.11,1.75,4.44,4.44,0,0,1-.43,1.4,3.8,3.8,0,0,1-.75,1,5.4,5.4,0,0,1-1,.71l1.25,4.14h-3l-1-3.68h-1.52l-.56,3.68Zm3.78-5.82h1.65a1.34,1.34,0,0,0,.69-.2,1.79,1.79,0,0,0,.53-.53,1.45,1.45,0,0,0,.27-.66,1.1,1.1,0,0,0-.25-.95,1.07,1.07,0,0,0-.82-.4h-1.66Z" transform="translate(-1.9 -1.52)"/><path class="cls-2" d="M219.77,12.88a5,5,0,0,1-2.65-.58,2.61,2.61,0,0,1-1.2-1.6,5.88,5.88,0,0,1-.07-2.39l1-6.26h2.93l-1,6.38a2.5,2.5,0,0,0,.06,1.19,1.28,1.28,0,0,0,.53.65,1.68,1.68,0,0,0,.81.2A2,2,0,0,0,221.4,10a2.36,2.36,0,0,0,.76-1.57l1-6.38H226l-.95,6.26a7,7,0,0,1-.8,2.39,4.17,4.17,0,0,1-1.7,1.6A6,6,0,0,1,219.77,12.88Z" transform="translate(-1.9 -1.52)"/><path class="cls-2" d="M230.75,12.88a7,7,0,0,1-1.65-.2,4.33,4.33,0,0,1-1.42-.61,2.87,2.87,0,0,1-1-1.05,2.64,2.64,0,0,1-.28-1.54h3a1.12,1.12,0,0,0,.22.64,1.24,1.24,0,0,0,.56.41,2.24,2.24,0,0,0,.86.15,4.14,4.14,0,0,0,.87-.09,1.79,1.79,0,0,0,.7-.3A.88.88,0,0,0,233,9.7a.5.5,0,0,0-.18-.5,1.84,1.84,0,0,0-.63-.28l-.84-.17-1.62-.28a2.9,2.9,0,0,1-1.88-1,2.76,2.76,0,0,1-.47-2.15,3.32,3.32,0,0,1,.89-1.85,4.52,4.52,0,0,1,1.81-1.16,6.53,6.53,0,0,1,2.31-.41,4.93,4.93,0,0,1,2.26.48,3.6,3.6,0,0,1,1.44,1.24,2.76,2.76,0,0,1,.46,1.65h-2.92a1.15,1.15,0,0,0-.15-.67,1,1,0,0,0-.51-.37,2.92,2.92,0,0,0-.85-.11,2.52,2.52,0,0,0-.9.13,1.14,1.14,0,0,0-.5.32.79.79,0,0,0-.19.39.66.66,0,0,0,.15.59,1.72,1.72,0,0,0,.88.34l1.62.28a4.49,4.49,0,0,1,1.74.62,2.38,2.38,0,0,1,.84.94,2.65,2.65,0,0,1,.23,1,5.14,5.14,0,0,1-.05.91,2.85,2.85,0,0,1-.85,1.63,5,5,0,0,1-1.85,1.13A7,7,0,0,1,230.75,12.88Z" transform="translate(-1.9 -1.52)"/><path class="cls-2" d="M239.37,12.73l1.23-8.16h-3L238,2.05h9l-.39,2.52h-3.07l-1.25,8.16Z" transform="translate(-1.9 -1.52)"/><path class="cls-2" d="M251.43,12.88a4.89,4.89,0,0,1-2.66-.68,3.67,3.67,0,0,1-1.51-1.9,5.8,5.8,0,0,1-.19-2.89,7,7,0,0,1,1.1-2.91,5.8,5.8,0,0,1,4.94-2.6,4.73,4.73,0,0,1,2.61.68,3.82,3.82,0,0,1,1.52,1.92,5.88,5.88,0,0,1,.2,2.91,6.93,6.93,0,0,1-1.08,2.89,5.68,5.68,0,0,1-2.09,1.9A5.93,5.93,0,0,1,251.43,12.88Zm.35-2.31a2.14,2.14,0,0,0,1.1-.3,2.35,2.35,0,0,0,.87-1,5.53,5.53,0,0,0,.54-1.83,5.18,5.18,0,0,0,0-1.91,1.67,1.67,0,0,0-.57-1,1.6,1.6,0,0,0-1-.32,2.12,2.12,0,0,0-1.58.74,4.66,4.66,0,0,0-1,2.52,4.86,4.86,0,0,0,0,1.83,1.59,1.59,0,0,0,.58,1A1.68,1.68,0,0,0,251.78,10.57Z" transform="translate(-1.9 -1.52)"/><path class="cls-2" d="M259.45,12.88c-.3,0-.64,0-1,0s-.68-.07-.9-.11l.39-2.59.45,0,.49,0a1.3,1.3,0,0,0,1.08-.39,2.54,2.54,0,0,0,.44-1.22l1-6.56h2.87l-1.11,7.3a7.42,7.42,0,0,1-.55,2,2.52,2.52,0,0,1-1.12,1.18A4.39,4.39,0,0,1,259.45,12.88Z" transform="translate(-1.9 -1.52)"/><path class="cls-2" d="M269.12,12.88a5,5,0,0,1-2.65-.58,2.68,2.68,0,0,1-1.2-1.6,5.88,5.88,0,0,1-.07-2.39l.95-6.26h2.93l-1,6.38a2.27,2.27,0,0,0,.06,1.19,1.27,1.27,0,0,0,.52.65,1.69,1.69,0,0,0,.82.2,2,2,0,0,0,1.25-.47,2.32,2.32,0,0,0,.76-1.57l1-6.38h2.91l-.95,6.26a7,7,0,0,1-.8,2.39,4.17,4.17,0,0,1-1.7,1.6A6,6,0,0,1,269.12,12.88Z" transform="translate(-1.9 -1.52)"/><path class="cls-2" d="M275.69,12.73l1.63-10.68h4.28l.74,6.51,2.74-6.51h4.25l-1.61,10.68h-2.89L286,5l-3.26,7.74h-2.08L279.76,5l-1.19,7.74Z" transform="translate(-1.9 -1.52)"/><path class="cls-2" d="M294.23,12.88a6.88,6.88,0,0,1-1.64-.2,4.33,4.33,0,0,1-1.42-.61,2.9,2.9,0,0,1-1-1.05,2.81,2.81,0,0,1-.28-1.54h3a1.12,1.12,0,0,0,.22.64,1.24,1.24,0,0,0,.56.41,2.21,2.21,0,0,0,.86.15,4.14,4.14,0,0,0,.87-.09,1.79,1.79,0,0,0,.7-.3.88.88,0,0,0,.35-.59.5.5,0,0,0-.18-.5,1.84,1.84,0,0,0-.63-.28l-.85-.17-1.61-.28a2.88,2.88,0,0,1-1.88-1,2.72,2.72,0,0,1-.47-2.15,3.38,3.38,0,0,1,.88-1.85,4.67,4.67,0,0,1,1.81-1.16,6.62,6.62,0,0,1,2.32-.41,4.93,4.93,0,0,1,2.26.48,3.6,3.6,0,0,1,1.44,1.24A2.76,2.76,0,0,1,300,5.28h-2.93a1.08,1.08,0,0,0-.14-.67,1,1,0,0,0-.51-.37,2.92,2.92,0,0,0-.85-.11,2.52,2.52,0,0,0-.9.13,1.14,1.14,0,0,0-.5.32A.79.79,0,0,0,294,5a.66.66,0,0,0,.15.59,1.68,1.68,0,0,0,.88.34l1.62.28a4.49,4.49,0,0,1,1.74.62,2.28,2.28,0,0,1,.83.94,2.51,2.51,0,0,1,.24,1,5.14,5.14,0,0,1,0,.91,2.81,2.81,0,0,1-.86,1.63,4.9,4.9,0,0,1-1.84,1.13A7.05,7.05,0,0,1,294.23,12.88Z" transform="translate(-1.9 -1.52)"/><path class="cls-2" d="M306,9.52a2.2,2.2,0,0,1-1.13-.3,2.25,2.25,0,0,1-.81-.81,2.22,2.22,0,0,1,0-2.23,2.3,2.3,0,0,1,.81-.8,2.28,2.28,0,0,1,2.26,0,2.3,2.3,0,0,1,.81.8,2.16,2.16,0,0,1,0,2.23,2.25,2.25,0,0,1-.81.81A2.2,2.2,0,0,1,306,9.52Z" transform="translate(-1.9 -1.52)"/><path class="cls-2" d="M312.18,12.73l1.65-10.68h3l-.66,4.31,3.76-4.31h3.23l-3.57,4.08,2.41,6.6h-3.08l-1.7-4.51-1.6,1.72-.43,2.79Z" transform="translate(-1.9 -1.52)"/><path class="cls-2" d="M323.27,12.73,324.9,2.05h4.86a4.43,4.43,0,0,1,2.18.45,2.24,2.24,0,0,1,1,1.24,3.6,3.6,0,0,1,.12,1.75,4.43,4.43,0,0,1-.44,1.4,3.59,3.59,0,0,1-.75,1,5.4,5.4,0,0,1-1,.71l1.25,4.14h-2.95l-1-3.68h-1.52l-.55,3.68Zm3.78-5.82h1.65a1.32,1.32,0,0,0,.69-.2,1.79,1.79,0,0,0,.53-.53,1.45,1.45,0,0,0,.27-.66,1.1,1.1,0,0,0-.25-.95,1.05,1.05,0,0,0-.82-.4h-1.65Z" transform="translate(-1.9 -1.52)"/><path class="cls-2" d="M338,12.88a5,5,0,0,1-2.65-.58,2.61,2.61,0,0,1-1.2-1.6,5.88,5.88,0,0,1-.07-2.39l.95-6.26H338l-1,6.38a2.5,2.5,0,0,0,.06,1.19,1.28,1.28,0,0,0,.53.65,1.68,1.68,0,0,0,.81.2,2,2,0,0,0,1.26-.47,2.31,2.31,0,0,0,.75-1.57l1-6.38h2.92l-.95,6.26a6.75,6.75,0,0,1-.81,2.39,4.08,4.08,0,0,1-1.69,1.6A6,6,0,0,1,338,12.88Z" transform="translate(-1.9 -1.52)"/><path class="cls-2" d="M349,12.88a6.88,6.88,0,0,1-1.64-.2,4.48,4.48,0,0,1-1.43-.61A3,3,0,0,1,345,11a2.81,2.81,0,0,1-.28-1.54h3a1.12,1.12,0,0,0,.22.64,1.19,1.19,0,0,0,.56.41,2.19,2.19,0,0,0,.85.15,4.17,4.17,0,0,0,.88-.09,1.86,1.86,0,0,0,.7-.3.88.88,0,0,0,.35-.59.49.49,0,0,0-.19-.5,1.68,1.68,0,0,0-.63-.28c-.26-.06-.54-.12-.84-.17L348,8.47a2.88,2.88,0,0,1-1.88-1,2.72,2.72,0,0,1-.47-2.15,3.31,3.31,0,0,1,.88-1.85,4.67,4.67,0,0,1,1.81-1.16,6.62,6.62,0,0,1,2.32-.41,5,5,0,0,1,2.26.48,3.74,3.74,0,0,1,1.44,1.24,2.83,2.83,0,0,1,.46,1.65h-2.93a1.08,1.08,0,0,0-.14-.67,1,1,0,0,0-.51-.37,3,3,0,0,0-.85-.11,2.45,2.45,0,0,0-.9.13,1.24,1.24,0,0,0-.51.32.88.88,0,0,0-.19.39.7.7,0,0,0,.16.59,1.68,1.68,0,0,0,.88.34l1.62.28a4.55,4.55,0,0,1,1.74.62,2.28,2.28,0,0,1,.83.94,2.51,2.51,0,0,1,.24,1,5.14,5.14,0,0,1-.05.91,2.87,2.87,0,0,1-.86,1.63,5,5,0,0,1-1.85,1.13A7,7,0,0,1,349,12.88Z" transform="translate(-1.9 -1.52)"/><path class="cls-2" d="M357.65,12.73l1.23-8.16h-3l.39-2.52h9l-.39,2.52h-3.07l-1.25,8.16Z" transform="translate(-1.9 -1.52)"/><path class="cls-2" d="M369.7,12.88A4.89,4.89,0,0,1,367,12.2a3.67,3.67,0,0,1-1.51-1.9,5.91,5.91,0,0,1-.2-2.89,7.18,7.18,0,0,1,1.1-2.91,5.8,5.8,0,0,1,4.94-2.6,4.79,4.79,0,0,1,2.62.68A3.8,3.8,0,0,1,375.5,4.5a5.76,5.76,0,0,1,.21,2.91,7.07,7.07,0,0,1-1.08,2.89,5.76,5.76,0,0,1-2.09,1.9A6,6,0,0,1,369.7,12.88Zm.34-2.31a2.09,2.09,0,0,0,1.1-.3,2.43,2.43,0,0,0,.88-1,6,6,0,0,0,.54-1.83,5.4,5.4,0,0,0,0-1.91,1.77,1.77,0,0,0-.57-1,1.62,1.62,0,0,0-1-.32,2.14,2.14,0,0,0-1.58.74,4.73,4.73,0,0,0-1,2.52,5.32,5.32,0,0,0,0,1.83,1.6,1.6,0,0,0,.59,1A1.65,1.65,0,0,0,370,10.57Z" transform="translate(-1.9 -1.52)"/><path class="cls-2" d="M377.75,12.88c-.31,0-.65,0-1,0a8.55,8.55,0,0,1-.89-.11l.38-2.59.46,0,.48,0a1.32,1.32,0,0,0,1.09-.39,2.54,2.54,0,0,0,.43-1.22l1-6.56h2.88l-1.12,7.3a7.06,7.06,0,0,1-.55,2,2.54,2.54,0,0,1-1.11,1.18A4.41,4.41,0,0,1,377.75,12.88Z" transform="translate(-1.9 -1.52)"/><path class="cls-2" d="M387.39,12.88a5,5,0,0,1-2.65-.58,2.61,2.61,0,0,1-1.2-1.6,5.86,5.86,0,0,1-.08-2.39l1-6.26h2.92l-1,6.38a2.5,2.5,0,0,0,.06,1.19,1.23,1.23,0,0,0,.53.65,1.68,1.68,0,0,0,.81.2A2,2,0,0,0,389,10a2.36,2.36,0,0,0,.75-1.57l1-6.38h2.92l-1,6.26a6.75,6.75,0,0,1-.81,2.39,4.14,4.14,0,0,1-1.69,1.6A6,6,0,0,1,387.39,12.88Z" transform="translate(-1.9 -1.52)"/><path class="cls-2" d="M394,12.73,395.6,2.05h4.29l.73,6.51,2.74-6.51h4.26L406,12.73h-2.89L404.29,5,401,12.73H399L398,5l-1.19,7.74Z" transform="translate(-1.9 -1.52)"/><path class="cls-2" d="M412.52,12.88a7,7,0,0,1-1.65-.2,4.33,4.33,0,0,1-1.42-.61,2.87,2.87,0,0,1-1-1.05,2.64,2.64,0,0,1-.28-1.54h3a1.12,1.12,0,0,0,.22.64,1.24,1.24,0,0,0,.56.41,2.24,2.24,0,0,0,.86.15,4.14,4.14,0,0,0,.87-.09,1.79,1.79,0,0,0,.7-.3.88.88,0,0,0,.35-.59.5.5,0,0,0-.18-.5,1.84,1.84,0,0,0-.63-.28l-.84-.17-1.62-.28a2.9,2.9,0,0,1-1.88-1,2.76,2.76,0,0,1-.47-2.15A3.32,3.32,0,0,1,410,3.48a4.52,4.52,0,0,1,1.81-1.16,6.53,6.53,0,0,1,2.31-.41,4.93,4.93,0,0,1,2.26.48,3.6,3.6,0,0,1,1.44,1.24,2.76,2.76,0,0,1,.46,1.65h-2.92a1.15,1.15,0,0,0-.15-.67,1,1,0,0,0-.51-.37,2.92,2.92,0,0,0-.85-.11,2.52,2.52,0,0,0-.9.13,1.14,1.14,0,0,0-.5.32.79.79,0,0,0-.19.39.66.66,0,0,0,.15.59,1.72,1.72,0,0,0,.88.34l1.62.28a4.49,4.49,0,0,1,1.74.62,2.38,2.38,0,0,1,.84.94,2.65,2.65,0,0,1,.23,1,5.14,5.14,0,0,1-.05.91,2.85,2.85,0,0,1-.85,1.63A5,5,0,0,1,415,12.46,7,7,0,0,1,412.52,12.88Z" transform="translate(-1.9 -1.52)"/><path class="cls-2" d="M424.29,9.52a2.17,2.17,0,0,1-1.13-.3,2.25,2.25,0,0,1-.81-.81,2.16,2.16,0,0,1,0-2.23,2.3,2.3,0,0,1,.81-.8,2.17,2.17,0,0,1,1.13-.3,2.22,2.22,0,0,1,1.13.3,2.38,2.38,0,0,1,.81.8,2.16,2.16,0,0,1,0,2.23,2.33,2.33,0,0,1-.81.81A2.22,2.22,0,0,1,424.29,9.52Z" transform="translate(-1.9 -1.52)"/><path class="cls-2" d="M430.45,12.73,432.1,2.05h3l-.66,4.31,3.76-4.31h3.23l-3.57,4.08,2.41,6.6h-3.08l-1.7-4.51-1.6,1.72-.43,2.79Z" transform="translate(-1.9 -1.52)"/><path class="cls-2" d="M441.58,12.73l1.63-10.68h4.85a4.4,4.4,0,0,1,2.18.45,2.3,2.3,0,0,1,1.05,1.24,3.74,3.74,0,0,1,.11,1.75,4.44,4.44,0,0,1-.43,1.4,3.62,3.62,0,0,1-.76,1,5,5,0,0,1-1,.71l1.25,4.14h-3l-1-3.68H445l-.56,3.68Zm3.77-5.82H447a1.28,1.28,0,0,0,.68-.2,1.82,1.82,0,0,0,.54-.53,1.71,1.71,0,0,0,.27-.66,1.13,1.13,0,0,0-.25-.95,1.07,1.07,0,0,0-.83-.4h-1.65Z" transform="translate(-1.9 -1.52)"/><path class="cls-2" d="M456.33,12.88a5,5,0,0,1-2.65-.58,2.61,2.61,0,0,1-1.2-1.6,6,6,0,0,1-.08-2.39l1-6.26h2.93l-1,6.38a2.5,2.5,0,0,0,.06,1.19,1.28,1.28,0,0,0,.53.65,1.68,1.68,0,0,0,.81.2A2,2,0,0,0,458,10a2.36,2.36,0,0,0,.75-1.57l1-6.38h2.92l-1,6.26a6.75,6.75,0,0,1-.81,2.39,4.08,4.08,0,0,1-1.69,1.6A6,6,0,0,1,456.33,12.88Z" transform="translate(-1.9 -1.52)"/><path class="cls-2" d="M467.3,12.88a6.88,6.88,0,0,1-1.64-.2,4.48,4.48,0,0,1-1.43-.61,3,3,0,0,1-1-1.05A2.81,2.81,0,0,1,463,9.48h3a1.12,1.12,0,0,0,.22.64,1.19,1.19,0,0,0,.56.41,2.21,2.21,0,0,0,.86.15,4.14,4.14,0,0,0,.87-.09,1.86,1.86,0,0,0,.7-.3.88.88,0,0,0,.35-.59.49.49,0,0,0-.19-.5,1.68,1.68,0,0,0-.63-.28c-.26-.06-.54-.12-.84-.17l-1.61-.28a2.88,2.88,0,0,1-1.88-1,2.72,2.72,0,0,1-.47-2.15,3.31,3.31,0,0,1,.88-1.85,4.67,4.67,0,0,1,1.81-1.16,6.62,6.62,0,0,1,2.32-.41,5,5,0,0,1,2.26.48,3.74,3.74,0,0,1,1.44,1.24,2.83,2.83,0,0,1,.46,1.65h-2.93a1.08,1.08,0,0,0-.14-.67,1,1,0,0,0-.51-.37,2.92,2.92,0,0,0-.85-.11,2.48,2.48,0,0,0-.9.13,1.24,1.24,0,0,0-.51.32.88.88,0,0,0-.19.39.7.7,0,0,0,.16.59,1.68,1.68,0,0,0,.88.34l1.62.28a4.49,4.49,0,0,1,1.74.62,2.28,2.28,0,0,1,.83.94,2.51,2.51,0,0,1,.24,1,5.14,5.14,0,0,1,0,.91,2.87,2.87,0,0,1-.86,1.63,5,5,0,0,1-1.85,1.13A7,7,0,0,1,467.3,12.88Z" transform="translate(-1.9 -1.52)"/><path class="cls-2" d="M475.94,12.73l1.23-8.16h-3l.39-2.52h9l-.39,2.52h-3.07l-1.25,8.16Z" transform="translate(-1.9 -1.52)"/><path class="cls-2" d="M488,12.88a4.86,4.86,0,0,1-2.66-.68,3.68,3.68,0,0,1-1.52-1.9,5.91,5.91,0,0,1-.19-2.89,7,7,0,0,1,1.1-2.91,5.8,5.8,0,0,1,4.94-2.6,4.79,4.79,0,0,1,2.62.68,3.8,3.8,0,0,1,1.51,1.92A5.87,5.87,0,0,1,494,7.41a7.07,7.07,0,0,1-1.08,2.89,5.79,5.79,0,0,1-2.1,1.9A5.92,5.92,0,0,1,488,12.88Zm.34-2.31a2.14,2.14,0,0,0,1.1-.3,2.35,2.35,0,0,0,.87-1,5.53,5.53,0,0,0,.54-1.83,5.18,5.18,0,0,0,0-1.91,1.67,1.67,0,0,0-.57-1,1.6,1.6,0,0,0-1-.32,2.12,2.12,0,0,0-1.58.74,4.66,4.66,0,0,0-1,2.52,4.86,4.86,0,0,0,0,1.83,1.59,1.59,0,0,0,.58,1A1.7,1.7,0,0,0,488.32,10.57Z" transform="translate(-1.9 -1.52)"/><path class="cls-2" d="M496,12.88c-.3,0-.64,0-1,0s-.68-.07-.9-.11l.39-2.59.45,0,.49,0a1.3,1.3,0,0,0,1.08-.39,2.54,2.54,0,0,0,.44-1.22l1-6.56h2.87l-1.11,7.3a7.42,7.42,0,0,1-.55,2A2.52,2.52,0,0,1,498,12.49,4.39,4.39,0,0,1,496,12.88Z" transform="translate(-1.9 -1.52)"/><path class="cls-2" d="M505.68,12.88A5,5,0,0,1,503,12.3a2.61,2.61,0,0,1-1.2-1.6,5.88,5.88,0,0,1-.07-2.39l.95-6.26h2.93l-1,6.38a2.5,2.5,0,0,0,.06,1.19,1.28,1.28,0,0,0,.53.65,1.68,1.68,0,0,0,.81.2,2,2,0,0,0,1.26-.47,2.36,2.36,0,0,0,.75-1.57l1-6.38H512L511,8.31a6.75,6.75,0,0,1-.81,2.39,4.08,4.08,0,0,1-1.69,1.6A6,6,0,0,1,505.68,12.88Z" transform="translate(-1.9 -1.52)"/><path class="cls-2" d="M512.23,12.73l1.63-10.68h4.29l.73,6.51,2.75-6.51h4.25l-1.62,10.68h-2.89L522.55,5l-3.26,7.74h-2.08L516.3,5l-1.18,7.74Z" transform="translate(-1.9 -1.52)"/><path class="cls-2" d="M530.79,12.88a7,7,0,0,1-1.65-.2,4.43,4.43,0,0,1-1.42-.61,2.87,2.87,0,0,1-1-1.05,2.72,2.72,0,0,1-.28-1.54h3a1.2,1.2,0,0,0,.22.64,1.24,1.24,0,0,0,.56.41,2.24,2.24,0,0,0,.86.15,4.14,4.14,0,0,0,.87-.09,1.79,1.79,0,0,0,.7-.3A.85.85,0,0,0,533,9.7a.47.47,0,0,0-.18-.5,1.84,1.84,0,0,0-.63-.28c-.26-.06-.54-.12-.84-.17l-1.62-.28a2.9,2.9,0,0,1-1.88-1,2.72,2.72,0,0,1-.46-2.15,3.25,3.25,0,0,1,.88-1.85,4.59,4.59,0,0,1,1.81-1.16,6.53,6.53,0,0,1,2.31-.41,4.93,4.93,0,0,1,2.26.48,3.6,3.6,0,0,1,1.44,1.24,2.76,2.76,0,0,1,.46,1.65h-2.92a1.15,1.15,0,0,0-.15-.67,1,1,0,0,0-.51-.37,2.92,2.92,0,0,0-.85-.11,2.52,2.52,0,0,0-.9.13,1.14,1.14,0,0,0-.5.32.79.79,0,0,0-.19.39.66.66,0,0,0,.15.59,1.72,1.72,0,0,0,.88.34l1.62.28a4.49,4.49,0,0,1,1.74.62,2.38,2.38,0,0,1,.84.94,2.86,2.86,0,0,1,.24,1,6.22,6.22,0,0,1-.06.91,2.85,2.85,0,0,1-.85,1.63,5,5,0,0,1-1.85,1.13A7,7,0,0,1,530.79,12.88Z" transform="translate(-1.9 -1.52)"/><path class="cls-2" d="M542.57,9.52a2.16,2.16,0,0,1-1.12-.3,2.35,2.35,0,0,1-.82-.81,2.22,2.22,0,0,1,0-2.23,2.41,2.41,0,0,1,.82-.8,2.26,2.26,0,0,1,2.25,0,2.41,2.41,0,0,1,.82.8,2.22,2.22,0,0,1,0,2.23,2.35,2.35,0,0,1-.82.81A2.17,2.17,0,0,1,542.57,9.52Z" transform="translate(-1.9 -1.52)"/><path class="cls-2" d="M548.75,12.73,550.4,2.05h3l-.65,4.31,3.75-4.31h3.23l-3.57,4.08,2.41,6.6h-3.08l-1.7-4.51-1.6,1.72-.43,2.79Z" transform="translate(-1.9 -1.52)"/><path class="cls-2" d="M559.85,12.73l1.63-10.68h4.86a4.36,4.36,0,0,1,2.17.45,2.3,2.3,0,0,1,1,1.24,3.74,3.74,0,0,1,.11,1.75,4.44,4.44,0,0,1-.43,1.4,3.8,3.8,0,0,1-.75,1,5.4,5.4,0,0,1-1,.71l1.25,4.14h-3l-1-3.68h-1.52l-.56,3.68Zm3.78-5.82h1.65a1.28,1.28,0,0,0,.68-.2,1.82,1.82,0,0,0,.81-1.19,1.1,1.1,0,0,0-.25-.95,1.07,1.07,0,0,0-.82-.4H564Z" transform="translate(-1.9 -1.52)"/><path class="cls-2" d="M574.6,12.88A5,5,0,0,1,572,12.3a2.64,2.64,0,0,1-1.2-1.6,5.88,5.88,0,0,1-.07-2.39l1-6.26h2.93l-1,6.38a2.5,2.5,0,0,0,.06,1.19,1.28,1.28,0,0,0,.53.65,1.68,1.68,0,0,0,.81.2,2,2,0,0,0,1.26-.47A2.36,2.36,0,0,0,577,8.43l1-6.38h2.92l-1,6.26a7,7,0,0,1-.8,2.39,4.17,4.17,0,0,1-1.7,1.6A6,6,0,0,1,574.6,12.88Z" transform="translate(-1.9 -1.52)"/><path class="cls-2" d="M585.56,12.88a6.88,6.88,0,0,1-1.64-.2,4.39,4.39,0,0,1-1.43-.61,3,3,0,0,1-1-1.05,2.81,2.81,0,0,1-.28-1.54h3a1.05,1.05,0,0,0,.22.64,1.19,1.19,0,0,0,.56.41,2.19,2.19,0,0,0,.85.15,4.17,4.17,0,0,0,.88-.09,1.86,1.86,0,0,0,.7-.3.88.88,0,0,0,.35-.59.49.49,0,0,0-.19-.5,1.68,1.68,0,0,0-.63-.28c-.26-.06-.54-.12-.84-.17l-1.61-.28a2.85,2.85,0,0,1-1.88-1,2.72,2.72,0,0,1-.47-2.15,3.31,3.31,0,0,1,.88-1.85,4.67,4.67,0,0,1,1.81-1.16,6.57,6.57,0,0,1,2.31-.41,5,5,0,0,1,2.27.48,3.74,3.74,0,0,1,1.44,1.24,2.83,2.83,0,0,1,.46,1.65h-2.93a1.08,1.08,0,0,0-.14-.67,1,1,0,0,0-.51-.37,3,3,0,0,0-.85-.11,2.45,2.45,0,0,0-.9.13,1.24,1.24,0,0,0-.51.32.88.88,0,0,0-.19.39.7.7,0,0,0,.16.59,1.68,1.68,0,0,0,.88.34l1.61.28a4.6,4.6,0,0,1,1.75.62,2.28,2.28,0,0,1,.83.94,2.67,2.67,0,0,1,.24,1,6.31,6.31,0,0,1,0,.91,2.87,2.87,0,0,1-.86,1.63A5,5,0,0,1,588,12.46,7,7,0,0,1,585.56,12.88Z" transform="translate(-1.9 -1.52)"/><path class="cls-2" d="M594.21,12.73l1.23-8.16h-3l.39-2.52h9l-.39,2.52h-3.07l-1.25,8.16Z" transform="translate(-1.9 -1.52)"/><path class="cls-2" d="M606.27,12.88a4.86,4.86,0,0,1-2.66-.68,3.62,3.62,0,0,1-1.51-1.9,5.79,5.79,0,0,1-.2-2.89A7.18,7.18,0,0,1,603,4.5a5.8,5.8,0,0,1,4.94-2.6,4.79,4.79,0,0,1,2.62.68,3.8,3.8,0,0,1,1.51,1.92,5.76,5.76,0,0,1,.21,2.91,7.07,7.07,0,0,1-1.08,2.89,5.71,5.71,0,0,1-2.1,1.9A5.92,5.92,0,0,1,606.27,12.88Zm.34-2.31a2.12,2.12,0,0,0,1.1-.3,2.43,2.43,0,0,0,.88-1,6,6,0,0,0,.54-1.83,5.36,5.36,0,0,0,0-1.91,1.67,1.67,0,0,0-.57-1,1.6,1.6,0,0,0-1-.32,2.12,2.12,0,0,0-1.58.74,4.66,4.66,0,0,0-1,2.52,5.08,5.08,0,0,0,0,1.83,1.59,1.59,0,0,0,.58,1A1.7,1.7,0,0,0,606.61,10.57Z" transform="translate(-1.9 -1.52)"/><path class="cls-2" d="M614.31,12.88c-.3,0-.65,0-1,0a8.92,8.92,0,0,1-.89-.11l.38-2.59.46,0,.48,0a1.32,1.32,0,0,0,1.09-.39,2.54,2.54,0,0,0,.43-1.22l1-6.56h2.87L618,9.35a7.06,7.06,0,0,1-.55,2,2.54,2.54,0,0,1-1.11,1.18A4.41,4.41,0,0,1,614.31,12.88Z" transform="translate(-1.9 -1.52)"/><path class="cls-2" d="M623.94,12.88a5,5,0,0,1-2.65-.58,2.61,2.61,0,0,1-1.2-1.6A5.86,5.86,0,0,1,620,8.31l1-6.26h2.92l-1,6.38A2.5,2.5,0,0,0,623,9.62a1.23,1.23,0,0,0,.53.65,1.68,1.68,0,0,0,.81.2,2,2,0,0,0,1.26-.47,2.36,2.36,0,0,0,.75-1.57l1-6.38h2.92l-1,6.26a6.75,6.75,0,0,1-.81,2.39,4.08,4.08,0,0,1-1.69,1.6A6,6,0,0,1,623.94,12.88Z" transform="translate(-1.9 -1.52)"/><path class="cls-2" d="M630.51,12.73l1.63-10.68h4.28l.74,6.51,2.74-6.51h4.25l-1.62,10.68h-2.89L640.82,5l-3.26,7.74h-2.08L634.57,5l-1.18,7.74Z" transform="translate(-1.9 -1.52)"/><path class="cls-2" d="M649.05,12.88a6.88,6.88,0,0,1-1.64-.2,4.48,4.48,0,0,1-1.43-.61A3,3,0,0,1,645,11a2.81,2.81,0,0,1-.28-1.54h3a1.12,1.12,0,0,0,.22.64,1.24,1.24,0,0,0,.56.41,2.21,2.21,0,0,0,.86.15,4.14,4.14,0,0,0,.87-.09,1.79,1.79,0,0,0,.7-.3.88.88,0,0,0,.35-.59.5.5,0,0,0-.18-.5,1.84,1.84,0,0,0-.63-.28l-.85-.17L648,8.47a2.88,2.88,0,0,1-1.88-1,2.72,2.72,0,0,1-.47-2.15,3.38,3.38,0,0,1,.88-1.85,4.67,4.67,0,0,1,1.81-1.16,6.62,6.62,0,0,1,2.32-.41,4.93,4.93,0,0,1,2.26.48,3.6,3.6,0,0,1,1.44,1.24,2.76,2.76,0,0,1,.46,1.65h-2.93a1.08,1.08,0,0,0-.14-.67,1,1,0,0,0-.51-.37,2.92,2.92,0,0,0-.85-.11,2.52,2.52,0,0,0-.9.13,1.14,1.14,0,0,0-.5.32.71.71,0,0,0-.19.39.66.66,0,0,0,.15.59,1.68,1.68,0,0,0,.88.34l1.62.28a4.49,4.49,0,0,1,1.74.62,2.28,2.28,0,0,1,.83.94,2.51,2.51,0,0,1,.24,1,5.14,5.14,0,0,1,0,.91,2.87,2.87,0,0,1-.86,1.63,4.9,4.9,0,0,1-1.84,1.13A7.05,7.05,0,0,1,649.05,12.88Z" transform="translate(-1.9 -1.52)"/><path class="cls-2" d="M660.85,9.52a2.16,2.16,0,0,1-1.12-.3,2.27,2.27,0,0,1-.82-.81,2.22,2.22,0,0,1,0-2.23,2.33,2.33,0,0,1,.82-.8,2.26,2.26,0,0,1,2.25,0,2.41,2.41,0,0,1,.82.8,2.22,2.22,0,0,1,0,2.23,2.35,2.35,0,0,1-.82.81A2.17,2.17,0,0,1,660.85,9.52Z" transform="translate(-1.9 -1.52)"/><path class="cls-2" d="M667,12.73l1.64-10.68h3L671,6.36l3.76-4.31H678l-3.58,4.08,2.42,6.6h-3.09L672,8.22l-1.6,1.72L670,12.73Z" transform="translate(-1.9 -1.52)"/><path class="cls-2" d="M678.12,12.73l1.63-10.68h4.85a4.4,4.4,0,0,1,2.18.45,2.3,2.3,0,0,1,1.05,1.24,3.74,3.74,0,0,1,.11,1.75,4.44,4.44,0,0,1-.43,1.4,3.62,3.62,0,0,1-.76,1,5,5,0,0,1-1,.71L687,12.73h-2.95l-1-3.68h-1.52L681,12.73Zm3.77-5.82h1.66a1.28,1.28,0,0,0,.68-.2,1.82,1.82,0,0,0,.54-.53,1.71,1.71,0,0,0,.27-.66,1.13,1.13,0,0,0-.25-.95,1.07,1.07,0,0,0-.83-.4h-1.65Z" transform="translate(-1.9 -1.52)"/><path class="cls-2" d="M692.87,12.88a4.94,4.94,0,0,1-2.65-.58,2.61,2.61,0,0,1-1.2-1.6,5.86,5.86,0,0,1-.08-2.39l1-6.26h2.92l-1,6.38a2.27,2.27,0,0,0,.06,1.19,1.23,1.23,0,0,0,.53.65,1.68,1.68,0,0,0,.81.2,2,2,0,0,0,1.25-.47,2.32,2.32,0,0,0,.76-1.57l1-6.38h2.92l-.95,6.26a6.75,6.75,0,0,1-.81,2.39,4.14,4.14,0,0,1-1.69,1.6A6,6,0,0,1,692.87,12.88Z" transform="translate(-1.9 -1.52)"/><path class="cls-2" d="M703.84,12.88a6.88,6.88,0,0,1-1.64-.2,4.39,4.39,0,0,1-1.43-.61,2.87,2.87,0,0,1-1-1.05,2.72,2.72,0,0,1-.28-1.54h3a1.13,1.13,0,0,0,.23.64,1.19,1.19,0,0,0,.56.41,2.15,2.15,0,0,0,.85.15,4,4,0,0,0,.87-.09,1.84,1.84,0,0,0,.71-.3.87.87,0,0,0,.34-.59.47.47,0,0,0-.18-.5,1.84,1.84,0,0,0-.63-.28c-.26-.06-.54-.12-.84-.17l-1.62-.28a2.9,2.9,0,0,1-1.88-1,2.72,2.72,0,0,1-.46-2.15,3.31,3.31,0,0,1,.88-1.85,4.59,4.59,0,0,1,1.81-1.16,6.53,6.53,0,0,1,2.31-.41,4.9,4.9,0,0,1,2.26.48,3.6,3.6,0,0,1,1.44,1.24,2.77,2.77,0,0,1,.47,1.65H706.7a1.08,1.08,0,0,0-.15-.67,1,1,0,0,0-.51-.37,2.88,2.88,0,0,0-.85-.11,2.52,2.52,0,0,0-.9.13,1.27,1.27,0,0,0-.5.32.79.79,0,0,0-.19.39.73.73,0,0,0,.15.59,1.73,1.73,0,0,0,.89.34l1.61.28A4.6,4.6,0,0,1,708,6.8a2.28,2.28,0,0,1,.83.94,2.86,2.86,0,0,1,.24,1,6.31,6.31,0,0,1-.05.91,2.87,2.87,0,0,1-.86,1.63,5,5,0,0,1-1.85,1.13A7,7,0,0,1,703.84,12.88Z" transform="translate(-1.9 -1.52)"/><path class="cls-2" d="M712.49,12.73l1.24-8.16h-3l.39-2.52h9l-.39,2.52h-3.06l-1.26,8.16Z" transform="translate(-1.9 -1.52)"/><path class="cls-2" d="M724.53,12.88a4.89,4.89,0,0,1-2.66-.68,3.67,3.67,0,0,1-1.51-1.9,5.8,5.8,0,0,1-.19-2.89,7,7,0,0,1,1.1-2.91,5.8,5.8,0,0,1,4.94-2.6,4.73,4.73,0,0,1,2.61.68,3.82,3.82,0,0,1,1.52,1.92,5.88,5.88,0,0,1,.2,2.91,6.79,6.79,0,0,1-1.08,2.89,5.68,5.68,0,0,1-2.09,1.9A5.93,5.93,0,0,1,724.53,12.88Zm.35-2.31a2.14,2.14,0,0,0,1.1-.3,2.35,2.35,0,0,0,.87-1,5.53,5.53,0,0,0,.54-1.83,5.18,5.18,0,0,0,0-1.91,1.67,1.67,0,0,0-.57-1,1.6,1.6,0,0,0-1-.32,2.12,2.12,0,0,0-1.58.74,4.66,4.66,0,0,0-1,2.52,4.86,4.86,0,0,0,0,1.83,1.59,1.59,0,0,0,.58,1A1.68,1.68,0,0,0,724.88,10.57Z" transform="translate(-1.9 -1.52)"/><path class="cls-2" d="M732.58,12.88c-.3,0-.65,0-1,0a8.92,8.92,0,0,1-.89-.11l.38-2.59.46,0,.48,0a1.32,1.32,0,0,0,1.09-.39,2.54,2.54,0,0,0,.43-1.22l1-6.56h2.87l-1.12,7.3a7.06,7.06,0,0,1-.55,2,2.54,2.54,0,0,1-1.11,1.18A4.41,4.41,0,0,1,732.58,12.88Z" transform="translate(-1.9 -1.52)"/><path class="cls-2" d="M742.22,12.88a5,5,0,0,1-2.65-.58,2.61,2.61,0,0,1-1.2-1.6,5.88,5.88,0,0,1-.07-2.39l1-6.26h2.93l-1,6.38a2.5,2.5,0,0,0,.06,1.19,1.28,1.28,0,0,0,.53.65,1.68,1.68,0,0,0,.81.2,2,2,0,0,0,1.26-.47,2.31,2.31,0,0,0,.75-1.57l1-6.38h2.92l-1,6.26a6.75,6.75,0,0,1-.81,2.39A4.08,4.08,0,0,1,745,12.3,6,6,0,0,1,742.22,12.88Z" transform="translate(-1.9 -1.52)"/><path class="cls-2" d="M748.79,12.73l1.63-10.68h4.28l.74,6.51,2.74-6.51h4.25l-1.61,10.68h-2.89L759.1,5l-3.26,7.74h-2.08L752.86,5l-1.19,7.74Z" transform="translate(-1.9 -1.52)"/><path class="cls-2" d="M767.33,12.88a6.88,6.88,0,0,1-1.64-.2,4.48,4.48,0,0,1-1.43-.61,3,3,0,0,1-1-1.05A2.81,2.81,0,0,1,763,9.48h3a1.12,1.12,0,0,0,.22.64,1.24,1.24,0,0,0,.56.41,2.21,2.21,0,0,0,.86.15,4.14,4.14,0,0,0,.87-.09,1.79,1.79,0,0,0,.7-.3.88.88,0,0,0,.35-.59.5.5,0,0,0-.18-.5,1.84,1.84,0,0,0-.63-.28c-.27-.06-.55-.12-.85-.17l-1.61-.28a2.88,2.88,0,0,1-1.88-1A2.72,2.72,0,0,1,764,5.33a3.38,3.38,0,0,1,.88-1.85,4.67,4.67,0,0,1,1.81-1.16A6.62,6.62,0,0,1,769,1.91a4.93,4.93,0,0,1,2.26.48,3.6,3.6,0,0,1,1.44,1.24,2.76,2.76,0,0,1,.46,1.65h-2.93a1.08,1.08,0,0,0-.14-.67,1,1,0,0,0-.51-.37,2.92,2.92,0,0,0-.85-.11,2.52,2.52,0,0,0-.9.13,1.14,1.14,0,0,0-.5.32.71.71,0,0,0-.19.39.66.66,0,0,0,.15.59,1.68,1.68,0,0,0,.88.34l1.62.28a4.49,4.49,0,0,1,1.74.62,2.28,2.28,0,0,1,.83.94,2.51,2.51,0,0,1,.24,1,5.14,5.14,0,0,1,0,.91,2.87,2.87,0,0,1-.86,1.63,4.9,4.9,0,0,1-1.84,1.13A7.05,7.05,0,0,1,767.33,12.88Z" transform="translate(-1.9 -1.52)"/><path class="cls-2" d="M779.12,9.52a2.13,2.13,0,0,1-1.12-.3,2.2,2.2,0,0,1-.82-.81,2.22,2.22,0,0,1,0-2.23,2.25,2.25,0,0,1,.82-.8,2.13,2.13,0,0,1,1.12-.3,2.17,2.17,0,0,1,1.13.3,2.41,2.41,0,0,1,.82.8,2.22,2.22,0,0,1,0,2.23,2.35,2.35,0,0,1-.82.81A2.17,2.17,0,0,1,779.12,9.52Z" transform="translate(-1.9 -1.52)"/><path class="cls-2" d="M785.28,12.73l1.65-10.68h3l-.65,4.31L793,2.05h3.23l-3.57,4.08,2.41,6.6H792l-1.7-4.51-1.6,1.72-.43,2.79Z" transform="translate(-1.9 -1.52)"/><path class="cls-2" d="M796.38,12.73,798,2.05h4.86A4.36,4.36,0,0,1,805,2.5a2.3,2.3,0,0,1,1.05,1.24,3.61,3.61,0,0,1,.11,1.75,4.44,4.44,0,0,1-.43,1.4,3.8,3.8,0,0,1-.75,1,5.4,5.4,0,0,1-1,.71l1.25,4.14h-2.95l-1-3.68h-1.52l-.56,3.68Zm3.78-5.82h1.65a1.34,1.34,0,0,0,.69-.2,1.79,1.79,0,0,0,.53-.53,1.57,1.57,0,0,0,.27-.66,1.1,1.1,0,0,0-.25-.95,1.07,1.07,0,0,0-.82-.4h-1.66Z" transform="translate(-1.9 -1.52)"/><path class="cls-2" d="M811.17,12.88a5,5,0,0,1-2.65-.58,2.61,2.61,0,0,1-1.2-1.6,6,6,0,0,1-.08-2.39l1-6.26h2.92l-1,6.38a2.5,2.5,0,0,0,.06,1.19,1.28,1.28,0,0,0,.53.65,1.68,1.68,0,0,0,.81.2A2,2,0,0,0,812.8,10a2.36,2.36,0,0,0,.75-1.57l1-6.38h2.92l-1,6.26a6.75,6.75,0,0,1-.81,2.39A4.08,4.08,0,0,1,814,12.3,6,6,0,0,1,811.17,12.88Z" transform="translate(-1.9 -1.52)"/><path class="cls-2" d="M822.12,12.88a6.88,6.88,0,0,1-1.64-.2,4.48,4.48,0,0,1-1.43-.61,3,3,0,0,1-1-1.05,2.81,2.81,0,0,1-.28-1.54h3a1.12,1.12,0,0,0,.22.64,1.19,1.19,0,0,0,.56.41,2.21,2.21,0,0,0,.86.15,4.14,4.14,0,0,0,.87-.09,1.86,1.86,0,0,0,.7-.3.88.88,0,0,0,.35-.59.49.49,0,0,0-.19-.5,1.68,1.68,0,0,0-.63-.28c-.26-.06-.54-.12-.84-.17l-1.61-.28a2.88,2.88,0,0,1-1.88-1,2.72,2.72,0,0,1-.47-2.15,3.31,3.31,0,0,1,.88-1.85,4.67,4.67,0,0,1,1.81-1.16,6.62,6.62,0,0,1,2.32-.41,5,5,0,0,1,2.26.48,3.74,3.74,0,0,1,1.44,1.24,2.83,2.83,0,0,1,.46,1.65H825a1.08,1.08,0,0,0-.14-.67,1,1,0,0,0-.51-.37,3,3,0,0,0-.85-.11,2.45,2.45,0,0,0-.9.13,1.24,1.24,0,0,0-.51.32.88.88,0,0,0-.19.39.7.7,0,0,0,.16.59,1.68,1.68,0,0,0,.88.34l1.62.28a4.55,4.55,0,0,1,1.74.62,2.28,2.28,0,0,1,.83.94,2.51,2.51,0,0,1,.24,1,5.14,5.14,0,0,1-.05.91,2.87,2.87,0,0,1-.86,1.63,5,5,0,0,1-1.85,1.13A7,7,0,0,1,822.12,12.88Z" transform="translate(-1.9 -1.52)"/><path class="cls-2" d="M830.76,12.73,832,4.57h-3l.38-2.52h9L838,4.57h-3.07l-1.25,8.16Z" transform="translate(-1.9 -1.52)"/><path class="cls-2" d="M842.81,12.88a4.86,4.86,0,0,1-2.66-.68,3.68,3.68,0,0,1-1.52-1.9,5.91,5.91,0,0,1-.19-2.89,7,7,0,0,1,1.1-2.91,5.8,5.8,0,0,1,4.94-2.6,4.79,4.79,0,0,1,2.62.68,3.8,3.8,0,0,1,1.51,1.92,5.87,5.87,0,0,1,.21,2.91,7.07,7.07,0,0,1-1.08,2.89,5.71,5.71,0,0,1-2.1,1.9A5.92,5.92,0,0,1,842.81,12.88Zm.34-2.31a2.12,2.12,0,0,0,1.1-.3,2.43,2.43,0,0,0,.88-1,6,6,0,0,0,.54-1.83,5.36,5.36,0,0,0,0-1.91,1.67,1.67,0,0,0-.57-1,1.6,1.6,0,0,0-1-.32,2.12,2.12,0,0,0-1.58.74,4.66,4.66,0,0,0-1,2.52,4.86,4.86,0,0,0,0,1.83,1.59,1.59,0,0,0,.58,1A1.7,1.7,0,0,0,843.15,10.57Z" transform="translate(-1.9 -1.52)"/><path class="cls-2" d="M850.84,12.88c-.3,0-.64,0-1,0s-.68-.07-.9-.11l.39-2.59.45,0,.49,0a1.34,1.34,0,0,0,1.09-.39,2.65,2.65,0,0,0,.43-1.22l1-6.56h2.88l-1.12,7.3a7.06,7.06,0,0,1-.55,2,2.52,2.52,0,0,1-1.12,1.18A4.39,4.39,0,0,1,850.84,12.88Z" transform="translate(-1.9 -1.52)"/><path class="cls-2" d="M860.5,12.88a5,5,0,0,1-2.65-.58,2.61,2.61,0,0,1-1.2-1.6,5.86,5.86,0,0,1-.08-2.39l1-6.26h2.92l-1,6.38a2.5,2.5,0,0,0,.06,1.19,1.23,1.23,0,0,0,.53.65,1.68,1.68,0,0,0,.81.2,2,2,0,0,0,1.25-.47,2.32,2.32,0,0,0,.76-1.57l1-6.38h2.92l-.95,6.26A6.75,6.75,0,0,1,865,10.7a4.14,4.14,0,0,1-1.69,1.6A6,6,0,0,1,860.5,12.88Z" transform="translate(-1.9 -1.52)"/><path class="cls-2" d="M867.09,12.73l1.63-10.68H873l.74,6.51,2.74-6.51h4.25l-1.61,10.68h-2.89L877.4,5l-3.26,7.74h-2.08L871.15,5,870,12.73Z" transform="translate(-1.9 -1.52)"/><path class="cls-2" d="M885.62,12.88a6.88,6.88,0,0,1-1.64-.2,4.48,4.48,0,0,1-1.43-.61,3,3,0,0,1-1-1.05,2.81,2.81,0,0,1-.28-1.54h3a1.12,1.12,0,0,0,.22.64,1.19,1.19,0,0,0,.56.41,2.21,2.21,0,0,0,.86.15,4.14,4.14,0,0,0,.87-.09,1.86,1.86,0,0,0,.7-.3.88.88,0,0,0,.35-.59.49.49,0,0,0-.19-.5,1.68,1.68,0,0,0-.63-.28c-.26-.06-.54-.12-.84-.17l-1.61-.28a2.88,2.88,0,0,1-1.88-1,2.72,2.72,0,0,1-.47-2.15,3.38,3.38,0,0,1,.88-1.85,4.67,4.67,0,0,1,1.81-1.16,6.62,6.62,0,0,1,2.32-.41,5,5,0,0,1,2.26.48A3.67,3.67,0,0,1,891,3.63a2.83,2.83,0,0,1,.46,1.65h-2.93a1.08,1.08,0,0,0-.14-.67,1,1,0,0,0-.51-.37,2.92,2.92,0,0,0-.85-.11,2.52,2.52,0,0,0-.9.13,1.24,1.24,0,0,0-.51.32.88.88,0,0,0-.19.39.7.7,0,0,0,.16.59,1.68,1.68,0,0,0,.88.34l1.62.28a4.49,4.49,0,0,1,1.74.62,2.28,2.28,0,0,1,.83.94,2.51,2.51,0,0,1,.24,1,5.14,5.14,0,0,1-.05.91,2.87,2.87,0,0,1-.86,1.63,5,5,0,0,1-1.84,1.13A7.05,7.05,0,0,1,885.62,12.88Z" transform="translate(-1.9 -1.52)"/><path class="cls-2" d="M897.43,9.52a2.17,2.17,0,0,1-1.13-.3,2.25,2.25,0,0,1-.81-.81,2.16,2.16,0,0,1,0-2.23,2.3,2.3,0,0,1,.81-.8,2.17,2.17,0,0,1,1.13-.3,2.22,2.22,0,0,1,1.13.3,2.3,2.3,0,0,1,.81.8,2.16,2.16,0,0,1,0,2.23,2.25,2.25,0,0,1-.81.81A2.22,2.22,0,0,1,897.43,9.52Z" transform="translate(-1.9 -1.52)"/><path class="cls-2" d="M903.57,12.73l1.64-10.68h3l-.66,4.31,3.75-4.31h3.24L911,6.13l2.42,6.6h-3.09l-1.7-4.51L907,9.94l-.42,2.79Z" transform="translate(-1.9 -1.52)"/><path class="cls-2" d="M914.69,12.73l1.63-10.68h4.86a4.36,4.36,0,0,1,2.17.45,2.26,2.26,0,0,1,1,1.24,3.6,3.6,0,0,1,.12,1.75,4.43,4.43,0,0,1-.44,1.4,3.8,3.8,0,0,1-.75,1,5.4,5.4,0,0,1-1,.71l1.25,4.14h-3l-1-3.68h-1.52l-.56,3.68Zm3.78-5.82h1.65a1.34,1.34,0,0,0,.69-.2,1.79,1.79,0,0,0,.53-.53,1.45,1.45,0,0,0,.27-.66,1.1,1.1,0,0,0-.25-.95,1.05,1.05,0,0,0-.82-.4h-1.65Z" transform="translate(-1.9 -1.52)"/><path class="cls-2" d="M929.43,12.88a5,5,0,0,1-2.66-.58,2.63,2.63,0,0,1-1.19-1.6,5.86,5.86,0,0,1-.08-2.39l1-6.26h2.92l-1,6.38a2.27,2.27,0,0,0,.06,1.19,1.23,1.23,0,0,0,.53.65,1.68,1.68,0,0,0,.81.2,2,2,0,0,0,1.25-.47,2.32,2.32,0,0,0,.76-1.57l1-6.38h2.92l-1,6.26a6.55,6.55,0,0,1-.8,2.39,4.14,4.14,0,0,1-1.69,1.6A6,6,0,0,1,929.43,12.88Z" transform="translate(-1.9 -1.52)"/><path class="cls-2" d="M940.41,12.88a6.88,6.88,0,0,1-1.64-.2,4.39,4.39,0,0,1-1.43-.61,2.87,2.87,0,0,1-1-1.05,2.72,2.72,0,0,1-.28-1.54h3a1.13,1.13,0,0,0,.23.64,1.21,1.21,0,0,0,.55.41,2.24,2.24,0,0,0,.86.15,4.14,4.14,0,0,0,.87-.09,1.91,1.91,0,0,0,.71-.3.87.87,0,0,0,.34-.59.47.47,0,0,0-.18-.5,1.84,1.84,0,0,0-.63-.28c-.26-.06-.54-.12-.84-.17l-1.62-.28a2.9,2.9,0,0,1-1.88-1A2.72,2.72,0,0,1,937,5.33a3.25,3.25,0,0,1,.88-1.85,4.59,4.59,0,0,1,1.81-1.16A6.53,6.53,0,0,1,942,1.91a4.93,4.93,0,0,1,2.26.48,3.6,3.6,0,0,1,1.44,1.24,2.69,2.69,0,0,1,.46,1.65h-2.92a1.15,1.15,0,0,0-.15-.67,1,1,0,0,0-.51-.37,2.92,2.92,0,0,0-.85-.11,2.52,2.52,0,0,0-.9.13,1.2,1.2,0,0,0-.5.32.79.79,0,0,0-.19.39.69.69,0,0,0,.15.59,1.72,1.72,0,0,0,.88.34l1.62.28a4.49,4.49,0,0,1,1.74.62,2.31,2.31,0,0,1,.84.94,2.86,2.86,0,0,1,.24,1,6.22,6.22,0,0,1-.06.91,2.85,2.85,0,0,1-.85,1.63,5,5,0,0,1-1.85,1.13A7,7,0,0,1,940.41,12.88Z" transform="translate(-1.9 -1.52)"/><path class="cls-2" d="M949,12.73l1.24-8.16h-3l.39-2.52h9l-.38,2.52h-3.07l-1.25,8.16Z" transform="translate(-1.9 -1.52)"/><path class="cls-2" d="M961.1,12.88a4.86,4.86,0,0,1-2.66-.68,3.62,3.62,0,0,1-1.51-1.9,5.79,5.79,0,0,1-.2-2.89,7.18,7.18,0,0,1,1.1-2.91,5.8,5.8,0,0,1,4.94-2.6,4.79,4.79,0,0,1,2.62.68A3.8,3.8,0,0,1,966.9,4.5a5.76,5.76,0,0,1,.21,2.91A7.07,7.07,0,0,1,966,10.3a5.71,5.71,0,0,1-2.1,1.9A5.92,5.92,0,0,1,961.1,12.88Zm.34-2.31a2.12,2.12,0,0,0,1.1-.3,2.43,2.43,0,0,0,.88-1A6,6,0,0,0,964,7.46a5.14,5.14,0,0,0,0-1.91,1.67,1.67,0,0,0-.57-1,1.6,1.6,0,0,0-1-.32,2.12,2.12,0,0,0-1.58.74,4.73,4.73,0,0,0-1,2.52,5.08,5.08,0,0,0,0,1.83,1.64,1.64,0,0,0,.58,1A1.7,1.7,0,0,0,961.44,10.57Z" transform="translate(-1.9 -1.52)"/><path class="cls-2" d="M969.12,12.88c-.3,0-.64,0-1,0s-.68-.07-.9-.11l.39-2.59.45,0,.49,0a1.3,1.3,0,0,0,1.08-.39,2.54,2.54,0,0,0,.44-1.22l1-6.56h2.87l-1.11,7.3a7.42,7.42,0,0,1-.55,2,2.52,2.52,0,0,1-1.12,1.18A4.39,4.39,0,0,1,969.12,12.88Z" transform="translate(-1.9 -1.52)"/><path class="cls-2" d="M978.78,12.88a5,5,0,0,1-2.65-.58,2.68,2.68,0,0,1-1.2-1.6,5.88,5.88,0,0,1-.07-2.39l.95-6.26h2.93l-1,6.38a2.27,2.27,0,0,0,.06,1.19,1.27,1.27,0,0,0,.52.65,1.69,1.69,0,0,0,.82.2,2,2,0,0,0,1.25-.47,2.32,2.32,0,0,0,.76-1.57l1-6.38h2.91l-.95,6.26a7,7,0,0,1-.8,2.39,4.17,4.17,0,0,1-1.7,1.6A6,6,0,0,1,978.78,12.88Z" transform="translate(-1.9 -1.52)"/><path class="cls-2" d="M985.36,12.73,987,2.05h4.28L992,8.56l2.74-6.51H999l-1.62,10.68H994.5L995.68,5l-3.27,7.74h-2.07L989.43,5l-1.19,7.74Z" transform="translate(-1.9 -1.52)"/><path class="cls-2" d="M1003.91,12.88a6.88,6.88,0,0,1-1.64-.2,4.39,4.39,0,0,1-1.43-.61,2.87,2.87,0,0,1-1-1.05,2.72,2.72,0,0,1-.28-1.54h3a1.13,1.13,0,0,0,.23.64,1.19,1.19,0,0,0,.56.41,2.15,2.15,0,0,0,.85.15,4.07,4.07,0,0,0,.87-.09,1.84,1.84,0,0,0,.71-.3.87.87,0,0,0,.34-.59.47.47,0,0,0-.18-.5,1.84,1.84,0,0,0-.63-.28c-.26-.06-.54-.12-.84-.17l-1.62-.28a2.9,2.9,0,0,1-1.88-1,2.72,2.72,0,0,1-.46-2.15,3.31,3.31,0,0,1,.88-1.85,4.59,4.59,0,0,1,1.81-1.16,6.53,6.53,0,0,1,2.31-.41,4.9,4.9,0,0,1,2.26.48,3.6,3.6,0,0,1,1.44,1.24,2.77,2.77,0,0,1,.47,1.65h-2.93a1.08,1.08,0,0,0-.15-.67,1,1,0,0,0-.51-.37,2.88,2.88,0,0,0-.85-.11,2.52,2.52,0,0,0-.9.13,1.27,1.27,0,0,0-.5.32.79.79,0,0,0-.19.39.73.73,0,0,0,.15.59,1.73,1.73,0,0,0,.89.34l1.61.28a4.49,4.49,0,0,1,1.74.62,2.24,2.24,0,0,1,.84.94,2.86,2.86,0,0,1,.24,1,8.17,8.17,0,0,1,0,.91,2.87,2.87,0,0,1-.86,1.63,5,5,0,0,1-1.85,1.13A7,7,0,0,1,1003.91,12.88Z" transform="translate(-1.9 -1.52)"/><path class="cls-2" d="M1015.71,9.52a2.2,2.2,0,0,1-1.13-.3,2.25,2.25,0,0,1-.81-.81,2.22,2.22,0,0,1,0-2.23,2.3,2.3,0,0,1,.81-.8,2.2,2.2,0,0,1,1.13-.3,2.17,2.17,0,0,1,1.13.3,2.41,2.41,0,0,1,.82.8,2.22,2.22,0,0,1,0,2.23,2.35,2.35,0,0,1-.82.81A2.17,2.17,0,0,1,1015.71,9.52Z" transform="translate(-1.9 -1.52)"/><path class="cls-2" d="M1021.86,12.73l1.65-10.68h3l-.65,4.31,3.75-4.31h3.23l-3.57,4.08,2.41,6.6h-3.08l-1.7-4.51-1.6,1.72-.42,2.79Z" transform="translate(-1.9 -1.52)"/><path class="cls-2" d="M1033,12.73l1.63-10.68h4.86a4.38,4.38,0,0,1,2.17.45,2.3,2.3,0,0,1,1.05,1.24,3.74,3.74,0,0,1,.11,1.75,4.44,4.44,0,0,1-.43,1.4,3.62,3.62,0,0,1-.76,1,5,5,0,0,1-1,.71l1.25,4.14h-2.95l-1-3.68h-1.52l-.56,3.68Zm3.77-5.82h1.66a1.28,1.28,0,0,0,.68-.2,1.82,1.82,0,0,0,.54-.53,1.71,1.71,0,0,0,.27-.66,1.13,1.13,0,0,0-.25-.95,1.07,1.07,0,0,0-.83-.4h-1.65Z" transform="translate(-1.9 -1.52)"/><path class="cls-2" d="M1047.71,12.88a5,5,0,0,1-2.66-.58,2.68,2.68,0,0,1-1.2-1.6,6.06,6.06,0,0,1-.07-2.39l1-6.26h2.93l-1,6.38a2.27,2.27,0,0,0,.06,1.19,1.23,1.23,0,0,0,.53.65,1.62,1.62,0,0,0,.81.2,2,2,0,0,0,1.25-.47,2.32,2.32,0,0,0,.76-1.57l1-6.38H1054l-1,6.26a6.74,6.74,0,0,1-.8,2.39,4.11,4.11,0,0,1-1.7,1.6A6,6,0,0,1,1047.71,12.88Z" transform="translate(-1.9 -1.52)"/><path class="cls-2" d="M1058.69,12.88a7,7,0,0,1-1.65-.2,4.33,4.33,0,0,1-1.42-.61,2.87,2.87,0,0,1-1-1.05,2.64,2.64,0,0,1-.28-1.54h3a1.2,1.2,0,0,0,.22.64,1.24,1.24,0,0,0,.56.41,2.24,2.24,0,0,0,.86.15,4.14,4.14,0,0,0,.87-.09,1.79,1.79,0,0,0,.7-.3.85.85,0,0,0,.35-.59.48.48,0,0,0-.18-.5,1.84,1.84,0,0,0-.63-.28l-.84-.17-1.62-.28a2.9,2.9,0,0,1-1.88-1,2.76,2.76,0,0,1-.47-2.15,3.32,3.32,0,0,1,.89-1.85A4.52,4.52,0,0,1,1058,2.32a6.53,6.53,0,0,1,2.31-.41,4.93,4.93,0,0,1,2.26.48A3.6,3.6,0,0,1,1064,3.63a2.76,2.76,0,0,1,.46,1.65h-2.92a1.15,1.15,0,0,0-.15-.67,1,1,0,0,0-.51-.37,2.92,2.92,0,0,0-.85-.11,2.52,2.52,0,0,0-.9.13,1.14,1.14,0,0,0-.5.32.79.79,0,0,0-.19.39.66.66,0,0,0,.15.59,1.72,1.72,0,0,0,.88.34l1.62.28a4.49,4.49,0,0,1,1.74.62,2.38,2.38,0,0,1,.84.94,2.65,2.65,0,0,1,.23,1,5.14,5.14,0,0,1-.05.91,2.85,2.85,0,0,1-.85,1.63,5,5,0,0,1-1.85,1.13A7,7,0,0,1,1058.69,12.88Z" transform="translate(-1.9 -1.52)"/><path class="cls-2" d="M1067.32,12.73l1.24-8.16h-3l.39-2.52h9l-.38,2.52h-3.07l-1.25,8.16Z" transform="translate(-1.9 -1.52)"/><path class="cls-2" d="M1079.37,12.88a4.89,4.89,0,0,1-2.66-.68,3.67,3.67,0,0,1-1.51-1.9,5.8,5.8,0,0,1-.19-2.89,7,7,0,0,1,1.1-2.91,5.8,5.8,0,0,1,4.94-2.6,4.73,4.73,0,0,1,2.61.68,3.82,3.82,0,0,1,1.52,1.92,5.88,5.88,0,0,1,.2,2.91,6.79,6.79,0,0,1-1.08,2.89,5.68,5.68,0,0,1-2.09,1.9A5.93,5.93,0,0,1,1079.37,12.88Zm.35-2.31a2.14,2.14,0,0,0,1.1-.3,2.35,2.35,0,0,0,.87-1,5.53,5.53,0,0,0,.54-1.83,5.18,5.18,0,0,0,0-1.91,1.67,1.67,0,0,0-.57-1,1.6,1.6,0,0,0-1-.32,2.12,2.12,0,0,0-1.58.74,4.66,4.66,0,0,0-1,2.52,4.86,4.86,0,0,0,0,1.83,1.59,1.59,0,0,0,.58,1A1.68,1.68,0,0,0,1079.72,10.57Z" transform="translate(-1.9 -1.52)"/><path class="cls-2" d="M1087.42,12.88c-.31,0-.65,0-1,0a8.55,8.55,0,0,1-.89-.11l.38-2.59.46,0,.48,0a1.32,1.32,0,0,0,1.09-.39,2.54,2.54,0,0,0,.43-1.22l1-6.56h2.88l-1.12,7.3a7.06,7.06,0,0,1-.55,2,2.54,2.54,0,0,1-1.11,1.18A4.41,4.41,0,0,1,1087.42,12.88Z" transform="translate(-1.9 -1.52)"/><path class="cls-2" d="M1097.05,12.88a5,5,0,0,1-2.65-.58,2.68,2.68,0,0,1-1.2-1.6,5.88,5.88,0,0,1-.07-2.39l.95-6.26H1097l-1,6.38a2.27,2.27,0,0,0,.06,1.19,1.27,1.27,0,0,0,.52.65,1.69,1.69,0,0,0,.82.2,2,2,0,0,0,1.25-.47,2.32,2.32,0,0,0,.76-1.57l1-6.38h2.91l-1,6.26a7,7,0,0,1-.8,2.39,4.17,4.17,0,0,1-1.7,1.6A6,6,0,0,1,1097.05,12.88Z" transform="translate(-1.9 -1.52)"/><path class="cls-2" d="M1103.63,12.73l1.64-10.68h4.28l.74,6.51L1113,2.05h4.25l-1.62,10.68h-2.89L1114,5l-3.26,7.74h-2.08L1107.7,5l-1.18,7.74Z" transform="translate(-1.9 -1.52)"/><path class="cls-2" d="M1122.18,12.88a6.88,6.88,0,0,1-1.64-.2,4.48,4.48,0,0,1-1.43-.61,3,3,0,0,1-1-1.05,2.81,2.81,0,0,1-.28-1.54h3a1.12,1.12,0,0,0,.22.64,1.19,1.19,0,0,0,.56.41,2.21,2.21,0,0,0,.86.15,4.14,4.14,0,0,0,.87-.09,1.79,1.79,0,0,0,.7-.3.88.88,0,0,0,.35-.59.49.49,0,0,0-.19-.5,1.68,1.68,0,0,0-.63-.28c-.26-.06-.54-.12-.84-.17l-1.61-.28a2.88,2.88,0,0,1-1.88-1,2.72,2.72,0,0,1-.47-2.15,3.38,3.38,0,0,1,.88-1.85,4.67,4.67,0,0,1,1.81-1.16,6.62,6.62,0,0,1,2.32-.41,4.93,4.93,0,0,1,2.26.48,3.67,3.67,0,0,1,1.44,1.24,2.83,2.83,0,0,1,.46,1.65H1125a1.08,1.08,0,0,0-.14-.67,1,1,0,0,0-.51-.37,2.92,2.92,0,0,0-.85-.11,2.52,2.52,0,0,0-.9.13,1.24,1.24,0,0,0-.51.32.88.88,0,0,0-.19.39.7.7,0,0,0,.16.59,1.68,1.68,0,0,0,.88.34l1.62.28a4.49,4.49,0,0,1,1.74.62,2.28,2.28,0,0,1,.83.94,2.51,2.51,0,0,1,.24,1,5.14,5.14,0,0,1-.05.91,2.87,2.87,0,0,1-.86,1.63,5,5,0,0,1-1.84,1.13A7.05,7.05,0,0,1,1122.18,12.88Z" transform="translate(-1.9 -1.52)"/><path class="cls-2" d="M1134,9.52a2.16,2.16,0,0,1-1.12-.3,2.2,2.2,0,0,1-.82-.81,2.22,2.22,0,0,1,0-2.23,2.25,2.25,0,0,1,.82-.8,2.26,2.26,0,0,1,2.25,0,2.41,2.41,0,0,1,.82.8,2.22,2.22,0,0,1,0,2.23,2.35,2.35,0,0,1-.82.81A2.17,2.17,0,0,1,1134,9.52Z" transform="translate(-1.9 -1.52)"/><path class="cls-2" d="M1140.13,12.73l1.65-10.68h3l-.65,4.31,3.75-4.31h3.24l-3.58,4.08,2.41,6.6h-3.08l-1.7-4.51-1.6,1.72-.42,2.79Z" transform="translate(-1.9 -1.52)"/><path class="cls-2" d="M1151.22,12.73l1.63-10.68h4.86a4.36,4.36,0,0,1,2.17.45,2.3,2.3,0,0,1,1,1.24,3.74,3.74,0,0,1,.11,1.75,4.44,4.44,0,0,1-.43,1.4,3.8,3.8,0,0,1-.75,1,5.4,5.4,0,0,1-1,.71l1.25,4.14h-2.95l-1-3.68h-1.52l-.56,3.68ZM1155,6.91h1.65a1.28,1.28,0,0,0,.68-.2,1.71,1.71,0,0,0,.54-.53,1.57,1.57,0,0,0,.27-.66,1.1,1.1,0,0,0-.25-.95,1.07,1.07,0,0,0-.82-.4h-1.66Z" transform="translate(-1.9 -1.52)"/><path class="cls-2" d="M1166,12.88a5,5,0,0,1-2.65-.58,2.61,2.61,0,0,1-1.2-1.6,5.88,5.88,0,0,1-.07-2.39l1-6.26h2.93l-1,6.38a2.5,2.5,0,0,0,.06,1.19,1.28,1.28,0,0,0,.53.65,1.68,1.68,0,0,0,.81.2,2,2,0,0,0,1.26-.47,2.36,2.36,0,0,0,.75-1.57l1-6.38h2.92l-1,6.26a6.75,6.75,0,0,1-.81,2.39,4.08,4.08,0,0,1-1.69,1.6A6,6,0,0,1,1166,12.88Z" transform="translate(-1.9 -1.52)"/><path class="cls-2" d="M1177,12.88a6.88,6.88,0,0,1-1.64-.2,4.48,4.48,0,0,1-1.43-.61,3,3,0,0,1-1-1.05,2.81,2.81,0,0,1-.28-1.54h3a1.12,1.12,0,0,0,.22.64,1.24,1.24,0,0,0,.56.41,2.21,2.21,0,0,0,.86.15,4.14,4.14,0,0,0,.87-.09,1.79,1.79,0,0,0,.7-.3.88.88,0,0,0,.35-.59.5.5,0,0,0-.18-.5,1.84,1.84,0,0,0-.63-.28l-.85-.17-1.61-.28a2.88,2.88,0,0,1-1.88-1,2.72,2.72,0,0,1-.47-2.15,3.38,3.38,0,0,1,.88-1.85,4.67,4.67,0,0,1,1.81-1.16,6.62,6.62,0,0,1,2.32-.41,4.93,4.93,0,0,1,2.26.48,3.6,3.6,0,0,1,1.44,1.24,2.76,2.76,0,0,1,.46,1.65h-2.93a1.08,1.08,0,0,0-.14-.67,1,1,0,0,0-.51-.37,2.92,2.92,0,0,0-.85-.11,2.52,2.52,0,0,0-.9.13,1.14,1.14,0,0,0-.5.32.71.71,0,0,0-.19.39.66.66,0,0,0,.15.59,1.68,1.68,0,0,0,.88.34l1.62.28a4.49,4.49,0,0,1,1.74.62,2.28,2.28,0,0,1,.83.94,2.51,2.51,0,0,1,.24,1,5.14,5.14,0,0,1,0,.91,2.87,2.87,0,0,1-.86,1.63,4.9,4.9,0,0,1-1.84,1.13A7.05,7.05,0,0,1,1177,12.88Z" transform="translate(-1.9 -1.52)"/><path class="cls-2" d="M1185.61,12.73l1.23-8.16h-3l.39-2.52h9l-.39,2.52h-3.07l-1.25,8.16Z" transform="translate(-1.9 -1.52)"/><path class="cls-2" d="M1197.64,12.88a4.86,4.86,0,0,1-2.66-.68,3.68,3.68,0,0,1-1.52-1.9,5.91,5.91,0,0,1-.19-2.89,7,7,0,0,1,1.1-2.91,5.8,5.8,0,0,1,4.94-2.6,4.79,4.79,0,0,1,2.62.68,3.8,3.8,0,0,1,1.51,1.92,5.87,5.87,0,0,1,.21,2.91,7.07,7.07,0,0,1-1.08,2.89,5.79,5.79,0,0,1-2.1,1.9A5.92,5.92,0,0,1,1197.64,12.88Zm.34-2.31a2.12,2.12,0,0,0,1.1-.3,2.43,2.43,0,0,0,.88-1,6,6,0,0,0,.54-1.83,5.36,5.36,0,0,0,0-1.91,1.67,1.67,0,0,0-.57-1,1.6,1.6,0,0,0-1-.32,2.12,2.12,0,0,0-1.58.74,4.66,4.66,0,0,0-1,2.52,4.86,4.86,0,0,0,0,1.83,1.59,1.59,0,0,0,.58,1A1.7,1.7,0,0,0,1198,10.57Z" transform="translate(-1.9 -1.52)"/><path class="cls-2" d="M1205.68,12.88c-.3,0-.64,0-1,0s-.68-.07-.9-.11l.39-2.59.45,0,.49,0a1.3,1.3,0,0,0,1.08-.39,2.54,2.54,0,0,0,.44-1.22l1-6.56h2.87l-1.11,7.3a7.42,7.42,0,0,1-.55,2,2.52,2.52,0,0,1-1.12,1.18A4.39,4.39,0,0,1,1205.68,12.88Z" transform="translate(-1.9 -1.52)"/><path class="cls-2" d="M1215.34,12.88a5,5,0,0,1-2.65-.58,2.64,2.64,0,0,1-1.2-1.6,5.88,5.88,0,0,1-.07-2.39l.95-6.26h2.93l-1,6.38a2.5,2.5,0,0,0,.06,1.19,1.28,1.28,0,0,0,.53.65,1.68,1.68,0,0,0,.81.2A2,2,0,0,0,1217,10a2.36,2.36,0,0,0,.76-1.57l1-6.38h2.92l-.95,6.26a7,7,0,0,1-.8,2.39,4.17,4.17,0,0,1-1.7,1.6A6,6,0,0,1,1215.34,12.88Z" transform="translate(-1.9 -1.52)"/><path class="cls-2" d="M1221.89,12.73l1.63-10.68h4.29l.73,6.51,2.75-6.51h4.25l-1.62,10.68H1231L1232.21,5,1229,12.73h-2.08L1226,5l-1.18,7.74Z" transform="translate(-1.9 -1.52)"/><path class="cls-2" d="M1240.45,12.88a6.88,6.88,0,0,1-1.64-.2,4.39,4.39,0,0,1-1.43-.61,3,3,0,0,1-1-1.05,2.81,2.81,0,0,1-.28-1.54h3a1.05,1.05,0,0,0,.22.64,1.19,1.19,0,0,0,.56.41,2.19,2.19,0,0,0,.85.15,4.17,4.17,0,0,0,.88-.09,1.86,1.86,0,0,0,.7-.3.88.88,0,0,0,.35-.59.49.49,0,0,0-.19-.5,1.68,1.68,0,0,0-.63-.28c-.26-.06-.54-.12-.84-.17l-1.61-.28a2.85,2.85,0,0,1-1.88-1,2.72,2.72,0,0,1-.47-2.15,3.31,3.31,0,0,1,.88-1.85,4.67,4.67,0,0,1,1.81-1.16,6.57,6.57,0,0,1,2.31-.41,5,5,0,0,1,2.27.48,3.74,3.74,0,0,1,1.44,1.24,2.83,2.83,0,0,1,.46,1.65h-2.93a1.08,1.08,0,0,0-.14-.67,1,1,0,0,0-.51-.37,3,3,0,0,0-.85-.11,2.45,2.45,0,0,0-.9.13,1.24,1.24,0,0,0-.51.32.88.88,0,0,0-.19.39.7.7,0,0,0,.16.59,1.68,1.68,0,0,0,.88.34l1.61.28a4.54,4.54,0,0,1,1.75.62,2.28,2.28,0,0,1,.83.94,2.67,2.67,0,0,1,.24,1,6.31,6.31,0,0,1,0,.91,2.87,2.87,0,0,1-.86,1.63,5,5,0,0,1-1.85,1.13A7,7,0,0,1,1240.45,12.88Z" transform="translate(-1.9 -1.52)"/><path class="cls-2" d="M1252.22,9.52a2.16,2.16,0,0,1-1.12-.3,2.27,2.27,0,0,1-.82-.81,2.22,2.22,0,0,1,0-2.23,2.33,2.33,0,0,1,.82-.8,2.26,2.26,0,0,1,2.25,0,2.41,2.41,0,0,1,.82.8,2.22,2.22,0,0,1,0,2.23,2.35,2.35,0,0,1-.82.81A2.17,2.17,0,0,1,1252.22,9.52Z" transform="translate(-1.9 -1.52)"/><path class="cls-2" d="M1258.41,12.73l1.64-10.68h3l-.66,4.31,3.76-4.31h3.23l-3.58,4.08,2.42,6.6h-3.09l-1.7-4.51-1.6,1.72-.42,2.79Z" transform="translate(-1.9 -1.52)"/><path class="cls-2" d="M1269.51,12.73l1.63-10.68H1276a4.4,4.4,0,0,1,2.18.45,2.3,2.3,0,0,1,1,1.24,3.74,3.74,0,0,1,.11,1.75,4.44,4.44,0,0,1-.43,1.4,3.62,3.62,0,0,1-.76,1,5,5,0,0,1-1,.71l1.25,4.14h-3l-1-3.68H1273l-.56,3.68Zm3.77-5.82h1.66a1.28,1.28,0,0,0,.68-.2,1.82,1.82,0,0,0,.54-.53,1.71,1.71,0,0,0,.27-.66,1.13,1.13,0,0,0-.25-.95,1.07,1.07,0,0,0-.83-.4h-1.65Z" transform="translate(-1.9 -1.52)"/><path class="cls-2" d="M1284.26,12.88a5,5,0,0,1-2.65-.58,2.64,2.64,0,0,1-1.2-1.6,5.88,5.88,0,0,1-.07-2.39l1-6.26h2.93l-1,6.38a2.5,2.5,0,0,0,.06,1.19,1.28,1.28,0,0,0,.53.65,1.68,1.68,0,0,0,.81.2,2,2,0,0,0,1.26-.47,2.36,2.36,0,0,0,.76-1.57l1-6.38h2.92l-1,6.26a7,7,0,0,1-.8,2.39,4.17,4.17,0,0,1-1.7,1.6A6,6,0,0,1,1284.26,12.88Z" transform="translate(-1.9 -1.52)"/><path class="cls-2" d="M1295.22,12.88a6.88,6.88,0,0,1-1.64-.2,4.39,4.39,0,0,1-1.43-.61,2.87,2.87,0,0,1-1-1.05,2.81,2.81,0,0,1-.28-1.54h3a1.05,1.05,0,0,0,.22.64,1.19,1.19,0,0,0,.56.41,2.19,2.19,0,0,0,.85.15,4,4,0,0,0,.87-.09,1.84,1.84,0,0,0,.71-.3.88.88,0,0,0,.35-.59.49.49,0,0,0-.19-.5,1.68,1.68,0,0,0-.63-.28c-.26-.06-.54-.12-.84-.17l-1.61-.28a2.9,2.9,0,0,1-1.89-1,2.76,2.76,0,0,1-.46-2.15,3.31,3.31,0,0,1,.88-1.85,4.67,4.67,0,0,1,1.81-1.16,6.53,6.53,0,0,1,2.31-.41,4.9,4.9,0,0,1,2.26.48,3.7,3.7,0,0,1,1.45,1.24,2.83,2.83,0,0,1,.46,1.65h-2.93a1.08,1.08,0,0,0-.14-.67,1,1,0,0,0-.51-.37,3,3,0,0,0-.85-.11,2.54,2.54,0,0,0-.91.13,1.27,1.27,0,0,0-.5.32A.88.88,0,0,0,1295,5a.73.73,0,0,0,.15.59,1.77,1.77,0,0,0,.89.34l1.61.28a4.6,4.6,0,0,1,1.75.62,2.28,2.28,0,0,1,.83.94,2.86,2.86,0,0,1,.24,1,6.31,6.31,0,0,1,0,.91,2.87,2.87,0,0,1-.86,1.63,5,5,0,0,1-1.85,1.13A7,7,0,0,1,1295.22,12.88Z" transform="translate(-1.9 -1.52)"/><path class="cls-2" d="M1303.87,12.73l1.24-8.16h-3l.39-2.52h9l-.38,2.52H1308l-1.25,8.16Z" transform="translate(-1.9 -1.52)"/><path class="cls-2" d="M1315.9,12.88a4.89,4.89,0,0,1-2.66-.68,3.67,3.67,0,0,1-1.51-1.9,5.8,5.8,0,0,1-.19-2.89,7.17,7.17,0,0,1,1.09-2.91,5.83,5.83,0,0,1,4.95-2.6,4.76,4.76,0,0,1,2.61.68,3.82,3.82,0,0,1,1.52,1.92,5.88,5.88,0,0,1,.2,2.91,7.07,7.07,0,0,1-1.08,2.89,5.76,5.76,0,0,1-2.09,1.9A6,6,0,0,1,1315.9,12.88Zm.34-2.31a2.15,2.15,0,0,0,1.11-.3,2.42,2.42,0,0,0,.87-1,5.53,5.53,0,0,0,.54-1.83,5.4,5.4,0,0,0,0-1.91,1.77,1.77,0,0,0-.57-1,1.62,1.62,0,0,0-1-.32,2.16,2.16,0,0,0-1.59.74,4.73,4.73,0,0,0-1,2.52,5,5,0,0,0,0,1.83,1.59,1.59,0,0,0,.58,1A1.67,1.67,0,0,0,1316.24,10.57Z" transform="translate(-1.9 -1.52)"/><path class="cls-2" d="M1324,12.88c-.3,0-.64,0-1,0s-.68-.07-.9-.11l.39-2.59.45,0,.48,0a1.32,1.32,0,0,0,1.09-.39,2.54,2.54,0,0,0,.43-1.22l1-6.56h2.87l-1.12,7.3a7.06,7.06,0,0,1-.55,2,2.54,2.54,0,0,1-1.11,1.18A4.41,4.41,0,0,1,1324,12.88Z" transform="translate(-1.9 -1.52)"/><path class="cls-2" d="M1333.62,12.88a5,5,0,0,1-2.65-.58,2.61,2.61,0,0,1-1.2-1.6,5.86,5.86,0,0,1-.08-2.39l1-6.26h2.92l-1,6.38a2.5,2.5,0,0,0,.06,1.19,1.23,1.23,0,0,0,.53.65,1.68,1.68,0,0,0,.81.2,2,2,0,0,0,1.26-.47,2.36,2.36,0,0,0,.75-1.57l1-6.38h2.92l-1,6.26a6.75,6.75,0,0,1-.81,2.39,4.14,4.14,0,0,1-1.69,1.6A6,6,0,0,1,1333.62,12.88Z" transform="translate(-1.9 -1.52)"/><path class="cls-2" d="M1340.16,12.73l1.63-10.68h4.29l.73,6.51,2.74-6.51h4.26l-1.62,10.68h-2.89L1350.48,5l-3.27,7.74h-2.07L1344.23,5,1343,12.73Z" transform="translate(-1.9 -1.52)"/><path class="cls-2" d="M1358.73,12.88a6.88,6.88,0,0,1-1.64-.2,4.48,4.48,0,0,1-1.43-.61,3,3,0,0,1-1-1.05,2.81,2.81,0,0,1-.28-1.54h3a1.12,1.12,0,0,0,.22.64,1.19,1.19,0,0,0,.56.41,2.19,2.19,0,0,0,.85.15,4.17,4.17,0,0,0,.88-.09,1.86,1.86,0,0,0,.7-.3.88.88,0,0,0,.35-.59.49.49,0,0,0-.19-.5,1.68,1.68,0,0,0-.63-.28c-.26-.06-.54-.12-.84-.17l-1.61-.28a2.88,2.88,0,0,1-1.88-1,2.72,2.72,0,0,1-.47-2.15,3.31,3.31,0,0,1,.88-1.85A4.67,4.67,0,0,1,1358,2.32a6.62,6.62,0,0,1,2.32-.41,5,5,0,0,1,2.26.48,3.74,3.74,0,0,1,1.44,1.24,2.83,2.83,0,0,1,.46,1.65h-2.93a1.08,1.08,0,0,0-.14-.67,1,1,0,0,0-.51-.37,3,3,0,0,0-.85-.11,2.45,2.45,0,0,0-.9.13,1.24,1.24,0,0,0-.51.32.88.88,0,0,0-.19.39.7.7,0,0,0,.16.59,1.68,1.68,0,0,0,.88.34l1.62.28a4.55,4.55,0,0,1,1.74.62,2.28,2.28,0,0,1,.83.94,2.51,2.51,0,0,1,.24,1,5.14,5.14,0,0,1,0,.91,2.87,2.87,0,0,1-.86,1.63,5,5,0,0,1-1.85,1.13A7,7,0,0,1,1358.73,12.88Z" transform="translate(-1.9 -1.52)"/><path class="cls-2" d="M1370.53,9.52a2.17,2.17,0,0,1-1.13-.3,2.35,2.35,0,0,1-.82-.81,2.22,2.22,0,0,1,0-2.23,2.41,2.41,0,0,1,.82-.8,2.26,2.26,0,0,1,2.25,0,2.33,2.33,0,0,1,.82.8,2.22,2.22,0,0,1,0,2.23,2.27,2.27,0,0,1-.82.81A2.16,2.16,0,0,1,1370.53,9.52Z" transform="translate(-1.9 -1.52)"/><path class="cls-2" d="M1376.69,12.73l1.64-10.68h3l-.66,4.31,3.75-4.31h3.24l-3.58,4.08,2.42,6.6h-3.09l-1.7-4.51-1.6,1.72-.42,2.79Z" transform="translate(-1.9 -1.52)"/><path class="cls-2" d="M1387.79,12.73l1.63-10.68h4.85a4.4,4.4,0,0,1,2.18.45,2.24,2.24,0,0,1,1,1.24,3.6,3.6,0,0,1,.12,1.75,4.43,4.43,0,0,1-.44,1.4,3.41,3.41,0,0,1-.75,1,4.8,4.8,0,0,1-1,.71l1.26,4.14h-3l-1-3.68h-1.52l-.56,3.68Zm3.77-5.82h1.65a1.29,1.29,0,0,0,.69-.2,1.94,1.94,0,0,0,.54-.53,1.55,1.55,0,0,0,.26-.66,1.1,1.1,0,0,0-.25-.95,1.05,1.05,0,0,0-.82-.4H1392Z" transform="translate(-1.9 -1.52)"/><path class="cls-2" d="M1402.52,12.88a5,5,0,0,1-2.65-.58,2.61,2.61,0,0,1-1.2-1.6,5.88,5.88,0,0,1-.07-2.39l1-6.26h2.93l-1,6.38a2.5,2.5,0,0,0,.06,1.19,1.28,1.28,0,0,0,.53.65,1.68,1.68,0,0,0,.81.2,2,2,0,0,0,1.26-.47,2.36,2.36,0,0,0,.76-1.57l1-6.38h2.92l-1,6.26a7,7,0,0,1-.8,2.39,4.17,4.17,0,0,1-1.7,1.6A6,6,0,0,1,1402.52,12.88Z" transform="translate(-1.9 -1.52)"/><path class="cls-2" d="M1413.5,12.88a7,7,0,0,1-1.65-.2,4.43,4.43,0,0,1-1.42-.61,2.87,2.87,0,0,1-1-1.05,2.72,2.72,0,0,1-.28-1.54h3a1.2,1.2,0,0,0,.22.64,1.24,1.24,0,0,0,.56.41,2.24,2.24,0,0,0,.86.15,4.14,4.14,0,0,0,.87-.09,1.91,1.91,0,0,0,.71-.3.87.87,0,0,0,.34-.59.47.47,0,0,0-.18-.5,1.84,1.84,0,0,0-.63-.28c-.26-.06-.54-.12-.84-.17l-1.62-.28a2.9,2.9,0,0,1-1.88-1,2.72,2.72,0,0,1-.46-2.15,3.25,3.25,0,0,1,.88-1.85,4.59,4.59,0,0,1,1.81-1.16,6.53,6.53,0,0,1,2.31-.41,4.93,4.93,0,0,1,2.26.48,3.6,3.6,0,0,1,1.44,1.24,2.76,2.76,0,0,1,.46,1.65h-2.92a1.15,1.15,0,0,0-.15-.67,1,1,0,0,0-.51-.37,2.92,2.92,0,0,0-.85-.11,2.52,2.52,0,0,0-.9.13,1.2,1.2,0,0,0-.5.32.79.79,0,0,0-.19.39.66.66,0,0,0,.15.59,1.72,1.72,0,0,0,.88.34l1.62.28a4.49,4.49,0,0,1,1.74.62,2.31,2.31,0,0,1,.84.94,2.86,2.86,0,0,1,.24,1,6.22,6.22,0,0,1-.06.91,2.85,2.85,0,0,1-.85,1.63,5,5,0,0,1-1.85,1.13A7,7,0,0,1,1413.5,12.88Z" transform="translate(-1.9 -1.52)"/><path class="cls-2" d="M1422.15,12.73l1.24-8.16h-3l.38-2.52h9l-.39,2.52h-3.07L1425,12.73Z" transform="translate(-1.9 -1.52)"/></g></g></g></g></svg>