<svg xmlns="http://www.w3.org/2000/svg" viewBox="0 0 1936.65 1105.63"><defs><style>.cls-1{opacity:0.6;}.cls-2{fill:#fff;}</style></defs><g id="Layer_2" data-name="Layer 2"><g id="Accordion_menu_expanded" data-name="Accordion menu expanded"><g class="cls-1"><path class="cls-2" d="M16.37,1108.06l-13.74-2.12v-3.86l5.55.85-5.55-4.84v-4.16l5.25,4.6,8.49-3.1v4l-5.8,2.18,2.21,2.06,3.59.55Z" transform="translate(-2.44 -2.43)"/><path class="cls-2" d="M16.37,1093.75l-13.74-2.1v-6.26a5.63,5.63,0,0,1,.59-2.8,2.84,2.84,0,0,1,1.59-1.34,4.64,4.64,0,0,1,2.25-.15,5.6,5.6,0,0,1,1.8.56,4.6,4.6,0,0,1,1.27,1,6.55,6.55,0,0,1,.92,1.27l5.32-1.61v3.79l-4.73,1.28v2l4.73.72Zm-7.49-4.86v-2.13a1.59,1.59,0,0,0-.26-.89,2.44,2.44,0,0,0-.67-.69,2.06,2.06,0,0,0-.85-.34,1.41,1.41,0,0,0-1.22.32,1.34,1.34,0,0,0-.51,1.06v2.13Z" transform="translate(-2.44 -2.43)"/><path class="cls-2" d="M16.56,1074.27a6.51,6.51,0,0,1-.74,3.41,3.4,3.4,0,0,1-2.06,1.55,7.57,7.57,0,0,1-3.07.09l-8.06-1.22v-3.77l8.21,1.26a3.08,3.08,0,0,0,1.52-.07,1.54,1.54,0,0,0,.84-.69,2.08,2.08,0,0,0,.26-1,2.58,2.58,0,0,0-.6-1.62,3,3,0,0,0-2-1L2.63,1070v-3.76l8.06,1.23a8.77,8.77,0,0,1,3.07,1,5.35,5.35,0,0,1,2.06,2.18A7.83,7.83,0,0,1,16.56,1074.27Z" transform="translate(-2.44 -2.43)"/><path class="cls-2" d="M16.56,1060.14a9.32,9.32,0,0,1-.25,2.12,5.7,5.7,0,0,1-.79,1.83,3.45,3.45,0,0,1-3.33,1.62v-3.86a1.47,1.47,0,0,0,.82-.29,1.58,1.58,0,0,0,.53-.72,2.78,2.78,0,0,0,.19-1.1,5.13,5.13,0,0,0-.12-1.12,2.28,2.28,0,0,0-.38-.91,1.12,1.12,0,0,0-.76-.44.6.6,0,0,0-.64.23,2.17,2.17,0,0,0-.35.81,10.83,10.83,0,0,0-.22,1.08l-.36,2.09a3.77,3.77,0,0,1-1.28,2.42,3.53,3.53,0,0,1-2.77.6,4.27,4.27,0,0,1-2.37-1.14A5.94,5.94,0,0,1,3,1061a8.37,8.37,0,0,1-.52-3,6.38,6.38,0,0,1,.61-2.91,4.64,4.64,0,0,1,1.6-1.85,3.55,3.55,0,0,1,2.12-.6v3.77a1.36,1.36,0,0,0-.86.19,1.19,1.19,0,0,0-.47.65,3.48,3.48,0,0,0-.15,1.1,3.38,3.38,0,0,0,.17,1.16,1.62,1.62,0,0,0,.41.65,1.2,1.2,0,0,0,.5.24.87.87,0,0,0,.75-.2,2.13,2.13,0,0,0,.45-1.13L8,1057a5.86,5.86,0,0,1,.79-2.25,3,3,0,0,1,1.22-1.07,3.44,3.44,0,0,1,1.34-.31,6.94,6.94,0,0,1,1.17.07,3.66,3.66,0,0,1,2.1,1.1A6.49,6.49,0,0,1,16,1057,9.26,9.26,0,0,1,16.56,1060.14Z" transform="translate(-2.44 -2.43)"/><path class="cls-2" d="M16.37,1049.21l-10.49-1.59v3.89L2.63,1051v-11.57l3.25.5v4l10.49,1.61Z" transform="translate(-2.44 -2.43)"/><path class="cls-2" d="M16.56,1033.69a6.31,6.31,0,0,1-.87,3.43,4.73,4.73,0,0,1-2.45,1.94,7.36,7.36,0,0,1-3.71.25,9,9,0,0,1-3.74-1.41,7.65,7.65,0,0,1-2.47-2.72,7.54,7.54,0,0,1-.88-3.64,6.06,6.06,0,0,1,.88-3.37,4.85,4.85,0,0,1,2.47-2,7.47,7.47,0,0,1,3.74-.27,9,9,0,0,1,3.71,1.39,7.46,7.46,0,0,1,2.45,2.7A7.63,7.63,0,0,1,16.56,1033.69Zm-3-.44a2.73,2.73,0,0,0-.38-1.42,3.18,3.18,0,0,0-1.26-1.12,7.35,7.35,0,0,0-2.36-.7,6.81,6.81,0,0,0-2.45,0,2.24,2.24,0,0,0-1.33.74,2,2,0,0,0-.4,1.29,2.71,2.71,0,0,0,.94,2,6,6,0,0,0,3.24,1.26,6.18,6.18,0,0,0,2.36,0,2.12,2.12,0,0,0,1.26-.74A2.15,2.15,0,0,0,13.59,1033.25Z" transform="translate(-2.44 -2.43)"/><path class="cls-2" d="M16.56,1023.34c0,.39,0,.83,0,1.32a9.72,9.72,0,0,1-.14,1.15l-3.33-.5c0-.17,0-.36.07-.58s0-.43,0-.63a1.69,1.69,0,0,0-.5-1.39,3.26,3.26,0,0,0-1.57-.56l-8.44-1.31v-3.7l9.39,1.44a8.92,8.92,0,0,1,2.52.71,3.18,3.18,0,0,1,1.51,1.43A5.62,5.62,0,0,1,16.56,1023.34Z" transform="translate(-2.44 -2.43)"/><path class="cls-2" d="M16.56,1010.91a6.51,6.51,0,0,1-.74,3.41,3.4,3.4,0,0,1-2.06,1.55,7.57,7.57,0,0,1-3.07.09l-8.06-1.22V1011l8.21,1.26a3.08,3.08,0,0,0,1.52-.07,1.57,1.57,0,0,0,.84-.68,2.15,2.15,0,0,0,.26-1.05,2.58,2.58,0,0,0-.6-1.62,3,3,0,0,0-2-1l-8.21-1.25v-3.76l8.06,1.23a8.77,8.77,0,0,1,3.07,1,5.35,5.35,0,0,1,2.06,2.18A7.83,7.83,0,0,1,16.56,1010.91Z" transform="translate(-2.44 -2.43)"/><path class="cls-2" d="M16.37,1002.48l-13.74-2.1v-5.51l8.38-1-8.38-3.53v-5.47L16.37,987v3.72l-10-1.52,10,4.2v2.68l-10,1.17,10,1.52Z" transform="translate(-2.44 -2.43)"/><path class="cls-2" d="M16.56,978.59a9.23,9.23,0,0,1-.25,2.11,5.76,5.76,0,0,1-.79,1.84,3.55,3.55,0,0,1-1.36,1.25,3.48,3.48,0,0,1-2,.36V980.3A1.47,1.47,0,0,0,13,980a1.58,1.58,0,0,0,.53-.72,2.81,2.81,0,0,0,.19-1.1,5.22,5.22,0,0,0-.12-1.13,2.23,2.23,0,0,0-.38-.9,1.09,1.09,0,0,0-.76-.45.63.63,0,0,0-.64.24,2.17,2.17,0,0,0-.35.81,10.83,10.83,0,0,0-.22,1.08l-.36,2.08a3.74,3.74,0,0,1-1.28,2.42,3.45,3.45,0,0,1-2.77.6,4.19,4.19,0,0,1-2.37-1.13A6,6,0,0,1,3,979.48a8.41,8.41,0,0,1-.52-3,6.38,6.38,0,0,1,.61-2.91,4.74,4.74,0,0,1,1.6-1.86,3.54,3.54,0,0,1,2.12-.59v3.77a1.43,1.43,0,0,0-.86.18,1.25,1.25,0,0,0-.47.66,3.41,3.41,0,0,0-.15,1.09A3.34,3.34,0,0,0,5.48,978a1.55,1.55,0,0,0,.41.65,1.12,1.12,0,0,0,.5.25.87.87,0,0,0,.75-.2,2.17,2.17,0,0,0,.45-1.14L8,975.48a5.81,5.81,0,0,1,.79-2.24A3,3,0,0,1,10,972.16a3.42,3.42,0,0,1,1.34-.3,7,7,0,0,1,1.17.06,3.73,3.73,0,0,1,2.1,1.11A6.49,6.49,0,0,1,16,975.41,9.22,9.22,0,0,1,16.56,978.59Z" transform="translate(-2.44 -2.43)"/><path class="cls-2" d="M12.25,963.4a2.8,2.8,0,0,1-.39,1.46,3,3,0,0,1-1,1,2.78,2.78,0,0,1-1.44.39A2.72,2.72,0,0,1,8,965.9a2.93,2.93,0,0,1-1-1,2.91,2.91,0,0,1,0-2.91,3,3,0,0,1,1-1.05,2.72,2.72,0,0,1,1.43-.39,2.78,2.78,0,0,1,1.44.39,3,3,0,0,1,1,1.05A2.79,2.79,0,0,1,12.25,963.4Z" transform="translate(-2.44 -2.43)"/><path class="cls-2" d="M16.37,955.46,2.63,953.34v-3.86l5.55.85-5.55-4.84v-4.16l5.25,4.6,8.49-3.1v4L10.57,949l2.21,2.07,3.59.54Z" transform="translate(-2.44 -2.43)"/><path class="cls-2" d="M16.37,941.17l-13.74-2.1v-6.26a5.61,5.61,0,0,1,.59-2.8,2.84,2.84,0,0,1,1.59-1.34,4.64,4.64,0,0,1,2.25-.15,5.6,5.6,0,0,1,1.8.56,4.6,4.6,0,0,1,1.27,1,6.55,6.55,0,0,1,.92,1.27l5.32-1.61v3.79l-4.73,1.28v2l4.73.72ZM8.88,936.3v-2.12a1.59,1.59,0,0,0-.26-.89A2.44,2.44,0,0,0,8,932.6a2.06,2.06,0,0,0-.85-.34,1.41,1.41,0,0,0-1.22.32,1.34,1.34,0,0,0-.51,1.06v2.13Z" transform="translate(-2.44 -2.43)"/><path class="cls-2" d="M16.56,921.69a6.55,6.55,0,0,1-.74,3.42,3.43,3.43,0,0,1-2.06,1.54,7.56,7.56,0,0,1-3.07.1l-8.06-1.23v-3.77L10.84,923a3.06,3.06,0,0,0,1.52-.08,1.57,1.57,0,0,0,.84-.68,2.15,2.15,0,0,0,.26-1,2.54,2.54,0,0,0-.6-1.61,3,3,0,0,0-2-1l-8.21-1.24v-3.76l8.06,1.22a8.77,8.77,0,0,1,3.07,1,5.35,5.35,0,0,1,2.06,2.18A7.89,7.89,0,0,1,16.56,921.69Z" transform="translate(-2.44 -2.43)"/><path class="cls-2" d="M16.56,907.56a9.32,9.32,0,0,1-.25,2.12,5.61,5.61,0,0,1-.79,1.83,3.45,3.45,0,0,1-3.33,1.62v-3.86A1.4,1.4,0,0,0,13,909a1.58,1.58,0,0,0,.53-.72,2.78,2.78,0,0,0,.19-1.1,5.13,5.13,0,0,0-.12-1.12,2.28,2.28,0,0,0-.38-.91,1.12,1.12,0,0,0-.76-.44.6.6,0,0,0-.64.23,2.17,2.17,0,0,0-.35.81,10.83,10.83,0,0,0-.22,1.08l-.36,2.09a3.74,3.74,0,0,1-1.28,2.42,3.53,3.53,0,0,1-2.77.6,4.27,4.27,0,0,1-2.37-1.14A5.94,5.94,0,0,1,3,908.45a8.37,8.37,0,0,1-.52-3,6.38,6.38,0,0,1,.61-2.91,4.64,4.64,0,0,1,1.6-1.85,3.55,3.55,0,0,1,2.12-.6v3.77a1.36,1.36,0,0,0-.86.19,1.19,1.19,0,0,0-.47.65,3.48,3.48,0,0,0-.15,1.1A3.38,3.38,0,0,0,5.48,907a1.62,1.62,0,0,0,.41.65,1.2,1.2,0,0,0,.5.24.84.84,0,0,0,.75-.2,2.13,2.13,0,0,0,.45-1.13L8,904.46a5.86,5.86,0,0,1,.79-2.25A3,3,0,0,1,10,901.14a3.44,3.44,0,0,1,1.34-.31,6.94,6.94,0,0,1,1.17.07,3.66,3.66,0,0,1,2.1,1.1A6.49,6.49,0,0,1,16,904.38,9.26,9.26,0,0,1,16.56,907.56Z" transform="translate(-2.44 -2.43)"/><path class="cls-2" d="M16.37,896.64,5.88,895.05v3.89l-3.25-.49V886.88l3.25.5v4l10.49,1.61Z" transform="translate(-2.44 -2.43)"/><path class="cls-2" d="M16.56,881.14a6.25,6.25,0,0,1-.87,3.42,4.7,4.7,0,0,1-2.45,2,7.48,7.48,0,0,1-3.71.25,9,9,0,0,1-3.74-1.42A7.46,7.46,0,0,1,2.44,879a6,6,0,0,1,.88-3.36,4.92,4.92,0,0,1,2.47-2,7.48,7.48,0,0,1,3.74-.26,9,9,0,0,1,3.71,1.39,7.46,7.46,0,0,1,2.45,2.7A7.6,7.6,0,0,1,16.56,881.14Zm-3-.44a2.7,2.7,0,0,0-.38-1.42A3.19,3.19,0,0,0,12,878.15a7.37,7.37,0,0,0-2.36-.69,6.59,6.59,0,0,0-2.45-.05,2.23,2.23,0,0,0-1.33.73,2.09,2.09,0,0,0-.4,1.29,2.75,2.75,0,0,0,.94,2,6,6,0,0,0,3.24,1.26,6.39,6.39,0,0,0,2.36,0,2.08,2.08,0,0,0,1.26-.75A2.14,2.14,0,0,0,13.59,880.7Z" transform="translate(-2.44 -2.43)"/><path class="cls-2" d="M16.56,870.79c0,.39,0,.83,0,1.32a9.72,9.72,0,0,1-.14,1.15l-3.33-.5c0-.17,0-.36.07-.58s0-.43,0-.62a1.7,1.7,0,0,0-.5-1.4,3.26,3.26,0,0,0-1.57-.56l-8.44-1.31v-3.7L12,866a8.92,8.92,0,0,1,2.52.71,3.18,3.18,0,0,1,1.51,1.43A5.62,5.62,0,0,1,16.56,870.79Z" transform="translate(-2.44 -2.43)"/><path class="cls-2" d="M16.56,858.33a6.58,6.58,0,0,1-.74,3.42,3.43,3.43,0,0,1-2.06,1.54,7.4,7.4,0,0,1-3.07.09l-8.06-1.22v-3.77l8.21,1.26a3.08,3.08,0,0,0,1.52-.07,1.57,1.57,0,0,0,.84-.68,2.15,2.15,0,0,0,.26-1,2.54,2.54,0,0,0-.6-1.61,3,3,0,0,0-2-1L2.63,854v-3.76l8.06,1.22a8.77,8.77,0,0,1,3.07,1,5.35,5.35,0,0,1,2.06,2.18A7.83,7.83,0,0,1,16.56,858.33Z" transform="translate(-2.44 -2.43)"/><path class="cls-2" d="M16.37,849.89l-13.74-2.1v-5.51l8.38-.95L2.63,837.8v-5.48l13.74,2.08v3.72l-10-1.51,10,4.2v2.67l-10,1.17,10,1.53Z" transform="translate(-2.44 -2.43)"/><path class="cls-2" d="M16.56,826a9.3,9.3,0,0,1-.25,2.11,5.76,5.76,0,0,1-.79,1.84,3.71,3.71,0,0,1-1.36,1.25,3.48,3.48,0,0,1-2,.36v-3.86a1.4,1.4,0,0,0,.82-.29,1.61,1.61,0,0,0,.53-.71,2.87,2.87,0,0,0,.19-1.11,5.13,5.13,0,0,0-.12-1.12,2.28,2.28,0,0,0-.38-.91,1.12,1.12,0,0,0-.76-.44.6.6,0,0,0-.64.23,2.17,2.17,0,0,0-.35.81,10.49,10.49,0,0,0-.22,1.09l-.36,2.08a3.74,3.74,0,0,1-1.28,2.42,3.53,3.53,0,0,1-2.77.6,4.14,4.14,0,0,1-2.37-1.14A5.94,5.94,0,0,1,3,826.9a8.37,8.37,0,0,1-.52-3A6.38,6.38,0,0,1,3.07,821a4.78,4.78,0,0,1,1.6-1.85,3.55,3.55,0,0,1,2.12-.6v3.77a1.43,1.43,0,0,0-.86.19,1.18,1.18,0,0,0-.47.66,4,4,0,0,0,0,2.25,1.62,1.62,0,0,0,.41.65,1,1,0,0,0,.5.24.86.86,0,0,0,.75-.19A2.21,2.21,0,0,0,7.59,825L8,822.91a5.86,5.86,0,0,1,.79-2.25A3,3,0,0,1,10,819.59a3.44,3.44,0,0,1,1.34-.31,8.17,8.17,0,0,1,1.17.07,3.66,3.66,0,0,1,2.1,1.1A6.57,6.57,0,0,1,16,822.83,9.32,9.32,0,0,1,16.56,826Z" transform="translate(-2.44 -2.43)"/><path class="cls-2" d="M12.25,810.81a2.83,2.83,0,0,1-.39,1.46,3,3,0,0,1-1,1,2.78,2.78,0,0,1-1.44.39A2.72,2.72,0,0,1,8,813.31a3,3,0,0,1-1-1,2.83,2.83,0,0,1-.39-1.46,2.79,2.79,0,0,1,.39-1.45,3,3,0,0,1,1-1.05,2.72,2.72,0,0,1,1.43-.39,2.78,2.78,0,0,1,1.44.39,3,3,0,0,1,1,1.05A2.79,2.79,0,0,1,12.25,810.81Z" transform="translate(-2.44 -2.43)"/><path class="cls-2" d="M16.37,802.88,2.63,800.76v-3.85l5.55.84-5.55-4.83v-4.16l5.25,4.6,8.49-3.11v4l-5.8,2.19,2.21,2.06,3.59.55Z" transform="translate(-2.44 -2.43)"/><path class="cls-2" d="M16.37,788.59l-13.74-2.1v-6.25a5.58,5.58,0,0,1,.59-2.8,2.86,2.86,0,0,1,1.59-1.35,4.64,4.64,0,0,1,2.25-.15,5.86,5.86,0,0,1,1.8.56,4.8,4.8,0,0,1,1.27,1,6.55,6.55,0,0,1,.92,1.27l5.32-1.61v3.8l-4.73,1.27v2l4.73.72Zm-7.49-4.86V781.6a1.56,1.56,0,0,0-.26-.88A2.21,2.21,0,0,0,8,780a2.08,2.08,0,0,0-.85-.35,1.41,1.41,0,0,0-1.22.32,1.35,1.35,0,0,0-.51,1.06v2.13Z" transform="translate(-2.44 -2.43)"/><path class="cls-2" d="M16.56,769.13a6.51,6.51,0,0,1-.74,3.41,3.44,3.44,0,0,1-2.06,1.55,7.75,7.75,0,0,1-3.07.09L2.63,773v-3.76l8.21,1.26a3,3,0,0,0,1.52-.08,1.49,1.49,0,0,0,.84-.68,2.08,2.08,0,0,0,.26-1,2.58,2.58,0,0,0-.6-1.62,3,3,0,0,0-2-1l-8.21-1.25v-3.76l8.06,1.23a8.57,8.57,0,0,1,3.07,1,5.29,5.29,0,0,1,2.06,2.18A7.83,7.83,0,0,1,16.56,769.13Z" transform="translate(-2.44 -2.43)"/><path class="cls-2" d="M16.56,755a9.3,9.3,0,0,1-.25,2.11,5.76,5.76,0,0,1-.79,1.84,3.63,3.63,0,0,1-1.36,1.25,3.48,3.48,0,0,1-2,.36v-3.86a1.47,1.47,0,0,0,.82-.28,1.7,1.7,0,0,0,.53-.72,2.87,2.87,0,0,0,.19-1.11,5.13,5.13,0,0,0-.12-1.12,2.17,2.17,0,0,0-.38-.9,1.09,1.09,0,0,0-.76-.45.6.6,0,0,0-.64.23,2.33,2.33,0,0,0-.35.81,10.49,10.49,0,0,0-.22,1.09l-.36,2.08a3.74,3.74,0,0,1-1.28,2.42,3.53,3.53,0,0,1-2.77.6,4.14,4.14,0,0,1-2.37-1.14A5.94,5.94,0,0,1,3,755.87a8.36,8.36,0,0,1-.52-3A6.32,6.32,0,0,1,3.07,750a4.74,4.74,0,0,1,1.6-1.86,3.55,3.55,0,0,1,2.12-.6v3.77a1.43,1.43,0,0,0-.86.19,1.18,1.18,0,0,0-.47.66,3.41,3.41,0,0,0-.15,1.09,3.34,3.34,0,0,0,.17,1.16,1.55,1.55,0,0,0,.41.65,1,1,0,0,0,.5.24.86.86,0,0,0,.75-.19A2.21,2.21,0,0,0,7.59,754L8,751.88a5.75,5.75,0,0,1,.79-2.24A3,3,0,0,1,10,748.56a3.44,3.44,0,0,1,1.34-.31,8.17,8.17,0,0,1,1.17.07,3.72,3.72,0,0,1,2.1,1.1A6.57,6.57,0,0,1,16,751.8,9.32,9.32,0,0,1,16.56,755Z" transform="translate(-2.44 -2.43)"/><path class="cls-2" d="M16.37,744.07,5.88,742.48v3.89l-3.25-.5V734.3l3.25.5v4l10.49,1.62Z" transform="translate(-2.44 -2.43)"/><path class="cls-2" d="M16.56,728.56a6.27,6.27,0,0,1-.87,3.42,4.75,4.75,0,0,1-2.45,1.95,7.59,7.59,0,0,1-3.71.25,9.15,9.15,0,0,1-3.74-1.42,7.5,7.5,0,0,1-3.35-6.36A6.06,6.06,0,0,1,3.32,723a4.85,4.85,0,0,1,2.47-1.95,7.48,7.48,0,0,1,3.74-.26,8.9,8.9,0,0,1,3.71,1.39,7.51,7.51,0,0,1,2.45,2.69A7.67,7.67,0,0,1,16.56,728.56Zm-3-.44a2.68,2.68,0,0,0-.38-1.42A3.19,3.19,0,0,0,12,725.57a7.35,7.35,0,0,0-2.36-.7,6.77,6.77,0,0,0-2.45,0,2.18,2.18,0,0,0-1.33.73,2,2,0,0,0-.4,1.29,2.75,2.75,0,0,0,.94,2,6,6,0,0,0,3.24,1.26,6.39,6.39,0,0,0,2.36,0,2.08,2.08,0,0,0,1.26-.75A2.14,2.14,0,0,0,13.59,728.12Z" transform="translate(-2.44 -2.43)"/><path class="cls-2" d="M16.56,718.22c0,.39,0,.83,0,1.32a9.72,9.72,0,0,1-.14,1.15l-3.33-.5c0-.17,0-.36.07-.58s0-.43,0-.63a1.72,1.72,0,0,0-.5-1.4,3.37,3.37,0,0,0-1.57-.55l-8.44-1.31V712L12,713.46a8.92,8.92,0,0,1,2.52.71,3.18,3.18,0,0,1,1.51,1.43A5.62,5.62,0,0,1,16.56,718.22Z" transform="translate(-2.44 -2.43)"/><path class="cls-2" d="M16.56,705.76a6.53,6.53,0,0,1-.74,3.42,3.39,3.39,0,0,1-2.06,1.54,7.56,7.56,0,0,1-3.07.1l-8.06-1.23v-3.77l8.21,1.27a3.06,3.06,0,0,0,1.52-.08,1.53,1.53,0,0,0,.84-.68,2.15,2.15,0,0,0,.26-1.05,2.58,2.58,0,0,0-.6-1.61,3,3,0,0,0-2-1l-8.21-1.25v-3.76l8.06,1.23a8.76,8.76,0,0,1,3.07,1,5.35,5.35,0,0,1,2.06,2.18A7.89,7.89,0,0,1,16.56,705.76Z" transform="translate(-2.44 -2.43)"/><path class="cls-2" d="M16.37,697.34l-13.74-2.1v-5.52l8.38-1-8.38-3.53v-5.47l13.74,2.08v3.72l-10-1.52,10,4.21v2.67l-10,1.17,10,1.53Z" transform="translate(-2.44 -2.43)"/><path class="cls-2" d="M16.56,673.43a9.3,9.3,0,0,1-.25,2.11,5.76,5.76,0,0,1-.79,1.84,3.71,3.71,0,0,1-1.36,1.25,3.48,3.48,0,0,1-2,.36v-3.86a1.4,1.4,0,0,0,.82-.29,1.61,1.61,0,0,0,.53-.71,2.87,2.87,0,0,0,.19-1.11,5.13,5.13,0,0,0-.12-1.12,2.28,2.28,0,0,0-.38-.91,1.12,1.12,0,0,0-.76-.44.6.6,0,0,0-.64.23,2.17,2.17,0,0,0-.35.81,10.49,10.49,0,0,0-.22,1.09l-.36,2.08a3.74,3.74,0,0,1-1.28,2.42,3.53,3.53,0,0,1-2.77.6,4.14,4.14,0,0,1-2.37-1.14A5.94,5.94,0,0,1,3,674.31a8.37,8.37,0,0,1-.52-3,6.38,6.38,0,0,1,.61-2.91,4.78,4.78,0,0,1,1.6-1.85,3.55,3.55,0,0,1,2.12-.6v3.77a1.43,1.43,0,0,0-.86.19,1.18,1.18,0,0,0-.47.66,3.41,3.41,0,0,0-.15,1.09,3.34,3.34,0,0,0,.17,1.16,1.62,1.62,0,0,0,.41.65,1,1,0,0,0,.5.24.86.86,0,0,0,.75-.19,2.21,2.21,0,0,0,.45-1.14L8,670.32a5.86,5.86,0,0,1,.79-2.25A3,3,0,0,1,10,667a3.44,3.44,0,0,1,1.34-.31,8.17,8.17,0,0,1,1.17.07,3.72,3.72,0,0,1,2.1,1.1A6.57,6.57,0,0,1,16,670.24,9.32,9.32,0,0,1,16.56,673.43Z" transform="translate(-2.44 -2.43)"/><path class="cls-2" d="M12.25,658.27a2.79,2.79,0,0,1-.39,1.45,3,3,0,0,1-1,1,2.87,2.87,0,0,1-1.44.38A2.81,2.81,0,0,1,8,660.77a3,3,0,0,1-1-1,2.79,2.79,0,0,1-.39-1.45,2.83,2.83,0,0,1,.39-1.46,3.13,3.13,0,0,1,1-1,2.72,2.72,0,0,1,1.43-.39,2.78,2.78,0,0,1,1.44.39,3.16,3.16,0,0,1,1,1A2.83,2.83,0,0,1,12.25,658.27Z" transform="translate(-2.44 -2.43)"/><path class="cls-2" d="M16.37,650.31,2.63,648.19v-3.85l5.55.84-5.55-4.83v-4.17l5.25,4.61,8.49-3.11v4l-5.8,2.19,2.21,2.06,3.59.55Z" transform="translate(-2.44 -2.43)"/><path class="cls-2" d="M16.37,636l-13.74-2.1v-6.26a5.63,5.63,0,0,1,.59-2.8,2.84,2.84,0,0,1,1.59-1.34,4.64,4.64,0,0,1,2.25-.15,5.6,5.6,0,0,1,1.8.56,4.6,4.6,0,0,1,1.27,1,6.55,6.55,0,0,1,.92,1.27l5.32-1.61v3.8l-4.73,1.27v2l4.73.72Zm-7.49-4.86v-2.13a1.59,1.59,0,0,0-.26-.89,2.44,2.44,0,0,0-.67-.69,2.06,2.06,0,0,0-.85-.34,1.41,1.41,0,0,0-1.22.32,1.34,1.34,0,0,0-.51,1.06v2.13Z" transform="translate(-2.44 -2.43)"/><path class="cls-2" d="M16.56,616.56a6.58,6.58,0,0,1-.74,3.42,3.43,3.43,0,0,1-2.06,1.54,7.56,7.56,0,0,1-3.07.1l-8.06-1.23v-3.77l8.21,1.26a3,3,0,0,0,1.52-.07,1.57,1.57,0,0,0,.84-.68,2.15,2.15,0,0,0,.26-1,2.54,2.54,0,0,0-.6-1.61,3,3,0,0,0-2-1l-8.21-1.24v-3.76l8.06,1.22a8.77,8.77,0,0,1,3.07,1,5.35,5.35,0,0,1,2.06,2.18A7.83,7.83,0,0,1,16.56,616.56Z" transform="translate(-2.44 -2.43)"/><path class="cls-2" d="M16.56,602.43a9.3,9.3,0,0,1-.25,2.11,5.76,5.76,0,0,1-.79,1.84,3.63,3.63,0,0,1-1.36,1.25,3.48,3.48,0,0,1-2,.36v-3.86a1.47,1.47,0,0,0,.82-.28,1.7,1.7,0,0,0,.53-.72,2.87,2.87,0,0,0,.19-1.11,5.13,5.13,0,0,0-.12-1.12,2.17,2.17,0,0,0-.38-.9,1.09,1.09,0,0,0-.76-.45.6.6,0,0,0-.64.23,2.33,2.33,0,0,0-.35.81,10.49,10.49,0,0,0-.22,1.09l-.36,2.08a3.74,3.74,0,0,1-1.28,2.42,3.53,3.53,0,0,1-2.77.6,4.14,4.14,0,0,1-2.37-1.14A5.94,5.94,0,0,1,3,603.31a8.36,8.36,0,0,1-.52-3,6.32,6.32,0,0,1,.61-2.91,4.74,4.74,0,0,1,1.6-1.86,3.55,3.55,0,0,1,2.12-.6v3.77a1.43,1.43,0,0,0-.86.19,1.18,1.18,0,0,0-.47.66,3.41,3.41,0,0,0-.15,1.09,3.34,3.34,0,0,0,.17,1.16,1.55,1.55,0,0,0,.41.65,1,1,0,0,0,.5.24.86.86,0,0,0,.75-.19,2.21,2.21,0,0,0,.45-1.14L8,599.32a5.75,5.75,0,0,1,.79-2.24A3,3,0,0,1,10,596a3.44,3.44,0,0,1,1.34-.31,8.17,8.17,0,0,1,1.17.07,3.72,3.72,0,0,1,2.1,1.1A6.57,6.57,0,0,1,16,599.24,9.32,9.32,0,0,1,16.56,602.43Z" transform="translate(-2.44 -2.43)"/><path class="cls-2" d="M16.37,591.51,5.88,589.92v3.89l-3.25-.5V581.75l3.25.49v4l10.49,1.61Z" transform="translate(-2.44 -2.43)"/><path class="cls-2" d="M16.56,576a6.31,6.31,0,0,1-.87,3.43,4.73,4.73,0,0,1-2.45,1.94,7.36,7.36,0,0,1-3.71.25,9,9,0,0,1-3.74-1.41,7.65,7.65,0,0,1-2.47-2.72,7.58,7.58,0,0,1-.88-3.65,6,6,0,0,1,.88-3.36,4.85,4.85,0,0,1,2.47-2,7.36,7.36,0,0,1,3.74-.27,9,9,0,0,1,3.71,1.39,7.46,7.46,0,0,1,2.45,2.7A7.6,7.6,0,0,1,16.56,576Zm-3-.44a2.73,2.73,0,0,0-.38-1.42A3.27,3.27,0,0,0,12,573a7.64,7.64,0,0,0-2.36-.69,6.81,6.81,0,0,0-2.45,0,2.23,2.23,0,0,0-1.33.73,2.09,2.09,0,0,0-.4,1.29,2.73,2.73,0,0,0,.94,2,6,6,0,0,0,3.24,1.26,6.39,6.39,0,0,0,2.36,0,1.93,1.93,0,0,0,1.64-2Z" transform="translate(-2.44 -2.43)"/><path class="cls-2" d="M16.56,565.64c0,.39,0,.83,0,1.32a9.72,9.72,0,0,1-.14,1.15L13,567.62c0-.18,0-.37.07-.59s0-.42,0-.62a1.71,1.71,0,0,0-.5-1.4,3.26,3.26,0,0,0-1.57-.56l-8.44-1.3v-3.71L12,560.88a9.27,9.27,0,0,1,2.52.71A3.16,3.16,0,0,1,16.05,563,5.55,5.55,0,0,1,16.56,565.64Z" transform="translate(-2.44 -2.43)"/><path class="cls-2" d="M16.56,553.22a6.51,6.51,0,0,1-.74,3.41,3.39,3.39,0,0,1-2.06,1.54,7.56,7.56,0,0,1-3.07.1L2.63,557v-3.77l8.21,1.27a3.06,3.06,0,0,0,1.52-.08,1.49,1.49,0,0,0,.84-.68,2.11,2.11,0,0,0,.26-1,2.58,2.58,0,0,0-.6-1.62,3,3,0,0,0-2-1L2.63,548.9v-3.76l8.06,1.23a8.76,8.76,0,0,1,3.07,1,5.38,5.38,0,0,1,2.06,2.19A7.83,7.83,0,0,1,16.56,553.22Z" transform="translate(-2.44 -2.43)"/><path class="cls-2" d="M16.37,544.75l-13.74-2.1v-5.52l8.38-.94-8.38-3.53v-5.48l13.74,2.08V533l-10-1.51,10,4.2v2.67l-10,1.17,10,1.53Z" transform="translate(-2.44 -2.43)"/><path class="cls-2" d="M16.56,520.87a9.23,9.23,0,0,1-.25,2.11,5.76,5.76,0,0,1-.79,1.84,3.63,3.63,0,0,1-1.36,1.25,3.48,3.48,0,0,1-2,.36v-3.85a1.47,1.47,0,0,0,.82-.29,1.58,1.58,0,0,0,.53-.72,2.85,2.85,0,0,0,.19-1.1,5.22,5.22,0,0,0-.12-1.13,2.23,2.23,0,0,0-.38-.9,1.09,1.09,0,0,0-.76-.45.61.61,0,0,0-.64.24,2.17,2.17,0,0,0-.35.81,10.83,10.83,0,0,0-.22,1.08l-.36,2.08a3.74,3.74,0,0,1-1.28,2.42,3.45,3.45,0,0,1-2.77.6,4.19,4.19,0,0,1-2.37-1.13A6,6,0,0,1,3,521.76a8.41,8.41,0,0,1-.52-3,6.38,6.38,0,0,1,.61-2.91A4.74,4.74,0,0,1,4.67,514a3.47,3.47,0,0,1,2.12-.59v3.77a1.43,1.43,0,0,0-.86.18,1.25,1.25,0,0,0-.47.66,3.41,3.41,0,0,0-.15,1.09,3.34,3.34,0,0,0,.17,1.16,1.55,1.55,0,0,0,.41.65,1.12,1.12,0,0,0,.5.25.9.9,0,0,0,.75-.2,2.21,2.21,0,0,0,.45-1.14L8,517.76a5.75,5.75,0,0,1,.79-2.24A3,3,0,0,1,10,514.44a3.26,3.26,0,0,1,1.34-.3,7,7,0,0,1,1.17.06,3.73,3.73,0,0,1,2.1,1.11A6.53,6.53,0,0,1,16,517.68,9.32,9.32,0,0,1,16.56,520.87Z" transform="translate(-2.44 -2.43)"/><path class="cls-2" d="M12.25,505.7a2.79,2.79,0,0,1-.39,1.45,3,3,0,0,1-1,1.05,2.78,2.78,0,0,1-1.44.39A2.72,2.72,0,0,1,8,508.2a3,3,0,0,1-1-1.05,2.89,2.89,0,0,1,0-2.9,3,3,0,0,1,1-1.05,2.64,2.64,0,0,1,1.43-.4,2.7,2.7,0,0,1,1.44.4,3,3,0,0,1,1,1.05A2.76,2.76,0,0,1,12.25,505.7Z" transform="translate(-2.44 -2.43)"/><path class="cls-2" d="M16.37,497.75,2.63,495.63v-3.86l5.55.85-5.55-4.83v-4.17l5.25,4.61,8.49-3.11v4l-5.8,2.19,2.21,2.06,3.59.54Z" transform="translate(-2.44 -2.43)"/><path class="cls-2" d="M16.37,483.46l-13.74-2.1v-6.25a5.61,5.61,0,0,1,.59-2.8A2.9,2.9,0,0,1,4.81,471a4.9,4.9,0,0,1,2.25-.15,5.6,5.6,0,0,1,1.8.57,4.57,4.57,0,0,1,1.27,1,6.86,6.86,0,0,1,.92,1.27L16.37,472v3.8l-4.73,1.28V479l4.73.72ZM8.88,478.6v-2.13a1.58,1.58,0,0,0-.26-.88A2.32,2.32,0,0,0,8,474.9a2.08,2.08,0,0,0-.85-.35,1.42,1.42,0,0,0-1.22.33,1.34,1.34,0,0,0-.51,1.06v2.12Z" transform="translate(-2.44 -2.43)"/><path class="cls-2" d="M16.56,464a6.53,6.53,0,0,1-.74,3.42,3.39,3.39,0,0,1-2.06,1.54,7.56,7.56,0,0,1-3.07.1l-8.06-1.23V464l8.21,1.27a3.06,3.06,0,0,0,1.52-.08,1.53,1.53,0,0,0,.84-.68,2.12,2.12,0,0,0,.26-1.05,2.58,2.58,0,0,0-.6-1.61,3,3,0,0,0-2-1l-8.21-1.25v-3.76l8.06,1.23a8.76,8.76,0,0,1,3.07,1,5.35,5.35,0,0,1,2.06,2.18A7.89,7.89,0,0,1,16.56,464Z" transform="translate(-2.44 -2.43)"/><path class="cls-2" d="M16.56,449.84a9.23,9.23,0,0,1-.25,2.11,5.76,5.76,0,0,1-.79,1.84A3.55,3.55,0,0,1,14.16,455a3.48,3.48,0,0,1-2,.36v-3.85a1.47,1.47,0,0,0,.82-.29,1.58,1.58,0,0,0,.53-.72,2.81,2.81,0,0,0,.19-1.1,5.22,5.22,0,0,0-.12-1.13,2.23,2.23,0,0,0-.38-.9,1.09,1.09,0,0,0-.76-.45.63.63,0,0,0-.64.24,2.17,2.17,0,0,0-.35.81,10.83,10.83,0,0,0-.22,1.08l-.36,2.08a3.74,3.74,0,0,1-1.28,2.42,3.45,3.45,0,0,1-2.77.6,4.19,4.19,0,0,1-2.37-1.13A6,6,0,0,1,3,450.73a8.41,8.41,0,0,1-.52-3,6.38,6.38,0,0,1,.61-2.91A4.74,4.74,0,0,1,4.67,443a3.54,3.54,0,0,1,2.12-.59v3.77a1.43,1.43,0,0,0-.86.18,1.25,1.25,0,0,0-.47.66,3.41,3.41,0,0,0-.15,1.09,3.34,3.34,0,0,0,.17,1.16,1.55,1.55,0,0,0,.41.65,1.12,1.12,0,0,0,.5.25.87.87,0,0,0,.75-.2,2.17,2.17,0,0,0,.45-1.14L8,446.73a5.81,5.81,0,0,1,.79-2.24A3,3,0,0,1,10,443.41a3.42,3.42,0,0,1,1.34-.3,7,7,0,0,1,1.17.06,3.73,3.73,0,0,1,2.1,1.11A6.49,6.49,0,0,1,16,446.66,9.22,9.22,0,0,1,16.56,449.84Z" transform="translate(-2.44 -2.43)"/><path class="cls-2" d="M16.37,438.93,5.88,437.34v3.89l-3.25-.5V429.17l3.25.49v4l10.49,1.61Z" transform="translate(-2.44 -2.43)"/><path class="cls-2" d="M16.56,423.42a6.25,6.25,0,0,1-.87,3.42,4.7,4.7,0,0,1-2.45,2,7.48,7.48,0,0,1-3.71.25,9,9,0,0,1-3.74-1.42,7.46,7.46,0,0,1-3.35-6.36,6,6,0,0,1,.88-3.36,4.92,4.92,0,0,1,2.47-2,7.48,7.48,0,0,1,3.74-.26,9,9,0,0,1,3.71,1.39,7.46,7.46,0,0,1,2.45,2.7A7.6,7.6,0,0,1,16.56,423.42Zm-3-.44a2.7,2.7,0,0,0-.38-1.42A3.19,3.19,0,0,0,12,420.43a7.37,7.37,0,0,0-2.36-.69,6.59,6.59,0,0,0-2.45-.05,2.23,2.23,0,0,0-1.33.73,2.09,2.09,0,0,0-.4,1.29,2.75,2.75,0,0,0,.94,2A6,6,0,0,0,9.59,425,6.39,6.39,0,0,0,12,425a2.08,2.08,0,0,0,1.26-.75A2.14,2.14,0,0,0,13.59,423Z" transform="translate(-2.44 -2.43)"/><path class="cls-2" d="M16.56,413.06c0,.39,0,.83,0,1.32a9.94,9.94,0,0,1-.14,1.16L13,415c0-.17,0-.37.07-.59s0-.42,0-.62a1.72,1.72,0,0,0-.5-1.4,3.36,3.36,0,0,0-1.57-.56l-8.44-1.3v-3.7L12,408.31a8.92,8.92,0,0,1,2.52.71,3.09,3.09,0,0,1,1.51,1.43A5.6,5.6,0,0,1,16.56,413.06Z" transform="translate(-2.44 -2.43)"/><path class="cls-2" d="M16.56,400.64a6.51,6.51,0,0,1-.74,3.41,3.39,3.39,0,0,1-2.06,1.54,7.56,7.56,0,0,1-3.07.1l-8.06-1.23v-3.77L10.84,402a3,3,0,0,0,1.52-.08,1.49,1.49,0,0,0,.84-.68,2.08,2.08,0,0,0,.26-1,2.58,2.58,0,0,0-.6-1.62,3,3,0,0,0-2-1l-8.21-1.25v-3.76l8.06,1.23a8.76,8.76,0,0,1,3.07,1A5.38,5.38,0,0,1,15.82,397,7.83,7.83,0,0,1,16.56,400.64Z" transform="translate(-2.44 -2.43)"/><path class="cls-2" d="M16.37,392.18l-13.74-2.1v-5.52l8.38-.95-8.38-3.53v-5.47l13.74,2.08v3.72l-10-1.51,10,4.2v2.67l-10,1.17,10,1.53Z" transform="translate(-2.44 -2.43)"/><path class="cls-2" d="M16.56,368.3a9.32,9.32,0,0,1-.25,2.12,5.61,5.61,0,0,1-.79,1.83,3.45,3.45,0,0,1-3.33,1.62V370a1.4,1.4,0,0,0,.82-.29,1.58,1.58,0,0,0,.53-.72,2.78,2.78,0,0,0,.19-1.1,5.13,5.13,0,0,0-.12-1.12,2.28,2.28,0,0,0-.38-.91,1.12,1.12,0,0,0-.76-.44.6.6,0,0,0-.64.23,2.17,2.17,0,0,0-.35.81,10.49,10.49,0,0,0-.22,1.09l-.36,2.08a3.74,3.74,0,0,1-1.28,2.42,3.53,3.53,0,0,1-2.77.6,4.27,4.27,0,0,1-2.37-1.14A5.94,5.94,0,0,1,3,369.19a8.37,8.37,0,0,1-.52-3,6.38,6.38,0,0,1,.61-2.91,4.64,4.64,0,0,1,1.6-1.85,3.55,3.55,0,0,1,2.12-.6v3.77a1.36,1.36,0,0,0-.86.19,1.19,1.19,0,0,0-.47.65,3.48,3.48,0,0,0-.15,1.1,3.38,3.38,0,0,0,.17,1.16,1.62,1.62,0,0,0,.41.65,1.2,1.2,0,0,0,.5.24.84.84,0,0,0,.75-.2,2.13,2.13,0,0,0,.45-1.13L8,365.2A5.86,5.86,0,0,1,8.74,363,3,3,0,0,1,10,361.88a3.44,3.44,0,0,1,1.34-.31,6.94,6.94,0,0,1,1.17.07,3.66,3.66,0,0,1,2.1,1.1A6.49,6.49,0,0,1,16,365.12,9.26,9.26,0,0,1,16.56,368.3Z" transform="translate(-2.44 -2.43)"/><path class="cls-2" d="M12.25,353.11a2.79,2.79,0,0,1-.39,1.45,3,3,0,0,1-1,1.05,2.87,2.87,0,0,1-1.44.38A2.81,2.81,0,0,1,8,355.61a3,3,0,0,1-1-1.05,2.79,2.79,0,0,1-.39-1.45,2.83,2.83,0,0,1,.39-1.46,3.13,3.13,0,0,1,1-1,2.72,2.72,0,0,1,1.43-.39,2.78,2.78,0,0,1,1.44.39,3.16,3.16,0,0,1,1,1A2.83,2.83,0,0,1,12.25,353.11Z" transform="translate(-2.44 -2.43)"/><path class="cls-2" d="M16.37,345.18,2.63,343.06v-3.85l5.55.84-5.55-4.83v-4.16l5.25,4.6,8.49-3.11v4l-5.8,2.19,2.21,2.06,3.59.55Z" transform="translate(-2.44 -2.43)"/><path class="cls-2" d="M16.37,330.89l-13.74-2.1v-6.25a5.58,5.58,0,0,1,.59-2.8,2.9,2.9,0,0,1,1.59-1.35,4.64,4.64,0,0,1,2.25-.15,5.86,5.86,0,0,1,1.8.56,4.8,4.8,0,0,1,1.27,1,6.55,6.55,0,0,1,.92,1.27l5.32-1.61v3.8l-4.73,1.27v2l4.73.72ZM8.88,326V323.9a1.56,1.56,0,0,0-.26-.88,2.21,2.21,0,0,0-.67-.69A2.08,2.08,0,0,0,7.1,322a1.41,1.41,0,0,0-1.22.32,1.35,1.35,0,0,0-.51,1.06v2.13Z" transform="translate(-2.44 -2.43)"/><path class="cls-2" d="M16.56,311.41a6.51,6.51,0,0,1-.74,3.41,3.4,3.4,0,0,1-2.06,1.55,7.57,7.57,0,0,1-3.07.09l-8.06-1.23v-3.76l8.21,1.26a3.08,3.08,0,0,0,1.52-.07,1.54,1.54,0,0,0,.84-.69,2.08,2.08,0,0,0,.26-1,2.58,2.58,0,0,0-.6-1.62,3,3,0,0,0-2-1l-8.21-1.25v-3.76l8.06,1.23a8.57,8.57,0,0,1,3.07,1,5.35,5.35,0,0,1,2.06,2.18A7.83,7.83,0,0,1,16.56,311.41Z" transform="translate(-2.44 -2.43)"/><path class="cls-2" d="M16.56,297.3a9.3,9.3,0,0,1-.25,2.11,5.76,5.76,0,0,1-.79,1.84,3.71,3.71,0,0,1-1.36,1.25,3.48,3.48,0,0,1-2,.36V299a1.4,1.4,0,0,0,.82-.29,1.61,1.61,0,0,0,.53-.71,2.87,2.87,0,0,0,.19-1.11,5.13,5.13,0,0,0-.12-1.12,2.28,2.28,0,0,0-.38-.91,1.12,1.12,0,0,0-.76-.44.6.6,0,0,0-.64.23,2.17,2.17,0,0,0-.35.81,10.49,10.49,0,0,0-.22,1.09l-.36,2.08a3.74,3.74,0,0,1-1.28,2.42,3.53,3.53,0,0,1-2.77.6,4.14,4.14,0,0,1-2.37-1.14A5.94,5.94,0,0,1,3,298.18a8.36,8.36,0,0,1-.52-3,6.39,6.39,0,0,1,.61-2.92,4.78,4.78,0,0,1,1.6-1.85,3.55,3.55,0,0,1,2.12-.6v3.77a1.43,1.43,0,0,0-.86.19,1.18,1.18,0,0,0-.47.66,3.41,3.41,0,0,0-.15,1.09,3.34,3.34,0,0,0,.17,1.16,1.62,1.62,0,0,0,.41.65,1,1,0,0,0,.5.24.86.86,0,0,0,.75-.19,2.21,2.21,0,0,0,.45-1.14L8,294.19a5.86,5.86,0,0,1,.79-2.25A3,3,0,0,1,10,290.87a3.44,3.44,0,0,1,1.34-.31,8.17,8.17,0,0,1,1.17.07,3.72,3.72,0,0,1,2.1,1.1A6.57,6.57,0,0,1,16,294.11,9.32,9.32,0,0,1,16.56,297.3Z" transform="translate(-2.44 -2.43)"/><path class="cls-2" d="M16.37,286.36,5.88,284.77v3.89l-3.25-.5V276.6l3.25.5v3.95l10.49,1.61Z" transform="translate(-2.44 -2.43)"/><path class="cls-2" d="M16.56,270.86a6.27,6.27,0,0,1-.87,3.42,4.8,4.8,0,0,1-2.45,2,7.59,7.59,0,0,1-3.71.25,9.15,9.15,0,0,1-3.74-1.42,7.5,7.5,0,0,1-3.35-6.36,6.06,6.06,0,0,1,.88-3.37,4.85,4.85,0,0,1,2.47-1.95,7.48,7.48,0,0,1,3.74-.26,8.9,8.9,0,0,1,3.71,1.39,7.51,7.51,0,0,1,2.45,2.69A7.67,7.67,0,0,1,16.56,270.86Zm-3-.44a2.68,2.68,0,0,0-.38-1.42A3.19,3.19,0,0,0,12,267.87a7.35,7.35,0,0,0-2.36-.7,7,7,0,0,0-2.45-.05,2.24,2.24,0,0,0-1.33.74,2,2,0,0,0-.4,1.29,2.75,2.75,0,0,0,.94,2,6.08,6.08,0,0,0,3.24,1.26,6.39,6.39,0,0,0,2.36,0,2.08,2.08,0,0,0,1.26-.75A2.14,2.14,0,0,0,13.59,270.42Z" transform="translate(-2.44 -2.43)"/><path class="cls-2" d="M16.56,260.51c0,.39,0,.83,0,1.32a9.94,9.94,0,0,1-.14,1.16l-3.33-.5c0-.17,0-.37.07-.59s0-.42,0-.62a1.72,1.72,0,0,0-.5-1.4,3.36,3.36,0,0,0-1.57-.56L2.63,258v-3.7L12,255.76a8.92,8.92,0,0,1,2.52.71,3.14,3.14,0,0,1,1.51,1.43A5.6,5.6,0,0,1,16.56,260.51Z" transform="translate(-2.44 -2.43)"/><path class="cls-2" d="M16.56,248.07a6.51,6.51,0,0,1-.74,3.41A3.39,3.39,0,0,1,13.76,253a7.56,7.56,0,0,1-3.07.1l-8.06-1.23v-3.77l8.21,1.27a3.06,3.06,0,0,0,1.52-.08,1.49,1.49,0,0,0,.84-.68,2.11,2.11,0,0,0,.26-1,2.58,2.58,0,0,0-.6-1.62,3,3,0,0,0-2-1l-8.21-1.25V240l8.06,1.23a8.76,8.76,0,0,1,3.07,1,5.38,5.38,0,0,1,2.06,2.19A7.83,7.83,0,0,1,16.56,248.07Z" transform="translate(-2.44 -2.43)"/><path class="cls-2" d="M16.37,239.62l-13.74-2.1V232l8.38-.95-8.38-3.53v-5.47l13.74,2.08v3.72l-10-1.51,10,4.2v2.67l-10,1.17,10,1.53Z" transform="translate(-2.44 -2.43)"/><path class="cls-2" d="M16.56,215.73a9.3,9.3,0,0,1-.25,2.11,5.76,5.76,0,0,1-.79,1.84,3.71,3.71,0,0,1-1.36,1.25,3.48,3.48,0,0,1-2,.36v-3.86a1.4,1.4,0,0,0,.82-.29,1.61,1.61,0,0,0,.53-.71,2.87,2.87,0,0,0,.19-1.11,5.13,5.13,0,0,0-.12-1.12,2.28,2.28,0,0,0-.38-.91,1.12,1.12,0,0,0-.76-.44.6.6,0,0,0-.64.23,2.17,2.17,0,0,0-.35.81,10.49,10.49,0,0,0-.22,1.09l-.36,2.08a3.74,3.74,0,0,1-1.28,2.42,3.53,3.53,0,0,1-2.77.6,4.14,4.14,0,0,1-2.37-1.14A5.94,5.94,0,0,1,3,216.61a8.37,8.37,0,0,1-.52-3,6.38,6.38,0,0,1,.61-2.91,4.78,4.78,0,0,1,1.6-1.85,3.55,3.55,0,0,1,2.12-.6V212a1.43,1.43,0,0,0-.86.19,1.18,1.18,0,0,0-.47.66,4,4,0,0,0,0,2.25,1.62,1.62,0,0,0,.41.65,1,1,0,0,0,.5.24.86.86,0,0,0,.75-.19,2.21,2.21,0,0,0,.45-1.14L8,212.62a5.86,5.86,0,0,1,.79-2.25A3,3,0,0,1,10,209.3,3.44,3.44,0,0,1,11.3,209a8.17,8.17,0,0,1,1.17.07,3.66,3.66,0,0,1,2.1,1.1A6.57,6.57,0,0,1,16,212.54,9.32,9.32,0,0,1,16.56,215.73Z" transform="translate(-2.44 -2.43)"/><path class="cls-2" d="M12.25,200.55a2.83,2.83,0,0,1-.39,1.46,3,3,0,0,1-1,1,2.78,2.78,0,0,1-1.44.39A2.72,2.72,0,0,1,8,203.05a2.93,2.93,0,0,1-1-1,2.83,2.83,0,0,1-.39-1.46,2.79,2.79,0,0,1,.39-1.45,3,3,0,0,1,1-1,2.72,2.72,0,0,1,1.43-.39,2.78,2.78,0,0,1,1.44.39,3,3,0,0,1,1,1A2.79,2.79,0,0,1,12.25,200.55Z" transform="translate(-2.44 -2.43)"/><path class="cls-2" d="M16.37,192.61,2.63,190.49v-3.85l5.55.84-5.55-4.83v-4.16l5.25,4.6L16.37,180v4l-5.8,2.19,2.21,2.06,3.59.55Z" transform="translate(-2.44 -2.43)"/><path class="cls-2" d="M16.37,178.31l-13.74-2.1V170a5.65,5.65,0,0,1,.59-2.81,2.84,2.84,0,0,1,1.59-1.34,4.64,4.64,0,0,1,2.25-.15,5.6,5.6,0,0,1,1.8.56,4.8,4.8,0,0,1,1.27,1,6.55,6.55,0,0,1,.92,1.27l5.32-1.61v3.8l-4.73,1.27v2l4.73.72Zm-7.49-4.86v-2.13a1.54,1.54,0,0,0-.26-.88,2.35,2.35,0,0,0-.67-.7,2.06,2.06,0,0,0-.85-.34,1.41,1.41,0,0,0-1.22.32,1.34,1.34,0,0,0-.51,1.06v2.13Z" transform="translate(-2.44 -2.43)"/><path class="cls-2" d="M16.56,158.85a6.58,6.58,0,0,1-.74,3.42,3.43,3.43,0,0,1-2.06,1.54,7.4,7.4,0,0,1-3.07.09l-8.06-1.22v-3.77l8.21,1.26a3.08,3.08,0,0,0,1.52-.07,1.57,1.57,0,0,0,.84-.68,2.15,2.15,0,0,0,.26-1,2.54,2.54,0,0,0-.6-1.61,3,3,0,0,0-2-1l-8.21-1.24v-3.76L10.69,152a8.77,8.77,0,0,1,3.07,1,5.35,5.35,0,0,1,2.06,2.18A7.83,7.83,0,0,1,16.56,158.85Z" transform="translate(-2.44 -2.43)"/><path class="cls-2" d="M16.56,144.7a9.32,9.32,0,0,1-.25,2.12,5.76,5.76,0,0,1-.79,1.84,3.71,3.71,0,0,1-1.36,1.25,3.65,3.65,0,0,1-2,.36v-3.86a1.4,1.4,0,0,0,.82-.29,1.58,1.58,0,0,0,.53-.72,2.78,2.78,0,0,0,.19-1.1,5.13,5.13,0,0,0-.12-1.12,2.28,2.28,0,0,0-.38-.91,1.12,1.12,0,0,0-.76-.44.6.6,0,0,0-.64.23,2.17,2.17,0,0,0-.35.81,10.49,10.49,0,0,0-.22,1.09L10.9,146a3.74,3.74,0,0,1-1.28,2.42,3.53,3.53,0,0,1-2.77.6,4.27,4.27,0,0,1-2.37-1.14A5.94,5.94,0,0,1,3,145.59a8.37,8.37,0,0,1-.52-3,6.38,6.38,0,0,1,.61-2.91,4.64,4.64,0,0,1,1.6-1.85,3.55,3.55,0,0,1,2.12-.6V141a1.36,1.36,0,0,0-.86.19,1.18,1.18,0,0,0-.47.66,4,4,0,0,0,0,2.25,1.62,1.62,0,0,0,.41.65,1.09,1.09,0,0,0,.5.24.84.84,0,0,0,.75-.2,2.13,2.13,0,0,0,.45-1.13L8,141.6a5.86,5.86,0,0,1,.79-2.25A3,3,0,0,1,10,138.28,3.44,3.44,0,0,1,11.3,138a6.94,6.94,0,0,1,1.17.07,3.66,3.66,0,0,1,2.1,1.1A6.49,6.49,0,0,1,16,141.52,9.31,9.31,0,0,1,16.56,144.7Z" transform="translate(-2.44 -2.43)"/><path class="cls-2" d="M16.37,133.78,5.88,132.19v3.89l-3.25-.5V124l3.25.5v4l10.49,1.61Z" transform="translate(-2.44 -2.43)"/><path class="cls-2" d="M16.56,118.29a6.27,6.27,0,0,1-.87,3.42,4.8,4.8,0,0,1-2.45,2,7.59,7.59,0,0,1-3.71.25,9.15,9.15,0,0,1-3.74-1.42,7.5,7.5,0,0,1-3.35-6.36,6.06,6.06,0,0,1,.88-3.37,4.85,4.85,0,0,1,2.47-2,7.48,7.48,0,0,1,3.74-.26,8.9,8.9,0,0,1,3.71,1.39,7.51,7.51,0,0,1,2.45,2.69A7.67,7.67,0,0,1,16.56,118.29Zm-3-.44a2.68,2.68,0,0,0-.38-1.42A3.19,3.19,0,0,0,12,115.3a7.35,7.35,0,0,0-2.36-.7,6.77,6.77,0,0,0-2.45,0,2.18,2.18,0,0,0-1.33.73,2,2,0,0,0-.4,1.29,2.75,2.75,0,0,0,.94,2,6.08,6.08,0,0,0,3.24,1.26,6.39,6.39,0,0,0,2.36,0,2.08,2.08,0,0,0,1.26-.75A2.14,2.14,0,0,0,13.59,117.85Z" transform="translate(-2.44 -2.43)"/><path class="cls-2" d="M16.56,107.91c0,.39,0,.83,0,1.32a9.94,9.94,0,0,1-.14,1.16l-3.33-.5c0-.17,0-.37.07-.58s0-.43,0-.63a1.72,1.72,0,0,0-.5-1.4,3.26,3.26,0,0,0-1.57-.55l-8.44-1.31v-3.7L12,103.16a8.92,8.92,0,0,1,2.52.71,3.18,3.18,0,0,1,1.51,1.43A5.6,5.6,0,0,1,16.56,107.91Z" transform="translate(-2.44 -2.43)"/><path class="cls-2" d="M16.56,95.5a6.58,6.58,0,0,1-.74,3.42,3.43,3.43,0,0,1-2.06,1.54,7.4,7.4,0,0,1-3.07.09L2.63,99.33V95.56l8.21,1.26a3.08,3.08,0,0,0,1.52-.07,1.57,1.57,0,0,0,.84-.68,2.15,2.15,0,0,0,.26-1,2.54,2.54,0,0,0-.6-1.61,3,3,0,0,0-2-1L2.63,91.19V87.43l8.06,1.22a8.77,8.77,0,0,1,3.07,1,5.35,5.35,0,0,1,2.06,2.18A7.83,7.83,0,0,1,16.56,95.5Z" transform="translate(-2.44 -2.43)"/><path class="cls-2" d="M16.37,87,2.63,84.93V79.41l8.38-1L2.63,74.94V69.46l13.74,2.08v3.72l-10-1.51,10,4.2v2.67l-10,1.17,10,1.53Z" transform="translate(-2.44 -2.43)"/><path class="cls-2" d="M17.06,63.87a9.05,9.05,0,0,1-.49,2.07,6,6,0,0,1-1,1.73,3.66,3.66,0,0,1-1.5,1.09,3.49,3.49,0,0,1-2,.13l.44-3.83a1.44,1.44,0,0,0,.86-.19,1.65,1.65,0,0,0,.6-.65,2.93,2.93,0,0,0,.31-1.08,5.36,5.36,0,0,0,0-1.13,2.41,2.41,0,0,0-.28-.94,1.09,1.09,0,0,0-.7-.53.63.63,0,0,0-.67.16,2.27,2.27,0,0,0-.44.76c-.12.33-.23.68-.34,1.06l-.6,2A3.73,3.73,0,0,1,9.73,66.8a3.53,3.53,0,0,1-2.82.28,4.27,4.27,0,0,1-2.22-1.4,6.06,6.06,0,0,1-1.22-2.49,8.43,8.43,0,0,1-.18-3,6.41,6.41,0,0,1,1-2.82A4.65,4.65,0,0,1,6,55.69a3.58,3.58,0,0,1,2.17-.35l-.43,3.75a1.43,1.43,0,0,0-.87.08,1.2,1.2,0,0,0-.55.6,3.55,3.55,0,0,0-.27,1.07,3.15,3.15,0,0,0,0,1.17,1.48,1.48,0,0,0,.34.7,1,1,0,0,0,.47.29.82.82,0,0,0,.76-.1,2.27,2.27,0,0,0,.58-1.08l.6-2a5.84,5.84,0,0,1,1-2.14,3,3,0,0,1,1.33-.92,3.23,3.23,0,0,1,1.36-.15,6.91,6.91,0,0,1,1.17.2,3.66,3.66,0,0,1,2,1.33,6.66,6.66,0,0,1,1.18,2.53A9.31,9.31,0,0,1,17.06,63.87Z" transform="translate(-2.44 -2.43)"/><path class="cls-2" d="M15.65,48.74A2.85,2.85,0,0,1,14.87,50a2.93,2.93,0,0,1-1.29.71,2.79,2.79,0,0,1-1.49,0A2.73,2.73,0,0,1,10.83,50a2.91,2.91,0,0,1-.7-1.29,2.94,2.94,0,0,1,.8-2.8,3.23,3.23,0,0,1,1.29-.72,2.8,2.8,0,0,1,2.75.8,2.91,2.91,0,0,1,.71,1.3A2.74,2.74,0,0,1,15.65,48.74Z" transform="translate(-2.44 -2.43)"/><path class="cls-2" d="M21.53,43.27,10.3,35.07l1.77-3.42L16.61,35l-2.7-6.85,1.91-3.69,2.54,6.5,9,1.14-1.82,3.53-6.15-.73,1,2.85,2.94,2.14Z" transform="translate(-2.44 -2.43)"/><path class="cls-2" d="M27.46,31.69l-9-10.61,4.1-4.71a5.55,5.55,0,0,1,2.29-1.73,2.86,2.86,0,0,1,2.08,0A4.78,4.78,0,0,1,28.76,16a5.81,5.81,0,0,1,1,1.6,5,5,0,0,1,.33,1.57,6.88,6.88,0,0,1-.15,1.56L35,23.05,32.5,25.91l-4.41-2.14-1.28,1.47,3.09,3.65ZM25,23.1l1.4-1.6a1.58,1.58,0,0,0,.38-.84,2.23,2.23,0,0,0-.05-1,2,2,0,0,0-.41-.82,1.44,1.44,0,0,0-1.14-.56,1.36,1.36,0,0,0-1.08.47l-1.39,1.6Z" transform="translate(-2.44 -2.43)"/><path class="cls-2" d="M40.24,19.83a6.5,6.5,0,0,1-3.35,1,3.41,3.41,0,0,1-2.35-1.06A7.5,7.5,0,0,1,33,17.16L30.13,9.52l3.29-1.83,2.88,7.79a3.11,3.11,0,0,0,.81,1.29,1.52,1.52,0,0,0,1,.4,2,2,0,0,0,1-.28,2.54,2.54,0,0,0,1.12-1.3,3,3,0,0,0-.13-2.25l-2.9-7.78,3.29-1.82,2.84,7.64A8.61,8.61,0,0,1,44,14.56a5.26,5.26,0,0,1-.91,2.86A7.69,7.69,0,0,1,40.24,19.83Z" transform="translate(-2.44 -2.43)"/><path class="cls-2" d="M51,16.57a8.82,8.82,0,0,1-2.12-.2A5.89,5.89,0,0,1,47,15.63a3.87,3.87,0,0,1-1.28-1.33,3.55,3.55,0,0,1-.4-2l3.85-.09a1.49,1.49,0,0,0,.31.82,1.56,1.56,0,0,0,.73.51,2.89,2.89,0,0,0,1.11.16,5.12,5.12,0,0,0,1.12-.14,2.35,2.35,0,0,0,.89-.4,1.11,1.11,0,0,0,.43-.77.61.61,0,0,0-.25-.64,2.07,2.07,0,0,0-.82-.33c-.34-.08-.7-.14-1.09-.2l-2.08-.31A3.72,3.72,0,0,1,47,9.72,3.54,3.54,0,0,1,46.37,7a4.34,4.34,0,0,1,1.08-2.39A6.17,6.17,0,0,1,49.75,3a8.52,8.52,0,0,1,3-.58A6.35,6.35,0,0,1,55.64,3a4.6,4.6,0,0,1,1.89,1.56,3.52,3.52,0,0,1,.64,2.11l-3.76.08a1.38,1.38,0,0,0-.21-.85,1.18,1.18,0,0,0-.67-.46,3.56,3.56,0,0,0-1.1-.12,3.28,3.28,0,0,0-1.15.19,1.53,1.53,0,0,0-.64.43,1.06,1.06,0,0,0-.23.51.84.84,0,0,0,.21.74,2.08,2.08,0,0,0,1.15.42l2.09.31a5.69,5.69,0,0,1,2.26.75,3,3,0,0,1,1.1,1.18,3.49,3.49,0,0,1,.34,1.33,8.62,8.62,0,0,1,0,1.18,3.65,3.65,0,0,1-1.06,2.12A6.46,6.46,0,0,1,54.12,16,9.41,9.41,0,0,1,51,16.57Z" transform="translate(-2.44 -2.43)"/><path class="cls-2" d="M61.78,16.37l1.6-10.49h-3.9L60,2.63H71.55l-.5,3.25h-4L65.49,16.37Z" transform="translate(-2.44 -2.43)"/><path class="cls-2" d="M77.31,16.56a6.25,6.25,0,0,1-3.42-.87,4.7,4.7,0,0,1-2-2.45,7.36,7.36,0,0,1-.25-3.71A9,9,0,0,1,73.1,5.79a7.65,7.65,0,0,1,2.72-2.47,7.58,7.58,0,0,1,3.65-.88,6,6,0,0,1,3.36.88,4.85,4.85,0,0,1,2,2.47,7.36,7.36,0,0,1,.27,3.74,9,9,0,0,1-1.39,3.71A7.46,7.46,0,0,1,81,15.69,7.6,7.6,0,0,1,77.31,16.56Zm.44-3a2.73,2.73,0,0,0,1.42-.38A3.27,3.27,0,0,0,80.3,12,7.64,7.64,0,0,0,81,9.59,6.81,6.81,0,0,0,81,7.14a2.23,2.23,0,0,0-.73-1.33A2.09,2.09,0,0,0,79,5.41a2.75,2.75,0,0,0-2,.94,6,6,0,0,0-1.26,3.24,6.39,6.39,0,0,0,0,2.36,2.08,2.08,0,0,0,.75,1.26A2.12,2.12,0,0,0,77.75,13.59Z" transform="translate(-2.44 -2.43)"/><path class="cls-2" d="M87.66,16.56c-.39,0-.83,0-1.32,0a10.23,10.23,0,0,1-1.16-.14l.5-3.33.59.07.62,0a1.71,1.71,0,0,0,1.4-.5,3.36,3.36,0,0,0,.56-1.57l1.3-8.44h3.7L92.41,12a9.29,9.29,0,0,1-.7,2.52,3.22,3.22,0,0,1-1.44,1.52A5.71,5.71,0,0,1,87.66,16.56Z" transform="translate(-2.44 -2.43)"/><path class="cls-2" d="M100.09,16.56a6.51,6.51,0,0,1-3.41-.74,3.4,3.4,0,0,1-1.55-2.06A7.57,7.57,0,0,1,95,10.69l1.22-8.06H100l-1.26,8.21a3.08,3.08,0,0,0,.07,1.52,1.54,1.54,0,0,0,.69.84,2.08,2.08,0,0,0,1,.26,2.58,2.58,0,0,0,1.62-.6,3,3,0,0,0,1-2l1.25-8.21h3.76l-1.23,8.06a8.77,8.77,0,0,1-1,3.07,5.35,5.35,0,0,1-2.18,2.06A7.83,7.83,0,0,1,100.09,16.56Z" transform="translate(-2.44 -2.43)"/><path class="cls-2" d="M108.53,16.37l2.1-13.74h5.51l1,8.38,3.53-8.38h5.48L124,16.37H120.3l1.51-10-4.2,10h-2.67l-1.17-10-1.53,10Z" transform="translate(-2.44 -2.43)"/><path class="cls-2" d="M132.43,16.56a9.32,9.32,0,0,1-2.12-.25,5.76,5.76,0,0,1-1.84-.79,3.71,3.71,0,0,1-1.25-1.36,3.63,3.63,0,0,1-.36-2h3.86A1.46,1.46,0,0,0,131,13a1.64,1.64,0,0,0,.72.52,2.78,2.78,0,0,0,1.1.19,5.13,5.13,0,0,0,1.12-.12,2.28,2.28,0,0,0,.91-.38,1.12,1.12,0,0,0,.44-.76.6.6,0,0,0-.23-.64,2.17,2.17,0,0,0-.81-.35,10.49,10.49,0,0,0-1.09-.22l-2.08-.36a3.74,3.74,0,0,1-2.42-1.28,3.52,3.52,0,0,1-.6-2.77,4.2,4.2,0,0,1,1.14-2.37A5.94,5.94,0,0,1,131.54,3a8.37,8.37,0,0,1,3-.52,6.51,6.51,0,0,1,2.91.61,4.71,4.71,0,0,1,1.85,1.6,3.55,3.55,0,0,1,.6,2.12h-3.77a1.36,1.36,0,0,0-.19-.86,1.18,1.18,0,0,0-.66-.47,4,4,0,0,0-2.25,0,1.53,1.53,0,0,0-.65.42,1,1,0,0,0-.24.49.84.84,0,0,0,.2.75,2.13,2.13,0,0,0,1.13.45l2.08.36a5.69,5.69,0,0,1,2.25.8A2.89,2.89,0,0,1,138.85,10a3.44,3.44,0,0,1,.31,1.34,8.17,8.17,0,0,1-.07,1.17,3.66,3.66,0,0,1-1.1,2.1A6.49,6.49,0,0,1,135.61,16,9.31,9.31,0,0,1,132.43,16.56Z" transform="translate(-2.44 -2.43)"/><path class="cls-2" d="M147.62,12.25a2.76,2.76,0,0,1-1.45-.39,3,3,0,0,1-1-1,2.78,2.78,0,0,1-.39-1.44A2.72,2.72,0,0,1,145.12,8a3,3,0,0,1,1-1,2.89,2.89,0,0,1,2.9,0,3,3,0,0,1,1.05,1,2.64,2.64,0,0,1,.4,1.43,2.7,2.7,0,0,1-.4,1.44,3,3,0,0,1-1.05,1A2.76,2.76,0,0,1,147.62,12.25Z" transform="translate(-2.44 -2.43)"/><path class="cls-2" d="M155.53,16.37l2.12-13.74h3.85l-.84,5.55,4.83-5.55h4.17l-4.61,5.25,3.11,8.49h-4L162,10.57l-2.06,2.21-.55,3.59Z" transform="translate(-2.44 -2.43)"/><path class="cls-2" d="M169.83,16.37l2.1-13.74h6.25a5.58,5.58,0,0,1,2.8.59,2.9,2.9,0,0,1,1.35,1.59,4.64,4.64,0,0,1,.15,2.25,5.86,5.86,0,0,1-.56,1.8,4.8,4.8,0,0,1-1,1.27,6.86,6.86,0,0,1-1.27.92l1.61,5.32h-3.8l-1.27-4.73h-2l-.72,4.73Zm4.86-7.49h2.13a1.56,1.56,0,0,0,.88-.26,2.21,2.21,0,0,0,.69-.67,2.08,2.08,0,0,0,.35-.85,1.44,1.44,0,0,0-.32-1.22,1.35,1.35,0,0,0-1.06-.51h-2.13Z" transform="translate(-2.44 -2.43)"/><path class="cls-2" d="M189.3,16.56a6.55,6.55,0,0,1-3.42-.74,3.43,3.43,0,0,1-1.54-2.06,7.56,7.56,0,0,1-.1-3.07l1.23-8.06h3.77L188,10.84a3.06,3.06,0,0,0,.08,1.52,1.53,1.53,0,0,0,.68.84,2.15,2.15,0,0,0,1.05.26,2.56,2.56,0,0,0,1.61-.6,3,3,0,0,0,1-2l1.24-8.21h3.76l-1.23,8.06a8.56,8.56,0,0,1-1,3.07,5.35,5.35,0,0,1-2.18,2.06A7.89,7.89,0,0,1,189.3,16.56Z" transform="translate(-2.44 -2.43)"/><path class="cls-2" d="M203.44,16.56a9.23,9.23,0,0,1-2.11-.25,5.76,5.76,0,0,1-1.84-.79,3.63,3.63,0,0,1-1.25-1.36,3.46,3.46,0,0,1-.36-2h3.85A1.54,1.54,0,0,0,202,13a1.64,1.64,0,0,0,.72.52,2.85,2.85,0,0,0,1.1.19,5.22,5.22,0,0,0,1.13-.12,2.23,2.23,0,0,0,.9-.38,1.09,1.09,0,0,0,.45-.76.63.63,0,0,0-.24-.64,2.17,2.17,0,0,0-.81-.35,10.83,10.83,0,0,0-1.08-.22l-2.08-.36a3.74,3.74,0,0,1-2.42-1.28,3.45,3.45,0,0,1-.6-2.77,4.19,4.19,0,0,1,1.13-2.37A6,6,0,0,1,202.55,3a8.41,8.41,0,0,1,3-.52,6.51,6.51,0,0,1,2.91.61,4.74,4.74,0,0,1,1.86,1.6,3.47,3.47,0,0,1,.59,2.12h-3.77a1.43,1.43,0,0,0-.18-.86,1.25,1.25,0,0,0-.66-.47,3.41,3.41,0,0,0-1.09-.15,3.34,3.34,0,0,0-1.16.17,1.47,1.47,0,0,0-.65.42,1,1,0,0,0-.25.49.9.9,0,0,0,.2.75,2.21,2.21,0,0,0,1.14.45l2.08.36a5.58,5.58,0,0,1,2.24.8A2.92,2.92,0,0,1,209.87,10a3.26,3.26,0,0,1,.3,1.34,7,7,0,0,1-.06,1.17,3.73,3.73,0,0,1-1.11,2.1A6.53,6.53,0,0,1,206.63,16,9.32,9.32,0,0,1,203.44,16.56Z" transform="translate(-2.44 -2.43)"/><path class="cls-2" d="M214.36,16.37,216,5.88h-3.89l.5-3.25h11.56l-.5,3.25h-4l-1.61,10.49Z" transform="translate(-2.44 -2.43)"/><path class="cls-2" d="M229.87,16.56a6.29,6.29,0,0,1-3.42-.87,4.8,4.8,0,0,1-1.95-2.45,7.59,7.59,0,0,1-.25-3.71,9.15,9.15,0,0,1,1.42-3.74A7.5,7.5,0,0,1,232,2.44a6.06,6.06,0,0,1,3.37.88,4.85,4.85,0,0,1,1.95,2.47,7.48,7.48,0,0,1,.26,3.74,8.9,8.9,0,0,1-1.39,3.71,7.43,7.43,0,0,1-2.69,2.45A7.67,7.67,0,0,1,229.87,16.56Zm.45-3a2.73,2.73,0,0,0,1.42-.38A3.18,3.18,0,0,0,232.86,12a7.35,7.35,0,0,0,.7-2.36,7,7,0,0,0,.05-2.45,2.24,2.24,0,0,0-.74-1.33,2,2,0,0,0-1.29-.4,2.75,2.75,0,0,0-2,.94,6.17,6.17,0,0,0-1.26,3.24,6.62,6.62,0,0,0,0,2.36,2.08,2.08,0,0,0,.75,1.26A2.15,2.15,0,0,0,230.32,13.59Z" transform="translate(-2.44 -2.43)"/><path class="cls-2" d="M240.23,16.56c-.39,0-.83,0-1.32,0a9.94,9.94,0,0,1-1.16-.14l.5-3.33.59.07.62,0a1.72,1.72,0,0,0,1.4-.5,3.36,3.36,0,0,0,.56-1.57l1.3-8.44h3.7L245,12a8.92,8.92,0,0,1-.71,2.52,3.2,3.2,0,0,1-1.43,1.52A5.74,5.74,0,0,1,240.23,16.56Z" transform="translate(-2.44 -2.43)"/><path class="cls-2" d="M252.65,16.56a6.58,6.58,0,0,1-3.42-.74,3.43,3.43,0,0,1-1.54-2.06,7.56,7.56,0,0,1-.1-3.07l1.23-8.06h3.77l-1.27,8.21a3.06,3.06,0,0,0,.08,1.52,1.57,1.57,0,0,0,.68.84,2.15,2.15,0,0,0,1,.26,2.54,2.54,0,0,0,1.61-.6,3,3,0,0,0,1-2L257,2.63h3.76l-1.22,8.06a8.77,8.77,0,0,1-1,3.07,5.35,5.35,0,0,1-2.18,2.06A7.83,7.83,0,0,1,252.65,16.56Z" transform="translate(-2.44 -2.43)"/><path class="cls-2" d="M261.12,16.37l2.1-13.74h5.52l.95,8.38,3.53-8.38h5.47l-2.08,13.74h-3.72l1.52-10-4.2,10h-2.68l-1.17-10-1.52,10Z" transform="translate(-2.44 -2.43)"/><path class="cls-2" d="M285,16.56a9.38,9.38,0,0,1-2.12-.25,5.7,5.7,0,0,1-1.83-.79,3.55,3.55,0,0,1-1.25-1.36,3.46,3.46,0,0,1-.36-2h3.85a1.54,1.54,0,0,0,.29.83,1.64,1.64,0,0,0,.72.52,2.78,2.78,0,0,0,1.1.19,5.13,5.13,0,0,0,1.12-.12,2.28,2.28,0,0,0,.91-.38,1.13,1.13,0,0,0,.45-.76.63.63,0,0,0-.24-.64,2.17,2.17,0,0,0-.81-.35,10.83,10.83,0,0,0-1.08-.22l-2.08-.36a3.77,3.77,0,0,1-2.43-1.28,3.52,3.52,0,0,1-.6-2.77,4.27,4.27,0,0,1,1.14-2.37A5.94,5.94,0,0,1,284.11,3a8.37,8.37,0,0,1,3-.52,6.51,6.51,0,0,1,2.91.61,4.74,4.74,0,0,1,1.86,1.6,3.61,3.61,0,0,1,.59,2.12h-3.77a1.36,1.36,0,0,0-.19-.86,1.19,1.19,0,0,0-.65-.47,3.48,3.48,0,0,0-1.1-.15,3.38,3.38,0,0,0-1.16.17,1.43,1.43,0,0,0-.64.42,1,1,0,0,0-.25.49.87.87,0,0,0,.2.75,2.13,2.13,0,0,0,1.13.45l2.09.36a5.7,5.7,0,0,1,2.24.8A2.82,2.82,0,0,1,291.42,10a3.44,3.44,0,0,1,.31,1.34,6.94,6.94,0,0,1-.07,1.17,3.66,3.66,0,0,1-1.1,2.1A6.49,6.49,0,0,1,288.18,16,9.22,9.22,0,0,1,285,16.56Z" transform="translate(-2.44 -2.43)"/><path class="cls-2" d="M300.18,12.25a2.79,2.79,0,0,1-1.45-.39,3,3,0,0,1-1.05-1,2.78,2.78,0,0,1-.39-1.44A2.72,2.72,0,0,1,297.68,8a3,3,0,0,1,1.05-1,2.89,2.89,0,0,1,2.9,0,3,3,0,0,1,1.05,1,2.64,2.64,0,0,1,.4,1.43,2.7,2.7,0,0,1-.4,1.44,3,3,0,0,1-1.05,1A2.76,2.76,0,0,1,300.18,12.25Z" transform="translate(-2.44 -2.43)"/><path class="cls-2" d="M308.11,16.37l2.12-13.74h3.86l-.84,5.55,4.83-5.55h4.16l-4.6,5.25,3.1,8.49h-4l-2.18-5.8-2.06,2.21L312,16.37Z" transform="translate(-2.44 -2.43)"/><path class="cls-2" d="M322.41,16.37l2.1-13.74h6.26a5.61,5.61,0,0,1,2.8.59,2.84,2.84,0,0,1,1.34,1.59,4.64,4.64,0,0,1,.15,2.25,5.6,5.6,0,0,1-.56,1.8,4.6,4.6,0,0,1-1,1.27,6.55,6.55,0,0,1-1.27.92l1.61,5.32h-3.79l-1.28-4.73h-2l-.72,4.73Zm4.87-7.49h2.12a1.59,1.59,0,0,0,.89-.26A2.44,2.44,0,0,0,331,8a2.06,2.06,0,0,0,.34-.85A1.41,1.41,0,0,0,331,5.88a1.34,1.34,0,0,0-1.06-.51h-2.13Z" transform="translate(-2.44 -2.43)"/><path class="cls-2" d="M341.9,16.56a6.51,6.51,0,0,1-3.41-.74,3.4,3.4,0,0,1-1.55-2.06,7.57,7.57,0,0,1-.09-3.07l1.22-8.06h3.77l-1.26,8.21a3.08,3.08,0,0,0,.07,1.52,1.54,1.54,0,0,0,.69.84,2.08,2.08,0,0,0,1,.26,2.58,2.58,0,0,0,1.62-.6,3,3,0,0,0,1-2l1.25-8.21H350l-1.23,8.06a8.77,8.77,0,0,1-1,3.07,5.35,5.35,0,0,1-2.18,2.06A7.83,7.83,0,0,1,341.9,16.56Z" transform="translate(-2.44 -2.43)"/><path class="cls-2" d="M356,16.56a9.32,9.32,0,0,1-2.12-.25,5.7,5.7,0,0,1-1.83-.79,3.65,3.65,0,0,1-1.26-1.36,3.54,3.54,0,0,1-.35-2h3.85a1.54,1.54,0,0,0,.29.83,1.64,1.64,0,0,0,.72.52,2.78,2.78,0,0,0,1.1.19,5.13,5.13,0,0,0,1.12-.12,2.28,2.28,0,0,0,.91-.38,1.12,1.12,0,0,0,.44-.76.6.6,0,0,0-.23-.64,2.17,2.17,0,0,0-.81-.35,10.83,10.83,0,0,0-1.08-.22l-2.09-.36a3.77,3.77,0,0,1-2.42-1.28,3.52,3.52,0,0,1-.6-2.77,4.27,4.27,0,0,1,1.14-2.37A5.94,5.94,0,0,1,355.14,3a8.37,8.37,0,0,1,3-.52,6.51,6.51,0,0,1,2.91.61,4.64,4.64,0,0,1,1.85,1.6,3.55,3.55,0,0,1,.6,2.12h-3.77a1.36,1.36,0,0,0-.19-.86,1.19,1.19,0,0,0-.65-.47,3.48,3.48,0,0,0-1.1-.15,3.38,3.38,0,0,0-1.16.17,1.43,1.43,0,0,0-.64.42,1,1,0,0,0-.25.49.87.87,0,0,0,.2.75,2.13,2.13,0,0,0,1.13.45l2.09.36a5.7,5.7,0,0,1,2.24.8A2.89,2.89,0,0,1,362.45,10a3.44,3.44,0,0,1,.31,1.34,6.94,6.94,0,0,1-.07,1.17,3.66,3.66,0,0,1-1.1,2.1A6.49,6.49,0,0,1,359.21,16,9.26,9.26,0,0,1,356,16.56Z" transform="translate(-2.44 -2.43)"/><path class="cls-2" d="M367,16.37l1.59-10.49h-3.89l.5-3.25h11.57l-.5,3.25h-4l-1.62,10.49Z" transform="translate(-2.44 -2.43)"/><path class="cls-2" d="M382.46,16.56a6.25,6.25,0,0,1-3.42-.87,4.7,4.7,0,0,1-2-2.45,7.36,7.36,0,0,1-.25-3.71,9,9,0,0,1,1.41-3.74A7.65,7.65,0,0,1,381,3.32a7.58,7.58,0,0,1,3.65-.88,6,6,0,0,1,3.36.88,4.85,4.85,0,0,1,1.95,2.47,7.36,7.36,0,0,1,.27,3.74,9,9,0,0,1-1.39,3.71,7.46,7.46,0,0,1-2.7,2.45A7.6,7.6,0,0,1,382.46,16.56Zm.44-3a2.73,2.73,0,0,0,1.42-.38A3.27,3.27,0,0,0,385.45,12a7.64,7.64,0,0,0,.69-2.36,6.81,6.81,0,0,0,.05-2.45,2.23,2.23,0,0,0-.73-1.33,2.09,2.09,0,0,0-1.29-.4,2.75,2.75,0,0,0-2,.94,6,6,0,0,0-1.26,3.24,6.39,6.39,0,0,0,0,2.36,2.08,2.08,0,0,0,.75,1.26A2.12,2.12,0,0,0,382.9,13.59Z" transform="translate(-2.44 -2.43)"/><path class="cls-2" d="M392.8,16.56c-.39,0-.83,0-1.32,0a9.94,9.94,0,0,1-1.16-.14l.5-3.33.58.07.63,0a1.72,1.72,0,0,0,1.4-.5,3.26,3.26,0,0,0,.55-1.57l1.31-8.44H399L397.55,12a8.92,8.92,0,0,1-.71,2.52,3.25,3.25,0,0,1-1.43,1.52A5.74,5.74,0,0,1,392.8,16.56Z" transform="translate(-2.44 -2.43)"/><path class="cls-2" d="M405.23,16.56a6.53,6.53,0,0,1-3.42-.74,3.39,3.39,0,0,1-1.54-2.06,7.56,7.56,0,0,1-.1-3.07l1.23-8.06h3.77l-1.27,8.21a3.06,3.06,0,0,0,.08,1.52,1.53,1.53,0,0,0,.68.84,2.11,2.11,0,0,0,1,.26,2.58,2.58,0,0,0,1.62-.6,3,3,0,0,0,1-2l1.25-8.21h3.76l-1.23,8.06a8.76,8.76,0,0,1-1,3.07,5.35,5.35,0,0,1-2.18,2.06A7.89,7.89,0,0,1,405.23,16.56Z" transform="translate(-2.44 -2.43)"/><path class="cls-2" d="M413.7,16.37l2.1-13.74h5.52l.95,8.38,3.53-8.38h5.47l-2.08,13.74h-3.72l1.51-10-4.2,10h-2.67l-1.17-10-1.53,10Z" transform="translate(-2.44 -2.43)"/><path class="cls-2" d="M437.56,16.56a9.3,9.3,0,0,1-2.11-.25,5.76,5.76,0,0,1-1.84-.79,3.71,3.71,0,0,1-1.25-1.36,3.46,3.46,0,0,1-.36-2h3.86a1.46,1.46,0,0,0,.29.83,1.67,1.67,0,0,0,.71.52,2.87,2.87,0,0,0,1.11.19,5.13,5.13,0,0,0,1.12-.12,2.28,2.28,0,0,0,.91-.38,1.12,1.12,0,0,0,.44-.76.6.6,0,0,0-.23-.64,2.17,2.17,0,0,0-.81-.35,10.49,10.49,0,0,0-1.09-.22l-2.08-.36a3.74,3.74,0,0,1-2.42-1.28,3.52,3.52,0,0,1-.6-2.77,4.14,4.14,0,0,1,1.14-2.37A5.94,5.94,0,0,1,436.68,3a8.37,8.37,0,0,1,3-.52,6.51,6.51,0,0,1,2.91.61,4.78,4.78,0,0,1,1.85,1.6,3.55,3.55,0,0,1,.6,2.12h-3.77a1.43,1.43,0,0,0-.19-.86,1.18,1.18,0,0,0-.66-.47,3.41,3.41,0,0,0-1.09-.15,3.34,3.34,0,0,0-1.16.17,1.53,1.53,0,0,0-.65.42.94.94,0,0,0-.24.49.86.86,0,0,0,.19.75,2.21,2.21,0,0,0,1.14.45l2.08.36a5.69,5.69,0,0,1,2.25.8A3,3,0,0,1,444,10a3.44,3.44,0,0,1,.31,1.34,8.17,8.17,0,0,1-.07,1.17,3.72,3.72,0,0,1-1.1,2.1A6.57,6.57,0,0,1,440.75,16,9.32,9.32,0,0,1,437.56,16.56Z" transform="translate(-2.44 -2.43)"/><path class="cls-2" d="M452.75,12.25a2.76,2.76,0,0,1-1.45-.39,3,3,0,0,1-1.05-1,2.78,2.78,0,0,1-.39-1.44A2.72,2.72,0,0,1,450.25,8a3,3,0,0,1,1.05-1,2.89,2.89,0,0,1,2.9,0,3,3,0,0,1,1.05,1,2.73,2.73,0,0,1,.4,1.43,2.79,2.79,0,0,1-.4,1.44,3,3,0,0,1-1.05,1A2.79,2.79,0,0,1,452.75,12.25Z" transform="translate(-2.44 -2.43)"/><path class="cls-2" d="M460.7,16.37l2.12-13.74h3.85l-.84,5.55,4.83-5.55h4.16l-4.6,5.25,3.11,8.49h-4l-2.19-5.8-2.06,2.21-.55,3.59Z" transform="translate(-2.44 -2.43)"/><path class="cls-2" d="M475,16.37l2.1-13.74h6.25a5.58,5.58,0,0,1,2.8.59,2.86,2.86,0,0,1,1.35,1.59,4.64,4.64,0,0,1,.15,2.25,5.86,5.86,0,0,1-.56,1.8,4.8,4.8,0,0,1-1,1.27,6.55,6.55,0,0,1-1.27.92l1.61,5.32h-3.8l-1.27-4.73h-2l-.72,4.73Zm4.86-7.49H482a1.54,1.54,0,0,0,.88-.26,2.21,2.21,0,0,0,.69-.67,2,2,0,0,0,.35-.85,1.41,1.41,0,0,0-.32-1.22,1.35,1.35,0,0,0-1.06-.51h-2.13Z" transform="translate(-2.44 -2.43)"/><path class="cls-2" d="M494.46,16.56a6.51,6.51,0,0,1-3.41-.74,3.4,3.4,0,0,1-1.55-2.06,7.57,7.57,0,0,1-.09-3.07l1.22-8.06h3.77l-1.26,8.21a3.08,3.08,0,0,0,.07,1.52,1.57,1.57,0,0,0,.68.84,2.15,2.15,0,0,0,1.05.26,2.58,2.58,0,0,0,1.62-.6,3,3,0,0,0,1-2l1.25-8.21h3.76l-1.23,8.06a8.77,8.77,0,0,1-1,3.07,5.35,5.35,0,0,1-2.18,2.06A7.83,7.83,0,0,1,494.46,16.56Z" transform="translate(-2.44 -2.43)"/><path class="cls-2" d="M508.58,16.56a9.38,9.38,0,0,1-2.12-.25,5.7,5.7,0,0,1-1.83-.79,3.55,3.55,0,0,1-1.25-1.36,3.46,3.46,0,0,1-.36-2h3.85a1.54,1.54,0,0,0,.29.83,1.64,1.64,0,0,0,.72.52,2.81,2.81,0,0,0,1.1.19,5.06,5.06,0,0,0,1.12-.12,2.28,2.28,0,0,0,.91-.38,1.09,1.09,0,0,0,.45-.76.63.63,0,0,0-.24-.64,2.17,2.17,0,0,0-.81-.35,10.83,10.83,0,0,0-1.08-.22l-2.08-.36a3.77,3.77,0,0,1-2.43-1.28,3.48,3.48,0,0,1-.59-2.77,4.19,4.19,0,0,1,1.13-2.37A5.94,5.94,0,0,1,507.69,3a8.37,8.37,0,0,1,3-.52,6.51,6.51,0,0,1,2.91.61,4.74,4.74,0,0,1,1.86,1.6A3.61,3.61,0,0,1,516,6.79h-3.77a1.36,1.36,0,0,0-.19-.86,1.19,1.19,0,0,0-.65-.47,3.48,3.48,0,0,0-1.1-.15,3.38,3.38,0,0,0-1.16.17,1.43,1.43,0,0,0-.64.42,1,1,0,0,0-.25.49.87.87,0,0,0,.2.75,2.13,2.13,0,0,0,1.14.45l2.08.36a5.7,5.7,0,0,1,2.24.8A2.82,2.82,0,0,1,515,10a3.27,3.27,0,0,1,.31,1.34,6,6,0,0,1-.07,1.17,3.66,3.66,0,0,1-1.1,2.1A6.49,6.49,0,0,1,511.76,16,9.22,9.22,0,0,1,508.58,16.56Z" transform="translate(-2.44 -2.43)"/><path class="cls-2" d="M519.51,16.37,521.1,5.88h-3.89l.5-3.25h11.56l-.49,3.25h-4l-1.61,10.49Z" transform="translate(-2.44 -2.43)"/><path class="cls-2" d="M535.05,16.56a6.31,6.31,0,0,1-3.43-.87,4.73,4.73,0,0,1-1.94-2.45,7.36,7.36,0,0,1-.25-3.71,9,9,0,0,1,1.41-3.74,7.65,7.65,0,0,1,2.72-2.47,7.58,7.58,0,0,1,3.65-.88,6,6,0,0,1,3.36.88,4.85,4.85,0,0,1,1.95,2.47,7.36,7.36,0,0,1,.27,3.74,9,9,0,0,1-1.39,3.71,7.46,7.46,0,0,1-2.7,2.45A7.6,7.6,0,0,1,535.05,16.56Zm.44-3a2.73,2.73,0,0,0,1.42-.38A3.27,3.27,0,0,0,538,12a7.64,7.64,0,0,0,.69-2.36,6.81,6.81,0,0,0,0-2.45,2.23,2.23,0,0,0-.73-1.33,2.09,2.09,0,0,0-1.29-.4,2.73,2.73,0,0,0-2,.94,6,6,0,0,0-1.26,3.24,6.39,6.39,0,0,0,0,2.36,1.93,1.93,0,0,0,2,1.64Z" transform="translate(-2.44 -2.43)"/><path class="cls-2" d="M545.39,16.56c-.39,0-.83,0-1.32,0a9.72,9.72,0,0,1-1.15-.14l.49-3.33.59.07.62,0a1.71,1.71,0,0,0,1.4-.5,3.26,3.26,0,0,0,.56-1.57l1.3-8.44h3.71L550.15,12a9.27,9.27,0,0,1-.71,2.52A3.22,3.22,0,0,1,548,16.06,5.68,5.68,0,0,1,545.39,16.56Z" transform="translate(-2.44 -2.43)"/><path class="cls-2" d="M557.8,16.56a6.51,6.51,0,0,1-3.41-.74,3.39,3.39,0,0,1-1.54-2.06,7.56,7.56,0,0,1-.1-3.07L554,2.63h3.77l-1.27,8.21a3.06,3.06,0,0,0,.08,1.52,1.53,1.53,0,0,0,.68.84,2.11,2.11,0,0,0,1,.26,2.58,2.58,0,0,0,1.62-.6,3,3,0,0,0,1-2l1.25-8.21h3.76l-1.23,8.06a8.76,8.76,0,0,1-1,3.07,5.35,5.35,0,0,1-2.18,2.06A7.91,7.91,0,0,1,557.8,16.56Z" transform="translate(-2.44 -2.43)"/><path class="cls-2" d="M566.28,16.37l2.1-13.74h5.51l1,8.38,3.53-8.38h5.48l-2.08,13.74H578l1.52-10-4.2,10h-2.68l-1.17-10-1.52,10Z" transform="translate(-2.44 -2.43)"/><path class="cls-2" d="M590.17,16.56a9.38,9.38,0,0,1-2.12-.25,5.7,5.7,0,0,1-1.83-.79A3.55,3.55,0,0,1,585,14.16a3.46,3.46,0,0,1-.36-2h3.85a1.54,1.54,0,0,0,.29.83,1.64,1.64,0,0,0,.72.52,2.78,2.78,0,0,0,1.1.19,5.13,5.13,0,0,0,1.12-.12,2.28,2.28,0,0,0,.91-.38,1.13,1.13,0,0,0,.45-.76.63.63,0,0,0-.24-.64,2.17,2.17,0,0,0-.81-.35,10.83,10.83,0,0,0-1.08-.22l-2.08-.36a3.77,3.77,0,0,1-2.43-1.28,3.52,3.52,0,0,1-.6-2.77A4.27,4.27,0,0,1,587,4.48,5.94,5.94,0,0,1,589.28,3a8.37,8.37,0,0,1,3-.52,6.51,6.51,0,0,1,2.91.61A4.74,4.74,0,0,1,597,4.67a3.61,3.61,0,0,1,.59,2.12h-3.77a1.36,1.36,0,0,0-.19-.86,1.19,1.19,0,0,0-.65-.47,3.48,3.48,0,0,0-1.1-.15,3.38,3.38,0,0,0-1.16.17,1.43,1.43,0,0,0-.64.42,1,1,0,0,0-.25.49.87.87,0,0,0,.2.75,2.13,2.13,0,0,0,1.13.45l2.09.36a5.7,5.7,0,0,1,2.24.8A2.82,2.82,0,0,1,596.59,10a3.44,3.44,0,0,1,.31,1.34,6.94,6.94,0,0,1-.07,1.17,3.66,3.66,0,0,1-1.1,2.1A6.49,6.49,0,0,1,593.35,16,9.22,9.22,0,0,1,590.17,16.56Z" transform="translate(-2.44 -2.43)"/><path class="cls-2" d="M605.34,12.25a2.79,2.79,0,0,1-1.45-.39,3,3,0,0,1-1-1,2.77,2.77,0,0,1-.38-1.44A2.71,2.71,0,0,1,602.84,8a3,3,0,0,1,1-1,2.79,2.79,0,0,1,1.45-.39,2.83,2.83,0,0,1,1.46.39,3.13,3.13,0,0,1,1.05,1,2.72,2.72,0,0,1,.39,1.43,2.78,2.78,0,0,1-.39,1.44,3.16,3.16,0,0,1-1.05,1A2.83,2.83,0,0,1,605.34,12.25Z" transform="translate(-2.44 -2.43)"/><path class="cls-2" d="M613.27,16.37l2.12-13.74h3.86l-.85,5.55,4.84-5.55h4.16l-4.6,5.25,3.1,8.49h-4l-2.18-5.8-2.07,2.21-.54,3.59Z" transform="translate(-2.44 -2.43)"/><path class="cls-2" d="M627.56,16.37l2.1-13.74h6.26a5.61,5.61,0,0,1,2.8.59,2.84,2.84,0,0,1,1.34,1.59,4.64,4.64,0,0,1,.15,2.25,5.6,5.6,0,0,1-.56,1.8,4.6,4.6,0,0,1-1,1.27,6.55,6.55,0,0,1-1.27.92L639,16.37h-3.79L634,11.64h-2l-.72,4.73Zm4.87-7.49h2.12a1.59,1.59,0,0,0,.89-.26,2.44,2.44,0,0,0,.69-.67,2.06,2.06,0,0,0,.34-.85,1.41,1.41,0,0,0-.32-1.22,1.34,1.34,0,0,0-1.06-.51H633Z" transform="translate(-2.44 -2.43)"/><path class="cls-2" d="M647.06,16.56a6.53,6.53,0,0,1-3.42-.74,3.39,3.39,0,0,1-1.54-2.06,7.56,7.56,0,0,1-.1-3.07l1.23-8.06H647l-1.27,8.21a3.06,3.06,0,0,0,.08,1.52,1.53,1.53,0,0,0,.68.84,2.11,2.11,0,0,0,1,.26,2.58,2.58,0,0,0,1.62-.6,3,3,0,0,0,1-2l1.25-8.21h3.76l-1.23,8.06a8.76,8.76,0,0,1-1,3.07,5.35,5.35,0,0,1-2.18,2.06A7.89,7.89,0,0,1,647.06,16.56Z" transform="translate(-2.44 -2.43)"/><path class="cls-2" d="M661.18,16.56a9.32,9.32,0,0,1-2.12-.25,5.76,5.76,0,0,1-1.84-.79A3.71,3.71,0,0,1,656,14.16a3.63,3.63,0,0,1-.36-2h3.86a1.46,1.46,0,0,0,.29.83,1.64,1.64,0,0,0,.72.52,2.78,2.78,0,0,0,1.1.19,5.13,5.13,0,0,0,1.12-.12,2.28,2.28,0,0,0,.91-.38,1.12,1.12,0,0,0,.44-.76.6.6,0,0,0-.23-.64,2.17,2.17,0,0,0-.81-.35,10.49,10.49,0,0,0-1.09-.22l-2.08-.36a3.74,3.74,0,0,1-2.42-1.28,3.52,3.52,0,0,1-.6-2.77A4.2,4.2,0,0,1,658,4.48,5.94,5.94,0,0,1,660.29,3a8.37,8.37,0,0,1,3-.52,6.51,6.51,0,0,1,2.91.61A4.71,4.71,0,0,1,668,4.67a3.55,3.55,0,0,1,.6,2.12h-3.77a1.36,1.36,0,0,0-.19-.86,1.18,1.18,0,0,0-.66-.47,4,4,0,0,0-2.25,0,1.53,1.53,0,0,0-.65.42,1,1,0,0,0-.24.49.84.84,0,0,0,.2.75,2.13,2.13,0,0,0,1.13.45l2.08.36a5.69,5.69,0,0,1,2.25.8A2.89,2.89,0,0,1,667.6,10a3.44,3.44,0,0,1,.31,1.34,8.17,8.17,0,0,1-.07,1.17,3.66,3.66,0,0,1-1.1,2.1A6.49,6.49,0,0,1,664.36,16,9.31,9.31,0,0,1,661.18,16.56Z" transform="translate(-2.44 -2.43)"/><path class="cls-2" d="M672.1,16.37l1.6-10.49h-3.9l.5-3.25h11.57l-.5,3.25h-4l-1.61,10.49Z" transform="translate(-2.44 -2.43)"/><path class="cls-2" d="M687.63,16.56a6.25,6.25,0,0,1-3.42-.87,4.7,4.7,0,0,1-2-2.45A7.36,7.36,0,0,1,682,9.53a9,9,0,0,1,1.41-3.74,7.65,7.65,0,0,1,2.72-2.47,7.58,7.58,0,0,1,3.65-.88,6,6,0,0,1,3.36.88,4.85,4.85,0,0,1,2,2.47,7.36,7.36,0,0,1,.27,3.74A9,9,0,0,1,694,13.24a7.46,7.46,0,0,1-2.7,2.45A7.6,7.6,0,0,1,687.63,16.56Zm.44-3a2.73,2.73,0,0,0,1.42-.38A3.27,3.27,0,0,0,690.62,12a7.64,7.64,0,0,0,.69-2.36,6.81,6.81,0,0,0,.05-2.45,2.23,2.23,0,0,0-.73-1.33,2.09,2.09,0,0,0-1.29-.4,2.73,2.73,0,0,0-2,.94A6,6,0,0,0,686,9.59,6.39,6.39,0,0,0,686,12a1.93,1.93,0,0,0,2,1.64Z" transform="translate(-2.44 -2.43)"/><path class="cls-2" d="M698,16.56c-.39,0-.83,0-1.32,0a10.23,10.23,0,0,1-1.16-.14L696,13l.59.07.62,0a1.71,1.71,0,0,0,1.4-.5,3.26,3.26,0,0,0,.56-1.57l1.3-8.44h3.7L702.74,12a9.27,9.27,0,0,1-.71,2.52,3.22,3.22,0,0,1-1.44,1.52A5.68,5.68,0,0,1,698,16.56Z" transform="translate(-2.44 -2.43)"/><path class="cls-2" d="M710.38,16.56a6.51,6.51,0,0,1-3.41-.74,3.44,3.44,0,0,1-1.55-2.06,7.75,7.75,0,0,1-.09-3.07l1.23-8.06h3.76l-1.26,8.21a3,3,0,0,0,.08,1.52,1.49,1.49,0,0,0,.68.84,2.08,2.08,0,0,0,1,.26,2.58,2.58,0,0,0,1.62-.6,3,3,0,0,0,1-2l1.25-8.21h3.76l-1.23,8.06a8.57,8.57,0,0,1-1,3.07A5.29,5.29,0,0,1,714,15.82,7.83,7.83,0,0,1,710.38,16.56Z" transform="translate(-2.44 -2.43)"/><path class="cls-2" d="M718.84,16.37,721,2.63h5.51l.95,8.38,3.53-8.38h5.47l-2.08,13.74h-3.72l1.52-10-4.2,10h-2.68l-1.17-10-1.52,10Z" transform="translate(-2.44 -2.43)"/><path class="cls-2" d="M742.72,16.56a9.3,9.3,0,0,1-2.11-.25,5.76,5.76,0,0,1-1.84-.79,3.71,3.71,0,0,1-1.25-1.36,3.46,3.46,0,0,1-.36-2H741a1.46,1.46,0,0,0,.29.83,1.67,1.67,0,0,0,.71.52,2.87,2.87,0,0,0,1.11.19,5.13,5.13,0,0,0,1.12-.12,2.28,2.28,0,0,0,.91-.38,1.12,1.12,0,0,0,.44-.76.6.6,0,0,0-.23-.64,2.17,2.17,0,0,0-.81-.35,10.49,10.49,0,0,0-1.09-.22l-2.08-.36A3.74,3.74,0,0,1,739,9.62a3.52,3.52,0,0,1-.6-2.77,4.14,4.14,0,0,1,1.14-2.37A5.94,5.94,0,0,1,741.84,3a8.37,8.37,0,0,1,3-.52,6.51,6.51,0,0,1,2.91.61,4.78,4.78,0,0,1,1.85,1.6,3.55,3.55,0,0,1,.6,2.12h-3.77a1.43,1.43,0,0,0-.19-.86,1.18,1.18,0,0,0-.66-.47,3.41,3.41,0,0,0-1.09-.15,3.34,3.34,0,0,0-1.16.17,1.53,1.53,0,0,0-.65.42.94.94,0,0,0-.24.49.86.86,0,0,0,.19.75,2.21,2.21,0,0,0,1.14.45l2.08.36a5.69,5.69,0,0,1,2.25.8A3,3,0,0,1,749.15,10a3.44,3.44,0,0,1,.31,1.34,8.17,8.17,0,0,1-.07,1.17,3.72,3.72,0,0,1-1.1,2.1A6.57,6.57,0,0,1,745.91,16,9.32,9.32,0,0,1,742.72,16.56Z" transform="translate(-2.44 -2.43)"/><path class="cls-2" d="M757.92,12.25a2.76,2.76,0,0,1-1.45-.39,3,3,0,0,1-1.05-1A2.78,2.78,0,0,1,755,9.38,2.72,2.72,0,0,1,755.42,8a3,3,0,0,1,1.05-1,2.89,2.89,0,0,1,2.9,0,3,3,0,0,1,1,1,2.72,2.72,0,0,1,.39,1.43,2.78,2.78,0,0,1-.39,1.44,3,3,0,0,1-1,1A2.79,2.79,0,0,1,757.92,12.25Z" transform="translate(-2.44 -2.43)"/><path class="cls-2" d="M765.85,16.37,768,2.63h3.86L771,8.18l4.84-5.55H780l-4.61,5.25,3.11,8.49h-4l-2.19-5.8-2.06,2.21-.54,3.59Z" transform="translate(-2.44 -2.43)"/><path class="cls-2" d="M780.15,16.37l2.1-13.74h6.25a5.58,5.58,0,0,1,2.8.59,2.9,2.9,0,0,1,1.35,1.59,4.9,4.9,0,0,1,.15,2.25,5.86,5.86,0,0,1-.56,1.8,4.8,4.8,0,0,1-1,1.27,6.86,6.86,0,0,1-1.27.92l1.61,5.32h-3.8l-1.28-4.73h-1.95l-.72,4.73ZM785,8.88h2.13a1.56,1.56,0,0,0,.88-.26,2.32,2.32,0,0,0,.69-.67,2.08,2.08,0,0,0,.35-.85,1.42,1.42,0,0,0-.33-1.22,1.33,1.33,0,0,0-1.05-.51h-2.13Z" transform="translate(-2.44 -2.43)"/><path class="cls-2" d="M799.62,16.56a6.51,6.51,0,0,1-3.41-.74,3.4,3.4,0,0,1-1.55-2.06,7.57,7.57,0,0,1-.09-3.07l1.22-8.06h3.77l-1.26,8.21a3,3,0,0,0,.08,1.52,1.49,1.49,0,0,0,.68.84,2.08,2.08,0,0,0,1,.26,2.58,2.58,0,0,0,1.62-.6,3,3,0,0,0,1-2l1.25-8.21h3.76l-1.23,8.06a8.57,8.57,0,0,1-1,3.07,5.35,5.35,0,0,1-2.18,2.06A7.83,7.83,0,0,1,799.62,16.56Z" transform="translate(-2.44 -2.43)"/><path class="cls-2" d="M813.75,16.56a9.23,9.23,0,0,1-2.11-.25,5.76,5.76,0,0,1-1.84-.79,3.55,3.55,0,0,1-1.25-1.36,3.46,3.46,0,0,1-.36-2H812a1.54,1.54,0,0,0,.29.83,1.64,1.64,0,0,0,.72.52,2.81,2.81,0,0,0,1.1.19,5.06,5.06,0,0,0,1.12-.12,2.22,2.22,0,0,0,.91-.38,1.09,1.09,0,0,0,.45-.76.63.63,0,0,0-.24-.64,2.17,2.17,0,0,0-.81-.35,10.83,10.83,0,0,0-1.08-.22l-2.08-.36A3.74,3.74,0,0,1,810,9.62a3.45,3.45,0,0,1-.6-2.77,4.19,4.19,0,0,1,1.13-2.37A6,6,0,0,1,812.86,3a8.41,8.41,0,0,1,3-.52,6.51,6.51,0,0,1,2.91.61,4.74,4.74,0,0,1,1.86,1.6,3.54,3.54,0,0,1,.59,2.12h-3.77a1.43,1.43,0,0,0-.18-.86,1.25,1.25,0,0,0-.66-.47,4.07,4.07,0,0,0-2.26,0,1.43,1.43,0,0,0-.64.42,1,1,0,0,0-.25.49.87.87,0,0,0,.2.75,2.17,2.17,0,0,0,1.14.45l2.08.36a5.64,5.64,0,0,1,2.24.8A2.92,2.92,0,0,1,820.18,10a3.42,3.42,0,0,1,.3,1.34,7,7,0,0,1-.06,1.17,3.73,3.73,0,0,1-1.11,2.1A6.49,6.49,0,0,1,816.93,16,9.22,9.22,0,0,1,813.75,16.56Z" transform="translate(-2.44 -2.43)"/><path class="cls-2" d="M824.66,16.37l1.6-10.49h-3.9l.5-3.25h11.57l-.5,3.25H830l-1.61,10.49Z" transform="translate(-2.44 -2.43)"/><path class="cls-2" d="M840.19,16.56a6.31,6.31,0,0,1-3.43-.87,4.73,4.73,0,0,1-1.94-2.45,7.36,7.36,0,0,1-.25-3.71A9,9,0,0,1,836,5.79a7.65,7.65,0,0,1,2.72-2.47,7.54,7.54,0,0,1,3.64-.88,6.06,6.06,0,0,1,3.37.88,4.85,4.85,0,0,1,1.95,2.47,7.47,7.47,0,0,1,.27,3.74,9.05,9.05,0,0,1-1.4,3.71,7.35,7.35,0,0,1-2.69,2.45A7.66,7.66,0,0,1,840.19,16.56Zm.44-3a2.73,2.73,0,0,0,1.42-.38A3.18,3.18,0,0,0,843.17,12a7.35,7.35,0,0,0,.7-2.36,7,7,0,0,0,0-2.45,2.24,2.24,0,0,0-.74-1.33,2,2,0,0,0-1.29-.4,2.71,2.71,0,0,0-2,.94,6.08,6.08,0,0,0-1.27,3.24,6.62,6.62,0,0,0,0,2.36,2.08,2.08,0,0,0,.75,1.26A2.15,2.15,0,0,0,840.63,13.59Z" transform="translate(-2.44 -2.43)"/><path class="cls-2" d="M850.53,16.56c-.39,0-.83,0-1.32,0a9.94,9.94,0,0,1-1.16-.14l.5-3.33.59.07.62,0a1.71,1.71,0,0,0,1.4-.5,3.36,3.36,0,0,0,.56-1.57L853,2.63h3.7L855.28,12a8.92,8.92,0,0,1-.71,2.52,3.2,3.2,0,0,1-1.43,1.52A5.74,5.74,0,0,1,850.53,16.56Z" transform="translate(-2.44 -2.43)"/><path class="cls-2" d="M863,16.56a6.58,6.58,0,0,1-3.42-.74A3.43,3.43,0,0,1,858,13.76a7.56,7.56,0,0,1-.1-3.07l1.23-8.06h3.77l-1.26,8.21a3.08,3.08,0,0,0,.07,1.52,1.57,1.57,0,0,0,.68.84,2.15,2.15,0,0,0,1.05.26,2.54,2.54,0,0,0,1.61-.6,3,3,0,0,0,1-2l1.24-8.21H871l-1.22,8.06a8.77,8.77,0,0,1-1,3.07,5.35,5.35,0,0,1-2.18,2.06A7.83,7.83,0,0,1,863,16.56Z" transform="translate(-2.44 -2.43)"/><path class="cls-2" d="M871.42,16.37l2.1-13.74H879L880,11l3.53-8.38H889l-2.08,13.74h-3.72l1.51-10-4.2,10h-2.67l-1.17-10-1.53,10Z" transform="translate(-2.44 -2.43)"/><path class="cls-2" d="M895.3,16.56a9.32,9.32,0,0,1-2.12-.25,5.7,5.7,0,0,1-1.83-.79,3.65,3.65,0,0,1-1.26-1.36,3.54,3.54,0,0,1-.35-2h3.85a1.54,1.54,0,0,0,.29.83,1.64,1.64,0,0,0,.72.52,2.78,2.78,0,0,0,1.1.19,5.13,5.13,0,0,0,1.12-.12,2.28,2.28,0,0,0,.91-.38,1.12,1.12,0,0,0,.44-.76.6.6,0,0,0-.23-.64,2.17,2.17,0,0,0-.81-.35,10.83,10.83,0,0,0-1.08-.22L894,10.9a3.77,3.77,0,0,1-2.42-1.28,3.52,3.52,0,0,1-.6-2.77,4.27,4.27,0,0,1,1.14-2.37A5.94,5.94,0,0,1,894.41,3a8.37,8.37,0,0,1,3-.52,6.51,6.51,0,0,1,2.91.61,4.64,4.64,0,0,1,1.85,1.6,3.55,3.55,0,0,1,.6,2.12H899a1.36,1.36,0,0,0-.19-.86,1.19,1.19,0,0,0-.65-.47,3.48,3.48,0,0,0-1.1-.15,3.38,3.38,0,0,0-1.16.17,1.43,1.43,0,0,0-.64.42,1,1,0,0,0-.25.49.87.87,0,0,0,.2.75,2.13,2.13,0,0,0,1.13.45l2.09.36a5.7,5.7,0,0,1,2.24.8A2.89,2.89,0,0,1,901.72,10,3.44,3.44,0,0,1,902,11.3a6.94,6.94,0,0,1-.07,1.17,3.66,3.66,0,0,1-1.1,2.1A6.49,6.49,0,0,1,898.48,16,9.26,9.26,0,0,1,895.3,16.56Z" transform="translate(-2.44 -2.43)"/><path class="cls-2" d="M910.49,12.25a2.83,2.83,0,0,1-1.46-.39,3,3,0,0,1-1-1,2.78,2.78,0,0,1-.39-1.44A2.72,2.72,0,0,1,908,8a3,3,0,0,1,1-1,2.83,2.83,0,0,1,1.46-.39,2.79,2.79,0,0,1,1.45.39,3,3,0,0,1,1,1,2.72,2.72,0,0,1,.39,1.43,2.78,2.78,0,0,1-.39,1.44,3,3,0,0,1-1,1A2.79,2.79,0,0,1,910.49,12.25Z" transform="translate(-2.44 -2.43)"/><path class="cls-2" d="M918.43,16.37l2.12-13.74h3.86l-.85,5.55,4.84-5.55h4.16L928,7.88l3.11,8.49h-4l-2.19-5.8-2.06,2.21-.54,3.59Z" transform="translate(-2.44 -2.43)"/><path class="cls-2" d="M932.73,16.37l2.1-13.74h6.25a5.58,5.58,0,0,1,2.8.59,2.9,2.9,0,0,1,1.35,1.59,4.9,4.9,0,0,1,.15,2.25,5.86,5.86,0,0,1-.56,1.8,4.8,4.8,0,0,1-1,1.27,6.86,6.86,0,0,1-1.27.92l1.61,5.32h-3.8l-1.28-4.73h-2l-.72,4.73Zm4.86-7.49h2.13a1.56,1.56,0,0,0,.88-.26,2.21,2.21,0,0,0,.69-.67,2.08,2.08,0,0,0,.35-.85,1.42,1.42,0,0,0-.33-1.22,1.34,1.34,0,0,0-1.06-.51h-2.12Z" transform="translate(-2.44 -2.43)"/><path class="cls-2" d="M952.19,16.56a6.51,6.51,0,0,1-3.41-.74,3.44,3.44,0,0,1-1.55-2.06,7.75,7.75,0,0,1-.09-3.07l1.23-8.06h3.77l-1.27,8.21a3,3,0,0,0,.08,1.52,1.49,1.49,0,0,0,.68.84,2.08,2.08,0,0,0,1,.26,2.58,2.58,0,0,0,1.62-.6,3,3,0,0,0,1-2l1.25-8.21h3.76L959,10.69a8.57,8.57,0,0,1-1,3.07,5.29,5.29,0,0,1-2.18,2.06A7.83,7.83,0,0,1,952.19,16.56Z" transform="translate(-2.44 -2.43)"/><path class="cls-2" d="M966.33,16.56a9.32,9.32,0,0,1-2.12-.25,5.61,5.61,0,0,1-1.83-.79,3.45,3.45,0,0,1-1.62-3.33h3.86a1.46,1.46,0,0,0,.29.83,1.64,1.64,0,0,0,.72.52,2.78,2.78,0,0,0,1.1.19,5.13,5.13,0,0,0,1.12-.12,2.28,2.28,0,0,0,.91-.38,1.12,1.12,0,0,0,.44-.76.6.6,0,0,0-.23-.64,2.17,2.17,0,0,0-.81-.35,10.83,10.83,0,0,0-1.08-.22L965,10.9a3.74,3.74,0,0,1-2.42-1.28,3.52,3.52,0,0,1-.6-2.77,4.27,4.27,0,0,1,1.14-2.37A5.94,5.94,0,0,1,965.44,3a8.37,8.37,0,0,1,3-.52,6.51,6.51,0,0,1,2.91.61,4.64,4.64,0,0,1,1.85,1.6,3.55,3.55,0,0,1,.6,2.12H970a1.36,1.36,0,0,0-.19-.86,1.19,1.19,0,0,0-.65-.47,3.48,3.48,0,0,0-1.1-.15,3.38,3.38,0,0,0-1.16.17,1.53,1.53,0,0,0-.65.42,1.12,1.12,0,0,0-.24.49.87.87,0,0,0,.2.75,2.13,2.13,0,0,0,1.13.45l2.08.36a5.69,5.69,0,0,1,2.25.8A2.89,2.89,0,0,1,972.75,10a3.44,3.44,0,0,1,.31,1.34,6.94,6.94,0,0,1-.07,1.17,3.66,3.66,0,0,1-1.1,2.1A6.49,6.49,0,0,1,969.51,16,9.26,9.26,0,0,1,966.33,16.56Z" transform="translate(-2.44 -2.43)"/><path class="cls-2" d="M977.26,16.37l1.59-10.49H975l.5-3.25H987l-.5,3.25h-3.95L981,16.37Z" transform="translate(-2.44 -2.43)"/><path class="cls-2" d="M992.74,16.56a6.27,6.27,0,0,1-3.42-.87,4.8,4.8,0,0,1-2-2.45,7.59,7.59,0,0,1-.25-3.71,9.15,9.15,0,0,1,1.42-3.74,7.5,7.5,0,0,1,6.36-3.35,6.06,6.06,0,0,1,3.37.88,4.85,4.85,0,0,1,2,2.47,7.48,7.48,0,0,1,.26,3.74,8.9,8.9,0,0,1-1.39,3.71,7.51,7.51,0,0,1-2.69,2.45A7.67,7.67,0,0,1,992.74,16.56Zm.45-3a2.67,2.67,0,0,0,1.41-.38A3.12,3.12,0,0,0,995.73,12a7.35,7.35,0,0,0,.7-2.36,7,7,0,0,0,.05-2.45,2.24,2.24,0,0,0-.74-1.33,2,2,0,0,0-1.29-.4,2.75,2.75,0,0,0-2,.94,6.17,6.17,0,0,0-1.26,3.24,6.39,6.39,0,0,0,0,2.36,2.08,2.08,0,0,0,.75,1.26A2.15,2.15,0,0,0,993.19,13.59Z" transform="translate(-2.44 -2.43)"/><path class="cls-2" d="M1003.12,16.56c-.39,0-.83,0-1.32,0a10,10,0,0,1-1.15-.14l.5-3.33.58.07.63,0a1.72,1.72,0,0,0,1.4-.5,3.37,3.37,0,0,0,.55-1.57l1.31-8.44h3.7L1007.88,12a8.92,8.92,0,0,1-.71,2.52,3.25,3.25,0,0,1-1.43,1.52A5.76,5.76,0,0,1,1003.12,16.56Z" transform="translate(-2.44 -2.43)"/><path class="cls-2" d="M1015.54,16.56a6.53,6.53,0,0,1-3.42-.74,3.39,3.39,0,0,1-1.54-2.06,7.56,7.56,0,0,1-.1-3.07l1.23-8.06h3.77l-1.27,8.21a3.06,3.06,0,0,0,.08,1.52,1.53,1.53,0,0,0,.68.84,2.15,2.15,0,0,0,1,.26,2.58,2.58,0,0,0,1.61-.6,3,3,0,0,0,1-2l1.25-8.21h3.76l-1.23,8.06a8.76,8.76,0,0,1-1,3.07,5.35,5.35,0,0,1-2.18,2.06A7.89,7.89,0,0,1,1015.54,16.56Z" transform="translate(-2.44 -2.43)"/><path class="cls-2" d="M1024,16.37l2.1-13.74h5.52l1,8.38,3.52-8.38h5.48l-2.08,13.74h-3.72l1.51-10-4.2,10h-2.67l-1.17-10-1.53,10Z" transform="translate(-2.44 -2.43)"/><path class="cls-2" d="M1047.87,16.56a9.3,9.3,0,0,1-2.11-.25,5.76,5.76,0,0,1-1.84-.79,3.63,3.63,0,0,1-1.25-1.36,3.46,3.46,0,0,1-.36-2h3.86a1.53,1.53,0,0,0,.28.83,1.76,1.76,0,0,0,.72.52,2.87,2.87,0,0,0,1.11.19,5.13,5.13,0,0,0,1.12-.12,2.17,2.17,0,0,0,.9-.38,1.09,1.09,0,0,0,.45-.76.62.62,0,0,0-.23-.64,2.3,2.3,0,0,0-.82-.35,10.28,10.28,0,0,0-1.08-.22l-2.08-.36a3.74,3.74,0,0,1-2.42-1.28,3.48,3.48,0,0,1-.6-2.77,4.14,4.14,0,0,1,1.14-2.37A5.94,5.94,0,0,1,1047,3a8.36,8.36,0,0,1,3-.52,6.45,6.45,0,0,1,2.91.61,4.74,4.74,0,0,1,1.86,1.6,3.47,3.47,0,0,1,.59,2.12h-3.76a1.51,1.51,0,0,0-.19-.86,1.22,1.22,0,0,0-.66-.47,3.41,3.41,0,0,0-1.09-.15,3.34,3.34,0,0,0-1.16.17,1.47,1.47,0,0,0-.65.42.94.94,0,0,0-.24.49.86.86,0,0,0,.19.75,2.21,2.21,0,0,0,1.14.45L1051,8a5.58,5.58,0,0,1,2.24.8A2.92,2.92,0,0,1,1054.3,10a3.44,3.44,0,0,1,.31,1.34,8.17,8.17,0,0,1-.07,1.17,3.72,3.72,0,0,1-1.1,2.1,6.66,6.66,0,0,1-2.38,1.46A9.32,9.32,0,0,1,1047.87,16.56Z" transform="translate(-2.44 -2.43)"/><path class="cls-2" d="M1063.08,12.25a2.76,2.76,0,0,1-1.45-.39,3,3,0,0,1-1.05-1,2.78,2.78,0,0,1-.39-1.44,2.72,2.72,0,0,1,.39-1.43,3,3,0,0,1,1.05-1,2.89,2.89,0,0,1,2.9,0,3,3,0,0,1,1,1,2.73,2.73,0,0,1,.4,1.43,2.79,2.79,0,0,1-.4,1.44,3,3,0,0,1-1,1A2.79,2.79,0,0,1,1063.08,12.25Z" transform="translate(-2.44 -2.43)"/><path class="cls-2" d="M1071,16.37l2.12-13.74H1077l-.84,5.55L1081,2.63h4.16l-4.6,5.25,3.11,8.49h-4l-2.19-5.8-2.06,2.21-.55,3.59Z" transform="translate(-2.44 -2.43)"/><path class="cls-2" d="M1085.3,16.37l2.1-13.74h6.25a5.65,5.65,0,0,1,2.81.59,2.84,2.84,0,0,1,1.34,1.59,4.64,4.64,0,0,1,.15,2.25,5.6,5.6,0,0,1-.56,1.8,4.8,4.8,0,0,1-1,1.27,6.55,6.55,0,0,1-1.27.92l1.61,5.32H1093l-1.27-4.73h-2l-.72,4.73Zm4.86-7.49h2.13a1.59,1.59,0,0,0,.89-.26,2.44,2.44,0,0,0,.69-.67,2.06,2.06,0,0,0,.34-.85,1.41,1.41,0,0,0-.32-1.22,1.34,1.34,0,0,0-1.06-.51h-2.13Z" transform="translate(-2.44 -2.43)"/><path class="cls-2" d="M1104.78,16.56a6.51,6.51,0,0,1-3.41-.74,3.4,3.4,0,0,1-1.55-2.06,7.57,7.57,0,0,1-.09-3.07L1101,2.63h3.77l-1.26,8.21a3.08,3.08,0,0,0,.07,1.52,1.57,1.57,0,0,0,.68.84,2.15,2.15,0,0,0,1,.26,2.58,2.58,0,0,0,1.62-.6,3,3,0,0,0,1-2l1.25-8.21h3.76l-1.23,8.06a8.77,8.77,0,0,1-1,3.07,5.35,5.35,0,0,1-2.18,2.06A7.83,7.83,0,0,1,1104.78,16.56Z" transform="translate(-2.44 -2.43)"/><path class="cls-2" d="M1118.92,16.56a9.38,9.38,0,0,1-2.12-.25,5.7,5.7,0,0,1-1.83-.79,3.55,3.55,0,0,1-1.25-1.36,3.46,3.46,0,0,1-.36-2h3.85a1.54,1.54,0,0,0,.29.83,1.64,1.64,0,0,0,.72.52,2.81,2.81,0,0,0,1.1.19,5.06,5.06,0,0,0,1.12-.12,2.28,2.28,0,0,0,.91-.38,1.13,1.13,0,0,0,.45-.76.63.63,0,0,0-.24-.64,2.17,2.17,0,0,0-.81-.35,10.83,10.83,0,0,0-1.08-.22l-2.08-.36a3.77,3.77,0,0,1-2.43-1.28,3.52,3.52,0,0,1-.6-2.77,4.27,4.27,0,0,1,1.14-2.37A5.94,5.94,0,0,1,1118,3a8.37,8.37,0,0,1,3-.52,6.51,6.51,0,0,1,2.91.61,4.74,4.74,0,0,1,1.86,1.6,3.61,3.61,0,0,1,.59,2.12h-3.77a1.36,1.36,0,0,0-.19-.86,1.19,1.19,0,0,0-.65-.47,3.48,3.48,0,0,0-1.1-.15,3.38,3.38,0,0,0-1.16.17,1.43,1.43,0,0,0-.64.42,1,1,0,0,0-.25.49.87.87,0,0,0,.2.75,2.13,2.13,0,0,0,1.13.45L1122,8a5.7,5.7,0,0,1,2.24.8,2.82,2.82,0,0,1,1.07,1.21,3.27,3.27,0,0,1,.31,1.34,6,6,0,0,1-.07,1.17,3.66,3.66,0,0,1-1.1,2.1A6.49,6.49,0,0,1,1122.1,16,9.22,9.22,0,0,1,1118.92,16.56Z" transform="translate(-2.44 -2.43)"/><path class="cls-2" d="M1129.84,16.37l1.59-10.49h-3.89l.49-3.25h11.57l-.5,3.25h-3.95l-1.61,10.49Z" transform="translate(-2.44 -2.43)"/><path class="cls-2" d="M1145.34,16.56a6.31,6.31,0,0,1-3.43-.87,4.73,4.73,0,0,1-1.94-2.45,7.36,7.36,0,0,1-.25-3.71,9,9,0,0,1,1.41-3.74,7.65,7.65,0,0,1,2.72-2.47,7.54,7.54,0,0,1,3.64-.88,6.06,6.06,0,0,1,3.37.88,4.85,4.85,0,0,1,2,2.47,7.47,7.47,0,0,1,.27,3.74,9,9,0,0,1-1.39,3.71,7.46,7.46,0,0,1-2.7,2.45A7.63,7.63,0,0,1,1145.34,16.56Zm.44-3a2.73,2.73,0,0,0,1.42-.38,3.18,3.18,0,0,0,1.12-1.26,7.35,7.35,0,0,0,.7-2.36,6.81,6.81,0,0,0,0-2.45,2.24,2.24,0,0,0-.74-1.33,2,2,0,0,0-1.29-.4,2.71,2.71,0,0,0-2,.94,6.08,6.08,0,0,0-1.27,3.24,6.62,6.62,0,0,0,0,2.36,1.93,1.93,0,0,0,2,1.64Z" transform="translate(-2.44 -2.43)"/><path class="cls-2" d="M1155.68,16.56c-.39,0-.83,0-1.31,0a9.94,9.94,0,0,1-1.16-.14l.5-3.33.58.07.63,0a1.72,1.72,0,0,0,1.4-.5,3.26,3.26,0,0,0,.55-1.57l1.31-8.44h3.7L1160.44,12a8.92,8.92,0,0,1-.71,2.52,3.25,3.25,0,0,1-1.43,1.52A5.76,5.76,0,0,1,1155.68,16.56Z" transform="translate(-2.44 -2.43)"/><path class="cls-2" d="M1168.14,16.56a6.53,6.53,0,0,1-3.42-.74,3.39,3.39,0,0,1-1.54-2.06,7.56,7.56,0,0,1-.1-3.07l1.23-8.06h3.77l-1.27,8.21a3.06,3.06,0,0,0,.08,1.52,1.53,1.53,0,0,0,.68.84,2.15,2.15,0,0,0,1,.26,2.58,2.58,0,0,0,1.61-.6,3,3,0,0,0,1-2l1.24-8.21h3.76L1175,10.69a8.76,8.76,0,0,1-1,3.07,5.35,5.35,0,0,1-2.18,2.06A7.89,7.89,0,0,1,1168.14,16.56Z" transform="translate(-2.44 -2.43)"/><path class="cls-2" d="M1176.57,16.37l2.1-13.74h5.51l1,8.38,3.53-8.38h5.48l-2.08,13.74h-3.73l1.52-10-4.2,10H1183l-1.17-10-1.52,10Z" transform="translate(-2.44 -2.43)"/><path class="cls-2" d="M1200.46,16.56a9.32,9.32,0,0,1-2.12-.25,5.76,5.76,0,0,1-1.84-.79,3.71,3.71,0,0,1-1.25-1.36,3.63,3.63,0,0,1-.36-2h3.86a1.46,1.46,0,0,0,.29.83,1.64,1.64,0,0,0,.72.52,2.78,2.78,0,0,0,1.1.19,5.13,5.13,0,0,0,1.12-.12,2.28,2.28,0,0,0,.91-.38,1.12,1.12,0,0,0,.44-.76.6.6,0,0,0-.23-.64,2.17,2.17,0,0,0-.81-.35,10.49,10.49,0,0,0-1.09-.22l-2.08-.36a3.74,3.74,0,0,1-2.42-1.28,3.52,3.52,0,0,1-.6-2.77,4.2,4.2,0,0,1,1.14-2.37,5.94,5.94,0,0,1,2.33-1.5,8.37,8.37,0,0,1,3-.52,6.51,6.51,0,0,1,2.91.61,4.71,4.71,0,0,1,1.85,1.6,3.55,3.55,0,0,1,.6,2.12h-3.77a1.36,1.36,0,0,0-.19-.86,1.18,1.18,0,0,0-.66-.47,4,4,0,0,0-2.25,0,1.53,1.53,0,0,0-.65.42,1,1,0,0,0-.24.49.84.84,0,0,0,.2.75,2.13,2.13,0,0,0,1.13.45l2.08.36a5.69,5.69,0,0,1,2.25.8,2.89,2.89,0,0,1,1.07,1.21,3.44,3.44,0,0,1,.31,1.34,8.17,8.17,0,0,1-.07,1.17,3.66,3.66,0,0,1-1.1,2.1,6.57,6.57,0,0,1-2.38,1.46A9.31,9.31,0,0,1,1200.46,16.56Z" transform="translate(-2.44 -2.43)"/><path class="cls-2" d="M1215.65,12.25a2.76,2.76,0,0,1-1.45-.39,3,3,0,0,1-1-1,2.78,2.78,0,0,1-.39-1.44,2.72,2.72,0,0,1,.39-1.43,3,3,0,0,1,1-1,2.89,2.89,0,0,1,2.9,0,3,3,0,0,1,1.05,1,2.72,2.72,0,0,1,.39,1.43,2.78,2.78,0,0,1-.39,1.44,3,3,0,0,1-1.05,1A2.79,2.79,0,0,1,1215.65,12.25Z" transform="translate(-2.44 -2.43)"/><path class="cls-2" d="M1223.57,16.37l2.12-13.74h3.85l-.84,5.55,4.83-5.55h4.16l-4.6,5.25,3.11,8.49h-4l-2.19-5.8L1228,12.78l-.55,3.59Z" transform="translate(-2.44 -2.43)"/><path class="cls-2" d="M1237.88,16.37,1240,2.63h6.25a5.58,5.58,0,0,1,2.8.59,2.9,2.9,0,0,1,1.35,1.59,4.64,4.64,0,0,1,.15,2.25,5.86,5.86,0,0,1-.56,1.8,4.8,4.8,0,0,1-1,1.27,6.86,6.86,0,0,1-1.27.92l1.61,5.32h-3.8l-1.28-4.73h-2l-.72,4.73Zm4.86-7.49h2.13a1.56,1.56,0,0,0,.88-.26,2.21,2.21,0,0,0,.69-.67,2.08,2.08,0,0,0,.35-.85,1.44,1.44,0,0,0-.32-1.22,1.37,1.37,0,0,0-1.06-.51h-2.13Z" transform="translate(-2.44 -2.43)"/><path class="cls-2" d="M1257.36,16.56a6.51,6.51,0,0,1-3.41-.74,3.4,3.4,0,0,1-1.55-2.06,7.57,7.57,0,0,1-.09-3.07l1.22-8.06h3.77L1256,10.84a3.08,3.08,0,0,0,.07,1.52,1.57,1.57,0,0,0,.68.84,2.15,2.15,0,0,0,1,.26,2.58,2.58,0,0,0,1.62-.6,3,3,0,0,0,1-2l1.25-8.21h3.76l-1.23,8.06a8.77,8.77,0,0,1-1,3.07,5.35,5.35,0,0,1-2.18,2.06A7.83,7.83,0,0,1,1257.36,16.56Z" transform="translate(-2.44 -2.43)"/><path class="cls-2" d="M1271.47,16.56a9.32,9.32,0,0,1-2.12-.25,5.7,5.7,0,0,1-1.83-.79,3.45,3.45,0,0,1-1.62-3.33h3.86a1.54,1.54,0,0,0,.29.83,1.64,1.64,0,0,0,.72.52,2.78,2.78,0,0,0,1.1.19,5.13,5.13,0,0,0,1.12-.12,2.28,2.28,0,0,0,.91-.38,1.12,1.12,0,0,0,.44-.76.6.6,0,0,0-.23-.64,2.17,2.17,0,0,0-.81-.35,10.83,10.83,0,0,0-1.08-.22l-2.09-.36a3.77,3.77,0,0,1-2.42-1.28,3.52,3.52,0,0,1-.6-2.77,4.27,4.27,0,0,1,1.14-2.37,5.94,5.94,0,0,1,2.33-1.5,8.37,8.37,0,0,1,3-.52,6.51,6.51,0,0,1,2.91.61,4.64,4.64,0,0,1,1.85,1.6,3.55,3.55,0,0,1,.6,2.12h-3.77a1.36,1.36,0,0,0-.19-.86,1.19,1.19,0,0,0-.65-.47,3.48,3.48,0,0,0-1.1-.15,3.38,3.38,0,0,0-1.16.17,1.53,1.53,0,0,0-.65.42,1.12,1.12,0,0,0-.24.49.87.87,0,0,0,.2.75,2.13,2.13,0,0,0,1.13.45l2.08.36a5.69,5.69,0,0,1,2.25.8,2.89,2.89,0,0,1,1.07,1.21,3.44,3.44,0,0,1,.31,1.34,6.94,6.94,0,0,1-.07,1.17,3.66,3.66,0,0,1-1.1,2.1,6.49,6.49,0,0,1-2.38,1.46A9.26,9.26,0,0,1,1271.47,16.56Z" transform="translate(-2.44 -2.43)"/><path class="cls-2" d="M1282.42,16.37,1284,5.88h-3.89l.49-3.25h11.57l-.5,3.25h-4l-1.61,10.49Z" transform="translate(-2.44 -2.43)"/><path class="cls-2" d="M1297.92,16.56a6.31,6.31,0,0,1-3.43-.87,4.73,4.73,0,0,1-1.94-2.45,7.36,7.36,0,0,1-.25-3.71,9,9,0,0,1,1.41-3.74,7.65,7.65,0,0,1,2.72-2.47,7.58,7.58,0,0,1,3.65-.88,6,6,0,0,1,3.36.88,4.85,4.85,0,0,1,2,2.47,7.36,7.36,0,0,1,.27,3.74,9,9,0,0,1-1.39,3.71,7.46,7.46,0,0,1-2.7,2.45A7.6,7.6,0,0,1,1297.92,16.56Zm.44-3a2.73,2.73,0,0,0,1.42-.38,3.27,3.27,0,0,0,1.13-1.26,7.64,7.64,0,0,0,.69-2.36,6.81,6.81,0,0,0,.05-2.45,2.23,2.23,0,0,0-.73-1.33,2.09,2.09,0,0,0-1.29-.4,2.73,2.73,0,0,0-2,.94,6,6,0,0,0-1.26,3.24,6.39,6.39,0,0,0,0,2.36,2.12,2.12,0,0,0,.74,1.26A2.15,2.15,0,0,0,1298.36,13.59Z" transform="translate(-2.44 -2.43)"/><path class="cls-2" d="M1308.27,16.56c-.39,0-.83,0-1.32,0a9.94,9.94,0,0,1-1.16-.14l.5-3.33.59.07.62,0a1.71,1.71,0,0,0,1.4-.5,3.36,3.36,0,0,0,.56-1.57l1.3-8.44h3.7L1313,12a8.92,8.92,0,0,1-.71,2.52,3.16,3.16,0,0,1-1.43,1.52A5.74,5.74,0,0,1,1308.27,16.56Z" transform="translate(-2.44 -2.43)"/><path class="cls-2" d="M1320.69,16.56a6.55,6.55,0,0,1-3.42-.74,3.43,3.43,0,0,1-1.54-2.06,7.56,7.56,0,0,1-.1-3.07l1.23-8.06h3.77l-1.27,8.21a3.06,3.06,0,0,0,.08,1.52,1.53,1.53,0,0,0,.68.84,2.15,2.15,0,0,0,1.05.26,2.56,2.56,0,0,0,1.61-.6,3,3,0,0,0,1-2L1325,2.63h3.76l-1.22,8.06a8.77,8.77,0,0,1-1,3.07,5.35,5.35,0,0,1-2.18,2.06A7.89,7.89,0,0,1,1320.69,16.56Z" transform="translate(-2.44 -2.43)"/><path class="cls-2" d="M1329.13,16.37l2.1-13.74h5.52l1,8.38,3.53-8.38h5.47l-2.08,13.74h-3.72l1.52-10-4.21,10h-2.67l-1.17-10-1.53,10Z" transform="translate(-2.44 -2.43)"/><path class="cls-2" d="M1353,16.56a9.3,9.3,0,0,1-2.11-.25,5.76,5.76,0,0,1-1.84-.79,3.71,3.71,0,0,1-1.25-1.36,3.46,3.46,0,0,1-.36-2h3.86a1.46,1.46,0,0,0,.29.83,1.67,1.67,0,0,0,.71.52,2.87,2.87,0,0,0,1.11.19,5.13,5.13,0,0,0,1.12-.12,2.28,2.28,0,0,0,.91-.38,1.12,1.12,0,0,0,.44-.76.6.6,0,0,0-.23-.64,2.17,2.17,0,0,0-.81-.35,10.49,10.49,0,0,0-1.09-.22l-2.08-.36a3.74,3.74,0,0,1-2.42-1.28,3.52,3.52,0,0,1-.6-2.77,4.14,4.14,0,0,1,1.14-2.37,5.94,5.94,0,0,1,2.33-1.5,8.36,8.36,0,0,1,3-.52,6.52,6.52,0,0,1,2.92.61,4.78,4.78,0,0,1,1.85,1.6,3.55,3.55,0,0,1,.6,2.12h-3.77a1.43,1.43,0,0,0-.19-.86,1.18,1.18,0,0,0-.66-.47,3.41,3.41,0,0,0-1.09-.15,3.34,3.34,0,0,0-1.16.17,1.53,1.53,0,0,0-.65.42.94.94,0,0,0-.24.49.86.86,0,0,0,.19.75,2.21,2.21,0,0,0,1.14.45l2.08.36a5.69,5.69,0,0,1,2.25.8,3,3,0,0,1,1.07,1.21,3.44,3.44,0,0,1,.31,1.34,8.17,8.17,0,0,1-.07,1.17,3.72,3.72,0,0,1-1.1,2.1,6.57,6.57,0,0,1-2.38,1.46A9.32,9.32,0,0,1,1353,16.56Z" transform="translate(-2.44 -2.43)"/><path class="cls-2" d="M1368.22,12.25a2.79,2.79,0,0,1-1.45-.39,3,3,0,0,1-1-1,2.78,2.78,0,0,1-.39-1.44,2.72,2.72,0,0,1,.39-1.43,3,3,0,0,1,1-1,2.89,2.89,0,0,1,2.9,0,3,3,0,0,1,1,1,2.64,2.64,0,0,1,.4,1.43,2.7,2.7,0,0,1-.4,1.44,3,3,0,0,1-1,1A2.76,2.76,0,0,1,1368.22,12.25Z" transform="translate(-2.44 -2.43)"/><path class="cls-2" d="M1376.16,16.37l2.12-13.74h3.86l-.85,5.55,4.84-5.55h4.16l-4.6,5.25,3.1,8.49h-4l-2.18-5.8-2.07,2.21-.54,3.59Z" transform="translate(-2.44 -2.43)"/><path class="cls-2" d="M1390.44,16.37l2.1-13.74h6.25a5.65,5.65,0,0,1,2.81.59,2.84,2.84,0,0,1,1.34,1.59,4.64,4.64,0,0,1,.15,2.25,5.6,5.6,0,0,1-.56,1.8,4.6,4.6,0,0,1-1,1.27,6.55,6.55,0,0,1-1.27.92l1.61,5.32h-3.8l-1.27-4.73h-2l-.72,4.73Zm4.86-7.49h2.13a1.59,1.59,0,0,0,.89-.26A2.44,2.44,0,0,0,1399,8a2.06,2.06,0,0,0,.34-.85,1.41,1.41,0,0,0-.32-1.22,1.34,1.34,0,0,0-1.06-.51h-2.13Z" transform="translate(-2.44 -2.43)"/><path class="cls-2" d="M1409.93,16.56a6.51,6.51,0,0,1-3.41-.74,3.4,3.4,0,0,1-1.55-2.06,7.57,7.57,0,0,1-.09-3.07l1.22-8.06h3.77l-1.26,8.21a3.08,3.08,0,0,0,.07,1.52,1.54,1.54,0,0,0,.69.84,2.08,2.08,0,0,0,1,.26,2.58,2.58,0,0,0,1.62-.6,3,3,0,0,0,1-2l1.25-8.21H1418l-1.23,8.06a8.77,8.77,0,0,1-1,3.07,5.35,5.35,0,0,1-2.18,2.06A7.83,7.83,0,0,1,1409.93,16.56Z" transform="translate(-2.44 -2.43)"/><path class="cls-2" d="M1424.05,16.56a9.3,9.3,0,0,1-2.11-.25,5.76,5.76,0,0,1-1.84-.79,3.71,3.71,0,0,1-1.25-1.36,3.54,3.54,0,0,1-.36-2h3.86a1.46,1.46,0,0,0,.29.83,1.67,1.67,0,0,0,.71.52,2.87,2.87,0,0,0,1.11.19,5.13,5.13,0,0,0,1.12-.12,2.28,2.28,0,0,0,.91-.38,1.12,1.12,0,0,0,.44-.76.6.6,0,0,0-.23-.64,2.17,2.17,0,0,0-.81-.35,10.49,10.49,0,0,0-1.09-.22l-2.08-.36a3.74,3.74,0,0,1-2.42-1.28,3.52,3.52,0,0,1-.6-2.77,4.14,4.14,0,0,1,1.14-2.37,5.94,5.94,0,0,1,2.33-1.5,8.37,8.37,0,0,1,3-.52,6.51,6.51,0,0,1,2.91.61,4.71,4.71,0,0,1,1.85,1.6,3.55,3.55,0,0,1,.6,2.12h-3.77a1.43,1.43,0,0,0-.19-.86,1.18,1.18,0,0,0-.66-.47,4,4,0,0,0-2.25,0,1.53,1.53,0,0,0-.65.42.94.94,0,0,0-.24.49.86.86,0,0,0,.19.75,2.21,2.21,0,0,0,1.14.45l2.08.36a5.69,5.69,0,0,1,2.25.8,3,3,0,0,1,1.07,1.21,3.44,3.44,0,0,1,.31,1.34,8.17,8.17,0,0,1-.07,1.17,3.66,3.66,0,0,1-1.1,2.1,6.57,6.57,0,0,1-2.38,1.46A9.32,9.32,0,0,1,1424.05,16.56Z" transform="translate(-2.44 -2.43)"/><path class="cls-2" d="M1435,16.37l1.59-10.49h-3.9l.5-3.25h11.57l-.5,3.25h-4l-1.61,10.49Z" transform="translate(-2.44 -2.43)"/><path class="cls-2" d="M1450.49,16.56a6.25,6.25,0,0,1-3.42-.87,4.7,4.7,0,0,1-2-2.45,7.48,7.48,0,0,1-.25-3.71,9.14,9.14,0,0,1,1.41-3.74A7.65,7.65,0,0,1,1449,3.32a7.58,7.58,0,0,1,3.65-.88,6,6,0,0,1,3.36.88,4.92,4.92,0,0,1,2,2.47,7.48,7.48,0,0,1,.26,3.74,9,9,0,0,1-1.39,3.71,7.46,7.46,0,0,1-2.7,2.45A7.6,7.6,0,0,1,1450.49,16.56Zm.44-3a2.7,2.7,0,0,0,1.42-.38,3.19,3.19,0,0,0,1.13-1.26,7.37,7.37,0,0,0,.69-2.36,6.81,6.81,0,0,0,0-2.45,2.23,2.23,0,0,0-.73-1.33,2.09,2.09,0,0,0-1.29-.4,2.75,2.75,0,0,0-2,.94,6,6,0,0,0-1.26,3.24,6.39,6.39,0,0,0,0,2.36,2.08,2.08,0,0,0,.75,1.26A2.12,2.12,0,0,0,1450.93,13.59Z" transform="translate(-2.44 -2.43)"/><path class="cls-2" d="M1460.84,16.56c-.39,0-.83,0-1.32,0a9.72,9.72,0,0,1-1.15-.14l.5-3.33.58.07.62,0a1.7,1.7,0,0,0,1.4-.5,3.26,3.26,0,0,0,.56-1.57l1.3-8.44H1467L1465.6,12a9.27,9.27,0,0,1-.71,2.52,3.22,3.22,0,0,1-1.44,1.52A5.68,5.68,0,0,1,1460.84,16.56Z" transform="translate(-2.44 -2.43)"/><path class="cls-2" d="M1473.27,16.56a6.51,6.51,0,0,1-3.41-.74,3.4,3.4,0,0,1-1.55-2.06,7.57,7.57,0,0,1-.09-3.07l1.23-8.06h3.76L1472,10.84a3.08,3.08,0,0,0,.07,1.52,1.54,1.54,0,0,0,.69.84,2.08,2.08,0,0,0,1,.26,2.58,2.58,0,0,0,1.62-.6,3,3,0,0,0,1-2l1.25-8.21h3.76l-1.23,8.06a8.57,8.57,0,0,1-1,3.07,5.35,5.35,0,0,1-2.18,2.06A7.83,7.83,0,0,1,1473.27,16.56Z" transform="translate(-2.44 -2.43)"/><path class="cls-2" d="M1481.71,16.37l2.1-13.74h5.52l1,8.38,3.52-8.38h5.48l-2.08,13.74h-3.72l1.51-10-4.2,10h-2.67l-1.17-10-1.53,10Z" transform="translate(-2.44 -2.43)"/><path class="cls-2" d="M1505.6,16.56a9.3,9.3,0,0,1-2.11-.25,5.76,5.76,0,0,1-1.84-.79,3.63,3.63,0,0,1-1.25-1.36,3.46,3.46,0,0,1-.36-2h3.86a1.53,1.53,0,0,0,.28.83,1.76,1.76,0,0,0,.72.52,2.87,2.87,0,0,0,1.11.19,5.13,5.13,0,0,0,1.12-.12,2.17,2.17,0,0,0,.9-.38,1.09,1.09,0,0,0,.45-.76.62.62,0,0,0-.23-.64,2.3,2.3,0,0,0-.82-.35,10.28,10.28,0,0,0-1.08-.22l-2.08-.36a3.74,3.74,0,0,1-2.42-1.28,3.48,3.48,0,0,1-.6-2.77,4.14,4.14,0,0,1,1.14-2.37,5.94,5.94,0,0,1,2.33-1.5,8.36,8.36,0,0,1,3-.52,6.45,6.45,0,0,1,2.91.61,4.74,4.74,0,0,1,1.86,1.6,3.47,3.47,0,0,1,.59,2.12h-3.76a1.51,1.51,0,0,0-.19-.86,1.22,1.22,0,0,0-.66-.47,3.41,3.41,0,0,0-1.09-.15,3.34,3.34,0,0,0-1.16.17,1.47,1.47,0,0,0-.65.42.94.94,0,0,0-.24.49.86.86,0,0,0,.19.75,2.21,2.21,0,0,0,1.14.45l2.08.36a5.58,5.58,0,0,1,2.24.8A2.92,2.92,0,0,1,1512,10a3.44,3.44,0,0,1,.31,1.34,8.17,8.17,0,0,1-.07,1.17,3.72,3.72,0,0,1-1.1,2.1,6.66,6.66,0,0,1-2.38,1.46A9.32,9.32,0,0,1,1505.6,16.56Z" transform="translate(-2.44 -2.43)"/><path class="cls-2" d="M1520.79,12.25a2.79,2.79,0,0,1-1.45-.39,3,3,0,0,1-1-1,2.78,2.78,0,0,1-.39-1.44A2.72,2.72,0,0,1,1518.3,8a2.93,2.93,0,0,1,1-1,2.79,2.79,0,0,1,1.45-.39,2.83,2.83,0,0,1,1.46.39,3,3,0,0,1,1,1,2.72,2.72,0,0,1,.39,1.43,2.78,2.78,0,0,1-.39,1.44,3,3,0,0,1-1,1A2.83,2.83,0,0,1,1520.79,12.25Z" transform="translate(-2.44 -2.43)"/><path class="cls-2" d="M1528.73,16.37l2.12-13.74h3.85l-.84,5.55,4.83-5.55h4.16l-4.6,5.25,3.11,8.49h-4l-2.19-5.8-2.06,2.21-.55,3.59Z" transform="translate(-2.44 -2.43)"/><path class="cls-2" d="M1543,16.37l2.1-13.74h6.25a5.58,5.58,0,0,1,2.8.59,2.86,2.86,0,0,1,1.35,1.59,4.64,4.64,0,0,1,.15,2.25,5.86,5.86,0,0,1-.56,1.8,4.8,4.8,0,0,1-1,1.27,6.55,6.55,0,0,1-1.27.92l1.61,5.32h-3.8l-1.27-4.73h-2l-.72,4.73Zm4.86-7.49H1550a1.56,1.56,0,0,0,.88-.26,2.21,2.21,0,0,0,.69-.67,2.08,2.08,0,0,0,.35-.85,1.41,1.41,0,0,0-.32-1.22,1.35,1.35,0,0,0-1.06-.51h-2.13Z" transform="translate(-2.44 -2.43)"/><path class="cls-2" d="M1562.49,16.56a6.53,6.53,0,0,1-3.42-.74,3.39,3.39,0,0,1-1.54-2.06,7.56,7.56,0,0,1-.1-3.07l1.23-8.06h3.77l-1.27,8.21a3.06,3.06,0,0,0,.08,1.52,1.53,1.53,0,0,0,.68.84,2.15,2.15,0,0,0,1,.26,2.58,2.58,0,0,0,1.61-.6,3,3,0,0,0,1-2l1.25-8.21h3.76l-1.23,8.06a8.76,8.76,0,0,1-1,3.07,5.35,5.35,0,0,1-2.18,2.06A7.89,7.89,0,0,1,1562.49,16.56Z" transform="translate(-2.44 -2.43)"/><path class="cls-2" d="M1576.64,16.56a9.3,9.3,0,0,1-2.11-.25,5.76,5.76,0,0,1-1.84-.79,3.71,3.71,0,0,1-1.25-1.36,3.46,3.46,0,0,1-.36-2h3.86a1.46,1.46,0,0,0,.29.83,1.67,1.67,0,0,0,.71.52,2.87,2.87,0,0,0,1.11.19,5.13,5.13,0,0,0,1.12-.12,2.28,2.28,0,0,0,.91-.38,1.12,1.12,0,0,0,.44-.76.6.6,0,0,0-.23-.64,2.17,2.17,0,0,0-.81-.35,10.49,10.49,0,0,0-1.09-.22l-2.08-.36a3.74,3.74,0,0,1-2.42-1.28,3.52,3.52,0,0,1-.6-2.77,4.14,4.14,0,0,1,1.14-2.37,5.94,5.94,0,0,1,2.33-1.5,8.37,8.37,0,0,1,3-.52,6.51,6.51,0,0,1,2.91.61,4.71,4.71,0,0,1,1.85,1.6,3.55,3.55,0,0,1,.6,2.12h-3.77a1.43,1.43,0,0,0-.19-.86,1.18,1.18,0,0,0-.66-.47,4,4,0,0,0-2.25,0,1.53,1.53,0,0,0-.65.42.94.94,0,0,0-.24.49.86.86,0,0,0,.19.75,2.21,2.21,0,0,0,1.14.45l2.08.36a5.69,5.69,0,0,1,2.25.8,3,3,0,0,1,1.07,1.21,3.44,3.44,0,0,1,.31,1.34,8.17,8.17,0,0,1-.07,1.17,3.66,3.66,0,0,1-1.1,2.1,6.57,6.57,0,0,1-2.38,1.46A9.32,9.32,0,0,1,1576.64,16.56Z" transform="translate(-2.44 -2.43)"/><path class="cls-2" d="M1587.54,16.37l1.59-10.49h-3.89l.5-3.25h11.56l-.5,3.25h-4l-1.61,10.49Z" transform="translate(-2.44 -2.43)"/><path class="cls-2" d="M1603.05,16.56a6.31,6.31,0,0,1-3.43-.87,4.73,4.73,0,0,1-1.94-2.45,7.36,7.36,0,0,1-.25-3.71,9,9,0,0,1,1.41-3.74,7.65,7.65,0,0,1,2.72-2.47,7.58,7.58,0,0,1,3.65-.88,6,6,0,0,1,3.36.88,4.85,4.85,0,0,1,2,2.47,7.36,7.36,0,0,1,.27,3.74,9,9,0,0,1-1.39,3.71,7.46,7.46,0,0,1-2.7,2.45A7.6,7.6,0,0,1,1603.05,16.56Zm.44-3a2.73,2.73,0,0,0,1.42-.38A3.27,3.27,0,0,0,1606,12a7.64,7.64,0,0,0,.69-2.36,6.81,6.81,0,0,0,0-2.45,2.23,2.23,0,0,0-.73-1.33,2.09,2.09,0,0,0-1.29-.4,2.75,2.75,0,0,0-2,.94,6,6,0,0,0-1.26,3.24,6.39,6.39,0,0,0,0,2.36,1.93,1.93,0,0,0,2,1.64Z" transform="translate(-2.44 -2.43)"/><path class="cls-2" d="M1613.42,16.56c-.39,0-.83,0-1.32,0a10.23,10.23,0,0,1-1.16-.14l.5-3.33.59.07.62,0a1.71,1.71,0,0,0,1.4-.5,3.36,3.36,0,0,0,.56-1.57l1.3-8.44h3.7L1618.17,12a9.29,9.29,0,0,1-.7,2.52,3.22,3.22,0,0,1-1.44,1.52A5.71,5.71,0,0,1,1613.42,16.56Z" transform="translate(-2.44 -2.43)"/><path class="cls-2" d="M1625.84,16.56a6.51,6.51,0,0,1-3.41-.74,3.4,3.4,0,0,1-1.55-2.06,7.57,7.57,0,0,1-.09-3.07L1622,2.63h3.77l-1.26,8.21a3.08,3.08,0,0,0,.07,1.52,1.54,1.54,0,0,0,.69.84,2.08,2.08,0,0,0,1,.26,2.58,2.58,0,0,0,1.62-.6,3,3,0,0,0,1-2l1.25-8.21h3.76l-1.23,8.06a8.77,8.77,0,0,1-1,3.07,5.35,5.35,0,0,1-2.18,2.06A7.83,7.83,0,0,1,1625.84,16.56Z" transform="translate(-2.44 -2.43)"/><path class="cls-2" d="M1634.3,16.37l2.1-13.74h5.52l.95,8.38,3.53-8.38h5.47l-2.08,13.74h-3.72l1.52-10-4.21,10h-2.67l-1.17-10-1.53,10Z" transform="translate(-2.44 -2.43)"/><path class="cls-2" d="M1658.18,16.56a9.38,9.38,0,0,1-2.12-.25,5.7,5.7,0,0,1-1.83-.79,3.55,3.55,0,0,1-1.25-1.36,3.46,3.46,0,0,1-.36-2h3.85a1.54,1.54,0,0,0,.29.83,1.64,1.64,0,0,0,.72.52,2.81,2.81,0,0,0,1.1.19,5.06,5.06,0,0,0,1.12-.12,2.28,2.28,0,0,0,.91-.38,1.13,1.13,0,0,0,.45-.76.63.63,0,0,0-.24-.64,2.17,2.17,0,0,0-.81-.35,10.83,10.83,0,0,0-1.08-.22l-2.08-.36a3.77,3.77,0,0,1-2.43-1.28,3.52,3.52,0,0,1-.6-2.77A4.27,4.27,0,0,1,1655,4.48a5.94,5.94,0,0,1,2.33-1.5,8.37,8.37,0,0,1,3-.52,6.51,6.51,0,0,1,2.91.61,4.74,4.74,0,0,1,1.86,1.6,3.61,3.61,0,0,1,.59,2.12h-3.77a1.36,1.36,0,0,0-.19-.86,1.19,1.19,0,0,0-.65-.47,3.48,3.48,0,0,0-1.1-.15,3.38,3.38,0,0,0-1.16.17,1.43,1.43,0,0,0-.64.42,1,1,0,0,0-.25.49.87.87,0,0,0,.2.75,2.13,2.13,0,0,0,1.14.45l2.08.36a5.7,5.7,0,0,1,2.24.8A2.82,2.82,0,0,1,1664.6,10a3.27,3.27,0,0,1,.31,1.34,6,6,0,0,1-.07,1.17,3.66,3.66,0,0,1-1.1,2.1,6.49,6.49,0,0,1-2.38,1.46A9.22,9.22,0,0,1,1658.18,16.56Z" transform="translate(-2.44 -2.43)"/><path class="cls-2" d="M1673.37,12.25a2.79,2.79,0,0,1-1.45-.39,3,3,0,0,1-1.05-1,2.78,2.78,0,0,1-.39-1.44,2.72,2.72,0,0,1,.39-1.43,3,3,0,0,1,1.05-1,2.89,2.89,0,0,1,2.9,0,3,3,0,0,1,1,1,2.64,2.64,0,0,1,.4,1.43,2.7,2.7,0,0,1-.4,1.44,3,3,0,0,1-1,1A2.76,2.76,0,0,1,1673.37,12.25Z" transform="translate(-2.44 -2.43)"/><path class="cls-2" d="M1681.29,16.37l2.12-13.74h3.86l-.85,5.55,4.84-5.55h4.16l-4.6,5.25,3.1,8.49h-4l-2.18-5.8-2.07,2.21-.54,3.59Z" transform="translate(-2.44 -2.43)"/><path class="cls-2" d="M1695.59,16.37l2.1-13.74h6.25a5.61,5.61,0,0,1,2.8.59,2.9,2.9,0,0,1,1.35,1.59,4.9,4.9,0,0,1,.15,2.25,5.6,5.6,0,0,1-.57,1.8,4.57,4.57,0,0,1-1,1.27,6.86,6.86,0,0,1-1.27.92l1.61,5.32h-3.8L1702,11.64h-2l-.72,4.73Zm4.86-7.49h2.13a1.58,1.58,0,0,0,.88-.26,2.44,2.44,0,0,0,.69-.67,2.08,2.08,0,0,0,.35-.85,1.45,1.45,0,0,0-.33-1.22,1.34,1.34,0,0,0-1.06-.51H1701Z" transform="translate(-2.44 -2.43)"/><path class="cls-2" d="M1715.08,16.56a6.51,6.51,0,0,1-3.41-.74,3.44,3.44,0,0,1-1.55-2.06,7.75,7.75,0,0,1-.09-3.07l1.23-8.06H1715l-1.27,8.21a3,3,0,0,0,.08,1.52,1.49,1.49,0,0,0,.68.84,2.08,2.08,0,0,0,1,.26,2.58,2.58,0,0,0,1.62-.6,3,3,0,0,0,1-2l1.25-8.21h3.76l-1.23,8.06a8.57,8.57,0,0,1-1,3.07,5.29,5.29,0,0,1-2.18,2.06A7.83,7.83,0,0,1,1715.08,16.56Z" transform="translate(-2.44 -2.43)"/><path class="cls-2" d="M1729.21,16.56a9.3,9.3,0,0,1-2.11-.25,5.76,5.76,0,0,1-1.84-.79,3.71,3.71,0,0,1-1.25-1.36,3.54,3.54,0,0,1-.36-2h3.86a1.46,1.46,0,0,0,.29.83,1.64,1.64,0,0,0,.72.52,2.78,2.78,0,0,0,1.1.19,5.13,5.13,0,0,0,1.12-.12,2.28,2.28,0,0,0,.91-.38,1.12,1.12,0,0,0,.44-.76.6.6,0,0,0-.23-.64,2.17,2.17,0,0,0-.81-.35,10.49,10.49,0,0,0-1.09-.22l-2.08-.36a3.74,3.74,0,0,1-2.42-1.28,3.52,3.52,0,0,1-.6-2.77A4.2,4.2,0,0,1,1726,4.48a5.94,5.94,0,0,1,2.33-1.5,8.37,8.37,0,0,1,3-.52,6.51,6.51,0,0,1,2.91.61,4.71,4.71,0,0,1,1.85,1.6,3.55,3.55,0,0,1,.6,2.12h-3.77a1.43,1.43,0,0,0-.19-.86,1.18,1.18,0,0,0-.66-.47,4,4,0,0,0-2.25,0,1.53,1.53,0,0,0-.65.42,1,1,0,0,0-.24.49.86.86,0,0,0,.19.75,2.21,2.21,0,0,0,1.14.45l2.08.36a5.69,5.69,0,0,1,2.25.8,3,3,0,0,1,1.07,1.21,3.44,3.44,0,0,1,.31,1.34,8.17,8.17,0,0,1-.07,1.17,3.66,3.66,0,0,1-1.1,2.1A6.57,6.57,0,0,1,1732.4,16,9.32,9.32,0,0,1,1729.21,16.56Z" transform="translate(-2.44 -2.43)"/><path class="cls-2" d="M1740.13,16.37l1.59-10.49h-3.89l.49-3.25h11.57l-.5,3.25h-4l-1.61,10.49Z" transform="translate(-2.44 -2.43)"/><path class="cls-2" d="M1755.65,16.56a6.31,6.31,0,0,1-3.43-.87,4.73,4.73,0,0,1-1.94-2.45,7.36,7.36,0,0,1-.25-3.71,9,9,0,0,1,1.41-3.74,7.65,7.65,0,0,1,2.72-2.47,7.55,7.55,0,0,1,3.65-.88,6,6,0,0,1,3.36.88,4.85,4.85,0,0,1,1.95,2.47,7.47,7.47,0,0,1,.27,3.74,9,9,0,0,1-1.39,3.71,7.46,7.46,0,0,1-2.7,2.45A7.63,7.63,0,0,1,1755.65,16.56Zm.44-3a2.73,2.73,0,0,0,1.42-.38,3.18,3.18,0,0,0,1.12-1.26,7.35,7.35,0,0,0,.7-2.36,6.81,6.81,0,0,0,.05-2.45,2.24,2.24,0,0,0-.74-1.33,2,2,0,0,0-1.29-.4,2.71,2.71,0,0,0-2,.94,6,6,0,0,0-1.26,3.24,6.39,6.39,0,0,0,0,2.36,2.12,2.12,0,0,0,.74,1.26A2.15,2.15,0,0,0,1756.09,13.59Z" transform="translate(-2.44 -2.43)"/><path class="cls-2" d="M1766,16.56c-.4,0-.83,0-1.32,0a9.94,9.94,0,0,1-1.16-.14L1764,13l.58.07.63,0a1.72,1.72,0,0,0,1.4-.5,3.26,3.26,0,0,0,.55-1.57l1.31-8.44h3.7L1770.73,12a8.92,8.92,0,0,1-.71,2.52,3.25,3.25,0,0,1-1.43,1.52A5.74,5.74,0,0,1,1766,16.56Z" transform="translate(-2.44 -2.43)"/><path class="cls-2" d="M1778.43,16.56a6.51,6.51,0,0,1-3.41-.74,3.44,3.44,0,0,1-1.55-2.06,7.75,7.75,0,0,1-.09-3.07l1.23-8.06h3.77l-1.27,8.21a3,3,0,0,0,.08,1.52,1.49,1.49,0,0,0,.68.84,2.08,2.08,0,0,0,1,.26,2.58,2.58,0,0,0,1.62-.6,3,3,0,0,0,1-2l1.25-8.21h3.76l-1.23,8.06a8.57,8.57,0,0,1-1,3.07,5.29,5.29,0,0,1-2.18,2.06A7.83,7.83,0,0,1,1778.43,16.56Z" transform="translate(-2.44 -2.43)"/><path class="cls-2" d="M1786.86,16.37,1789,2.63h5.52l.94,8.38L1799,2.63h5.48l-2.08,13.74h-3.72l1.51-10-4.2,10h-2.67l-1.17-10-1.53,10Z" transform="translate(-2.44 -2.43)"/><path class="cls-2" d="M1810.76,16.56a9.32,9.32,0,0,1-2.12-.25,5.7,5.7,0,0,1-1.83-.79,3.45,3.45,0,0,1-1.62-3.33h3.86a1.54,1.54,0,0,0,.29.83,1.64,1.64,0,0,0,.72.52,2.78,2.78,0,0,0,1.1.19,5.13,5.13,0,0,0,1.12-.12,2.28,2.28,0,0,0,.91-.38,1.12,1.12,0,0,0,.44-.76.6.6,0,0,0-.23-.64,2.17,2.17,0,0,0-.81-.35,10.83,10.83,0,0,0-1.08-.22l-2.09-.36A3.77,3.77,0,0,1,1807,9.62a3.52,3.52,0,0,1-.6-2.77,4.27,4.27,0,0,1,1.14-2.37,5.94,5.94,0,0,1,2.33-1.5,8.37,8.37,0,0,1,3-.52,6.51,6.51,0,0,1,2.91.61,4.64,4.64,0,0,1,1.85,1.6,3.55,3.55,0,0,1,.6,2.12h-3.77a1.36,1.36,0,0,0-.19-.86,1.19,1.19,0,0,0-.65-.47,3.48,3.48,0,0,0-1.1-.15,3.38,3.38,0,0,0-1.16.17,1.53,1.53,0,0,0-.65.42,1.12,1.12,0,0,0-.24.49.87.87,0,0,0,.2.75,2.13,2.13,0,0,0,1.13.45l2.08.36a5.69,5.69,0,0,1,2.25.8,2.89,2.89,0,0,1,1.07,1.21,3.44,3.44,0,0,1,.31,1.34,6.94,6.94,0,0,1-.07,1.17,3.66,3.66,0,0,1-1.1,2.1,6.49,6.49,0,0,1-2.38,1.46A9.26,9.26,0,0,1,1810.76,16.56Z" transform="translate(-2.44 -2.43)"/><path class="cls-2" d="M1826,12.25a2.79,2.79,0,0,1-1.45-.39,3,3,0,0,1-1-1,2.78,2.78,0,0,1-.39-1.44,2.72,2.72,0,0,1,.39-1.43,3,3,0,0,1,1-1,2.89,2.89,0,0,1,2.9,0,3,3,0,0,1,1,1,2.64,2.64,0,0,1,.4,1.43,2.7,2.7,0,0,1-.4,1.44,3,3,0,0,1-1,1A2.76,2.76,0,0,1,1826,12.25Z" transform="translate(-2.44 -2.43)"/><path class="cls-2" d="M1833.89,16.37,1836,2.63h3.85L1839,8.18l4.83-5.55H1848l-4.6,5.25,3.11,8.49h-4l-2.19-5.8-2.06,2.21-.55,3.59Z" transform="translate(-2.44 -2.43)"/><path class="cls-2" d="M1848.16,16.37l2.1-13.74h6.25a5.61,5.61,0,0,1,2.8.59,2.9,2.9,0,0,1,1.35,1.59,4.9,4.9,0,0,1,.15,2.25,5.6,5.6,0,0,1-.57,1.8,4.57,4.57,0,0,1-1,1.27,6.86,6.86,0,0,1-1.27.92l1.61,5.32h-3.8l-1.28-4.73h-2l-.72,4.73ZM1853,8.88h2.13a1.58,1.58,0,0,0,.88-.26,2.44,2.44,0,0,0,.69-.67,2.08,2.08,0,0,0,.35-.85,1.45,1.45,0,0,0-.33-1.22,1.34,1.34,0,0,0-1.06-.51h-2.12Z" transform="translate(-2.44 -2.43)"/><path class="cls-2" d="M1867.64,16.56a6.55,6.55,0,0,1-3.42-.74,3.43,3.43,0,0,1-1.54-2.06,7.56,7.56,0,0,1-.1-3.07l1.23-8.06h3.77l-1.27,8.21a3.06,3.06,0,0,0,.08,1.52,1.53,1.53,0,0,0,.68.84,2.15,2.15,0,0,0,1,.26,2.56,2.56,0,0,0,1.61-.6,3,3,0,0,0,1-2L1872,2.63h3.76l-1.23,8.06a8.56,8.56,0,0,1-1,3.07,5.35,5.35,0,0,1-2.18,2.06A7.89,7.89,0,0,1,1867.64,16.56Z" transform="translate(-2.44 -2.43)"/><path class="cls-2" d="M1881.8,16.56a9.32,9.32,0,0,1-2.12-.25,5.76,5.76,0,0,1-1.84-.79,3.71,3.71,0,0,1-1.25-1.36,3.63,3.63,0,0,1-.36-2h3.86a1.46,1.46,0,0,0,.29.83,1.64,1.64,0,0,0,.72.52,2.78,2.78,0,0,0,1.1.19,5.13,5.13,0,0,0,1.12-.12,2.28,2.28,0,0,0,.91-.38,1.12,1.12,0,0,0,.44-.76.6.6,0,0,0-.23-.64,2.17,2.17,0,0,0-.81-.35,10.49,10.49,0,0,0-1.09-.22l-2.08-.36A3.74,3.74,0,0,1,1878,9.62a3.52,3.52,0,0,1-.6-2.77,4.2,4.2,0,0,1,1.14-2.37,5.94,5.94,0,0,1,2.33-1.5,8.37,8.37,0,0,1,3-.52,6.51,6.51,0,0,1,2.91.61,4.71,4.71,0,0,1,1.85,1.6,3.55,3.55,0,0,1,.6,2.12h-3.77a1.36,1.36,0,0,0-.19-.86,1.18,1.18,0,0,0-.66-.47,4,4,0,0,0-2.25,0,1.53,1.53,0,0,0-.65.42,1,1,0,0,0-.24.49.84.84,0,0,0,.2.75,2.13,2.13,0,0,0,1.13.45l2.08.36a5.69,5.69,0,0,1,2.25.8,2.89,2.89,0,0,1,1.07,1.21,3.44,3.44,0,0,1,.31,1.34,8.17,8.17,0,0,1-.07,1.17,3.66,3.66,0,0,1-1.1,2.1A6.57,6.57,0,0,1,1885,16,9.31,9.31,0,0,1,1881.8,16.56Z" transform="translate(-2.44 -2.43)"/><path class="cls-2" d="M1892.72,16.37l1.59-10.49h-3.89l.5-3.25h11.56l-.5,3.25h-4l-1.61,10.49Z" transform="translate(-2.44 -2.43)"/><path class="cls-2" d="M1908.21,16.56a6.29,6.29,0,0,1-3.42-.87,4.8,4.8,0,0,1-2-2.45,7.59,7.59,0,0,1-.25-3.71A9.15,9.15,0,0,1,1904,5.79a7.5,7.5,0,0,1,6.36-3.35,6.06,6.06,0,0,1,3.37.88,4.85,4.85,0,0,1,2,2.47,7.48,7.48,0,0,1,.26,3.74,8.9,8.9,0,0,1-1.39,3.71,7.43,7.43,0,0,1-2.69,2.45A7.67,7.67,0,0,1,1908.21,16.56Zm.45-3a2.73,2.73,0,0,0,1.42-.38A3.18,3.18,0,0,0,1911.2,12a7.35,7.35,0,0,0,.7-2.36,7,7,0,0,0,0-2.45,2.24,2.24,0,0,0-.74-1.33,2,2,0,0,0-1.29-.4,2.75,2.75,0,0,0-2,.94,6.17,6.17,0,0,0-1.26,3.24,6.62,6.62,0,0,0,0,2.36,2.08,2.08,0,0,0,.75,1.26A2.15,2.15,0,0,0,1908.66,13.59Z" transform="translate(-2.44 -2.43)"/><path class="cls-2" d="M1918.56,16.56c-.39,0-.83,0-1.32,0a9.94,9.94,0,0,1-1.16-.14l.5-3.33.58.07.63,0a1.72,1.72,0,0,0,1.4-.5,3.26,3.26,0,0,0,.55-1.57l1.31-8.44h3.7L1923.31,12a8.92,8.92,0,0,1-.71,2.52,3.25,3.25,0,0,1-1.43,1.52A5.74,5.74,0,0,1,1918.56,16.56Z" transform="translate(-2.44 -2.43)"/><path class="cls-2" d="M1931,16.56a6.51,6.51,0,0,1-3.41-.74,3.39,3.39,0,0,1-1.54-2.06,7.56,7.56,0,0,1-.1-3.07l1.23-8.06H1931l-1.27,8.21a3,3,0,0,0,.08,1.52,1.49,1.49,0,0,0,.68.84,2.08,2.08,0,0,0,1,.26,2.58,2.58,0,0,0,1.62-.6,3,3,0,0,0,1-2l1.25-8.21h3.76l-1.23,8.06a8.76,8.76,0,0,1-1,3.07,5.38,5.38,0,0,1-2.19,2.06A7.83,7.83,0,0,1,1931,16.56Z" transform="translate(-2.44 -2.43)"/></g></g></g></svg>