<svg xmlns="http://www.w3.org/2000/svg" viewBox="0 0 1942.71 1105.59"><defs><style>.cls-1{opacity:0.6;}.cls-2{fill:#fff;}</style></defs><g id="Layer_2" data-name="Layer 2"><g id="Accordion_menu_expanded" data-name="Accordion menu expanded"><g class="cls-1"><path class="cls-2" d="M16.37,1108l-13.74-2.12v-5.44a6.18,6.18,0,0,1,.54-2.67,3.63,3.63,0,0,1,1.58-1.7,3.9,3.9,0,0,1,2.54-.33,5,5,0,0,1,2.33,1,4.8,4.8,0,0,1,1.49,1.94,6.6,6.6,0,0,1,.53,2.7v2.2l4.73.73Zm-7.49-4.83v-2.14a1.56,1.56,0,0,0-.26-.88,2.21,2.21,0,0,0-.67-.69,2.08,2.08,0,0,0-.85-.35,1.45,1.45,0,0,0-1.22.33,1.33,1.33,0,0,0-.51,1v2.13Z" transform="translate(-2.44 -2.44)"/><path class="cls-2" d="M16.37,1096.21l-13.74-7v-3.78l13.74-2.78v3.67l-2.66.49v4.36l2.66,1.34Zm-5.82-6.31v-2.72l-4.38.67Z" transform="translate(-2.44 -2.44)"/><path class="cls-2" d="M16.56,1075.39a9.32,9.32,0,0,1-.25,2.12,5.61,5.61,0,0,1-.79,1.83,3.45,3.45,0,0,1-3.33,1.62v-3.86a1.4,1.4,0,0,0,.82-.29,1.58,1.58,0,0,0,.53-.72,2.78,2.78,0,0,0,.19-1.1,5.13,5.13,0,0,0-.12-1.12,2.28,2.28,0,0,0-.38-.91,1.12,1.12,0,0,0-.76-.44.6.6,0,0,0-.64.23,2.17,2.17,0,0,0-.35.81,10.49,10.49,0,0,0-.22,1.09l-.36,2.08a3.74,3.74,0,0,1-1.28,2.42,3.53,3.53,0,0,1-2.77.6,4.27,4.27,0,0,1-2.37-1.14,5.94,5.94,0,0,1-1.5-2.33,8.37,8.37,0,0,1-.52-3,6.38,6.38,0,0,1,.61-2.91,4.64,4.64,0,0,1,1.6-1.85,3.55,3.55,0,0,1,2.12-.6v3.77a1.36,1.36,0,0,0-.86.19,1.19,1.19,0,0,0-.47.65,3.48,3.48,0,0,0-.15,1.1,3.38,3.38,0,0,0,.17,1.16,1.62,1.62,0,0,0,.41.65,1.2,1.2,0,0,0,.5.24.87.87,0,0,0,.75-.2,2.13,2.13,0,0,0,.45-1.13l.36-2.08a5.86,5.86,0,0,1,.79-2.25A3,3,0,0,1,10,1069a3.44,3.44,0,0,1,1.34-.31,8.17,8.17,0,0,1,1.17.07,3.66,3.66,0,0,1,2.1,1.1,6.49,6.49,0,0,1,1.46,2.38A9.26,9.26,0,0,1,16.56,1075.39Z" transform="translate(-2.44 -2.44)"/><path class="cls-2" d="M16.37,1064.45l-10.49-1.59v3.89l-3.25-.5v-11.56l3.25.5v4l10.49,1.61Z" transform="translate(-2.44 -2.44)"/><path class="cls-2" d="M16.37,1055.06l-13.74-2.12v-10.16l3.06.48v6.42L8,1050v-5.37l3,.46v5.39l2.34.36v-6.48l3.08.48Z" transform="translate(-2.44 -2.44)"/><path class="cls-2" d="M16.37,1042.58l-13.74-2.1v-3.72l13.74,2.09Z" transform="translate(-2.44 -2.44)"/><path class="cls-2" d="M16.56,1030.19a5.85,5.85,0,0,1-.89,3.3,5,5,0,0,1-2.47,1.9,7.28,7.28,0,0,1-3.65.24,8.82,8.82,0,0,1-3.74-1.44,7.59,7.59,0,0,1-3.37-6.4,6,6,0,0,1,.72-3.07A4.37,4.37,0,0,1,5,1022.93a4.1,4.1,0,0,1,2.44-.38v3.87a2.88,2.88,0,0,0-1,.25,1.66,1.66,0,0,0-.71.63,2,2,0,0,0-.26,1.06,2.63,2.63,0,0,0,.37,1.34,3.1,3.1,0,0,0,1.22,1.15,6.66,6.66,0,0,0,2.34.73,6.55,6.55,0,0,0,2,.06,2.44,2.44,0,0,0,1.18-.5,1.71,1.71,0,0,0,.55-.83,2.93,2.93,0,0,0,.15-.9,2.31,2.31,0,0,0-.12-.75,2.61,2.61,0,0,0-.71-1.13,1.83,1.83,0,0,0-.46-.32l-.5-.24v2.4L9.07,1029l0-6.31,7.26,1.12v2.43l-1.52-.22c.23.27.48.58.75,1a5.43,5.43,0,0,1,.68,1.32A5.9,5.9,0,0,1,16.56,1030.19Z" transform="translate(-2.44 -2.44)"/><path class="cls-2" d="M16.37,1022.18l-13.74-7v-3.77l13.74-2.79v3.67l-2.66.5v4.35l2.66,1.34Zm-5.82-6.31v-2.72l-4.38.67Z" transform="translate(-2.44 -2.44)"/><path class="cls-2" d="M12.25,1000a2.76,2.76,0,0,1-.39,1.45,3,3,0,0,1-1,1,2.78,2.78,0,0,1-1.44.39,2.72,2.72,0,0,1-1.43-.39,3,3,0,0,1-1-1,2.89,2.89,0,0,1,0-2.9,3,3,0,0,1,1-1,2.73,2.73,0,0,1,1.43-.4,2.79,2.79,0,0,1,1.44.4,3,3,0,0,1,1,1A2.79,2.79,0,0,1,12.25,1000Z" transform="translate(-2.44 -2.44)"/><path class="cls-2" d="M16.37,992.07,2.63,990V984.5a6.16,6.16,0,0,1,.54-2.66,3.7,3.7,0,0,1,1.58-1.71,4,4,0,0,1,2.54-.33,5.14,5.14,0,0,1,2.33,1,4.84,4.84,0,0,1,1.49,1.93,6.62,6.62,0,0,1,.53,2.71v2.2l4.73.73Zm-7.49-4.83V985.1a1.54,1.54,0,0,0-.26-.88,2.21,2.21,0,0,0-.67-.69,2,2,0,0,0-.85-.35,1.45,1.45,0,0,0-1.22.33,1.32,1.32,0,0,0-.51,1v2.13Z" transform="translate(-2.44 -2.44)"/><path class="cls-2" d="M16.37,980.24l-13.74-7v-3.78l13.74-2.78v3.67l-2.66.49v4.36l2.66,1.34Zm-5.82-6.31v-2.72l-4.38.67Z" transform="translate(-2.44 -2.44)"/><path class="cls-2" d="M16.56,959.41a9.32,9.32,0,0,1-.25,2.12,5.76,5.76,0,0,1-.79,1.84,3.71,3.71,0,0,1-1.36,1.25,3.65,3.65,0,0,1-2,.36v-3.86a1.4,1.4,0,0,0,.82-.29,1.58,1.58,0,0,0,.53-.72,2.78,2.78,0,0,0,.19-1.1,5.13,5.13,0,0,0-.12-1.12,2.28,2.28,0,0,0-.38-.91,1.12,1.12,0,0,0-.76-.44.6.6,0,0,0-.64.23,2.17,2.17,0,0,0-.35.81,10.49,10.49,0,0,0-.22,1.09l-.36,2.08a3.74,3.74,0,0,1-1.28,2.42,3.53,3.53,0,0,1-2.77.6,4.27,4.27,0,0,1-2.37-1.14A5.94,5.94,0,0,1,3,960.3a8.37,8.37,0,0,1-.52-3,6.38,6.38,0,0,1,.61-2.91,4.64,4.64,0,0,1,1.6-1.85,3.55,3.55,0,0,1,2.12-.6v3.77a1.36,1.36,0,0,0-.86.19,1.18,1.18,0,0,0-.47.66,4,4,0,0,0,0,2.25,1.62,1.62,0,0,0,.41.65,1.09,1.09,0,0,0,.5.24.84.84,0,0,0,.75-.2,2.13,2.13,0,0,0,.45-1.13L8,956.31a5.86,5.86,0,0,1,.79-2.25A3,3,0,0,1,10,953a3.44,3.44,0,0,1,1.34-.31,6.94,6.94,0,0,1,1.17.07,3.66,3.66,0,0,1,2.1,1.1A6.49,6.49,0,0,1,16,956.23,9.31,9.31,0,0,1,16.56,959.41Z" transform="translate(-2.44 -2.44)"/><path class="cls-2" d="M16.37,948.49,5.88,946.9v3.89l-3.25-.5V938.73l3.25.49v4l10.49,1.61Z" transform="translate(-2.44 -2.44)"/><path class="cls-2" d="M16.37,939.1,2.63,937V926.82l3.06.47v6.43l2.28.35V928.7l3,.46v5.39l2.34.36v-6.48l3.08.48Z" transform="translate(-2.44 -2.44)"/><path class="cls-2" d="M16.37,926.62l-13.74-2.1V920.8l13.74,2.09Z" transform="translate(-2.44 -2.44)"/><path class="cls-2" d="M16.56,914.22a5.82,5.82,0,0,1-.89,3.3,4.91,4.91,0,0,1-2.47,1.9,7.28,7.28,0,0,1-3.65.24,8.82,8.82,0,0,1-3.74-1.44,7.55,7.55,0,0,1-3.37-6.39,6,6,0,0,1,.72-3.08A4.37,4.37,0,0,1,5,907a4.17,4.17,0,0,1,2.44-.38v3.88a2.68,2.68,0,0,0-1,.24,1.73,1.73,0,0,0-.71.63,2,2,0,0,0-.26,1.06,2.7,2.7,0,0,0,.37,1.35,3.25,3.25,0,0,0,1.22,1.15,7.1,7.1,0,0,0,2.34.73,6.81,6.81,0,0,0,2,0,2.34,2.34,0,0,0,1.18-.5,1.67,1.67,0,0,0,.55-.83,2.93,2.93,0,0,0,.15-.9,2.25,2.25,0,0,0-.12-.74,2.22,2.22,0,0,0-.3-.64,2.55,2.55,0,0,0-.41-.5,1.83,1.83,0,0,0-.46-.32l-.5-.24v2.4L9.07,913l0-6.31,7.26,1.11v2.43L14.85,910c.23.27.48.59.75,1a5.43,5.43,0,0,1,.68,1.32A5.9,5.9,0,0,1,16.56,914.22Z" transform="translate(-2.44 -2.44)"/><path class="cls-2" d="M16.37,906.23l-13.74-7v-3.78l13.74-2.78v3.66l-2.66.5v4.36l2.66,1.34Zm-5.82-6.31V897.2l-4.38.67Z" transform="translate(-2.44 -2.44)"/><path class="cls-2" d="M12.25,884a2.83,2.83,0,0,1-.39,1.46,3,3,0,0,1-1,1,2.78,2.78,0,0,1-1.44.39A2.72,2.72,0,0,1,8,886.54a3,3,0,0,1-1-1A2.83,2.83,0,0,1,6.53,884a2.79,2.79,0,0,1,.39-1.45,3,3,0,0,1,1-1.05,2.72,2.72,0,0,1,1.43-.39,2.78,2.78,0,0,1,1.44.39,3,3,0,0,1,1,1.05A2.79,2.79,0,0,1,12.25,884Z" transform="translate(-2.44 -2.44)"/><path class="cls-2" d="M16.37,876.08,2.63,874v-5.45a6.16,6.16,0,0,1,.54-2.66,3.63,3.63,0,0,1,1.58-1.7,3.9,3.9,0,0,1,2.54-.33,5,5,0,0,1,2.33,1,4.8,4.8,0,0,1,1.49,1.94,6.6,6.6,0,0,1,.53,2.7v2.2l4.73.73Zm-7.49-4.83v-2.14a1.56,1.56,0,0,0-.26-.88,2.21,2.21,0,0,0-.67-.69,2.08,2.08,0,0,0-.85-.35,1.45,1.45,0,0,0-1.22.33,1.33,1.33,0,0,0-.51,1.05v2.13Z" transform="translate(-2.44 -2.44)"/><path class="cls-2" d="M16.37,864.26l-13.74-7v-3.78l13.74-2.78v3.67l-2.66.49v4.36l2.66,1.34ZM10.55,858v-2.72l-4.38.67Z" transform="translate(-2.44 -2.44)"/><path class="cls-2" d="M16.56,843.43a9.23,9.23,0,0,1-.25,2.11,5.76,5.76,0,0,1-.79,1.84,3.55,3.55,0,0,1-1.36,1.25,3.48,3.48,0,0,1-2,.36v-3.85a1.47,1.47,0,0,0,.82-.29,1.58,1.58,0,0,0,.53-.72,2.81,2.81,0,0,0,.19-1.1,5.06,5.06,0,0,0-.12-1.12,2.22,2.22,0,0,0-.38-.91,1.09,1.09,0,0,0-.76-.45.63.63,0,0,0-.64.24,2.17,2.17,0,0,0-.35.81,10.83,10.83,0,0,0-.22,1.08l-.36,2.08a3.74,3.74,0,0,1-1.28,2.42,3.45,3.45,0,0,1-2.77.6,4.19,4.19,0,0,1-2.37-1.13A6,6,0,0,1,3,844.32a8.41,8.41,0,0,1-.52-3,6.38,6.38,0,0,1,.61-2.91,4.74,4.74,0,0,1,1.6-1.86A3.54,3.54,0,0,1,6.79,836v3.77a1.43,1.43,0,0,0-.86.18,1.25,1.25,0,0,0-.47.66,3.46,3.46,0,0,0-.15,1.09,3.34,3.34,0,0,0,.17,1.16,1.55,1.55,0,0,0,.41.65,1.12,1.12,0,0,0,.5.25.87.87,0,0,0,.75-.2,2.17,2.17,0,0,0,.45-1.14L8,840.32a5.81,5.81,0,0,1,.79-2.24A3,3,0,0,1,10,837a3.42,3.42,0,0,1,1.34-.3,7,7,0,0,1,1.17.06,3.73,3.73,0,0,1,2.1,1.11A6.49,6.49,0,0,1,16,840.25,9.22,9.22,0,0,1,16.56,843.43Z" transform="translate(-2.44 -2.44)"/><path class="cls-2" d="M16.37,832.51,5.88,830.92v3.89l-3.25-.5V822.74l3.25.5v4l10.49,1.62Z" transform="translate(-2.44 -2.44)"/><path class="cls-2" d="M16.37,823.12,2.63,821V810.83l3.06.48v6.43l2.28.34v-5.36l3,.45v5.39l2.34.37v-6.48l3.08.47Z" transform="translate(-2.44 -2.44)"/><path class="cls-2" d="M16.37,810.64l-13.74-2.1v-3.72l13.74,2.09Z" transform="translate(-2.44 -2.44)"/><path class="cls-2" d="M16.56,798.24a5.82,5.82,0,0,1-.89,3.3,4.91,4.91,0,0,1-2.47,1.9,7.28,7.28,0,0,1-3.65.24,8.82,8.82,0,0,1-3.74-1.44,7.55,7.55,0,0,1-3.37-6.39,6,6,0,0,1,.72-3.08A4.37,4.37,0,0,1,5,791a4.17,4.17,0,0,1,2.44-.38v3.88a2.68,2.68,0,0,0-1,.24,1.73,1.73,0,0,0-.71.63,2,2,0,0,0-.26,1.06,2.7,2.7,0,0,0,.37,1.35,3.25,3.25,0,0,0,1.22,1.15,7.1,7.1,0,0,0,2.34.73,6.81,6.81,0,0,0,2,.05,2.34,2.34,0,0,0,1.18-.5,1.67,1.67,0,0,0,.55-.83,2.93,2.93,0,0,0,.15-.9,2.25,2.25,0,0,0-.12-.74,2.22,2.22,0,0,0-.3-.64,2.55,2.55,0,0,0-.41-.5,1.83,1.83,0,0,0-.46-.32l-.5-.24v2.4L9.07,797l0-6.31,7.26,1.11v2.43l-1.52-.22c.23.27.48.59.75,1a5.43,5.43,0,0,1,.68,1.32A5.9,5.9,0,0,1,16.56,798.24Z" transform="translate(-2.44 -2.44)"/><path class="cls-2" d="M16.37,790.26l-13.74-7v-3.77l13.74-2.79v3.67l-2.66.5v4.35l2.66,1.34Zm-5.82-6.32v-2.72l-4.38.67Z" transform="translate(-2.44 -2.44)"/><path class="cls-2" d="M12.25,768.08a2.79,2.79,0,0,1-.39,1.45,3,3,0,0,1-1,1.05,2.87,2.87,0,0,1-1.44.38A2.81,2.81,0,0,1,8,770.58a3,3,0,0,1-1-1.05,2.79,2.79,0,0,1-.39-1.45,2.83,2.83,0,0,1,.39-1.46,3.13,3.13,0,0,1,1-1,2.72,2.72,0,0,1,1.43-.39,2.78,2.78,0,0,1,1.44.39,3.16,3.16,0,0,1,1,1A2.83,2.83,0,0,1,12.25,768.08Z" transform="translate(-2.44 -2.44)"/><path class="cls-2" d="M16.37,760.13,2.63,758v-5.45a6.16,6.16,0,0,1,.54-2.66,3.7,3.7,0,0,1,1.58-1.71,4,4,0,0,1,2.54-.33,5,5,0,0,1,2.33,1,4.77,4.77,0,0,1,1.49,1.93,6.6,6.6,0,0,1,.53,2.7v2.21l4.73.73ZM8.88,755.3v-2.14a1.54,1.54,0,0,0-.26-.88,2.35,2.35,0,0,0-.67-.7,2.06,2.06,0,0,0-.85-.34,1.45,1.45,0,0,0-1.22.33,1.31,1.31,0,0,0-.51,1v2.13Z" transform="translate(-2.44 -2.44)"/><path class="cls-2" d="M16.37,748.29l-13.74-7v-3.78l13.74-2.78v3.66l-2.66.5v4.36l2.66,1.34ZM10.55,742v-2.72l-4.38.67Z" transform="translate(-2.44 -2.44)"/><path class="cls-2" d="M16.56,727.47a9.3,9.3,0,0,1-.25,2.11,5.76,5.76,0,0,1-.79,1.84,3.71,3.71,0,0,1-1.36,1.25,3.48,3.48,0,0,1-2,.36v-3.86a1.4,1.4,0,0,0,.82-.29,1.61,1.61,0,0,0,.53-.71,2.87,2.87,0,0,0,.19-1.11,5.13,5.13,0,0,0-.12-1.12,2.28,2.28,0,0,0-.38-.91,1.12,1.12,0,0,0-.76-.44.6.6,0,0,0-.64.23,2.17,2.17,0,0,0-.35.81,10.49,10.49,0,0,0-.22,1.09l-.36,2.08a3.74,3.74,0,0,1-1.28,2.42,3.53,3.53,0,0,1-2.77.6,4.14,4.14,0,0,1-2.37-1.14A5.94,5.94,0,0,1,3,728.35a8.37,8.37,0,0,1-.52-3,6.38,6.38,0,0,1,.61-2.91,4.78,4.78,0,0,1,1.6-1.85,3.55,3.55,0,0,1,2.12-.6v3.77a1.43,1.43,0,0,0-.86.19,1.18,1.18,0,0,0-.47.66,4,4,0,0,0,0,2.25,1.62,1.62,0,0,0,.41.65,1,1,0,0,0,.5.24.86.86,0,0,0,.75-.19,2.21,2.21,0,0,0,.45-1.14L8,724.36a5.86,5.86,0,0,1,.79-2.25A3,3,0,0,1,10,721a3.44,3.44,0,0,1,1.34-.31,8.17,8.17,0,0,1,1.17.07,3.66,3.66,0,0,1,2.1,1.1A6.57,6.57,0,0,1,16,724.28,9.32,9.32,0,0,1,16.56,727.47Z" transform="translate(-2.44 -2.44)"/><path class="cls-2" d="M16.37,716.55,5.88,715v3.9l-3.25-.5V706.78l3.25.5v4l10.49,1.61Z" transform="translate(-2.44 -2.44)"/><path class="cls-2" d="M16.37,707.16,2.63,705V694.88l3.06.48v6.42l2.28.35v-5.36l3,.45v5.39l2.34.36v-6.48l3.08.48Z" transform="translate(-2.44 -2.44)"/><path class="cls-2" d="M16.37,694.68l-13.74-2.1v-3.72L16.37,691Z" transform="translate(-2.44 -2.44)"/><path class="cls-2" d="M16.56,682.28a5.79,5.79,0,0,1-.89,3.29,4.86,4.86,0,0,1-2.47,1.9,7.39,7.39,0,0,1-3.65.25,9.09,9.09,0,0,1-3.74-1.44,7.82,7.82,0,0,1-2.49-2.76,7.71,7.71,0,0,1-.88-3.64,6,6,0,0,1,.72-3.08A4.43,4.43,0,0,1,5,675a4.17,4.17,0,0,1,2.44-.38v3.88a2.68,2.68,0,0,0-1,.25,1.71,1.71,0,0,0-.71.62,2,2,0,0,0-.26,1.07,2.66,2.66,0,0,0,.37,1.34,3.17,3.17,0,0,0,1.22,1.15,6.87,6.87,0,0,0,2.34.73,6.49,6.49,0,0,0,2,.05,2.34,2.34,0,0,0,1.18-.5,1.69,1.69,0,0,0,.55-.82,2.94,2.94,0,0,0,.15-.91,2.25,2.25,0,0,0-.12-.74,2.22,2.22,0,0,0-.3-.64,2.55,2.55,0,0,0-.41-.5,1.77,1.77,0,0,0-.46-.31l-.5-.24v2.39l-2.49-.38,0-6.31,7.26,1.11v2.44l-1.52-.22c.23.27.48.58.75.94a5.33,5.33,0,0,1,.68,1.33A5.9,5.9,0,0,1,16.56,682.28Z" transform="translate(-2.44 -2.44)"/><path class="cls-2" d="M16.37,674.29l-13.74-7v-3.77l13.74-2.78v3.66l-2.66.5v4.35l2.66,1.34ZM10.55,668v-2.73l-4.38.67Z" transform="translate(-2.44 -2.44)"/><path class="cls-2" d="M12.25,652.1a2.79,2.79,0,0,1-.39,1.45,3,3,0,0,1-1,1.05,2.78,2.78,0,0,1-1.44.39A2.72,2.72,0,0,1,8,654.6a3,3,0,0,1-1-1.05,2.89,2.89,0,0,1,0-2.9,3,3,0,0,1,1-1,2.64,2.64,0,0,1,1.43-.4,2.7,2.7,0,0,1,1.44.4,3,3,0,0,1,1,1A2.76,2.76,0,0,1,12.25,652.1Z" transform="translate(-2.44 -2.44)"/><path class="cls-2" d="M16.37,644.16,2.63,642v-5.45a6.18,6.18,0,0,1,.54-2.67,3.68,3.68,0,0,1,1.58-1.7,4,4,0,0,1,2.54-.33,5,5,0,0,1,2.33,1,4.87,4.87,0,0,1,1.49,1.94,6.6,6.6,0,0,1,.53,2.7v2.21l4.73.73Zm-7.49-4.84v-2.14a1.58,1.58,0,0,0-.26-.88,2.44,2.44,0,0,0-.67-.69,2.06,2.06,0,0,0-.85-.34,1.48,1.48,0,0,0-1.22.32,1.34,1.34,0,0,0-.51,1.06v2.13Z" transform="translate(-2.44 -2.44)"/><path class="cls-2" d="M16.37,632.34l-13.74-7v-3.78l13.74-2.78v3.66l-2.66.5v4.35l2.66,1.34ZM10.55,626V623.3L6.17,624Z" transform="translate(-2.44 -2.44)"/><path class="cls-2" d="M16.56,611.5a9.38,9.38,0,0,1-.25,2.12,5.7,5.7,0,0,1-.79,1.83,3.55,3.55,0,0,1-1.36,1.25,3.48,3.48,0,0,1-2,.36v-3.85a1.47,1.47,0,0,0,.82-.29,1.58,1.58,0,0,0,.53-.72,2.81,2.81,0,0,0,.19-1.1,5.06,5.06,0,0,0-.12-1.12,2.28,2.28,0,0,0-.38-.91,1.13,1.13,0,0,0-.76-.45.63.63,0,0,0-.64.24,2.17,2.17,0,0,0-.35.81,10.83,10.83,0,0,0-.22,1.08l-.36,2.08a3.77,3.77,0,0,1-1.28,2.43,3.53,3.53,0,0,1-2.77.6,4.27,4.27,0,0,1-2.37-1.14A5.94,5.94,0,0,1,3,612.39a8.37,8.37,0,0,1-.52-3,6.38,6.38,0,0,1,.61-2.91,4.74,4.74,0,0,1,1.6-1.86,3.61,3.61,0,0,1,2.12-.59v3.77a1.36,1.36,0,0,0-.86.19,1.19,1.19,0,0,0-.47.65,3.48,3.48,0,0,0-.15,1.1,3.38,3.38,0,0,0,.17,1.16,1.51,1.51,0,0,0,.41.64,1.12,1.12,0,0,0,.5.25.87.87,0,0,0,.75-.2,2.13,2.13,0,0,0,.45-1.14L8,608.39a5.87,5.87,0,0,1,.79-2.24A2.9,2.9,0,0,1,10,605.08a3.27,3.27,0,0,1,1.34-.31,6,6,0,0,1,1.17.07,3.66,3.66,0,0,1,2.1,1.1A6.49,6.49,0,0,1,16,608.32,9.22,9.22,0,0,1,16.56,611.5Z" transform="translate(-2.44 -2.44)"/><path class="cls-2" d="M16.37,600.56,5.88,599v3.89l-3.25-.49V590.8l3.25.5v4l10.49,1.61Z" transform="translate(-2.44 -2.44)"/><path class="cls-2" d="M16.37,591.18,2.63,589.06V578.89l3.06.48v6.43l2.28.34v-5.36l3,.45v5.39l2.34.37V580.5l3.08.48Z" transform="translate(-2.44 -2.44)"/><path class="cls-2" d="M16.37,578.7,2.63,576.6v-3.72L16.37,575Z" transform="translate(-2.44 -2.44)"/><path class="cls-2" d="M16.56,566.31a5.79,5.79,0,0,1-.89,3.29,4.86,4.86,0,0,1-2.47,1.9,7.39,7.39,0,0,1-3.65.25,9.09,9.09,0,0,1-3.74-1.44,7.82,7.82,0,0,1-2.49-2.76,7.68,7.68,0,0,1-.88-3.64,6,6,0,0,1,.72-3.08A4.43,4.43,0,0,1,5,559a4.09,4.09,0,0,1,2.44-.37v3.87a2.88,2.88,0,0,0-1,.25,1.71,1.71,0,0,0-.71.62,2,2,0,0,0-.26,1.07,2.63,2.63,0,0,0,.37,1.34A3.1,3.1,0,0,0,7.09,567a6.87,6.87,0,0,0,2.34.73,6.21,6.21,0,0,0,2,0,2.34,2.34,0,0,0,1.18-.5,1.69,1.69,0,0,0,.55-.82,2.94,2.94,0,0,0,.15-.91,2.25,2.25,0,0,0-.12-.74,2.35,2.35,0,0,0-.3-.64,2.55,2.55,0,0,0-.41-.5,1.77,1.77,0,0,0-.46-.31l-.5-.24v2.39l-2.49-.38,0-6.31,7.26,1.11v2.44l-1.52-.22c.23.27.48.58.75.94a5.51,5.51,0,0,1,.68,1.33A5.9,5.9,0,0,1,16.56,566.31Z" transform="translate(-2.44 -2.44)"/><path class="cls-2" d="M16.37,558.32l-13.74-7v-3.78l13.74-2.78v3.66l-2.66.5v4.35l2.66,1.35ZM10.55,552v-2.73L6.17,550Z" transform="translate(-2.44 -2.44)"/><path class="cls-2" d="M12.25,536.12a2.79,2.79,0,0,1-.39,1.45,3,3,0,0,1-1,1,2.87,2.87,0,0,1-1.44.38A2.81,2.81,0,0,1,8,538.62a3,3,0,0,1-1-1,2.79,2.79,0,0,1-.39-1.45,2.83,2.83,0,0,1,.39-1.46,3.13,3.13,0,0,1,1-1,2.72,2.72,0,0,1,1.43-.39,2.78,2.78,0,0,1,1.44.39,3.16,3.16,0,0,1,1,1A2.83,2.83,0,0,1,12.25,536.12Z" transform="translate(-2.44 -2.44)"/><path class="cls-2" d="M16.37,528.2,2.63,526.08v-5.45A6.18,6.18,0,0,1,3.17,518a3.68,3.68,0,0,1,1.58-1.7,4,4,0,0,1,2.54-.33,5,5,0,0,1,2.33,1,4.87,4.87,0,0,1,1.49,1.94,6.6,6.6,0,0,1,.53,2.7v2.21l4.73.73Zm-7.49-4.84v-2.14a1.58,1.58,0,0,0-.26-.88,2.44,2.44,0,0,0-.67-.69,2.06,2.06,0,0,0-.85-.34,1.44,1.44,0,0,0-1.22.32,1.34,1.34,0,0,0-.51,1.06v2.13Z" transform="translate(-2.44 -2.44)"/><path class="cls-2" d="M16.37,516.37l-13.74-7v-3.78l13.74-2.78v3.67l-2.66.5v4.35l2.66,1.34Zm-5.82-6.31v-2.72L6.17,508Z" transform="translate(-2.44 -2.44)"/><path class="cls-2" d="M16.56,495.54a9.32,9.32,0,0,1-.25,2.12,5.76,5.76,0,0,1-.79,1.84,3.71,3.71,0,0,1-1.36,1.25,3.65,3.65,0,0,1-2,.36v-3.86A1.4,1.4,0,0,0,13,497a1.58,1.58,0,0,0,.53-.72,2.78,2.78,0,0,0,.19-1.1,5.13,5.13,0,0,0-.12-1.12,2.28,2.28,0,0,0-.38-.91,1.12,1.12,0,0,0-.76-.44.6.6,0,0,0-.64.23,2.17,2.17,0,0,0-.35.81,10.49,10.49,0,0,0-.22,1.09l-.36,2.08a3.74,3.74,0,0,1-1.28,2.42,3.53,3.53,0,0,1-2.77.6,4.2,4.2,0,0,1-2.37-1.14A5.94,5.94,0,0,1,3,496.43a8.37,8.37,0,0,1-.52-3,6.38,6.38,0,0,1,.61-2.91,4.71,4.71,0,0,1,1.6-1.85,3.55,3.55,0,0,1,2.12-.6v3.77a1.43,1.43,0,0,0-.86.19,1.18,1.18,0,0,0-.47.66,4,4,0,0,0,0,2.25,1.62,1.62,0,0,0,.41.65,1.09,1.09,0,0,0,.5.24.84.84,0,0,0,.75-.2,2.13,2.13,0,0,0,.45-1.13L8,492.44a5.86,5.86,0,0,1,.79-2.25A3,3,0,0,1,10,489.12a3.44,3.44,0,0,1,1.34-.31,8.17,8.17,0,0,1,1.17.07,3.66,3.66,0,0,1,2.1,1.1A6.57,6.57,0,0,1,16,492.36,9.31,9.31,0,0,1,16.56,495.54Z" transform="translate(-2.44 -2.44)"/><path class="cls-2" d="M16.37,484.62,5.88,483v3.9l-3.25-.5V474.86l3.25.5v3.95l10.49,1.61Z" transform="translate(-2.44 -2.44)"/><path class="cls-2" d="M16.37,475.21,2.63,473.09V462.93l3.06.48v6.42l2.28.35v-5.36l3,.45v5.39l2.34.36v-6.48l3.08.48Z" transform="translate(-2.44 -2.44)"/><path class="cls-2" d="M16.37,462.72l-13.74-2.1v-3.73L16.37,459Z" transform="translate(-2.44 -2.44)"/><path class="cls-2" d="M16.56,450.35a5.85,5.85,0,0,1-.89,3.3,4.91,4.91,0,0,1-2.47,1.9,7.28,7.28,0,0,1-3.65.24,8.82,8.82,0,0,1-3.74-1.44A7.59,7.59,0,0,1,2.44,448a6,6,0,0,1,.72-3.07A4.37,4.37,0,0,1,5,443.09a4.1,4.1,0,0,1,2.44-.38v3.87a2.88,2.88,0,0,0-1,.25,1.66,1.66,0,0,0-.71.63,2,2,0,0,0-.26,1.06,2.63,2.63,0,0,0,.37,1.34A3.1,3.1,0,0,0,7.09,451a6.66,6.66,0,0,0,2.34.73,6.55,6.55,0,0,0,2,.06,2.44,2.44,0,0,0,1.18-.5,1.71,1.71,0,0,0,.55-.83,2.93,2.93,0,0,0,.15-.9,2.31,2.31,0,0,0-.12-.75,2.61,2.61,0,0,0-.71-1.13,1.83,1.83,0,0,0-.46-.32l-.5-.24v2.4l-2.49-.39,0-6.31L16.37,444v2.43l-1.52-.22c.23.27.48.58.75.95a5.43,5.43,0,0,1,.68,1.32A5.9,5.9,0,0,1,16.56,450.35Z" transform="translate(-2.44 -2.44)"/><path class="cls-2" d="M16.37,442.36l-13.74-7v-3.78l13.74-2.78v3.66l-2.66.5v4.35l2.66,1.35Zm-5.82-6.31v-2.73L6.17,434Z" transform="translate(-2.44 -2.44)"/><path class="cls-2" d="M12.25,420.16a2.83,2.83,0,0,1-.39,1.46,3,3,0,0,1-1,1,2.78,2.78,0,0,1-1.44.39A2.72,2.72,0,0,1,8,422.66a3,3,0,0,1-1-1,2.83,2.83,0,0,1-.39-1.46,2.79,2.79,0,0,1,.39-1.45,3,3,0,0,1,1-1,2.72,2.72,0,0,1,1.43-.39,2.78,2.78,0,0,1,1.44.39,3,3,0,0,1,1,1A2.79,2.79,0,0,1,12.25,420.16Z" transform="translate(-2.44 -2.44)"/><path class="cls-2" d="M16.37,412.24,2.63,410.12v-5.45A6.16,6.16,0,0,1,3.17,402a3.66,3.66,0,0,1,1.58-1.71A4,4,0,0,1,7.29,400a4.93,4.93,0,0,1,2.33,1,4.77,4.77,0,0,1,1.49,1.93,6.6,6.6,0,0,1,.53,2.7v2.21l4.73.73Zm-7.49-4.83v-2.14a1.59,1.59,0,0,0-.26-.89,2.44,2.44,0,0,0-.67-.69,2.06,2.06,0,0,0-.85-.34,1.48,1.48,0,0,0-1.22.32,1.34,1.34,0,0,0-.51,1.06v2.13Z" transform="translate(-2.44 -2.44)"/><path class="cls-2" d="M16.37,400.4l-13.74-7v-3.77l13.74-2.79v3.67l-2.66.5v4.35l2.66,1.34Zm-5.82-6.31v-2.73L6.17,392Z" transform="translate(-2.44 -2.44)"/><path class="cls-2" d="M16.56,379.58a9.32,9.32,0,0,1-.25,2.12,5.7,5.7,0,0,1-.79,1.83,3.45,3.45,0,0,1-3.33,1.62v-3.86A1.47,1.47,0,0,0,13,381a1.58,1.58,0,0,0,.53-.72,2.78,2.78,0,0,0,.19-1.1,5.13,5.13,0,0,0-.12-1.12,2.28,2.28,0,0,0-.38-.91,1.12,1.12,0,0,0-.76-.44.6.6,0,0,0-.64.23,2.17,2.17,0,0,0-.35.81,10.83,10.83,0,0,0-.22,1.08l-.36,2.09a3.77,3.77,0,0,1-1.28,2.42,3.53,3.53,0,0,1-2.77.6,4.27,4.27,0,0,1-2.37-1.14A5.94,5.94,0,0,1,3,380.47a8.37,8.37,0,0,1-.52-3,6.38,6.38,0,0,1,.61-2.91,4.64,4.64,0,0,1,1.6-1.85,3.55,3.55,0,0,1,2.12-.6v3.77a1.36,1.36,0,0,0-.86.19,1.19,1.19,0,0,0-.47.65,3.48,3.48,0,0,0-.15,1.1A3.38,3.38,0,0,0,5.48,379a1.51,1.51,0,0,0,.41.64,1.12,1.12,0,0,0,.5.25.87.87,0,0,0,.75-.2,2.13,2.13,0,0,0,.45-1.13L8,376.48a5.86,5.86,0,0,1,.79-2.25A3,3,0,0,1,10,373.16a3.44,3.44,0,0,1,1.34-.31,6.94,6.94,0,0,1,1.17.07,3.66,3.66,0,0,1,2.1,1.1A6.49,6.49,0,0,1,16,376.4,9.26,9.26,0,0,1,16.56,379.58Z" transform="translate(-2.44 -2.44)"/><path class="cls-2" d="M16.37,368.65,5.88,367.06V371l-3.25-.5V358.88l3.25.5v3.95L16.37,365Z" transform="translate(-2.44 -2.44)"/><path class="cls-2" d="M16.37,359.25,2.63,357.13V347l3.06.48v6.43l2.28.34v-5.36l3,.45v5.39l2.34.36v-6.48l3.08.48Z" transform="translate(-2.44 -2.44)"/><path class="cls-2" d="M16.37,346.76l-13.74-2.1v-3.72L16.37,343Z" transform="translate(-2.44 -2.44)"/><path class="cls-2" d="M16.56,334.38a5.82,5.82,0,0,1-.89,3.3,4.91,4.91,0,0,1-2.47,1.9,7.28,7.28,0,0,1-3.65.24,8.82,8.82,0,0,1-3.74-1.44A7.55,7.55,0,0,1,2.44,332a6,6,0,0,1,.72-3.08A4.37,4.37,0,0,1,5,327.12a4.17,4.17,0,0,1,2.44-.38v3.88a2.68,2.68,0,0,0-1,.24,1.73,1.73,0,0,0-.71.63,2,2,0,0,0-.26,1.06,2.7,2.7,0,0,0,.37,1.35,3.25,3.25,0,0,0,1.22,1.15,7.1,7.1,0,0,0,2.34.73,6.81,6.81,0,0,0,2,.05,2.34,2.34,0,0,0,1.18-.5,1.71,1.71,0,0,0,.55-.83,2.93,2.93,0,0,0,.15-.9,2.36,2.36,0,0,0-.12-.75,2.29,2.29,0,0,0-.3-.63,2.55,2.55,0,0,0-.41-.5,1.83,1.83,0,0,0-.46-.32l-.5-.24v2.4l-2.49-.38,0-6.31L16.37,328v2.43l-1.52-.22c.23.27.48.59.75.95a5.43,5.43,0,0,1,.68,1.32A5.9,5.9,0,0,1,16.56,334.38Z" transform="translate(-2.44 -2.44)"/><path class="cls-2" d="M16.37,326.37l-13.74-7v-3.78l13.74-2.78v3.66l-2.66.5v4.36l2.66,1.34Zm-5.82-6.31v-2.72L6.17,318Z" transform="translate(-2.44 -2.44)"/><path class="cls-2" d="M12.25,304.19a2.83,2.83,0,0,1-.39,1.46,3,3,0,0,1-1,1,2.78,2.78,0,0,1-1.44.39A2.72,2.72,0,0,1,8,306.69a3,3,0,0,1-1-1,2.83,2.83,0,0,1-.39-1.46,2.79,2.79,0,0,1,.39-1.45,3,3,0,0,1,1-1.05,2.72,2.72,0,0,1,1.43-.39,2.78,2.78,0,0,1,1.44.39,3,3,0,0,1,1,1.05A2.79,2.79,0,0,1,12.25,304.19Z" transform="translate(-2.44 -2.44)"/><path class="cls-2" d="M16.37,296.26,2.63,294.14V288.7A6.18,6.18,0,0,1,3.17,286a3.63,3.63,0,0,1,1.58-1.7A3.9,3.9,0,0,1,7.29,284a5,5,0,0,1,2.33,1,4.8,4.8,0,0,1,1.49,1.94,6.6,6.6,0,0,1,.53,2.7v2.2l4.73.73Zm-7.49-4.83v-2.14a1.56,1.56,0,0,0-.26-.88,2.21,2.21,0,0,0-.67-.69,2.08,2.08,0,0,0-.85-.35,1.45,1.45,0,0,0-1.22.33,1.33,1.33,0,0,0-.51,1.05v2.13Z" transform="translate(-2.44 -2.44)"/><path class="cls-2" d="M16.37,284.42l-13.74-7v-3.78l13.74-2.78v3.66l-2.66.5v4.35l2.66,1.35Zm-5.82-6.31v-2.73l-4.38.67Z" transform="translate(-2.44 -2.44)"/><path class="cls-2" d="M16.56,263.62a9.23,9.23,0,0,1-.25,2.11,5.76,5.76,0,0,1-.79,1.84,3.63,3.63,0,0,1-1.36,1.25,3.48,3.48,0,0,1-2,.36v-3.85A1.47,1.47,0,0,0,13,265a1.58,1.58,0,0,0,.53-.72,2.85,2.85,0,0,0,.19-1.1,5.22,5.22,0,0,0-.12-1.13,2.23,2.23,0,0,0-.38-.9,1.09,1.09,0,0,0-.76-.45.63.63,0,0,0-.64.24,2.17,2.17,0,0,0-.35.81,10.83,10.83,0,0,0-.22,1.08L10.9,265a3.74,3.74,0,0,1-1.28,2.42,3.45,3.45,0,0,1-2.77.6,4.19,4.19,0,0,1-2.37-1.13A6,6,0,0,1,3,264.51a8.41,8.41,0,0,1-.52-3,6.38,6.38,0,0,1,.61-2.91,4.74,4.74,0,0,1,1.6-1.86,3.54,3.54,0,0,1,2.12-.59v3.77a1.43,1.43,0,0,0-.86.18,1.25,1.25,0,0,0-.47.66,3.41,3.41,0,0,0-.15,1.09A3.34,3.34,0,0,0,5.48,263a1.55,1.55,0,0,0,.41.65,1.12,1.12,0,0,0,.5.25.87.87,0,0,0,.75-.2,2.17,2.17,0,0,0,.45-1.14L8,260.51a5.81,5.81,0,0,1,.79-2.24A3,3,0,0,1,10,257.19a3.42,3.42,0,0,1,1.34-.3,7,7,0,0,1,1.17.06,3.73,3.73,0,0,1,2.1,1.11A6.49,6.49,0,0,1,16,260.44,9.22,9.22,0,0,1,16.56,263.62Z" transform="translate(-2.44 -2.44)"/><path class="cls-2" d="M16.37,252.67,5.88,251.08V255l-3.25-.5V242.91l3.25.5v4L16.37,249Z" transform="translate(-2.44 -2.44)"/><path class="cls-2" d="M16.37,243.29,2.63,241.17V231l3.06.48v6.42l2.28.35V232.9l3,.45v5.39l2.34.36v-6.48l3.08.48Z" transform="translate(-2.44 -2.44)"/><path class="cls-2" d="M16.37,230.8,2.63,228.7V225l13.74,2.09Z" transform="translate(-2.44 -2.44)"/><path class="cls-2" d="M16.56,218.41a5.79,5.79,0,0,1-.89,3.29,4.86,4.86,0,0,1-2.47,1.9,7.39,7.39,0,0,1-3.65.25,9.09,9.09,0,0,1-3.74-1.44,7.82,7.82,0,0,1-2.49-2.76A7.71,7.71,0,0,1,2.44,216a6,6,0,0,1,.72-3.08A4.43,4.43,0,0,1,5,211.14a4.17,4.17,0,0,1,2.44-.38v3.88a2.68,2.68,0,0,0-1,.25,1.71,1.71,0,0,0-.71.62,2,2,0,0,0-.26,1.07,2.66,2.66,0,0,0,.37,1.34,3.17,3.17,0,0,0,1.22,1.15,6.87,6.87,0,0,0,2.34.73,6.49,6.49,0,0,0,2,0,2.34,2.34,0,0,0,1.18-.5,1.69,1.69,0,0,0,.55-.82,2.94,2.94,0,0,0,.15-.91,2.25,2.25,0,0,0-.12-.74,2.22,2.22,0,0,0-.3-.64,2.55,2.55,0,0,0-.41-.5,1.77,1.77,0,0,0-.46-.31l-.5-.24v2.39l-2.49-.38,0-6.31L16.37,212v2.44l-1.52-.22c.23.27.48.58.75.94a5.33,5.33,0,0,1,.68,1.33A5.9,5.9,0,0,1,16.56,218.41Z" transform="translate(-2.44 -2.44)"/><path class="cls-2" d="M16.37,210.43l-13.74-7v-3.78l13.74-2.78v3.66l-2.66.5v4.36l2.66,1.34Zm-5.82-6.31V201.4l-4.38.67Z" transform="translate(-2.44 -2.44)"/><path class="cls-2" d="M12.25,188.24a2.83,2.83,0,0,1-.39,1.46,3,3,0,0,1-1,1,2.78,2.78,0,0,1-1.44.39A2.72,2.72,0,0,1,8,190.74a3,3,0,0,1-1-1,2.83,2.83,0,0,1-.39-1.46,2.79,2.79,0,0,1,.39-1.45,3,3,0,0,1,1-1,2.72,2.72,0,0,1,1.43-.39,2.78,2.78,0,0,1,1.44.39,3,3,0,0,1,1,1A2.79,2.79,0,0,1,12.25,188.24Z" transform="translate(-2.44 -2.44)"/><path class="cls-2" d="M16.37,180.3,2.63,178.18v-5.44a6.18,6.18,0,0,1,.54-2.67,3.63,3.63,0,0,1,1.58-1.7A3.9,3.9,0,0,1,7.29,168a5,5,0,0,1,2.33,1,4.8,4.8,0,0,1,1.49,1.94,6.6,6.6,0,0,1,.53,2.7v2.2l4.73.73Zm-7.49-4.83v-2.14a1.56,1.56,0,0,0-.26-.88,2.21,2.21,0,0,0-.67-.69,2.08,2.08,0,0,0-.85-.35,1.45,1.45,0,0,0-1.22.33,1.33,1.33,0,0,0-.51,1v2.13Z" transform="translate(-2.44 -2.44)"/><path class="cls-2" d="M16.37,168.46l-13.74-7v-3.77l13.74-2.79v3.67l-2.66.5v4.35l2.66,1.34Zm-5.82-6.32v-2.72l-4.38.67Z" transform="translate(-2.44 -2.44)"/><path class="cls-2" d="M16.56,147.63a9.23,9.23,0,0,1-.25,2.11,5.76,5.76,0,0,1-.79,1.84,3.63,3.63,0,0,1-1.36,1.25,3.48,3.48,0,0,1-2,.36v-3.85a1.47,1.47,0,0,0,.82-.29,1.58,1.58,0,0,0,.53-.72,2.81,2.81,0,0,0,.19-1.1,5.22,5.22,0,0,0-.12-1.13,2.23,2.23,0,0,0-.38-.9,1.09,1.09,0,0,0-.76-.45.63.63,0,0,0-.64.24,2.17,2.17,0,0,0-.35.81,10.83,10.83,0,0,0-.22,1.08L10.9,149a3.74,3.74,0,0,1-1.28,2.42,3.45,3.45,0,0,1-2.77.6,4.19,4.19,0,0,1-2.37-1.13A6,6,0,0,1,3,148.52a8.41,8.41,0,0,1-.52-3,6.38,6.38,0,0,1,.61-2.91,4.74,4.74,0,0,1,1.6-1.86,3.54,3.54,0,0,1,2.12-.59V144a1.43,1.43,0,0,0-.86.18,1.25,1.25,0,0,0-.47.66,3.41,3.41,0,0,0-.15,1.09A3.34,3.34,0,0,0,5.48,147a1.55,1.55,0,0,0,.41.65,1.12,1.12,0,0,0,.5.25.87.87,0,0,0,.75-.2,2.17,2.17,0,0,0,.45-1.14L8,144.52a5.81,5.81,0,0,1,.79-2.24A3,3,0,0,1,10,141.2a3.42,3.42,0,0,1,1.34-.3,7,7,0,0,1,1.17.06,3.73,3.73,0,0,1,2.1,1.11A6.49,6.49,0,0,1,16,144.45,9.22,9.22,0,0,1,16.56,147.63Z" transform="translate(-2.44 -2.44)"/><path class="cls-2" d="M16.37,136.7,5.88,135.11V139l-3.25-.5V126.94l3.25.5v3.95L16.37,133Z" transform="translate(-2.44 -2.44)"/><path class="cls-2" d="M16.37,127.33,2.63,125.21V115l3.06.48V122l2.28.34v-5.36l3,.45v5.39l2.34.37v-6.49l3.08.48Z" transform="translate(-2.44 -2.44)"/><path class="cls-2" d="M16.37,114.82l-13.74-2.1V109l13.74,2.09Z" transform="translate(-2.44 -2.44)"/><path class="cls-2" d="M16.56,102.44a5.79,5.79,0,0,1-.89,3.29,4.86,4.86,0,0,1-2.47,1.9,7.39,7.39,0,0,1-3.65.25,9.09,9.09,0,0,1-3.74-1.44,7.82,7.82,0,0,1-2.49-2.76A7.71,7.71,0,0,1,2.44,100,6,6,0,0,1,3.16,97,4.43,4.43,0,0,1,5,95.17a4.17,4.17,0,0,1,2.44-.38v3.88a2.68,2.68,0,0,0-1,.25,1.71,1.71,0,0,0-.71.62,2,2,0,0,0-.26,1.07A2.66,2.66,0,0,0,5.87,102a3.17,3.17,0,0,0,1.22,1.15,6.87,6.87,0,0,0,2.34.73,6.49,6.49,0,0,0,2,0,2.34,2.34,0,0,0,1.18-.5,1.69,1.69,0,0,0,.55-.82,2.94,2.94,0,0,0,.15-.91,2.25,2.25,0,0,0-.12-.74,2.22,2.22,0,0,0-.3-.64,2.55,2.55,0,0,0-.41-.5,2.13,2.13,0,0,0-.46-.32l-.5-.23v2.39l-2.49-.38,0-6.31L16.37,96v2.44l-1.52-.22c.23.26.48.58.75.94a5.43,5.43,0,0,1,.68,1.32A6,6,0,0,1,16.56,102.44Z" transform="translate(-2.44 -2.44)"/><path class="cls-2" d="M16.37,94.43l-13.74-7V83.65l13.74-2.78v3.67L13.71,85v4.36l2.66,1.34Zm-5.82-6.31V85.4l-4.38.67Z" transform="translate(-2.44 -2.44)"/><path class="cls-2" d="M12.25,72.3a2.9,2.9,0,0,1-1.46,2.48,2.75,2.75,0,0,1-1.44.38,2.89,2.89,0,0,1-2.41-4.37,2.91,2.91,0,0,1,1-1,2.71,2.71,0,0,1,1.43-.38,2.83,2.83,0,0,1,1.43.41,3,3,0,0,1,1,1.07A2.77,2.77,0,0,1,12.25,72.3Z" transform="translate(-2.44 -2.44)"/><path class="cls-2" d="M16.53,65.23,3.31,61l.86-5.37a6.35,6.35,0,0,1,1-2.55A3.68,3.68,0,0,1,7,51.6a3.94,3.94,0,0,1,2.55.08,4.82,4.82,0,0,1,3.32,3.47,6.8,6.8,0,0,1,.08,2.75l-.35,2.18,4.56,1.47Zm-6.62-6,.34-2.11a1.63,1.63,0,0,0-.12-.92,2.22,2.22,0,0,0-.55-.78A2,2,0,0,0,8.79,55a1.44,1.44,0,0,0-1.25.13,1.32,1.32,0,0,0-.67,1l-.34,2.1Z" transform="translate(-2.44 -2.44)"/><path class="cls-2" d="M18.07,54.37,7.24,43.4l1.18-3.59L22.34,41.5,21.19,45l-2.69-.36-1.37,4.13,2.11,2.11Zm-3.53-7.82L15.4,44,11,43.22Z" transform="translate(-2.44 -2.44)"/><path class="cls-2" d="M25.46,36.13a9,9,0,0,1-1.26,1.71,6,6,0,0,1-1.59,1.22,3.78,3.78,0,0,1-1.8.42,3.66,3.66,0,0,1-1.9-.66l1.9-3.36a1.49,1.49,0,0,0,.86.16,1.64,1.64,0,0,0,.82-.37,2.9,2.9,0,0,0,.7-.87,5.46,5.46,0,0,0,.45-1,2.44,2.44,0,0,0,.12-1,1.18,1.18,0,0,0-.44-.76.64.64,0,0,0-.68-.11,2.16,2.16,0,0,0-.7.53c-.24.25-.48.53-.73.84L19.87,34.5A3.77,3.77,0,0,1,17.57,36a3.56,3.56,0,0,1-2.71-.84A4.26,4.26,0,0,1,13.36,33a6.11,6.11,0,0,1-.16-2.77,8.57,8.57,0,0,1,1-2.85,6.45,6.45,0,0,1,2-2.23,4.62,4.62,0,0,1,2.31-.82,3.51,3.51,0,0,1,2.14.52l-1.86,3.28a1.39,1.39,0,0,0-.84-.26,1.23,1.23,0,0,0-.74.34,3.42,3.42,0,0,0-.66.88,3.34,3.34,0,0,0-.43,1.09,1.46,1.46,0,0,0,0,.77,1,1,0,0,0,.31.46.87.87,0,0,0,.75.2,2.2,2.2,0,0,0,.95-.77l1.34-1.64a5.93,5.93,0,0,1,1.79-1.56,3,3,0,0,1,1.59-.34,3.35,3.35,0,0,1,1.31.4,6.29,6.29,0,0,1,1,.64,3.58,3.58,0,0,1,1.28,2,6.31,6.31,0,0,1,.1,2.79A9.27,9.27,0,0,1,25.46,36.13Z" transform="translate(-2.44 -2.44)"/><path class="cls-2" d="M30.59,28,24,19.71l-2.65,2.85-2-2.57,7.86-8.48,2.05,2.57L26.51,17l6.59,8.31Z" transform="translate(-2.44 -2.44)"/><path class="cls-2" d="M35.73,22.15l-4.88-13,8.86-5,1.08,2.9-5.6,3.15L36,12.36l4.67-2.62,1.07,2.82-4.7,2.64.83,2.22,5.65-3.18,1.09,2.92Z" transform="translate(-2.44 -2.44)"/><path class="cls-2" d="M45.23,17.21,44.77,3.32l3.65-.69.48,13.89Z" transform="translate(-2.44 -2.44)"/><path class="cls-2" d="M56.53,16.56a5.85,5.85,0,0,1-3.3-.89,4.87,4.87,0,0,1-1.9-2.47,7.28,7.28,0,0,1-.24-3.65,8.82,8.82,0,0,1,1.44-3.74,7.62,7.62,0,0,1,6.39-3.37A6,6,0,0,1,62,3.16,4.42,4.42,0,0,1,63.79,5a4.1,4.1,0,0,1,.38,2.44H60.3a2.88,2.88,0,0,0-.25-1,1.66,1.66,0,0,0-.63-.71,2,2,0,0,0-1.06-.26A2.63,2.63,0,0,0,57,5.87a3.19,3.19,0,0,0-1.16,1.22,6.88,6.88,0,0,0-.72,2.34,6.55,6.55,0,0,0-.06,2,2.52,2.52,0,0,0,.5,1.19,1.86,1.86,0,0,0,.83.55,3.23,3.23,0,0,0,.9.14,2.31,2.31,0,0,0,.75-.12,2.59,2.59,0,0,0,.63-.29,2.64,2.64,0,0,0,.5-.42,1.83,1.83,0,0,0,.32-.46l.24-.5h-2.4l.39-2.49,6.31,0-1.12,7.26H60.5l.22-1.52c-.27.23-.59.48-.95.75a5.1,5.1,0,0,1-1.32.68A5.64,5.64,0,0,1,56.53,16.56Z" transform="translate(-2.44 -2.44)"/><path class="cls-2" d="M64.51,16.37l7-13.74h3.78l2.78,13.74H74.41l-.5-2.66H69.56l-1.34,2.66Zm6.31-5.81h2.73l-.67-4.39Z" transform="translate(-2.44 -2.44)"/><path class="cls-2" d="M86.71,12.25a2.83,2.83,0,0,1-1.46-.39,3,3,0,0,1-1-1,2.78,2.78,0,0,1-.39-1.44A2.72,2.72,0,0,1,84.21,8a3,3,0,0,1,1-1,2.83,2.83,0,0,1,1.46-.39,2.79,2.79,0,0,1,1.45.39,3,3,0,0,1,1,1,2.72,2.72,0,0,1,.39,1.43,2.78,2.78,0,0,1-.39,1.44,3,3,0,0,1-1,1A2.79,2.79,0,0,1,86.71,12.25Z" transform="translate(-2.44 -2.44)"/><path class="cls-2" d="M94.63,16.37,96.75,2.63h5.45a6.13,6.13,0,0,1,2.66.54,3.63,3.63,0,0,1,1.71,1.59,4,4,0,0,1,.33,2.53,4.93,4.93,0,0,1-1,2.33,4.88,4.88,0,0,1-1.93,1.5,6.77,6.77,0,0,1-2.7.52H99.09l-.73,4.73Zm4.84-7.49h2.13a1.59,1.59,0,0,0,.89-.26,2.44,2.44,0,0,0,.69-.67,2,2,0,0,0,.34-.85,1.49,1.49,0,0,0-.32-1.22,1.34,1.34,0,0,0-1.06-.51H100Z" transform="translate(-2.44 -2.44)"/><path class="cls-2" d="M106.48,16.37l7-13.74h3.78L120,16.37h-3.66l-.5-2.66h-4.35l-1.35,2.66Zm6.31-5.81h2.73l-.68-4.39Z" transform="translate(-2.44 -2.44)"/><path class="cls-2" d="M127.31,16.56a8.76,8.76,0,0,1-2.11-.25,5.76,5.76,0,0,1-1.84-.79,3.76,3.76,0,0,1-1.25-1.35,3.51,3.51,0,0,1-.36-2h3.86a1.46,1.46,0,0,0,.29.83,1.67,1.67,0,0,0,.71.52,2.87,2.87,0,0,0,1.11.19,5.13,5.13,0,0,0,1.12-.12,2.28,2.28,0,0,0,.91-.38,1.12,1.12,0,0,0,.44-.76.61.61,0,0,0-.23-.64,2.17,2.17,0,0,0-.81-.35,10.49,10.49,0,0,0-1.09-.22L126,10.9a3.74,3.74,0,0,1-2.42-1.28,3.52,3.52,0,0,1-.6-2.77,4.2,4.2,0,0,1,1.14-2.37A5.94,5.94,0,0,1,126.43,3a8.37,8.37,0,0,1,3-.52,6.51,6.51,0,0,1,2.91.61,4.72,4.72,0,0,1,1.85,1.61,3.5,3.5,0,0,1,.6,2.11H131a1.43,1.43,0,0,0-.19-.86,1.23,1.23,0,0,0-.66-.47,3.41,3.41,0,0,0-1.09-.15,3.34,3.34,0,0,0-1.16.17,1.53,1.53,0,0,0-.65.42.94.94,0,0,0-.24.49.86.86,0,0,0,.19.75,2.21,2.21,0,0,0,1.14.45l2.08.36a5.69,5.69,0,0,1,2.25.8A3,3,0,0,1,133.74,10a3.44,3.44,0,0,1,.31,1.34,8.17,8.17,0,0,1-.07,1.17,3.72,3.72,0,0,1-1.1,2.1A6.57,6.57,0,0,1,130.5,16,9.32,9.32,0,0,1,127.31,16.56Z" transform="translate(-2.44 -2.44)"/><path class="cls-2" d="M138.24,16.37l1.59-10.49h-3.89l.5-3.25H148l-.49,3.25h-4l-1.61,10.49Z" transform="translate(-2.44 -2.44)"/><path class="cls-2" d="M147.64,16.37l2.12-13.74h10.17l-.48,3.06H153L152.68,8H158l-.45,3H152.2l-.37,2.34h6.48l-.48,3.08Z" transform="translate(-2.44 -2.44)"/><path class="cls-2" d="M160.1,16.37l2.1-13.74h3.72l-2.09,13.74Z" transform="translate(-2.44 -2.44)"/><path class="cls-2" d="M172.51,16.56a5.79,5.79,0,0,1-3.29-.89,4.81,4.81,0,0,1-1.9-2.47,7.39,7.39,0,0,1-.25-3.65,9.09,9.09,0,0,1,1.44-3.74,7.7,7.7,0,0,1,2.76-2.48,7.6,7.6,0,0,1,3.64-.89,6,6,0,0,1,3.08.72A4.48,4.48,0,0,1,179.78,5a4.17,4.17,0,0,1,.38,2.44h-3.88a2.68,2.68,0,0,0-.25-1,1.71,1.71,0,0,0-.62-.71,2,2,0,0,0-1.07-.26,2.66,2.66,0,0,0-1.34.37,3.17,3.17,0,0,0-1.15,1.22,6.87,6.87,0,0,0-.73,2.34,6.49,6.49,0,0,0-.05,2,2.42,2.42,0,0,0,.5,1.19,1.84,1.84,0,0,0,.82.55,3.25,3.25,0,0,0,.91.14,2.25,2.25,0,0,0,.74-.12,2.66,2.66,0,0,0,.64-.29,3,3,0,0,0,.5-.42,1.77,1.77,0,0,0,.31-.46l.24-.5h-2.39l.38-2.49,6.31,0-1.11,7.26h-2.44l.22-1.52c-.27.23-.58.48-.94.75a5,5,0,0,1-1.33.68A5.64,5.64,0,0,1,172.51,16.56Z" transform="translate(-2.44 -2.44)"/><path class="cls-2" d="M180.5,16.37l7-13.74h3.78l2.78,13.74H190.4l-.5-2.66h-4.35l-1.35,2.66Zm6.31-5.81h2.73l-.68-4.39Z" transform="translate(-2.44 -2.44)"/><path class="cls-2" d="M202.68,12.25a2.83,2.83,0,0,1-1.46-.39,3,3,0,0,1-1-1,2.78,2.78,0,0,1-.39-1.44A2.72,2.72,0,0,1,200.18,8a3,3,0,0,1,1-1,2.83,2.83,0,0,1,1.46-.39,2.79,2.79,0,0,1,1.45.39,3,3,0,0,1,1.05,1,2.72,2.72,0,0,1,.39,1.43,2.78,2.78,0,0,1-.39,1.44,3,3,0,0,1-1.05,1A2.79,2.79,0,0,1,202.68,12.25Z" transform="translate(-2.44 -2.44)"/><path class="cls-2" d="M210.62,16.37l2.12-13.74h5.45a6.16,6.16,0,0,1,2.66.54,3.67,3.67,0,0,1,1.71,1.59,4,4,0,0,1,.33,2.53,5,5,0,0,1-1,2.33,5,5,0,0,1-1.93,1.5,6.77,6.77,0,0,1-2.7.52h-2.21l-.73,4.73Zm4.83-7.49h2.14a1.54,1.54,0,0,0,.88-.26,2.35,2.35,0,0,0,.7-.67,2,2,0,0,0,.34-.85,1.46,1.46,0,0,0-.33-1.22,1.31,1.31,0,0,0-1.05-.51H216Z" transform="translate(-2.44 -2.44)"/><path class="cls-2" d="M222.46,16.37l7-13.74h3.78L236,16.37h-3.67l-.49-2.66H227.5l-1.34,2.66Zm6.31-5.81h2.72l-.67-4.39Z" transform="translate(-2.44 -2.44)"/><path class="cls-2" d="M243.28,16.56a8.7,8.7,0,0,1-2.11-.25,5.76,5.76,0,0,1-1.84-.79,3.67,3.67,0,0,1-1.25-1.35,3.51,3.51,0,0,1-.36-2h3.85a1.54,1.54,0,0,0,.29.83,1.7,1.7,0,0,0,.72.52,2.85,2.85,0,0,0,1.1.19,5.22,5.22,0,0,0,1.13-.12,2.23,2.23,0,0,0,.9-.38,1.09,1.09,0,0,0,.45-.76.62.62,0,0,0-.24-.64,2.17,2.17,0,0,0-.81-.35,10.83,10.83,0,0,0-1.08-.22L242,10.9a3.74,3.74,0,0,1-2.42-1.28,3.45,3.45,0,0,1-.6-2.77,4.25,4.25,0,0,1,1.13-2.37A6,6,0,0,1,242.39,3a8.45,8.45,0,0,1,3-.52,6.51,6.51,0,0,1,2.91.61,4.68,4.68,0,0,1,1.86,1.61,3.43,3.43,0,0,1,.59,2.11H247a1.43,1.43,0,0,0-.18-.86,1.31,1.31,0,0,0-.66-.47A3.41,3.41,0,0,0,245,5.31a3.34,3.34,0,0,0-1.16.17,1.47,1.47,0,0,0-.65.42.94.94,0,0,0-.24.49.86.86,0,0,0,.19.75,2.21,2.21,0,0,0,1.14.45l2.08.36a5.58,5.58,0,0,1,2.24.8A2.92,2.92,0,0,1,249.71,10a3.26,3.26,0,0,1,.3,1.34,7,7,0,0,1-.06,1.17,3.73,3.73,0,0,1-1.11,2.1A6.53,6.53,0,0,1,246.47,16,9.32,9.32,0,0,1,243.28,16.56Z" transform="translate(-2.44 -2.44)"/><path class="cls-2" d="M254.2,16.37l1.59-10.49H251.9l.5-3.25H264l-.49,3.25h-4L257.9,16.37Z" transform="translate(-2.44 -2.44)"/><path class="cls-2" d="M263.6,16.37l2.12-13.74h10.17l-.48,3.06H269L268.64,8H274l-.45,3h-5.39l-.36,2.34h6.48l-.48,3.08Z" transform="translate(-2.44 -2.44)"/><path class="cls-2" d="M276.08,16.37l2.1-13.74h3.72l-2.09,13.74Z" transform="translate(-2.44 -2.44)"/><path class="cls-2" d="M288.47,16.56a5.85,5.85,0,0,1-3.3-.89,4.85,4.85,0,0,1-1.89-2.47A7.28,7.28,0,0,1,283,9.55a8.82,8.82,0,0,1,1.44-3.74,7.65,7.65,0,0,1,6.4-3.37,6,6,0,0,1,3.08.72A4.46,4.46,0,0,1,295.73,5a4.1,4.1,0,0,1,.38,2.44h-3.87a2.88,2.88,0,0,0-.25-1,1.71,1.71,0,0,0-.62-.71,2,2,0,0,0-1.07-.26,2.63,2.63,0,0,0-1.34.37,3.1,3.1,0,0,0-1.15,1.22,6.66,6.66,0,0,0-.73,2.34,6.21,6.21,0,0,0-.05,2,2.42,2.42,0,0,0,.49,1.19,1.86,1.86,0,0,0,.83.55,3.25,3.25,0,0,0,.91.14,2.25,2.25,0,0,0,.74-.12,2.85,2.85,0,0,0,.64-.29,3.47,3.47,0,0,0,.5-.42,1.77,1.77,0,0,0,.31-.46l.24-.5h-2.4l.39-2.49,6.31,0-1.11,7.26h-2.44l.22-1.52c-.27.23-.58.48-.94.75a5.34,5.34,0,0,1-1.33.68A5.64,5.64,0,0,1,288.47,16.56Z" transform="translate(-2.44 -2.44)"/><path class="cls-2" d="M296.48,16.37l7-13.74h3.78L310,16.37h-3.66l-.5-2.66h-4.36l-1.34,2.66Zm6.31-5.81h2.72l-.67-4.39Z" transform="translate(-2.44 -2.44)"/><path class="cls-2" d="M318.67,12.25a2.79,2.79,0,0,1-1.45-.39,3,3,0,0,1-1.05-1,2.78,2.78,0,0,1-.39-1.44A2.72,2.72,0,0,1,316.17,8a3,3,0,0,1,1.05-1,2.89,2.89,0,0,1,2.9,0,3,3,0,0,1,1.05,1,2.64,2.64,0,0,1,.4,1.43,2.7,2.7,0,0,1-.4,1.44,3,3,0,0,1-1.05,1A2.76,2.76,0,0,1,318.67,12.25Z" transform="translate(-2.44 -2.44)"/><path class="cls-2" d="M326.57,16.37l2.12-13.74h5.45a6.18,6.18,0,0,1,2.67.54,3.6,3.6,0,0,1,1.7,1.59,4,4,0,0,1,.33,2.53,5,5,0,0,1-1,2.33,4.91,4.91,0,0,1-1.94,1.5,6.77,6.77,0,0,1-2.7.52H331l-.72,4.73Zm4.84-7.49h2.14a1.58,1.58,0,0,0,.88-.26,2.44,2.44,0,0,0,.69-.67,2,2,0,0,0,.35-.85,1.46,1.46,0,0,0-.33-1.22,1.34,1.34,0,0,0-1.06-.51H332Z" transform="translate(-2.44 -2.44)"/><path class="cls-2" d="M338.44,16.37l7-13.74h3.78L352,16.37h-3.66l-.5-2.66h-4.35l-1.35,2.66Zm6.31-5.81h2.73l-.67-4.39Z" transform="translate(-2.44 -2.44)"/><path class="cls-2" d="M359.24,16.56a8.7,8.7,0,0,1-2.11-.25,5.76,5.76,0,0,1-1.84-.79A3.67,3.67,0,0,1,354,14.17a3.51,3.51,0,0,1-.36-2h3.85a1.54,1.54,0,0,0,.29.83,1.64,1.64,0,0,0,.72.52,2.85,2.85,0,0,0,1.1.19,5.22,5.22,0,0,0,1.13-.12,2.23,2.23,0,0,0,.9-.38,1.09,1.09,0,0,0,.45-.76.63.63,0,0,0-.24-.64,2.17,2.17,0,0,0-.81-.35,10.83,10.83,0,0,0-1.08-.22l-2.08-.36a3.74,3.74,0,0,1-2.42-1.28,3.45,3.45,0,0,1-.6-2.77A4.25,4.25,0,0,1,356,4.48,6,6,0,0,1,358.35,3a8.41,8.41,0,0,1,3-.52,6.51,6.51,0,0,1,2.91.61,4.68,4.68,0,0,1,1.86,1.61,3.43,3.43,0,0,1,.59,2.11h-3.77a1.43,1.43,0,0,0-.18-.86,1.31,1.31,0,0,0-.66-.47A3.41,3.41,0,0,0,361,5.31a3.34,3.34,0,0,0-1.16.17,1.47,1.47,0,0,0-.65.42,1,1,0,0,0-.25.49.9.9,0,0,0,.2.75,2.21,2.21,0,0,0,1.14.45l2.08.36a5.58,5.58,0,0,1,2.24.8A2.92,2.92,0,0,1,365.67,10a3.26,3.26,0,0,1,.3,1.34,7,7,0,0,1-.06,1.17,3.73,3.73,0,0,1-1.11,2.1A6.53,6.53,0,0,1,362.43,16,9.32,9.32,0,0,1,359.24,16.56Z" transform="translate(-2.44 -2.44)"/><path class="cls-2" d="M370.18,16.37l1.59-10.49h-3.89l.5-3.25h11.56l-.49,3.25h-4l-1.61,10.49Z" transform="translate(-2.44 -2.44)"/><path class="cls-2" d="M379.56,16.37l2.12-13.74h10.16l-.48,3.06h-6.42L384.59,8H390l-.45,3h-5.39l-.36,2.34h6.48l-.48,3.08Z" transform="translate(-2.44 -2.44)"/><path class="cls-2" d="M392.05,16.37l2.1-13.74h3.72l-2.09,13.74Z" transform="translate(-2.44 -2.44)"/><path class="cls-2" d="M404.46,16.56a5.85,5.85,0,0,1-3.3-.89,4.87,4.87,0,0,1-1.9-2.47A7.28,7.28,0,0,1,399,9.55a8.82,8.82,0,0,1,1.44-3.74,7.65,7.65,0,0,1,6.39-3.37,6,6,0,0,1,3.08.72A4.42,4.42,0,0,1,411.72,5a4.1,4.1,0,0,1,.38,2.44h-3.87a2.88,2.88,0,0,0-.25-1,1.66,1.66,0,0,0-.63-.71,2,2,0,0,0-1.06-.26,2.63,2.63,0,0,0-1.34.37,3.1,3.1,0,0,0-1.15,1.22,6.66,6.66,0,0,0-.73,2.34,6.55,6.55,0,0,0-.06,2,2.52,2.52,0,0,0,.5,1.19,1.86,1.86,0,0,0,.83.55,3.23,3.23,0,0,0,.9.14,2.31,2.31,0,0,0,.75-.12,2.59,2.59,0,0,0,.63-.29,2.64,2.64,0,0,0,.5-.42,1.83,1.83,0,0,0,.32-.46l.24-.5h-2.4l.39-2.49,6.31,0-1.12,7.26h-2.43l.22-1.52c-.27.23-.59.48-.95.75a5.1,5.1,0,0,1-1.32.68A5.64,5.64,0,0,1,404.46,16.56Z" transform="translate(-2.44 -2.44)"/><path class="cls-2" d="M412.46,16.37l7-13.74h3.78L426,16.37h-3.66l-.5-2.66h-4.35l-1.35,2.66Zm6.31-5.81h2.73l-.68-4.39Z" transform="translate(-2.44 -2.44)"/><path class="cls-2" d="M434.62,12.25a2.83,2.83,0,0,1-1.46-.39,3,3,0,0,1-1-1,2.78,2.78,0,0,1-.39-1.44A2.72,2.72,0,0,1,432.12,8a3,3,0,0,1,1-1,2.83,2.83,0,0,1,1.46-.39,2.79,2.79,0,0,1,1.45.39,3,3,0,0,1,1.05,1,2.72,2.72,0,0,1,.39,1.43,2.78,2.78,0,0,1-.39,1.44,3,3,0,0,1-1.05,1A2.79,2.79,0,0,1,434.62,12.25Z" transform="translate(-2.44 -2.44)"/><path class="cls-2" d="M442.56,16.37l2.12-13.74h5.45a6.16,6.16,0,0,1,2.66.54,3.67,3.67,0,0,1,1.71,1.59,4,4,0,0,1,.33,2.53,5,5,0,0,1-1,2.33,4.91,4.91,0,0,1-1.94,1.5,6.69,6.69,0,0,1-2.69.52H447l-.73,4.73Zm4.83-7.49h2.14a1.54,1.54,0,0,0,.88-.26A2.21,2.21,0,0,0,451.1,8a1.9,1.9,0,0,0,.35-.85,1.46,1.46,0,0,0-.33-1.22,1.32,1.32,0,0,0-1.05-.51h-2.13Z" transform="translate(-2.44 -2.44)"/><path class="cls-2" d="M454.4,16.37l7-13.74h3.78L468,16.37H464.3l-.5-2.66h-4.36l-1.34,2.66Zm6.31-5.81h2.72l-.67-4.39Z" transform="translate(-2.44 -2.44)"/><path class="cls-2" d="M475.22,16.56a8.85,8.85,0,0,1-2.12-.25,5.7,5.7,0,0,1-1.83-.79A3.59,3.59,0,0,1,470,14.17a3.51,3.51,0,0,1-.36-2h3.85a1.54,1.54,0,0,0,.29.83,1.64,1.64,0,0,0,.72.52,2.78,2.78,0,0,0,1.1.19,5.13,5.13,0,0,0,1.12-.12,2.28,2.28,0,0,0,.91-.38,1.13,1.13,0,0,0,.45-.76.63.63,0,0,0-.24-.64,2.17,2.17,0,0,0-.81-.35,10.83,10.83,0,0,0-1.08-.22l-2.08-.36a3.77,3.77,0,0,1-2.43-1.28,3.52,3.52,0,0,1-.6-2.77A4.33,4.33,0,0,1,472,4.48,5.94,5.94,0,0,1,474.33,3a8.37,8.37,0,0,1,3-.52,6.51,6.51,0,0,1,2.91.61,4.68,4.68,0,0,1,1.86,1.61,3.56,3.56,0,0,1,.59,2.11H478.9a1.36,1.36,0,0,0-.19-.86,1.24,1.24,0,0,0-.65-.47,3.48,3.48,0,0,0-1.1-.15,3.38,3.38,0,0,0-1.16.17,1.43,1.43,0,0,0-.64.42,1,1,0,0,0-.25.49.87.87,0,0,0,.2.75,2.13,2.13,0,0,0,1.13.45l2.09.36a5.7,5.7,0,0,1,2.24.8A2.82,2.82,0,0,1,481.64,10,3.44,3.44,0,0,1,482,11.3a6.94,6.94,0,0,1-.07,1.17,3.66,3.66,0,0,1-1.1,2.1A6.49,6.49,0,0,1,478.4,16,9.22,9.22,0,0,1,475.22,16.56Z" transform="translate(-2.44 -2.44)"/><path class="cls-2" d="M486.15,16.37l1.59-10.49h-3.89l.5-3.25h11.56l-.5,3.25h-4l-1.61,10.49Z" transform="translate(-2.44 -2.44)"/><path class="cls-2" d="M495.54,16.37l2.12-13.74h10.17l-.48,3.06h-6.43L500.58,8h5.36l-.45,3H500.1l-.37,2.34h6.48l-.47,3.08Z" transform="translate(-2.44 -2.44)"/><path class="cls-2" d="M508,16.37l2.1-13.74h3.72l-2.09,13.74Z" transform="translate(-2.44 -2.44)"/><path class="cls-2" d="M520.41,16.56a5.81,5.81,0,0,1-3.29-.89,4.81,4.81,0,0,1-1.9-2.47A7.28,7.28,0,0,1,515,9.55a8.94,8.94,0,0,1,1.43-3.74,7.7,7.7,0,0,1,2.76-2.48,7.6,7.6,0,0,1,3.64-.89,6,6,0,0,1,3.08.72A4.48,4.48,0,0,1,527.68,5a4.17,4.17,0,0,1,.38,2.44h-3.88a2.68,2.68,0,0,0-.25-1,1.71,1.71,0,0,0-.62-.71,2,2,0,0,0-1.06-.26,2.7,2.7,0,0,0-1.35.37,3.17,3.17,0,0,0-1.15,1.22A7.1,7.1,0,0,0,519,9.43a6.81,6.81,0,0,0,0,2,2.42,2.42,0,0,0,.5,1.19,1.84,1.84,0,0,0,.82.55,3.3,3.3,0,0,0,.91.14,2.25,2.25,0,0,0,.74-.12,2.5,2.5,0,0,0,.64-.29,3,3,0,0,0,.5-.42,1.83,1.83,0,0,0,.32-.46l.24-.5h-2.4l.38-2.49,6.31,0-1.11,7.26h-2.44l.22-1.52c-.26.23-.58.48-.94.75a5.1,5.1,0,0,1-1.32.68A5.7,5.7,0,0,1,520.41,16.56Z" transform="translate(-2.44 -2.44)"/><path class="cls-2" d="M528.43,16.37l7-13.74h3.78L542,16.37h-3.66l-.5-2.66h-4.35l-1.35,2.66Zm6.31-5.81h2.73l-.68-4.39Z" transform="translate(-2.44 -2.44)"/><path class="cls-2" d="M550.61,12.25a2.76,2.76,0,0,1-1.45-.39,3,3,0,0,1-1-1,2.78,2.78,0,0,1-.39-1.44A2.72,2.72,0,0,1,548.11,8a3,3,0,0,1,1-1,2.89,2.89,0,0,1,2.9,0,3,3,0,0,1,1.05,1,2.72,2.72,0,0,1,.39,1.43,2.78,2.78,0,0,1-.39,1.44,3,3,0,0,1-1.05,1A2.79,2.79,0,0,1,550.61,12.25Z" transform="translate(-2.44 -2.44)"/><path class="cls-2" d="M558.54,16.37l2.12-13.74h5.45a6.16,6.16,0,0,1,2.66.54,3.67,3.67,0,0,1,1.71,1.59,4,4,0,0,1,.33,2.53,5,5,0,0,1-1,2.33,5,5,0,0,1-1.93,1.5,6.77,6.77,0,0,1-2.7.52H563l-.73,4.73Zm4.83-7.49h2.14a1.54,1.54,0,0,0,.88-.26,2.21,2.21,0,0,0,.69-.67,1.9,1.9,0,0,0,.35-.85,1.46,1.46,0,0,0-.33-1.22,1.32,1.32,0,0,0-1.05-.51h-2.13Z" transform="translate(-2.44 -2.44)"/><path class="cls-2" d="M570.39,16.37l7-13.74h3.78L584,16.37h-3.67l-.5-2.66h-4.35l-1.34,2.66Zm6.31-5.81h2.72l-.67-4.39Z" transform="translate(-2.44 -2.44)"/><path class="cls-2" d="M591.2,16.56a8.76,8.76,0,0,1-2.11-.25,5.76,5.76,0,0,1-1.84-.79A3.76,3.76,0,0,1,586,14.17a3.51,3.51,0,0,1-.36-2h3.86a1.53,1.53,0,0,0,.28.83,1.76,1.76,0,0,0,.72.52,2.87,2.87,0,0,0,1.11.19,5.13,5.13,0,0,0,1.12-.12,2.28,2.28,0,0,0,.91-.38,1.12,1.12,0,0,0,.44-.76.61.61,0,0,0-.23-.64,2.33,2.33,0,0,0-.81-.35,10.49,10.49,0,0,0-1.09-.22l-2.08-.36a3.74,3.74,0,0,1-2.42-1.28,3.52,3.52,0,0,1-.6-2.77A4.2,4.2,0,0,1,588,4.48,5.94,5.94,0,0,1,590.32,3a8.36,8.36,0,0,1,3-.52,6.52,6.52,0,0,1,2.92.61,4.72,4.72,0,0,1,1.85,1.61,3.5,3.5,0,0,1,.6,2.11h-3.77a1.43,1.43,0,0,0-.19-.86,1.23,1.23,0,0,0-.66-.47A3.41,3.41,0,0,0,593,5.31a3.34,3.34,0,0,0-1.16.17,1.47,1.47,0,0,0-.65.42.94.94,0,0,0-.24.49.86.86,0,0,0,.19.75,2.21,2.21,0,0,0,1.14.45l2.08.36a5.69,5.69,0,0,1,2.25.8A3,3,0,0,1,597.63,10a3.44,3.44,0,0,1,.31,1.34,8.17,8.17,0,0,1-.07,1.17,3.72,3.72,0,0,1-1.1,2.1A6.57,6.57,0,0,1,594.39,16,9.32,9.32,0,0,1,591.2,16.56Z" transform="translate(-2.44 -2.44)"/><path class="cls-2" d="M602.12,16.37l1.6-10.49h-3.9l.5-3.25h11.57l-.5,3.25h-3.95l-1.61,10.49Z" transform="translate(-2.44 -2.44)"/><path class="cls-2" d="M611.53,16.37l2.12-13.74h10.17l-.48,3.06h-6.43L616.57,8h5.36l-.45,3h-5.39l-.37,2.34h6.49l-.48,3.08Z" transform="translate(-2.44 -2.44)"/><path class="cls-2" d="M624,16.37l2.1-13.74h3.73l-2.09,13.74Z" transform="translate(-2.44 -2.44)"/><path class="cls-2" d="M636.39,16.56a5.79,5.79,0,0,1-3.29-.89,4.81,4.81,0,0,1-1.9-2.47A7.28,7.28,0,0,1,631,9.55a9.09,9.09,0,0,1,1.44-3.74,7.7,7.7,0,0,1,2.76-2.48,7.57,7.57,0,0,1,3.64-.89,6,6,0,0,1,3.08.72A4.54,4.54,0,0,1,643.66,5,4.09,4.09,0,0,1,644,7.48h-3.87a2.88,2.88,0,0,0-.25-1,1.71,1.71,0,0,0-.62-.71,2,2,0,0,0-1.07-.26,2.63,2.63,0,0,0-1.34.37,3.1,3.1,0,0,0-1.15,1.22A6.87,6.87,0,0,0,635,9.43a6.21,6.21,0,0,0,0,2,2.42,2.42,0,0,0,.5,1.19,1.84,1.84,0,0,0,.82.55,3.25,3.25,0,0,0,.91.14,2.25,2.25,0,0,0,.74-.12,2.66,2.66,0,0,0,.64-.29,3,3,0,0,0,.5-.42,1.77,1.77,0,0,0,.31-.46l.24-.5h-2.4l.39-2.49,6.31,0-1.11,7.26h-2.44l.22-1.52c-.27.23-.58.48-.94.75a5.18,5.18,0,0,1-1.33.68A5.64,5.64,0,0,1,636.39,16.56Z" transform="translate(-2.44 -2.44)"/><path class="cls-2" d="M644.39,16.37l7-13.74h3.78L658,16.37h-3.67l-.5-2.66h-4.35l-1.34,2.66Zm6.31-5.81h2.72l-.67-4.39Z" transform="translate(-2.44 -2.44)"/><path class="cls-2" d="M666.57,12.25a2.76,2.76,0,0,1-1.45-.39,3,3,0,0,1-1-1,2.78,2.78,0,0,1-.39-1.44A2.72,2.72,0,0,1,664.07,8a3,3,0,0,1,1-1,2.89,2.89,0,0,1,2.9,0,3,3,0,0,1,1.05,1,2.73,2.73,0,0,1,.4,1.43,2.79,2.79,0,0,1-.4,1.44,3,3,0,0,1-1.05,1A2.79,2.79,0,0,1,666.57,12.25Z" transform="translate(-2.44 -2.44)"/><path class="cls-2" d="M674.51,16.37l2.12-13.74h5.44a6.18,6.18,0,0,1,2.67.54,3.6,3.6,0,0,1,1.7,1.59,3.86,3.86,0,0,1,.33,2.53,5,5,0,0,1-1,2.33,4.91,4.91,0,0,1-1.94,1.5,6.77,6.77,0,0,1-2.7.52H679l-.73,4.73Zm4.83-7.49h2.14a1.56,1.56,0,0,0,.88-.26,2.21,2.21,0,0,0,.69-.67,2,2,0,0,0,.35-.85,1.46,1.46,0,0,0-.33-1.22A1.33,1.33,0,0,0,682,5.37h-2.13Z" transform="translate(-2.44 -2.44)"/><path class="cls-2" d="M686.34,16.37l7-13.74h3.78l2.78,13.74h-3.67l-.5-2.66h-4.35L690,16.37Zm6.31-5.81h2.72l-.67-4.39Z" transform="translate(-2.44 -2.44)"/><path class="cls-2" d="M707.18,16.56a8.76,8.76,0,0,1-2.11-.25,5.76,5.76,0,0,1-1.84-.79A3.76,3.76,0,0,1,702,14.17a3.51,3.51,0,0,1-.36-2h3.86a1.46,1.46,0,0,0,.29.83,1.67,1.67,0,0,0,.71.52,2.87,2.87,0,0,0,1.11.19,5.13,5.13,0,0,0,1.12-.12,2.28,2.28,0,0,0,.91-.38,1.12,1.12,0,0,0,.44-.76.61.61,0,0,0-.23-.64,2.17,2.17,0,0,0-.81-.35,10.49,10.49,0,0,0-1.09-.22l-2.08-.36a3.74,3.74,0,0,1-2.42-1.28,3.52,3.52,0,0,1-.6-2.77A4.2,4.2,0,0,1,704,4.48,5.94,5.94,0,0,1,706.3,3a8.37,8.37,0,0,1,3-.52,6.51,6.51,0,0,1,2.91.61A4.65,4.65,0,0,1,714,4.68a3.5,3.5,0,0,1,.6,2.11h-3.77a1.43,1.43,0,0,0-.19-.86,1.23,1.23,0,0,0-.66-.47,4,4,0,0,0-2.25,0,1.53,1.53,0,0,0-.65.42.94.94,0,0,0-.24.49.86.86,0,0,0,.19.75,2.21,2.21,0,0,0,1.14.45l2.08.36a5.69,5.69,0,0,1,2.25.8A3,3,0,0,1,713.61,10a3.44,3.44,0,0,1,.31,1.34,8.17,8.17,0,0,1-.07,1.17,3.66,3.66,0,0,1-1.1,2.1A6.57,6.57,0,0,1,710.37,16,9.32,9.32,0,0,1,707.18,16.56Z" transform="translate(-2.44 -2.44)"/><path class="cls-2" d="M718.09,16.37l1.59-10.49h-3.89l.5-3.25h11.56l-.49,3.25h-4l-1.61,10.49Z" transform="translate(-2.44 -2.44)"/><path class="cls-2" d="M727.49,16.37l2.12-13.74h10.16l-.48,3.06h-6.42L732.52,8h5.36l-.45,3H732l-.36,2.34h6.48l-.48,3.08Z" transform="translate(-2.44 -2.44)"/><path class="cls-2" d="M740,16.37l2.1-13.74h3.72L743.7,16.37Z" transform="translate(-2.44 -2.44)"/><path class="cls-2" d="M752.35,16.56a5.81,5.81,0,0,1-3.29-.89,4.87,4.87,0,0,1-1.9-2.47,7.28,7.28,0,0,1-.24-3.65,8.82,8.82,0,0,1,1.44-3.74,7.62,7.62,0,0,1,6.39-3.37,6,6,0,0,1,3.08.72A4.42,4.42,0,0,1,759.62,5,4.17,4.17,0,0,1,760,7.48h-3.88a2.68,2.68,0,0,0-.24-1,1.73,1.73,0,0,0-.63-.71,2,2,0,0,0-1.06-.26,2.7,2.7,0,0,0-1.35.37,3.25,3.25,0,0,0-1.15,1.22A7.1,7.1,0,0,0,751,9.43a6.81,6.81,0,0,0-.05,2,2.42,2.42,0,0,0,.5,1.19,1.81,1.81,0,0,0,.83.55,3.23,3.23,0,0,0,.9.14,2.25,2.25,0,0,0,.74-.12,2.5,2.5,0,0,0,.64-.29,3,3,0,0,0,.5-.42,1.83,1.83,0,0,0,.32-.46l.24-.5h-2.4l.38-2.49,6.31,0-1.11,7.26h-2.43l.22-1.52c-.27.23-.59.48-.95.75a5.1,5.1,0,0,1-1.32.68A5.66,5.66,0,0,1,752.35,16.56Z" transform="translate(-2.44 -2.44)"/><path class="cls-2" d="M760.37,16.37l7-13.74h3.78l2.78,13.74h-3.66l-.5-2.66h-4.35l-1.35,2.66Zm6.31-5.81h2.73l-.68-4.39Z" transform="translate(-2.44 -2.44)"/><path class="cls-2" d="M782.54,12.25a2.79,2.79,0,0,1-1.45-.39,3,3,0,0,1-1.05-1,2.78,2.78,0,0,1-.39-1.44A2.72,2.72,0,0,1,780,8a3,3,0,0,1,1.05-1,2.89,2.89,0,0,1,2.9,0,3,3,0,0,1,1,1,2.64,2.64,0,0,1,.4,1.43,2.7,2.7,0,0,1-.4,1.44,3,3,0,0,1-1,1A2.76,2.76,0,0,1,782.54,12.25Z" transform="translate(-2.44 -2.44)"/><path class="cls-2" d="M790.47,16.37l2.12-13.74H798a6.13,6.13,0,0,1,2.66.54,3.63,3.63,0,0,1,1.71,1.59,4,4,0,0,1,.33,2.53,4.93,4.93,0,0,1-1,2.33,4.88,4.88,0,0,1-1.93,1.5,6.77,6.77,0,0,1-2.7.52h-2.21l-.73,4.73Zm4.84-7.49h2.13a1.59,1.59,0,0,0,.89-.26A2.44,2.44,0,0,0,799,8a2,2,0,0,0,.34-.85A1.49,1.49,0,0,0,799,5.88,1.34,1.34,0,0,0,798,5.37h-2.13Z" transform="translate(-2.44 -2.44)"/><path class="cls-2" d="M802.31,16.37l7-13.74h3.78l2.78,13.74h-3.66l-.5-2.66h-4.35L806,16.37Zm6.31-5.81h2.73l-.67-4.39Z" transform="translate(-2.44 -2.44)"/><path class="cls-2" d="M823.14,16.56a8.7,8.7,0,0,1-2.11-.25,5.76,5.76,0,0,1-1.84-.79,3.67,3.67,0,0,1-1.25-1.35,3.51,3.51,0,0,1-.36-2h3.86a1.45,1.45,0,0,0,.28.83,1.76,1.76,0,0,0,.72.52,2.85,2.85,0,0,0,1.1.19,5.15,5.15,0,0,0,1.13-.12,2.17,2.17,0,0,0,.9-.38,1.09,1.09,0,0,0,.45-.76.62.62,0,0,0-.24-.64,2.17,2.17,0,0,0-.81-.35,10.28,10.28,0,0,0-1.08-.22l-2.08-.36a3.74,3.74,0,0,1-2.42-1.28,3.45,3.45,0,0,1-.6-2.77,4.25,4.25,0,0,1,1.13-2.37A6,6,0,0,1,822.26,3a8.36,8.36,0,0,1,3-.52,6.51,6.51,0,0,1,2.91.61A4.68,4.68,0,0,1,830,4.68a3.43,3.43,0,0,1,.59,2.11h-3.76a1.51,1.51,0,0,0-.19-.86,1.31,1.31,0,0,0-.66-.47,3.41,3.41,0,0,0-1.09-.15,3.34,3.34,0,0,0-1.16.17,1.47,1.47,0,0,0-.65.42.94.94,0,0,0-.24.49.86.86,0,0,0,.19.75,2.21,2.21,0,0,0,1.14.45l2.08.36a5.58,5.58,0,0,1,2.24.8A2.92,2.92,0,0,1,829.57,10a3.44,3.44,0,0,1,.31,1.34,8.17,8.17,0,0,1-.07,1.17,3.78,3.78,0,0,1-1.1,2.1A6.66,6.66,0,0,1,826.33,16,9.32,9.32,0,0,1,823.14,16.56Z" transform="translate(-2.44 -2.44)"/><path class="cls-2" d="M834.06,16.37l1.59-10.49h-3.89l.49-3.25h11.57l-.5,3.25h-4l-1.61,10.49Z" transform="translate(-2.44 -2.44)"/><path class="cls-2" d="M843.46,16.37l2.12-13.74h10.17l-.48,3.06h-6.43L848.5,8h5.36l-.45,3H848l-.37,2.34h6.49l-.48,3.08Z" transform="translate(-2.44 -2.44)"/><path class="cls-2" d="M856,16.37l2.1-13.74h3.72l-2.09,13.74Z" transform="translate(-2.44 -2.44)"/><path class="cls-2" d="M868.33,16.56a5.81,5.81,0,0,1-3.29-.89,4.81,4.81,0,0,1-1.9-2.47,7.28,7.28,0,0,1-.24-3.65,8.82,8.82,0,0,1,1.44-3.74,7.62,7.62,0,0,1,6.39-3.37,6,6,0,0,1,3.08.72A4.42,4.42,0,0,1,875.6,5,4.17,4.17,0,0,1,876,7.48H872.1a2.68,2.68,0,0,0-.25-1,1.64,1.64,0,0,0-.62-.71,2,2,0,0,0-1.06-.26,2.7,2.7,0,0,0-1.35.37,3.25,3.25,0,0,0-1.15,1.22,7.1,7.1,0,0,0-.73,2.34,6.81,6.81,0,0,0-.05,2,2.42,2.42,0,0,0,.5,1.19,1.84,1.84,0,0,0,.82.55,3.3,3.3,0,0,0,.91.14,2.25,2.25,0,0,0,.74-.12,2.5,2.5,0,0,0,.64-.29,3,3,0,0,0,.5-.42,1.83,1.83,0,0,0,.32-.46l.24-.5h-2.4l.38-2.49,6.31,0-1.11,7.26h-2.43l.22-1.52c-.27.23-.59.48-.95.75a5.1,5.1,0,0,1-1.32.68A5.66,5.66,0,0,1,868.33,16.56Z" transform="translate(-2.44 -2.44)"/><path class="cls-2" d="M876.33,16.37l7-13.74h3.78l2.78,13.74h-3.66l-.5-2.66h-4.35L880,16.37Zm6.31-5.81h2.73l-.68-4.39Z" transform="translate(-2.44 -2.44)"/><path class="cls-2" d="M898.52,12.25a2.76,2.76,0,0,1-1.45-.39,3,3,0,0,1-1.05-1,2.78,2.78,0,0,1-.39-1.44A2.72,2.72,0,0,1,896,8a3,3,0,0,1,1.05-1,2.89,2.89,0,0,1,2.9,0,3,3,0,0,1,1,1,2.73,2.73,0,0,1,.4,1.43,2.79,2.79,0,0,1-.4,1.44,3,3,0,0,1-1,1A2.79,2.79,0,0,1,898.52,12.25Z" transform="translate(-2.44 -2.44)"/><path class="cls-2" d="M906.45,16.37l2.12-13.74H914a6.16,6.16,0,0,1,2.66.54,3.67,3.67,0,0,1,1.71,1.59,4,4,0,0,1,.33,2.53,5,5,0,0,1-1,2.33,4.88,4.88,0,0,1-1.93,1.5,6.77,6.77,0,0,1-2.7.52h-2.21l-.73,4.73Zm4.83-7.49h2.14a1.59,1.59,0,0,0,.89-.26A2.44,2.44,0,0,0,915,8a2,2,0,0,0,.34-.85A1.49,1.49,0,0,0,915,5.88,1.34,1.34,0,0,0,914,5.37h-2.13Z" transform="translate(-2.44 -2.44)"/><path class="cls-2" d="M918.28,16.37l7-13.74h3.77l2.79,13.74h-3.67l-.5-2.66h-4.35L922,16.37Zm6.32-5.81h2.72l-.67-4.39Z" transform="translate(-2.44 -2.44)"/><path class="cls-2" d="M939.11,16.56a8.7,8.7,0,0,1-2.11-.25,5.76,5.76,0,0,1-1.84-.79,3.67,3.67,0,0,1-1.25-1.35,3.51,3.51,0,0,1-.36-2h3.85a1.54,1.54,0,0,0,.29.83,1.64,1.64,0,0,0,.72.52,2.85,2.85,0,0,0,1.1.19,5.22,5.22,0,0,0,1.13-.12,2.23,2.23,0,0,0,.9-.38,1.09,1.09,0,0,0,.45-.76.63.63,0,0,0-.24-.64,2.17,2.17,0,0,0-.81-.35,10.83,10.83,0,0,0-1.08-.22l-2.08-.36a3.74,3.74,0,0,1-2.42-1.28,3.45,3.45,0,0,1-.6-2.77,4.25,4.25,0,0,1,1.13-2.37A6,6,0,0,1,938.22,3a8.41,8.41,0,0,1,3-.52,6.51,6.51,0,0,1,2.91.61A4.68,4.68,0,0,1,946,4.68a3.49,3.49,0,0,1,.59,2.11h-3.77a1.43,1.43,0,0,0-.18-.86,1.31,1.31,0,0,0-.66-.47,3.41,3.41,0,0,0-1.09-.15,3.34,3.34,0,0,0-1.16.17,1.47,1.47,0,0,0-.65.42,1,1,0,0,0-.25.49.87.87,0,0,0,.2.75,2.21,2.21,0,0,0,1.14.45l2.08.36a5.64,5.64,0,0,1,2.24.8A2.92,2.92,0,0,1,945.54,10a3.42,3.42,0,0,1,.3,1.34,7,7,0,0,1-.06,1.17,3.73,3.73,0,0,1-1.11,2.1A6.49,6.49,0,0,1,942.29,16,9.22,9.22,0,0,1,939.11,16.56Z" transform="translate(-2.44 -2.44)"/><path class="cls-2" d="M950,16.37l1.59-10.49h-3.89l.5-3.25h11.56l-.5,3.25h-3.95l-1.61,10.49Z" transform="translate(-2.44 -2.44)"/><path class="cls-2" d="M959.41,16.37l2.12-13.74H971.7l-.48,3.06h-6.43L964.45,8h5.36l-.45,3H964l-.37,2.34h6.49l-.48,3.08Z" transform="translate(-2.44 -2.44)"/><path class="cls-2" d="M971.92,16.37,974,2.63h3.72l-2.09,13.74Z" transform="translate(-2.44 -2.44)"/><path class="cls-2" d="M984.3,16.56a5.85,5.85,0,0,1-3.3-.89,4.87,4.87,0,0,1-1.9-2.47,7.28,7.28,0,0,1-.24-3.65,8.82,8.82,0,0,1,1.44-3.74,7.65,7.65,0,0,1,6.39-3.37,6,6,0,0,1,3.08.72A4.42,4.42,0,0,1,991.56,5a4.1,4.1,0,0,1,.38,2.44h-3.87a2.88,2.88,0,0,0-.25-1,1.66,1.66,0,0,0-.63-.71,2,2,0,0,0-1.06-.26,2.63,2.63,0,0,0-1.34.37,3.1,3.1,0,0,0-1.15,1.22,6.66,6.66,0,0,0-.73,2.34,6.55,6.55,0,0,0-.06,2,2.52,2.52,0,0,0,.5,1.19,1.86,1.86,0,0,0,.83.55,3.23,3.23,0,0,0,.9.14,2.31,2.31,0,0,0,.75-.12,2.59,2.59,0,0,0,.63-.29,2.64,2.64,0,0,0,.5-.42,1.83,1.83,0,0,0,.32-.46l.24-.5h-2.4l.39-2.49,6.31,0-1.12,7.26h-2.43l.22-1.52c-.27.23-.59.48-1,.75a5.1,5.1,0,0,1-1.32.68A5.64,5.64,0,0,1,984.3,16.56Z" transform="translate(-2.44 -2.44)"/><path class="cls-2" d="M992.31,16.37l7-13.74h3.78l2.78,13.74h-3.67l-.5-2.66h-4.35L996,16.37Zm6.31-5.81h2.72l-.67-4.39Z" transform="translate(-2.44 -2.44)"/><path class="cls-2" d="M1014.48,12.25a2.79,2.79,0,0,1-1.45-.39,3,3,0,0,1-1-1,2.78,2.78,0,0,1-.39-1.44A2.72,2.72,0,0,1,1012,8a3,3,0,0,1,1-1,2.89,2.89,0,0,1,2.9,0A3,3,0,0,1,1017,8a2.64,2.64,0,0,1,.4,1.43,2.7,2.7,0,0,1-.4,1.44,3,3,0,0,1-1.05,1A2.76,2.76,0,0,1,1014.48,12.25Z" transform="translate(-2.44 -2.44)"/><path class="cls-2" d="M1022.42,16.37l2.12-13.74H1030a6.18,6.18,0,0,1,2.67.54,3.6,3.6,0,0,1,1.7,1.59,3.86,3.86,0,0,1,.33,2.53,5,5,0,0,1-1,2.33,4.91,4.91,0,0,1-1.94,1.5,6.77,6.77,0,0,1-2.7.52h-2.2l-.73,4.73Zm4.83-7.49h2.14a1.56,1.56,0,0,0,.88-.26A2.21,2.21,0,0,0,1031,8a2,2,0,0,0,.35-.85,1.46,1.46,0,0,0-.33-1.22,1.33,1.33,0,0,0-1-.51h-2.13Z" transform="translate(-2.44 -2.44)"/><path class="cls-2" d="M1034.25,16.37l7-13.74H1045l2.78,13.74h-3.66l-.5-2.66h-4.35L1038,16.37Zm6.31-5.81h2.73l-.67-4.39Z" transform="translate(-2.44 -2.44)"/><path class="cls-2" d="M1055.08,16.56a8.76,8.76,0,0,1-2.11-.25,5.76,5.76,0,0,1-1.84-.79,3.76,3.76,0,0,1-1.25-1.35,3.51,3.51,0,0,1-.36-2h3.86a1.46,1.46,0,0,0,.29.83,1.67,1.67,0,0,0,.71.52,2.87,2.87,0,0,0,1.11.19,5.13,5.13,0,0,0,1.12-.12,2.28,2.28,0,0,0,.91-.38,1.12,1.12,0,0,0,.44-.76.61.61,0,0,0-.23-.64,2.33,2.33,0,0,0-.81-.35,10.49,10.49,0,0,0-1.09-.22l-2.08-.36a3.74,3.74,0,0,1-2.42-1.28,3.52,3.52,0,0,1-.6-2.77,4.2,4.2,0,0,1,1.14-2.37A5.94,5.94,0,0,1,1054.2,3a8.36,8.36,0,0,1,3-.52,6.52,6.52,0,0,1,2.92.61,4.72,4.72,0,0,1,1.85,1.61,3.5,3.5,0,0,1,.6,2.11h-3.77a1.43,1.43,0,0,0-.19-.86,1.23,1.23,0,0,0-.66-.47,3.41,3.41,0,0,0-1.09-.15,3.34,3.34,0,0,0-1.16.17,1.53,1.53,0,0,0-.65.42.94.94,0,0,0-.24.49.86.86,0,0,0,.19.75,2.21,2.21,0,0,0,1.14.45l2.08.36a5.69,5.69,0,0,1,2.25.8,3,3,0,0,1,1.07,1.21,3.44,3.44,0,0,1,.31,1.34,8.17,8.17,0,0,1-.07,1.17,3.72,3.72,0,0,1-1.1,2.1,6.57,6.57,0,0,1-2.38,1.46A9.32,9.32,0,0,1,1055.08,16.56Z" transform="translate(-2.44 -2.44)"/><path class="cls-2" d="M1066,16.37l1.59-10.49h-3.89l.5-3.25h11.56l-.5,3.25h-4l-1.61,10.49Z" transform="translate(-2.44 -2.44)"/><path class="cls-2" d="M1075.4,16.37l2.12-13.74h10.17l-.48,3.06h-6.43L1080.44,8h5.36l-.45,3H1080l-.37,2.34h6.48l-.47,3.08Z" transform="translate(-2.44 -2.44)"/><path class="cls-2" d="M1087.88,16.37,1090,2.63h3.72l-2.09,13.74Z" transform="translate(-2.44 -2.44)"/><path class="cls-2" d="M1100.27,16.56a5.85,5.85,0,0,1-3.3-.89,4.87,4.87,0,0,1-1.9-2.47,7.28,7.28,0,0,1-.24-3.65,8.82,8.82,0,0,1,1.44-3.74,7.65,7.65,0,0,1,6.4-3.37,6,6,0,0,1,3.07.72A4.42,4.42,0,0,1,1107.53,5a4.1,4.1,0,0,1,.38,2.44H1104a2.88,2.88,0,0,0-.25-1,1.66,1.66,0,0,0-.63-.71,2,2,0,0,0-1.06-.26,2.63,2.63,0,0,0-1.34.37,3.1,3.1,0,0,0-1.15,1.22,6.66,6.66,0,0,0-.73,2.34,6.55,6.55,0,0,0-.06,2,2.52,2.52,0,0,0,.5,1.19,1.86,1.86,0,0,0,.83.55,3.23,3.23,0,0,0,.9.14,2.31,2.31,0,0,0,.75-.12,2.85,2.85,0,0,0,.64-.29,2.92,2.92,0,0,0,.49-.42,1.83,1.83,0,0,0,.32-.46l.24-.5h-2.4l.39-2.49,6.31,0-1.12,7.26h-2.43l.22-1.52c-.27.23-.58.48-1,.75a5.1,5.1,0,0,1-1.32.68A5.64,5.64,0,0,1,1100.27,16.56Z" transform="translate(-2.44 -2.44)"/><path class="cls-2" d="M1108.27,16.37l7-13.74h3.78l2.78,13.74h-3.66l-.5-2.66h-4.36L1112,16.37Zm6.31-5.81h2.72l-.67-4.39Z" transform="translate(-2.44 -2.44)"/><path class="cls-2" d="M1130.46,12.25a2.76,2.76,0,0,1-1.45-.39,3,3,0,0,1-1-1,2.78,2.78,0,0,1-.39-1.44A2.72,2.72,0,0,1,1128,8a3,3,0,0,1,1-1,2.89,2.89,0,0,1,2.9,0,3,3,0,0,1,1,1,2.73,2.73,0,0,1,.4,1.43,2.79,2.79,0,0,1-.4,1.44,3,3,0,0,1-1,1A2.79,2.79,0,0,1,1130.46,12.25Z" transform="translate(-2.44 -2.44)"/><path class="cls-2" d="M1138.39,16.37l2.12-13.74H1146a6.16,6.16,0,0,1,2.66.54,3.67,3.67,0,0,1,1.71,1.59,4,4,0,0,1,.33,2.53,5,5,0,0,1-1,2.33,4.91,4.91,0,0,1-1.94,1.5,6.76,6.76,0,0,1-2.69.52h-2.21l-.73,4.73Zm4.83-7.49h2.14a1.56,1.56,0,0,0,.88-.26,2.21,2.21,0,0,0,.69-.67,1.9,1.9,0,0,0,.35-.85,1.46,1.46,0,0,0-.33-1.22,1.32,1.32,0,0,0-1-.51h-2.13Z" transform="translate(-2.44 -2.44)"/><path class="cls-2" d="M1150.22,16.37l7-13.74H1161l2.79,13.74h-3.67l-.5-2.66h-4.35l-1.34,2.66Zm6.31-5.81h2.73l-.67-4.39Z" transform="translate(-2.44 -2.44)"/><path class="cls-2" d="M1171.05,16.56a8.85,8.85,0,0,1-2.12-.25,5.7,5.7,0,0,1-1.83-.79,3.59,3.59,0,0,1-1.25-1.35,3.51,3.51,0,0,1-.36-2h3.85a1.54,1.54,0,0,0,.29.83,1.64,1.64,0,0,0,.72.52,2.78,2.78,0,0,0,1.1.19,5.13,5.13,0,0,0,1.12-.12,2.28,2.28,0,0,0,.91-.38,1.13,1.13,0,0,0,.45-.76.63.63,0,0,0-.24-.64,2.17,2.17,0,0,0-.81-.35,10.83,10.83,0,0,0-1.08-.22l-2.09-.36a3.77,3.77,0,0,1-2.42-1.28,3.52,3.52,0,0,1-.6-2.77,4.33,4.33,0,0,1,1.14-2.37,5.94,5.94,0,0,1,2.33-1.5,8.37,8.37,0,0,1,3-.52,6.51,6.51,0,0,1,2.91.61,4.68,4.68,0,0,1,1.86,1.61,3.56,3.56,0,0,1,.59,2.11h-3.77a1.36,1.36,0,0,0-.19-.86,1.24,1.24,0,0,0-.65-.47,3.48,3.48,0,0,0-1.1-.15,3.38,3.38,0,0,0-1.16.17,1.43,1.43,0,0,0-.64.42,1,1,0,0,0-.25.49.87.87,0,0,0,.2.75,2.13,2.13,0,0,0,1.13.45l2.09.36a5.7,5.7,0,0,1,2.24.8,2.82,2.82,0,0,1,1.07,1.21,3.44,3.44,0,0,1,.31,1.34,6.94,6.94,0,0,1-.07,1.17,3.66,3.66,0,0,1-1.1,2.1,6.49,6.49,0,0,1-2.38,1.46A9.22,9.22,0,0,1,1171.05,16.56Z" transform="translate(-2.44 -2.44)"/><path class="cls-2" d="M1182,16.37l1.59-10.49h-3.89l.49-3.25h11.57l-.5,3.25h-4l-1.61,10.49Z" transform="translate(-2.44 -2.44)"/><path class="cls-2" d="M1191.36,16.37l2.12-13.74h10.17l-.48,3.06h-6.43L1196.4,8h5.36l-.45,3h-5.39l-.36,2.34H1202l-.48,3.08Z" transform="translate(-2.44 -2.44)"/><path class="cls-2" d="M1203.87,16.37,1206,2.63h3.72l-2.09,13.74Z" transform="translate(-2.44 -2.44)"/><path class="cls-2" d="M1216.22,16.56a5.81,5.81,0,0,1-3.29-.89,4.81,4.81,0,0,1-1.9-2.47,7.28,7.28,0,0,1-.24-3.65,8.82,8.82,0,0,1,1.44-3.74,7.62,7.62,0,0,1,6.39-3.37,6,6,0,0,1,3.08.72A4.42,4.42,0,0,1,1223.49,5a4.17,4.17,0,0,1,.38,2.44H1220a2.68,2.68,0,0,0-.25-1,1.64,1.64,0,0,0-.62-.71,2,2,0,0,0-1.06-.26,2.7,2.7,0,0,0-1.35.37,3.25,3.25,0,0,0-1.15,1.22,7.1,7.1,0,0,0-.73,2.34,6.81,6.81,0,0,0,0,2,2.42,2.42,0,0,0,.5,1.19,1.84,1.84,0,0,0,.82.55,3.36,3.36,0,0,0,.91.14,2.25,2.25,0,0,0,.74-.12,2.5,2.5,0,0,0,.64-.29,3,3,0,0,0,.5-.42,1.83,1.83,0,0,0,.32-.46l.24-.5h-2.4l.38-2.49,6.31,0-1.11,7.26h-2.43l.22-1.52c-.27.23-.59.48-1,.75a5.1,5.1,0,0,1-1.32.68A5.66,5.66,0,0,1,1216.22,16.56Z" transform="translate(-2.44 -2.44)"/><path class="cls-2" d="M1224.24,16.37l7-13.74H1235l2.78,13.74h-3.67l-.49-2.66h-4.36l-1.34,2.66Zm6.31-5.81h2.72l-.67-4.39Z" transform="translate(-2.44 -2.44)"/><path class="cls-2" d="M1246.43,12.25a2.79,2.79,0,0,1-1.45-.39,3,3,0,0,1-1-1,2.78,2.78,0,0,1-.39-1.44,2.72,2.72,0,0,1,.39-1.43,3,3,0,0,1,1-1,2.89,2.89,0,0,1,2.9,0,3,3,0,0,1,1,1,2.64,2.64,0,0,1,.4,1.43,2.7,2.7,0,0,1-.4,1.44,3,3,0,0,1-1,1A2.76,2.76,0,0,1,1246.43,12.25Z" transform="translate(-2.44 -2.44)"/><path class="cls-2" d="M1254.35,16.37l2.12-13.74h5.45a6.21,6.21,0,0,1,2.67.54,3.65,3.65,0,0,1,1.7,1.59,4,4,0,0,1,.33,2.53,4.93,4.93,0,0,1-1,2.33,4.88,4.88,0,0,1-1.93,1.5,6.77,6.77,0,0,1-2.7.52h-2.21l-.73,4.73Zm4.84-7.49h2.13a1.59,1.59,0,0,0,.89-.26,2.44,2.44,0,0,0,.69-.67,2,2,0,0,0,.34-.85,1.49,1.49,0,0,0-.32-1.22,1.34,1.34,0,0,0-1.06-.51h-2.13Z" transform="translate(-2.44 -2.44)"/><path class="cls-2" d="M1266.19,16.37l7-13.74H1277l2.79,13.74h-3.67l-.5-2.66h-4.35l-1.34,2.66Zm6.31-5.81h2.72l-.67-4.39Z" transform="translate(-2.44 -2.44)"/><path class="cls-2" d="M1287,16.56a8.7,8.7,0,0,1-2.11-.25,5.76,5.76,0,0,1-1.84-.79,3.67,3.67,0,0,1-1.25-1.35,3.51,3.51,0,0,1-.36-2h3.85a1.54,1.54,0,0,0,.29.83,1.64,1.64,0,0,0,.72.52,2.85,2.85,0,0,0,1.1.19,5.22,5.22,0,0,0,1.13-.12,2.23,2.23,0,0,0,.9-.38,1.09,1.09,0,0,0,.45-.76.63.63,0,0,0-.24-.64,2.17,2.17,0,0,0-.81-.35,10.83,10.83,0,0,0-1.08-.22l-2.08-.36a3.74,3.74,0,0,1-2.42-1.28,3.45,3.45,0,0,1-.6-2.77,4.25,4.25,0,0,1,1.13-2.37,6,6,0,0,1,2.33-1.5,8.41,8.41,0,0,1,3-.52,6.51,6.51,0,0,1,2.91.61,4.68,4.68,0,0,1,1.86,1.61,3.43,3.43,0,0,1,.59,2.11h-3.77a1.43,1.43,0,0,0-.18-.86,1.31,1.31,0,0,0-.66-.47,3.41,3.41,0,0,0-1.09-.15,3.34,3.34,0,0,0-1.16.17,1.47,1.47,0,0,0-.65.42,1,1,0,0,0-.25.49.9.9,0,0,0,.2.75,2.21,2.21,0,0,0,1.14.45l2.08.36a5.58,5.58,0,0,1,2.24.8,2.92,2.92,0,0,1,1.08,1.21,3.26,3.26,0,0,1,.3,1.34,7,7,0,0,1-.06,1.17,3.73,3.73,0,0,1-1.11,2.1A6.53,6.53,0,0,1,1290.2,16,9.32,9.32,0,0,1,1287,16.56Z" transform="translate(-2.44 -2.44)"/><path class="cls-2" d="M1297.94,16.37l1.6-10.49h-3.9l.5-3.25h11.57l-.5,3.25h-4l-1.61,10.49Z" transform="translate(-2.44 -2.44)"/><path class="cls-2" d="M1307.33,16.37l2.12-13.74h10.16l-.48,3.06h-6.42L1312.36,8h5.36l-.45,3h-5.39l-.36,2.34H1318l-.48,3.08Z" transform="translate(-2.44 -2.44)"/><path class="cls-2" d="M1319.84,16.37l2.1-13.74h3.72l-2.09,13.74Z" transform="translate(-2.44 -2.44)"/><path class="cls-2" d="M1332.23,16.56a5.85,5.85,0,0,1-3.3-.89,4.87,4.87,0,0,1-1.9-2.47,7.28,7.28,0,0,1-.24-3.65,8.82,8.82,0,0,1,1.44-3.74,7.62,7.62,0,0,1,6.39-3.37,6,6,0,0,1,3.08.72A4.42,4.42,0,0,1,1339.49,5a4.1,4.1,0,0,1,.38,2.44H1336a2.88,2.88,0,0,0-.25-1,1.66,1.66,0,0,0-.63-.71,2,2,0,0,0-1.06-.26,2.63,2.63,0,0,0-1.34.37,3.19,3.19,0,0,0-1.16,1.22,6.88,6.88,0,0,0-.72,2.34,6.55,6.55,0,0,0-.06,2,2.52,2.52,0,0,0,.5,1.19,1.86,1.86,0,0,0,.83.55,3.23,3.23,0,0,0,.9.14,2.31,2.31,0,0,0,.75-.12,2.59,2.59,0,0,0,.63-.29,2.64,2.64,0,0,0,.5-.42,1.83,1.83,0,0,0,.32-.46l.24-.5h-2.4l.39-2.49,6.31,0-1.12,7.26h-2.43l.22-1.52c-.27.23-.59.48-1,.75a5.1,5.1,0,0,1-1.32.68A5.64,5.64,0,0,1,1332.23,16.56Z" transform="translate(-2.44 -2.44)"/><path class="cls-2" d="M1340.23,16.37l7-13.74H1351l2.78,13.74h-3.67l-.5-2.66h-4.35l-1.34,2.66Zm6.31-5.81h2.72l-.67-4.39Z" transform="translate(-2.44 -2.44)"/><path class="cls-2" d="M1362.39,12.25a2.79,2.79,0,0,1-1.45-.39,3,3,0,0,1-1-1,2.87,2.87,0,0,1-.38-1.44,2.81,2.81,0,0,1,.38-1.43,3,3,0,0,1,1-1,2.79,2.79,0,0,1,1.45-.39,2.83,2.83,0,0,1,1.46.39,3.13,3.13,0,0,1,1.05,1,2.72,2.72,0,0,1,.39,1.43,2.78,2.78,0,0,1-.39,1.44,3.16,3.16,0,0,1-1.05,1A2.83,2.83,0,0,1,1362.39,12.25Z" transform="translate(-2.44 -2.44)"/><path class="cls-2" d="M1370.34,16.37l2.12-13.74h5.45a6.13,6.13,0,0,1,2.66.54,3.63,3.63,0,0,1,1.71,1.59,4,4,0,0,1,.33,2.53,4.93,4.93,0,0,1-1,2.33,4.88,4.88,0,0,1-1.93,1.5,6.77,6.77,0,0,1-2.7.52h-2.21l-.73,4.73Zm4.84-7.49h2.13a1.59,1.59,0,0,0,.89-.26,2.44,2.44,0,0,0,.69-.67,2,2,0,0,0,.34-.85,1.49,1.49,0,0,0-.32-1.22,1.34,1.34,0,0,0-1.06-.51h-2.13Z" transform="translate(-2.44 -2.44)"/><path class="cls-2" d="M1382.16,16.37l7-13.74h3.77l2.79,13.74h-3.67l-.5-2.66h-4.35l-1.34,2.66Zm6.32-5.81h2.72l-.67-4.39Z" transform="translate(-2.44 -2.44)"/><path class="cls-2" d="M1403,16.56a8.85,8.85,0,0,1-2.12-.25,5.7,5.7,0,0,1-1.83-.79,3.59,3.59,0,0,1-1.25-1.35,3.51,3.51,0,0,1-.36-2h3.85a1.54,1.54,0,0,0,.29.83,1.64,1.64,0,0,0,.72.52,2.78,2.78,0,0,0,1.1.19,5.13,5.13,0,0,0,1.12-.12,2.28,2.28,0,0,0,.91-.38,1.13,1.13,0,0,0,.45-.76.63.63,0,0,0-.24-.64,2.17,2.17,0,0,0-.81-.35,10.83,10.83,0,0,0-1.08-.22l-2.09-.36a3.77,3.77,0,0,1-2.42-1.28,3.52,3.52,0,0,1-.6-2.77,4.33,4.33,0,0,1,1.14-2.37,5.94,5.94,0,0,1,2.33-1.5,8.37,8.37,0,0,1,3-.52,6.51,6.51,0,0,1,2.91.61,4.68,4.68,0,0,1,1.86,1.61,3.56,3.56,0,0,1,.59,2.11h-3.77a1.36,1.36,0,0,0-.19-.86,1.24,1.24,0,0,0-.65-.47,3.48,3.48,0,0,0-1.1-.15,3.38,3.38,0,0,0-1.16.17,1.43,1.43,0,0,0-.64.42,1,1,0,0,0-.25.49.87.87,0,0,0,.2.75,2.13,2.13,0,0,0,1.13.45l2.09.36a5.7,5.7,0,0,1,2.24.8,2.82,2.82,0,0,1,1.07,1.21,3.44,3.44,0,0,1,.31,1.34,6.94,6.94,0,0,1-.07,1.17,3.66,3.66,0,0,1-1.1,2.1,6.49,6.49,0,0,1-2.38,1.46A9.22,9.22,0,0,1,1403,16.56Z" transform="translate(-2.44 -2.44)"/><path class="cls-2" d="M1413.93,16.37l1.59-10.49h-3.9l.5-3.25h11.57l-.5,3.25h-4l-1.61,10.49Z" transform="translate(-2.44 -2.44)"/><path class="cls-2" d="M1423.3,16.37l2.12-13.74h10.16l-.48,3.06h-6.42L1428.33,8h5.36l-.45,3h-5.39l-.36,2.34H1434l-.48,3.08Z" transform="translate(-2.44 -2.44)"/><path class="cls-2" d="M1435.78,16.37l2.1-13.74h3.73l-2.09,13.74Z" transform="translate(-2.44 -2.44)"/><path class="cls-2" d="M1448.19,16.56a5.79,5.79,0,0,1-3.29-.89,4.81,4.81,0,0,1-1.9-2.47,7.39,7.39,0,0,1-.25-3.65,9.09,9.09,0,0,1,1.44-3.74A7.7,7.7,0,0,1,1447,3.33a7.6,7.6,0,0,1,3.64-.89,6,6,0,0,1,3.08.72A4.48,4.48,0,0,1,1455.46,5a4.09,4.09,0,0,1,.37,2.44H1452a2.68,2.68,0,0,0-.25-1,1.71,1.71,0,0,0-.62-.71A2,2,0,0,0,1450,5.5a2.66,2.66,0,0,0-1.34.37,3.17,3.17,0,0,0-1.15,1.22,6.87,6.87,0,0,0-.73,2.34,6.49,6.49,0,0,0,0,2,2.42,2.42,0,0,0,.5,1.19,1.84,1.84,0,0,0,.82.55,3.25,3.25,0,0,0,.91.14,2.25,2.25,0,0,0,.74-.12,2.66,2.66,0,0,0,.64-.29,3,3,0,0,0,.5-.42,1.77,1.77,0,0,0,.31-.46l.24-.5H1449l.38-2.49,6.31,0-1.11,7.26h-2.44l.22-1.52c-.27.23-.58.48-.94.75a5,5,0,0,1-1.33.68A5.64,5.64,0,0,1,1448.19,16.56Z" transform="translate(-2.44 -2.44)"/><path class="cls-2" d="M1456.17,16.37l7-13.74H1467l2.79,13.74h-3.67l-.5-2.66h-4.35l-1.34,2.66Zm6.31-5.81h2.73l-.67-4.39Z" transform="translate(-2.44 -2.44)"/><path class="cls-2" d="M1478.36,12.25a2.83,2.83,0,0,1-1.46-.39,3,3,0,0,1-1-1,2.78,2.78,0,0,1-.39-1.44,2.72,2.72,0,0,1,.39-1.43,3,3,0,0,1,1-1,2.83,2.83,0,0,1,1.46-.39,2.79,2.79,0,0,1,1.45.39,3,3,0,0,1,1,1,2.72,2.72,0,0,1,.39,1.43,2.78,2.78,0,0,1-.39,1.44,3,3,0,0,1-1,1A2.79,2.79,0,0,1,1478.36,12.25Z" transform="translate(-2.44 -2.44)"/><path class="cls-2" d="M1486.31,16.37l2.12-13.74h5.44a6.18,6.18,0,0,1,2.67.54,3.6,3.6,0,0,1,1.7,1.59,3.86,3.86,0,0,1,.33,2.53,5,5,0,0,1-1,2.33,4.91,4.91,0,0,1-1.94,1.5,6.77,6.77,0,0,1-2.7.52h-2.2l-.73,4.73Zm4.83-7.49h2.14a1.56,1.56,0,0,0,.88-.26,2.21,2.21,0,0,0,.69-.67,2,2,0,0,0,.35-.85,1.46,1.46,0,0,0-.33-1.22,1.33,1.33,0,0,0-1-.51h-2.13Z" transform="translate(-2.44 -2.44)"/><path class="cls-2" d="M1498.15,16.37l7-13.74h3.78l2.78,13.74h-3.66l-.5-2.66h-4.35l-1.35,2.66Zm6.31-5.81h2.73l-.67-4.39Z" transform="translate(-2.44 -2.44)"/><path class="cls-2" d="M1519,16.56a8.76,8.76,0,0,1-2.11-.25,5.76,5.76,0,0,1-1.84-.79,3.76,3.76,0,0,1-1.25-1.35,3.51,3.51,0,0,1-.36-2h3.86a1.46,1.46,0,0,0,.29.83,1.67,1.67,0,0,0,.71.52,2.87,2.87,0,0,0,1.11.19,5.13,5.13,0,0,0,1.12-.12,2.28,2.28,0,0,0,.91-.38,1.12,1.12,0,0,0,.44-.76.61.61,0,0,0-.23-.64,2.17,2.17,0,0,0-.81-.35,10.49,10.49,0,0,0-1.09-.22l-2.08-.36a3.74,3.74,0,0,1-2.42-1.28,3.52,3.52,0,0,1-.6-2.77,4.2,4.2,0,0,1,1.14-2.37,5.94,5.94,0,0,1,2.33-1.5,8.37,8.37,0,0,1,3-.52,6.51,6.51,0,0,1,2.91.61,4.65,4.65,0,0,1,1.85,1.61,3.5,3.5,0,0,1,.6,2.11h-3.77a1.43,1.43,0,0,0-.19-.86,1.23,1.23,0,0,0-.66-.47,4,4,0,0,0-2.25,0,1.53,1.53,0,0,0-.65.42.94.94,0,0,0-.24.49.86.86,0,0,0,.19.75,2.21,2.21,0,0,0,1.14.45l2.08.36a5.69,5.69,0,0,1,2.25.8A3,3,0,0,1,1525.4,10a3.44,3.44,0,0,1,.31,1.34,8.17,8.17,0,0,1-.07,1.17,3.66,3.66,0,0,1-1.1,2.1,6.57,6.57,0,0,1-2.38,1.46A9.32,9.32,0,0,1,1519,16.56Z" transform="translate(-2.44 -2.44)"/><path class="cls-2" d="M1529.89,16.37l1.59-10.49h-3.89l.5-3.25h11.56l-.5,3.25h-4l-1.61,10.49Z" transform="translate(-2.44 -2.44)"/><path class="cls-2" d="M1539.29,16.37l2.12-13.74h10.17l-.48,3.06h-6.43L1544.33,8h5.36l-.45,3h-5.39l-.36,2.34H1550l-.48,3.08Z" transform="translate(-2.44 -2.44)"/><path class="cls-2" d="M1551.76,16.37l2.1-13.74h3.72l-2.09,13.74Z" transform="translate(-2.44 -2.44)"/><path class="cls-2" d="M1564.17,16.56a5.85,5.85,0,0,1-3.3-.89,4.87,4.87,0,0,1-1.9-2.47,7.28,7.28,0,0,1-.24-3.65,8.82,8.82,0,0,1,1.44-3.74,7.62,7.62,0,0,1,6.39-3.37,6,6,0,0,1,3.08.72A4.42,4.42,0,0,1,1571.43,5a4.1,4.1,0,0,1,.38,2.44h-3.87a2.88,2.88,0,0,0-.25-1,1.66,1.66,0,0,0-.63-.71A2,2,0,0,0,1566,5.5a2.63,2.63,0,0,0-1.34.37,3.19,3.19,0,0,0-1.16,1.22,6.88,6.88,0,0,0-.72,2.34,6.55,6.55,0,0,0-.06,2,2.52,2.52,0,0,0,.5,1.19,1.86,1.86,0,0,0,.83.55,3.23,3.23,0,0,0,.9.14,2.31,2.31,0,0,0,.75-.12,2.59,2.59,0,0,0,.63-.29,2.64,2.64,0,0,0,.5-.42,1.83,1.83,0,0,0,.32-.46l.24-.5H1565l.39-2.49,6.31,0-1.12,7.26h-2.43l.22-1.52c-.27.23-.59.48-.95.75a5.1,5.1,0,0,1-1.32.68A5.64,5.64,0,0,1,1564.17,16.56Z" transform="translate(-2.44 -2.44)"/><path class="cls-2" d="M1572.17,16.37l7-13.74H1583l2.78,13.74h-3.66l-.5-2.66h-4.35l-1.35,2.66Zm6.31-5.81h2.73l-.68-4.39Z" transform="translate(-2.44 -2.44)"/><path class="cls-2" d="M1594.33,12.25a2.79,2.79,0,0,1-1.45-.39,3,3,0,0,1-1.05-1,2.87,2.87,0,0,1-.38-1.44,2.81,2.81,0,0,1,.38-1.43,3,3,0,0,1,1.05-1,2.79,2.79,0,0,1,1.45-.39,2.83,2.83,0,0,1,1.46.39,3.13,3.13,0,0,1,1,1,2.72,2.72,0,0,1,.39,1.43,2.78,2.78,0,0,1-.39,1.44,3.16,3.16,0,0,1-1,1A2.83,2.83,0,0,1,1594.33,12.25Z" transform="translate(-2.44 -2.44)"/><path class="cls-2" d="M1602.28,16.37l2.12-13.74h5.44a6.18,6.18,0,0,1,2.67.54,3.6,3.6,0,0,1,1.7,1.59,3.86,3.86,0,0,1,.33,2.53,5,5,0,0,1-1,2.33,4.91,4.91,0,0,1-1.94,1.5,6.77,6.77,0,0,1-2.7.52h-2.2l-.73,4.73Zm4.83-7.49h2.14a1.56,1.56,0,0,0,.88-.26,2.21,2.21,0,0,0,.69-.67,2,2,0,0,0,.35-.85,1.46,1.46,0,0,0-.33-1.22,1.33,1.33,0,0,0-1-.51h-2.13Z" transform="translate(-2.44 -2.44)"/><path class="cls-2" d="M1614.11,16.37l7-13.74h3.78l2.78,13.74H1624l-.5-2.66h-4.35l-1.35,2.66Zm6.31-5.81h2.73l-.67-4.39Z" transform="translate(-2.44 -2.44)"/><path class="cls-2" d="M1634.94,16.56a8.7,8.7,0,0,1-2.11-.25,5.76,5.76,0,0,1-1.84-.79,3.59,3.59,0,0,1-1.25-1.35,3.51,3.51,0,0,1-.36-2h3.85a1.54,1.54,0,0,0,.29.83,1.64,1.64,0,0,0,.72.52,2.81,2.81,0,0,0,1.1.19,5.06,5.06,0,0,0,1.12-.12,2.28,2.28,0,0,0,.91-.38,1.09,1.09,0,0,0,.45-.76.63.63,0,0,0-.24-.64,2.17,2.17,0,0,0-.81-.35,10.83,10.83,0,0,0-1.08-.22l-2.08-.36a3.74,3.74,0,0,1-2.42-1.28,3.45,3.45,0,0,1-.6-2.77,4.25,4.25,0,0,1,1.13-2.37,6,6,0,0,1,2.33-1.5,8.41,8.41,0,0,1,3-.52,6.51,6.51,0,0,1,2.91.61,4.68,4.68,0,0,1,1.86,1.61,3.49,3.49,0,0,1,.59,2.11h-3.77a1.43,1.43,0,0,0-.18-.86,1.31,1.31,0,0,0-.66-.47,4.07,4.07,0,0,0-2.26,0,1.43,1.43,0,0,0-.64.42,1,1,0,0,0-.25.49.87.87,0,0,0,.2.75,2.17,2.17,0,0,0,1.14.45l2.08.36a5.64,5.64,0,0,1,2.24.8,2.92,2.92,0,0,1,1.08,1.21,3.42,3.42,0,0,1,.3,1.34,6,6,0,0,1-.07,1.17,3.66,3.66,0,0,1-1.1,2.1,6.49,6.49,0,0,1-2.38,1.46A9.22,9.22,0,0,1,1634.94,16.56Z" transform="translate(-2.44 -2.44)"/><path class="cls-2" d="M1645.87,16.37l1.59-10.49h-3.89l.5-3.25h11.56l-.5,3.25h-4l-1.61,10.49Z" transform="translate(-2.44 -2.44)"/><path class="cls-2" d="M1655.25,16.37l2.12-13.74h10.16l-.48,3.06h-6.42L1660.28,8h5.36l-.45,3h-5.39l-.36,2.34h6.48l-.48,3.08Z" transform="translate(-2.44 -2.44)"/><path class="cls-2" d="M1667.73,16.37l2.1-13.74h3.72l-2.09,13.74Z" transform="translate(-2.44 -2.44)"/><path class="cls-2" d="M1680.12,16.56a5.79,5.79,0,0,1-3.29-.89,4.81,4.81,0,0,1-1.9-2.47,7.39,7.39,0,0,1-.25-3.65,9.09,9.09,0,0,1,1.44-3.74,7.7,7.7,0,0,1,2.76-2.48,7.6,7.6,0,0,1,3.64-.89,6,6,0,0,1,3.08.72A4.48,4.48,0,0,1,1687.39,5a4.17,4.17,0,0,1,.38,2.44h-3.88a2.68,2.68,0,0,0-.25-1,1.71,1.71,0,0,0-.62-.71A2,2,0,0,0,1682,5.5a2.66,2.66,0,0,0-1.34.37,3.17,3.17,0,0,0-1.15,1.22,6.87,6.87,0,0,0-.73,2.34,6.49,6.49,0,0,0,0,2,2.42,2.42,0,0,0,.5,1.19,1.84,1.84,0,0,0,.82.55,3.25,3.25,0,0,0,.91.14,2.25,2.25,0,0,0,.74-.12,2.66,2.66,0,0,0,.64-.29,3,3,0,0,0,.5-.42,1.77,1.77,0,0,0,.31-.46l.24-.5H1681l.38-2.49,6.31,0-1.11,7.26h-2.44l.22-1.52c-.27.23-.58.48-.94.75a5,5,0,0,1-1.33.68A5.64,5.64,0,0,1,1680.12,16.56Z" transform="translate(-2.44 -2.44)"/><path class="cls-2" d="M1688.12,16.37l7-13.74h3.78l2.78,13.74H1698l-.5-2.66h-4.35l-1.34,2.66Zm6.31-5.81h2.72l-.67-4.39Z" transform="translate(-2.44 -2.44)"/><path class="cls-2" d="M1710.32,12.25a2.76,2.76,0,0,1-1.45-.39,3,3,0,0,1-1-1,2.78,2.78,0,0,1-.39-1.44,2.72,2.72,0,0,1,.39-1.43,3,3,0,0,1,1-1,2.89,2.89,0,0,1,2.9,0,3,3,0,0,1,1,1,2.73,2.73,0,0,1,.4,1.43,2.79,2.79,0,0,1-.4,1.44,3,3,0,0,1-1,1A2.79,2.79,0,0,1,1710.32,12.25Z" transform="translate(-2.44 -2.44)"/><path class="cls-2" d="M1718.24,16.37l2.12-13.74h5.45a6.16,6.16,0,0,1,2.66.54,3.6,3.6,0,0,1,1.7,1.59,3.86,3.86,0,0,1,.33,2.53,5,5,0,0,1-1,2.33,4.91,4.91,0,0,1-1.94,1.5,6.77,6.77,0,0,1-2.7.52h-2.2l-.73,4.73Zm4.83-7.49h2.14a1.56,1.56,0,0,0,.88-.26,2.21,2.21,0,0,0,.69-.67,2,2,0,0,0,.35-.85,1.46,1.46,0,0,0-.33-1.22,1.33,1.33,0,0,0-1-.51h-2.13Z" transform="translate(-2.44 -2.44)"/><path class="cls-2" d="M1730.08,16.37l7-13.74h3.78l2.78,13.74H1740l-.5-2.66h-4.36l-1.34,2.66Zm6.31-5.81h2.72l-.67-4.39Z" transform="translate(-2.44 -2.44)"/><path class="cls-2" d="M1750.91,16.56a8.7,8.7,0,0,1-2.11-.25,5.76,5.76,0,0,1-1.84-.79,3.67,3.67,0,0,1-1.25-1.35,3.51,3.51,0,0,1-.36-2h3.85a1.54,1.54,0,0,0,.29.83,1.64,1.64,0,0,0,.72.52,2.85,2.85,0,0,0,1.1.19,5.22,5.22,0,0,0,1.13-.12,2.23,2.23,0,0,0,.9-.38,1.09,1.09,0,0,0,.45-.76.63.63,0,0,0-.24-.64,2.17,2.17,0,0,0-.81-.35,10.83,10.83,0,0,0-1.08-.22l-2.08-.36a3.74,3.74,0,0,1-2.42-1.28,3.45,3.45,0,0,1-.6-2.77,4.25,4.25,0,0,1,1.13-2.37A6,6,0,0,1,1750,3a8.41,8.41,0,0,1,3-.52,6.51,6.51,0,0,1,2.91.61,4.68,4.68,0,0,1,1.86,1.61,3.49,3.49,0,0,1,.59,2.11h-3.77a1.43,1.43,0,0,0-.18-.86,1.31,1.31,0,0,0-.66-.47,3.41,3.41,0,0,0-1.09-.15,3.34,3.34,0,0,0-1.16.17,1.47,1.47,0,0,0-.65.42,1,1,0,0,0-.25.49.87.87,0,0,0,.2.75,2.17,2.17,0,0,0,1.14.45L1754,8a5.64,5.64,0,0,1,2.24.8,2.92,2.92,0,0,1,1.08,1.21,3.42,3.42,0,0,1,.3,1.34,7,7,0,0,1-.06,1.17,3.73,3.73,0,0,1-1.11,2.1,6.49,6.49,0,0,1-2.38,1.46A9.22,9.22,0,0,1,1750.91,16.56Z" transform="translate(-2.44 -2.44)"/><path class="cls-2" d="M1761.82,16.37l1.59-10.49h-3.89l.5-3.25h11.56l-.5,3.25h-3.95l-1.61,10.49Z" transform="translate(-2.44 -2.44)"/><path class="cls-2" d="M1771.23,16.37l2.12-13.74h10.16L1783,5.69h-6.42L1776.26,8h5.36l-.45,3h-5.39l-.36,2.34h6.48l-.48,3.08Z" transform="translate(-2.44 -2.44)"/><path class="cls-2" d="M1783.71,16.37l2.1-13.74h3.72l-2.09,13.74Z" transform="translate(-2.44 -2.44)"/><path class="cls-2" d="M1796.09,16.56a5.85,5.85,0,0,1-3.3-.89,4.85,4.85,0,0,1-1.89-2.47,7.16,7.16,0,0,1-.25-3.65,8.82,8.82,0,0,1,1.44-3.74,7.65,7.65,0,0,1,6.4-3.37,6,6,0,0,1,3.07.72A4.42,4.42,0,0,1,1803.35,5a4.1,4.1,0,0,1,.38,2.44h-3.87a2.88,2.88,0,0,0-.25-1,1.66,1.66,0,0,0-.63-.71,2,2,0,0,0-1.06-.26,2.63,2.63,0,0,0-1.34.37,3.1,3.1,0,0,0-1.15,1.22,6.66,6.66,0,0,0-.73,2.34,6.21,6.21,0,0,0,0,2,2.42,2.42,0,0,0,.49,1.19,1.86,1.86,0,0,0,.83.55,3.25,3.25,0,0,0,.91.14,2.3,2.3,0,0,0,.74-.12,2.85,2.85,0,0,0,.64-.29,2.92,2.92,0,0,0,.49-.42,1.6,1.6,0,0,0,.32-.46l.24-.5h-2.4l.39-2.49,6.31,0-1.11,7.26h-2.44l.22-1.52c-.27.23-.58.48-1,.75a5.1,5.1,0,0,1-1.32.68A5.64,5.64,0,0,1,1796.09,16.56Z" transform="translate(-2.44 -2.44)"/><path class="cls-2" d="M1804.09,16.37l7-13.74h3.78l2.78,13.74H1814l-.5-2.66h-4.36l-1.34,2.66Zm6.31-5.81h2.72l-.67-4.39Z" transform="translate(-2.44 -2.44)"/><path class="cls-2" d="M1826.29,12.25a2.83,2.83,0,0,1-1.46-.39,3,3,0,0,1-1-1,2.78,2.78,0,0,1-.39-1.44,2.72,2.72,0,0,1,.39-1.43,3,3,0,0,1,1-1,2.83,2.83,0,0,1,1.46-.39,2.79,2.79,0,0,1,1.45.39,3,3,0,0,1,1,1,2.72,2.72,0,0,1,.39,1.43,2.78,2.78,0,0,1-.39,1.44,3,3,0,0,1-1,1A2.79,2.79,0,0,1,1826.29,12.25Z" transform="translate(-2.44 -2.44)"/><path class="cls-2" d="M1834.22,16.37l2.12-13.74h5.45a6.16,6.16,0,0,1,2.66.54,3.67,3.67,0,0,1,1.71,1.59,4,4,0,0,1,.33,2.53,4.93,4.93,0,0,1-1,2.33,4.88,4.88,0,0,1-1.93,1.5,6.77,6.77,0,0,1-2.7.52h-2.21l-.73,4.73Zm4.83-7.49h2.14a1.59,1.59,0,0,0,.89-.26,2.44,2.44,0,0,0,.69-.67,2,2,0,0,0,.34-.85,1.49,1.49,0,0,0-.32-1.22,1.34,1.34,0,0,0-1.06-.51h-2.13Z" transform="translate(-2.44 -2.44)"/><path class="cls-2" d="M1846.06,16.37l7-13.74h3.77l2.78,13.74H1856l-.5-2.66h-4.35l-1.34,2.66Zm6.31-5.81h2.73l-.67-4.39Z" transform="translate(-2.44 -2.44)"/><path class="cls-2" d="M1866.88,16.56a8.7,8.7,0,0,1-2.11-.25,5.76,5.76,0,0,1-1.84-.79,3.67,3.67,0,0,1-1.25-1.35,3.51,3.51,0,0,1-.36-2h3.85a1.54,1.54,0,0,0,.29.83,1.76,1.76,0,0,0,.72.52,2.85,2.85,0,0,0,1.1.19,5.22,5.22,0,0,0,1.13-.12,2.17,2.17,0,0,0,.9-.38,1.09,1.09,0,0,0,.45-.76.62.62,0,0,0-.24-.64,2.17,2.17,0,0,0-.81-.35,10.28,10.28,0,0,0-1.08-.22l-2.08-.36a3.74,3.74,0,0,1-2.42-1.28,3.45,3.45,0,0,1-.6-2.77,4.25,4.25,0,0,1,1.13-2.37A6,6,0,0,1,1866,3a8.36,8.36,0,0,1,3-.52,6.51,6.51,0,0,1,2.91.61,4.68,4.68,0,0,1,1.86,1.61,3.43,3.43,0,0,1,.59,2.11h-3.77a1.43,1.43,0,0,0-.18-.86,1.31,1.31,0,0,0-.66-.47,3.41,3.41,0,0,0-1.09-.15,3.34,3.34,0,0,0-1.16.17,1.47,1.47,0,0,0-.65.42.94.94,0,0,0-.24.49.86.86,0,0,0,.19.75,2.21,2.21,0,0,0,1.14.45L1870,8a5.58,5.58,0,0,1,2.24.8,2.92,2.92,0,0,1,1.08,1.21,3.26,3.26,0,0,1,.3,1.34,7,7,0,0,1-.06,1.17,3.73,3.73,0,0,1-1.11,2.1,6.53,6.53,0,0,1-2.37,1.46A9.32,9.32,0,0,1,1866.88,16.56Z" transform="translate(-2.44 -2.44)"/><path class="cls-2" d="M1877.82,16.37l1.59-10.49h-3.89l.49-3.25h11.57l-.5,3.25h-3.95l-1.61,10.49Z" transform="translate(-2.44 -2.44)"/><path class="cls-2" d="M1887.2,16.37l2.12-13.74h10.17L1899,5.69h-6.43L1892.24,8h5.36l-.45,3h-5.39l-.37,2.34h6.49l-.48,3.08Z" transform="translate(-2.44 -2.44)"/><path class="cls-2" d="M1899.67,16.37l2.1-13.74h3.73l-2.1,13.74Z" transform="translate(-2.44 -2.44)"/><path class="cls-2" d="M1912.07,16.56a5.85,5.85,0,0,1-3.3-.89,4.87,4.87,0,0,1-1.9-2.47,7.28,7.28,0,0,1-.24-3.65,8.82,8.82,0,0,1,1.44-3.74,7.62,7.62,0,0,1,6.39-3.37,6,6,0,0,1,3.08.72A4.42,4.42,0,0,1,1919.33,5a4.1,4.1,0,0,1,.38,2.44h-3.88a2.68,2.68,0,0,0-.24-1,1.73,1.73,0,0,0-.63-.71,2,2,0,0,0-1.06-.26,2.63,2.63,0,0,0-1.34.37,3.19,3.19,0,0,0-1.16,1.22,6.88,6.88,0,0,0-.72,2.34,6.55,6.55,0,0,0-.06,2,2.52,2.52,0,0,0,.5,1.19,1.86,1.86,0,0,0,.83.55,3.23,3.23,0,0,0,.9.14,2.36,2.36,0,0,0,.75-.12,2.59,2.59,0,0,0,.63-.29,2.64,2.64,0,0,0,.5-.42,1.83,1.83,0,0,0,.32-.46l.24-.5h-2.4l.38-2.49,6.31,0-1.11,7.26H1916l.22-1.52c-.27.23-.59.48-1,.75a5.1,5.1,0,0,1-1.32.68A5.64,5.64,0,0,1,1912.07,16.56Z" transform="translate(-2.44 -2.44)"/><path class="cls-2" d="M1920.06,16.37l7-13.74h3.77l2.79,13.74H1930l-.5-2.66h-4.35l-1.34,2.66Zm6.32-5.81h2.72l-.67-4.39Z" transform="translate(-2.44 -2.44)"/><path class="cls-2" d="M1942.25,12.25a2.79,2.79,0,0,1-1.45-.39,3,3,0,0,1-1-1,2.87,2.87,0,0,1-.38-1.44,2.81,2.81,0,0,1,.38-1.43,3,3,0,0,1,1-1,2.79,2.79,0,0,1,1.45-.39,2.83,2.83,0,0,1,1.46.39,3.13,3.13,0,0,1,1,1,2.72,2.72,0,0,1,.39,1.43,2.78,2.78,0,0,1-.39,1.44,3.16,3.16,0,0,1-1,1A2.83,2.83,0,0,1,1942.25,12.25Z" transform="translate(-2.44 -2.44)"/></g></g></g></svg>