<svg xmlns="http://www.w3.org/2000/svg" viewBox="0 0 1053.56 287.6"><defs><style>.cls-1{opacity:0.6;}.cls-2{fill:#fff;}</style></defs><g id="Layer_2" data-name="Layer 2"><g id="Accordion_menu_expanded" data-name="Accordion menu expanded"><g id="Layer_3_copy_2" data-name="Layer 3 copy 2"><g class="cls-1"><path class="cls-2" d="M12.49,289.46,2,287.82V283.6a4.88,4.88,0,0,1,.41-2.06,2.83,2.83,0,0,1,1.21-1.32A3,3,0,0,1,5.56,280a3.76,3.76,0,0,1,1.78.75,3.71,3.71,0,0,1,1.14,1.5,5.13,5.13,0,0,1,.4,2.09V286l3.61.56Zm-5.71-3.74v-1.66a1.28,1.28,0,0,0-.2-.68,1.87,1.87,0,0,0-.51-.54,1.56,1.56,0,0,0-.65-.26,1.11,1.11,0,0,0-.94.25,1,1,0,0,0-.38.82v1.65Z" transform="translate(-1.67 -1.86)"/><path class="cls-2" d="M12.49,281.43,2,276v-2.92l10.48-2.16v2.84l-2,.38v3.38l2,1Zm-4.44-4.89v-2.11L4.71,275Z" transform="translate(-1.67 -1.86)"/><path class="cls-2" d="M12.64,265.53a6.88,6.88,0,0,1-.2,1.64,4.3,4.3,0,0,1-.59,1.42,2.84,2.84,0,0,1-1,1,2.7,2.7,0,0,1-1.51.28v-3a1.09,1.09,0,0,0,.63-.22,1.17,1.17,0,0,0,.4-.56,2.19,2.19,0,0,0,.15-.85,4.14,4.14,0,0,0-.09-.87,1.94,1.94,0,0,0-.29-.7.86.86,0,0,0-.58-.35.48.48,0,0,0-.49.18,1.67,1.67,0,0,0-.27.63c-.06.26-.12.54-.17.84l-.27,1.61a2.91,2.91,0,0,1-1,1.88,2.62,2.62,0,0,1-2.11.46A3.13,3.13,0,0,1,3.42,268a4.77,4.77,0,0,1-1.15-1.8,6.75,6.75,0,0,1-.39-2.31,4.86,4.86,0,0,1,.47-2.25,3.49,3.49,0,0,1,1.22-1.44,2.63,2.63,0,0,1,1.61-.46v2.92a1,1,0,0,0-.65.14.89.89,0,0,0-.36.51,2.6,2.6,0,0,0-.12.85,2.77,2.77,0,0,0,.13.9,1.11,1.11,0,0,0,.32.5.76.76,0,0,0,.38.19.67.67,0,0,0,.57-.15,1.64,1.64,0,0,0,.34-.88l.28-1.62a4.63,4.63,0,0,1,.6-1.74,2.33,2.33,0,0,1,.93-.83,2.71,2.71,0,0,1,1-.24,6,6,0,0,1,.9.06,2.8,2.8,0,0,1,1.6.85,5.09,5.09,0,0,1,1.11,1.84A7.23,7.23,0,0,1,12.64,265.53Z" transform="translate(-1.67 -1.86)"/><path class="cls-2" d="M12.49,256.9l-8-1.23v3L2,258.3v-9l2.48.38v3.06l8,1.25Z" transform="translate(-1.67 -1.86)"/><path class="cls-2" d="M12.49,251.72,2,246.29v-2.92l10.48-2.16v2.84l-2,.38v3.38l2,1Zm-4.44-4.89v-2.11l-3.34.52Z" transform="translate(-1.67 -1.86)"/><path class="cls-2" d="M12.49,240,2,238.35v-2.88l10.48,1.62Z" transform="translate(-1.67 -1.86)"/><path class="cls-2" d="M12.64,230.39A4.58,4.58,0,0,1,12,233a3.76,3.76,0,0,1-1.89,1.47,5.62,5.62,0,0,1-2.78.19,6.89,6.89,0,0,1-2.86-1.12,5.93,5.93,0,0,1-2.57-5,4.77,4.77,0,0,1,.55-2.39,3.43,3.43,0,0,1,1.44-1.39,3.2,3.2,0,0,1,1.86-.29v3a2,2,0,0,0-.77.2,1.26,1.26,0,0,0-.54.48,1.47,1.47,0,0,0-.2.82,2.06,2.06,0,0,0,.28,1,2.37,2.37,0,0,0,.93.9,5.4,5.4,0,0,0,1.79.56,4.86,4.86,0,0,0,1.55,0,1.78,1.78,0,0,0,.91-.39,1.46,1.46,0,0,0,.42-.63,2.56,2.56,0,0,0,.11-.71,1.79,1.79,0,0,0-.09-.57,2.54,2.54,0,0,0-.23-.5,2.33,2.33,0,0,0-.31-.38,1.56,1.56,0,0,0-.36-.25l-.38-.18v1.85l-1.9-.29,0-4.89,5.54.86v1.89l-1.16-.17a8.52,8.52,0,0,1,.57.73,3.75,3.75,0,0,1,.52,1A4.34,4.34,0,0,1,12.64,230.39Z" transform="translate(-1.67 -1.86)"/><path class="cls-2" d="M12.49,224,2,218.61v-2.92l10.48-2.16v2.84l-2,.39v3.37l2,1Zm-4.44-4.89V217l-3.34.52Z" transform="translate(-1.67 -1.86)"/><path class="cls-2" d="M9.35,206.85a2.2,2.2,0,0,1-.3,1.13,2.3,2.3,0,0,1-.8.81,2.13,2.13,0,0,1-2.18,0,2.27,2.27,0,0,1-.79-.81,2.2,2.2,0,0,1-.3-1.13,2.16,2.16,0,0,1,.3-1.12,2.39,2.39,0,0,1,.79-.82,2.13,2.13,0,0,1,2.18,0,2.41,2.41,0,0,1,.8.82A2.16,2.16,0,0,1,9.35,206.85Z" transform="translate(-1.67 -1.86)"/><path class="cls-2" d="M12.49,200.71,2,199.07v-4.22a4.92,4.92,0,0,1,.41-2.06,2.83,2.83,0,0,1,1.21-1.32,3,3,0,0,1,1.93-.26,3.76,3.76,0,0,1,1.78.75,3.71,3.71,0,0,1,1.14,1.5,5.13,5.13,0,0,1,.4,2.09v1.71l3.61.57ZM6.78,197v-1.66a1.28,1.28,0,0,0-.2-.68,1.87,1.87,0,0,0-.51-.54,1.56,1.56,0,0,0-.65-.26,1.11,1.11,0,0,0-.94.25,1.06,1.06,0,0,0-.38.82v1.65Z" transform="translate(-1.67 -1.86)"/><path class="cls-2" d="M12.49,192.68,2,187.26v-2.93l10.48-2.16V185l-2,.39v3.37l2,1Zm-4.44-4.89v-2.11l-3.34.52Z" transform="translate(-1.67 -1.86)"/><path class="cls-2" d="M12.64,176.79a7,7,0,0,1-.2,1.64,4.39,4.39,0,0,1-.59,1.42,2.84,2.84,0,0,1-1,1,2.7,2.7,0,0,1-1.51.28v-3a1.09,1.09,0,0,0,.63-.22,1.23,1.23,0,0,0,.4-.56,2.19,2.19,0,0,0,.15-.85,4,4,0,0,0-.09-.87,1.94,1.94,0,0,0-.29-.7.83.83,0,0,0-.58-.35.45.45,0,0,0-.49.18,1.67,1.67,0,0,0-.27.63c-.06.26-.12.54-.17.84l-.27,1.61a2.94,2.94,0,0,1-1,1.88,2.62,2.62,0,0,1-2.11.46,3.2,3.2,0,0,1-1.81-.88,4.77,4.77,0,0,1-1.15-1.8,6.79,6.79,0,0,1-.39-2.31,4.93,4.93,0,0,1,.47-2.26,3.52,3.52,0,0,1,1.22-1.43A2.56,2.56,0,0,1,5.18,171v2.92a1,1,0,0,0-.65.14.89.89,0,0,0-.36.51,2.6,2.6,0,0,0-.12.85,2.66,2.66,0,0,0,.13.89,1.15,1.15,0,0,0,.32.51.85.85,0,0,0,.38.19.65.65,0,0,0,.57-.16,1.6,1.6,0,0,0,.34-.88l.28-1.61a4.51,4.51,0,0,1,.6-1.74,2.26,2.26,0,0,1,.93-.83,2.71,2.71,0,0,1,1-.24,6.09,6.09,0,0,1,.9.05,2.82,2.82,0,0,1,1.6.86,5,5,0,0,1,1.11,1.84A7.23,7.23,0,0,1,12.64,176.79Z" transform="translate(-1.67 -1.86)"/><path class="cls-2" d="M12.49,168.17l-8-1.23v3L2,169.57v-9l2.48.39v3.06l8,1.25Z" transform="translate(-1.67 -1.86)"/><path class="cls-2" d="M12.49,160.89,2,159.25v-7.87l2.33.37v5l1.74.27v-4.15l2.28.35v4.17l1.78.29v-5l2.35.38Z" transform="translate(-1.67 -1.86)"/><path class="cls-2" d="M12.49,151.22,2,149.59v-2.88l10.48,1.62Z" transform="translate(-1.67 -1.86)"/><path class="cls-2" d="M12.64,141.62a4.58,4.58,0,0,1-.68,2.56,3.76,3.76,0,0,1-1.89,1.47,5.62,5.62,0,0,1-2.78.19,6.89,6.89,0,0,1-2.86-1.12,5.93,5.93,0,0,1-2.57-4.95,4.77,4.77,0,0,1,.55-2.39A3.41,3.41,0,0,1,3.85,136a3.12,3.12,0,0,1,1.86-.3v3a2,2,0,0,0-.77.2,1.26,1.26,0,0,0-.54.48,1.47,1.47,0,0,0-.2.82,2.06,2.06,0,0,0,.28,1,2.37,2.37,0,0,0,.93.9,5.4,5.4,0,0,0,1.79.56,4.86,4.86,0,0,0,1.55,0,1.87,1.87,0,0,0,.91-.38,1.55,1.55,0,0,0,.42-.64,2.56,2.56,0,0,0,.11-.71,1.79,1.79,0,0,0-.09-.57,2.54,2.54,0,0,0-.23-.5,2.33,2.33,0,0,0-.31-.38,1.56,1.56,0,0,0-.36-.25l-.38-.18V141l-1.9-.29,0-4.89,5.54.86v1.89l-1.16-.17a8.52,8.52,0,0,1,.57.73,3.75,3.75,0,0,1,.52,1A4.34,4.34,0,0,1,12.64,141.62Z" transform="translate(-1.67 -1.86)"/><path class="cls-2" d="M12.49,135.27,2,129.84v-2.92l10.48-2.16v2.84l-2,.38v3.38l2,1Zm-4.44-4.89v-2.11l-3.34.52Z" transform="translate(-1.67 -1.86)"/><path class="cls-2" d="M9.35,118.07a2.2,2.2,0,0,1-.3,1.13,2.3,2.3,0,0,1-.8.81,2.13,2.13,0,0,1-2.18,0,2.27,2.27,0,0,1-.79-.81,2.2,2.2,0,0,1-.3-1.13,2.16,2.16,0,0,1,.3-1.12,2.39,2.39,0,0,1,.79-.82,2.13,2.13,0,0,1,2.18,0,2.41,2.41,0,0,1,.8.82A2.16,2.16,0,0,1,9.35,118.07Z" transform="translate(-1.67 -1.86)"/><path class="cls-2" d="M12.49,111.94,2,110.3v-4.22A4.93,4.93,0,0,1,2.42,104a2.83,2.83,0,0,1,1.21-1.32,3,3,0,0,1,1.93-.25,3.66,3.66,0,0,1,1.78.74,3.71,3.71,0,0,1,1.14,1.5,5.14,5.14,0,0,1,.4,2.1v1.7l3.61.57Zm-5.71-3.75v-1.65a1.32,1.32,0,0,0-.2-.69,1.72,1.72,0,0,0-.51-.53,1.58,1.58,0,0,0-.65-.27,1.14,1.14,0,0,0-.94.25,1.08,1.08,0,0,0-.38.82v1.65Z" transform="translate(-1.67 -1.86)"/><path class="cls-2" d="M12.49,103.93,2,98.51V95.58l10.48-2.15v2.84l-2,.38V100l2,1ZM8.05,99V96.93l-3.34.53Z" transform="translate(-1.67 -1.86)"/><path class="cls-2" d="M12.64,88a6.88,6.88,0,0,1-.2,1.64,4.3,4.3,0,0,1-.59,1.42,2.84,2.84,0,0,1-1,1,2.62,2.62,0,0,1-1.51.28v-3a1.09,1.09,0,0,0,.63-.23,1.2,1.2,0,0,0,.4-.55,2.24,2.24,0,0,0,.15-.86,4.14,4.14,0,0,0-.09-.87,1.94,1.94,0,0,0-.29-.7.86.86,0,0,0-.58-.35A.47.47,0,0,0,9,86a1.55,1.55,0,0,0-.27.62c-.06.27-.12.55-.17.84L8.32,89a2.91,2.91,0,0,1-1,1.87,2.62,2.62,0,0,1-2.11.47,3.26,3.26,0,0,1-1.81-.88,4.88,4.88,0,0,1-1.15-1.81,6.75,6.75,0,0,1-.39-2.31,4.89,4.89,0,0,1,.47-2.25,3.49,3.49,0,0,1,1.22-1.44,2.69,2.69,0,0,1,1.61-.46v2.92a1,1,0,0,0-.65.14,1,1,0,0,0-.36.51,2.6,2.6,0,0,0-.12.85,2.77,2.77,0,0,0,.13.9,1.06,1.06,0,0,0,.32.5.76.76,0,0,0,.38.19.64.64,0,0,0,.57-.15,1.64,1.64,0,0,0,.34-.88l.28-1.61a4.51,4.51,0,0,1,.6-1.74A2.26,2.26,0,0,1,7.6,83a2.38,2.38,0,0,1,1-.24,5,5,0,0,1,.9,0,2.8,2.8,0,0,1,1.6.85,5,5,0,0,1,1.11,1.85A7.17,7.17,0,0,1,12.64,88Z" transform="translate(-1.67 -1.86)"/><path class="cls-2" d="M12.49,79.41l-8-1.24v3L2,80.8v-9l2.48.39v3.06l8,1.25Z" transform="translate(-1.67 -1.86)"/><path class="cls-2" d="M12.49,72.12,2,70.48V62.6L4.34,63v5l1.74.27V64.06l2.28.35v4.18l1.78.28v-5l2.35.37Z" transform="translate(-1.67 -1.86)"/><path class="cls-2" d="M12.49,62.45,2,60.82V57.94l10.48,1.62Z" transform="translate(-1.67 -1.86)"/><path class="cls-2" d="M12.64,52.84A4.57,4.57,0,0,1,12,55.39a3.71,3.71,0,0,1-1.89,1.47,5.51,5.51,0,0,1-2.78.19,6.76,6.76,0,0,1-2.86-1.12,5.93,5.93,0,0,1-2.57-5,4.8,4.8,0,0,1,.55-2.39,3.41,3.41,0,0,1,1.44-1.38,3,3,0,0,1,1.86-.29v3a2,2,0,0,0-.77.19,1.26,1.26,0,0,0-.54.48,1.5,1.5,0,0,0-.2.83,2.11,2.11,0,0,0,.28,1,2.43,2.43,0,0,0,.93.89,5.17,5.17,0,0,0,1.79.56,4.58,4.58,0,0,0,1.55,0,1.87,1.87,0,0,0,.91-.38,1.55,1.55,0,0,0,.42-.64,2.49,2.49,0,0,0,.11-.7,1.81,1.81,0,0,0-.09-.58,2.45,2.45,0,0,0-.23-.49,2,2,0,0,0-.31-.39,1.26,1.26,0,0,0-.36-.24l-.38-.19V52.2l-1.9-.3L7,47l5.54.86v1.89l-1.16-.17c.18.21.37.45.57.73a3.68,3.68,0,0,1,.52,1A4.3,4.3,0,0,1,12.64,52.84Z" transform="translate(-1.67 -1.86)"/><path class="cls-2" d="M12.49,46.49,2,41.07V38.14L12.49,36v2.84l-2,.38v3.38l2,1ZM8.05,41.61V39.5L4.71,40Z" transform="translate(-1.67 -1.86)"/><path class="cls-2" d="M12.64,27.47a6.88,6.88,0,0,1-.2,1.64,4.3,4.3,0,0,1-.59,1.42,2.84,2.84,0,0,1-1,1,2.62,2.62,0,0,1-1.51.28v-3a1.09,1.09,0,0,0,.63-.23,1.2,1.2,0,0,0,.4-.55,2.24,2.24,0,0,0,.15-.86,4.14,4.14,0,0,0-.09-.87,1.94,1.94,0,0,0-.29-.7.86.86,0,0,0-.58-.35.47.47,0,0,0-.49.19,1.55,1.55,0,0,0-.27.62c-.06.27-.12.55-.17.84l-.27,1.62a2.91,2.91,0,0,1-1,1.87,2.66,2.66,0,0,1-2.11.47A3.26,3.26,0,0,1,3.42,30a4.88,4.88,0,0,1-1.15-1.81,6.75,6.75,0,0,1-.39-2.31,4.89,4.89,0,0,1,.47-2.25,3.49,3.49,0,0,1,1.22-1.44,2.63,2.63,0,0,1,1.61-.46v2.92a1,1,0,0,0-.65.14,1,1,0,0,0-.36.51,2.6,2.6,0,0,0-.12.85,2.77,2.77,0,0,0,.13.9,1.06,1.06,0,0,0,.32.5.76.76,0,0,0,.38.19.64.64,0,0,0,.57-.15,1.64,1.64,0,0,0,.34-.88l.28-1.61a4.51,4.51,0,0,1,.6-1.74,2.26,2.26,0,0,1,.93-.83,2.38,2.38,0,0,1,1-.24,5,5,0,0,1,.9,0,2.8,2.8,0,0,1,1.6.85A5,5,0,0,1,12.23,25,7.17,7.17,0,0,1,12.64,27.47Z" transform="translate(-1.67 -1.86)"/><path class="cls-2" d="M11.78,20.47,5,16,3.76,18.75,1.67,17.37,5.41,9.22,7.5,10.61,6.22,13.39,13,17.87Z" transform="translate(-1.67 -1.86)"/><path class="cls-2" d="M13.75,16.33,10.91,6.1l7.17-3.25.63,2.28L14.17,7.19l.48,1.69,3.78-1.71.62,2.21-3.8,1.73.48,1.74,4.58-2.08.63,2.3Z" transform="translate(-1.67 -1.86)"/><path class="cls-2" d="M21.65,13.12l0-10.61,2.85-.44V12.68Z" transform="translate(-1.67 -1.86)"/><path class="cls-2" d="M30.53,12.64A4.53,4.53,0,0,1,28,12a3.66,3.66,0,0,1-1.47-1.89,5.4,5.4,0,0,1-.19-2.78,6.75,6.75,0,0,1,1.11-2.86,6,6,0,0,1,5-2.57,4.76,4.76,0,0,1,2.38.55,3.37,3.37,0,0,1,1.39,1.44,3,3,0,0,1,.29,1.86h-3a2,2,0,0,0-.19-.77,1.22,1.22,0,0,0-.49-.54A1.45,1.45,0,0,0,32,4.2a2.08,2.08,0,0,0-1,.28,2.36,2.36,0,0,0-.89.93,5.09,5.09,0,0,0-.57,1.79,4.86,4.86,0,0,0,0,1.55,1.78,1.78,0,0,0,.39.91,1.49,1.49,0,0,0,.64.42,2.49,2.49,0,0,0,.7.11,1.9,1.9,0,0,0,.58-.09,2.45,2.45,0,0,0,.49-.23,1.76,1.76,0,0,0,.39-.32,1.29,1.29,0,0,0,.24-.35L33,8.82H31.17l.3-1.9,4.89,0-.87,5.54H33.61l.17-1.16c-.21.18-.45.37-.73.57a3.82,3.82,0,0,1-1,.52A4.55,4.55,0,0,1,30.53,12.64Z" transform="translate(-1.67 -1.86)"/><path class="cls-2" d="M36.89,12.49,42.32,2h2.93L47.4,12.49H44.56l-.38-2H40.8l-1,2Zm4.89-4.44h2.11l-.52-3.34Z" transform="translate(-1.67 -1.86)"/><path class="cls-2" d="M54.08,9.34A2.15,2.15,0,0,1,53,9.05a2.3,2.3,0,0,1-.81-.8,2.13,2.13,0,0,1,0-2.18A2.27,2.27,0,0,1,53,5.28a2.26,2.26,0,0,1,2.25,0,2.27,2.27,0,0,1,.81.79,2.07,2.07,0,0,1,0,2.18,2.3,2.3,0,0,1-.81.8A2.16,2.16,0,0,1,54.08,9.34Z" transform="translate(-1.67 -1.86)"/><path class="cls-2" d="M60.23,12.49,61.87,2h4.22a4.93,4.93,0,0,1,2.07.41,2.83,2.83,0,0,1,1.32,1.21,3,3,0,0,1,.25,1.93A3.81,3.81,0,0,1,69,7.34a3.58,3.58,0,0,1-1.5,1.14,5.09,5.09,0,0,1-2.09.4H63.68l-.56,3.61ZM64,6.78h1.66a1.28,1.28,0,0,0,.68-.2,1.65,1.65,0,0,0,.54-.51,1.73,1.73,0,0,0,.27-.65,1.12,1.12,0,0,0-.26-.94,1,1,0,0,0-.81-.38H64.4Z" transform="translate(-1.67 -1.86)"/><path class="cls-2" d="M68.24,12.49,73.67,2H76.6l2.15,10.48H75.91l-.38-2H72.15l-1,2Zm4.89-4.44h2.11l-.52-3.34Z" transform="translate(-1.67 -1.86)"/><path class="cls-2" d="M84.16,12.64a6.88,6.88,0,0,1-1.64-.2,4.3,4.3,0,0,1-1.42-.59,2.84,2.84,0,0,1-1-1,2.62,2.62,0,0,1-.28-1.51h3a1.09,1.09,0,0,0,.22.63,1.17,1.17,0,0,0,.56.4,2.15,2.15,0,0,0,.85.15,4.14,4.14,0,0,0,.87-.09,1.79,1.79,0,0,0,.7-.3.82.82,0,0,0,.35-.57A.48.48,0,0,0,86.21,9a1.67,1.67,0,0,0-.63-.27c-.27-.07-.54-.12-.84-.17l-1.61-.27a3,3,0,0,1-1.88-1,2.62,2.62,0,0,1-.46-2.11,3.13,3.13,0,0,1,.88-1.81,4.77,4.77,0,0,1,1.8-1.15,6.75,6.75,0,0,1,2.31-.39A5,5,0,0,1,88,2.34a3.58,3.58,0,0,1,1.44,1.23,2.63,2.63,0,0,1,.46,1.61H87a1,1,0,0,0-.14-.65.89.89,0,0,0-.51-.36,2.6,2.6,0,0,0-.85-.12,2.52,2.52,0,0,0-.9.13,1.11,1.11,0,0,0-.5.32.76.76,0,0,0-.19.38.67.67,0,0,0,.15.57,1.64,1.64,0,0,0,.88.34l1.62.28a4.51,4.51,0,0,1,1.73.6,2.29,2.29,0,0,1,.84.93,2.52,2.52,0,0,1,.23,1,5,5,0,0,1-.05.9,2.8,2.8,0,0,1-.85,1.6,5,5,0,0,1-1.85,1.11A7.17,7.17,0,0,1,84.16,12.64Z" transform="translate(-1.67 -1.86)"/><path class="cls-2" d="M92.78,12.49l1.23-8H91L91.38,2h9L100,4.49H96.89l-1.25,8Z" transform="translate(-1.67 -1.86)"/><path class="cls-2" d="M100.05,12.49,101.69,2h7.88l-.37,2.33h-5L104,6.08h4.15l-.35,2.28h-4.17l-.28,1.78h5L108,12.49Z" transform="translate(-1.67 -1.86)"/><path class="cls-2" d="M109.73,12.49,111.35,2h2.89l-1.62,10.48Z" transform="translate(-1.67 -1.86)"/><path class="cls-2" d="M119.3,12.64a4.57,4.57,0,0,1-2.55-.68,3.76,3.76,0,0,1-1.47-1.89,5.51,5.51,0,0,1-.19-2.78,6.89,6.89,0,0,1,1.12-2.86,5.93,5.93,0,0,1,5-2.57,4.8,4.8,0,0,1,2.39.55,3.41,3.41,0,0,1,1.38,1.44,3.12,3.12,0,0,1,.3,1.86h-3a1.86,1.86,0,0,0-.19-.77,1.26,1.26,0,0,0-.48-.54,1.48,1.48,0,0,0-.83-.2,2.11,2.11,0,0,0-1,.28,2.43,2.43,0,0,0-.89.93,5.1,5.1,0,0,0-.56,1.79,4.58,4.58,0,0,0,0,1.55,1.87,1.87,0,0,0,.38.91,1.55,1.55,0,0,0,.64.42,2.54,2.54,0,0,0,.7.11,1.81,1.81,0,0,0,.58-.09,2.22,2.22,0,0,0,.49-.23,1.76,1.76,0,0,0,.39-.32,1.33,1.33,0,0,0,.25-.35l.18-.38h-1.86l.3-1.9,4.89,0-.86,5.54h-1.89l.17-1.16c-.21.18-.45.37-.73.57a3.68,3.68,0,0,1-1,.52A4.55,4.55,0,0,1,119.3,12.64Z" transform="translate(-1.67 -1.86)"/><path class="cls-2" d="M125.68,12.49,131.1,2H134l2.16,10.48h-2.84l-.39-2h-3.37l-1,2Zm4.89-4.44h2.11l-.52-3.34Z" transform="translate(-1.67 -1.86)"/><path class="cls-2" d="M142.86,9.34a2.16,2.16,0,0,1-1.13-.29,2.3,2.3,0,0,1-.81-.8,2.13,2.13,0,0,1,0-2.18,2.27,2.27,0,0,1,.81-.79,2.26,2.26,0,0,1,2.25,0,2.27,2.27,0,0,1,.81.79,2.07,2.07,0,0,1,0,2.18,2.3,2.3,0,0,1-.81.8A2.15,2.15,0,0,1,142.86,9.34Z" transform="translate(-1.67 -1.86)"/><path class="cls-2" d="M149,12.49,150.63,2h4.22a4.88,4.88,0,0,1,2.06.41,2.83,2.83,0,0,1,1.32,1.21,3,3,0,0,1,.26,1.93,3.81,3.81,0,0,1-.75,1.78,3.71,3.71,0,0,1-1.5,1.14,5.13,5.13,0,0,1-2.09.4h-1.71l-.56,3.61Zm3.74-5.71h1.66a1.28,1.28,0,0,0,.68-.2,1.87,1.87,0,0,0,.54-.51,1.56,1.56,0,0,0,.26-.65,1.11,1.11,0,0,0-.25-.94,1,1,0,0,0-.82-.38h-1.65Z" transform="translate(-1.67 -1.86)"/><path class="cls-2" d="M157,12.49,162.44,2h2.92l2.16,10.48h-2.84l-.39-2h-3.37l-1,2Zm4.89-4.44H164l-.52-3.34Z" transform="translate(-1.67 -1.86)"/><path class="cls-2" d="M172.93,12.64a6.8,6.8,0,0,1-1.63-.2,4.36,4.36,0,0,1-1.43-.59,2.93,2.93,0,0,1-1-1,2.7,2.7,0,0,1-.28-1.51h3a1.16,1.16,0,0,0,.22.63,1.23,1.23,0,0,0,.56.4,2.21,2.21,0,0,0,.86.15,4.14,4.14,0,0,0,.87-.09,1.86,1.86,0,0,0,.7-.3.81.81,0,0,0,.34-.57A.45.45,0,0,0,175,9a1.53,1.53,0,0,0-.63-.27c-.26-.07-.54-.12-.84-.17l-1.61-.27a2.93,2.93,0,0,1-1.87-1,2.62,2.62,0,0,1-.47-2.11,3.26,3.26,0,0,1,.88-1.81,4.81,4.81,0,0,1,1.81-1.15,6.73,6.73,0,0,1,2.3-.39,5.06,5.06,0,0,1,2.26.46,3.65,3.65,0,0,1,1.44,1.23,2.69,2.69,0,0,1,.46,1.61h-2.92a1.07,1.07,0,0,0-.15-.65.89.89,0,0,0-.51-.36,3.09,3.09,0,0,0-1.74,0,1.06,1.06,0,0,0-.5.32.76.76,0,0,0-.19.38.62.62,0,0,0,.15.57,1.6,1.6,0,0,0,.88.34l1.61.28a4.51,4.51,0,0,1,1.74.6,2.26,2.26,0,0,1,.83.93,2.38,2.38,0,0,1,.24,1,6.09,6.09,0,0,1-.05.9,2.82,2.82,0,0,1-.86,1.6,5,5,0,0,1-1.84,1.11A7.23,7.23,0,0,1,172.93,12.64Z" transform="translate(-1.67 -1.86)"/><path class="cls-2" d="M181.55,12.49l1.24-8h-3L180.16,2h9l-.39,2.48h-3.06l-1.25,8Z" transform="translate(-1.67 -1.86)"/><path class="cls-2" d="M188.83,12.49,190.47,2h7.88L198,4.34h-5l-.27,1.74h4.15l-.35,2.28h-4.17l-.29,1.78h5l-.37,2.35Z" transform="translate(-1.67 -1.86)"/><path class="cls-2" d="M198.48,12.49,200.11,2H203l-1.62,10.48Z" transform="translate(-1.67 -1.86)"/><path class="cls-2" d="M208.09,12.64a4.53,4.53,0,0,1-2.55-.68,3.66,3.66,0,0,1-1.47-1.89,5.4,5.4,0,0,1-.19-2.78A6.75,6.75,0,0,1,205,4.43a6,6,0,0,1,5-2.57,4.76,4.76,0,0,1,2.38.55,3.37,3.37,0,0,1,1.39,1.44A3.12,3.12,0,0,1,214,5.71h-3a2.23,2.23,0,0,0-.19-.77,1.22,1.22,0,0,0-.49-.54,1.47,1.47,0,0,0-.82-.2,2.06,2.06,0,0,0-1,.28,2.29,2.29,0,0,0-.89.93A5.09,5.09,0,0,0,207,7.2a4.86,4.86,0,0,0,0,1.55,1.78,1.78,0,0,0,.39.91,1.49,1.49,0,0,0,.64.42,2.49,2.49,0,0,0,.7.11,1.79,1.79,0,0,0,.57-.09,2.54,2.54,0,0,0,.5-.23,1.5,1.5,0,0,0,.38-.32,1.14,1.14,0,0,0,.25-.35l.19-.38h-1.86l.29-1.9,4.89,0-.86,5.54h-1.88l.17-1.16c-.21.18-.46.37-.74.57a3.75,3.75,0,0,1-1,.52A4.59,4.59,0,0,1,208.09,12.64Z" transform="translate(-1.67 -1.86)"/><path class="cls-2" d="M214.44,12.49,219.86,2h2.93l2.15,10.48h-2.83l-.39-2h-3.37l-1,2Zm4.89-4.44h2.11l-.52-3.34Z" transform="translate(-1.67 -1.86)"/><path class="cls-2" d="M231.64,9.34a2.16,2.16,0,0,1-1.13-.29,2.3,2.3,0,0,1-.81-.8,2.13,2.13,0,0,1,0-2.18,2.27,2.27,0,0,1,.81-.79,2.26,2.26,0,0,1,2.25,0,2.27,2.27,0,0,1,.81.79,2.07,2.07,0,0,1,0,2.18,2.3,2.3,0,0,1-.81.8A2.15,2.15,0,0,1,231.64,9.34Z" transform="translate(-1.67 -1.86)"/><path class="cls-2" d="M237.77,12.49,239.41,2h4.22a4.85,4.85,0,0,1,2.06.41A2.83,2.83,0,0,1,247,3.63a3,3,0,0,1,.26,1.93,3.81,3.81,0,0,1-.75,1.78A3.71,3.71,0,0,1,245,8.48a5.13,5.13,0,0,1-2.09.4h-1.71l-.56,3.61Zm3.74-5.71h1.66a1.28,1.28,0,0,0,.68-.2,1.75,1.75,0,0,0,.54-.51,1.56,1.56,0,0,0,.26-.65,1.11,1.11,0,0,0-.25-.94,1,1,0,0,0-.82-.38h-1.64Z" transform="translate(-1.67 -1.86)"/><path class="cls-2" d="M245.8,12.49,251.22,2h2.93l2.15,10.48h-2.83l-.39-2h-3.37l-1,2Zm4.89-4.44h2.11l-.52-3.34Z" transform="translate(-1.67 -1.86)"/><path class="cls-2" d="M261.71,12.64a6.88,6.88,0,0,1-1.64-.2,4.3,4.3,0,0,1-1.42-.59,2.84,2.84,0,0,1-1-1,2.62,2.62,0,0,1-.28-1.51h3a1,1,0,0,0,.22.63,1.17,1.17,0,0,0,.56.4,2.15,2.15,0,0,0,.85.15,4.14,4.14,0,0,0,.87-.09,1.79,1.79,0,0,0,.7-.3.82.82,0,0,0,.35-.57.47.47,0,0,0-.19-.49,1.55,1.55,0,0,0-.62-.27c-.27-.07-.55-.12-.84-.17l-1.62-.27a3,3,0,0,1-1.87-1,2.66,2.66,0,0,1-.47-2.11,3.26,3.26,0,0,1,.88-1.81A4.88,4.88,0,0,1,261,2.27a6.75,6.75,0,0,1,2.31-.39,5,5,0,0,1,2.25.46A3.58,3.58,0,0,1,267,3.57a2.63,2.63,0,0,1,.46,1.61h-2.92a1,1,0,0,0-.14-.65,1,1,0,0,0-.51-.36,2.6,2.6,0,0,0-.85-.12,2.52,2.52,0,0,0-.9.13,1.11,1.11,0,0,0-.5.32.76.76,0,0,0-.19.38.67.67,0,0,0,.15.57,1.64,1.64,0,0,0,.88.34l1.62.28a4.51,4.51,0,0,1,1.73.6,2.36,2.36,0,0,1,.84.93,2.52,2.52,0,0,1,.23,1,5,5,0,0,1-.05.9,2.8,2.8,0,0,1-.85,1.6,5,5,0,0,1-1.85,1.11A7.17,7.17,0,0,1,261.71,12.64Z" transform="translate(-1.67 -1.86)"/><path class="cls-2" d="M270.31,12.49l1.24-8h-3L268.92,2h9l-.39,2.48h-3.06l-1.25,8Z" transform="translate(-1.67 -1.86)"/><path class="cls-2" d="M277.6,12.49,279.24,2h7.87l-.37,2.33h-5l-.27,1.74h4.15l-.35,2.28h-4.17l-.29,1.78h5l-.38,2.35Z" transform="translate(-1.67 -1.86)"/><path class="cls-2" d="M287.26,12.49,288.89,2h2.88l-1.62,10.48Z" transform="translate(-1.67 -1.86)"/><path class="cls-2" d="M296.85,12.64A4.53,4.53,0,0,1,294.3,12a3.73,3.73,0,0,1-1.48-1.89,5.62,5.62,0,0,1-.19-2.78,6.89,6.89,0,0,1,1.12-2.86,6,6,0,0,1,5-2.57,4.76,4.76,0,0,1,2.38.55,3.43,3.43,0,0,1,1.39,1.44,3.12,3.12,0,0,1,.29,1.86h-3a2,2,0,0,0-.2-.77,1.2,1.2,0,0,0-.48-.54,1.47,1.47,0,0,0-.82-.2,2.06,2.06,0,0,0-1,.28,2.37,2.37,0,0,0-.9.93,5.32,5.32,0,0,0-.56,1.79,4.86,4.86,0,0,0,0,1.55,1.78,1.78,0,0,0,.39.91,1.46,1.46,0,0,0,.63.42,2.61,2.61,0,0,0,.71.11,1.79,1.79,0,0,0,.57-.09,2.54,2.54,0,0,0,.5-.23,1.7,1.7,0,0,0,.38-.32,1.33,1.33,0,0,0,.25-.35l.18-.38h-1.85l.29-1.9,4.89,0-.86,5.54h-1.89l.17-1.16a8.52,8.52,0,0,1-.73.57,3.75,3.75,0,0,1-1,.52A4.59,4.59,0,0,1,296.85,12.64Z" transform="translate(-1.67 -1.86)"/><path class="cls-2" d="M303.22,12.49,308.64,2h2.93l2.15,10.48h-2.83l-.39-2h-3.37l-1,2Zm4.89-4.44h2.11l-.52-3.34Z" transform="translate(-1.67 -1.86)"/><path class="cls-2" d="M320.39,9.34a2.15,2.15,0,0,1-1.12-.29,2.3,2.3,0,0,1-.81-.8,2.13,2.13,0,0,1,0-2.18,2.27,2.27,0,0,1,.81-.79,2.16,2.16,0,0,1,1.12-.3,2.2,2.2,0,0,1,1.13.3,2.27,2.27,0,0,1,.81.79,2.07,2.07,0,0,1,0,2.18,2.3,2.3,0,0,1-.81.8A2.19,2.19,0,0,1,320.39,9.34Z" transform="translate(-1.67 -1.86)"/><path class="cls-2" d="M326.54,12.49,328.18,2h4.22a4.93,4.93,0,0,1,2.07.41,2.86,2.86,0,0,1,1.31,1.21A3,3,0,0,1,336,5.56a3.81,3.81,0,0,1-.75,1.78,3.71,3.71,0,0,1-1.5,1.14,5.13,5.13,0,0,1-2.09.4H330l-.56,3.61Zm3.74-5.71h1.66a1.28,1.28,0,0,0,.68-.2,1.75,1.75,0,0,0,.54-.51,1.73,1.73,0,0,0,.27-.65,1.12,1.12,0,0,0-.26-.94,1,1,0,0,0-.81-.38h-1.65Z" transform="translate(-1.67 -1.86)"/><path class="cls-2" d="M334.55,12.49,340,2h2.92l2.16,10.48h-2.84l-.39-2h-3.37l-1,2Zm4.89-4.44h2.11L341,4.71Z" transform="translate(-1.67 -1.86)"/><path class="cls-2" d="M350.46,12.64a6.88,6.88,0,0,1-1.64-.2,4.3,4.3,0,0,1-1.42-.59,2.84,2.84,0,0,1-1-1,2.62,2.62,0,0,1-.28-1.51h3a1,1,0,0,0,.22.63,1.17,1.17,0,0,0,.56.4,2.15,2.15,0,0,0,.85.15,4.14,4.14,0,0,0,.87-.09,1.79,1.79,0,0,0,.7-.3.82.82,0,0,0,.35-.57A.47.47,0,0,0,352.5,9a1.55,1.55,0,0,0-.62-.27c-.27-.07-.55-.12-.84-.17l-1.62-.27a3,3,0,0,1-1.87-1,2.66,2.66,0,0,1-.47-2.11A3.26,3.26,0,0,1,348,3.42a4.88,4.88,0,0,1,1.81-1.15,6.75,6.75,0,0,1,2.31-.39,5,5,0,0,1,2.25.46,3.58,3.58,0,0,1,1.44,1.23,2.63,2.63,0,0,1,.46,1.61h-2.92a1,1,0,0,0-.14-.65,1,1,0,0,0-.51-.36,2.6,2.6,0,0,0-.85-.12,2.52,2.52,0,0,0-.9.13,1.11,1.11,0,0,0-.5.32.76.76,0,0,0-.19.38.67.67,0,0,0,.15.57,1.64,1.64,0,0,0,.88.34l1.62.28a4.51,4.51,0,0,1,1.73.6,2.36,2.36,0,0,1,.84.93,2.52,2.52,0,0,1,.23,1,5,5,0,0,1-.05.9,2.8,2.8,0,0,1-.85,1.6,5,5,0,0,1-1.85,1.11A7.17,7.17,0,0,1,350.46,12.64Z" transform="translate(-1.67 -1.86)"/><path class="cls-2" d="M359.07,12.49l1.24-8h-3L357.68,2h9l-.39,2.48h-3.06l-1.25,8Z" transform="translate(-1.67 -1.86)"/><path class="cls-2" d="M366.35,12.49,368,2h7.88l-.37,2.33h-5l-.27,1.74h4.16l-.35,2.28h-4.18l-.28,1.78h5l-.37,2.35Z" transform="translate(-1.67 -1.86)"/><path class="cls-2" d="M376,12.49,377.66,2h2.88l-1.62,10.48Z" transform="translate(-1.67 -1.86)"/><path class="cls-2" d="M385.64,12.64a4.55,4.55,0,0,1-2.55-.68,3.66,3.66,0,0,1-1.47-1.89,5.4,5.4,0,0,1-.19-2.78,6.75,6.75,0,0,1,1.11-2.86,6,6,0,0,1,5-2.57,4.76,4.76,0,0,1,2.38.55,3.37,3.37,0,0,1,1.39,1.44,3,3,0,0,1,.29,1.86h-3a2,2,0,0,0-.19-.77,1.22,1.22,0,0,0-.49-.54,1.45,1.45,0,0,0-.82-.2,2.08,2.08,0,0,0-1,.28,2.36,2.36,0,0,0-.89.93,5.09,5.09,0,0,0-.57,1.79,4.86,4.86,0,0,0,0,1.55,1.78,1.78,0,0,0,.39.91,1.55,1.55,0,0,0,.64.42,2.49,2.49,0,0,0,.7.11,1.85,1.85,0,0,0,.58-.09,2.45,2.45,0,0,0,.49-.23,1.76,1.76,0,0,0,.39-.32A1.1,1.1,0,0,0,388,9.2l.19-.38h-1.86l.3-1.9,4.89,0-.87,5.54h-1.88l.17-1.16c-.21.18-.45.37-.73.57a3.82,3.82,0,0,1-1,.52A4.55,4.55,0,0,1,385.64,12.64Z" transform="translate(-1.67 -1.86)"/><path class="cls-2" d="M392,12.49,397.39,2h2.93l2.15,10.48h-2.83l-.39-2h-3.37l-1,2Zm4.89-4.44H399l-.52-3.34Z" transform="translate(-1.67 -1.86)"/><path class="cls-2" d="M409.15,9.34A2.15,2.15,0,0,1,408,9.05a2.3,2.3,0,0,1-.81-.8,2.13,2.13,0,0,1,0-2.18,2.27,2.27,0,0,1,.81-.79,2.26,2.26,0,0,1,2.25,0,2.27,2.27,0,0,1,.81.79,2.07,2.07,0,0,1,0,2.18,2.3,2.3,0,0,1-.81.8A2.16,2.16,0,0,1,409.15,9.34Z" transform="translate(-1.67 -1.86)"/><path class="cls-2" d="M415.31,12.49,417,2h4.22a4.93,4.93,0,0,1,2.07.41,2.83,2.83,0,0,1,1.32,1.21,3,3,0,0,1,.25,1.93,3.66,3.66,0,0,1-2.24,2.92,5.13,5.13,0,0,1-2.09.4h-1.71l-.57,3.61Zm3.75-5.71h1.65a1.32,1.32,0,0,0,.69-.2,1.72,1.72,0,0,0,.53-.51,1.58,1.58,0,0,0,.27-.65,1.14,1.14,0,0,0-.25-.94,1,1,0,0,0-.82-.38h-1.65Z" transform="translate(-1.67 -1.86)"/><path class="cls-2" d="M423.32,12.49,428.74,2h2.93l2.16,10.48H431l-.39-2h-3.37l-1,2Zm4.89-4.44h2.11l-.52-3.34Z" transform="translate(-1.67 -1.86)"/><path class="cls-2" d="M439.24,12.64a6.8,6.8,0,0,1-1.63-.2,4.36,4.36,0,0,1-1.43-.59,2.93,2.93,0,0,1-1-1,2.62,2.62,0,0,1-.27-1.51h3a1.16,1.16,0,0,0,.22.63,1.23,1.23,0,0,0,.56.4,2.21,2.21,0,0,0,.86.15,4.14,4.14,0,0,0,.87-.09,1.86,1.86,0,0,0,.7-.3.81.81,0,0,0,.34-.57.45.45,0,0,0-.18-.49,1.53,1.53,0,0,0-.63-.27c-.26-.07-.54-.12-.84-.17l-1.61-.27a2.93,2.93,0,0,1-1.87-1,2.62,2.62,0,0,1-.47-2.11,3.26,3.26,0,0,1,.88-1.81,4.81,4.81,0,0,1,1.81-1.15,6.73,6.73,0,0,1,2.3-.39,5.06,5.06,0,0,1,2.26.46,3.65,3.65,0,0,1,1.44,1.23A2.69,2.69,0,0,1,445,5.18H442.1a1.07,1.07,0,0,0-.15-.65.89.89,0,0,0-.51-.36,3.09,3.09,0,0,0-1.74,0,1.06,1.06,0,0,0-.5.32.76.76,0,0,0-.19.38.62.62,0,0,0,.15.57,1.6,1.6,0,0,0,.88.34l1.61.28a4.51,4.51,0,0,1,1.74.6,2.26,2.26,0,0,1,.83.93,2.38,2.38,0,0,1,.24,1,6.09,6.09,0,0,1,0,.9,2.82,2.82,0,0,1-.86,1.6,5,5,0,0,1-1.84,1.11A7.23,7.23,0,0,1,439.24,12.64Z" transform="translate(-1.67 -1.86)"/><path class="cls-2" d="M447.86,12.49l1.23-8h-3L446.46,2h9L455,4.49H452l-1.25,8Z" transform="translate(-1.67 -1.86)"/><path class="cls-2" d="M455.14,12.49,456.78,2h7.88l-.37,2.33h-5L459,6.08h4.15l-.35,2.28h-4.17l-.28,1.78h5L463,12.49Z" transform="translate(-1.67 -1.86)"/><path class="cls-2" d="M464.81,12.49,466.44,2h2.88L467.7,12.49Z" transform="translate(-1.67 -1.86)"/><path class="cls-2" d="M474.41,12.64a4.53,4.53,0,0,1-2.55-.68,3.73,3.73,0,0,1-1.48-1.89,5.62,5.62,0,0,1-.19-2.78,6.89,6.89,0,0,1,1.12-2.86,6,6,0,0,1,5-2.57,4.76,4.76,0,0,1,2.38.55A3.43,3.43,0,0,1,480,3.85a3.12,3.12,0,0,1,.29,1.86h-3a2,2,0,0,0-.2-.77,1.2,1.2,0,0,0-.48-.54,1.47,1.47,0,0,0-.82-.2,2.06,2.06,0,0,0-1,.28,2.29,2.29,0,0,0-.89.93,5.09,5.09,0,0,0-.57,1.79,4.86,4.86,0,0,0,0,1.55,1.78,1.78,0,0,0,.39.91,1.46,1.46,0,0,0,.63.42,2.61,2.61,0,0,0,.71.11,1.79,1.79,0,0,0,.57-.09,2.54,2.54,0,0,0,.5-.23,1.7,1.7,0,0,0,.38-.32,1.33,1.33,0,0,0,.25-.35l.18-.38h-1.85l.29-1.9,4.89,0-.86,5.54h-1.89l.17-1.16a8.52,8.52,0,0,1-.73.57,3.75,3.75,0,0,1-1,.52A4.59,4.59,0,0,1,474.41,12.64Z" transform="translate(-1.67 -1.86)"/><path class="cls-2" d="M480.75,12.49,486.17,2h2.93l2.15,10.48h-2.83l-.39-2h-3.37l-1,2Zm4.89-4.44h2.11l-.52-3.34Z" transform="translate(-1.67 -1.86)"/><path class="cls-2" d="M497.92,9.34a2.15,2.15,0,0,1-1.12-.29,2.3,2.3,0,0,1-.81-.8,2.13,2.13,0,0,1,0-2.18,2.27,2.27,0,0,1,.81-.79,2.16,2.16,0,0,1,1.12-.3,2.2,2.2,0,0,1,1.13.3,2.27,2.27,0,0,1,.81.79,2.07,2.07,0,0,1,0,2.18,2.3,2.3,0,0,1-.81.8A2.19,2.19,0,0,1,497.92,9.34Z" transform="translate(-1.67 -1.86)"/><path class="cls-2" d="M504.06,12.49,505.7,2h4.22a4.93,4.93,0,0,1,2.07.41,2.83,2.83,0,0,1,1.32,1.21,3,3,0,0,1,.25,1.93,3.8,3.8,0,0,1-.74,1.78,3.71,3.71,0,0,1-1.5,1.14,5.18,5.18,0,0,1-2.1.4h-1.7L507,12.49Zm3.75-5.71h1.65a1.32,1.32,0,0,0,.69-.2,1.76,1.76,0,0,0,.8-1.16,1.14,1.14,0,0,0-.25-.94,1,1,0,0,0-.82-.38h-1.65Z" transform="translate(-1.67 -1.86)"/><path class="cls-2" d="M512.1,12.49,517.52,2h2.93l2.15,10.48h-2.84l-.38-2H516l-1,2ZM517,8.05h2.11l-.52-3.34Z" transform="translate(-1.67 -1.86)"/><path class="cls-2" d="M528,12.64a6.88,6.88,0,0,1-1.64-.2,4.3,4.3,0,0,1-1.42-.59,2.84,2.84,0,0,1-1-1,2.62,2.62,0,0,1-.28-1.51h3a1.09,1.09,0,0,0,.23.63,1.2,1.2,0,0,0,.55.4,2.24,2.24,0,0,0,.86.15,4.14,4.14,0,0,0,.87-.09,1.79,1.79,0,0,0,.7-.3.82.82,0,0,0,.35-.57A.47.47,0,0,0,530,9a1.55,1.55,0,0,0-.62-.27c-.27-.07-.55-.12-.84-.17L527,8.32a3,3,0,0,1-1.87-1,2.62,2.62,0,0,1-.47-2.11,3.26,3.26,0,0,1,.88-1.81,4.88,4.88,0,0,1,1.81-1.15,6.75,6.75,0,0,1,2.31-.39,5,5,0,0,1,2.25.46,3.58,3.58,0,0,1,1.44,1.23,2.69,2.69,0,0,1,.46,1.61h-2.92a1,1,0,0,0-.15-.65.9.9,0,0,0-.5-.36,2.6,2.6,0,0,0-.85-.12,2.52,2.52,0,0,0-.9.13,1.06,1.06,0,0,0-.5.32.76.76,0,0,0-.19.38.62.62,0,0,0,.15.57,1.64,1.64,0,0,0,.88.34l1.61.28a4.51,4.51,0,0,1,1.74.6,2.26,2.26,0,0,1,.83.93,2.38,2.38,0,0,1,.24,1,5,5,0,0,1-.05.9,2.8,2.8,0,0,1-.85,1.6,5,5,0,0,1-1.85,1.11A7.21,7.21,0,0,1,528,12.64Z" transform="translate(-1.67 -1.86)"/><path class="cls-2" d="M536.62,12.49l1.23-8h-3L535.22,2h9l-.39,2.48h-3.06l-1.24,8Z" transform="translate(-1.67 -1.86)"/><path class="cls-2" d="M543.88,12.49,545.53,2h7.87L553,4.34h-5l-.26,1.74h4.15l-.35,2.28h-4.18l-.28,1.78h5l-.37,2.35Z" transform="translate(-1.67 -1.86)"/><path class="cls-2" d="M553.57,12.49,555.19,2h2.89l-1.62,10.48Z" transform="translate(-1.67 -1.86)"/><path class="cls-2" d="M563.16,12.64a4.57,4.57,0,0,1-2.55-.68,3.66,3.66,0,0,1-1.47-1.89A5.51,5.51,0,0,1,559,7.29a6.88,6.88,0,0,1,1.11-2.86,6.05,6.05,0,0,1,2.14-1.89A6,6,0,0,1,565,1.86a4.8,4.8,0,0,1,2.39.55,3.41,3.41,0,0,1,1.38,1.44,3,3,0,0,1,.29,1.86h-3a2,2,0,0,0-.19-.77,1.26,1.26,0,0,0-.48-.54,1.5,1.5,0,0,0-.83-.2,2.11,2.11,0,0,0-1,.28,2.43,2.43,0,0,0-.89.93,4.9,4.9,0,0,0-.56,1.79A4.91,4.91,0,0,0,562,8.75a2,2,0,0,0,.39.91,1.55,1.55,0,0,0,.64.42,2.49,2.49,0,0,0,.7.11,1.81,1.81,0,0,0,.58-.09,2.45,2.45,0,0,0,.49-.23,1.76,1.76,0,0,0,.39-.32,1.1,1.1,0,0,0,.24-.35l.19-.38H563.8l.3-1.9L569,7l-.86,5.54h-1.89l.17-1.16c-.21.18-.45.37-.73.57a3.68,3.68,0,0,1-1,.52A4.55,4.55,0,0,1,563.16,12.64Z" transform="translate(-1.67 -1.86)"/><path class="cls-2" d="M569.5,12.49,574.92,2h2.93L580,12.49h-2.83l-.39-2h-3.37l-1,2Zm4.89-4.44h2.11L576,4.71Z" transform="translate(-1.67 -1.86)"/><path class="cls-2" d="M586.7,9.34a2.19,2.19,0,0,1-1.13-.29,2.3,2.3,0,0,1-.81-.8,2.13,2.13,0,0,1,0-2.18,2.27,2.27,0,0,1,.81-.79A2.2,2.2,0,0,1,586.7,5a2.16,2.16,0,0,1,1.12.3,2.39,2.39,0,0,1,.82.79,2.13,2.13,0,0,1,0,2.18,2.41,2.41,0,0,1-.82.8A2.15,2.15,0,0,1,586.7,9.34Z" transform="translate(-1.67 -1.86)"/><path class="cls-2" d="M592.85,12.49,594.49,2h4.22a4.88,4.88,0,0,1,2.06.41,2.83,2.83,0,0,1,1.32,1.21,3,3,0,0,1,.26,1.93,3.81,3.81,0,0,1-.75,1.78,3.71,3.71,0,0,1-1.5,1.14,5.13,5.13,0,0,1-2.09.4H596.3l-.56,3.61Zm3.74-5.71h1.66a1.28,1.28,0,0,0,.68-.2,1.87,1.87,0,0,0,.54-.51,1.56,1.56,0,0,0,.26-.65,1.11,1.11,0,0,0-.25-.94,1,1,0,0,0-.82-.38H597Z" transform="translate(-1.67 -1.86)"/><path class="cls-2" d="M600.87,12.49,606.29,2h2.93l2.15,10.48h-2.84l-.38-2h-3.38l-1,2Zm4.89-4.44h2.11l-.52-3.34Z" transform="translate(-1.67 -1.86)"/><path class="cls-2" d="M616.76,12.64a7,7,0,0,1-1.64-.2,4.39,4.39,0,0,1-1.42-.59,2.93,2.93,0,0,1-1-1,2.7,2.7,0,0,1-.28-1.51h3a1.09,1.09,0,0,0,.22.63,1.23,1.23,0,0,0,.56.4,2.19,2.19,0,0,0,.85.15,4,4,0,0,0,.87-.09,1.84,1.84,0,0,0,.71-.3.81.81,0,0,0,.34-.57.45.45,0,0,0-.18-.49,1.67,1.67,0,0,0-.63-.27c-.26-.07-.54-.12-.84-.17l-1.61-.27a3,3,0,0,1-1.88-1,2.66,2.66,0,0,1-.46-2.11,3.2,3.2,0,0,1,.88-1.81,4.73,4.73,0,0,1,1.81-1.15,6.69,6.69,0,0,1,2.3-.39,5.06,5.06,0,0,1,2.26.46,3.62,3.62,0,0,1,1.43,1.23,2.64,2.64,0,0,1,.47,1.61h-2.92a1.07,1.07,0,0,0-.15-.65.89.89,0,0,0-.51-.36,2.6,2.6,0,0,0-.85-.12,2.43,2.43,0,0,0-.89.13,1.15,1.15,0,0,0-.51.32.85.85,0,0,0-.19.38.65.65,0,0,0,.16.57,1.6,1.6,0,0,0,.88.34l1.61.28a4.51,4.51,0,0,1,1.74.6,2.26,2.26,0,0,1,.83.93,2.71,2.71,0,0,1,.24,1,6.09,6.09,0,0,1-.05.9,2.82,2.82,0,0,1-.86,1.6,5,5,0,0,1-1.84,1.11A7.23,7.23,0,0,1,616.76,12.64Z" transform="translate(-1.67 -1.86)"/><path class="cls-2" d="M625.37,12.49l1.24-8h-3L624,2h9l-.39,2.48h-3.06l-1.25,8Z" transform="translate(-1.67 -1.86)"/><path class="cls-2" d="M632.65,12.49,634.3,2h7.87l-.37,2.33h-5l-.26,1.74h4.15l-.35,2.28h-4.18l-.28,1.78h5l-.37,2.35Z" transform="translate(-1.67 -1.86)"/><path class="cls-2" d="M642.34,12.49,644,2h2.88l-1.62,10.48Z" transform="translate(-1.67 -1.86)"/><path class="cls-2" d="M651.92,12.64a4.57,4.57,0,0,1-2.55-.68,3.76,3.76,0,0,1-1.47-1.89,5.51,5.51,0,0,1-.19-2.78,6.76,6.76,0,0,1,1.12-2.86,5.93,5.93,0,0,1,4.95-2.57,4.8,4.8,0,0,1,2.39.55,3.41,3.41,0,0,1,1.38,1.44,3.12,3.12,0,0,1,.3,1.86h-3a2,2,0,0,0-.19-.77,1.26,1.26,0,0,0-.48-.54,1.48,1.48,0,0,0-.83-.2,2.11,2.11,0,0,0-1,.28,2.43,2.43,0,0,0-.89.93,5.1,5.1,0,0,0-.56,1.79,4.58,4.58,0,0,0,0,1.55,1.87,1.87,0,0,0,.38.91,1.55,1.55,0,0,0,.64.42,2.54,2.54,0,0,0,.7.11,1.81,1.81,0,0,0,.58-.09,2.22,2.22,0,0,0,.49-.23,1.76,1.76,0,0,0,.39-.32,1.1,1.1,0,0,0,.24-.35l.19-.38h-1.86l.3-1.9,4.89,0-.86,5.54H655l.17-1.16c-.21.18-.45.37-.73.57a3.68,3.68,0,0,1-1,.52A4.55,4.55,0,0,1,651.92,12.64Z" transform="translate(-1.67 -1.86)"/><path class="cls-2" d="M658.27,12.49,663.7,2h2.92l2.16,10.48h-2.84l-.39-2h-3.37l-1,2Zm4.89-4.44h2.11l-.52-3.34Z" transform="translate(-1.67 -1.86)"/><path class="cls-2" d="M675.47,9.34a2.19,2.19,0,0,1-1.13-.29,2.3,2.3,0,0,1-.81-.8,2.13,2.13,0,0,1,0-2.18,2.27,2.27,0,0,1,.81-.79,2.2,2.2,0,0,1,1.13-.3,2.13,2.13,0,0,1,1.12.3,2.3,2.3,0,0,1,.82.79,2.13,2.13,0,0,1,0,2.18,2.33,2.33,0,0,1-.82.8A2.13,2.13,0,0,1,675.47,9.34Z" transform="translate(-1.67 -1.86)"/><path class="cls-2" d="M681.61,12.49,683.25,2h4.22a4.93,4.93,0,0,1,2.07.41,2.83,2.83,0,0,1,1.32,1.21,3,3,0,0,1,.25,1.93,3.66,3.66,0,0,1-2.24,2.92,5.13,5.13,0,0,1-2.09.4h-1.71l-.57,3.61Zm3.75-5.71H687a1.32,1.32,0,0,0,.69-.2,1.72,1.72,0,0,0,.53-.51,1.58,1.58,0,0,0,.27-.65,1.14,1.14,0,0,0-.25-.94,1,1,0,0,0-.82-.38h-1.65Z" transform="translate(-1.67 -1.86)"/><path class="cls-2" d="M689.64,12.49,695.06,2H698l2.15,10.48H697.3l-.38-2h-3.38l-1,2Zm4.88-4.44h2.11l-.52-3.34Z" transform="translate(-1.67 -1.86)"/><path class="cls-2" d="M705.53,12.64a6.88,6.88,0,0,1-1.64-.2,4.36,4.36,0,0,1-1.43-.59,2.9,2.9,0,0,1-1-1,2.54,2.54,0,0,1-.28-1.51h3a1.09,1.09,0,0,0,.23.63,1.2,1.2,0,0,0,.55.4,2.24,2.24,0,0,0,.86.15,4.14,4.14,0,0,0,.87-.09,1.86,1.86,0,0,0,.7-.3.81.81,0,0,0,.34-.57.45.45,0,0,0-.18-.49,1.53,1.53,0,0,0-.63-.27c-.26-.07-.54-.12-.84-.17l-1.61-.27a3,3,0,0,1-1.87-1,2.62,2.62,0,0,1-.47-2.11A3.26,3.26,0,0,1,703,3.42a4.88,4.88,0,0,1,1.81-1.15,6.75,6.75,0,0,1,2.31-.39,5,5,0,0,1,2.25.46,3.58,3.58,0,0,1,1.44,1.23,2.69,2.69,0,0,1,.46,1.61h-2.92a1,1,0,0,0-.15-.65.9.9,0,0,0-.5-.36,2.64,2.64,0,0,0-.85-.12,2.52,2.52,0,0,0-.9.13,1.06,1.06,0,0,0-.5.32.76.76,0,0,0-.19.38.62.62,0,0,0,.15.57,1.64,1.64,0,0,0,.88.34l1.61.28a4.51,4.51,0,0,1,1.74.6,2.26,2.26,0,0,1,.83.93,2.38,2.38,0,0,1,.24,1,5,5,0,0,1,0,.9,2.76,2.76,0,0,1-.86,1.6A5,5,0,0,1,708,12.23,7.21,7.21,0,0,1,705.53,12.64Z" transform="translate(-1.67 -1.86)"/><path class="cls-2" d="M714.15,12.49l1.23-8h-3L712.75,2h9l-.38,2.48h-3.06l-1.25,8Z" transform="translate(-1.67 -1.86)"/><path class="cls-2" d="M721.41,12.49,723.06,2h7.87l-.37,2.33h-5l-.27,1.74h4.16l-.35,2.28h-4.18l-.28,1.78h5l-.37,2.35Z" transform="translate(-1.67 -1.86)"/><path class="cls-2" d="M731.1,12.49,732.73,2h2.88L734,12.49Z" transform="translate(-1.67 -1.86)"/><path class="cls-2" d="M740.69,12.64a4.53,4.53,0,0,1-2.55-.68,3.66,3.66,0,0,1-1.47-1.89,5.4,5.4,0,0,1-.19-2.78,6.75,6.75,0,0,1,1.11-2.86,6,6,0,0,1,5-2.57,4.76,4.76,0,0,1,2.38.55,3.37,3.37,0,0,1,1.39,1.44,3,3,0,0,1,.29,1.86h-3a2,2,0,0,0-.19-.77,1.22,1.22,0,0,0-.49-.54,1.45,1.45,0,0,0-.82-.2,2.08,2.08,0,0,0-1,.28,2.36,2.36,0,0,0-.89.93,5.09,5.09,0,0,0-.57,1.79,4.86,4.86,0,0,0,0,1.55,1.78,1.78,0,0,0,.39.91,1.49,1.49,0,0,0,.64.42,2.49,2.49,0,0,0,.7.11,1.9,1.9,0,0,0,.58-.09,2.45,2.45,0,0,0,.49-.23,1.76,1.76,0,0,0,.39-.32A1.29,1.29,0,0,0,743,9.2l.19-.38h-1.86l.3-1.9,4.89,0-.87,5.54h-1.88l.17-1.16c-.21.18-.45.37-.73.57a3.82,3.82,0,0,1-1,.52A4.55,4.55,0,0,1,740.69,12.64Z" transform="translate(-1.67 -1.86)"/><path class="cls-2" d="M747,12.49,752.47,2h2.93l2.15,10.48h-2.84l-.38-2H751l-1,2Zm4.89-4.44H754l-.52-3.34Z" transform="translate(-1.67 -1.86)"/><path class="cls-2" d="M764.22,9.34a2.19,2.19,0,0,1-1.13-.29,2.38,2.38,0,0,1-.81-.8,2.13,2.13,0,0,1,0-2.18,2.36,2.36,0,0,1,.81-.79,2.28,2.28,0,0,1,2.26,0,2.27,2.27,0,0,1,.81.79,2.13,2.13,0,0,1,0,2.18,2.3,2.3,0,0,1-.81.8A2.19,2.19,0,0,1,764.22,9.34Z" transform="translate(-1.67 -1.86)"/><path class="cls-2" d="M770.38,12.49,772,2h4.22a4.93,4.93,0,0,1,2.07.41,2.83,2.83,0,0,1,1.32,1.21,3,3,0,0,1,.25,1.93,3.9,3.9,0,0,1-.74,1.78,3.71,3.71,0,0,1-1.5,1.14,5.18,5.18,0,0,1-2.1.4h-1.71l-.56,3.61Zm3.74-5.71h1.66a1.34,1.34,0,0,0,.69-.2,1.76,1.76,0,0,0,.8-1.16,1.14,1.14,0,0,0-.25-.94,1,1,0,0,0-.82-.38h-1.65Z" transform="translate(-1.67 -1.86)"/><path class="cls-2" d="M778.4,12.49,783.82,2h2.93l2.15,10.48h-2.83l-.39-2h-3.37l-1,2Zm4.89-4.44h2.11l-.52-3.34Z" transform="translate(-1.67 -1.86)"/><path class="cls-2" d="M794.3,12.64a6.88,6.88,0,0,1-1.64-.2,4.36,4.36,0,0,1-1.43-.59,2.93,2.93,0,0,1-1-1A2.62,2.62,0,0,1,790,9.3h3a1.09,1.09,0,0,0,.23.63,1.2,1.2,0,0,0,.55.4,2.24,2.24,0,0,0,.86.15,4.14,4.14,0,0,0,.87-.09,1.86,1.86,0,0,0,.7-.3.81.81,0,0,0,.34-.57.45.45,0,0,0-.18-.49,1.53,1.53,0,0,0-.63-.27c-.26-.07-.54-.12-.84-.17l-1.61-.27a2.93,2.93,0,0,1-1.87-1,2.62,2.62,0,0,1-.47-2.11,3.26,3.26,0,0,1,.88-1.81,4.88,4.88,0,0,1,1.81-1.15,6.75,6.75,0,0,1,2.31-.39,5,5,0,0,1,2.25.46,3.58,3.58,0,0,1,1.44,1.23,2.69,2.69,0,0,1,.46,1.61h-2.92a1.07,1.07,0,0,0-.15-.65.89.89,0,0,0-.51-.36,3.09,3.09,0,0,0-1.74,0,1.06,1.06,0,0,0-.5.32.76.76,0,0,0-.19.38.62.62,0,0,0,.15.57,1.64,1.64,0,0,0,.88.34l1.61.28a4.51,4.51,0,0,1,1.74.6,2.26,2.26,0,0,1,.83.93,2.38,2.38,0,0,1,.24,1,5,5,0,0,1,0,.9,2.82,2.82,0,0,1-.86,1.6,5,5,0,0,1-1.84,1.11A7.21,7.21,0,0,1,794.3,12.64Z" transform="translate(-1.67 -1.86)"/><path class="cls-2" d="M802.93,12.49l1.24-8h-3L801.54,2h9l-.39,2.48h-3.06l-1.25,8Z" transform="translate(-1.67 -1.86)"/><path class="cls-2" d="M810.21,12.49,811.85,2h7.87l-.37,2.33h-5l-.27,1.74h4.15l-.35,2.28h-4.17l-.29,1.78h5l-.38,2.35Z" transform="translate(-1.67 -1.86)"/><path class="cls-2" d="M819.87,12.49,821.5,2h2.88l-1.62,10.48Z" transform="translate(-1.67 -1.86)"/><path class="cls-2" d="M829.46,12.64a4.57,4.57,0,0,1-2.55-.68,3.76,3.76,0,0,1-1.47-1.89,5.51,5.51,0,0,1-.19-2.78,6.89,6.89,0,0,1,1.12-2.86,5.93,5.93,0,0,1,5-2.57,4.8,4.8,0,0,1,2.39.55,3.41,3.41,0,0,1,1.38,1.44,3.12,3.12,0,0,1,.3,1.86h-3a1.86,1.86,0,0,0-.19-.77,1.26,1.26,0,0,0-.48-.54,1.48,1.48,0,0,0-.83-.2,2.11,2.11,0,0,0-1,.28,2.43,2.43,0,0,0-.89.93,5.1,5.1,0,0,0-.56,1.79,4.58,4.58,0,0,0,0,1.55,1.87,1.87,0,0,0,.38.91,1.55,1.55,0,0,0,.64.42,2.54,2.54,0,0,0,.7.11,1.81,1.81,0,0,0,.58-.09,2.22,2.22,0,0,0,.49-.23,1.76,1.76,0,0,0,.39-.32,1.33,1.33,0,0,0,.25-.35l.18-.38H830.1l.3-1.9,4.89,0-.86,5.54h-1.89l.17-1.16c-.21.18-.45.37-.73.57a3.68,3.68,0,0,1-1,.52A4.55,4.55,0,0,1,829.46,12.64Z" transform="translate(-1.67 -1.86)"/><path class="cls-2" d="M835.83,12.49,841.25,2h2.93l2.16,10.48H843.5l-.39-2h-3.37l-1,2Zm4.89-4.44h2.11l-.52-3.34Z" transform="translate(-1.67 -1.86)"/><path class="cls-2" d="M853,9.34a2.15,2.15,0,0,1-1.12-.29,2.3,2.3,0,0,1-.81-.8,2.13,2.13,0,0,1,0-2.18,2.27,2.27,0,0,1,.81-.79,2.26,2.26,0,0,1,2.25,0,2.27,2.27,0,0,1,.81.79,2.07,2.07,0,0,1,0,2.18,2.3,2.3,0,0,1-.81.8A2.16,2.16,0,0,1,853,9.34Z" transform="translate(-1.67 -1.86)"/><path class="cls-2" d="M859.15,12.49,860.79,2H865a4.93,4.93,0,0,1,2.07.41,2.83,2.83,0,0,1,1.32,1.21,3,3,0,0,1,.25,1.93,3.8,3.8,0,0,1-.74,1.78,3.71,3.71,0,0,1-1.5,1.14,5.18,5.18,0,0,1-2.1.4h-1.7L862,12.49Zm3.75-5.71h1.65a1.34,1.34,0,0,0,.69-.2,1.76,1.76,0,0,0,.8-1.16,1.14,1.14,0,0,0-.25-.94A1,1,0,0,0,865,4.1h-1.65Z" transform="translate(-1.67 -1.86)"/><path class="cls-2" d="M867.18,12.49,872.61,2h2.92l2.16,10.48h-2.84l-.39-2h-3.37l-1,2Zm4.89-4.44h2.11l-.52-3.34Z" transform="translate(-1.67 -1.86)"/><path class="cls-2" d="M883.07,12.64a6.88,6.88,0,0,1-1.64-.2,4.3,4.3,0,0,1-1.42-.59,2.84,2.84,0,0,1-1-1,2.62,2.62,0,0,1-.28-1.51h3a1.09,1.09,0,0,0,.23.63,1.2,1.2,0,0,0,.55.4,2.24,2.24,0,0,0,.86.15,4.14,4.14,0,0,0,.87-.09,1.79,1.79,0,0,0,.7-.3.82.82,0,0,0,.35-.57.47.47,0,0,0-.19-.49,1.55,1.55,0,0,0-.62-.27c-.27-.07-.55-.12-.84-.17L882,8.32a3,3,0,0,1-1.87-1,2.66,2.66,0,0,1-.47-2.11,3.26,3.26,0,0,1,.88-1.81,4.88,4.88,0,0,1,1.81-1.15,6.75,6.75,0,0,1,2.31-.39,5,5,0,0,1,2.25.46,3.58,3.58,0,0,1,1.44,1.23,2.69,2.69,0,0,1,.46,1.61h-2.92a1,1,0,0,0-.14-.65,1,1,0,0,0-.51-.36,2.6,2.6,0,0,0-.85-.12,2.52,2.52,0,0,0-.9.13,1.11,1.11,0,0,0-.5.32.76.76,0,0,0-.19.38.64.64,0,0,0,.15.57,1.64,1.64,0,0,0,.88.34l1.61.28a4.51,4.51,0,0,1,1.74.6,2.26,2.26,0,0,1,.83.93,2.38,2.38,0,0,1,.24,1,5,5,0,0,1,0,.9,2.8,2.8,0,0,1-.85,1.6,5,5,0,0,1-1.85,1.11A7.17,7.17,0,0,1,883.07,12.64Z" transform="translate(-1.67 -1.86)"/><path class="cls-2" d="M891.68,12.49l1.23-8h-3L890.28,2h9l-.38,2.48h-3.07l-1.24,8Z" transform="translate(-1.67 -1.86)"/><path class="cls-2" d="M899,12.49,900.61,2h7.88l-.37,2.33h-5l-.27,1.74H907l-.35,2.28H902.5l-.28,1.78h5l-.37,2.35Z" transform="translate(-1.67 -1.86)"/><path class="cls-2" d="M908.64,12.49,910.27,2h2.88l-1.62,10.48Z" transform="translate(-1.67 -1.86)"/><path class="cls-2" d="M918.22,12.64a4.57,4.57,0,0,1-2.55-.68,3.66,3.66,0,0,1-1.47-1.89A5.51,5.51,0,0,1,914,7.29a6.88,6.88,0,0,1,1.11-2.86,6.05,6.05,0,0,1,2.14-1.89,6,6,0,0,1,2.82-.68,4.8,4.8,0,0,1,2.39.55,3.41,3.41,0,0,1,1.38,1.44,3.12,3.12,0,0,1,.3,1.86h-3a2,2,0,0,0-.19-.77,1.26,1.26,0,0,0-.48-.54,1.5,1.5,0,0,0-.83-.2,2.11,2.11,0,0,0-1,.28,2.43,2.43,0,0,0-.89.93,4.9,4.9,0,0,0-.56,1.79,4.91,4.91,0,0,0,0,1.55,2,2,0,0,0,.39.91,1.55,1.55,0,0,0,.64.42,2.49,2.49,0,0,0,.7.11,1.81,1.81,0,0,0,.58-.09,2.45,2.45,0,0,0,.49-.23,1.76,1.76,0,0,0,.39-.32,1.1,1.1,0,0,0,.24-.35l.19-.38h-1.86l.3-1.9,4.89,0-.86,5.54H921.3l.17-1.16c-.21.18-.45.37-.73.57a3.68,3.68,0,0,1-1,.52A4.55,4.55,0,0,1,918.22,12.64Z" transform="translate(-1.67 -1.86)"/><path class="cls-2" d="M924.6,12.49,930,2H933l2.15,10.48h-2.84l-.38-2H928.5l-1,2Zm4.88-4.44h2.11l-.52-3.34Z" transform="translate(-1.67 -1.86)"/><path class="cls-2" d="M941.78,9.34a2.19,2.19,0,0,1-1.13-.29,2.38,2.38,0,0,1-.81-.8,2.13,2.13,0,0,1,0-2.18,2.36,2.36,0,0,1,.81-.79,2.28,2.28,0,0,1,2.26,0,2.27,2.27,0,0,1,.81.79,2.13,2.13,0,0,1,0,2.18,2.3,2.3,0,0,1-.81.8A2.19,2.19,0,0,1,941.78,9.34Z" transform="translate(-1.67 -1.86)"/><path class="cls-2" d="M947.92,12.49,949.56,2h4.22a4.93,4.93,0,0,1,2.07.41,2.83,2.83,0,0,1,1.32,1.21,3,3,0,0,1,.25,1.93,3.66,3.66,0,0,1-2.24,2.92,5.16,5.16,0,0,1-2.09.4h-1.71l-.57,3.61Zm3.75-5.71h1.65a1.32,1.32,0,0,0,.69-.2,1.72,1.72,0,0,0,.53-.51,1.58,1.58,0,0,0,.27-.65,1.14,1.14,0,0,0-.25-.94,1,1,0,0,0-.82-.38h-1.65Z" transform="translate(-1.67 -1.86)"/><path class="cls-2" d="M955.94,12.49,961.37,2h2.92l2.16,10.48h-2.84l-.39-2h-3.37l-1,2Zm4.89-4.44h2.11l-.52-3.34Z" transform="translate(-1.67 -1.86)"/><path class="cls-2" d="M971.84,12.64a7,7,0,0,1-1.64-.2,4.39,4.39,0,0,1-1.42-.59,2.84,2.84,0,0,1-1-1,2.7,2.7,0,0,1-.28-1.51h3a1.09,1.09,0,0,0,.22.63,1.23,1.23,0,0,0,.56.4,2.19,2.19,0,0,0,.85.15,4,4,0,0,0,.87-.09,1.91,1.91,0,0,0,.71-.3.81.81,0,0,0,.34-.57.47.47,0,0,0-.18-.49,1.67,1.67,0,0,0-.63-.27c-.26-.07-.54-.12-.84-.17l-1.61-.27a3,3,0,0,1-1.88-1,2.62,2.62,0,0,1-.46-2.11,3.2,3.2,0,0,1,.88-1.81,4.77,4.77,0,0,1,1.8-1.15,6.79,6.79,0,0,1,2.31-.39,5.06,5.06,0,0,1,2.26.46,3.62,3.62,0,0,1,1.43,1.23,2.64,2.64,0,0,1,.47,1.61H974.7a1.07,1.07,0,0,0-.15-.65.89.89,0,0,0-.51-.36,2.6,2.6,0,0,0-.85-.12,2.43,2.43,0,0,0-.89.13,1.15,1.15,0,0,0-.51.32.85.85,0,0,0-.19.38.65.65,0,0,0,.16.57,1.6,1.6,0,0,0,.88.34l1.61.28a4.51,4.51,0,0,1,1.74.6,2.26,2.26,0,0,1,.83.93,2.71,2.71,0,0,1,.24,1,6.09,6.09,0,0,1,0,.9,2.82,2.82,0,0,1-.86,1.6,5,5,0,0,1-1.84,1.11A7.23,7.23,0,0,1,971.84,12.64Z" transform="translate(-1.67 -1.86)"/><path class="cls-2" d="M980.48,12.49l1.24-8h-3L979.08,2h9l-.39,2.48H984.6l-1.25,8Z" transform="translate(-1.67 -1.86)"/><path class="cls-2" d="M987.75,12.49,989.4,2h7.87l-.37,2.33h-5l-.27,1.74h4.16l-.35,2.28h-4.18L991,10.14h5l-.37,2.35Z" transform="translate(-1.67 -1.86)"/><path class="cls-2" d="M997.42,12.49,999,2h2.89l-1.62,10.48Z" transform="translate(-1.67 -1.86)"/><path class="cls-2" d="M1007,12.64a4.57,4.57,0,0,1-2.55-.68,3.66,3.66,0,0,1-1.47-1.89,5.4,5.4,0,0,1-.19-2.78,6.75,6.75,0,0,1,1.11-2.86,6.05,6.05,0,0,1,2.14-1.89,5.94,5.94,0,0,1,2.82-.68,4.8,4.8,0,0,1,2.39.55,3.41,3.41,0,0,1,1.38,1.44,3,3,0,0,1,.29,1.86h-3a2,2,0,0,0-.19-.77,1.26,1.26,0,0,0-.48-.54,1.5,1.5,0,0,0-.83-.2,2.08,2.08,0,0,0-1,.28,2.36,2.36,0,0,0-.89.93A4.9,4.9,0,0,0,1006,7.2a4.91,4.91,0,0,0-.05,1.55,1.87,1.87,0,0,0,.39.91,1.55,1.55,0,0,0,.64.42,2.49,2.49,0,0,0,.7.11,1.85,1.85,0,0,0,.58-.09,2.45,2.45,0,0,0,.49-.23,1.76,1.76,0,0,0,.39-.32,1.1,1.1,0,0,0,.24-.35l.19-.38h-1.86l.3-1.9,4.89,0-.86,5.54h-1.89l.17-1.16c-.21.18-.45.37-.73.57a3.68,3.68,0,0,1-1,.52A4.55,4.55,0,0,1,1007,12.64Z" transform="translate(-1.67 -1.86)"/><path class="cls-2" d="M1013.35,12.49,1018.77,2h2.93l2.15,10.48H1021l-.38-2h-3.37l-1,2Zm4.89-4.44h2.11l-.52-3.34Z" transform="translate(-1.67 -1.86)"/><path class="cls-2" d="M1030.55,9.34a2.16,2.16,0,0,1-1.13-.29,2.3,2.3,0,0,1-.81-.8,2.13,2.13,0,0,1,0-2.18,2.27,2.27,0,0,1,.81-.79,2.26,2.26,0,0,1,2.25,0,2.27,2.27,0,0,1,.81.79,2.07,2.07,0,0,1,0,2.18,2.3,2.3,0,0,1-.81.8A2.15,2.15,0,0,1,1030.55,9.34Z" transform="translate(-1.67 -1.86)"/><path class="cls-2" d="M1036.69,12.49,1038.33,2h4.22a4.93,4.93,0,0,1,2.07.41,2.83,2.83,0,0,1,1.32,1.21,3,3,0,0,1,.25,1.93,3.8,3.8,0,0,1-.74,1.78,3.71,3.71,0,0,1-1.5,1.14,5.18,5.18,0,0,1-2.1.4h-1.7l-.57,3.61Zm3.75-5.71h1.65a1.34,1.34,0,0,0,.69-.2,1.76,1.76,0,0,0,.8-1.16,1.14,1.14,0,0,0-.25-.94,1,1,0,0,0-.82-.38h-1.65Z" transform="translate(-1.67 -1.86)"/><path class="cls-2" d="M1044.73,12.49,1050.15,2h2.93l2.15,10.48h-2.84l-.38-2h-3.37l-1.05,2Zm4.89-4.44h2.11l-.52-3.34Z" transform="translate(-1.67 -1.86)"/></g></g></g></g></svg>