<svg xmlns="http://www.w3.org/2000/svg" viewBox="0 0 1275.51 512.72"><defs><style>.cls-1{opacity:0.6;}.cls-2{fill:#fff;}</style></defs><g id="Layer_2" data-name="Layer 2"><g id="Accordion_menu_expanded" data-name="Accordion menu expanded"><g id="Layer_6_copy_2" data-name="Layer 6 copy 2"><g class="cls-1"><path class="cls-2" d="M12.82,510a6.88,6.88,0,0,1-.19,1.64,4.48,4.48,0,0,1-.61,1.43,2.87,2.87,0,0,1-1,1,2.79,2.79,0,0,1-1.53.28v-3a1.15,1.15,0,0,0,.64-.22,1.26,1.26,0,0,0,.41-.56,2.4,2.4,0,0,0,.14-.85,4,4,0,0,0-.09-.87,1.84,1.84,0,0,0-.3-.71.85.85,0,0,0-.58-.34.47.47,0,0,0-.5.18,1.6,1.6,0,0,0-.27.63c-.07.26-.12.54-.17.84L8.44,511a2.88,2.88,0,0,1-1,1.88,2.71,2.71,0,0,1-2.15.47,3.35,3.35,0,0,1-1.83-.88,4.67,4.67,0,0,1-1.16-1.81,6.52,6.52,0,0,1-.4-2.31,4.93,4.93,0,0,1,.47-2.26,3.6,3.6,0,0,1,1.24-1.44,2.71,2.71,0,0,1,1.64-.46v2.92a1.15,1.15,0,0,0-.67.15.93.93,0,0,0-.36.51,2.53,2.53,0,0,0-.12.84,2.79,2.79,0,0,0,.13.91,1.39,1.39,0,0,0,.32.5.88.88,0,0,0,.39.19.7.7,0,0,0,.58-.15,1.76,1.76,0,0,0,.35-.89l.28-1.61a4.5,4.5,0,0,1,.61-1.74,2.31,2.31,0,0,1,.94-.84,2.81,2.81,0,0,1,1-.24,6.12,6.12,0,0,1,.91.06,2.85,2.85,0,0,1,1.62.85,5,5,0,0,1,1.13,1.85A7,7,0,0,1,12.82,510Z" transform="translate(-1.89 -1.6)"/><path class="cls-2" d="M12.68,503.67,2,502v-3l4.29.65L2,495.93V492.7l4.06,3.58,6.58-2.42V497l-4.49,1.69,1.71,1.6,2.78.43Z" transform="translate(-1.89 -1.6)"/><path class="cls-2" d="M12.68,493.07,2,487.63V484.7l10.64-2.16v2.84l-2.06.39v3.38l2.06,1Zm-4.51-4.9v-2.12l-3.4.53Z" transform="translate(-1.89 -1.6)"/><path class="cls-2" d="M12.68,479.74,4.55,478.5v3L2,481.14v-9l2.51.39v3.06l8.13,1.25Z" transform="translate(-1.89 -1.6)"/><path class="cls-2" d="M12.68,472.45,2,470.8v-2.87l8.28,1.26v-4.27l2.36.37Z" transform="translate(-1.89 -1.6)"/><path class="cls-2" d="M12.82,459.41a4.83,4.83,0,0,1-.67,2.65,3.7,3.7,0,0,1-1.89,1.52,5.88,5.88,0,0,1-2.88.19,7.13,7.13,0,0,1-2.9-1.1,5.85,5.85,0,0,1-1.91-2.11,6,6,0,0,1-.68-2.83,4.78,4.78,0,0,1,.68-2.61,3.74,3.74,0,0,1,1.91-1.51,5.72,5.72,0,0,1,2.9-.21,6.93,6.93,0,0,1,2.87,1.08,5.76,5.76,0,0,1,1.9,2.09A6,6,0,0,1,12.82,459.41Zm-2.29-.34a2.15,2.15,0,0,0-.3-1.11,2.42,2.42,0,0,0-1-.87,5.38,5.38,0,0,0-1.83-.54,5.29,5.29,0,0,0-1.89,0,1.77,1.77,0,0,0-1,.57,1.61,1.61,0,0,0-.31,1,2.14,2.14,0,0,0,.72,1.58,4.64,4.64,0,0,0,2.51,1,4.85,4.85,0,0,0,1.83,0,1.59,1.59,0,0,0,1-.58A1.67,1.67,0,0,0,10.53,459.07Z" transform="translate(-1.89 -1.6)"/><path class="cls-2" d="M12.82,448.07a4.57,4.57,0,0,1-.68,2.55,3.8,3.8,0,0,1-1.92,1.48,5.82,5.82,0,0,1-2.83.19,7,7,0,0,1-2.89-1.12A6.07,6.07,0,0,1,2.57,449a6,6,0,0,1-.68-2.82,4.67,4.67,0,0,1,.56-2.39,3.39,3.39,0,0,1,1.45-1.39,3.25,3.25,0,0,1,1.89-.3v3a2.13,2.13,0,0,0-.78.19,1.3,1.3,0,0,0-.55.49,1.56,1.56,0,0,0-.2.82,2.12,2.12,0,0,0,.28,1.05,2.57,2.57,0,0,0,1,.89,5.08,5.08,0,0,0,1.82.56,5,5,0,0,0,1.57.05,2,2,0,0,0,.92-.39,1.48,1.48,0,0,0,.43-.64,2.54,2.54,0,0,0,.11-.7,1.81,1.81,0,0,0-.09-.58,2.54,2.54,0,0,0-.23-.5A2.47,2.47,0,0,0,9.7,446a1.56,1.56,0,0,0-.36-.25L9,445.56v1.87L7,447.13l0-4.9,5.62.86V445l-1.18-.17c.18.21.37.46.58.74a4.07,4.07,0,0,1,.53,1A4.63,4.63,0,0,1,12.82,448.07Z" transform="translate(-1.89 -1.6)"/><path class="cls-2" d="M12.82,436.68a6.88,6.88,0,0,1-.19,1.64,4.48,4.48,0,0,1-.61,1.43,2.87,2.87,0,0,1-1,1,2.79,2.79,0,0,1-1.53.28v-3a1.07,1.07,0,0,0,.64-.22,1.26,1.26,0,0,0,.41-.56,2.4,2.4,0,0,0,.14-.85,4,4,0,0,0-.09-.87,1.84,1.84,0,0,0-.3-.71.85.85,0,0,0-.58-.34.47.47,0,0,0-.5.18,1.67,1.67,0,0,0-.27.63c-.07.26-.12.54-.17.84l-.28,1.61a2.88,2.88,0,0,1-1,1.88,2.71,2.71,0,0,1-2.15.47,3.35,3.35,0,0,1-1.83-.88,4.67,4.67,0,0,1-1.16-1.81,6.52,6.52,0,0,1-.4-2.31,4.93,4.93,0,0,1,.47-2.26,3.6,3.6,0,0,1,1.24-1.44,2.71,2.71,0,0,1,1.64-.46v2.92a1.15,1.15,0,0,0-.67.15.93.93,0,0,0-.36.51,2.6,2.6,0,0,0-.12.85,2.77,2.77,0,0,0,.13.9,1.39,1.39,0,0,0,.32.5.88.88,0,0,0,.39.19.7.7,0,0,0,.58-.15,1.76,1.76,0,0,0,.35-.89l.28-1.61a4.5,4.5,0,0,1,.61-1.74,2.31,2.31,0,0,1,.94-.84,2.61,2.61,0,0,1,1-.23,5.09,5.09,0,0,1,.91.05,2.85,2.85,0,0,1,1.62.85,5,5,0,0,1,1.13,1.85A7,7,0,0,1,12.82,436.68Z" transform="translate(-1.89 -1.6)"/><path class="cls-2" d="M9.48,424.88a2.13,2.13,0,0,1-.3,1.12,2.33,2.33,0,0,1-.8.82,2.16,2.16,0,0,1-1.12.3,2.09,2.09,0,0,1-1.1-.3,2.25,2.25,0,0,1-.8-.82,2.05,2.05,0,0,1-.31-1.12,2.11,2.11,0,0,1,.31-1.13,2.22,2.22,0,0,1,.8-.81,2,2,0,0,1,1.1-.31,2.08,2.08,0,0,1,1.12.31,2.3,2.3,0,0,1,.8.81A2.2,2.2,0,0,1,9.48,424.88Z" transform="translate(-1.89 -1.6)"/><path class="cls-2" d="M12.82,414.32a6.88,6.88,0,0,1-.19,1.64,4.39,4.39,0,0,1-.61,1.43,2.87,2.87,0,0,1-1,1,2.79,2.79,0,0,1-1.53.28v-3a1.15,1.15,0,0,0,.64-.23,1.26,1.26,0,0,0,.41-.56,2.36,2.36,0,0,0,.14-.85,4.14,4.14,0,0,0-.09-.87,1.91,1.91,0,0,0-.3-.71.85.85,0,0,0-.58-.34.47.47,0,0,0-.5.18,1.67,1.67,0,0,0-.27.63c-.07.26-.12.54-.17.84l-.28,1.62a2.9,2.9,0,0,1-1,1.88,2.75,2.75,0,0,1-2.15.46,3.28,3.28,0,0,1-1.83-.88A4.67,4.67,0,0,1,2.31,415a6.52,6.52,0,0,1-.4-2.31,4.93,4.93,0,0,1,.47-2.26A3.6,3.6,0,0,1,3.62,409a2.71,2.71,0,0,1,1.64-.46v2.92a1.15,1.15,0,0,0-.67.15.93.93,0,0,0-.36.51,2.6,2.6,0,0,0-.12.85,2.77,2.77,0,0,0,.13.9,1.31,1.31,0,0,0,.32.5.79.79,0,0,0,.39.19.7.7,0,0,0,.58-.15,1.71,1.71,0,0,0,.35-.88l.28-1.62a4.5,4.5,0,0,1,.61-1.74,2.38,2.38,0,0,1,.94-.84,2.61,2.61,0,0,1,1-.23,5.09,5.09,0,0,1,.91,0,2.85,2.85,0,0,1,1.62.85,5,5,0,0,1,1.13,1.85A7,7,0,0,1,12.82,414.32Z" transform="translate(-1.89 -1.6)"/><path class="cls-2" d="M12.68,408,2,406.36v-3l4.29.66L2,400.27V397l4.06,3.57,6.58-2.41v3.08L8.19,403l1.71,1.6,2.78.42Z" transform="translate(-1.89 -1.6)"/><path class="cls-2" d="M12.68,397.39,2,392V389l10.64-2.16v2.84l-2.06.39v3.38l2.06,1ZM8.17,392.5v-2.12l-3.4.52Z" transform="translate(-1.89 -1.6)"/><path class="cls-2" d="M12.68,384.08l-8.13-1.23v3L2,385.48v-9l2.51.39V380l8.13,1.25Z" transform="translate(-1.89 -1.6)"/><path class="cls-2" d="M12.68,376.79,2,375.14v-2.87l8.28,1.27v-4.28l2.36.37Z" transform="translate(-1.89 -1.6)"/><path class="cls-2" d="M12.82,363.74a4.89,4.89,0,0,1-.67,2.66,3.68,3.68,0,0,1-1.89,1.51,5.88,5.88,0,0,1-2.88.19,7,7,0,0,1-2.9-1.1,5.85,5.85,0,0,1-1.91-2.11,6,6,0,0,1-.68-2.83,4.78,4.78,0,0,1,.68-2.61,3.74,3.74,0,0,1,1.91-1.51,5.72,5.72,0,0,1,2.9-.21,6.93,6.93,0,0,1,2.87,1.08,5.76,5.76,0,0,1,1.9,2.09A6,6,0,0,1,12.82,363.74Zm-2.29-.34a2.15,2.15,0,0,0-.3-1.11,2.49,2.49,0,0,0-1-.87,5.62,5.62,0,0,0-1.83-.54,5.29,5.29,0,0,0-1.89,0,1.77,1.77,0,0,0-1,.57,1.61,1.61,0,0,0-.31,1A2.17,2.17,0,0,0,4.91,364a4.73,4.73,0,0,0,2.51,1,4.85,4.85,0,0,0,1.83,0,1.59,1.59,0,0,0,1-.58A1.67,1.67,0,0,0,10.53,363.4Z" transform="translate(-1.89 -1.6)"/><path class="cls-2" d="M12.82,352.4a4.55,4.55,0,0,1-.68,2.55,3.8,3.8,0,0,1-1.92,1.48,5.7,5.7,0,0,1-2.83.19A7,7,0,0,1,4.5,355.5a5.88,5.88,0,0,1-2.61-5,4.67,4.67,0,0,1,.56-2.39,3.39,3.39,0,0,1,1.45-1.39,3.16,3.16,0,0,1,1.89-.29v3a2.13,2.13,0,0,0-.78.2,1.35,1.35,0,0,0-.55.48,1.57,1.57,0,0,0-.2.83,2.11,2.11,0,0,0,.28,1,2.49,2.49,0,0,0,1,.89,5.28,5.28,0,0,0,1.82.57,5,5,0,0,0,1.57,0,1.82,1.82,0,0,0,.92-.39,1.48,1.48,0,0,0,.43-.64,2.49,2.49,0,0,0,.11-.7,1.81,1.81,0,0,0-.09-.58,2.22,2.22,0,0,0-.23-.49,2.57,2.57,0,0,0-.32-.39,1.56,1.56,0,0,0-.36-.25L9,349.9v1.86L7,351.46l0-4.9,5.62.87v1.89l-1.18-.17c.18.2.37.45.58.73a4,4,0,0,1,.53,1A4.57,4.57,0,0,1,12.82,352.4Z" transform="translate(-1.89 -1.6)"/><path class="cls-2" d="M12.82,341a6.94,6.94,0,0,1-.19,1.64,4.33,4.33,0,0,1-.61,1.42,2.79,2.79,0,0,1-1,1,2.7,2.7,0,0,1-1.53.28v-3a1.15,1.15,0,0,0,.64-.22,1.32,1.32,0,0,0,.41-.56,2.42,2.42,0,0,0,.14-.86,4.14,4.14,0,0,0-.09-.87,1.79,1.79,0,0,0-.3-.7.86.86,0,0,0-.58-.35.49.49,0,0,0-.5.19,1.55,1.55,0,0,0-.27.62c-.07.27-.12.55-.17.85L8.44,342a2.9,2.9,0,0,1-1,1.88,2.71,2.71,0,0,1-2.15.46,3.22,3.22,0,0,1-1.83-.88,4.52,4.52,0,0,1-1.16-1.81,6.52,6.52,0,0,1-.4-2.31,4.93,4.93,0,0,1,.47-2.26,3.74,3.74,0,0,1,1.24-1.44,2.78,2.78,0,0,1,1.64-.46v2.93a1.08,1.08,0,0,0-.67.14,1,1,0,0,0-.36.51,2.6,2.6,0,0,0-.12.85,2.77,2.77,0,0,0,.13.9,1.23,1.23,0,0,0,.32.5.79.79,0,0,0,.39.19.64.64,0,0,0,.58-.15,1.67,1.67,0,0,0,.35-.88l.28-1.62a4.56,4.56,0,0,1,.61-1.74,2.28,2.28,0,0,1,.94-.83,2.81,2.81,0,0,1,1-.24,6.23,6.23,0,0,1,.91.05,2.87,2.87,0,0,1,1.62.86,5,5,0,0,1,1.13,1.85A7,7,0,0,1,12.82,341Z" transform="translate(-1.89 -1.6)"/><path class="cls-2" d="M9.48,329.21a2.2,2.2,0,0,1-.3,1.13,2.3,2.3,0,0,1-.8.81,2.16,2.16,0,0,1-1.12.3,2.09,2.09,0,0,1-1.1-.3,2.22,2.22,0,0,1-.8-.81,2.21,2.21,0,0,1,0-2.26,2.22,2.22,0,0,1,.8-.81,2,2,0,0,1,1.1-.31,2.08,2.08,0,0,1,1.12.31,2.3,2.3,0,0,1,.8.81A2.2,2.2,0,0,1,9.48,329.21Z" transform="translate(-1.89 -1.6)"/><path class="cls-2" d="M12.82,318.65a6.88,6.88,0,0,1-.19,1.64,4.39,4.39,0,0,1-.61,1.43,2.79,2.79,0,0,1-1,1,2.7,2.7,0,0,1-1.53.28v-3a1.23,1.23,0,0,0,.64-.22,1.32,1.32,0,0,0,.41-.56,2.46,2.46,0,0,0,.14-.86,4.14,4.14,0,0,0-.09-.87,1.79,1.79,0,0,0-.3-.7.86.86,0,0,0-.58-.35.5.5,0,0,0-.5.18,1.67,1.67,0,0,0-.27.63c-.07.27-.12.55-.17.84l-.28,1.62a2.9,2.9,0,0,1-1,1.88A2.71,2.71,0,0,1,5.3,322a3.28,3.28,0,0,1-1.83-.88,4.59,4.59,0,0,1-1.16-1.81,6.52,6.52,0,0,1-.4-2.31,4.93,4.93,0,0,1,.47-2.26,3.74,3.74,0,0,1,1.24-1.44,2.78,2.78,0,0,1,1.64-.46v2.93a1.08,1.08,0,0,0-.67.14.93.93,0,0,0-.36.51,2.6,2.6,0,0,0-.12.85,2.77,2.77,0,0,0,.13.9,1.23,1.23,0,0,0,.32.5.79.79,0,0,0,.39.19.64.64,0,0,0,.58-.15,1.71,1.71,0,0,0,.35-.88l.28-1.62a4.5,4.5,0,0,1,.61-1.74,2.28,2.28,0,0,1,.94-.83,2.46,2.46,0,0,1,1-.24,5.09,5.09,0,0,1,.91.05,2.87,2.87,0,0,1,1.62.86,4.9,4.9,0,0,1,1.13,1.84A7,7,0,0,1,12.82,318.65Z" transform="translate(-1.89 -1.6)"/><path class="cls-2" d="M12.68,312.32,2,310.67v-3l4.29.65L2,304.58v-3.23l4.06,3.57,6.58-2.41v3.08l-4.49,1.7,1.71,1.6,2.78.43Z" transform="translate(-1.89 -1.6)"/><path class="cls-2" d="M12.68,301.72,2,296.29v-2.94l10.64-2.15V294l-2.06.38v3.38l2.06,1.05Zm-4.51-4.9v-2.11l-3.4.52Z" transform="translate(-1.89 -1.6)"/><path class="cls-2" d="M12.68,288.42l-8.13-1.24v3L2,289.82v-9l2.51.39v3.06l8.13,1.25Z" transform="translate(-1.89 -1.6)"/><path class="cls-2" d="M12.68,281.13,2,279.48v-2.87l8.28,1.27V273.6l2.36.37Z" transform="translate(-1.89 -1.6)"/><path class="cls-2" d="M12.82,268.08a4.89,4.89,0,0,1-.67,2.66,3.68,3.68,0,0,1-1.89,1.51,5.77,5.77,0,0,1-2.88.19,7.12,7.12,0,0,1-2.9-1.09,5.82,5.82,0,0,1-2.59-4.94,4.73,4.73,0,0,1,.68-2.61,3.76,3.76,0,0,1,1.91-1.52,5.84,5.84,0,0,1,2.9-.2,6.93,6.93,0,0,1,2.87,1.08,5.68,5.68,0,0,1,1.9,2.09A5.91,5.91,0,0,1,12.82,268.08Zm-2.29-.34a2.12,2.12,0,0,0-.3-1.1,2.43,2.43,0,0,0-1-.88,5.87,5.87,0,0,0-1.83-.54,5.25,5.25,0,0,0-1.89,0,1.67,1.67,0,0,0-1,.57,1.59,1.59,0,0,0-.31,1,2.14,2.14,0,0,0,.72,1.58,4.8,4.8,0,0,0,2.51,1,5.31,5.31,0,0,0,1.83,0,1.64,1.64,0,0,0,1-.58A1.7,1.7,0,0,0,10.53,267.74Z" transform="translate(-1.89 -1.6)"/><path class="cls-2" d="M12.82,256.73a4.58,4.58,0,0,1-.68,2.56,3.84,3.84,0,0,1-1.92,1.47,5.7,5.7,0,0,1-2.83.19,6.89,6.89,0,0,1-2.89-1.12,5.88,5.88,0,0,1-2.61-5,4.7,4.7,0,0,1,.56-2.39,3.39,3.39,0,0,1,1.45-1.39,3.16,3.16,0,0,1,1.89-.29v3A2.13,2.13,0,0,0,5,254a1.35,1.35,0,0,0-.55.48,1.59,1.59,0,0,0-.2.83,2.08,2.08,0,0,0,.28,1,2.42,2.42,0,0,0,1,.89,5.28,5.28,0,0,0,1.82.57,5,5,0,0,0,1.57,0,1.82,1.82,0,0,0,.92-.39,1.43,1.43,0,0,0,.43-.64,2.49,2.49,0,0,0,.11-.7,1.85,1.85,0,0,0-.09-.58,2.45,2.45,0,0,0-.23-.49,2.57,2.57,0,0,0-.32-.39,1.26,1.26,0,0,0-.36-.24L9,254.23v1.86L7,255.79l0-4.9,5.62.87v1.89l-1.18-.17c.18.21.37.45.58.73a4,4,0,0,1,.53,1A4.57,4.57,0,0,1,12.82,256.73Z" transform="translate(-1.89 -1.6)"/><path class="cls-2" d="M12.82,245.31a6.88,6.88,0,0,1-.19,1.64,4.39,4.39,0,0,1-.61,1.43,2.68,2.68,0,0,1-2.58,1.25v-3a1.23,1.23,0,0,0,.64-.22,1.39,1.39,0,0,0,.41-.56,2.46,2.46,0,0,0,.14-.86,4.14,4.14,0,0,0-.09-.87,1.79,1.79,0,0,0-.3-.7.86.86,0,0,0-.58-.35.5.5,0,0,0-.5.18,1.67,1.67,0,0,0-.27.63c-.07.27-.12.55-.17.84l-.28,1.62a2.9,2.9,0,0,1-1,1.88,2.71,2.71,0,0,1-2.15.46,3.28,3.28,0,0,1-1.83-.88A4.59,4.59,0,0,1,2.31,246a6.52,6.52,0,0,1-.4-2.31,4.93,4.93,0,0,1,.47-2.26A3.67,3.67,0,0,1,3.62,240a2.78,2.78,0,0,1,1.64-.46v2.93a1.08,1.08,0,0,0-.67.14.93.93,0,0,0-.36.51,2.6,2.6,0,0,0-.12.85,2.77,2.77,0,0,0,.13.9,1.31,1.31,0,0,0,.32.5.79.79,0,0,0,.39.19.64.64,0,0,0,.58-.15,1.71,1.71,0,0,0,.35-.88l.28-1.62a4.5,4.5,0,0,1,.61-1.74,2.28,2.28,0,0,1,.94-.83,2.46,2.46,0,0,1,1-.24,5.09,5.09,0,0,1,.91,0,2.87,2.87,0,0,1,1.62.86,4.9,4.9,0,0,1,1.13,1.84A7,7,0,0,1,12.82,245.31Z" transform="translate(-1.89 -1.6)"/><path class="cls-2" d="M9.48,233.54a2.2,2.2,0,0,1-.3,1.13,2.3,2.3,0,0,1-.8.81,2.16,2.16,0,0,1-1.12.3,2.09,2.09,0,0,1-1.1-.3,2.22,2.22,0,0,1-.8-.81,2.21,2.21,0,0,1,0-2.26,2.22,2.22,0,0,1,.8-.81,2,2,0,0,1,1.1-.31,2.08,2.08,0,0,1,1.12.31,2.3,2.3,0,0,1,.8.81A2.2,2.2,0,0,1,9.48,233.54Z" transform="translate(-1.89 -1.6)"/><path class="cls-2" d="M12.82,223a6.88,6.88,0,0,1-.19,1.64,4.39,4.39,0,0,1-.61,1.43,2.87,2.87,0,0,1-1,1,2.79,2.79,0,0,1-1.53.28v-3a1.15,1.15,0,0,0,.64-.23,1.26,1.26,0,0,0,.41-.56,2.36,2.36,0,0,0,.14-.85,4.14,4.14,0,0,0-.09-.87,1.91,1.91,0,0,0-.3-.71.85.85,0,0,0-.58-.34.47.47,0,0,0-.5.18,1.67,1.67,0,0,0-.27.63c-.07.26-.12.54-.17.84L8.44,224a2.9,2.9,0,0,1-1,1.88,2.75,2.75,0,0,1-2.15.46,3.28,3.28,0,0,1-1.83-.88,4.67,4.67,0,0,1-1.16-1.81,6.52,6.52,0,0,1-.4-2.31,4.93,4.93,0,0,1,.47-2.26,3.6,3.6,0,0,1,1.24-1.44,2.71,2.71,0,0,1,1.64-.46v2.92a1.15,1.15,0,0,0-.67.15.93.93,0,0,0-.36.51,2.6,2.6,0,0,0-.12.85,2.77,2.77,0,0,0,.13.9,1.31,1.31,0,0,0,.32.5.79.79,0,0,0,.39.19.7.7,0,0,0,.58-.15,1.71,1.71,0,0,0,.35-.88l.28-1.62a4.5,4.5,0,0,1,.61-1.74,2.28,2.28,0,0,1,.94-.83,2.46,2.46,0,0,1,1-.24,5.09,5.09,0,0,1,.91.05,2.81,2.81,0,0,1,1.62.86,4.9,4.9,0,0,1,1.13,1.84A7,7,0,0,1,12.82,223Z" transform="translate(-1.89 -1.6)"/><path class="cls-2" d="M12.68,216.67,2,215v-3l4.29.65L2,208.94v-3.23l4.06,3.57,6.58-2.41V210l-4.49,1.7,1.71,1.6,2.78.42Z" transform="translate(-1.89 -1.6)"/><path class="cls-2" d="M12.68,206.06,2,200.62v-2.93l10.64-2.16v2.85l-2.06.38v3.38l2.06,1Zm-4.51-4.9V199l-3.4.53Z" transform="translate(-1.89 -1.6)"/><path class="cls-2" d="M12.68,192.75l-8.13-1.24v3L2,194.15v-9l2.51.39v3.07l8.13,1.25Z" transform="translate(-1.89 -1.6)"/><path class="cls-2" d="M12.68,185.45,2,183.8v-2.87l8.28,1.26v-4.27l2.36.37Z" transform="translate(-1.89 -1.6)"/><path class="cls-2" d="M12.82,172.39a4.89,4.89,0,0,1-.67,2.66,3.68,3.68,0,0,1-1.89,1.51,5.77,5.77,0,0,1-2.88.19,7,7,0,0,1-2.9-1.1,5.77,5.77,0,0,1-1.91-2.11,5.91,5.91,0,0,1-.68-2.82,4.79,4.79,0,0,1,.68-2.62,3.74,3.74,0,0,1,1.91-1.51,5.83,5.83,0,0,1,2.9-.21,6.93,6.93,0,0,1,2.87,1.08,5.76,5.76,0,0,1,1.9,2.09A6,6,0,0,1,12.82,172.39Zm-2.29-.34a2.09,2.09,0,0,0-.3-1.1,2.43,2.43,0,0,0-1-.88,5.87,5.87,0,0,0-1.83-.54,5,5,0,0,0-1.89,0,1.71,1.71,0,0,0-1,.56,1.62,1.62,0,0,0-.31,1,2.15,2.15,0,0,0,.72,1.58,4.8,4.8,0,0,0,2.51,1,5,5,0,0,0,1.83,0,1.59,1.59,0,0,0,1-.58A1.67,1.67,0,0,0,10.53,172.05Z" transform="translate(-1.89 -1.6)"/><path class="cls-2" d="M12.82,161.06a4.55,4.55,0,0,1-.68,2.55,3.8,3.8,0,0,1-1.92,1.48,5.7,5.7,0,0,1-2.83.19,7,7,0,0,1-2.89-1.12,5.88,5.88,0,0,1-2.61-5,4.67,4.67,0,0,1,.56-2.39,3.39,3.39,0,0,1,1.45-1.39,3.16,3.16,0,0,1,1.89-.29v3a2.13,2.13,0,0,0-.78.2,1.35,1.35,0,0,0-.55.48,1.57,1.57,0,0,0-.2.83,2.11,2.11,0,0,0,.28,1,2.49,2.49,0,0,0,1,.89,5.28,5.28,0,0,0,1.82.57,5,5,0,0,0,1.57,0,1.82,1.82,0,0,0,.92-.39,1.48,1.48,0,0,0,.43-.64,2.49,2.49,0,0,0,.11-.7,1.81,1.81,0,0,0-.09-.58,2.22,2.22,0,0,0-.23-.49A2.57,2.57,0,0,0,9.7,159a1.56,1.56,0,0,0-.36-.25L9,158.56v1.86L7,160.12l0-4.9,5.62.87V158l-1.18-.17c.18.2.37.45.58.73a4,4,0,0,1,.53,1A4.57,4.57,0,0,1,12.82,161.06Z" transform="translate(-1.89 -1.6)"/><path class="cls-2" d="M12.82,149.66a6.94,6.94,0,0,1-.19,1.64,4.33,4.33,0,0,1-.61,1.42,2.79,2.79,0,0,1-1,1,2.62,2.62,0,0,1-1.53.28v-3a1.15,1.15,0,0,0,.64-.22,1.32,1.32,0,0,0,.41-.56,2.42,2.42,0,0,0,.14-.86,4.14,4.14,0,0,0-.09-.87,1.86,1.86,0,0,0-.3-.7.86.86,0,0,0-.58-.35.49.49,0,0,0-.5.19,1.53,1.53,0,0,0-.27.63c-.07.26-.12.54-.17.84l-.28,1.61a2.88,2.88,0,0,1-1,1.88A2.71,2.71,0,0,1,5.3,153a3.3,3.3,0,0,1-1.83-.89,4.56,4.56,0,0,1-1.16-1.8,6.6,6.6,0,0,1-.4-2.31,4.9,4.9,0,0,1,.47-2.26,3.6,3.6,0,0,1,1.24-1.44,2.65,2.65,0,0,1,1.64-.46v2.92a1.08,1.08,0,0,0-.67.14,1,1,0,0,0-.36.51,2.64,2.64,0,0,0-.12.85,2.72,2.72,0,0,0,.13.9,1.36,1.36,0,0,0,.32.51.88.88,0,0,0,.39.19.67.67,0,0,0,.58-.16,1.67,1.67,0,0,0,.35-.88l.28-1.61a4.61,4.61,0,0,1,.61-1.75,2.35,2.35,0,0,1,.94-.83,2.81,2.81,0,0,1,1-.24,6.12,6.12,0,0,1,.91.06,2.8,2.8,0,0,1,1.62.85,5,5,0,0,1,1.13,1.85A7,7,0,0,1,12.82,149.66Z" transform="translate(-1.89 -1.6)"/><path class="cls-2" d="M9.48,137.88a2.16,2.16,0,0,1-.3,1.12,2.3,2.3,0,0,1-.8.81,2.16,2.16,0,0,1-1.12.3,2.09,2.09,0,0,1-1.1-.3,2.22,2.22,0,0,1-.8-.81,2.2,2.2,0,0,1,0-2.25,2.33,2.33,0,0,1,.8-.82,2.09,2.09,0,0,1,1.1-.3,2.16,2.16,0,0,1,1.12.3,2.41,2.41,0,0,1,.8.82A2.17,2.17,0,0,1,9.48,137.88Z" transform="translate(-1.89 -1.6)"/><path class="cls-2" d="M12.82,127.3a6.88,6.88,0,0,1-.19,1.64,4.39,4.39,0,0,1-.61,1.43,2.87,2.87,0,0,1-1,1,2.79,2.79,0,0,1-1.53.28v-3a1.15,1.15,0,0,0,.64-.23,1.26,1.26,0,0,0,.41-.56,2.36,2.36,0,0,0,.14-.85,4.14,4.14,0,0,0-.09-.87,1.91,1.91,0,0,0-.3-.71.85.85,0,0,0-.58-.34.47.47,0,0,0-.5.18,1.67,1.67,0,0,0-.27.63c-.07.26-.12.54-.17.84l-.28,1.61a2.85,2.85,0,0,1-1,1.88,2.71,2.71,0,0,1-2.15.47,3.28,3.28,0,0,1-1.83-.88A4.67,4.67,0,0,1,2.31,128a6.52,6.52,0,0,1-.4-2.31,4.93,4.93,0,0,1,.47-2.26A3.6,3.6,0,0,1,3.62,122a2.71,2.71,0,0,1,1.64-.46v2.92a1.15,1.15,0,0,0-.67.15.93.93,0,0,0-.36.51,2.6,2.6,0,0,0-.12.85,2.77,2.77,0,0,0,.13.9,1.31,1.31,0,0,0,.32.5.79.79,0,0,0,.39.19.7.7,0,0,0,.58-.15,1.72,1.72,0,0,0,.35-.89l.28-1.61a4.5,4.5,0,0,1,.61-1.74,2.38,2.38,0,0,1,.94-.84,2.61,2.61,0,0,1,1-.23,5.09,5.09,0,0,1,.91,0,2.85,2.85,0,0,1,1.62.85,5,5,0,0,1,1.13,1.85A7,7,0,0,1,12.82,127.3Z" transform="translate(-1.89 -1.6)"/><path class="cls-2" d="M12.68,121,2,119.33v-3l4.29.66L2,113.25V110l4.06,3.57,6.58-2.41v3.08L8.19,116l1.71,1.6,2.78.42Z" transform="translate(-1.89 -1.6)"/><path class="cls-2" d="M12.68,110.39,2,105V102l10.64-2.16v2.85l-2.06.38v3.38l2.06,1Zm-4.51-4.9v-2.11l-3.4.52Z" transform="translate(-1.89 -1.6)"/><path class="cls-2" d="M12.68,97.08,4.55,95.85v3L2,98.48v-9l2.51.38V93l8.13,1.25Z" transform="translate(-1.89 -1.6)"/><path class="cls-2" d="M12.68,89.77,2,88.13V85.25l8.28,1.27V82.25l2.36.36Z" transform="translate(-1.89 -1.6)"/><path class="cls-2" d="M12.82,76.72a4.89,4.89,0,0,1-.67,2.66,3.68,3.68,0,0,1-1.89,1.51,5.77,5.77,0,0,1-2.88.19A7.12,7.12,0,0,1,4.48,80a5.82,5.82,0,0,1-2.59-4.94,4.73,4.73,0,0,1,.68-2.61,3.76,3.76,0,0,1,1.91-1.52,5.84,5.84,0,0,1,2.9-.2,6.79,6.79,0,0,1,2.87,1.08,5.68,5.68,0,0,1,1.9,2.09A5.91,5.91,0,0,1,12.82,76.72Zm-2.29-.34a2.12,2.12,0,0,0-.3-1.1,2.43,2.43,0,0,0-1-.88,5.87,5.87,0,0,0-1.83-.54,5.25,5.25,0,0,0-1.89,0,1.67,1.67,0,0,0-1,.57,1.59,1.59,0,0,0-.31,1A2.15,2.15,0,0,0,4.91,77a4.8,4.8,0,0,0,2.51,1,5,5,0,0,0,1.83,0,1.55,1.55,0,0,0,1-.58A1.65,1.65,0,0,0,10.53,76.38Z" transform="translate(-1.89 -1.6)"/><path class="cls-2" d="M12.82,65.38a4.58,4.58,0,0,1-.68,2.56,3.84,3.84,0,0,1-1.92,1.47,5.59,5.59,0,0,1-2.83.19A6.89,6.89,0,0,1,4.5,68.48a5.88,5.88,0,0,1-2.61-5,4.7,4.7,0,0,1,.56-2.39A3.45,3.45,0,0,1,3.9,59.74a3.16,3.16,0,0,1,1.89-.29v3a2,2,0,0,0-.78.19,1.35,1.35,0,0,0-.55.48,1.59,1.59,0,0,0-.2.83,2.08,2.08,0,0,0,.28,1,2.42,2.42,0,0,0,1,.89,5.28,5.28,0,0,0,1.82.57,5,5,0,0,0,1.57,0,1.82,1.82,0,0,0,.92-.39,1.43,1.43,0,0,0,.43-.64,2.49,2.49,0,0,0,.11-.7,1.85,1.85,0,0,0-.09-.58A2.45,2.45,0,0,0,10,63.7a2.57,2.57,0,0,0-.32-.39,1.26,1.26,0,0,0-.36-.24L9,62.88v1.86L7,64.44l0-4.9,5.62.87V62.3l-1.18-.17c.18.21.37.45.58.73a4,4,0,0,1,.53,1A4.57,4.57,0,0,1,12.82,65.38Z" transform="translate(-1.89 -1.6)"/><path class="cls-2" d="M12.82,54a6.88,6.88,0,0,1-.19,1.64A4.39,4.39,0,0,1,12,57.05a2.87,2.87,0,0,1-1,1,2.79,2.79,0,0,1-1.53.28v-3a1.15,1.15,0,0,0,.64-.23,1.26,1.26,0,0,0,.41-.56,2.36,2.36,0,0,0,.14-.85,4.14,4.14,0,0,0-.09-.87,1.91,1.91,0,0,0-.3-.71.85.85,0,0,0-.58-.34.47.47,0,0,0-.5.18,1.67,1.67,0,0,0-.27.63c-.07.26-.12.54-.17.84L8.44,55a2.88,2.88,0,0,1-1,1.88,2.71,2.71,0,0,1-2.15.47,3.35,3.35,0,0,1-1.83-.88,4.67,4.67,0,0,1-1.16-1.81,6.52,6.52,0,0,1-.4-2.31,4.93,4.93,0,0,1,.47-2.26,3.6,3.6,0,0,1,1.24-1.44,2.71,2.71,0,0,1,1.64-.46v2.92a1.15,1.15,0,0,0-.67.15.93.93,0,0,0-.36.51,2.6,2.6,0,0,0-.12.85,2.77,2.77,0,0,0,.13.9,1.39,1.39,0,0,0,.32.5.79.79,0,0,0,.39.19.7.7,0,0,0,.58-.15,1.72,1.72,0,0,0,.35-.89l.28-1.61a4.5,4.5,0,0,1,.61-1.74A2.38,2.38,0,0,1,7.71,49a2.61,2.61,0,0,1,1-.23,5.09,5.09,0,0,1,.91.05,2.85,2.85,0,0,1,1.62.85,5,5,0,0,1,1.13,1.85A7,7,0,0,1,12.82,54Z" transform="translate(-1.89 -1.6)"/><path class="cls-2" d="M9.48,42.22a2.16,2.16,0,0,1-.3,1.12,2.41,2.41,0,0,1-.8.82,2.16,2.16,0,0,1-1.12.3,2.09,2.09,0,0,1-1.1-.3,2.33,2.33,0,0,1-.8-.82,2.2,2.2,0,0,1,0-2.25,2.33,2.33,0,0,1,.8-.82,2.09,2.09,0,0,1,1.1-.3,2.16,2.16,0,0,1,1.12.3,2.41,2.41,0,0,1,.8.82A2.17,2.17,0,0,1,9.48,42.22Z" transform="translate(-1.89 -1.6)"/><path class="cls-2" d="M12.9,32.15a7.25,7.25,0,0,1-.37,1.61,4.43,4.43,0,0,1-.76,1.35,2.91,2.91,0,0,1-1.15.85,2.77,2.77,0,0,1-1.56.11l.33-3a1.19,1.19,0,0,0,.66-.15,1.37,1.37,0,0,0,.47-.51,2.25,2.25,0,0,0,.23-.84,3.71,3.71,0,0,0,0-.88,1.84,1.84,0,0,0-.22-.73.85.85,0,0,0-.54-.4.49.49,0,0,0-.52.12,1.79,1.79,0,0,0-.34.6c-.09.25-.18.52-.26.81L8.43,32.7a2.93,2.93,0,0,1-1.19,1.76,2.69,2.69,0,0,1-2.18.23,3.25,3.25,0,0,1-1.73-1.08,4.7,4.7,0,0,1-1-1.92,6.52,6.52,0,0,1-.15-2.34,5.06,5.06,0,0,1,.72-2.2,3.63,3.63,0,0,1,1.39-1.29A2.67,2.67,0,0,1,6,25.58l-.32,2.91a1,1,0,0,0-.68.07,1,1,0,0,0-.42.46,2.59,2.59,0,0,0-.2.83,2.63,2.63,0,0,0,0,.91,1.24,1.24,0,0,0,.26.54.79.79,0,0,0,.37.23.66.66,0,0,0,.59-.09,1.67,1.67,0,0,0,.44-.84L6.54,29a4.4,4.4,0,0,1,.8-1.67,2.19,2.19,0,0,1,1-.72,2.6,2.6,0,0,1,1.06-.13,6.48,6.48,0,0,1,.9.15,2.91,2.91,0,0,1,1.52,1,5,5,0,0,1,.92,2A7.1,7.1,0,0,1,12.9,32.15Z" transform="translate(-1.89 -1.6)"/><path class="cls-2" d="M13.05,27.51,4.72,20.69l1.52-2.58,3.37,2.75-1.8-5.41,1.64-2.79,1.68,5.14L18,19.06l-1.57,2.66-4.73-.82.66,2.25,2.18,1.77Z" transform="translate(-1.89 -1.6)"/><path class="cls-2" d="M17.21,19.58,15.7,7.73l2.42-1.65,7.78,7.57-2.35,1.6-1.48-1.48-2.79,1.91.3,2.28Zm1.51-6.48,1.74-1.19L18.11,9.4Z" transform="translate(-1.89 -1.6)"/><path class="cls-2" d="M27.19,13.63l-.56-8.2-2.95.65-.16-2.54L32.28,1.6l.17,2.54-3,.66L30,13Z" transform="translate(-1.89 -1.6)"/><path class="cls-2" d="M33.41,12.68,35.05,2h2.88l-1.27,8.28h4.27l-.36,2.36Z" transform="translate(-1.89 -1.6)"/><path class="cls-2" d="M46.47,12.82a4.86,4.86,0,0,1-2.66-.67,3.68,3.68,0,0,1-1.51-1.89,5.87,5.87,0,0,1-.2-2.88,7.13,7.13,0,0,1,1.1-2.9,5.82,5.82,0,0,1,4.94-2.59,4.73,4.73,0,0,1,2.61.68,3.8,3.8,0,0,1,1.52,1.91,5.84,5.84,0,0,1,.2,2.9,6.93,6.93,0,0,1-1.08,2.87,5.76,5.76,0,0,1-2.09,1.9A5.91,5.91,0,0,1,46.47,12.82Zm.34-2.29a2.12,2.12,0,0,0,1.1-.3,2.35,2.35,0,0,0,.87-1,5.38,5.38,0,0,0,.54-1.83,5.29,5.29,0,0,0,0-1.89,1.67,1.67,0,0,0-.57-1,1.59,1.59,0,0,0-1-.31,2.11,2.11,0,0,0-1.58.73,4.73,4.73,0,0,0-1,2.5,5.07,5.07,0,0,0,0,1.83,1.64,1.64,0,0,0,.58,1A1.7,1.7,0,0,0,46.81,10.53Z" transform="translate(-1.89 -1.6)"/><path class="cls-2" d="M57.81,12.82a4.58,4.58,0,0,1-2.56-.68,3.73,3.73,0,0,1-1.47-1.92,5.59,5.59,0,0,1-.19-2.83A6.88,6.88,0,0,1,54.7,4.5a5.94,5.94,0,0,1,5-2.61,4.72,4.72,0,0,1,2.39.56A3.43,3.43,0,0,1,63.44,3.9a3.25,3.25,0,0,1,.3,1.89h-3A2.13,2.13,0,0,0,60.54,5a1.3,1.3,0,0,0-.49-.55,1.53,1.53,0,0,0-.82-.2,2.06,2.06,0,0,0-1,.28,2.51,2.51,0,0,0-.9,1,5.52,5.52,0,0,0-.56,1.82,4.7,4.7,0,0,0,0,1.57,1.91,1.91,0,0,0,.38.92,1.48,1.48,0,0,0,.64.43,2.56,2.56,0,0,0,.71.11,1.79,1.79,0,0,0,.57-.09,2.07,2.07,0,0,0,.89-.55,1.5,1.5,0,0,0,.24-.36L60.31,9H58.45L58.74,7l4.9,0-.86,5.62H60.89l.17-1.18c-.21.18-.45.38-.73.58a4.14,4.14,0,0,1-1,.53A4.61,4.61,0,0,1,57.81,12.82Z" transform="translate(-1.89 -1.6)"/><path class="cls-2" d="M69.21,12.82a6.88,6.88,0,0,1-1.64-.19A4.39,4.39,0,0,1,66.14,12a2.68,2.68,0,0,1-1.25-2.58h3a1.23,1.23,0,0,0,.22.64,1.39,1.39,0,0,0,.56.41,2.46,2.46,0,0,0,.86.14,4.14,4.14,0,0,0,.87-.09,1.94,1.94,0,0,0,.7-.29.88.88,0,0,0,.35-.59.5.5,0,0,0-.18-.5,1.67,1.67,0,0,0-.63-.27c-.27-.07-.55-.12-.84-.17l-1.62-.28a2.9,2.9,0,0,1-1.88-1,2.71,2.71,0,0,1-.46-2.15,3.28,3.28,0,0,1,.88-1.83,4.59,4.59,0,0,1,1.81-1.16,6.52,6.52,0,0,1,2.31-.4,4.93,4.93,0,0,1,2.26.47,3.6,3.6,0,0,1,1.44,1.24A2.78,2.78,0,0,1,75,5.26H72.06a1.08,1.08,0,0,0-.14-.67.93.93,0,0,0-.51-.36,2.6,2.6,0,0,0-.85-.12,2.77,2.77,0,0,0-.9.13,1.15,1.15,0,0,0-.5.33A.76.76,0,0,0,69,5a.64.64,0,0,0,.15.58,1.63,1.63,0,0,0,.88.35l1.62.28a4.5,4.5,0,0,1,1.74.61,2.28,2.28,0,0,1,.83.94,2.5,2.5,0,0,1,.24,1,5.09,5.09,0,0,1-.05.91,2.87,2.87,0,0,1-.86,1.62,4.9,4.9,0,0,1-1.84,1.13A7,7,0,0,1,69.21,12.82Z" transform="translate(-1.89 -1.6)"/><path class="cls-2" d="M81,9.48a2.16,2.16,0,0,1-1.12-.3,2.41,2.41,0,0,1-.82-.8,2.16,2.16,0,0,1-.3-1.12,2.09,2.09,0,0,1,.3-1.1,2.41,2.41,0,0,1,.82-.8,2.2,2.2,0,0,1,2.25,0,2.41,2.41,0,0,1,.82.8,2.09,2.09,0,0,1,.3,1.1A2.16,2.16,0,0,1,83,8.38a2.41,2.41,0,0,1-.82.8A2.17,2.17,0,0,1,81,9.48Z" transform="translate(-1.89 -1.6)"/><path class="cls-2" d="M91.55,12.82a6.88,6.88,0,0,1-1.64-.19A4.33,4.33,0,0,1,88.49,12a2.9,2.9,0,0,1-1-1,2.7,2.7,0,0,1-.27-1.53h3a1.15,1.15,0,0,0,.22.64,1.26,1.26,0,0,0,.56.41,2.4,2.4,0,0,0,.85.14,4,4,0,0,0,.87-.09,2,2,0,0,0,.71-.29.87.87,0,0,0,.34-.59.47.47,0,0,0-.18-.5A1.53,1.53,0,0,0,93,8.89c-.26-.07-.54-.12-.84-.17l-1.61-.28a2.88,2.88,0,0,1-1.88-1,2.71,2.71,0,0,1-.47-2.15,3.35,3.35,0,0,1,.88-1.83,4.67,4.67,0,0,1,1.81-1.16,6.6,6.6,0,0,1,2.31-.4,4.9,4.9,0,0,1,2.26.47,3.6,3.6,0,0,1,1.44,1.24,2.65,2.65,0,0,1,.46,1.64H94.41a1.08,1.08,0,0,0-.15-.67.93.93,0,0,0-.51-.36,2.53,2.53,0,0,0-.84-.12,2.68,2.68,0,0,0-.9.13,1.25,1.25,0,0,0-.51.33.85.85,0,0,0-.19.38.67.67,0,0,0,.16.58,1.59,1.59,0,0,0,.88.35L94,6.16a4.5,4.5,0,0,1,1.74.61,2.31,2.31,0,0,1,.84.94,2.85,2.85,0,0,1,.24,1,6.12,6.12,0,0,1-.06.91,2.85,2.85,0,0,1-.85,1.62A5,5,0,0,1,94,12.41,7,7,0,0,1,91.55,12.82Z" transform="translate(-1.89 -1.6)"/><path class="cls-2" d="M97.87,12.68,99.52,2h3l-.65,4.29L105.61,2h3.23L105.26,6.1l2.42,6.58h-3.09L102.9,8.19,101.3,9.9l-.43,2.78Z" transform="translate(-1.89 -1.6)"/><path class="cls-2" d="M108.49,12.68,113.92,2h2.93L119,12.68h-2.84l-.39-2.06H112.4l-1,2.06Zm4.9-4.51h2.11L115,4.78Z" transform="translate(-1.89 -1.6)"/><path class="cls-2" d="M121.8,12.68,123,4.55h-3L120.4,2h9L129,4.55h-3.07l-1.25,8.13Z" transform="translate(-1.89 -1.6)"/><path class="cls-2" d="M129.08,12.68,130.73,2h2.87l-1.26,8.28h4.27l-.37,2.36Z" transform="translate(-1.89 -1.6)"/><path class="cls-2" d="M142.13,12.82a4.85,4.85,0,0,1-2.65-.67A3.7,3.7,0,0,1,138,10.26a5.88,5.88,0,0,1-.19-2.88,7,7,0,0,1,1.1-2.9,5.82,5.82,0,0,1,4.94-2.59,4.78,4.78,0,0,1,2.61.68,3.78,3.78,0,0,1,1.51,1.91,5.72,5.72,0,0,1,.21,2.9,6.93,6.93,0,0,1-1.08,2.87,5.76,5.76,0,0,1-2.09,1.9A6,6,0,0,1,142.13,12.82Zm.34-2.29a2.15,2.15,0,0,0,1.11-.3,2.42,2.42,0,0,0,.87-1A5.38,5.38,0,0,0,145,7.42a5.29,5.29,0,0,0,0-1.89,1.77,1.77,0,0,0-.57-1,1.61,1.61,0,0,0-1-.31,2.11,2.11,0,0,0-1.58.73,4.65,4.65,0,0,0-1,2.5,4.85,4.85,0,0,0,0,1.83,1.59,1.59,0,0,0,.58,1A1.67,1.67,0,0,0,142.47,10.53Z" transform="translate(-1.89 -1.6)"/><path class="cls-2" d="M153.49,12.82a4.53,4.53,0,0,1-2.55-.68,3.8,3.8,0,0,1-1.48-1.92,5.7,5.7,0,0,1-.19-2.83,7,7,0,0,1,1.12-2.89,5.94,5.94,0,0,1,5-2.61,4.67,4.67,0,0,1,2.39.56,3.39,3.39,0,0,1,1.39,1.45,3.16,3.16,0,0,1,.29,1.89h-3a2.13,2.13,0,0,0-.2-.78,1.35,1.35,0,0,0-.48-.55,1.57,1.57,0,0,0-.83-.2,2.11,2.11,0,0,0-1,.28,2.49,2.49,0,0,0-.89,1,5.28,5.28,0,0,0-.57,1.82,5,5,0,0,0,0,1.57,1.82,1.82,0,0,0,.39.92,1.43,1.43,0,0,0,.64.43,2.49,2.49,0,0,0,.7.11,1.81,1.81,0,0,0,.58-.09,2.45,2.45,0,0,0,.49-.23,2.57,2.57,0,0,0,.39-.32,1.56,1.56,0,0,0,.25-.36L156,9h-1.86l.3-1.92,4.9,0-.87,5.62h-1.89l.17-1.18a8.47,8.47,0,0,1-.73.58,4,4,0,0,1-1,.53A4.57,4.57,0,0,1,153.49,12.82Z" transform="translate(-1.89 -1.6)"/><path class="cls-2" d="M164.87,12.82a6.88,6.88,0,0,1-1.64-.19A4.48,4.48,0,0,1,161.8,12a2.87,2.87,0,0,1-1-1,2.79,2.79,0,0,1-.28-1.53h3a1.15,1.15,0,0,0,.22.64,1.26,1.26,0,0,0,.56.41,2.4,2.4,0,0,0,.85.14,4,4,0,0,0,.87-.09,2,2,0,0,0,.71-.29.87.87,0,0,0,.34-.59.47.47,0,0,0-.18-.5,1.53,1.53,0,0,0-.63-.27c-.26-.07-.54-.12-.84-.17l-1.61-.28a2.88,2.88,0,0,1-1.88-1,2.71,2.71,0,0,1-.47-2.15,3.35,3.35,0,0,1,.88-1.83,4.67,4.67,0,0,1,1.81-1.16,6.52,6.52,0,0,1,2.31-.4,4.93,4.93,0,0,1,2.26.47,3.6,3.6,0,0,1,1.44,1.24,2.71,2.71,0,0,1,.46,1.64h-2.92a1.08,1.08,0,0,0-.15-.67.93.93,0,0,0-.51-.36,2.53,2.53,0,0,0-.84-.12,2.68,2.68,0,0,0-.9.13,1.25,1.25,0,0,0-.51.33.85.85,0,0,0-.19.38.67.67,0,0,0,.16.58,1.59,1.59,0,0,0,.88.35l1.61.28a4.5,4.5,0,0,1,1.74.61,2.31,2.31,0,0,1,.84.94,2.85,2.85,0,0,1,.24,1,6.12,6.12,0,0,1-.06.91,2.85,2.85,0,0,1-.85,1.62,5,5,0,0,1-1.85,1.13A7,7,0,0,1,164.87,12.82Z" transform="translate(-1.89 -1.6)"/><path class="cls-2" d="M176.68,9.48a2.17,2.17,0,0,1-1.13-.3,2.3,2.3,0,0,1-.81-.8,2.16,2.16,0,0,1-.3-1.12,2.09,2.09,0,0,1,.3-1.1,2.3,2.3,0,0,1,.81-.8,2.2,2.2,0,0,1,2.25,0,2.41,2.41,0,0,1,.82.8,2.09,2.09,0,0,1,.3,1.1,2.16,2.16,0,0,1-.3,1.12,2.41,2.41,0,0,1-.82.8A2.16,2.16,0,0,1,176.68,9.48Z" transform="translate(-1.89 -1.6)"/><path class="cls-2" d="M187.23,12.82a6.88,6.88,0,0,1-1.64-.19,4.48,4.48,0,0,1-1.43-.61,2.87,2.87,0,0,1-1-1,2.79,2.79,0,0,1-.28-1.53h3a1.07,1.07,0,0,0,.22.64,1.26,1.26,0,0,0,.56.41,2.36,2.36,0,0,0,.85.14,4,4,0,0,0,.87-.09,2,2,0,0,0,.71-.29.87.87,0,0,0,.34-.59.47.47,0,0,0-.18-.5,1.67,1.67,0,0,0-.63-.27c-.26-.07-.54-.12-.84-.17l-1.61-.28a2.88,2.88,0,0,1-1.88-1,2.71,2.71,0,0,1-.47-2.15,3.35,3.35,0,0,1,.88-1.83,4.67,4.67,0,0,1,1.81-1.16,6.52,6.52,0,0,1,2.31-.4,4.93,4.93,0,0,1,2.26.47,3.6,3.6,0,0,1,1.44,1.24A2.71,2.71,0,0,1,193,5.26h-2.92a1.15,1.15,0,0,0-.15-.67.93.93,0,0,0-.51-.36,2.6,2.6,0,0,0-.85-.12,2.77,2.77,0,0,0-.9.13,1.28,1.28,0,0,0-.5.33A.76.76,0,0,0,187,5a.7.7,0,0,0,.15.58,1.63,1.63,0,0,0,.89.35l1.61.28a4.5,4.5,0,0,1,1.74.61,2.38,2.38,0,0,1,.84.94,2.65,2.65,0,0,1,.23,1,5.09,5.09,0,0,1,0,.91,2.85,2.85,0,0,1-.85,1.62,5,5,0,0,1-1.85,1.13A7,7,0,0,1,187.23,12.82Z" transform="translate(-1.89 -1.6)"/><path class="cls-2" d="M193.53,12.68,195.17,2h3l-.66,4.29L201.26,2h3.23L200.92,6.1l2.41,6.58h-3.08l-1.7-4.49L197,9.9l-.42,2.78Z" transform="translate(-1.89 -1.6)"/><path class="cls-2" d="M204.15,12.68,209.58,2h2.93l2.16,10.64h-2.84l-.39-2.06h-3.38l-1,2.06ZM209,8.17h2.12l-.52-3.39Z" transform="translate(-1.89 -1.6)"/><path class="cls-2" d="M217.47,12.68l1.23-8.13h-3L216.07,2h9l-.38,2.51h-3.07l-1.25,8.13Z" transform="translate(-1.89 -1.6)"/><path class="cls-2" d="M224.75,12.68,226.39,2h2.88L228,10.32h4.27l-.36,2.36Z" transform="translate(-1.89 -1.6)"/><path class="cls-2" d="M237.8,12.82a4.85,4.85,0,0,1-2.65-.67,3.63,3.63,0,0,1-1.51-1.89,5.76,5.76,0,0,1-.2-2.88,7.13,7.13,0,0,1,1.1-2.9,5.82,5.82,0,0,1,4.94-2.59,4.78,4.78,0,0,1,2.61.68,3.78,3.78,0,0,1,1.51,1.91,5.72,5.72,0,0,1,.21,2.9,6.93,6.93,0,0,1-1.08,2.87,5.76,5.76,0,0,1-2.09,1.9A6,6,0,0,1,237.8,12.82Zm.35-2.29a2.14,2.14,0,0,0,1.1-.3,2.42,2.42,0,0,0,.87-1,5.38,5.38,0,0,0,.54-1.83,5.29,5.29,0,0,0,0-1.89,1.77,1.77,0,0,0-.57-1,1.61,1.61,0,0,0-1-.31,2.11,2.11,0,0,0-1.58.73,4.65,4.65,0,0,0-1,2.5,4.85,4.85,0,0,0,0,1.83,1.59,1.59,0,0,0,.58,1A1.68,1.68,0,0,0,238.15,10.53Z" transform="translate(-1.89 -1.6)"/><path class="cls-2" d="M249.15,12.82a4.53,4.53,0,0,1-2.55-.68,3.8,3.8,0,0,1-1.48-1.92,5.7,5.7,0,0,1-.19-2.83,7,7,0,0,1,1.12-2.89,5.94,5.94,0,0,1,5-2.61,4.67,4.67,0,0,1,2.39.56,3.39,3.39,0,0,1,1.39,1.45,3.16,3.16,0,0,1,.29,1.89h-3a2.13,2.13,0,0,0-.2-.78,1.35,1.35,0,0,0-.48-.55,1.57,1.57,0,0,0-.83-.2,2.11,2.11,0,0,0-1,.28,2.49,2.49,0,0,0-.89,1,5.28,5.28,0,0,0-.57,1.82,5,5,0,0,0,0,1.57,1.82,1.82,0,0,0,.39.92,1.43,1.43,0,0,0,.64.43,2.49,2.49,0,0,0,.7.11,1.81,1.81,0,0,0,.58-.09,2.22,2.22,0,0,0,.49-.23,2.57,2.57,0,0,0,.39-.32,1.56,1.56,0,0,0,.25-.36l.18-.39h-1.86l.3-1.92,4.9,0-.87,5.62h-1.89l.17-1.18a8.47,8.47,0,0,1-.73.58,4,4,0,0,1-1,.53A4.57,4.57,0,0,1,249.15,12.82Z" transform="translate(-1.89 -1.6)"/><path class="cls-2" d="M260.54,12.82a6.88,6.88,0,0,1-1.64-.19,4.48,4.48,0,0,1-1.43-.61,2.87,2.87,0,0,1-1-1,2.79,2.79,0,0,1-.28-1.53h3a1.15,1.15,0,0,0,.23.64,1.26,1.26,0,0,0,.56.41,2.36,2.36,0,0,0,.85.14,4.14,4.14,0,0,0,.87-.09,2.08,2.08,0,0,0,.71-.29.87.87,0,0,0,.34-.59.47.47,0,0,0-.18-.5,1.67,1.67,0,0,0-.63-.27c-.26-.07-.54-.12-.84-.17l-1.62-.28a2.88,2.88,0,0,1-1.87-1,2.71,2.71,0,0,1-.47-2.15A3.35,3.35,0,0,1,258,3.47a4.67,4.67,0,0,1,1.81-1.16,6.52,6.52,0,0,1,2.31-.4,4.93,4.93,0,0,1,2.26.47,3.6,3.6,0,0,1,1.44,1.24,2.71,2.71,0,0,1,.46,1.64H263.4a1.15,1.15,0,0,0-.15-.67.93.93,0,0,0-.51-.36,2.6,2.6,0,0,0-.85-.12,2.77,2.77,0,0,0-.9.13,1.28,1.28,0,0,0-.5.33.76.76,0,0,0-.19.38.7.7,0,0,0,.15.58,1.63,1.63,0,0,0,.89.35l1.61.28a4.5,4.5,0,0,1,1.74.61,2.38,2.38,0,0,1,.84.94,2.65,2.65,0,0,1,.23,1,5.09,5.09,0,0,1-.05.91,2.85,2.85,0,0,1-.85,1.62A5,5,0,0,1,263,12.41,7,7,0,0,1,260.54,12.82Z" transform="translate(-1.89 -1.6)"/><path class="cls-2" d="M272.33,9.48a2.16,2.16,0,0,1-1.12-.3,2.3,2.3,0,0,1-.81-.8,2.08,2.08,0,0,1-.31-1.12,2,2,0,0,1,.31-1.1,2.3,2.3,0,0,1,.81-.8,2.2,2.2,0,0,1,2.25,0,2.41,2.41,0,0,1,.82.8,2.09,2.09,0,0,1,.3,1.1,2.16,2.16,0,0,1-.3,1.12,2.41,2.41,0,0,1-.82.8A2.17,2.17,0,0,1,272.33,9.48Z" transform="translate(-1.89 -1.6)"/><path class="cls-2" d="M282.88,12.82a6.88,6.88,0,0,1-1.64-.19,4.33,4.33,0,0,1-1.42-.61,2.9,2.9,0,0,1-1-1,2.7,2.7,0,0,1-.27-1.53h3a1.15,1.15,0,0,0,.22.64,1.26,1.26,0,0,0,.56.41,2.4,2.4,0,0,0,.85.14,4,4,0,0,0,.87-.09,2,2,0,0,0,.71-.29.87.87,0,0,0,.34-.59.47.47,0,0,0-.18-.5,1.53,1.53,0,0,0-.63-.27c-.26-.07-.54-.12-.84-.17l-1.61-.28a2.88,2.88,0,0,1-1.88-1,2.71,2.71,0,0,1-.47-2.15,3.35,3.35,0,0,1,.88-1.83,4.67,4.67,0,0,1,1.81-1.16,6.6,6.6,0,0,1,2.31-.4,4.9,4.9,0,0,1,2.26.47,3.6,3.6,0,0,1,1.44,1.24,2.65,2.65,0,0,1,.46,1.64h-2.92a1.08,1.08,0,0,0-.15-.67.93.93,0,0,0-.51-.36,2.53,2.53,0,0,0-.84-.12,2.68,2.68,0,0,0-.9.13,1.25,1.25,0,0,0-.51.33.85.85,0,0,0-.19.38.67.67,0,0,0,.16.58,1.59,1.59,0,0,0,.88.35l1.61.28a4.5,4.5,0,0,1,1.74.61,2.31,2.31,0,0,1,.84.94,2.85,2.85,0,0,1,.24,1,6.12,6.12,0,0,1-.06.91,2.85,2.85,0,0,1-.85,1.62,5,5,0,0,1-1.85,1.13A7,7,0,0,1,282.88,12.82Z" transform="translate(-1.89 -1.6)"/><path class="cls-2" d="M289.2,12.68,290.84,2h3l-.65,4.29L296.93,2h3.23L296.59,6.1,299,12.68h-3.08l-1.7-4.49-1.6,1.71-.43,2.78Z" transform="translate(-1.89 -1.6)"/><path class="cls-2" d="M299.82,12.68,305.25,2h2.93l2.16,10.64H307.5l-.39-2.06h-3.38l-1,2.06Zm4.9-4.51h2.11l-.52-3.39Z" transform="translate(-1.89 -1.6)"/><path class="cls-2" d="M313.12,12.68l1.23-8.13h-3L311.72,2h9l-.38,2.51h-3.07L316,12.68Z" transform="translate(-1.89 -1.6)"/><path class="cls-2" d="M320.42,12.68,322.07,2h2.87l-1.26,8.28H328l-.37,2.36Z" transform="translate(-1.89 -1.6)"/><path class="cls-2" d="M333.47,12.82a4.85,4.85,0,0,1-2.65-.67,3.63,3.63,0,0,1-1.51-1.89,5.76,5.76,0,0,1-.2-2.88,7.13,7.13,0,0,1,1.1-2.9,5.82,5.82,0,0,1,4.94-2.59,4.73,4.73,0,0,1,2.61.68,3.8,3.8,0,0,1,1.52,1.91,5.84,5.84,0,0,1,.2,2.9,6.93,6.93,0,0,1-1.08,2.87,5.76,5.76,0,0,1-2.09,1.9A5.92,5.92,0,0,1,333.47,12.82Zm.35-2.29a2.14,2.14,0,0,0,1.1-.3,2.35,2.35,0,0,0,.87-1,5.38,5.38,0,0,0,.54-1.83,5.29,5.29,0,0,0,0-1.89,1.67,1.67,0,0,0-.57-1,1.61,1.61,0,0,0-1-.31,2.11,2.11,0,0,0-1.58.73,4.65,4.65,0,0,0-1,2.5,4.85,4.85,0,0,0,0,1.83,1.59,1.59,0,0,0,.58,1A1.68,1.68,0,0,0,333.82,10.53Z" transform="translate(-1.89 -1.6)"/><path class="cls-2" d="M344.81,12.82a4.58,4.58,0,0,1-2.56-.68,3.79,3.79,0,0,1-1.47-1.92,5.59,5.59,0,0,1-.19-2.83,6.89,6.89,0,0,1,1.12-2.89,5.94,5.94,0,0,1,5-2.61,4.7,4.7,0,0,1,2.39.56,3.45,3.45,0,0,1,1.39,1.45,3.16,3.16,0,0,1,.29,1.89h-3a2.13,2.13,0,0,0-.19-.78,1.35,1.35,0,0,0-.48-.55,1.59,1.59,0,0,0-.83-.2,2.08,2.08,0,0,0-1,.28,2.42,2.42,0,0,0-.89,1,5.28,5.28,0,0,0-.57,1.82,5,5,0,0,0,0,1.57,1.82,1.82,0,0,0,.39.92,1.43,1.43,0,0,0,.64.43,2.49,2.49,0,0,0,.7.11,1.85,1.85,0,0,0,.58-.09,2.45,2.45,0,0,0,.49-.23,2.57,2.57,0,0,0,.39-.32,1.26,1.26,0,0,0,.24-.36l.19-.39h-1.86l.3-1.92,4.89,0-.86,5.62h-1.89l.17-1.18c-.21.18-.45.38-.73.58a4,4,0,0,1-1,.53A4.57,4.57,0,0,1,344.81,12.82Z" transform="translate(-1.89 -1.6)"/><path class="cls-2" d="M356.2,12.82a6.88,6.88,0,0,1-1.64-.19,4.48,4.48,0,0,1-1.43-.61,2.87,2.87,0,0,1-1-1,2.79,2.79,0,0,1-.28-1.53h3a1.15,1.15,0,0,0,.22.64,1.26,1.26,0,0,0,.56.41,2.4,2.4,0,0,0,.85.14,4,4,0,0,0,.87-.09,2,2,0,0,0,.71-.29.87.87,0,0,0,.34-.59.47.47,0,0,0-.18-.5,1.53,1.53,0,0,0-.63-.27c-.26-.07-.54-.12-.84-.17l-1.61-.28a2.88,2.88,0,0,1-1.88-1,2.71,2.71,0,0,1-.47-2.15,3.35,3.35,0,0,1,.88-1.83,4.67,4.67,0,0,1,1.81-1.16,6.52,6.52,0,0,1,2.31-.4,4.93,4.93,0,0,1,2.26.47,3.6,3.6,0,0,1,1.44,1.24A2.71,2.71,0,0,1,362,5.26h-2.92a1.08,1.08,0,0,0-.15-.67.93.93,0,0,0-.51-.36,2.53,2.53,0,0,0-.84-.12,2.68,2.68,0,0,0-.9.13,1.25,1.25,0,0,0-.51.33A.85.85,0,0,0,356,5a.67.67,0,0,0,.16.58,1.59,1.59,0,0,0,.88.35l1.61.28a4.5,4.5,0,0,1,1.74.61,2.31,2.31,0,0,1,.84.94,2.85,2.85,0,0,1,.24,1,6.12,6.12,0,0,1-.06.91,2.85,2.85,0,0,1-.85,1.62,5,5,0,0,1-1.85,1.13A7,7,0,0,1,356.2,12.82Z" transform="translate(-1.89 -1.6)"/><path class="cls-2" d="M368,9.48a2.2,2.2,0,0,1-1.13-.3,2.3,2.3,0,0,1-.81-.8,2.16,2.16,0,0,1-.3-1.12,2.09,2.09,0,0,1,.3-1.1,2.3,2.3,0,0,1,.81-.8,2.21,2.21,0,0,1,2.26,0,2.3,2.3,0,0,1,.81.8,2,2,0,0,1,.31,1.1,2.08,2.08,0,0,1-.31,1.12,2.3,2.3,0,0,1-.81.8A2.2,2.2,0,0,1,368,9.48Z" transform="translate(-1.89 -1.6)"/><path class="cls-2" d="M378.56,12.82a6.88,6.88,0,0,1-1.64-.19,4.48,4.48,0,0,1-1.43-.61,2.87,2.87,0,0,1-1-1,2.79,2.79,0,0,1-.28-1.53h3a1.15,1.15,0,0,0,.23.64,1.26,1.26,0,0,0,.56.41,2.36,2.36,0,0,0,.85.14,4.14,4.14,0,0,0,.87-.09,2.08,2.08,0,0,0,.71-.29.87.87,0,0,0,.34-.59.47.47,0,0,0-.18-.5,1.67,1.67,0,0,0-.63-.27c-.26-.07-.54-.12-.84-.17l-1.62-.28a2.88,2.88,0,0,1-1.87-1,2.71,2.71,0,0,1-.47-2.15,3.35,3.35,0,0,1,.88-1.83,4.67,4.67,0,0,1,1.81-1.16,6.52,6.52,0,0,1,2.31-.4,4.93,4.93,0,0,1,2.26.47,3.6,3.6,0,0,1,1.44,1.24,2.71,2.71,0,0,1,.46,1.64h-2.92a1.15,1.15,0,0,0-.15-.67.93.93,0,0,0-.51-.36,2.6,2.6,0,0,0-.85-.12,2.77,2.77,0,0,0-.9.13,1.28,1.28,0,0,0-.5.33.76.76,0,0,0-.19.38.7.7,0,0,0,.15.58,1.63,1.63,0,0,0,.89.35l1.61.28a4.5,4.5,0,0,1,1.74.61,2.38,2.38,0,0,1,.84.94,2.65,2.65,0,0,1,.23,1,5.09,5.09,0,0,1,0,.91,2.85,2.85,0,0,1-.85,1.62A5,5,0,0,1,381,12.41,7,7,0,0,1,378.56,12.82Z" transform="translate(-1.89 -1.6)"/><path class="cls-2" d="M384.88,12.68,386.52,2h3l-.65,4.29L392.61,2h3.23L392.27,6.1l2.41,6.58H391.6l-1.7-4.49L388.3,9.9l-.43,2.78Z" transform="translate(-1.89 -1.6)"/><path class="cls-2" d="M395.49,12.68,400.92,2h2.93L406,12.68h-2.84l-.39-2.06H399.4l-1,2.06Zm4.9-4.51h2.11L402,4.78Z" transform="translate(-1.89 -1.6)"/><path class="cls-2" d="M408.79,12.68,410,4.55h-3L407.39,2h9L416,4.55h-3.07l-1.25,8.13Z" transform="translate(-1.89 -1.6)"/><path class="cls-2" d="M416.08,12.68,417.72,2h2.87l-1.26,8.28h4.27l-.36,2.36Z" transform="translate(-1.89 -1.6)"/><path class="cls-2" d="M429.13,12.82a4.86,4.86,0,0,1-2.66-.67A3.68,3.68,0,0,1,425,10.26a5.77,5.77,0,0,1-.19-2.88,7,7,0,0,1,1.09-2.9,5.82,5.82,0,0,1,4.94-2.59,4.73,4.73,0,0,1,2.61.68,3.8,3.8,0,0,1,1.52,1.91,5.84,5.84,0,0,1,.2,2.9,6.93,6.93,0,0,1-1.08,2.87,5.76,5.76,0,0,1-2.09,1.9A5.91,5.91,0,0,1,429.13,12.82Zm.34-2.29a2.12,2.12,0,0,0,1.1-.3,2.35,2.35,0,0,0,.87-1A5.38,5.38,0,0,0,432,7.42a5.29,5.29,0,0,0,0-1.89,1.67,1.67,0,0,0-.57-1,1.59,1.59,0,0,0-1-.31,2.11,2.11,0,0,0-1.58.73,4.73,4.73,0,0,0-1,2.5,5.07,5.07,0,0,0,0,1.83,1.64,1.64,0,0,0,.58,1A1.7,1.7,0,0,0,429.47,10.53Z" transform="translate(-1.89 -1.6)"/><path class="cls-2" d="M440.48,12.82a4.58,4.58,0,0,1-2.56-.68,3.79,3.79,0,0,1-1.47-1.92,5.59,5.59,0,0,1-.19-2.83,6.89,6.89,0,0,1,1.12-2.89,5.94,5.94,0,0,1,5-2.61,4.7,4.7,0,0,1,2.39.56,3.45,3.45,0,0,1,1.39,1.45,3.16,3.16,0,0,1,.29,1.89h-3a2.13,2.13,0,0,0-.19-.78,1.35,1.35,0,0,0-.48-.55,1.59,1.59,0,0,0-.83-.2,2.08,2.08,0,0,0-1,.28,2.42,2.42,0,0,0-.89,1,5.28,5.28,0,0,0-.57,1.82,5,5,0,0,0,0,1.57,1.82,1.82,0,0,0,.39.92,1.43,1.43,0,0,0,.64.43,2.49,2.49,0,0,0,.7.11,1.85,1.85,0,0,0,.58-.09,2.45,2.45,0,0,0,.49-.23,2.57,2.57,0,0,0,.39-.32,1.26,1.26,0,0,0,.24-.36L443,9h-1.86l.3-1.92,4.89,0-.86,5.62h-1.89l.17-1.18c-.21.18-.45.38-.73.58a4,4,0,0,1-1,.53A4.57,4.57,0,0,1,440.48,12.82Z" transform="translate(-1.89 -1.6)"/><path class="cls-2" d="M451.86,12.82a6.88,6.88,0,0,1-1.64-.19A4.33,4.33,0,0,1,448.8,12a2.9,2.9,0,0,1-1-1,2.7,2.7,0,0,1-.27-1.53h3a1.15,1.15,0,0,0,.22.64,1.26,1.26,0,0,0,.56.41,2.4,2.4,0,0,0,.85.14,4,4,0,0,0,.87-.09,2,2,0,0,0,.71-.29.87.87,0,0,0,.34-.59.47.47,0,0,0-.18-.5,1.53,1.53,0,0,0-.63-.27c-.26-.07-.54-.12-.84-.17l-1.61-.28a2.88,2.88,0,0,1-1.88-1,2.71,2.71,0,0,1-.47-2.15,3.35,3.35,0,0,1,.88-1.83,4.67,4.67,0,0,1,1.81-1.16,6.6,6.6,0,0,1,2.31-.4,4.9,4.9,0,0,1,2.26.47,3.6,3.6,0,0,1,1.44,1.24,2.65,2.65,0,0,1,.46,1.64h-2.92a1.08,1.08,0,0,0-.15-.67.93.93,0,0,0-.51-.36,2.53,2.53,0,0,0-.84-.12,2.68,2.68,0,0,0-.9.13,1.25,1.25,0,0,0-.51.33.85.85,0,0,0-.19.38.67.67,0,0,0,.16.58,1.59,1.59,0,0,0,.88.35l1.61.28a4.5,4.5,0,0,1,1.74.61,2.31,2.31,0,0,1,.84.94,2.85,2.85,0,0,1,.24,1,6.12,6.12,0,0,1-.06.91,2.85,2.85,0,0,1-.85,1.62,5,5,0,0,1-1.85,1.13A7,7,0,0,1,451.86,12.82Z" transform="translate(-1.89 -1.6)"/><path class="cls-2" d="M463.65,9.48a2.16,2.16,0,0,1-1.12-.3,2.3,2.3,0,0,1-.81-.8,2.17,2.17,0,0,1-.31-1.12,2.1,2.1,0,0,1,.31-1.1,2.3,2.3,0,0,1,.81-.8,2.2,2.2,0,0,1,2.25,0,2.41,2.41,0,0,1,.82.8,2.09,2.09,0,0,1,.3,1.1,2.16,2.16,0,0,1-.3,1.12,2.41,2.41,0,0,1-.82.8A2.17,2.17,0,0,1,463.65,9.48Z" transform="translate(-1.89 -1.6)"/><path class="cls-2" d="M474.21,12.82a6.88,6.88,0,0,1-1.64-.19,4.39,4.39,0,0,1-1.43-.61,2.68,2.68,0,0,1-1.25-2.58h3a1.23,1.23,0,0,0,.22.64,1.39,1.39,0,0,0,.56.41,2.46,2.46,0,0,0,.86.14,4.14,4.14,0,0,0,.87-.09,1.94,1.94,0,0,0,.7-.29.88.88,0,0,0,.35-.59.5.5,0,0,0-.18-.5,1.67,1.67,0,0,0-.63-.27c-.27-.07-.55-.12-.84-.17l-1.62-.28a2.9,2.9,0,0,1-1.88-1,2.71,2.71,0,0,1-.46-2.15,3.28,3.28,0,0,1,.88-1.83,4.59,4.59,0,0,1,1.81-1.16,6.52,6.52,0,0,1,2.31-.4,4.93,4.93,0,0,1,2.26.47,3.6,3.6,0,0,1,1.44,1.24A2.78,2.78,0,0,1,480,5.26h-2.93a1.08,1.08,0,0,0-.14-.67.93.93,0,0,0-.51-.36,2.6,2.6,0,0,0-.85-.12,2.77,2.77,0,0,0-.9.13,1.15,1.15,0,0,0-.5.33A.76.76,0,0,0,474,5a.64.64,0,0,0,.15.58,1.63,1.63,0,0,0,.88.35l1.62.28a4.5,4.5,0,0,1,1.74.61,2.28,2.28,0,0,1,.83.94,2.5,2.5,0,0,1,.24,1,5.09,5.09,0,0,1-.05.91,2.87,2.87,0,0,1-.86,1.62,4.9,4.9,0,0,1-1.84,1.13A7,7,0,0,1,474.21,12.82Z" transform="translate(-1.89 -1.6)"/><path class="cls-2" d="M480.53,12.68,482.18,2h3l-.65,4.29L488.27,2h3.23L487.92,6.1l2.42,6.58h-3.09l-1.69-4.49L484,9.9l-.43,2.78Z" transform="translate(-1.89 -1.6)"/><path class="cls-2" d="M491.14,12.68,496.57,2h2.94l2.15,10.64h-2.84l-.39-2.06h-3.37L494,12.68ZM496,8.17h2.11l-.52-3.39Z" transform="translate(-1.89 -1.6)"/><path class="cls-2" d="M504.47,12.68l1.23-8.13h-3L503.07,2h9l-.38,2.51h-3.07l-1.25,8.13Z" transform="translate(-1.89 -1.6)"/><path class="cls-2" d="M511.75,12.68,513.39,2h2.88L515,10.32h4.27l-.36,2.36Z" transform="translate(-1.89 -1.6)"/><path class="cls-2" d="M524.8,12.82a4.83,4.83,0,0,1-2.65-.67,3.7,3.7,0,0,1-1.52-1.89,5.88,5.88,0,0,1-.19-2.88,7,7,0,0,1,1.1-2.9,5.82,5.82,0,0,1,4.94-2.59,4.78,4.78,0,0,1,2.61.68,3.78,3.78,0,0,1,1.51,1.91,5.72,5.72,0,0,1,.21,2.9,6.93,6.93,0,0,1-1.08,2.87,5.76,5.76,0,0,1-2.09,1.9A6,6,0,0,1,524.8,12.82Zm.34-2.29a2.15,2.15,0,0,0,1.11-.3,2.42,2.42,0,0,0,.87-1,5.38,5.38,0,0,0,.54-1.83,5.29,5.29,0,0,0,0-1.89,1.77,1.77,0,0,0-.57-1,1.61,1.61,0,0,0-1-.31,2.11,2.11,0,0,0-1.58.73,4.65,4.65,0,0,0-1,2.5,4.85,4.85,0,0,0,0,1.83,1.59,1.59,0,0,0,.58,1A1.67,1.67,0,0,0,525.14,10.53Z" transform="translate(-1.89 -1.6)"/><path class="cls-2" d="M536.14,12.82a4.55,4.55,0,0,1-2.55-.68,3.8,3.8,0,0,1-1.48-1.92,5.7,5.7,0,0,1-.19-2.83A7,7,0,0,1,533,4.5a5.94,5.94,0,0,1,5-2.61,4.67,4.67,0,0,1,2.39.56,3.39,3.39,0,0,1,1.39,1.45,3.16,3.16,0,0,1,.29,1.89h-3a2.13,2.13,0,0,0-.2-.78,1.28,1.28,0,0,0-.48-.55,1.57,1.57,0,0,0-.83-.2,2.11,2.11,0,0,0-1,.28,2.57,2.57,0,0,0-.89,1,5.28,5.28,0,0,0-.57,1.82,5,5,0,0,0,0,1.57,1.91,1.91,0,0,0,.39.92,1.48,1.48,0,0,0,.64.43,2.54,2.54,0,0,0,.7.11,1.81,1.81,0,0,0,.58-.09,2.54,2.54,0,0,0,.5-.23,3.05,3.05,0,0,0,.38-.32,1.56,1.56,0,0,0,.25-.36l.18-.39h-1.86l.3-1.92,4.9,0-.87,5.62h-1.89l.18-1.18c-.21.18-.46.38-.74.58a4.07,4.07,0,0,1-1,.53A4.68,4.68,0,0,1,536.14,12.82Z" transform="translate(-1.89 -1.6)"/><path class="cls-2" d="M547.54,12.82a6.94,6.94,0,0,1-1.64-.19,4.33,4.33,0,0,1-1.42-.61,2.79,2.79,0,0,1-1-1,2.7,2.7,0,0,1-.28-1.53h3a1.15,1.15,0,0,0,.22.64,1.32,1.32,0,0,0,.56.41,2.42,2.42,0,0,0,.86.14,4.14,4.14,0,0,0,.87-.09,2,2,0,0,0,.7-.29.88.88,0,0,0,.35-.59.49.49,0,0,0-.19-.5,1.55,1.55,0,0,0-.62-.27c-.27-.07-.55-.12-.85-.17l-1.61-.28a2.9,2.9,0,0,1-1.88-1,2.71,2.71,0,0,1-.46-2.15,3.22,3.22,0,0,1,.88-1.83,4.52,4.52,0,0,1,1.81-1.16,6.52,6.52,0,0,1,2.31-.4,4.89,4.89,0,0,1,2.25.47,3.7,3.7,0,0,1,1.45,1.24,2.78,2.78,0,0,1,.46,1.64H550.4a1.08,1.08,0,0,0-.14-.67.93.93,0,0,0-.51-.36,2.6,2.6,0,0,0-.85-.12,2.77,2.77,0,0,0-.9.13,1.15,1.15,0,0,0-.5.33.76.76,0,0,0-.19.38.64.64,0,0,0,.15.58,1.59,1.59,0,0,0,.88.35l1.62.28a4.62,4.62,0,0,1,1.74.61,2.28,2.28,0,0,1,.83.94,2.85,2.85,0,0,1,.24,1,6.23,6.23,0,0,1,0,.91,2.87,2.87,0,0,1-.86,1.62A5,5,0,0,1,550,12.41,7,7,0,0,1,547.54,12.82Z" transform="translate(-1.89 -1.6)"/><path class="cls-2" d="M559.32,9.48a2.2,2.2,0,0,1-1.13-.3,2.3,2.3,0,0,1-.81-.8,2.16,2.16,0,0,1-.3-1.12,2.09,2.09,0,0,1,.3-1.1,2.3,2.3,0,0,1,.81-.8,2.21,2.21,0,0,1,2.26,0,2.3,2.3,0,0,1,.81.8,2,2,0,0,1,.31,1.1,2.08,2.08,0,0,1-.31,1.12,2.3,2.3,0,0,1-.81.8A2.2,2.2,0,0,1,559.32,9.48Z" transform="translate(-1.89 -1.6)"/><path class="cls-2" d="M569.88,12.82a6.88,6.88,0,0,1-1.64-.19,4.39,4.39,0,0,1-1.43-.61,2.87,2.87,0,0,1-1-1,2.79,2.79,0,0,1-.28-1.53h3a1.15,1.15,0,0,0,.23.64,1.29,1.29,0,0,0,.55.41,2.46,2.46,0,0,0,.86.14,4.14,4.14,0,0,0,.87-.09,2.08,2.08,0,0,0,.71-.29.87.87,0,0,0,.34-.59.48.48,0,0,0-.18-.5,1.67,1.67,0,0,0-.63-.27c-.26-.07-.54-.12-.84-.17l-1.62-.28a2.9,2.9,0,0,1-1.88-1,2.75,2.75,0,0,1-.46-2.15,3.28,3.28,0,0,1,.88-1.83,4.67,4.67,0,0,1,1.81-1.16,6.52,6.52,0,0,1,2.31-.4,4.93,4.93,0,0,1,2.26.47,3.6,3.6,0,0,1,1.44,1.24,2.71,2.71,0,0,1,.46,1.64h-2.92a1.15,1.15,0,0,0-.15-.67.93.93,0,0,0-.51-.36,2.6,2.6,0,0,0-.85-.12,2.77,2.77,0,0,0-.9.13,1.21,1.21,0,0,0-.5.33.76.76,0,0,0-.19.38.7.7,0,0,0,.15.58,1.63,1.63,0,0,0,.88.35l1.62.28a4.5,4.5,0,0,1,1.74.61,2.28,2.28,0,0,1,.83.94,2.5,2.5,0,0,1,.24,1,5.09,5.09,0,0,1-.05.91,2.81,2.81,0,0,1-.86,1.62,4.9,4.9,0,0,1-1.84,1.13A7,7,0,0,1,569.88,12.82Z" transform="translate(-1.89 -1.6)"/><path class="cls-2" d="M576.2,12.68,577.84,2h3l-.66,4.29L583.93,2h3.23L583.59,6.1,586,12.68h-3.08l-1.7-4.49-1.6,1.71-.42,2.78Z" transform="translate(-1.89 -1.6)"/><path class="cls-2" d="M586.81,12.68,592.24,2h2.93l2.16,10.64h-2.84l-.39-2.06h-3.38l-1,2.06Zm4.89-4.51h2.12l-.52-3.39Z" transform="translate(-1.89 -1.6)"/><path class="cls-2" d="M600.15,12.68l1.23-8.13h-3L598.75,2h9l-.38,2.51h-3.07L603,12.68Z" transform="translate(-1.89 -1.6)"/><path class="cls-2" d="M607.43,12.68,609.08,2H612l-1.26,8.28H615l-.37,2.36Z" transform="translate(-1.89 -1.6)"/><path class="cls-2" d="M620.46,12.82a4.89,4.89,0,0,1-2.66-.67,3.73,3.73,0,0,1-1.51-1.89,5.88,5.88,0,0,1-.19-2.88,7,7,0,0,1,1.1-2.9,5.82,5.82,0,0,1,4.94-2.59,4.78,4.78,0,0,1,2.61.68,3.78,3.78,0,0,1,1.51,1.91,5.72,5.72,0,0,1,.21,2.9,6.93,6.93,0,0,1-1.08,2.87,5.76,5.76,0,0,1-2.09,1.9A6,6,0,0,1,620.46,12.82Zm.34-2.29a2.15,2.15,0,0,0,1.11-.3,2.49,2.49,0,0,0,.87-1,5.38,5.38,0,0,0,.54-1.83,5.29,5.29,0,0,0,0-1.89,1.77,1.77,0,0,0-.57-1,1.61,1.61,0,0,0-1-.31,2.15,2.15,0,0,0-1.59.73,4.65,4.65,0,0,0-1,2.5,4.85,4.85,0,0,0,0,1.83,1.59,1.59,0,0,0,.58,1A1.67,1.67,0,0,0,620.8,10.53Z" transform="translate(-1.89 -1.6)"/><path class="cls-2" d="M631.81,12.82a4.58,4.58,0,0,1-2.56-.68,3.73,3.73,0,0,1-1.47-1.92,5.59,5.59,0,0,1-.19-2.83,6.76,6.76,0,0,1,1.12-2.89,5.91,5.91,0,0,1,5-2.61,4.7,4.7,0,0,1,2.39.56,3.45,3.45,0,0,1,1.39,1.45,3.24,3.24,0,0,1,.29,1.89h-3a2.13,2.13,0,0,0-.19-.78,1.35,1.35,0,0,0-.48-.55,1.59,1.59,0,0,0-.83-.2,2.06,2.06,0,0,0-1,.28,2.51,2.51,0,0,0-.9,1,5.52,5.52,0,0,0-.56,1.82,5,5,0,0,0,0,1.57,1.82,1.82,0,0,0,.39.92,1.38,1.38,0,0,0,.64.43,2.49,2.49,0,0,0,.7.11,1.9,1.9,0,0,0,.58-.09,2.45,2.45,0,0,0,.49-.23,2.57,2.57,0,0,0,.39-.32,1.26,1.26,0,0,0,.24-.36l.19-.39h-1.86l.3-1.92,4.89,0-.86,5.62h-1.89l.17-1.18c-.21.18-.45.38-.73.58a4.14,4.14,0,0,1-1,.53A4.57,4.57,0,0,1,631.81,12.82Z" transform="translate(-1.89 -1.6)"/><path class="cls-2" d="M643.21,12.82a6.88,6.88,0,0,1-1.64-.19,4.48,4.48,0,0,1-1.43-.61,2.87,2.87,0,0,1-1-1,2.79,2.79,0,0,1-.28-1.53h3a1.07,1.07,0,0,0,.22.64,1.26,1.26,0,0,0,.56.41,2.36,2.36,0,0,0,.85.14,4,4,0,0,0,.87-.09,2,2,0,0,0,.71-.29.87.87,0,0,0,.34-.59.47.47,0,0,0-.18-.5,1.67,1.67,0,0,0-.63-.27c-.26-.07-.54-.12-.84-.17l-1.61-.28a2.88,2.88,0,0,1-1.88-1,2.71,2.71,0,0,1-.47-2.15,3.35,3.35,0,0,1,.88-1.83,4.67,4.67,0,0,1,1.81-1.16,6.52,6.52,0,0,1,2.31-.4,4.93,4.93,0,0,1,2.26.47,3.6,3.6,0,0,1,1.44,1.24A2.71,2.71,0,0,1,649,5.26h-2.92a1.15,1.15,0,0,0-.15-.67.93.93,0,0,0-.51-.36,2.6,2.6,0,0,0-.85-.12,2.77,2.77,0,0,0-.9.13,1.28,1.28,0,0,0-.5.33A.76.76,0,0,0,643,5a.7.7,0,0,0,.15.58,1.63,1.63,0,0,0,.89.35l1.61.28a4.5,4.5,0,0,1,1.74.61,2.38,2.38,0,0,1,.84.94,2.65,2.65,0,0,1,.23,1,5.09,5.09,0,0,1,0,.91,2.85,2.85,0,0,1-.85,1.62,5,5,0,0,1-1.85,1.13A7,7,0,0,1,643.21,12.82Z" transform="translate(-1.89 -1.6)"/><path class="cls-2" d="M655,9.48a2.2,2.2,0,0,1-1.13-.3,2.3,2.3,0,0,1-.81-.8,2.16,2.16,0,0,1-.3-1.12,2.09,2.09,0,0,1,.3-1.1,2.3,2.3,0,0,1,.81-.8A2.2,2.2,0,0,1,655,5.05a2.17,2.17,0,0,1,1.12.31,2.33,2.33,0,0,1,.82.8,2.09,2.09,0,0,1,.3,1.1,2.16,2.16,0,0,1-.3,1.12,2.33,2.33,0,0,1-.82.8A2.16,2.16,0,0,1,655,9.48Z" transform="translate(-1.89 -1.6)"/><path class="cls-2" d="M665.55,12.82a7,7,0,0,1-1.65-.19,4.43,4.43,0,0,1-1.42-.61,2.79,2.79,0,0,1-1-1,2.7,2.7,0,0,1-.28-1.53h3a1.23,1.23,0,0,0,.22.64,1.32,1.32,0,0,0,.56.41,2.46,2.46,0,0,0,.86.14,4.14,4.14,0,0,0,.87-.09,1.94,1.94,0,0,0,.7-.29.88.88,0,0,0,.35-.59.5.5,0,0,0-.18-.5,1.67,1.67,0,0,0-.63-.27c-.27-.07-.55-.12-.84-.17l-1.62-.28a2.9,2.9,0,0,1-1.88-1,2.71,2.71,0,0,1-.46-2.15,3.22,3.22,0,0,1,.88-1.83,4.59,4.59,0,0,1,1.81-1.16,6.52,6.52,0,0,1,2.31-.4,4.93,4.93,0,0,1,2.26.47,3.74,3.74,0,0,1,1.44,1.24,2.78,2.78,0,0,1,.46,1.64H668.4a1.08,1.08,0,0,0-.14-.67.93.93,0,0,0-.51-.36,2.6,2.6,0,0,0-.85-.12,2.77,2.77,0,0,0-.9.13,1.15,1.15,0,0,0-.5.33.76.76,0,0,0-.19.38.64.64,0,0,0,.15.58,1.63,1.63,0,0,0,.88.35l1.62.28a4.5,4.5,0,0,1,1.74.61,2.28,2.28,0,0,1,.83.94,2.66,2.66,0,0,1,.24,1,6.23,6.23,0,0,1,0,.91,2.87,2.87,0,0,1-.86,1.62A4.9,4.9,0,0,1,668,12.41,7,7,0,0,1,665.55,12.82Z" transform="translate(-1.89 -1.6)"/><path class="cls-2" d="M671.87,12.68,673.51,2h3l-.65,4.29L679.6,2h3.23L679.26,6.1l2.41,6.58h-3.08l-1.7-4.49-1.6,1.71-.42,2.78Z" transform="translate(-1.89 -1.6)"/><path class="cls-2" d="M682.51,12.68,687.94,2h2.93L693,12.68h-2.84l-.39-2.06h-3.38l-1,2.06Zm4.89-4.51h2.12L689,4.78Z" transform="translate(-1.89 -1.6)"/><path class="cls-2" d="M695.82,12.68l1.23-8.13h-3L694.42,2h9L703,4.55h-3.07l-1.25,8.13Z" transform="translate(-1.89 -1.6)"/><path class="cls-2" d="M703.09,12.68,704.73,2h2.87l-1.26,8.28h4.27l-.36,2.36Z" transform="translate(-1.89 -1.6)"/><path class="cls-2" d="M716.13,12.82a4.85,4.85,0,0,1-2.65-.67A3.63,3.63,0,0,1,712,10.26a5.76,5.76,0,0,1-.2-2.88,7.13,7.13,0,0,1,1.1-2.9,5.82,5.82,0,0,1,4.94-2.59,4.76,4.76,0,0,1,2.61.68,3.78,3.78,0,0,1,1.51,1.91,5.72,5.72,0,0,1,.21,2.9,6.93,6.93,0,0,1-1.08,2.87,5.76,5.76,0,0,1-2.09,1.9A6,6,0,0,1,716.13,12.82Zm.35-2.29a2.14,2.14,0,0,0,1.1-.3,2.42,2.42,0,0,0,.87-1A5.38,5.38,0,0,0,719,7.42a5.29,5.29,0,0,0,0-1.89,1.77,1.77,0,0,0-.57-1,1.61,1.61,0,0,0-1-.31,2.11,2.11,0,0,0-1.58.73,4.65,4.65,0,0,0-1,2.5,4.85,4.85,0,0,0,0,1.83,1.59,1.59,0,0,0,.58,1A1.68,1.68,0,0,0,716.48,10.53Z" transform="translate(-1.89 -1.6)"/><path class="cls-2" d="M727.5,12.82a4.58,4.58,0,0,1-2.56-.68,3.79,3.79,0,0,1-1.47-1.92,5.59,5.59,0,0,1-.19-2.83A6.89,6.89,0,0,1,724.4,4.5a5.94,5.94,0,0,1,5-2.61,4.7,4.7,0,0,1,2.39.56,3.45,3.45,0,0,1,1.39,1.45,3.16,3.16,0,0,1,.29,1.89h-3a2.13,2.13,0,0,0-.19-.78,1.35,1.35,0,0,0-.48-.55,1.59,1.59,0,0,0-.83-.2,2.08,2.08,0,0,0-1,.28,2.42,2.42,0,0,0-.89,1,5.28,5.28,0,0,0-.57,1.82,5,5,0,0,0,0,1.57,1.82,1.82,0,0,0,.39.92,1.43,1.43,0,0,0,.64.43,2.49,2.49,0,0,0,.7.11,1.85,1.85,0,0,0,.58-.09,2.45,2.45,0,0,0,.49-.23,2.57,2.57,0,0,0,.39-.32,1.26,1.26,0,0,0,.24-.36L730,9h-1.86l.3-1.92,4.89,0-.86,5.62h-1.89l.17-1.18c-.21.18-.45.38-.73.58a4,4,0,0,1-1,.53A4.57,4.57,0,0,1,727.5,12.82Z" transform="translate(-1.89 -1.6)"/><path class="cls-2" d="M738.89,12.82a6.88,6.88,0,0,1-1.64-.19,4.33,4.33,0,0,1-1.42-.61,2.9,2.9,0,0,1-1-1,2.7,2.7,0,0,1-.27-1.53h3a1.15,1.15,0,0,0,.22.64,1.32,1.32,0,0,0,.56.41,2.42,2.42,0,0,0,.86.14,4.14,4.14,0,0,0,.87-.09,2,2,0,0,0,.7-.29.83.83,0,0,0,.34-.59.47.47,0,0,0-.18-.5,1.53,1.53,0,0,0-.63-.27c-.26-.07-.54-.12-.84-.17l-1.61-.28a2.88,2.88,0,0,1-1.88-1,2.71,2.71,0,0,1-.47-2.15,3.3,3.3,0,0,1,.89-1.83,4.56,4.56,0,0,1,1.8-1.16,6.62,6.62,0,0,1,2.32-.4,4.89,4.89,0,0,1,2.25.47,3.6,3.6,0,0,1,1.44,1.24,2.72,2.72,0,0,1,.47,1.64h-2.93a1,1,0,0,0-.15-.67,1,1,0,0,0-.5-.36,2.64,2.64,0,0,0-.85-.12,2.72,2.72,0,0,0-.9.13,1.25,1.25,0,0,0-.51.33.85.85,0,0,0-.19.38.67.67,0,0,0,.16.58,1.59,1.59,0,0,0,.88.35l1.61.28a4.61,4.61,0,0,1,1.75.61,2.28,2.28,0,0,1,.83.94,2.85,2.85,0,0,1,.24,1,6.12,6.12,0,0,1-.06.91,2.8,2.8,0,0,1-.85,1.62,5,5,0,0,1-1.85,1.13A7,7,0,0,1,738.89,12.82Z" transform="translate(-1.89 -1.6)"/><path class="cls-2" d="M750.66,9.48a2.16,2.16,0,0,1-1.12-.3,2.41,2.41,0,0,1-.82-.8,2.16,2.16,0,0,1-.3-1.12,2.09,2.09,0,0,1,.3-1.1,2.41,2.41,0,0,1,.82-.8,2.17,2.17,0,0,1,1.12-.31,2.2,2.2,0,0,1,1.13.31,2.41,2.41,0,0,1,.82.8,2.09,2.09,0,0,1,.3,1.1,2.16,2.16,0,0,1-.3,1.12,2.41,2.41,0,0,1-.82.8A2.2,2.2,0,0,1,750.66,9.48Z" transform="translate(-1.89 -1.6)"/><path class="cls-2" d="M761.24,12.82a6.94,6.94,0,0,1-1.64-.19,4.33,4.33,0,0,1-1.42-.61,2.79,2.79,0,0,1-1-1,2.7,2.7,0,0,1-.28-1.53h3a1.15,1.15,0,0,0,.22.64,1.32,1.32,0,0,0,.56.41,2.42,2.42,0,0,0,.86.14,4.14,4.14,0,0,0,.87-.09,2,2,0,0,0,.7-.29.88.88,0,0,0,.35-.59.49.49,0,0,0-.19-.5,1.55,1.55,0,0,0-.62-.27c-.27-.07-.55-.12-.85-.17l-1.61-.28a2.9,2.9,0,0,1-1.88-1,2.75,2.75,0,0,1-.47-2.15,3.3,3.3,0,0,1,.89-1.83,4.52,4.52,0,0,1,1.81-1.16,6.52,6.52,0,0,1,2.31-.4,4.89,4.89,0,0,1,2.25.47,3.6,3.6,0,0,1,1.44,1.24A2.72,2.72,0,0,1,767,5.26H764.1a1.08,1.08,0,0,0-.14-.67,1,1,0,0,0-.51-.36,2.6,2.6,0,0,0-.85-.12,2.77,2.77,0,0,0-.9.13,1.15,1.15,0,0,0-.5.33A.76.76,0,0,0,761,5a.64.64,0,0,0,.15.58,1.59,1.59,0,0,0,.88.35l1.61.28a4.61,4.61,0,0,1,1.75.61,2.28,2.28,0,0,1,.83.94,2.85,2.85,0,0,1,.24,1,6.23,6.23,0,0,1-.05.91,2.87,2.87,0,0,1-.86,1.62,5,5,0,0,1-1.85,1.13A7,7,0,0,1,761.24,12.82Z" transform="translate(-1.89 -1.6)"/><path class="cls-2" d="M767.56,12.68,769.21,2h3l-.66,4.29L775.29,2h3.23L775,6.1l2.41,6.58h-3.08l-1.69-4.49L771,9.9l-.43,2.78Z" transform="translate(-1.89 -1.6)"/><path class="cls-2" d="M778.17,12.68,783.6,2h2.93l2.16,10.64h-2.84l-.39-2.06h-3.38l-1,2.06Zm4.89-4.51h2.12l-.52-3.39Z" transform="translate(-1.89 -1.6)"/><path class="cls-2" d="M791.47,12.68l1.24-8.13h-3L790.07,2h9l-.39,2.51H795.6l-1.25,8.13Z" transform="translate(-1.89 -1.6)"/><path class="cls-2" d="M798.76,12.68,800.4,2h2.87L802,10.32h4.27l-.36,2.36Z" transform="translate(-1.89 -1.6)"/><path class="cls-2" d="M811.81,12.82a4.89,4.89,0,0,1-2.66-.67,3.68,3.68,0,0,1-1.51-1.89,5.77,5.77,0,0,1-.19-2.88,7.12,7.12,0,0,1,1.09-2.9,5.82,5.82,0,0,1,4.94-2.59,4.73,4.73,0,0,1,2.61.68,3.8,3.8,0,0,1,1.52,1.91,5.84,5.84,0,0,1,.2,2.9,6.79,6.79,0,0,1-1.08,2.87,5.68,5.68,0,0,1-2.09,1.9A5.91,5.91,0,0,1,811.81,12.82Zm.34-2.29a2.12,2.12,0,0,0,1.1-.3,2.43,2.43,0,0,0,.88-1,5.87,5.87,0,0,0,.54-1.83,5.25,5.25,0,0,0,0-1.89,1.67,1.67,0,0,0-.57-1,1.59,1.59,0,0,0-1-.31,2.11,2.11,0,0,0-1.58.73,4.73,4.73,0,0,0-1,2.5,5.31,5.31,0,0,0,0,1.83,1.6,1.6,0,0,0,.59,1A1.65,1.65,0,0,0,812.15,10.53Z" transform="translate(-1.89 -1.6)"/><path class="cls-2" d="M823.14,12.82a4.58,4.58,0,0,1-2.56-.68,3.79,3.79,0,0,1-1.47-1.92,5.59,5.59,0,0,1-.19-2.83A6.89,6.89,0,0,1,820,4.5a5.94,5.94,0,0,1,5-2.61,4.7,4.7,0,0,1,2.39.56,3.45,3.45,0,0,1,1.39,1.45,3.16,3.16,0,0,1,.29,1.89h-3a2.13,2.13,0,0,0-.19-.78,1.35,1.35,0,0,0-.48-.55,1.59,1.59,0,0,0-.83-.2,2.08,2.08,0,0,0-1,.28,2.42,2.42,0,0,0-.89,1,5.28,5.28,0,0,0-.57,1.82,5,5,0,0,0,0,1.57,1.82,1.82,0,0,0,.39.92,1.43,1.43,0,0,0,.64.43,2.49,2.49,0,0,0,.7.11,1.85,1.85,0,0,0,.58-.09,2.45,2.45,0,0,0,.49-.23,2.57,2.57,0,0,0,.39-.32,1.26,1.26,0,0,0,.24-.36l.19-.39h-1.86l.3-1.92,4.89,0-.86,5.62h-1.89l.17-1.18c-.21.18-.45.38-.73.58a4,4,0,0,1-1,.53A4.57,4.57,0,0,1,823.14,12.82Z" transform="translate(-1.89 -1.6)"/><path class="cls-2" d="M834.56,12.82a6.88,6.88,0,0,1-1.64-.19,4.39,4.39,0,0,1-1.43-.61,2.87,2.87,0,0,1-1-1,2.79,2.79,0,0,1-.28-1.53h3a1.15,1.15,0,0,0,.23.64,1.26,1.26,0,0,0,.56.41,2.36,2.36,0,0,0,.85.14,4.14,4.14,0,0,0,.87-.09,2.08,2.08,0,0,0,.71-.29.87.87,0,0,0,.34-.59.47.47,0,0,0-.18-.5,1.67,1.67,0,0,0-.63-.27c-.26-.07-.54-.12-.84-.17l-1.62-.28a2.85,2.85,0,0,1-1.87-1,2.71,2.71,0,0,1-.47-2.15,3.28,3.28,0,0,1,.88-1.83,4.67,4.67,0,0,1,1.81-1.16,6.52,6.52,0,0,1,2.31-.4,4.93,4.93,0,0,1,2.26.47,3.6,3.6,0,0,1,1.44,1.24,2.71,2.71,0,0,1,.46,1.64h-2.92a1.15,1.15,0,0,0-.15-.67.93.93,0,0,0-.51-.36,2.6,2.6,0,0,0-.85-.12,2.77,2.77,0,0,0-.9.13,1.21,1.21,0,0,0-.5.33.76.76,0,0,0-.19.38.7.7,0,0,0,.15.58,1.63,1.63,0,0,0,.88.35l1.62.28a4.5,4.5,0,0,1,1.74.61,2.28,2.28,0,0,1,.83.94,2.5,2.5,0,0,1,.24,1,5.09,5.09,0,0,1,0,.91,2.85,2.85,0,0,1-.85,1.62A5,5,0,0,1,837,12.41,7,7,0,0,1,834.56,12.82Z" transform="translate(-1.89 -1.6)"/><path class="cls-2" d="M846.32,9.48a2.16,2.16,0,0,1-1.12-.3,2.33,2.33,0,0,1-.82-.8,2.16,2.16,0,0,1-.3-1.12,2.09,2.09,0,0,1,.3-1.1,2.33,2.33,0,0,1,.82-.8,2.17,2.17,0,0,1,1.12-.31,2.2,2.2,0,0,1,1.13.31,2.41,2.41,0,0,1,.82.8,2.09,2.09,0,0,1,.3,1.1,2.16,2.16,0,0,1-.3,1.12,2.41,2.41,0,0,1-.82.8A2.2,2.2,0,0,1,846.32,9.48Z" transform="translate(-1.89 -1.6)"/><path class="cls-2" d="M856.89,12.82a6.88,6.88,0,0,1-1.64-.19,4.48,4.48,0,0,1-1.43-.61,2.87,2.87,0,0,1-1-1,2.79,2.79,0,0,1-.28-1.53h3a1.15,1.15,0,0,0,.22.64,1.26,1.26,0,0,0,.56.41,2.4,2.4,0,0,0,.85.14,4,4,0,0,0,.87-.09,2,2,0,0,0,.71-.29.87.87,0,0,0,.34-.59.47.47,0,0,0-.18-.5,1.53,1.53,0,0,0-.63-.27c-.26-.07-.54-.12-.84-.17l-1.61-.28a2.88,2.88,0,0,1-1.88-1,2.71,2.71,0,0,1-.47-2.15,3.35,3.35,0,0,1,.88-1.83,4.67,4.67,0,0,1,1.81-1.16,6.52,6.52,0,0,1,2.31-.4,4.93,4.93,0,0,1,2.26.47,3.6,3.6,0,0,1,1.44,1.24,2.71,2.71,0,0,1,.46,1.64h-2.92a1.08,1.08,0,0,0-.15-.67.93.93,0,0,0-.51-.36,2.53,2.53,0,0,0-.84-.12,2.68,2.68,0,0,0-.9.13,1.25,1.25,0,0,0-.51.33.85.85,0,0,0-.19.38.67.67,0,0,0,.16.58,1.59,1.59,0,0,0,.88.35l1.61.28a4.5,4.5,0,0,1,1.74.61,2.31,2.31,0,0,1,.84.94,2.85,2.85,0,0,1,.24,1,6.12,6.12,0,0,1-.06.91,2.85,2.85,0,0,1-.85,1.62,5,5,0,0,1-1.85,1.13A7,7,0,0,1,856.89,12.82Z" transform="translate(-1.89 -1.6)"/><path class="cls-2" d="M863.23,12.68,864.87,2h3l-.65,4.29L871,2h3.23L870.62,6.1,873,12.68H870l-1.7-4.49-1.6,1.71-.42,2.78Z" transform="translate(-1.89 -1.6)"/><path class="cls-2" d="M873.83,12.68,879.26,2h2.93l2.16,10.64h-2.84l-.39-2.06h-3.38l-1,2.06Zm4.89-4.51h2.12l-.52-3.39Z" transform="translate(-1.89 -1.6)"/><path class="cls-2" d="M887.14,12.68l1.24-8.13h-3L885.74,2h9l-.39,2.51h-3.07L890,12.68Z" transform="translate(-1.89 -1.6)"/><path class="cls-2" d="M894.43,12.68,896.07,2H899l-1.27,8.28H902l-.36,2.36Z" transform="translate(-1.89 -1.6)"/><path class="cls-2" d="M907.48,12.82a4.86,4.86,0,0,1-2.66-.67,3.63,3.63,0,0,1-1.51-1.89,5.87,5.87,0,0,1-.2-2.88,7.13,7.13,0,0,1,1.1-2.9,5.82,5.82,0,0,1,4.94-2.59,4.73,4.73,0,0,1,2.61.68,3.8,3.8,0,0,1,1.52,1.91,5.84,5.84,0,0,1,.2,2.9,6.93,6.93,0,0,1-1.08,2.87,5.76,5.76,0,0,1-2.09,1.9A5.91,5.91,0,0,1,907.48,12.82Zm.34-2.29a2.14,2.14,0,0,0,1.1-.3,2.35,2.35,0,0,0,.87-1,5.38,5.38,0,0,0,.54-1.83,5.29,5.29,0,0,0,0-1.89,1.67,1.67,0,0,0-.57-1,1.59,1.59,0,0,0-1-.31,2.11,2.11,0,0,0-1.58.73,4.65,4.65,0,0,0-1,2.5,5.07,5.07,0,0,0,0,1.83,1.59,1.59,0,0,0,.58,1A1.7,1.7,0,0,0,907.82,10.53Z" transform="translate(-1.89 -1.6)"/><path class="cls-2" d="M918.82,12.82a4.58,4.58,0,0,1-2.56-.68,3.73,3.73,0,0,1-1.47-1.92,5.59,5.59,0,0,1-.19-2.83,6.76,6.76,0,0,1,1.12-2.89,5.91,5.91,0,0,1,5-2.61,4.7,4.7,0,0,1,2.39.56,3.45,3.45,0,0,1,1.39,1.45,3.24,3.24,0,0,1,.29,1.89h-3a2.13,2.13,0,0,0-.19-.78,1.35,1.35,0,0,0-.48-.55,1.59,1.59,0,0,0-.83-.2,2.08,2.08,0,0,0-1,.28,2.42,2.42,0,0,0-.89,1,5.28,5.28,0,0,0-.57,1.82,5,5,0,0,0,0,1.57,1.82,1.82,0,0,0,.39.92,1.38,1.38,0,0,0,.64.43,2.49,2.49,0,0,0,.7.11,1.9,1.9,0,0,0,.58-.09,2.45,2.45,0,0,0,.49-.23,2.57,2.57,0,0,0,.39-.32,1.26,1.26,0,0,0,.24-.36l.19-.39h-1.86l.3-1.92,4.89,0-.86,5.62H921.9l.17-1.18c-.21.18-.45.38-.73.58a4.14,4.14,0,0,1-1,.53A4.57,4.57,0,0,1,918.82,12.82Z" transform="translate(-1.89 -1.6)"/><path class="cls-2" d="M930.22,12.82a6.88,6.88,0,0,1-1.64-.19,4.48,4.48,0,0,1-1.43-.61,2.87,2.87,0,0,1-1-1,2.79,2.79,0,0,1-.28-1.53h3a1.07,1.07,0,0,0,.22.64,1.26,1.26,0,0,0,.56.41,2.4,2.4,0,0,0,.85.14,4,4,0,0,0,.87-.09,2,2,0,0,0,.71-.29.87.87,0,0,0,.34-.59.47.47,0,0,0-.18-.5,1.67,1.67,0,0,0-.63-.27c-.26-.07-.54-.12-.84-.17l-1.61-.28a2.88,2.88,0,0,1-1.88-1,2.71,2.71,0,0,1-.47-2.15,3.35,3.35,0,0,1,.88-1.83,4.67,4.67,0,0,1,1.81-1.16,6.52,6.52,0,0,1,2.31-.4,4.93,4.93,0,0,1,2.26.47,3.6,3.6,0,0,1,1.44,1.24A2.71,2.71,0,0,1,936,5.26h-2.92a1.15,1.15,0,0,0-.15-.67.93.93,0,0,0-.51-.36,2.6,2.6,0,0,0-.85-.12,2.77,2.77,0,0,0-.9.13,1.28,1.28,0,0,0-.5.33A.76.76,0,0,0,930,5a.7.7,0,0,0,.15.58,1.63,1.63,0,0,0,.89.35l1.61.28a4.5,4.5,0,0,1,1.74.61,2.38,2.38,0,0,1,.84.94,2.65,2.65,0,0,1,.23,1,5.09,5.09,0,0,1-.05.91,2.85,2.85,0,0,1-.85,1.62,5,5,0,0,1-1.85,1.13A7,7,0,0,1,930.22,12.82Z" transform="translate(-1.89 -1.6)"/><path class="cls-2" d="M942,9.48a2.13,2.13,0,0,1-1.12-.3,2.33,2.33,0,0,1-.82-.8,2.16,2.16,0,0,1-.3-1.12,2.09,2.09,0,0,1,.3-1.1,2.33,2.33,0,0,1,.82-.8A2.14,2.14,0,0,1,942,5.05a2.2,2.2,0,0,1,1.13.31,2.3,2.3,0,0,1,.81.8,2,2,0,0,1,.31,1.1,2.08,2.08,0,0,1-.31,1.12,2.3,2.3,0,0,1-.81.8A2.2,2.2,0,0,1,942,9.48Z" transform="translate(-1.89 -1.6)"/><path class="cls-2" d="M952.57,12.82a6.88,6.88,0,0,1-1.64-.19A4.39,4.39,0,0,1,949.5,12a2.68,2.68,0,0,1-1.25-2.58h3a1.15,1.15,0,0,0,.23.64,1.29,1.29,0,0,0,.55.41,2.46,2.46,0,0,0,.86.14,4.14,4.14,0,0,0,.87-.09,1.94,1.94,0,0,0,.7-.29.88.88,0,0,0,.35-.59.5.5,0,0,0-.18-.5,1.67,1.67,0,0,0-.63-.27c-.26-.07-.55-.12-.84-.17l-1.62-.28a2.9,2.9,0,0,1-1.88-1,2.71,2.71,0,0,1-.46-2.15,3.28,3.28,0,0,1,.88-1.83,4.59,4.59,0,0,1,1.81-1.16,6.52,6.52,0,0,1,2.31-.4,4.93,4.93,0,0,1,2.26.47,3.6,3.6,0,0,1,1.44,1.24,2.78,2.78,0,0,1,.46,1.64h-2.93a1.08,1.08,0,0,0-.14-.67.93.93,0,0,0-.51-.36,2.6,2.6,0,0,0-.85-.12,2.77,2.77,0,0,0-.9.13,1.15,1.15,0,0,0-.5.33.76.76,0,0,0-.19.38.64.64,0,0,0,.15.58,1.63,1.63,0,0,0,.88.35l1.62.28a4.5,4.5,0,0,1,1.74.61,2.28,2.28,0,0,1,.83.94,2.5,2.5,0,0,1,.24,1,5.09,5.09,0,0,1,0,.91,2.87,2.87,0,0,1-.86,1.62A4.9,4.9,0,0,1,955,12.41,7,7,0,0,1,952.57,12.82Z" transform="translate(-1.89 -1.6)"/><path class="cls-2" d="M958.87,12.68,960.51,2h3l-.65,4.29L966.6,2h3.23L966.26,6.1l2.41,6.58h-3.08l-1.7-4.49-1.6,1.71-.42,2.78Z" transform="translate(-1.89 -1.6)"/><path class="cls-2" d="M969.48,12.68,974.91,2h2.94L980,12.68h-2.84l-.39-2.06H973.4l-1,2.06Zm4.9-4.51h2.11L976,4.78Z" transform="translate(-1.89 -1.6)"/><path class="cls-2" d="M982.8,12.68,984,4.55h-3L981.41,2h9L990,4.55h-3.06l-1.25,8.13Z" transform="translate(-1.89 -1.6)"/><path class="cls-2" d="M990.08,12.68,991.72,2h2.88l-1.27,8.28h4.27l-.36,2.36Z" transform="translate(-1.89 -1.6)"/><path class="cls-2" d="M1003.13,12.82a4.89,4.89,0,0,1-2.66-.67A3.73,3.73,0,0,1,999,10.26a5.88,5.88,0,0,1-.19-2.88,7,7,0,0,1,1.1-2.9,5.82,5.82,0,0,1,4.94-2.59,4.78,4.78,0,0,1,2.61.68,3.78,3.78,0,0,1,1.51,1.91,5.72,5.72,0,0,1,.21,2.9,6.93,6.93,0,0,1-1.08,2.87,5.76,5.76,0,0,1-2.09,1.9A6,6,0,0,1,1003.13,12.82Zm.34-2.29a2.15,2.15,0,0,0,1.11-.3,2.49,2.49,0,0,0,.87-1,5.38,5.38,0,0,0,.54-1.83,5.29,5.29,0,0,0,0-1.89,1.77,1.77,0,0,0-.57-1,1.61,1.61,0,0,0-1-.31,2.15,2.15,0,0,0-1.59.73,4.65,4.65,0,0,0-1,2.5,4.85,4.85,0,0,0,0,1.83,1.59,1.59,0,0,0,.58,1A1.67,1.67,0,0,0,1003.47,10.53Z" transform="translate(-1.89 -1.6)"/><path class="cls-2" d="M1014.48,12.82a4.55,4.55,0,0,1-2.55-.68,3.8,3.8,0,0,1-1.48-1.92,5.7,5.7,0,0,1-.19-2.83,7,7,0,0,1,1.12-2.89,5.94,5.94,0,0,1,5-2.61,4.67,4.67,0,0,1,2.39.56,3.39,3.39,0,0,1,1.39,1.45,3.16,3.16,0,0,1,.29,1.89h-3a2.13,2.13,0,0,0-.2-.78,1.35,1.35,0,0,0-.48-.55,1.57,1.57,0,0,0-.83-.2,2.11,2.11,0,0,0-1,.28,2.49,2.49,0,0,0-.89,1,5.28,5.28,0,0,0-.57,1.82,5,5,0,0,0,0,1.57,1.82,1.82,0,0,0,.39.92,1.48,1.48,0,0,0,.64.43,2.49,2.49,0,0,0,.7.11,1.81,1.81,0,0,0,.58-.09,2.22,2.22,0,0,0,.49-.23,2.57,2.57,0,0,0,.39-.32,1.56,1.56,0,0,0,.25-.36L1017,9h-1.86l.3-1.92,4.9,0-.87,5.62h-1.89l.17-1.18a8.47,8.47,0,0,1-.73.58,4,4,0,0,1-1,.53A4.57,4.57,0,0,1,1014.48,12.82Z" transform="translate(-1.89 -1.6)"/><path class="cls-2" d="M1025.87,12.82a6.88,6.88,0,0,1-1.64-.19,4.48,4.48,0,0,1-1.43-.61,2.87,2.87,0,0,1-1-1,2.79,2.79,0,0,1-.28-1.53h3a1.15,1.15,0,0,0,.22.64,1.26,1.26,0,0,0,.56.41,2.4,2.4,0,0,0,.85.14,4,4,0,0,0,.87-.09,2,2,0,0,0,.71-.29.87.87,0,0,0,.34-.59.47.47,0,0,0-.18-.5,1.53,1.53,0,0,0-.63-.27c-.26-.07-.54-.12-.84-.17l-1.61-.28a2.88,2.88,0,0,1-1.88-1,2.71,2.71,0,0,1-.47-2.15,3.35,3.35,0,0,1,.88-1.83,4.67,4.67,0,0,1,1.81-1.16,6.52,6.52,0,0,1,2.31-.4,4.93,4.93,0,0,1,2.26.47,3.6,3.6,0,0,1,1.44,1.24,2.71,2.71,0,0,1,.46,1.64h-2.92a1.08,1.08,0,0,0-.15-.67.93.93,0,0,0-.51-.36,2.53,2.53,0,0,0-.84-.12,2.68,2.68,0,0,0-.9.13,1.25,1.25,0,0,0-.51.33.85.85,0,0,0-.19.38.67.67,0,0,0,.16.58,1.59,1.59,0,0,0,.88.35l1.61.28a4.5,4.5,0,0,1,1.74.61,2.31,2.31,0,0,1,.84.94,2.85,2.85,0,0,1,.24,1,6.12,6.12,0,0,1-.06.91,2.85,2.85,0,0,1-.85,1.62,5,5,0,0,1-1.85,1.13A7,7,0,0,1,1025.87,12.82Z" transform="translate(-1.89 -1.6)"/><path class="cls-2" d="M1037.66,9.48a2.2,2.2,0,0,1-1.13-.3,2.3,2.3,0,0,1-.81-.8,2.16,2.16,0,0,1-.3-1.12,2.09,2.09,0,0,1,.3-1.1,2.3,2.3,0,0,1,.81-.8,2.21,2.21,0,0,1,2.26,0,2.3,2.3,0,0,1,.81.8,2,2,0,0,1,.31,1.1,2.08,2.08,0,0,1-.31,1.12,2.3,2.3,0,0,1-.81.8A2.2,2.2,0,0,1,1037.66,9.48Z" transform="translate(-1.89 -1.6)"/><path class="cls-2" d="M1048.22,12.82a6.88,6.88,0,0,1-1.64-.19,4.48,4.48,0,0,1-1.43-.61,2.87,2.87,0,0,1-1-1,2.79,2.79,0,0,1-.28-1.53h3a1.15,1.15,0,0,0,.22.64,1.26,1.26,0,0,0,.56.41,2.4,2.4,0,0,0,.85.14,4,4,0,0,0,.87-.09,2,2,0,0,0,.71-.29.87.87,0,0,0,.34-.59.47.47,0,0,0-.18-.5,1.67,1.67,0,0,0-.63-.27c-.26-.07-.54-.12-.84-.17l-1.61-.28a2.88,2.88,0,0,1-1.88-1,2.71,2.71,0,0,1-.47-2.15,3.35,3.35,0,0,1,.88-1.83,4.67,4.67,0,0,1,1.81-1.16,6.52,6.52,0,0,1,2.31-.4,4.93,4.93,0,0,1,2.26.47,3.6,3.6,0,0,1,1.44,1.24,2.71,2.71,0,0,1,.46,1.64h-2.92a1.15,1.15,0,0,0-.15-.67.93.93,0,0,0-.51-.36,2.53,2.53,0,0,0-.84-.12,2.79,2.79,0,0,0-.91.13,1.28,1.28,0,0,0-.5.33A.85.85,0,0,0,1048,5a.67.67,0,0,0,.16.58,1.59,1.59,0,0,0,.88.35l1.61.28a4.5,4.5,0,0,1,1.74.61,2.31,2.31,0,0,1,.84.94,2.65,2.65,0,0,1,.23,1,5.09,5.09,0,0,1,0,.91,2.85,2.85,0,0,1-.85,1.62,5,5,0,0,1-1.85,1.13A7,7,0,0,1,1048.22,12.82Z" transform="translate(-1.89 -1.6)"/><path class="cls-2" d="M1054.56,12.68,1056.2,2h3l-.65,4.29L1062.29,2h3.23L1062,6.1l2.41,6.58h-3.08l-1.7-4.49L1058,9.9l-.43,2.78Z" transform="translate(-1.89 -1.6)"/><path class="cls-2" d="M1065.17,12.68,1070.6,2h2.94l2.15,10.64h-2.84l-.39-2.06h-3.37l-1,2.06Zm4.9-4.51h2.11l-.52-3.39Z" transform="translate(-1.89 -1.6)"/><path class="cls-2" d="M1078.47,12.68l1.24-8.13h-3l.38-2.51h9l-.39,2.51h-3.06l-1.25,8.13Z" transform="translate(-1.89 -1.6)"/><path class="cls-2" d="M1085.75,12.68,1087.39,2h2.88L1089,10.32h4.27l-.36,2.36Z" transform="translate(-1.89 -1.6)"/><path class="cls-2" d="M1098.8,12.82a4.89,4.89,0,0,1-2.66-.67,3.73,3.73,0,0,1-1.51-1.89,5.88,5.88,0,0,1-.19-2.88,7,7,0,0,1,1.1-2.9,5.82,5.82,0,0,1,4.94-2.59,4.78,4.78,0,0,1,2.61.68,3.78,3.78,0,0,1,1.51,1.91,5.72,5.72,0,0,1,.21,2.9,6.93,6.93,0,0,1-1.08,2.87,5.76,5.76,0,0,1-2.09,1.9A6,6,0,0,1,1098.8,12.82Zm.34-2.29a2.15,2.15,0,0,0,1.11-.3,2.49,2.49,0,0,0,.87-1,5.62,5.62,0,0,0,.54-1.83,5.29,5.29,0,0,0,0-1.89,1.77,1.77,0,0,0-.57-1,1.61,1.61,0,0,0-1-.31,2.15,2.15,0,0,0-1.59.73,4.65,4.65,0,0,0-1,2.5,4.85,4.85,0,0,0,0,1.83,1.59,1.59,0,0,0,.58,1A1.67,1.67,0,0,0,1099.14,10.53Z" transform="translate(-1.89 -1.6)"/><path class="cls-2" d="M1110.17,12.82a4.58,4.58,0,0,1-2.56-.68,3.73,3.73,0,0,1-1.47-1.92,5.59,5.59,0,0,1-.19-2.83,6.76,6.76,0,0,1,1.12-2.89,5.91,5.91,0,0,1,5-2.61,4.7,4.7,0,0,1,2.39.56,3.45,3.45,0,0,1,1.39,1.45,3.24,3.24,0,0,1,.29,1.89h-3a2.13,2.13,0,0,0-.19-.78,1.35,1.35,0,0,0-.48-.55,1.59,1.59,0,0,0-.83-.2,2.08,2.08,0,0,0-1,.28,2.42,2.42,0,0,0-.89,1,5.28,5.28,0,0,0-.57,1.82,5,5,0,0,0,0,1.57,1.82,1.82,0,0,0,.39.92,1.38,1.38,0,0,0,.64.43,2.49,2.49,0,0,0,.7.11,1.9,1.9,0,0,0,.58-.09,2.45,2.45,0,0,0,.49-.23,2.57,2.57,0,0,0,.39-.32,1.26,1.26,0,0,0,.24-.36l.19-.39h-1.86l.3-1.92,4.89,0-.86,5.62h-1.89l.17-1.18c-.21.18-.45.38-.73.58a4.14,4.14,0,0,1-1,.53A4.57,4.57,0,0,1,1110.17,12.82Z" transform="translate(-1.89 -1.6)"/><path class="cls-2" d="M1121.55,12.82a6.94,6.94,0,0,1-1.64-.19,4.33,4.33,0,0,1-1.42-.61,2.79,2.79,0,0,1-1-1,2.7,2.7,0,0,1-.28-1.53h3a1.15,1.15,0,0,0,.22.64,1.32,1.32,0,0,0,.56.41,2.42,2.42,0,0,0,.86.14,4.14,4.14,0,0,0,.87-.09,2,2,0,0,0,.7-.29.88.88,0,0,0,.35-.59.49.49,0,0,0-.19-.5,1.55,1.55,0,0,0-.62-.27c-.27-.07-.55-.12-.85-.17l-1.61-.28a2.9,2.9,0,0,1-1.88-1,2.75,2.75,0,0,1-.47-2.15,3.3,3.3,0,0,1,.89-1.83,4.52,4.52,0,0,1,1.81-1.16,6.52,6.52,0,0,1,2.31-.4,4.89,4.89,0,0,1,2.25.47,3.7,3.7,0,0,1,1.45,1.24,2.78,2.78,0,0,1,.46,1.64h-2.93a1.08,1.08,0,0,0-.14-.67,1,1,0,0,0-.51-.36,2.6,2.6,0,0,0-.85-.12,2.77,2.77,0,0,0-.9.13,1.15,1.15,0,0,0-.5.33.76.76,0,0,0-.19.38.64.64,0,0,0,.15.58,1.59,1.59,0,0,0,.88.35l1.61.28a4.61,4.61,0,0,1,1.75.61,2.28,2.28,0,0,1,.83.94,2.85,2.85,0,0,1,.24,1,6.23,6.23,0,0,1,0,.91,2.87,2.87,0,0,1-.86,1.62,5,5,0,0,1-1.85,1.13A7,7,0,0,1,1121.55,12.82Z" transform="translate(-1.89 -1.6)"/><path class="cls-2" d="M1133.33,9.48a2.16,2.16,0,0,1-1.12-.3,2.3,2.3,0,0,1-.81-.8,2.08,2.08,0,0,1-.31-1.12,2,2,0,0,1,.31-1.1,2.3,2.3,0,0,1,.81-.8,2.2,2.2,0,0,1,2.25,0,2.41,2.41,0,0,1,.82.8,2.09,2.09,0,0,1,.3,1.1,2.16,2.16,0,0,1-.3,1.12,2.41,2.41,0,0,1-.82.8A2.17,2.17,0,0,1,1133.33,9.48Z" transform="translate(-1.89 -1.6)"/><path class="cls-2" d="M1143.9,12.82a6.88,6.88,0,0,1-1.64-.19,4.48,4.48,0,0,1-1.43-.61,2.87,2.87,0,0,1-1-1,2.79,2.79,0,0,1-.28-1.53h3a1.15,1.15,0,0,0,.22.64,1.26,1.26,0,0,0,.56.41,2.4,2.4,0,0,0,.85.14,4,4,0,0,0,.87-.09,2,2,0,0,0,.71-.29.87.87,0,0,0,.34-.59.47.47,0,0,0-.18-.5,1.67,1.67,0,0,0-.63-.27c-.26-.07-.54-.12-.84-.17l-1.61-.28a2.88,2.88,0,0,1-1.88-1,2.71,2.71,0,0,1-.47-2.15,3.35,3.35,0,0,1,.88-1.83,4.67,4.67,0,0,1,1.81-1.16,6.52,6.52,0,0,1,2.31-.4,4.93,4.93,0,0,1,2.26.47,3.6,3.6,0,0,1,1.44,1.24,2.71,2.71,0,0,1,.46,1.64h-2.92a1.15,1.15,0,0,0-.15-.67.93.93,0,0,0-.51-.36,2.55,2.55,0,0,0-.85-.12,2.77,2.77,0,0,0-.9.13,1.28,1.28,0,0,0-.5.33.85.85,0,0,0-.19.38.7.7,0,0,0,.15.58,1.67,1.67,0,0,0,.89.35l1.61.28a4.5,4.5,0,0,1,1.74.61,2.31,2.31,0,0,1,.84.94,2.65,2.65,0,0,1,.23,1,5.09,5.09,0,0,1,0,.91,2.85,2.85,0,0,1-.85,1.62,5,5,0,0,1-1.85,1.13A7,7,0,0,1,1143.9,12.82Z" transform="translate(-1.89 -1.6)"/><path class="cls-2" d="M1150.22,12.68,1151.86,2h3l-.65,4.29L1158,2h3.23l-3.57,4.06,2.41,6.58h-3.08l-1.7-4.49-1.6,1.71-.42,2.78Z" transform="translate(-1.89 -1.6)"/><path class="cls-2" d="M1160.82,12.68,1166.25,2h2.93l2.16,10.64h-2.84l-.39-2.06h-3.38l-1,2.06Zm4.89-4.51h2.12l-.52-3.39Z" transform="translate(-1.89 -1.6)"/><path class="cls-2" d="M1174.15,12.68l1.24-8.13h-3l.38-2.51h9l-.39,2.51h-3.06L1177,12.68Z" transform="translate(-1.89 -1.6)"/><path class="cls-2" d="M1181.45,12.68,1183.09,2H1186l-1.26,8.28H1189l-.37,2.36Z" transform="translate(-1.89 -1.6)"/><path class="cls-2" d="M1194.47,12.82a4.89,4.89,0,0,1-2.66-.67,3.68,3.68,0,0,1-1.51-1.89,5.77,5.77,0,0,1-.19-2.88,7,7,0,0,1,1.1-2.9,5.82,5.82,0,0,1,4.93-2.59,4.79,4.79,0,0,1,2.62.68,3.83,3.83,0,0,1,1.51,1.91,5.73,5.73,0,0,1,.2,2.9,6.78,6.78,0,0,1-1.07,2.87,5.79,5.79,0,0,1-2.1,1.9A5.89,5.89,0,0,1,1194.47,12.82Zm.34-2.29a2.09,2.09,0,0,0,1.1-.3,2.43,2.43,0,0,0,.88-1,5.87,5.87,0,0,0,.54-1.83,5,5,0,0,0,0-1.89,1.67,1.67,0,0,0-.57-1,1.57,1.57,0,0,0-1-.31,2.13,2.13,0,0,0-1.58.73,4.73,4.73,0,0,0-1,2.5,5,5,0,0,0,0,1.83,1.55,1.55,0,0,0,.58,1A1.65,1.65,0,0,0,1194.81,10.53Z" transform="translate(-1.89 -1.6)"/><path class="cls-2" d="M1205.82,12.82a4.58,4.58,0,0,1-2.56-.68,3.84,3.84,0,0,1-1.47-1.92,5.7,5.7,0,0,1-.19-2.83,6.89,6.89,0,0,1,1.12-2.89,5.94,5.94,0,0,1,5-2.61,4.67,4.67,0,0,1,2.39.56,3.39,3.39,0,0,1,1.39,1.45,3.16,3.16,0,0,1,.29,1.89h-3a2.13,2.13,0,0,0-.2-.78,1.35,1.35,0,0,0-.48-.55,1.59,1.59,0,0,0-.83-.2,2.11,2.11,0,0,0-1,.28,2.49,2.49,0,0,0-.89,1,5.28,5.28,0,0,0-.57,1.82,5,5,0,0,0,0,1.57,1.82,1.82,0,0,0,.39.92,1.43,1.43,0,0,0,.64.43,2.49,2.49,0,0,0,.7.11,1.85,1.85,0,0,0,.58-.09,2.45,2.45,0,0,0,.49-.23,2.57,2.57,0,0,0,.39-.32,1.56,1.56,0,0,0,.25-.36l.18-.39h-1.86l.3-1.92,4.9,0-.87,5.62h-1.89l.17-1.18c-.21.18-.45.38-.73.58a4,4,0,0,1-1,.53A4.57,4.57,0,0,1,1205.82,12.82Z" transform="translate(-1.89 -1.6)"/><path class="cls-2" d="M1217.23,12.82a6.94,6.94,0,0,1-1.64-.19,4.43,4.43,0,0,1-1.42-.61,2.79,2.79,0,0,1-1-1,2.7,2.7,0,0,1-.28-1.53h3a1.15,1.15,0,0,0,.22.64,1.32,1.32,0,0,0,.56.41,2.42,2.42,0,0,0,.86.14,4.14,4.14,0,0,0,.87-.09,1.94,1.94,0,0,0,.7-.29.88.88,0,0,0,.35-.59.5.5,0,0,0-.18-.5,1.67,1.67,0,0,0-.63-.27c-.27-.07-.55-.12-.84-.17l-1.62-.28a2.9,2.9,0,0,1-1.88-1,2.71,2.71,0,0,1-.46-2.15,3.22,3.22,0,0,1,.88-1.83,4.52,4.52,0,0,1,1.81-1.16,6.52,6.52,0,0,1,2.31-.4,4.93,4.93,0,0,1,2.26.47,3.74,3.74,0,0,1,1.44,1.24,2.78,2.78,0,0,1,.46,1.64h-2.93a1.08,1.08,0,0,0-.14-.67.93.93,0,0,0-.51-.36,2.6,2.6,0,0,0-.85-.12,2.77,2.77,0,0,0-.9.13,1.15,1.15,0,0,0-.5.33A.76.76,0,0,0,1217,5a.64.64,0,0,0,.15.58,1.63,1.63,0,0,0,.88.35l1.62.28a4.5,4.5,0,0,1,1.74.61,2.28,2.28,0,0,1,.83.94,2.66,2.66,0,0,1,.24,1,6.23,6.23,0,0,1,0,.91,2.87,2.87,0,0,1-.86,1.62,5,5,0,0,1-1.84,1.13A7.05,7.05,0,0,1,1217.23,12.82Z" transform="translate(-1.89 -1.6)"/><path class="cls-2" d="M1229,9.48a2.2,2.2,0,0,1-1.13-.3,2.3,2.3,0,0,1-.81-.8,2.16,2.16,0,0,1-.3-1.12,2.09,2.09,0,0,1,.3-1.1,2.3,2.3,0,0,1,.81-.8,2.21,2.21,0,0,1,2.26,0,2.3,2.3,0,0,1,.81.8,2,2,0,0,1,.31,1.1,2.08,2.08,0,0,1-.31,1.12,2.3,2.3,0,0,1-.81.8A2.2,2.2,0,0,1,1229,9.48Z" transform="translate(-1.89 -1.6)"/><path class="cls-2" d="M1239.56,12.82a6.88,6.88,0,0,1-1.64-.19,4.39,4.39,0,0,1-1.43-.61,2.87,2.87,0,0,1-1-1,2.79,2.79,0,0,1-.28-1.53h3a1.15,1.15,0,0,0,.23.64,1.26,1.26,0,0,0,.56.41,2.36,2.36,0,0,0,.85.14,4.14,4.14,0,0,0,.87-.09,2.08,2.08,0,0,0,.71-.29.87.87,0,0,0,.34-.59.47.47,0,0,0-.18-.5,1.67,1.67,0,0,0-.63-.27c-.26-.07-.54-.12-.84-.17l-1.62-.28a2.85,2.85,0,0,1-1.87-1,2.71,2.71,0,0,1-.47-2.15,3.28,3.28,0,0,1,.88-1.83,4.67,4.67,0,0,1,1.81-1.16,6.52,6.52,0,0,1,2.31-.4,4.93,4.93,0,0,1,2.26.47,3.6,3.6,0,0,1,1.44,1.24,2.71,2.71,0,0,1,.46,1.64h-2.92a1.15,1.15,0,0,0-.15-.67.93.93,0,0,0-.51-.36,2.6,2.6,0,0,0-.85-.12,2.77,2.77,0,0,0-.9.13,1.21,1.21,0,0,0-.5.33.76.76,0,0,0-.19.38.7.7,0,0,0,.15.58,1.63,1.63,0,0,0,.89.35l1.61.28a4.5,4.5,0,0,1,1.74.61,2.38,2.38,0,0,1,.84.94,2.65,2.65,0,0,1,.23,1,5.09,5.09,0,0,1,0,.91,2.85,2.85,0,0,1-.85,1.62,5,5,0,0,1-1.85,1.13A7,7,0,0,1,1239.56,12.82Z" transform="translate(-1.89 -1.6)"/><path class="cls-2" d="M1245.88,12.68,1247.53,2h3l-.66,4.29L1253.62,2h3.23l-3.58,4.06,2.41,6.58h-3.08l-1.69-4.49-1.6,1.71-.43,2.78Z" transform="translate(-1.89 -1.6)"/><path class="cls-2" d="M1256.51,12.68,1261.94,2h2.94L1267,12.68h-2.84l-.39-2.06h-3.37l-1,2.06Zm4.9-4.51h2.11L1263,4.78Z" transform="translate(-1.89 -1.6)"/><path class="cls-2" d="M1269.82,12.68l1.24-8.13h-3l.38-2.51h9L1277,4.55H1274l-1.25,8.13Z" transform="translate(-1.89 -1.6)"/></g></g></g></g></svg>