<svg xmlns="http://www.w3.org/2000/svg" viewBox="0 0 1297.75 985.22"><defs><style>.cls-1{fill:none;stroke:#b72538;stroke-miterlimit:10;stroke-width:10px;}.cls-2{fill:#fff;}</style></defs><g id="Layer_2" data-name="Layer 2"><g id="Homepage"><g id="Route"><g id="Layer_28" data-name="Layer 28"><g id="Route-2" data-name="Route"><g id="Layer_30" data-name="Layer 30"><path class="cls-1" d="M166.82,739.27c266,327,776,347,1017-51,77-127,279-644-187-519.07-299,57.34-654.45,89.79-896-104.92" transform="translate(-1.24 -5.54)"/><polyline class="cls-1" points="215.26 850.83 156.2 721.01 282.37 812.25"/></g><path class="cls-2" d="M1.24,34.46,5.32,5.54H13.1l-1.54,11h10l1.54-11h7.78L26.78,34.46H19l1.64-11.6h-10L9,34.46Z" transform="translate(-1.24 -5.54)"/><path class="cls-2" d="M39.9,34.86a9.61,9.61,0,0,1-5.29-1.36,7.54,7.54,0,0,1-3-3.75,10.73,10.73,0,0,1-.45-5.49,13.32,13.32,0,0,1,2.21-5.71,12.11,12.11,0,0,1,4.28-3.81,11.75,11.75,0,0,1,5.61-1.36,9.48,9.48,0,0,1,5.36,1.41,7.64,7.64,0,0,1,3,3.87,11.32,11.32,0,0,1,.41,5.6,13,13,0,0,1-2.13,5.47,11.85,11.85,0,0,1-4.2,3.76A12,12,0,0,1,39.9,34.86Zm.94-5.64a2.49,2.49,0,0,0,2-.85A5.94,5.94,0,0,0,44,26.3,13.89,13.89,0,0,0,44.52,24a11.61,11.61,0,0,0,.13-2.29,3.93,3.93,0,0,0-.55-2,1.87,1.87,0,0,0-1.72-.79,2.67,2.67,0,0,0-2,.79,5,5,0,0,0-1.14,2A14.28,14.28,0,0,0,38.68,24a13.42,13.42,0,0,0-.13,2.32,4.28,4.28,0,0,0,.53,2.07A1.86,1.86,0,0,0,40.84,29.22Z" transform="translate(-1.24 -5.54)"/><path class="cls-2" d="M53.56,34.46,56.7,13.78h7.62l-.4,2.48a9.9,9.9,0,0,1,3-2.06A9.71,9.71,0,0,1,71,13.38,7.69,7.69,0,0,1,74,14a4.22,4.22,0,0,1,2.24,2.25,9.54,9.54,0,0,1,3.17-2.1A9.17,9.17,0,0,1,83,13.38a6.37,6.37,0,0,1,2.32.44,5.77,5.77,0,0,1,2,1.28,5.06,5.06,0,0,1,1.26,2,5.79,5.79,0,0,1,.16,2.75l-2.2,14.56H78.72l2.1-13.64a1.33,1.33,0,0,0-.2-1,1.88,1.88,0,0,0-.81-.66,2.66,2.66,0,0,0-1.09-.23,3.09,3.09,0,0,0-1.71.39,2.26,2.26,0,0,0-.86,1.1,9,9,0,0,0-.43,1.67l-1.88,12.4H66.12L68.2,20.82a1.29,1.29,0,0,0-.18-1,1.88,1.88,0,0,0-.83-.66,2.79,2.79,0,0,0-1.11-.23,3.23,3.23,0,0,0-1.15.23,2.89,2.89,0,0,0-1,.66,1.86,1.86,0,0,0-.53,1l-2.1,13.64Z" transform="translate(-1.24 -5.54)"/><path class="cls-2" d="M100.1,34.86a10.6,10.6,0,0,1-5.43-1.31,7.52,7.52,0,0,1-3.22-3.67,10.09,10.09,0,0,1-.51-5.5A13.59,13.59,0,0,1,93,18.92a12.49,12.49,0,0,1,4.19-4A11.29,11.29,0,0,1,103,13.38a9.39,9.39,0,0,1,5.41,1.4,7.1,7.1,0,0,1,2.79,3.83,12.1,12.1,0,0,1,.3,5.49l-.3,1.8H98.3a4,4,0,0,0,0,2,2,2,0,0,0,.91,1.14,3,3,0,0,0,1.48.36,4.71,4.71,0,0,0,2-.4,3.5,3.5,0,0,0,1.56-1.6h6.84a8.76,8.76,0,0,1-2.4,4,12.67,12.67,0,0,1-8.6,3.47ZM98.88,21.54h5.9a3,3,0,0,0-.11-1.45,2,2,0,0,0-.83-1.07,2.81,2.81,0,0,0-1.6-.4,3.08,3.08,0,0,0-1.51.4,3.69,3.69,0,0,0-1.22,1.07A3.4,3.4,0,0,0,98.88,21.54Z" transform="translate(-1.24 -5.54)"/><path class="cls-2" d="M579.25,74.86a18.48,18.48,0,0,1-4.41-.53A11.92,11.92,0,0,1,571,72.68a7.86,7.86,0,0,1-2.61-2.86,7.5,7.5,0,0,1-.75-4.16h8a3.14,3.14,0,0,0,.6,1.74,3.44,3.44,0,0,0,1.5,1.11,6.12,6.12,0,0,0,2.3.39,11.19,11.19,0,0,0,2.34-.24,4.79,4.79,0,0,0,1.89-.81,2.37,2.37,0,0,0,.93-1.59,1.32,1.32,0,0,0-.49-1.36,4.49,4.49,0,0,0-1.69-.74c-.71-.17-1.46-.33-2.26-.46l-4.34-.76a7.81,7.81,0,0,1-5.05-2.69,7.44,7.44,0,0,1-1.25-5.83,8.94,8.94,0,0,1,2.37-5,12.69,12.69,0,0,1,4.86-3.16,17.48,17.48,0,0,1,6.21-1.09,13.23,13.23,0,0,1,6.07,1.29,9.65,9.65,0,0,1,3.87,3.37,7.48,7.48,0,0,1,1.24,4.46h-7.86a3,3,0,0,0-.39-1.81,2.56,2.56,0,0,0-1.37-1,7.09,7.09,0,0,0-2.28-.31,7,7,0,0,0-2.42.35,3.17,3.17,0,0,0-1.35.88,2.14,2.14,0,0,0-.51,1.05A1.84,1.84,0,0,0,579,55a4.52,4.52,0,0,0,2.37.94l4.34.76a11.9,11.9,0,0,1,4.68,1.67A6.14,6.14,0,0,1,592.65,61a7.29,7.29,0,0,1,.64,2.82,15.59,15.59,0,0,1-.14,2.48,7.78,7.78,0,0,1-2.3,4.41,13.53,13.53,0,0,1-5,3.07A18.89,18.89,0,0,1,579.25,74.86Z" transform="translate(-1.24 -5.54)"/><path class="cls-2" d="M595.73,74.46l2.92-20.68h7.4l-2.92,20.68Zm3.16-22.36.92-6.56h7.4l-.92,6.56Z" transform="translate(-1.24 -5.54)"/><path class="cls-2" d="M616.93,81.3c-4.17,0-7.23-.51-9.16-1.53s-2.8-2.24-2.6-3.67a2.44,2.44,0,0,1,.78-1.5,4.64,4.64,0,0,1,1.45-.9,12,12,0,0,1,1.48-.48l.85-.22-.85-.52a3.94,3.94,0,0,1-1.18-1.19,2.83,2.83,0,0,1-.35-2,3.25,3.25,0,0,1,1.38-2,8.22,8.22,0,0,1,3.82-1.32,6,6,0,0,1-2.88-2.81,6.26,6.26,0,0,1-.64-3.67,5.2,5.2,0,0,1,1.73-3.15,10.1,10.1,0,0,1,3.86-2.1,18.09,18.09,0,0,1,5.43-.75,11,11,0,0,1,3.66.48A14.83,14.83,0,0,1,626,55l1.57-.59,1.88-.7,2-.75c.67-.25,1.3-.5,1.9-.74l-.64,5.6-3.68.7a7.08,7.08,0,0,1,0,1.82,6.38,6.38,0,0,1-1.55,3.18,9.43,9.43,0,0,1-3.6,2.52,14,14,0,0,1-5.49,1c-.41,0-.91,0-1.49,0l-1.25-.06-.69-.09c-.17,0-.24,0-.21.17.07.32.37.54.91.67a14,14,0,0,0,1.89.29c.45,0,1.05.08,1.8.11s1.51.08,2.28.15c2.93.19,5,.91,6.22,2.16a5.07,5.07,0,0,1,1.46,4.44,6.53,6.53,0,0,1-3.51,4.68Q622.68,81.31,616.93,81.3ZM618,77.22a6.09,6.09,0,0,0,3-.49,1.74,1.74,0,0,0,.88-1.23.75.75,0,0,0-.49-.78,4.6,4.6,0,0,0-1.73-.36l-3.74-.24a4.32,4.32,0,0,0-1.75.2,2.15,2.15,0,0,0-1,.68,1.85,1.85,0,0,0-.38.88q-.12.83,1.14,1.08A23,23,0,0,0,618,77.22Zm.48-14.32a3,3,0,0,0,2.17-.91,3.77,3.77,0,0,0,1.11-2.25,2.42,2.42,0,0,0-.31-1.74,1.6,1.6,0,0,0-1.45-.74,2.91,2.91,0,0,0-2.18,1,4.27,4.27,0,0,0-1.14,2.35,2.15,2.15,0,0,0,.34,1.64A1.7,1.7,0,0,0,618.47,62.9Z" transform="translate(-1.24 -5.54)"/><path class="cls-2" d="M639.87,74.86a8,8,0,0,1-2.56-.43A7.69,7.69,0,0,1,635,73.16a5.6,5.6,0,0,1-1.63-2,4.78,4.78,0,0,1-.35-2.77l2-14.56h7.8l-1.9,13.48a1.76,1.76,0,0,0,.45,1.51,2.27,2.27,0,0,0,1.75.61,3,3,0,0,0,1.94-.61,2.27,2.27,0,0,0,.88-1.51l1.9-13.48h7.72l-2.9,20.68h-5.76l-.32-4.24a6.3,6.3,0,0,1-1.87,3,6.19,6.19,0,0,1-2.52,1.29A10.46,10.46,0,0,1,639.87,74.86Z" transform="translate(-1.24 -5.54)"/><path class="cls-2" d="M664.17,74.9a12,12,0,0,1-4.35-.61,4.05,4.05,0,0,1-2.08-1.59,4.2,4.2,0,0,1-.57-2.16,16.14,16.14,0,0,1,.16-2.32l3.56-23.48h7.6l-3.4,22.44a2.47,2.47,0,0,0,.16,1.4c.19.44.79.73,1.82.88l.8.08-.72,4.72c-.48.17-1,.32-1.49.45A6,6,0,0,1,664.17,74.9Z" transform="translate(-1.24 -5.54)"/><path class="cls-2" d="M678,74.86c-2.85,0-4.91-1-6.16-3s-1.65-4.62-1.18-7.91a14.36,14.36,0,0,1,3.2-7.75,8.09,8.09,0,0,1,6.32-2.85,9.35,9.35,0,0,1,1.57.14,6.42,6.42,0,0,1,1.51.45,4.88,4.88,0,0,1,1.31.84,4,4,0,0,1,1,1.33l1.6-11.4h7.8l-4.18,29.72h-5.5l-.32-4.24a9.52,9.52,0,0,1-1.17,1.94,7.28,7.28,0,0,1-1.53,1.46,6.62,6.62,0,0,1-1.91.92A8,8,0,0,1,678,74.86Zm2.6-5.44a3,3,0,0,0,2.37-1.19A8.68,8.68,0,0,0,684.39,64a9.25,9.25,0,0,0,0-3,2.81,2.81,0,0,0-.83-1.64,2.27,2.27,0,0,0-1.52-.51A3.32,3.32,0,0,0,679.65,60a7.2,7.2,0,0,0-1.5,4c-.29,2-.18,3.46.33,4.25A2.38,2.38,0,0,0,680.57,69.42Z" transform="translate(-1.24 -5.54)"/><path class="cls-2" d="M700.83,74.86a7.5,7.5,0,0,1-3.46-.76,4.94,4.94,0,0,1-2.24-2.23,6.07,6.07,0,0,1-.44-3.61A7.24,7.24,0,0,1,698.16,63q3-1.86,8.55-1.86h1.6l.12-.88a1.54,1.54,0,0,0-.34-1.46,2.19,2.19,0,0,0-1.62-.42,5.92,5.92,0,0,0-1.84.38A3.15,3.15,0,0,0,703,60.22h-6.26a7.33,7.33,0,0,1,2.07-3.95,9.32,9.32,0,0,1,3.86-2.2,17.12,17.12,0,0,1,5-.69,14.24,14.24,0,0,1,5.46.82,4.46,4.46,0,0,1,2.52,2.27,6.13,6.13,0,0,1,.34,3.35l-2.24,14.64h-6.4l-.18-3.28a7.65,7.65,0,0,1-2.72,2.89A7.29,7.29,0,0,1,700.83,74.86Zm3.44-4.92a3,3,0,0,0,1.09-.2,3.17,3.17,0,0,0,.92-.55,3.7,3.7,0,0,0,.69-.79,2.74,2.74,0,0,0,.38-.94l.4-2.6h-1.24a7.7,7.7,0,0,0-1.61.23,5.39,5.39,0,0,0-1.82.79,2.26,2.26,0,0,0-1,1.58,2,2,0,0,0,.51,1.82A2.28,2.28,0,0,0,704.27,69.94Z" transform="translate(-1.24 -5.54)"/><path class="cls-2" d="M571.89,122.46l2.9-20.68h7.52l-.8,5.72a13.28,13.28,0,0,1,1.79-3,8.61,8.61,0,0,1,2.59-2.23,6.88,6.88,0,0,1,3.42-.84h.3l-1,7.36-.1,0-.14,0a10.58,10.58,0,0,0-4.37.23,3.82,3.82,0,0,0-2.12,1.53,5.54,5.54,0,0,0-.77,2.08l-1.4,9.92Z" transform="translate(-1.24 -5.54)"/><path class="cls-2" d="M595,122.86a7.5,7.5,0,0,1-3.46-.76,4.94,4.94,0,0,1-2.24-2.23,6.07,6.07,0,0,1-.44-3.61A7.24,7.24,0,0,1,592.3,111q3-1.86,8.55-1.86h1.6l.12-.88a1.54,1.54,0,0,0-.34-1.46,2.19,2.19,0,0,0-1.62-.42,5.92,5.92,0,0,0-1.84.38,3.15,3.15,0,0,0-1.66,1.42h-6.26a7.33,7.33,0,0,1,2.07-4,9.32,9.32,0,0,1,3.86-2.2,17.12,17.12,0,0,1,5-.69,14.24,14.24,0,0,1,5.46.82,4.46,4.46,0,0,1,2.52,2.27,6.13,6.13,0,0,1,.34,3.35l-2.24,14.64h-6.4l-.18-3.28a7.65,7.65,0,0,1-2.72,2.89A7.29,7.29,0,0,1,595,122.86Zm3.44-4.92a3,3,0,0,0,1.09-.2,3.17,3.17,0,0,0,.92-.55,3.7,3.7,0,0,0,.69-.79,2.74,2.74,0,0,0,.38-.94l.4-2.6h-1.24a7.7,7.7,0,0,0-1.61.23,5.39,5.39,0,0,0-1.82.79,2.26,2.26,0,0,0-1,1.58,2,2,0,0,0,.51,1.82A2.28,2.28,0,0,0,598.41,117.94Z" transform="translate(-1.24 -5.54)"/><path class="cls-2" d="M612.35,122.46l2.92-20.68h7.4l-2.92,20.68Zm3.16-22.36.92-6.56h7.4l-.92,6.56Z" transform="translate(-1.24 -5.54)"/><path class="cls-2" d="M631.69,122.9a12,12,0,0,1-4.35-.61,4.05,4.05,0,0,1-2.08-1.59,4.2,4.2,0,0,1-.57-2.16,16.14,16.14,0,0,1,.16-2.32l3.56-23.48H636l-3.4,22.44a2.47,2.47,0,0,0,.16,1.4c.19.44.79.73,1.82.88l.8.08-.72,4.72c-.48.17-1,.32-1.49.45A6,6,0,0,1,631.69,122.9Z" transform="translate(-1.24 -5.54)"/><path class="cls-2" d="M641.59,122.46l-3.8-20.68h6.72l1.68,10,4.56-10h5.36l1.4,10.08,4.74-10.08h6.86l-10.4,20.68h-5.5l-1.54-10-4.8,10Z" transform="translate(-1.24 -5.54)"/><path class="cls-2" d="M673.49,122.86a7.5,7.5,0,0,1-3.46-.76,4.94,4.94,0,0,1-2.24-2.23,6.07,6.07,0,0,1-.44-3.61,7.24,7.24,0,0,1,3.47-5.22q3-1.86,8.55-1.86H681l.12-.88a1.54,1.54,0,0,0-.34-1.46,2.19,2.19,0,0,0-1.62-.42,5.92,5.92,0,0,0-1.84.38,3.15,3.15,0,0,0-1.66,1.42h-6.26a7.33,7.33,0,0,1,2.07-4,9.32,9.32,0,0,1,3.86-2.2,17.12,17.12,0,0,1,5-.69,14.24,14.24,0,0,1,5.46.82,4.49,4.49,0,0,1,2.52,2.27,6.13,6.13,0,0,1,.34,3.35l-2.24,14.64h-6.4l-.18-3.28a7.65,7.65,0,0,1-2.72,2.89A7.29,7.29,0,0,1,673.49,122.86Zm3.44-4.92a3.06,3.06,0,0,0,1.09-.2,3.17,3.17,0,0,0,.92-.55,3.7,3.7,0,0,0,.69-.79,3,3,0,0,0,.38-.94l.4-2.6h-1.24a7.7,7.7,0,0,0-1.61.23,5.39,5.39,0,0,0-1.82.79,2.22,2.22,0,0,0-1,1.58,2,2,0,0,0,.51,1.82A2.28,2.28,0,0,0,676.93,117.94Z" transform="translate(-1.24 -5.54)"/><path class="cls-2" d="M692.91,129.06a10.36,10.36,0,0,1-4.32-.88l.72-4.92,2,.12a6.8,6.8,0,0,0,3-.23,2.56,2.56,0,0,0,1.25-.88c.2-.33.32-.53.36-.61l.16-.4-5-19.48h7.6L700.71,113l5.76-11.24H714l-10.94,19.48a24.17,24.17,0,0,1-3.49,4.94,9,9,0,0,1-3.28,2.27A10,10,0,0,1,692.91,129.06Z" transform="translate(-1.24 -5.54)"/><path class="cls-2" d="M582,170.86a12.15,12.15,0,0,1-4.18-.74,7.46,7.46,0,0,1-3.33-2.36,6.92,6.92,0,0,1-1.39-4.26h6.6a2.15,2.15,0,0,0,.71,1.48,2.86,2.86,0,0,0,1.26.62,5.72,5.72,0,0,0,1,.14,6.17,6.17,0,0,0,2.14-.31c.56-.21.87-.52.92-.93a.83.83,0,0,0-.41-.91,5,5,0,0,0-1.87-.53l-3-.48a8.84,8.84,0,0,1-4.51-2,4.69,4.69,0,0,1-1.25-4.28,6.73,6.73,0,0,1,1.57-3.48,8.91,8.91,0,0,1,3.54-2.48,13.8,13.8,0,0,1,5.25-.92c2.83,0,5,.61,6.47,1.84a5.08,5.08,0,0,1,1.77,5h-6.34a1.66,1.66,0,0,0-.86-1.39,3.61,3.61,0,0,0-1.84-.45,5,5,0,0,0-1.87.32,1.19,1.19,0,0,0-.87.92c0,.36.14.65.59.87a9.48,9.48,0,0,0,2.29.61l2.6.48a8.69,8.69,0,0,1,3,1.3,5.62,5.62,0,0,1,1.64,1.77,5,5,0,0,1,.63,1.86,5.75,5.75,0,0,1,0,1.55,6.49,6.49,0,0,1-1.76,3.73,9.26,9.26,0,0,1-3.7,2.29A14.73,14.73,0,0,1,582,170.86Z" transform="translate(-1.24 -5.54)"/><path class="cls-2" d="M604.53,170.78a11.36,11.36,0,0,1-4.87-.81,3.85,3.85,0,0,1-2.1-2.17,6.52,6.52,0,0,1-.25-3l1.48-9.72h-3.32l.8-5.28h3.6l2.14-6.44h6.26l-1,6.4h4.5l-.8,5.32h-4.5l-1.38,9.36c-.07.45,0,.75.23.9a1.47,1.47,0,0,0,.85.22h3.2l-.68,4.6a9.55,9.55,0,0,1-1.4.42A13,13,0,0,1,604.53,170.78Z" transform="translate(-1.24 -5.54)"/><path class="cls-2" d="M618.41,170.86a7.5,7.5,0,0,1-3.46-.76,4.94,4.94,0,0,1-2.24-2.23,6.07,6.07,0,0,1-.44-3.61,7.24,7.24,0,0,1,3.47-5.22q3-1.86,8.55-1.86h1.6l.12-.88a1.54,1.54,0,0,0-.34-1.46,2.19,2.19,0,0,0-1.62-.42,5.92,5.92,0,0,0-1.84.38,3.15,3.15,0,0,0-1.66,1.42h-6.26a7.33,7.33,0,0,1,2.07-3.95,9.32,9.32,0,0,1,3.86-2.2,17.12,17.12,0,0,1,4.95-.69,14.24,14.24,0,0,1,5.46.82,4.46,4.46,0,0,1,2.52,2.27,6.13,6.13,0,0,1,.34,3.35l-2.24,14.64h-6.4l-.18-3.28a7.65,7.65,0,0,1-2.72,2.89A7.29,7.29,0,0,1,618.41,170.86Zm3.44-4.92a3,3,0,0,0,1.09-.2,3.17,3.17,0,0,0,.92-.55,3.7,3.7,0,0,0,.69-.79,2.74,2.74,0,0,0,.38-.94l.4-2.6h-1.24a7.7,7.7,0,0,0-1.61.23,5.39,5.39,0,0,0-1.82.79,2.26,2.26,0,0,0-1,1.58,2,2,0,0,0,.51,1.82A2.28,2.28,0,0,0,621.85,165.94Z" transform="translate(-1.24 -5.54)"/><path class="cls-2" d="M644.83,170.78A11.36,11.36,0,0,1,640,170a3.85,3.85,0,0,1-2.1-2.17,6.52,6.52,0,0,1-.25-3l1.48-9.72h-3.32l.8-5.28h3.6l2.14-6.44h6.26l-1,6.4h4.5l-.8,5.32h-4.5l-1.38,9.36c-.07.45,0,.75.23.9a1.47,1.47,0,0,0,.85.22h3.2l-.68,4.6a9.55,9.55,0,0,1-1.4.42A13,13,0,0,1,644.83,170.78Z" transform="translate(-1.24 -5.54)"/><path class="cls-2" d="M652.79,170.46l2.92-20.68h7.4l-2.92,20.68ZM656,148.1l.92-6.56h7.4l-.92,6.56Z" transform="translate(-1.24 -5.54)"/><path class="cls-2" d="M673.63,170.86a9.61,9.61,0,0,1-5.29-1.36,7.54,7.54,0,0,1-3-3.75,10.73,10.73,0,0,1-.45-5.49,13.32,13.32,0,0,1,2.21-5.71,12,12,0,0,1,4.28-3.81,11.75,11.75,0,0,1,5.61-1.36,9.48,9.48,0,0,1,5.36,1.41,7.64,7.64,0,0,1,3,3.87,11.32,11.32,0,0,1,.41,5.6,13,13,0,0,1-2.13,5.47,11.85,11.85,0,0,1-4.2,3.76A12,12,0,0,1,673.63,170.86Zm.94-5.64a2.49,2.49,0,0,0,2-.85,5.94,5.94,0,0,0,1.15-2.07,13.89,13.89,0,0,0,.56-2.32,11.61,11.61,0,0,0,.13-2.29,3.93,3.93,0,0,0-.55-2,1.87,1.87,0,0,0-1.72-.79,2.67,2.67,0,0,0-2,.79,5,5,0,0,0-1.14,2,14.28,14.28,0,0,0-.54,2.29,13.42,13.42,0,0,0-.13,2.32,4.28,4.28,0,0,0,.53,2.07A1.86,1.86,0,0,0,674.57,165.22Z" transform="translate(-1.24 -5.54)"/><path class="cls-2" d="M687.29,170.46l3.18-20.68h7.62l-.36,2.48c.49-.44,1-.85,1.49-1.24a6.33,6.33,0,0,1,1.79-1,8,8,0,0,1,2.66-.37,6.44,6.44,0,0,1,3.31.89,6.12,6.12,0,0,1,2.33,2.43,5.43,5.43,0,0,1,.5,3.48l-2.12,14h-7.76l2-12.92a1.3,1.3,0,0,0-.54-1.38,2.62,2.62,0,0,0-1.54-.5,3.43,3.43,0,0,0-1.18.23,3,3,0,0,0-1.07.65,1.62,1.62,0,0,0-.53,1l-2,12.92Z" transform="translate(-1.24 -5.54)"/><path class="cls-2" d="M1079.54,414.46l4.38-28.92h13a11.5,11.5,0,0,1,5.84,1.24,6.07,6.07,0,0,1,2.81,3.35,10,10,0,0,1,.31,4.73,12.16,12.16,0,0,1-1.17,3.79,10,10,0,0,1-2,2.68,13.85,13.85,0,0,1-2.65,1.93l3.36,11.2h-7.92l-2.66-10h-4.08l-1.5,10Zm10.14-15.76h4.44a3.33,3.33,0,0,0,1.84-.55,5.09,5.09,0,0,0,1.44-1.41,4.22,4.22,0,0,0,.72-1.8,3,3,0,0,0-.67-2.57,2.81,2.81,0,0,0-2.21-1.07h-4.44Z" transform="translate(-1.24 -5.54)"/><path class="cls-2" d="M1107.44,414.46l2.92-20.68h7.4l-2.92,20.68Zm3.16-22.36.92-6.56h7.4l-.92,6.56Z" transform="translate(-1.24 -5.54)"/><path class="cls-2" d="M1128.64,421.3c-4.17,0-7.23-.51-9.16-1.53s-2.8-2.24-2.6-3.67a2.44,2.44,0,0,1,.78-1.5,4.64,4.64,0,0,1,1.45-.9,12,12,0,0,1,1.48-.48l.85-.22-.85-.52a3.94,3.94,0,0,1-1.18-1.19,2.83,2.83,0,0,1-.35-2,3.25,3.25,0,0,1,1.38-2,8.22,8.22,0,0,1,3.82-1.32,6,6,0,0,1-2.88-2.81,6.26,6.26,0,0,1-.64-3.67,5.2,5.2,0,0,1,1.73-3.15,10.1,10.1,0,0,1,3.86-2.1,18.09,18.09,0,0,1,5.43-.75,11,11,0,0,1,3.66.48,14.83,14.83,0,0,1,2.24,1l1.57-.59,1.88-.7,2-.75c.67-.25,1.3-.5,1.9-.74l-.64,5.6-3.68.7a7.08,7.08,0,0,1,0,1.82,6.38,6.38,0,0,1-1.55,3.18,9.43,9.43,0,0,1-3.6,2.52,14,14,0,0,1-5.49,1c-.41,0-.91,0-1.49,0l-1.25-.06-.69-.09c-.17,0-.24,0-.21.17.07.32.37.54.91.67a14,14,0,0,0,1.89.29c.45,0,1,.08,1.8.11s1.51.08,2.28.15c2.93.19,5,.91,6.22,2.16a5.07,5.07,0,0,1,1.46,4.44,6.53,6.53,0,0,1-3.51,4.68Q1134.39,421.31,1128.64,421.3Zm1.06-4.08a6.09,6.09,0,0,0,3-.49,1.74,1.74,0,0,0,.88-1.23.75.75,0,0,0-.49-.78,4.6,4.6,0,0,0-1.73-.36l-3.74-.24a4.32,4.32,0,0,0-1.75.2,2.15,2.15,0,0,0-1,.68,1.85,1.85,0,0,0-.38.88q-.12.83,1.14,1.08A23,23,0,0,0,1129.7,417.22Zm.48-14.32a3,3,0,0,0,2.17-.91,3.77,3.77,0,0,0,1.11-2.25,2.42,2.42,0,0,0-.31-1.74,1.6,1.6,0,0,0-1.45-.74,2.91,2.91,0,0,0-2.18,1,4.27,4.27,0,0,0-1.14,2.35,2.15,2.15,0,0,0,.34,1.64A1.7,1.7,0,0,0,1130.18,402.9Z" transform="translate(-1.24 -5.54)"/><path class="cls-2" d="M1149.72,414.86a7.5,7.5,0,0,1-3.46-.76,4.94,4.94,0,0,1-2.24-2.23,6.07,6.07,0,0,1-.44-3.61,7.24,7.24,0,0,1,3.47-5.22q3-1.86,8.55-1.86h1.6l.12-.88a1.54,1.54,0,0,0-.34-1.46,2.19,2.19,0,0,0-1.62-.42,5.92,5.92,0,0,0-1.84.38,3.15,3.15,0,0,0-1.66,1.42h-6.26a7.33,7.33,0,0,1,2.07-4,9.32,9.32,0,0,1,3.86-2.2,17.12,17.12,0,0,1,5-.69,14.24,14.24,0,0,1,5.46.82,4.46,4.46,0,0,1,2.52,2.27,6.13,6.13,0,0,1,.34,3.35l-2.24,14.64h-6.4l-.18-3.28a7.65,7.65,0,0,1-2.72,2.89A7.29,7.29,0,0,1,1149.72,414.86Zm3.44-4.92a3,3,0,0,0,1.09-.2,3.17,3.17,0,0,0,.92-.55,3.7,3.7,0,0,0,.69-.79,2.74,2.74,0,0,0,.38-.94l.4-2.6h-1.24a7.7,7.7,0,0,0-1.61.23,5.39,5.39,0,0,0-1.82.79,2.26,2.26,0,0,0-1,1.58,2,2,0,0,0,.51,1.82A2.28,2.28,0,0,0,1153.16,409.94Z" transform="translate(-1.24 -5.54)"/><path class="cls-2" d="M1062,462.86a12,12,0,0,1-6.28-1.56,10.41,10.41,0,0,1-4-4.32,14,14,0,0,1-1.39-6.38,20.24,20.24,0,0,1,1-6.35,17.63,17.63,0,0,1,3.05-5.62,14.79,14.79,0,0,1,5.06-4,15.84,15.84,0,0,1,7-1.49,12.63,12.63,0,0,1,5.8,1.25,8.76,8.76,0,0,1,3.76,3.62,11.61,11.61,0,0,1,1.32,5.73h-8.06a5.51,5.51,0,0,0-.48-2.32,3.42,3.42,0,0,0-1.35-1.51,4.33,4.33,0,0,0-2.23-.53,4.63,4.63,0,0,0-3.14,1.1,7.72,7.72,0,0,0-2,2.87,16,16,0,0,0-1.07,3.78,24.88,24.88,0,0,0-.32,3.85,6.77,6.77,0,0,0,1.09,4.33,3.56,3.56,0,0,0,2.87,1.31,4.38,4.38,0,0,0,2.39-.68,6.33,6.33,0,0,0,1.84-1.81,9.4,9.4,0,0,0,1.19-2.47h8.08a24.61,24.61,0,0,1-1.66,4.26,13.33,13.33,0,0,1-2.64,3.59,11.22,11.22,0,0,1-4,2.46A17.1,17.1,0,0,1,1062,462.86Z" transform="translate(-1.24 -5.54)"/><path class="cls-2" d="M1088.34,462.86a10.6,10.6,0,0,1-5.43-1.31,7.52,7.52,0,0,1-3.22-3.67,10.09,10.09,0,0,1-.51-5.5,13.59,13.59,0,0,1,2.06-5.46,12.49,12.49,0,0,1,4.19-4,11.29,11.29,0,0,1,5.85-1.52,9.39,9.39,0,0,1,5.41,1.4,7.1,7.1,0,0,1,2.79,3.83,12.1,12.1,0,0,1,.3,5.49l-.3,1.8h-12.94a4,4,0,0,0,0,2,2,2,0,0,0,.91,1.14,3,3,0,0,0,1.48.36,4.71,4.71,0,0,0,2-.4,3.5,3.5,0,0,0,1.56-1.6h6.84a8.76,8.76,0,0,1-2.4,4,12.67,12.67,0,0,1-8.6,3.47Zm-1.22-13.32h5.9a3,3,0,0,0-.11-1.45,2,2,0,0,0-.83-1.07,2.81,2.81,0,0,0-1.6-.4,3.08,3.08,0,0,0-1.51.4,3.69,3.69,0,0,0-1.22,1.07A3.4,3.4,0,0,0,1087.12,449.54Z" transform="translate(-1.24 -5.54)"/><path class="cls-2" d="M1101.44,462.46l3.18-20.68h7.62l-.36,2.48c.49-.44,1-.85,1.49-1.24a6.47,6.47,0,0,1,1.79-.95,8,8,0,0,1,2.66-.37,6.44,6.44,0,0,1,3.31.89,6.05,6.05,0,0,1,2.33,2.43,5.36,5.36,0,0,1,.5,3.48l-2.12,14h-7.76l2-12.92a1.27,1.27,0,0,0-.54-1.38,2.62,2.62,0,0,0-1.54-.5,3.47,3.47,0,0,0-1.18.23,3.14,3.14,0,0,0-1.07.65,1.62,1.62,0,0,0-.53,1l-2,12.92Z" transform="translate(-1.24 -5.54)"/><path class="cls-2" d="M1135,462.78a11.36,11.36,0,0,1-4.87-.81,3.85,3.85,0,0,1-2.1-2.17,6.52,6.52,0,0,1-.25-3l1.48-9.72H1126l.8-5.28h3.6l2.14-6.44h6.26l-1,6.4h4.5l-.8,5.32H1137l-1.38,9.36c-.07.45,0,.75.23.9a1.47,1.47,0,0,0,.85.22h3.2l-.68,4.6a9.55,9.55,0,0,1-1.4.42A13,13,0,0,1,1135,462.78Z" transform="translate(-1.24 -5.54)"/><path class="cls-2" d="M1142.82,462.46l2.9-20.68h7.52l-.8,5.72a13.28,13.28,0,0,1,1.79-3.05,8.61,8.61,0,0,1,2.59-2.23,6.88,6.88,0,0,1,3.42-.84h.3l-1,7.36-.1,0-.14,0a10.58,10.58,0,0,0-4.37.23,3.82,3.82,0,0,0-2.12,1.53,5.54,5.54,0,0,0-.77,2.08l-1.4,9.92Z" transform="translate(-1.24 -5.54)"/><path class="cls-2" d="M1165.9,462.86a7.5,7.5,0,0,1-3.46-.76,4.94,4.94,0,0,1-2.24-2.23,6.07,6.07,0,0,1-.44-3.61,7.24,7.24,0,0,1,3.47-5.22q3-1.86,8.55-1.86h1.6l.12-.88a1.54,1.54,0,0,0-.34-1.46,2.19,2.19,0,0,0-1.62-.42,5.92,5.92,0,0,0-1.84.38,3.15,3.15,0,0,0-1.66,1.42h-6.26a7.33,7.33,0,0,1,2.07-4,9.32,9.32,0,0,1,3.86-2.2,17.12,17.12,0,0,1,5-.69,14.24,14.24,0,0,1,5.46.82,4.46,4.46,0,0,1,2.52,2.27,6.13,6.13,0,0,1,.34,3.35l-2.24,14.64h-6.4l-.18-3.28a7.65,7.65,0,0,1-2.72,2.89A7.29,7.29,0,0,1,1165.9,462.86Zm3.44-4.92a3,3,0,0,0,1.09-.2,3.17,3.17,0,0,0,.92-.55,3.7,3.7,0,0,0,.69-.79,2.74,2.74,0,0,0,.38-.94l.4-2.6h-1.24a7.7,7.7,0,0,0-1.61.23,5.39,5.39,0,0,0-1.82.79,2.26,2.26,0,0,0-1,1.58,2,2,0,0,0,.51,1.82A2.28,2.28,0,0,0,1169.34,457.94Z" transform="translate(-1.24 -5.54)"/><path class="cls-2" d="M1190.8,462.9a12,12,0,0,1-4.35-.61,4.05,4.05,0,0,1-2.08-1.59,4.2,4.2,0,0,1-.57-2.16,16.14,16.14,0,0,1,.16-2.32l3.56-23.48h7.6l-3.4,22.44a2.47,2.47,0,0,0,.16,1.4c.18.44.79.73,1.82.88l.8.08-.72,4.72c-.48.17-1,.32-1.49.45A6.09,6.09,0,0,1,1190.8,462.9Z" transform="translate(-1.24 -5.54)"/><path class="cls-2" d="M1062.46,510.86a12.15,12.15,0,0,1-4.18-.74,7.46,7.46,0,0,1-3.33-2.36,6.92,6.92,0,0,1-1.39-4.26h6.6a2.15,2.15,0,0,0,.71,1.48,2.86,2.86,0,0,0,1.26.62,5.72,5.72,0,0,0,1,.14,6.17,6.17,0,0,0,2.14-.31c.56-.21.87-.52.92-.93a.83.83,0,0,0-.41-.91,5,5,0,0,0-1.87-.53l-3-.48a8.84,8.84,0,0,1-4.51-2,4.69,4.69,0,0,1-1.25-4.28,6.73,6.73,0,0,1,1.57-3.48,8.91,8.91,0,0,1,3.54-2.48,13.8,13.8,0,0,1,5.25-.92c2.83,0,5,.61,6.47,1.84a5.08,5.08,0,0,1,1.77,5h-6.34a1.66,1.66,0,0,0-.86-1.39,3.61,3.61,0,0,0-1.84-.45,5,5,0,0,0-1.87.32,1.19,1.19,0,0,0-.87.92c0,.36.14.65.59.87a9.48,9.48,0,0,0,2.29.61l2.6.48a8.69,8.69,0,0,1,3,1.3,5.62,5.62,0,0,1,1.64,1.77,5,5,0,0,1,.63,1.86,5.75,5.75,0,0,1,0,1.55,6.49,6.49,0,0,1-1.76,3.73,9.26,9.26,0,0,1-3.7,2.29A14.73,14.73,0,0,1,1062.46,510.86Z" transform="translate(-1.24 -5.54)"/><path class="cls-2" d="M1085,510.78a11.36,11.36,0,0,1-4.87-.81,3.85,3.85,0,0,1-2.1-2.17,6.52,6.52,0,0,1-.25-3l1.48-9.72H1076l.8-5.28h3.6l2.14-6.44h6.26l-1,6.4h4.5l-.8,5.32H1087l-1.38,9.36c-.07.45,0,.75.23.9a1.47,1.47,0,0,0,.85.22h3.2l-.68,4.6a9.55,9.55,0,0,1-1.4.42A13,13,0,0,1,1085,510.78Z" transform="translate(-1.24 -5.54)"/><path class="cls-2" d="M1098.92,510.86a7.5,7.5,0,0,1-3.46-.76,4.94,4.94,0,0,1-2.24-2.23,6.07,6.07,0,0,1-.44-3.61,7.24,7.24,0,0,1,3.47-5.22q3-1.86,8.55-1.86h1.6l.12-.88a1.54,1.54,0,0,0-.34-1.46,2.19,2.19,0,0,0-1.62-.42,5.92,5.92,0,0,0-1.84.38,3.15,3.15,0,0,0-1.66,1.42h-6.26a7.33,7.33,0,0,1,2.07-4,9.32,9.32,0,0,1,3.86-2.2,17.12,17.12,0,0,1,5-.69,14.24,14.24,0,0,1,5.46.82,4.46,4.46,0,0,1,2.52,2.27,6.13,6.13,0,0,1,.34,3.35l-2.24,14.64h-6.4l-.18-3.28a7.65,7.65,0,0,1-2.72,2.89A7.29,7.29,0,0,1,1098.92,510.86Zm3.44-4.92a3,3,0,0,0,1.09-.2,3.17,3.17,0,0,0,.92-.55,3.7,3.7,0,0,0,.69-.79,2.74,2.74,0,0,0,.38-.94l.4-2.6h-1.24a7.7,7.7,0,0,0-1.61.23,5.39,5.39,0,0,0-1.82.79,2.26,2.26,0,0,0-1,1.58,2,2,0,0,0,.51,1.82A2.28,2.28,0,0,0,1102.36,505.94Z" transform="translate(-1.24 -5.54)"/><path class="cls-2" d="M1125.34,510.78a11.36,11.36,0,0,1-4.87-.81,3.85,3.85,0,0,1-2.1-2.17,6.52,6.52,0,0,1-.25-3l1.48-9.72h-3.32l.8-5.28h3.6l2.14-6.44h6.26l-1,6.4h4.5l-.8,5.32h-4.5l-1.38,9.36c-.07.45,0,.75.23.9a1.47,1.47,0,0,0,.85.22h3.2l-.68,4.6a9.55,9.55,0,0,1-1.4.42A13,13,0,0,1,1125.34,510.78Z" transform="translate(-1.24 -5.54)"/><path class="cls-2" d="M1133.3,510.46l2.92-20.68h7.4l-2.92,20.68Zm3.16-22.36.92-6.56h7.4l-.92,6.56Z" transform="translate(-1.24 -5.54)"/><path class="cls-2" d="M1154.14,510.86a9.61,9.61,0,0,1-5.29-1.36,7.54,7.54,0,0,1-3-3.75,10.73,10.73,0,0,1-.45-5.49,13.32,13.32,0,0,1,2.21-5.71,12.11,12.11,0,0,1,4.28-3.81,11.75,11.75,0,0,1,5.61-1.36,9.48,9.48,0,0,1,5.36,1.41,7.64,7.64,0,0,1,3,3.87,11.32,11.32,0,0,1,.41,5.6,13,13,0,0,1-2.13,5.47,11.85,11.85,0,0,1-4.2,3.76A12,12,0,0,1,1154.14,510.86Zm.94-5.64a2.49,2.49,0,0,0,2-.85,5.94,5.94,0,0,0,1.15-2.07,13.89,13.89,0,0,0,.56-2.32,11.61,11.61,0,0,0,.13-2.29,3.93,3.93,0,0,0-.55-2,1.87,1.87,0,0,0-1.72-.79,2.67,2.67,0,0,0-2,.79,5,5,0,0,0-1.14,2,14.28,14.28,0,0,0-.54,2.29,13.42,13.42,0,0,0-.13,2.32,4.28,4.28,0,0,0,.53,2.07A1.86,1.86,0,0,0,1155.08,505.22Z" transform="translate(-1.24 -5.54)"/><path class="cls-2" d="M1167.8,510.46l3.18-20.68h7.62l-.36,2.48c.49-.44,1-.85,1.49-1.24a6.33,6.33,0,0,1,1.79-.95,8,8,0,0,1,2.66-.37,6.44,6.44,0,0,1,3.31.89,6.12,6.12,0,0,1,2.33,2.43,5.43,5.43,0,0,1,.5,3.48l-2.12,14h-7.76l2-12.92a1.3,1.3,0,0,0-.54-1.38,2.62,2.62,0,0,0-1.54-.5,3.43,3.43,0,0,0-1.18.23,3.14,3.14,0,0,0-1.07.65,1.62,1.62,0,0,0-.53,1l-2,12.92Z" transform="translate(-1.24 -5.54)"/><path class="cls-2" d="M625.72,891.86a18.48,18.48,0,0,1-4.41-.53,11.92,11.92,0,0,1-3.83-1.65,7.86,7.86,0,0,1-2.61-2.86,7.5,7.5,0,0,1-.75-4.16h8a3.14,3.14,0,0,0,.6,1.74,3.44,3.44,0,0,0,1.5,1.11,6.12,6.12,0,0,0,2.3.39,11.19,11.19,0,0,0,2.34-.24,4.79,4.79,0,0,0,1.89-.81,2.37,2.37,0,0,0,.93-1.59,1.32,1.32,0,0,0-.49-1.36,4.49,4.49,0,0,0-1.69-.74c-.71-.17-1.46-.33-2.26-.46l-4.34-.76a7.81,7.81,0,0,1-5.05-2.69,7.44,7.44,0,0,1-1.25-5.83,8.94,8.94,0,0,1,2.37-5,12.69,12.69,0,0,1,4.86-3.16,17.48,17.48,0,0,1,6.21-1.09,13.23,13.23,0,0,1,6.07,1.29,9.65,9.65,0,0,1,3.87,3.37,7.48,7.48,0,0,1,1.24,4.46H633.4a3,3,0,0,0-.39-1.81,2.56,2.56,0,0,0-1.37-1,7.09,7.09,0,0,0-2.28-.31,7,7,0,0,0-2.42.35,3.17,3.17,0,0,0-1.35.88,2.14,2.14,0,0,0-.51,1.05,1.84,1.84,0,0,0,.41,1.58,4.52,4.52,0,0,0,2.37.94l4.34.76a11.9,11.9,0,0,1,4.68,1.67,6.14,6.14,0,0,1,2.24,2.55,7.29,7.29,0,0,1,.64,2.82,15.59,15.59,0,0,1-.14,2.48,7.78,7.78,0,0,1-2.3,4.41,13.53,13.53,0,0,1-5,3.07A18.89,18.89,0,0,1,625.72,891.86Z" transform="translate(-1.24 -5.54)"/><path class="cls-2" d="M651.44,891.78a11.36,11.36,0,0,1-4.87-.81,3.85,3.85,0,0,1-2.1-2.17,6.52,6.52,0,0,1-.25-3l1.48-9.72h-3.32l.8-5.28h3.6l2.14-6.44h6.26l-1,6.4h4.5l-.8,5.32h-4.5L652,885.42c-.07.45,0,.75.23.9a1.47,1.47,0,0,0,.85.22h3.2l-.68,4.6a9.55,9.55,0,0,1-1.4.42A13,13,0,0,1,651.44,891.78Z" transform="translate(-1.24 -5.54)"/><path class="cls-2" d="M665.32,891.86a7.5,7.5,0,0,1-3.46-.76,4.94,4.94,0,0,1-2.24-2.23,6.07,6.07,0,0,1-.44-3.61,7.24,7.24,0,0,1,3.47-5.22q3-1.86,8.55-1.86h1.6l.12-.88a1.54,1.54,0,0,0-.34-1.46,2.19,2.19,0,0,0-1.62-.42,5.92,5.92,0,0,0-1.84.38,3.15,3.15,0,0,0-1.66,1.42H661.2a7.33,7.33,0,0,1,2.07-4,9.32,9.32,0,0,1,3.86-2.2,17.12,17.12,0,0,1,5-.69,14.24,14.24,0,0,1,5.46.82,4.46,4.46,0,0,1,2.52,2.27,6.13,6.13,0,0,1,.34,3.35l-2.24,14.64h-6.4l-.18-3.28a7.65,7.65,0,0,1-2.72,2.89A7.29,7.29,0,0,1,665.32,891.86Zm3.44-4.92a3,3,0,0,0,1.09-.2,3.17,3.17,0,0,0,.92-.55,3.7,3.7,0,0,0,.69-.79,2.74,2.74,0,0,0,.38-.94l.4-2.6H671a7.7,7.7,0,0,0-1.61.23,5.39,5.39,0,0,0-1.82.79,2.26,2.26,0,0,0-1,1.58,2,2,0,0,0,.51,1.82A2.28,2.28,0,0,0,668.76,886.94Z" transform="translate(-1.24 -5.54)"/><path class="cls-2" d="M691.74,891.78a11.36,11.36,0,0,1-4.87-.81,3.85,3.85,0,0,1-2.1-2.17,6.52,6.52,0,0,1-.25-3l1.48-9.72h-3.32l.8-5.28h3.6l2.14-6.44h6.26l-1,6.4H699l-.8,5.32h-4.5l-1.38,9.36c-.07.45,0,.75.23.9a1.47,1.47,0,0,0,.85.22h3.2l-.68,4.6a9.55,9.55,0,0,1-1.4.42A13,13,0,0,1,691.74,891.78Z" transform="translate(-1.24 -5.54)"/><path class="cls-2" d="M699.7,891.46l2.92-20.68H710l-2.92,20.68Zm3.16-22.36.92-6.56h7.4l-.92,6.56Z" transform="translate(-1.24 -5.54)"/><path class="cls-2" d="M720.54,891.86a9.61,9.61,0,0,1-5.29-1.36,7.54,7.54,0,0,1-3-3.75,10.73,10.73,0,0,1-.45-5.49,13.32,13.32,0,0,1,2.21-5.71,12.11,12.11,0,0,1,4.28-3.81,11.75,11.75,0,0,1,5.61-1.36,9.48,9.48,0,0,1,5.36,1.41,7.64,7.64,0,0,1,3,3.87,11.32,11.32,0,0,1,.41,5.6,13,13,0,0,1-2.13,5.47,11.85,11.85,0,0,1-4.2,3.76A12,12,0,0,1,720.54,891.86Zm.94-5.64a2.49,2.49,0,0,0,2-.85,5.94,5.94,0,0,0,1.15-2.07,13.89,13.89,0,0,0,.56-2.32,11.61,11.61,0,0,0,.13-2.29,3.93,3.93,0,0,0-.55-2,1.87,1.87,0,0,0-1.72-.79,2.67,2.67,0,0,0-2,.79,5,5,0,0,0-1.14,2,14.28,14.28,0,0,0-.54,2.29,13.42,13.42,0,0,0-.13,2.32,4.28,4.28,0,0,0,.53,2.07A1.86,1.86,0,0,0,721.48,886.22Z" transform="translate(-1.24 -5.54)"/><path class="cls-2" d="M734.2,891.46l3.18-20.68H745l-.36,2.48c.49-.44,1-.85,1.49-1.24a6.47,6.47,0,0,1,1.79-.95,8,8,0,0,1,2.66-.37,6.44,6.44,0,0,1,3.31.89,6.05,6.05,0,0,1,2.33,2.43,5.36,5.36,0,0,1,.5,3.48l-2.12,14h-7.76l2-12.92a1.27,1.27,0,0,0-.54-1.38,2.62,2.62,0,0,0-1.54-.5,3.47,3.47,0,0,0-1.18.23,3.14,3.14,0,0,0-1.07.65,1.62,1.62,0,0,0-.53,1l-2,12.92Z" transform="translate(-1.24 -5.54)"/><path class="cls-2" d="M628.09,939.86a12.15,12.15,0,0,1-4.18-.74,7.46,7.46,0,0,1-3.33-2.36,6.92,6.92,0,0,1-1.39-4.26h6.6a2.15,2.15,0,0,0,.71,1.48,2.86,2.86,0,0,0,1.26.62,5.72,5.72,0,0,0,1,.14,6.17,6.17,0,0,0,2.14-.31c.56-.21.87-.52.92-.93a.83.83,0,0,0-.41-.91,5,5,0,0,0-1.87-.53l-3-.48a8.84,8.84,0,0,1-4.51-2,4.69,4.69,0,0,1-1.25-4.28,6.73,6.73,0,0,1,1.57-3.48,8.91,8.91,0,0,1,3.54-2.48,13.8,13.8,0,0,1,5.25-.92c2.83,0,5,.61,6.47,1.84a5.08,5.08,0,0,1,1.77,5h-6.34a1.66,1.66,0,0,0-.86-1.39,3.61,3.61,0,0,0-1.84-.45,5,5,0,0,0-1.87.32,1.19,1.19,0,0,0-.87.92c0,.36.14.65.59.87a9.48,9.48,0,0,0,2.29.61l2.6.48a8.69,8.69,0,0,1,3,1.3,5.62,5.62,0,0,1,1.64,1.77,5,5,0,0,1,.63,1.86,5.75,5.75,0,0,1,0,1.55,6.49,6.49,0,0,1-1.76,3.73,9.26,9.26,0,0,1-3.7,2.29A14.73,14.73,0,0,1,628.09,939.86Z" transform="translate(-1.24 -5.54)"/><path class="cls-2" d="M660.21,945.9h-7.78l1.26-9a7.26,7.26,0,0,1-1.82,1.7,7.48,7.48,0,0,1-2,.93,6.87,6.87,0,0,1-1.86.29,7.6,7.6,0,0,1-4-1.06,6.29,6.29,0,0,1-2.64-3.43,13.45,13.45,0,0,1-.3-6.31,17.29,17.29,0,0,1,1.85-6,9.33,9.33,0,0,1,3.21-3.51,7.65,7.65,0,0,1,4-1.14,9.14,9.14,0,0,1,1.52.14,7.41,7.41,0,0,1,1.57.46,5.91,5.91,0,0,1,1.44.86,5,5,0,0,1,1.15,1.34l.34-2.4H664Zm-9.38-11.6a2.77,2.77,0,0,0,2-.78,5.61,5.61,0,0,0,1.33-2,10.44,10.44,0,0,0,.68-2.47,7.84,7.84,0,0,0-.26-3.65,2.17,2.17,0,0,0-2.26-1.55,3.37,3.37,0,0,0-2.47,1.34,7.17,7.17,0,0,0-1.53,3.86c-.25,1.85-.11,3.19.44,4A2.45,2.45,0,0,0,650.83,934.3Z" transform="translate(-1.24 -5.54)"/><path class="cls-2" d="M672.69,939.86a8,8,0,0,1-2.56-.43,7.69,7.69,0,0,1-2.36-1.27,5.6,5.6,0,0,1-1.63-2,4.78,4.78,0,0,1-.35-2.77l2-14.56h7.8l-1.9,13.48a1.76,1.76,0,0,0,.45,1.51,2.27,2.27,0,0,0,1.75.61,3,3,0,0,0,1.94-.61,2.27,2.27,0,0,0,.88-1.51l1.9-13.48h7.72l-2.9,20.68h-5.76l-.32-4.24a6.3,6.3,0,0,1-1.87,3,6.19,6.19,0,0,1-2.52,1.29A10.46,10.46,0,0,1,672.69,939.86Z" transform="translate(-1.24 -5.54)"/><path class="cls-2" d="M695.39,939.86a7.5,7.5,0,0,1-3.46-.76,4.94,4.94,0,0,1-2.24-2.23,6.07,6.07,0,0,1-.44-3.61,7.24,7.24,0,0,1,3.47-5.22q3-1.86,8.55-1.86h1.6l.12-.88a1.54,1.54,0,0,0-.34-1.46,2.19,2.19,0,0,0-1.62-.42,5.92,5.92,0,0,0-1.84.38,3.15,3.15,0,0,0-1.66,1.42h-6.26a7.33,7.33,0,0,1,2.07-4,9.32,9.32,0,0,1,3.86-2.2,17.12,17.12,0,0,1,4.95-.69,14.24,14.24,0,0,1,5.46.82,4.46,4.46,0,0,1,2.52,2.27,6.13,6.13,0,0,1,.34,3.35l-2.24,14.64h-6.4l-.18-3.28a7.65,7.65,0,0,1-2.72,2.89A7.29,7.29,0,0,1,695.39,939.86Zm3.44-4.92a3,3,0,0,0,1.09-.2,3.17,3.17,0,0,0,.92-.55,3.7,3.7,0,0,0,.69-.79,2.74,2.74,0,0,0,.38-.94l.4-2.6h-1.24a7.7,7.7,0,0,0-1.61.23,5.39,5.39,0,0,0-1.82.79,2.26,2.26,0,0,0-1,1.58,2,2,0,0,0,.51,1.82A2.28,2.28,0,0,0,698.83,934.94Z" transform="translate(-1.24 -5.54)"/><path class="cls-2" d="M712.59,939.46l2.9-20.68H723l-.8,5.72a13.28,13.28,0,0,1,1.79-3,8.61,8.61,0,0,1,2.59-2.23,6.88,6.88,0,0,1,3.42-.84h.3l-1,7.36-.1,0-.14,0a10.58,10.58,0,0,0-4.37.23,3.82,3.82,0,0,0-2.12,1.53,5.54,5.54,0,0,0-.77,2.08l-1.4,9.92Z" transform="translate(-1.24 -5.54)"/><path class="cls-2" d="M739.43,939.86a10.55,10.55,0,0,1-5.43-1.31,7.52,7.52,0,0,1-3.22-3.67,10.09,10.09,0,0,1-.51-5.5,13.59,13.59,0,0,1,2.06-5.46,12.49,12.49,0,0,1,4.19-4,11.29,11.29,0,0,1,5.85-1.52,9.39,9.39,0,0,1,5.41,1.4,7.1,7.1,0,0,1,2.79,3.83,12.1,12.1,0,0,1,.3,5.49l-.3,1.8H737.63a4,4,0,0,0,0,2,2,2,0,0,0,.91,1.14,3,3,0,0,0,1.48.36,4.74,4.74,0,0,0,2-.4,3.5,3.5,0,0,0,1.56-1.6h6.84a8.76,8.76,0,0,1-2.4,4,12.67,12.67,0,0,1-8.6,3.47Zm-1.22-13.32h5.9a3,3,0,0,0-.11-1.45,2,2,0,0,0-.83-1.07,2.83,2.83,0,0,0-1.6-.4,3,3,0,0,0-1.51.4,3.69,3.69,0,0,0-1.22,1.07A3.4,3.4,0,0,0,738.21,926.54Z" transform="translate(-1.24 -5.54)"/><path class="cls-2" d="M28.86,633.86c-3.09,0-5.47-.52-7.12-1.56A7.15,7.15,0,0,1,18.52,628a16.13,16.13,0,0,1-.2-6.46l2.56-17h7.86L26.1,621.82a6.45,6.45,0,0,0,.16,3.21,3.29,3.29,0,0,0,1.42,1.76,4.28,4.28,0,0,0,2.18.55,5.33,5.33,0,0,0,3.37-1.26,6.37,6.37,0,0,0,2-4.26l2.6-17.28H45.7l-2.56,17A18.24,18.24,0,0,1,41,628a11.14,11.14,0,0,1-4.55,4.34A16.14,16.14,0,0,1,28.86,633.86Z" transform="translate(-1.24 -5.54)"/><path class="cls-2" d="M45.78,633.46,49,612.78h7.62l-.36,2.48c.49-.44,1-.85,1.49-1.24a6.47,6.47,0,0,1,1.79-.95,8,8,0,0,1,2.66-.37,6.44,6.44,0,0,1,3.31.89A6.05,6.05,0,0,1,67.8,616a5.36,5.36,0,0,1,.5,3.48l-2.12,14H58.42l2-12.92a1.27,1.27,0,0,0-.54-1.38,2.62,2.62,0,0,0-1.54-.5,3.47,3.47,0,0,0-1.18.23,3.14,3.14,0,0,0-1.07.65,1.62,1.62,0,0,0-.53,1l-2,12.92Z" transform="translate(-1.24 -5.54)"/><path class="cls-2" d="M70.34,633.46l2.92-20.68h7.4l-2.92,20.68ZM73.5,611.1l.92-6.56h7.4l-.92,6.56Z" transform="translate(-1.24 -5.54)"/><path class="cls-2" d="M87.88,633.46,83,612.78h6.88l2,10.56L97,612.78h7L92.84,633.46Z" transform="translate(-1.24 -5.54)"/><path class="cls-2" d="M111.9,633.86a10.6,10.6,0,0,1-5.43-1.31,7.52,7.52,0,0,1-3.22-3.67,10.09,10.09,0,0,1-.51-5.5,13.59,13.59,0,0,1,2.06-5.46,12.49,12.49,0,0,1,4.19-4,11.29,11.29,0,0,1,5.85-1.52,9.39,9.39,0,0,1,5.41,1.4,7.1,7.1,0,0,1,2.79,3.83,12.1,12.1,0,0,1,.3,5.49l-.3,1.8H110.1a4,4,0,0,0,.05,2,2,2,0,0,0,.91,1.14,3,3,0,0,0,1.48.36,4.71,4.71,0,0,0,2-.4,3.5,3.5,0,0,0,1.56-1.6h6.84a8.76,8.76,0,0,1-2.4,4,12.67,12.67,0,0,1-8.6,3.47Zm-1.22-13.32h5.9a3,3,0,0,0-.11-1.45,2,2,0,0,0-.83-1.07,2.81,2.81,0,0,0-1.6-.4,3.08,3.08,0,0,0-1.51.4,3.69,3.69,0,0,0-1.22,1.07A3.4,3.4,0,0,0,110.68,620.54Z" transform="translate(-1.24 -5.54)"/><path class="cls-2" d="M125,633.46l2.9-20.68h7.52l-.8,5.72a13.28,13.28,0,0,1,1.79-3,8.61,8.61,0,0,1,2.59-2.23,6.88,6.88,0,0,1,3.42-.84h.3l-1,7.36-.1,0-.14,0a10.58,10.58,0,0,0-4.37.23,3.82,3.82,0,0,0-2.12,1.53,5.54,5.54,0,0,0-.77,2.08l-1.4,9.92Z" transform="translate(-1.24 -5.54)"/><path class="cls-2" d="M150.86,633.86a12.15,12.15,0,0,1-4.18-.74,7.46,7.46,0,0,1-3.33-2.36A6.92,6.92,0,0,1,142,626.5h6.6a2.15,2.15,0,0,0,.71,1.48,2.86,2.86,0,0,0,1.26.62,5.72,5.72,0,0,0,1,.14,6.17,6.17,0,0,0,2.14-.31c.56-.21.87-.52.92-.93a.83.83,0,0,0-.41-.91,5,5,0,0,0-1.87-.53l-3-.48a8.84,8.84,0,0,1-4.51-2,4.69,4.69,0,0,1-1.25-4.28,6.73,6.73,0,0,1,1.57-3.48,8.91,8.91,0,0,1,3.54-2.48,13.8,13.8,0,0,1,5.25-.92c2.83,0,5,.61,6.47,1.84a5.08,5.08,0,0,1,1.77,5h-6.34a1.66,1.66,0,0,0-.86-1.39,3.61,3.61,0,0,0-1.84-.45,5,5,0,0,0-1.87.32,1.19,1.19,0,0,0-.87.92c-.05.36.14.65.59.87a9.48,9.48,0,0,0,2.29.61l2.6.48a8.69,8.69,0,0,1,3,1.3,5.62,5.62,0,0,1,1.64,1.77,5,5,0,0,1,.63,1.86,5.75,5.75,0,0,1,0,1.55,6.49,6.49,0,0,1-1.76,3.73,9.26,9.26,0,0,1-3.7,2.29A14.73,14.73,0,0,1,150.86,633.86Z" transform="translate(-1.24 -5.54)"/><path class="cls-2" d="M163.6,633.46l2.92-20.68h7.4L171,633.46Zm3.16-22.36.92-6.56h7.4l-.92,6.56Z" transform="translate(-1.24 -5.54)"/><path class="cls-2" d="M185.06,633.78a11.36,11.36,0,0,1-4.87-.81,3.85,3.85,0,0,1-2.1-2.17,6.52,6.52,0,0,1-.25-3l1.48-9.72H176l.8-5.28h3.6l2.14-6.44h6.26l-1,6.4h4.5l-.8,5.32H187l-1.38,9.36c-.07.45,0,.75.23.9a1.47,1.47,0,0,0,.85.22h3.2l-.68,4.6a9.55,9.55,0,0,1-1.4.42A13,13,0,0,1,185.06,633.78Z" transform="translate(-1.24 -5.54)"/><path class="cls-2" d="M195.86,640.06a10.33,10.33,0,0,1-4.32-.88l.72-4.92,2,.12a6.8,6.8,0,0,0,2.95-.23,2.56,2.56,0,0,0,1.25-.88c.2-.33.32-.53.36-.61l.16-.4-5-19.48h7.6L203.66,624l5.76-11.24H217L206,632.26a24.17,24.17,0,0,1-3.49,4.94,9.06,9.06,0,0,1-3.28,2.27A10.06,10.06,0,0,1,195.86,640.06Z" transform="translate(-1.24 -5.54)"/><path class="cls-2" d="M41.6,681.86a9.61,9.61,0,0,1-5.29-1.36,7.54,7.54,0,0,1-3-3.75,10.73,10.73,0,0,1-.45-5.49A13.32,13.32,0,0,1,35,665.55a12.11,12.11,0,0,1,4.28-3.81,11.75,11.75,0,0,1,5.61-1.36,9.48,9.48,0,0,1,5.36,1.41,7.64,7.64,0,0,1,3,3.87,11.32,11.32,0,0,1,.41,5.6,13,13,0,0,1-2.13,5.47,11.85,11.85,0,0,1-4.2,3.76A12,12,0,0,1,41.6,681.86Zm.94-5.64a2.49,2.49,0,0,0,2-.85,5.94,5.94,0,0,0,1.15-2.07,13.89,13.89,0,0,0,.56-2.32,11.61,11.61,0,0,0,.13-2.29,3.93,3.93,0,0,0-.55-2,1.87,1.87,0,0,0-1.72-.79,2.67,2.67,0,0,0-2,.79,5,5,0,0,0-1.14,2,14.28,14.28,0,0,0-.54,2.29,13.42,13.42,0,0,0-.13,2.32,4.28,4.28,0,0,0,.53,2.07A1.86,1.86,0,0,0,42.54,676.22Z" transform="translate(-1.24 -5.54)"/><path class="cls-2" d="M56.6,681.46l2.34-15.4h-3.3l.8-5.28h3.3l.42-2.76a6.06,6.06,0,0,1,2.27-4,7.46,7.46,0,0,1,4.71-1.46h5.5l-.74,5H69.54a2,2,0,0,0-1.42.43,2.93,2.93,0,0,0-.64,1.57l-.16,1.2h3.9l-.8,5.28H66.68l-2.36,15.4Z" transform="translate(-1.24 -5.54)"/><path class="cls-2" d="M79.28,681.46l4.42-28.92h7.72L88,675.06H99.5l-1,6.4Z" transform="translate(-1.24 -5.54)"/><path class="cls-2" d="M108.8,681.86a7.5,7.5,0,0,1-3.46-.76,4.94,4.94,0,0,1-2.24-2.23,6.07,6.07,0,0,1-.44-3.61,7.24,7.24,0,0,1,3.47-5.22q3-1.86,8.55-1.86h1.6l.12-.88a1.54,1.54,0,0,0-.34-1.46,2.19,2.19,0,0,0-1.62-.42,5.92,5.92,0,0,0-1.84.38,3.15,3.15,0,0,0-1.66,1.42h-6.26a7.33,7.33,0,0,1,2.07-4,9.32,9.32,0,0,1,3.86-2.2,17.12,17.12,0,0,1,5-.69,14.24,14.24,0,0,1,5.46.82,4.46,4.46,0,0,1,2.52,2.27,6.13,6.13,0,0,1,.34,3.35l-2.24,14.64h-6.4l-.18-3.28a7.65,7.65,0,0,1-2.72,2.89A7.29,7.29,0,0,1,108.8,681.86Zm3.44-4.92a3,3,0,0,0,1.09-.2,3.17,3.17,0,0,0,.92-.55,3.7,3.7,0,0,0,.69-.79,2.74,2.74,0,0,0,.38-.94l.4-2.6h-1.24a7.7,7.7,0,0,0-1.61.23,5.39,5.39,0,0,0-1.82.79,2.26,2.26,0,0,0-1,1.58,2,2,0,0,0,.51,1.82A2.28,2.28,0,0,0,112.24,676.94Z" transform="translate(-1.24 -5.54)"/><path class="cls-2" d="M135.22,681.78a11.36,11.36,0,0,1-4.87-.81,3.85,3.85,0,0,1-2.1-2.17,6.52,6.52,0,0,1-.25-3l1.48-9.72h-3.32l.8-5.28h3.6l2.14-6.44H139l-1,6.4h4.5l-.8,5.32h-4.5l-1.38,9.36c-.07.45,0,.75.23.9a1.47,1.47,0,0,0,.85.22h3.2l-.68,4.6a9.55,9.55,0,0,1-1.4.42A13,13,0,0,1,135.22,681.78Z" transform="translate(-1.24 -5.54)"/><path class="cls-2" d="M148.9,681.46l-4.84-20.68h6.88l2,10.56L158,660.78h7l-11.16,20.68Z" transform="translate(-1.24 -5.54)"/><path class="cls-2" d="M164.44,681.46l2.92-20.68h7.4l-2.92,20.68Zm3.16-22.36.92-6.56h7.4L175,659.1Z" transform="translate(-1.24 -5.54)"/><path class="cls-2" d="M182.18,681.86a7.5,7.5,0,0,1-3.46-.76,4.94,4.94,0,0,1-2.24-2.23,6.07,6.07,0,0,1-.44-3.61,7.24,7.24,0,0,1,3.47-5.22q3-1.86,8.55-1.86h1.6l.12-.88a1.54,1.54,0,0,0-.34-1.46,2.22,2.22,0,0,0-1.62-.42,5.92,5.92,0,0,0-1.84.38,3.15,3.15,0,0,0-1.66,1.42h-6.26a7.33,7.33,0,0,1,2.07-4,9.32,9.32,0,0,1,3.86-2.2,17.12,17.12,0,0,1,4.95-.69,14.24,14.24,0,0,1,5.46.82,4.49,4.49,0,0,1,2.52,2.27,6.13,6.13,0,0,1,.34,3.35L195,681.46h-6.4l-.18-3.28a7.65,7.65,0,0,1-2.72,2.89A7.32,7.32,0,0,1,182.18,681.86Zm3.44-4.92a3.06,3.06,0,0,0,1.09-.2,3.31,3.31,0,0,0,.92-.55,3.7,3.7,0,0,0,.69-.79,3,3,0,0,0,.38-.94l.4-2.6h-1.24a7.7,7.7,0,0,0-1.61.23,5.39,5.39,0,0,0-1.82.79,2.22,2.22,0,0,0-1,1.58,2,2,0,0,0,.51,1.82A2.28,2.28,0,0,0,185.62,676.94Z" transform="translate(-1.24 -5.54)"/></g></g></g></g></g></svg>