<svg xmlns="http://www.w3.org/2000/svg" viewBox="0 0 1023.09 770.01"><defs><style>.cls-1{fill:none;stroke:#b72538;stroke-miterlimit:10;stroke-width:10px;}.cls-2{fill:#fff;}</style></defs><g id="Layer_2" data-name="Layer 2"><g id="Homepage"><g id="Route"><g id="Layer_28" data-name="Layer 28"><g id="Route-2" data-name="Route"><g id="Layer_30" data-name="Layer 30"><path class="cls-1" d="M183.49,601.08C401.28,842.91,789.22,834.22,952.67,513,1004.91,410.53,1133-1.43,785.46,118c-224.06,58.84-492.19,101-685-39" transform="translate(-1.24 -4.74)"/><polyline class="cls-1" points="222.29 699.75 174.2 584.52 282.24 654.48"/></g><path class="cls-2" d="M1.24,49.46,5.32,20.54H13.1l-1.54,11h10l1.54-11h7.78L26.78,49.46H19l1.64-11.6h-10L9,49.46Z" transform="translate(-1.24 -4.74)"/><path class="cls-2" d="M39.9,49.86a9.61,9.61,0,0,1-5.29-1.36,7.54,7.54,0,0,1-3-3.75,10.73,10.73,0,0,1-.45-5.49,13.32,13.32,0,0,1,2.21-5.71,12.11,12.11,0,0,1,4.28-3.81,11.75,11.75,0,0,1,5.61-1.36,9.48,9.48,0,0,1,5.36,1.41,7.64,7.64,0,0,1,3,3.87,11.32,11.32,0,0,1,.41,5.6,13,13,0,0,1-2.13,5.47,11.85,11.85,0,0,1-4.2,3.76A12,12,0,0,1,39.9,49.86Zm.94-5.64a2.49,2.49,0,0,0,2-.85A5.94,5.94,0,0,0,44,41.3,13.89,13.89,0,0,0,44.52,39a11.61,11.61,0,0,0,.13-2.29,3.93,3.93,0,0,0-.55-2,1.87,1.87,0,0,0-1.72-.79,2.67,2.67,0,0,0-2,.79,5,5,0,0,0-1.14,2A14.28,14.28,0,0,0,38.68,39a13.42,13.42,0,0,0-.13,2.32,4.28,4.28,0,0,0,.53,2.07A1.86,1.86,0,0,0,40.84,44.22Z" transform="translate(-1.24 -4.74)"/><path class="cls-2" d="M53.56,49.46,56.7,28.78h7.62l-.4,2.48a9.9,9.9,0,0,1,3-2.06A9.71,9.71,0,0,1,71,28.38,7.69,7.69,0,0,1,74,29a4.22,4.22,0,0,1,2.24,2.25,9.54,9.54,0,0,1,3.17-2.1A9.17,9.17,0,0,1,83,28.38a6.37,6.37,0,0,1,2.32.44,5.77,5.77,0,0,1,2,1.28,5.06,5.06,0,0,1,1.26,2,5.79,5.79,0,0,1,.16,2.75l-2.2,14.56H78.72l2.1-13.64a1.33,1.33,0,0,0-.2-1,1.88,1.88,0,0,0-.81-.66,2.66,2.66,0,0,0-1.09-.23,3.09,3.09,0,0,0-1.71.39,2.26,2.26,0,0,0-.86,1.1,9,9,0,0,0-.43,1.67l-1.88,12.4H66.12L68.2,35.82a1.29,1.29,0,0,0-.18-1,1.88,1.88,0,0,0-.83-.66,2.79,2.79,0,0,0-1.11-.23,3.23,3.23,0,0,0-1.15.23,2.89,2.89,0,0,0-1,.66,1.86,1.86,0,0,0-.53,1l-2.1,13.64Z" transform="translate(-1.24 -4.74)"/><path class="cls-2" d="M100.1,49.86a10.6,10.6,0,0,1-5.43-1.31,7.52,7.52,0,0,1-3.22-3.67,10.09,10.09,0,0,1-.51-5.5A13.59,13.59,0,0,1,93,33.92a12.49,12.49,0,0,1,4.19-4A11.29,11.29,0,0,1,103,28.38a9.39,9.39,0,0,1,5.41,1.4,7.1,7.1,0,0,1,2.79,3.83,12.1,12.1,0,0,1,.3,5.49l-.3,1.8H98.3a4,4,0,0,0,0,2,2,2,0,0,0,.91,1.14,3,3,0,0,0,1.48.36,4.71,4.71,0,0,0,2-.4,3.5,3.5,0,0,0,1.56-1.6h6.84a8.76,8.76,0,0,1-2.4,4,12.67,12.67,0,0,1-8.6,3.47ZM98.88,36.54h5.9a3,3,0,0,0-.11-1.45,2,2,0,0,0-.83-1.07,2.81,2.81,0,0,0-1.6-.4,3.08,3.08,0,0,0-1.51.4,3.69,3.69,0,0,0-1.22,1.07A3.4,3.4,0,0,0,98.88,36.54Z" transform="translate(-1.24 -4.74)"/><path class="cls-2" d="M397.25,34.86a18.48,18.48,0,0,1-4.41-.53A11.92,11.92,0,0,1,389,32.68a7.86,7.86,0,0,1-2.61-2.86,7.5,7.5,0,0,1-.75-4.16h8a3.14,3.14,0,0,0,.6,1.74,3.44,3.44,0,0,0,1.5,1.11,6.12,6.12,0,0,0,2.3.39,11.19,11.19,0,0,0,2.34-.24,4.79,4.79,0,0,0,1.89-.81,2.37,2.37,0,0,0,.93-1.59,1.32,1.32,0,0,0-.49-1.36,4.49,4.49,0,0,0-1.69-.74c-.71-.17-1.46-.33-2.26-.46l-4.34-.76a7.81,7.81,0,0,1-5.05-2.69,7.44,7.44,0,0,1-1.25-5.83,8.94,8.94,0,0,1,2.37-5,12.69,12.69,0,0,1,4.86-3.16,17.48,17.48,0,0,1,6.21-1.09,13.23,13.23,0,0,1,6.07,1.29,9.65,9.65,0,0,1,3.87,3.37,7.48,7.48,0,0,1,1.24,4.46h-7.86a3,3,0,0,0-.39-1.81,2.56,2.56,0,0,0-1.37-1,7.09,7.09,0,0,0-2.28-.31,7,7,0,0,0-2.42.35,3.17,3.17,0,0,0-1.35.88,2.14,2.14,0,0,0-.51,1.05A1.84,1.84,0,0,0,397,15a4.52,4.52,0,0,0,2.37.94l4.34.76a11.9,11.9,0,0,1,4.68,1.67A6.14,6.14,0,0,1,410.65,21a7.29,7.29,0,0,1,.64,2.82,15.59,15.59,0,0,1-.14,2.48,7.78,7.78,0,0,1-2.3,4.41,13.53,13.53,0,0,1-5,3.07A18.89,18.89,0,0,1,397.25,34.86Z" transform="translate(-1.24 -4.74)"/><path class="cls-2" d="M413.73,34.46l2.92-20.68h7.4l-2.92,20.68Zm3.16-22.36.92-6.56h7.4l-.92,6.56Z" transform="translate(-1.24 -4.74)"/><path class="cls-2" d="M434.93,41.3c-4.17,0-7.23-.51-9.16-1.53s-2.8-2.24-2.6-3.67a2.44,2.44,0,0,1,.78-1.5,4.64,4.64,0,0,1,1.45-.9,12,12,0,0,1,1.48-.48l.85-.22-.85-.52a3.94,3.94,0,0,1-1.18-1.19,2.83,2.83,0,0,1-.35-2,3.25,3.25,0,0,1,1.38-2,8.22,8.22,0,0,1,3.82-1.32,6,6,0,0,1-2.88-2.81,6.26,6.26,0,0,1-.64-3.67,5.2,5.2,0,0,1,1.73-3.15,10.1,10.1,0,0,1,3.86-2.1,18.09,18.09,0,0,1,5.43-.75,11,11,0,0,1,3.66.48A14.83,14.83,0,0,1,444,15l1.57-.59,1.88-.7,2-.75c.67-.25,1.3-.5,1.9-.74l-.64,5.6-3.68.7a7.08,7.08,0,0,1,0,1.82,6.38,6.38,0,0,1-1.55,3.18,9.43,9.43,0,0,1-3.6,2.52,14,14,0,0,1-5.49,1c-.41,0-.91,0-1.49,0l-1.25-.06-.69-.09c-.17,0-.24,0-.21.17.07.32.37.54.91.67a14,14,0,0,0,1.89.29c.45,0,1.05.08,1.8.11s1.51.08,2.28.15c2.93.19,5,.91,6.22,2.16a5.07,5.07,0,0,1,1.46,4.44,6.53,6.53,0,0,1-3.51,4.68Q440.67,41.3,434.93,41.3ZM436,37.22a6.09,6.09,0,0,0,3-.49,1.74,1.74,0,0,0,.88-1.23.75.75,0,0,0-.49-.78,4.6,4.6,0,0,0-1.73-.36l-3.74-.24a4.32,4.32,0,0,0-1.75.2,2.15,2.15,0,0,0-1,.68,1.85,1.85,0,0,0-.38.88q-.12.82,1.14,1.08A23,23,0,0,0,436,37.22Zm.48-14.32a3,3,0,0,0,2.17-.91,3.77,3.77,0,0,0,1.11-2.25,2.42,2.42,0,0,0-.31-1.74,1.6,1.6,0,0,0-1.45-.74,2.91,2.91,0,0,0-2.18,1,4.27,4.27,0,0,0-1.14,2.35,2.15,2.15,0,0,0,.34,1.64A1.7,1.7,0,0,0,436.47,22.9Z" transform="translate(-1.24 -4.74)"/><path class="cls-2" d="M457.87,34.86a8,8,0,0,1-2.56-.43A7.69,7.69,0,0,1,453,33.16a5.6,5.6,0,0,1-1.63-2,4.78,4.78,0,0,1-.35-2.77l2-14.56h7.8l-1.9,13.48a1.76,1.76,0,0,0,.45,1.51,2.27,2.27,0,0,0,1.75.61,3,3,0,0,0,1.94-.61,2.27,2.27,0,0,0,.88-1.51l1.9-13.48h7.72l-2.9,20.68h-5.76l-.32-4.24a6.3,6.3,0,0,1-1.87,3.05,6.19,6.19,0,0,1-2.52,1.29A10.46,10.46,0,0,1,457.87,34.86Z" transform="translate(-1.24 -4.74)"/><path class="cls-2" d="M482.17,34.9a12,12,0,0,1-4.35-.61,4.05,4.05,0,0,1-2.08-1.59,4.2,4.2,0,0,1-.57-2.16,16.14,16.14,0,0,1,.16-2.32l3.56-23.48h7.6l-3.4,22.44a2.47,2.47,0,0,0,.16,1.4c.19.44.79.73,1.82.88l.8.08-.72,4.72c-.48.17-1,.32-1.49.45A6,6,0,0,1,482.17,34.9Z" transform="translate(-1.24 -4.74)"/><path class="cls-2" d="M496,34.86c-2.85,0-4.91-1-6.16-3s-1.65-4.62-1.18-7.91a14.36,14.36,0,0,1,3.2-7.75,8.09,8.09,0,0,1,6.32-2.85,9.35,9.35,0,0,1,1.57.14,6.42,6.42,0,0,1,1.51.45,4.88,4.88,0,0,1,1.31.84,4,4,0,0,1,.95,1.33l1.6-11.4h7.8l-4.18,29.72h-5.5l-.32-4.24a9.52,9.52,0,0,1-1.17,1.94,7.28,7.28,0,0,1-1.53,1.46,6.62,6.62,0,0,1-1.91.92A8,8,0,0,1,496,34.86Zm2.6-5.44a3,3,0,0,0,2.37-1.19A8.68,8.68,0,0,0,502.39,24a9.25,9.25,0,0,0,0-3,2.81,2.81,0,0,0-.83-1.64,2.27,2.27,0,0,0-1.52-.51A3.32,3.32,0,0,0,497.65,20a7.2,7.2,0,0,0-1.5,4c-.29,2-.18,3.46.33,4.25A2.38,2.38,0,0,0,498.57,29.42Z" transform="translate(-1.24 -4.74)"/><path class="cls-2" d="M518.83,34.86a7.5,7.5,0,0,1-3.46-.76,4.94,4.94,0,0,1-2.24-2.23,6.07,6.07,0,0,1-.44-3.61A7.24,7.24,0,0,1,516.16,23q3-1.86,8.55-1.86h1.6l.12-.88a1.54,1.54,0,0,0-.34-1.46,2.19,2.19,0,0,0-1.62-.42,5.92,5.92,0,0,0-1.84.38A3.15,3.15,0,0,0,521,20.22h-6.26a7.33,7.33,0,0,1,2.07-3.95,9.32,9.32,0,0,1,3.86-2.2,17.12,17.12,0,0,1,5-.69,14.24,14.24,0,0,1,5.46.82,4.46,4.46,0,0,1,2.52,2.27,6.13,6.13,0,0,1,.34,3.35l-2.24,14.64h-6.4l-.18-3.28a7.65,7.65,0,0,1-2.72,2.89A7.29,7.29,0,0,1,518.83,34.86Zm3.44-4.92a3,3,0,0,0,1.09-.2,3.17,3.17,0,0,0,.92-.55,3.7,3.7,0,0,0,.69-.79,2.74,2.74,0,0,0,.38-.94l.4-2.6h-1.24a7.7,7.7,0,0,0-1.61.23,5.39,5.39,0,0,0-1.82.79,2.26,2.26,0,0,0-1,1.58,2,2,0,0,0,.51,1.82A2.28,2.28,0,0,0,522.27,29.94Z" transform="translate(-1.24 -4.74)"/><path class="cls-2" d="M389.89,82.46l2.9-20.68h7.52l-.8,5.72a13.28,13.28,0,0,1,1.79-3,8.61,8.61,0,0,1,2.59-2.23,6.88,6.88,0,0,1,3.42-.84h.3l-1,7.36-.1,0-.14,0a10.58,10.58,0,0,0-4.37.23,3.82,3.82,0,0,0-2.12,1.53,5.54,5.54,0,0,0-.77,2.08l-1.4,9.92Z" transform="translate(-1.24 -4.74)"/><path class="cls-2" d="M413,82.86a7.5,7.5,0,0,1-3.46-.76,4.94,4.94,0,0,1-2.24-2.23,6.07,6.07,0,0,1-.44-3.61A7.24,7.24,0,0,1,410.3,71q3-1.86,8.55-1.86h1.6l.12-.88a1.54,1.54,0,0,0-.34-1.46,2.19,2.19,0,0,0-1.62-.42,5.92,5.92,0,0,0-1.84.38,3.15,3.15,0,0,0-1.66,1.42h-6.26a7.33,7.33,0,0,1,2.07-4,9.32,9.32,0,0,1,3.86-2.2,17.12,17.12,0,0,1,5-.69,14.24,14.24,0,0,1,5.46.82,4.46,4.46,0,0,1,2.52,2.27,6.13,6.13,0,0,1,.34,3.35l-2.24,14.64h-6.4l-.18-3.28a7.65,7.65,0,0,1-2.72,2.89A7.29,7.29,0,0,1,413,82.86Zm3.44-4.92a3,3,0,0,0,1.09-.2,3.17,3.17,0,0,0,.92-.55,3.7,3.7,0,0,0,.69-.79,2.74,2.74,0,0,0,.38-.94l.4-2.6h-1.24a7.7,7.7,0,0,0-1.61.23,5.39,5.39,0,0,0-1.82.79,2.26,2.26,0,0,0-1,1.58,2,2,0,0,0,.51,1.82A2.28,2.28,0,0,0,416.41,77.94Z" transform="translate(-1.24 -4.74)"/><path class="cls-2" d="M430.35,82.46l2.92-20.68h7.4l-2.92,20.68Zm3.16-22.36.92-6.56h7.4l-.92,6.56Z" transform="translate(-1.24 -4.74)"/><path class="cls-2" d="M449.69,82.9a12,12,0,0,1-4.35-.61,4.05,4.05,0,0,1-2.08-1.59,4.2,4.2,0,0,1-.57-2.16,16.14,16.14,0,0,1,.16-2.32l3.56-23.48H454l-3.4,22.44a2.47,2.47,0,0,0,.16,1.4c.19.44.79.73,1.82.88l.8.08-.72,4.72c-.48.17-1,.32-1.49.45A6,6,0,0,1,449.69,82.9Z" transform="translate(-1.24 -4.74)"/><path class="cls-2" d="M459.59,82.46l-3.8-20.68h6.72l1.68,10,4.56-10h5.36l1.4,10.08,4.74-10.08h6.86l-10.4,20.68h-5.5l-1.54-10-4.8,10Z" transform="translate(-1.24 -4.74)"/><path class="cls-2" d="M491.49,82.86A7.5,7.5,0,0,1,488,82.1a4.94,4.94,0,0,1-2.24-2.23,6.07,6.07,0,0,1-.44-3.61A7.24,7.24,0,0,1,488.82,71q3-1.86,8.55-1.86H499l.12-.88a1.54,1.54,0,0,0-.34-1.46,2.19,2.19,0,0,0-1.62-.42,5.92,5.92,0,0,0-1.84.38,3.15,3.15,0,0,0-1.66,1.42h-6.26a7.33,7.33,0,0,1,2.07-4,9.32,9.32,0,0,1,3.86-2.2,17.12,17.12,0,0,1,4.95-.69,14.24,14.24,0,0,1,5.46.82,4.49,4.49,0,0,1,2.52,2.27,6.13,6.13,0,0,1,.34,3.35l-2.24,14.64h-6.4l-.18-3.28A7.65,7.65,0,0,1,495,82.07,7.29,7.29,0,0,1,491.49,82.86Zm3.44-4.92a3.06,3.06,0,0,0,1.09-.2,3.17,3.17,0,0,0,.92-.55,3.7,3.7,0,0,0,.69-.79,3,3,0,0,0,.38-.94l.4-2.6h-1.24a7.7,7.7,0,0,0-1.61.23,5.39,5.39,0,0,0-1.82.79,2.22,2.22,0,0,0-1,1.58,2,2,0,0,0,.51,1.82A2.28,2.28,0,0,0,494.93,77.94Z" transform="translate(-1.24 -4.74)"/><path class="cls-2" d="M510.91,89.06a10.36,10.36,0,0,1-4.32-.88l.72-4.92,2,.12a6.8,6.8,0,0,0,3-.23,2.56,2.56,0,0,0,1.25-.88c.2-.33.32-.53.36-.61l.16-.4-5-19.48h7.6L518.71,73l5.76-11.24H532L521.09,81.26a24.17,24.17,0,0,1-3.49,4.94,9,9,0,0,1-3.28,2.27A10,10,0,0,1,510.91,89.06Z" transform="translate(-1.24 -4.74)"/><path class="cls-2" d="M400,130.86a12.15,12.15,0,0,1-4.18-.74,7.46,7.46,0,0,1-3.33-2.36,6.92,6.92,0,0,1-1.39-4.26h6.6a2.15,2.15,0,0,0,.71,1.48,2.86,2.86,0,0,0,1.26.62,5.72,5.72,0,0,0,1,.14,6.17,6.17,0,0,0,2.14-.31c.56-.21.87-.52.92-.93a.83.83,0,0,0-.41-.91,5,5,0,0,0-1.87-.53l-3-.48a8.84,8.84,0,0,1-4.51-2,4.69,4.69,0,0,1-1.25-4.28,6.73,6.73,0,0,1,1.57-3.48,8.91,8.91,0,0,1,3.54-2.48,13.8,13.8,0,0,1,5.25-.92c2.83,0,5,.61,6.47,1.84a5.08,5.08,0,0,1,1.77,5h-6.34a1.66,1.66,0,0,0-.86-1.39,3.61,3.61,0,0,0-1.84-.45,5,5,0,0,0-1.87.32,1.19,1.19,0,0,0-.87.92c-.05.36.14.65.59.87a9.48,9.48,0,0,0,2.29.61l2.6.48a8.69,8.69,0,0,1,3,1.3,5.62,5.62,0,0,1,1.64,1.77,5,5,0,0,1,.63,1.86,5.75,5.75,0,0,1,0,1.55,6.49,6.49,0,0,1-1.76,3.73,9.26,9.26,0,0,1-3.7,2.29A14.73,14.73,0,0,1,400,130.86Z" transform="translate(-1.24 -4.74)"/><path class="cls-2" d="M422.53,130.78a11.36,11.36,0,0,1-4.87-.81,3.85,3.85,0,0,1-2.1-2.17,6.52,6.52,0,0,1-.25-3l1.48-9.72h-3.32l.8-5.28h3.6l2.14-6.44h6.26l-1,6.4h4.5l-.8,5.32h-4.5l-1.38,9.36c-.07.45,0,.75.23.9a1.47,1.47,0,0,0,.85.22h3.2l-.68,4.6a9.55,9.55,0,0,1-1.4.42A13,13,0,0,1,422.53,130.78Z" transform="translate(-1.24 -4.74)"/><path class="cls-2" d="M436.41,130.86a7.5,7.5,0,0,1-3.46-.76,4.94,4.94,0,0,1-2.24-2.23,6.07,6.07,0,0,1-.44-3.61,7.24,7.24,0,0,1,3.47-5.22q3-1.86,8.55-1.86h1.6l.12-.88a1.54,1.54,0,0,0-.34-1.46,2.19,2.19,0,0,0-1.62-.42,5.92,5.92,0,0,0-1.84.38,3.15,3.15,0,0,0-1.66,1.42h-6.26a7.33,7.33,0,0,1,2.07-4,9.32,9.32,0,0,1,3.86-2.2,17.12,17.12,0,0,1,4.95-.69,14.24,14.24,0,0,1,5.46.82,4.46,4.46,0,0,1,2.52,2.27,6.13,6.13,0,0,1,.34,3.35l-2.24,14.64h-6.4l-.18-3.28a7.65,7.65,0,0,1-2.72,2.89A7.29,7.29,0,0,1,436.41,130.86Zm3.44-4.92a3,3,0,0,0,1.09-.2,3.17,3.17,0,0,0,.92-.55,3.7,3.7,0,0,0,.69-.79,2.74,2.74,0,0,0,.38-.94l.4-2.6h-1.24a7.7,7.7,0,0,0-1.61.23,5.39,5.39,0,0,0-1.82.79,2.26,2.26,0,0,0-1,1.58,2,2,0,0,0,.51,1.82A2.28,2.28,0,0,0,439.85,125.94Z" transform="translate(-1.24 -4.74)"/><path class="cls-2" d="M462.83,130.78A11.36,11.36,0,0,1,458,130a3.85,3.85,0,0,1-2.1-2.17,6.52,6.52,0,0,1-.25-3l1.48-9.72h-3.32l.8-5.28h3.6l2.14-6.44h6.26l-1,6.4h4.5l-.8,5.32h-4.5l-1.38,9.36c-.07.45,0,.75.23.9a1.47,1.47,0,0,0,.85.22h3.2l-.68,4.6a9.55,9.55,0,0,1-1.4.42A13,13,0,0,1,462.83,130.78Z" transform="translate(-1.24 -4.74)"/><path class="cls-2" d="M470.79,130.46l2.92-20.68h7.4l-2.92,20.68ZM474,108.1l.92-6.56h7.4l-.92,6.56Z" transform="translate(-1.24 -4.74)"/><path class="cls-2" d="M491.63,130.86a9.61,9.61,0,0,1-5.29-1.36,7.54,7.54,0,0,1-3-3.75,10.73,10.73,0,0,1-.45-5.49,13.32,13.32,0,0,1,2.21-5.71,12,12,0,0,1,4.28-3.81,11.75,11.75,0,0,1,5.61-1.36,9.48,9.48,0,0,1,5.36,1.41,7.64,7.64,0,0,1,3,3.87,11.32,11.32,0,0,1,.41,5.6,13,13,0,0,1-2.13,5.47,11.85,11.85,0,0,1-4.2,3.76A12,12,0,0,1,491.63,130.86Zm.94-5.64a2.49,2.49,0,0,0,2-.85,5.94,5.94,0,0,0,1.15-2.07,13.89,13.89,0,0,0,.56-2.32,11.61,11.61,0,0,0,.13-2.29,3.93,3.93,0,0,0-.55-2,1.87,1.87,0,0,0-1.72-.79,2.67,2.67,0,0,0-2,.79,5,5,0,0,0-1.14,2,14.28,14.28,0,0,0-.54,2.29,13.42,13.42,0,0,0-.13,2.32,4.28,4.28,0,0,0,.53,2.07A1.86,1.86,0,0,0,492.57,125.22Z" transform="translate(-1.24 -4.74)"/><path class="cls-2" d="M505.29,130.46l3.18-20.68h7.62l-.36,2.48c.49-.44,1-.85,1.49-1.24a6.33,6.33,0,0,1,1.79-1,8,8,0,0,1,2.66-.37,6.44,6.44,0,0,1,3.31.89,6.12,6.12,0,0,1,2.33,2.43,5.43,5.43,0,0,1,.5,3.48l-2.12,14h-7.76l2-12.92a1.3,1.3,0,0,0-.54-1.38,2.62,2.62,0,0,0-1.54-.5,3.43,3.43,0,0,0-1.18.23,3,3,0,0,0-1.07.65,1.62,1.62,0,0,0-.53,1l-2,12.92Z" transform="translate(-1.24 -4.74)"/><path class="cls-2" d="M850.54,319.46l4.38-28.92h13a11.5,11.5,0,0,1,5.84,1.24,6.07,6.07,0,0,1,2.81,3.35,10,10,0,0,1,.31,4.73,12.16,12.16,0,0,1-1.17,3.79,10,10,0,0,1-2,2.68,13.85,13.85,0,0,1-2.65,1.93l3.36,11.2h-7.92l-2.66-10h-4.08l-1.5,10Zm10.14-15.76h4.44a3.33,3.33,0,0,0,1.84-.55,5.09,5.09,0,0,0,1.44-1.41,4.22,4.22,0,0,0,.72-1.8,3,3,0,0,0-.67-2.57,2.81,2.81,0,0,0-2.21-1.07H861.8Z" transform="translate(-1.24 -4.74)"/><path class="cls-2" d="M878.44,319.46l2.92-20.68h7.4l-2.92,20.68Zm3.16-22.36.92-6.56h7.4L889,297.1Z" transform="translate(-1.24 -4.74)"/><path class="cls-2" d="M899.64,326.3c-4.17,0-7.23-.51-9.16-1.53s-2.8-2.24-2.6-3.67a2.44,2.44,0,0,1,.78-1.5,4.64,4.64,0,0,1,1.45-.9,12,12,0,0,1,1.48-.48l.85-.22-.85-.52a3.94,3.94,0,0,1-1.18-1.19,2.83,2.83,0,0,1-.35-2,3.25,3.25,0,0,1,1.38-2,8.22,8.22,0,0,1,3.82-1.32,6,6,0,0,1-2.88-2.81,6.26,6.26,0,0,1-.64-3.67,5.2,5.2,0,0,1,1.73-3.15,10.1,10.1,0,0,1,3.86-2.1,18.09,18.09,0,0,1,5.43-.75,11,11,0,0,1,3.66.48,14.83,14.83,0,0,1,2.24,1l1.57-.59,1.88-.7,2-.75c.67-.25,1.3-.5,1.9-.74l-.64,5.6-3.68.7a7.08,7.08,0,0,1,0,1.82,6.38,6.38,0,0,1-1.55,3.18,9.43,9.43,0,0,1-3.6,2.52,14,14,0,0,1-5.49,1c-.41,0-.91,0-1.49,0l-1.25-.06-.69-.09c-.17,0-.24,0-.21.17.07.32.37.54.91.67a14,14,0,0,0,1.89.29c.45,0,1,.08,1.8.11s1.51.08,2.28.15c2.93.19,5,.91,6.22,2.16a5.07,5.07,0,0,1,1.46,4.44,6.53,6.53,0,0,1-3.51,4.68Q905.39,326.31,899.64,326.3Zm1.06-4.08a6.09,6.09,0,0,0,3-.49,1.74,1.74,0,0,0,.88-1.23.75.75,0,0,0-.49-.78,4.6,4.6,0,0,0-1.73-.36l-3.74-.24a4.32,4.32,0,0,0-1.75.2,2.15,2.15,0,0,0-1,.68,1.85,1.85,0,0,0-.38.88q-.12.83,1.14,1.08A23,23,0,0,0,900.7,322.22Zm.48-14.32a3,3,0,0,0,2.17-.91,3.77,3.77,0,0,0,1.11-2.25,2.42,2.42,0,0,0-.31-1.74,1.6,1.6,0,0,0-1.45-.74,2.91,2.91,0,0,0-2.18,1,4.27,4.27,0,0,0-1.14,2.35,2.15,2.15,0,0,0,.34,1.64A1.7,1.7,0,0,0,901.18,307.9Z" transform="translate(-1.24 -4.74)"/><path class="cls-2" d="M920.72,319.86a7.5,7.5,0,0,1-3.46-.76,4.94,4.94,0,0,1-2.24-2.23,6.07,6.07,0,0,1-.44-3.61,7.24,7.24,0,0,1,3.47-5.22q3-1.86,8.55-1.86h1.6l.12-.88a1.54,1.54,0,0,0-.34-1.46,2.19,2.19,0,0,0-1.62-.42,5.92,5.92,0,0,0-1.84.38,3.15,3.15,0,0,0-1.66,1.42H916.6a7.33,7.33,0,0,1,2.07-4,9.32,9.32,0,0,1,3.86-2.2,17.12,17.12,0,0,1,5-.69,14.24,14.24,0,0,1,5.46.82,4.46,4.46,0,0,1,2.52,2.27,6.13,6.13,0,0,1,.34,3.35l-2.24,14.64h-6.4l-.18-3.28a7.65,7.65,0,0,1-2.72,2.89A7.29,7.29,0,0,1,920.72,319.86Zm3.44-4.92a3,3,0,0,0,1.09-.2,3.17,3.17,0,0,0,.92-.55,3.7,3.7,0,0,0,.69-.79,2.74,2.74,0,0,0,.38-.94l.4-2.6H926.4a7.7,7.7,0,0,0-1.61.23,5.39,5.39,0,0,0-1.82.79,2.26,2.26,0,0,0-1,1.58,2,2,0,0,0,.51,1.82A2.28,2.28,0,0,0,924.16,314.94Z" transform="translate(-1.24 -4.74)"/><path class="cls-2" d="M833,367.86a12,12,0,0,1-6.28-1.56,10.41,10.41,0,0,1-4-4.32,14,14,0,0,1-1.39-6.38,20.24,20.24,0,0,1,1-6.35,17.63,17.63,0,0,1,3-5.62,14.79,14.79,0,0,1,5.06-4,15.84,15.84,0,0,1,7-1.49,12.63,12.63,0,0,1,5.8,1.25,8.76,8.76,0,0,1,3.76,3.62,11.61,11.61,0,0,1,1.32,5.73h-8.06a5.51,5.51,0,0,0-.48-2.32,3.42,3.42,0,0,0-1.35-1.51,4.33,4.33,0,0,0-2.23-.53,4.63,4.63,0,0,0-3.14,1.1,7.72,7.72,0,0,0-2,2.87,16,16,0,0,0-1.07,3.78,24.88,24.88,0,0,0-.32,3.85,6.77,6.77,0,0,0,1.09,4.33,3.56,3.56,0,0,0,2.87,1.31,4.38,4.38,0,0,0,2.39-.68,6.33,6.33,0,0,0,1.84-1.81,9.4,9.4,0,0,0,1.19-2.47h8.08a24.61,24.61,0,0,1-1.66,4.26,13.33,13.33,0,0,1-2.64,3.59,11.22,11.22,0,0,1-4,2.46A17.1,17.1,0,0,1,833,367.86Z" transform="translate(-1.24 -4.74)"/><path class="cls-2" d="M859.34,367.86a10.6,10.6,0,0,1-5.43-1.31,7.52,7.52,0,0,1-3.22-3.67,10.09,10.09,0,0,1-.51-5.5,13.59,13.59,0,0,1,2.06-5.46,12.49,12.49,0,0,1,4.19-4,11.29,11.29,0,0,1,5.85-1.52,9.39,9.39,0,0,1,5.41,1.4,7.1,7.1,0,0,1,2.79,3.83,12.1,12.1,0,0,1,.3,5.49l-.3,1.8H857.54a4,4,0,0,0,.05,2,2,2,0,0,0,.91,1.14,3,3,0,0,0,1.48.36,4.71,4.71,0,0,0,2-.4,3.5,3.5,0,0,0,1.56-1.6h6.84a8.76,8.76,0,0,1-2.4,4,12.67,12.67,0,0,1-8.6,3.47Zm-1.22-13.32H864a3,3,0,0,0-.11-1.45,2,2,0,0,0-.83-1.07,2.81,2.81,0,0,0-1.6-.4,3.08,3.08,0,0,0-1.51.4,3.69,3.69,0,0,0-1.22,1.07A3.4,3.4,0,0,0,858.12,354.54Z" transform="translate(-1.24 -4.74)"/><path class="cls-2" d="M872.44,367.46l3.18-20.68h7.62l-.36,2.48c.49-.44,1-.85,1.49-1.24a6.47,6.47,0,0,1,1.79-.95,8,8,0,0,1,2.66-.37,6.44,6.44,0,0,1,3.31.89,6.05,6.05,0,0,1,2.33,2.43,5.36,5.36,0,0,1,.5,3.48l-2.12,14h-7.76l2-12.92a1.27,1.27,0,0,0-.54-1.38,2.62,2.62,0,0,0-1.54-.5,3.47,3.47,0,0,0-1.18.23,3.14,3.14,0,0,0-1.07.65,1.62,1.62,0,0,0-.53,1l-2,12.92Z" transform="translate(-1.24 -4.74)"/><path class="cls-2" d="M906,367.78a11.36,11.36,0,0,1-4.87-.81,3.85,3.85,0,0,1-2.1-2.17,6.52,6.52,0,0,1-.25-3l1.48-9.72H897l.8-5.28h3.6l2.14-6.44h6.26l-1,6.4h4.5l-.8,5.32H908l-1.38,9.36c-.07.45,0,.75.23.9a1.47,1.47,0,0,0,.85.22h3.2l-.68,4.6a9.55,9.55,0,0,1-1.4.42A13,13,0,0,1,906,367.78Z" transform="translate(-1.24 -4.74)"/><path class="cls-2" d="M913.82,367.46l2.9-20.68h7.52l-.8,5.72a13.28,13.28,0,0,1,1.79-3.05,8.61,8.61,0,0,1,2.59-2.23,6.88,6.88,0,0,1,3.42-.84h.3l-1,7.36-.1,0-.14,0a10.58,10.58,0,0,0-4.37.23,3.82,3.82,0,0,0-2.12,1.53,5.54,5.54,0,0,0-.77,2.08l-1.4,9.92Z" transform="translate(-1.24 -4.74)"/><path class="cls-2" d="M936.9,367.86a7.5,7.5,0,0,1-3.46-.76,4.94,4.94,0,0,1-2.24-2.23,6.07,6.07,0,0,1-.44-3.61,7.24,7.24,0,0,1,3.47-5.22q3-1.86,8.55-1.86h1.6l.12-.88a1.54,1.54,0,0,0-.34-1.46,2.19,2.19,0,0,0-1.62-.42,5.92,5.92,0,0,0-1.84.38,3.15,3.15,0,0,0-1.66,1.42h-6.26a7.33,7.33,0,0,1,2.07-4,9.32,9.32,0,0,1,3.86-2.2,17.12,17.12,0,0,1,4.95-.69,14.24,14.24,0,0,1,5.46.82,4.46,4.46,0,0,1,2.52,2.27,6.13,6.13,0,0,1,.34,3.35l-2.24,14.64h-6.4l-.18-3.28a7.65,7.65,0,0,1-2.72,2.89A7.29,7.29,0,0,1,936.9,367.86Zm3.44-4.92a3,3,0,0,0,1.09-.2,3.17,3.17,0,0,0,.92-.55,3.7,3.7,0,0,0,.69-.79,2.74,2.74,0,0,0,.38-.94l.4-2.6h-1.24a7.7,7.7,0,0,0-1.61.23,5.39,5.39,0,0,0-1.82.79,2.26,2.26,0,0,0-1,1.58,2,2,0,0,0,.51,1.82A2.28,2.28,0,0,0,940.34,362.94Z" transform="translate(-1.24 -4.74)"/><path class="cls-2" d="M961.8,367.9a12,12,0,0,1-4.35-.61,4.05,4.05,0,0,1-2.08-1.59,4.2,4.2,0,0,1-.57-2.16,16.14,16.14,0,0,1,.16-2.32l3.56-23.48h7.6l-3.4,22.44a2.47,2.47,0,0,0,.16,1.4c.18.44.79.73,1.82.88l.8.08-.72,4.72c-.48.17-1,.32-1.49.45A6.09,6.09,0,0,1,961.8,367.9Z" transform="translate(-1.24 -4.74)"/><path class="cls-2" d="M833.46,415.86a12.15,12.15,0,0,1-4.18-.74,7.46,7.46,0,0,1-3.33-2.36,6.92,6.92,0,0,1-1.39-4.26h6.6a2.15,2.15,0,0,0,.71,1.48,2.86,2.86,0,0,0,1.26.62,5.72,5.72,0,0,0,1,.14,6.17,6.17,0,0,0,2.14-.31c.56-.21.87-.52.92-.93a.83.83,0,0,0-.41-.91,5,5,0,0,0-1.87-.53l-3-.48a8.84,8.84,0,0,1-4.51-2,4.69,4.69,0,0,1-1.25-4.28,6.73,6.73,0,0,1,1.57-3.48,8.91,8.91,0,0,1,3.54-2.48,13.8,13.8,0,0,1,5.25-.92c2.83,0,5,.61,6.47,1.84a5.08,5.08,0,0,1,1.77,5h-6.34a1.66,1.66,0,0,0-.86-1.39,3.61,3.61,0,0,0-1.84-.45,5,5,0,0,0-1.87.32,1.19,1.19,0,0,0-.87.92c0,.36.14.65.59.87a9.48,9.48,0,0,0,2.29.61l2.6.48a8.69,8.69,0,0,1,3,1.3,5.62,5.62,0,0,1,1.64,1.77,5,5,0,0,1,.63,1.86,5.75,5.75,0,0,1,0,1.55,6.49,6.49,0,0,1-1.76,3.73,9.26,9.26,0,0,1-3.7,2.29A14.73,14.73,0,0,1,833.46,415.86Z" transform="translate(-1.24 -4.74)"/><path class="cls-2" d="M856,415.78a11.36,11.36,0,0,1-4.87-.81,3.85,3.85,0,0,1-2.1-2.17,6.52,6.52,0,0,1-.25-3l1.48-9.72H847l.8-5.28h3.6l2.14-6.44h6.26l-1,6.4h4.5l-.8,5.32H858l-1.38,9.36c-.07.45,0,.75.23.9a1.47,1.47,0,0,0,.85.22h3.2l-.68,4.6a9.55,9.55,0,0,1-1.4.42A13,13,0,0,1,856,415.78Z" transform="translate(-1.24 -4.74)"/><path class="cls-2" d="M869.92,415.86a7.5,7.5,0,0,1-3.46-.76,4.94,4.94,0,0,1-2.24-2.23,6.07,6.07,0,0,1-.44-3.61,7.24,7.24,0,0,1,3.47-5.22q3-1.86,8.55-1.86h1.6l.12-.88a1.54,1.54,0,0,0-.34-1.46,2.19,2.19,0,0,0-1.62-.42,5.92,5.92,0,0,0-1.84.38,3.15,3.15,0,0,0-1.66,1.42H865.8a7.33,7.33,0,0,1,2.07-4,9.32,9.32,0,0,1,3.86-2.2,17.12,17.12,0,0,1,4.95-.69,14.24,14.24,0,0,1,5.46.82,4.46,4.46,0,0,1,2.52,2.27,6.13,6.13,0,0,1,.34,3.35l-2.24,14.64h-6.4l-.18-3.28a7.65,7.65,0,0,1-2.72,2.89A7.29,7.29,0,0,1,869.92,415.86Zm3.44-4.92a3,3,0,0,0,1.09-.2,3.17,3.17,0,0,0,.92-.55,3.7,3.7,0,0,0,.69-.79,2.74,2.74,0,0,0,.38-.94l.4-2.6H875.6a7.7,7.7,0,0,0-1.61.23,5.39,5.39,0,0,0-1.82.79,2.26,2.26,0,0,0-1,1.58,2,2,0,0,0,.51,1.82A2.28,2.28,0,0,0,873.36,410.94Z" transform="translate(-1.24 -4.74)"/><path class="cls-2" d="M896.34,415.78a11.36,11.36,0,0,1-4.87-.81,3.85,3.85,0,0,1-2.1-2.17,6.52,6.52,0,0,1-.25-3l1.48-9.72h-3.32l.8-5.28h3.6l2.14-6.44h6.26l-1,6.4h4.5l-.8,5.32h-4.5l-1.38,9.36c-.07.45,0,.75.23.9a1.47,1.47,0,0,0,.85.22h3.2l-.68,4.6a9.55,9.55,0,0,1-1.4.42A13,13,0,0,1,896.34,415.78Z" transform="translate(-1.24 -4.74)"/><path class="cls-2" d="M904.3,415.46l2.92-20.68h7.4l-2.92,20.68Zm3.16-22.36.92-6.56h7.4l-.92,6.56Z" transform="translate(-1.24 -4.74)"/><path class="cls-2" d="M925.14,415.86a9.61,9.61,0,0,1-5.29-1.36,7.54,7.54,0,0,1-3-3.75,10.73,10.73,0,0,1-.45-5.49,13.32,13.32,0,0,1,2.21-5.71,12.11,12.11,0,0,1,4.28-3.81,11.75,11.75,0,0,1,5.61-1.36,9.48,9.48,0,0,1,5.36,1.41,7.64,7.64,0,0,1,3,3.87,11.32,11.32,0,0,1,.41,5.6,13,13,0,0,1-2.13,5.47,11.85,11.85,0,0,1-4.2,3.76A12,12,0,0,1,925.14,415.86Zm.94-5.64a2.49,2.49,0,0,0,2-.85,5.94,5.94,0,0,0,1.15-2.07,13.89,13.89,0,0,0,.56-2.32,11.61,11.61,0,0,0,.13-2.29,3.93,3.93,0,0,0-.55-2,1.87,1.87,0,0,0-1.72-.79,2.67,2.67,0,0,0-2,.79,5,5,0,0,0-1.14,2,14.28,14.28,0,0,0-.54,2.29,13.42,13.42,0,0,0-.13,2.32,4.28,4.28,0,0,0,.53,2.07A1.86,1.86,0,0,0,926.08,410.22Z" transform="translate(-1.24 -4.74)"/><path class="cls-2" d="M938.8,415.46,942,394.78h7.62l-.36,2.48c.49-.44,1-.85,1.49-1.24a6.33,6.33,0,0,1,1.79-.95,8,8,0,0,1,2.66-.37,6.44,6.44,0,0,1,3.31.89,6.12,6.12,0,0,1,2.33,2.43,5.43,5.43,0,0,1,.5,3.48l-2.12,14h-7.76l2-12.92a1.3,1.3,0,0,0-.54-1.38,2.62,2.62,0,0,0-1.54-.5,3.43,3.43,0,0,0-1.18.23,3.14,3.14,0,0,0-1.07.65,1.62,1.62,0,0,0-.53,1l-2,12.92Z" transform="translate(-1.24 -4.74)"/><path class="cls-2" d="M492.72,672.86a18.48,18.48,0,0,1-4.41-.53,11.92,11.92,0,0,1-3.83-1.65,7.86,7.86,0,0,1-2.61-2.86,7.5,7.5,0,0,1-.75-4.16h8a3.14,3.14,0,0,0,.6,1.74,3.44,3.44,0,0,0,1.5,1.11,6.12,6.12,0,0,0,2.3.39,11.19,11.19,0,0,0,2.34-.24,4.79,4.79,0,0,0,1.89-.81,2.37,2.37,0,0,0,.93-1.59,1.32,1.32,0,0,0-.49-1.36,4.49,4.49,0,0,0-1.69-.74c-.71-.17-1.46-.33-2.26-.46l-4.34-.76a7.81,7.81,0,0,1-5.05-2.69,7.44,7.44,0,0,1-1.25-5.83,8.94,8.94,0,0,1,2.37-5,12.69,12.69,0,0,1,4.86-3.16,17.48,17.48,0,0,1,6.21-1.09,13.23,13.23,0,0,1,6.07,1.29,9.65,9.65,0,0,1,3.87,3.37,7.48,7.48,0,0,1,1.24,4.46H500.4a3,3,0,0,0-.39-1.81,2.56,2.56,0,0,0-1.37-1,7.09,7.09,0,0,0-2.28-.31,7,7,0,0,0-2.42.35,3.17,3.17,0,0,0-1.35.88,2.14,2.14,0,0,0-.51,1.05,1.84,1.84,0,0,0,.41,1.58,4.52,4.52,0,0,0,2.37.94l4.34.76a11.9,11.9,0,0,1,4.68,1.67,6.14,6.14,0,0,1,2.24,2.55,7.29,7.29,0,0,1,.64,2.82,15.59,15.59,0,0,1-.14,2.48,7.78,7.78,0,0,1-2.3,4.41,13.53,13.53,0,0,1-5,3.07A18.89,18.89,0,0,1,492.72,672.86Z" transform="translate(-1.24 -4.74)"/><path class="cls-2" d="M518.44,672.78a11.36,11.36,0,0,1-4.87-.81,3.85,3.85,0,0,1-2.1-2.17,6.52,6.52,0,0,1-.25-3l1.48-9.72h-3.32l.8-5.28h3.6l2.14-6.44h6.26l-1,6.4h4.5l-.8,5.32h-4.5L519,666.42c-.07.45,0,.75.23.9a1.47,1.47,0,0,0,.85.22h3.2l-.68,4.6a9.55,9.55,0,0,1-1.4.42A13,13,0,0,1,518.44,672.78Z" transform="translate(-1.24 -4.74)"/><path class="cls-2" d="M532.32,672.86a7.5,7.5,0,0,1-3.46-.76,4.94,4.94,0,0,1-2.24-2.23,6.07,6.07,0,0,1-.44-3.61,7.24,7.24,0,0,1,3.47-5.22q3-1.86,8.55-1.86h1.6l.12-.88a1.54,1.54,0,0,0-.34-1.46,2.19,2.19,0,0,0-1.62-.42,5.92,5.92,0,0,0-1.84.38,3.15,3.15,0,0,0-1.66,1.42H528.2a7.33,7.33,0,0,1,2.07-4,9.32,9.32,0,0,1,3.86-2.2,17.12,17.12,0,0,1,5-.69,14.24,14.24,0,0,1,5.46.82,4.46,4.46,0,0,1,2.52,2.27,6.13,6.13,0,0,1,.34,3.35l-2.24,14.64h-6.4l-.18-3.28a7.65,7.65,0,0,1-2.72,2.89A7.29,7.29,0,0,1,532.32,672.86Zm3.44-4.92a3,3,0,0,0,1.09-.2,3.17,3.17,0,0,0,.92-.55,3.7,3.7,0,0,0,.69-.79,2.74,2.74,0,0,0,.38-.94l.4-2.6H538a7.7,7.7,0,0,0-1.61.23,5.39,5.39,0,0,0-1.82.79,2.26,2.26,0,0,0-1,1.58,2,2,0,0,0,.51,1.82A2.28,2.28,0,0,0,535.76,667.94Z" transform="translate(-1.24 -4.74)"/><path class="cls-2" d="M558.74,672.78a11.36,11.36,0,0,1-4.87-.81,3.85,3.85,0,0,1-2.1-2.17,6.52,6.52,0,0,1-.25-3l1.48-9.72h-3.32l.8-5.28h3.6l2.14-6.44h6.26l-1,6.4H566l-.8,5.32h-4.5l-1.38,9.36c-.07.45,0,.75.23.9a1.47,1.47,0,0,0,.85.22h3.2l-.68,4.6a9.55,9.55,0,0,1-1.4.42A13,13,0,0,1,558.74,672.78Z" transform="translate(-1.24 -4.74)"/><path class="cls-2" d="M566.7,672.46l2.92-20.68H577l-2.92,20.68Zm3.16-22.36.92-6.56h7.4l-.92,6.56Z" transform="translate(-1.24 -4.74)"/><path class="cls-2" d="M587.54,672.86a9.61,9.61,0,0,1-5.29-1.36,7.54,7.54,0,0,1-3-3.75,10.73,10.73,0,0,1-.45-5.49,13.32,13.32,0,0,1,2.21-5.71,12.11,12.11,0,0,1,4.28-3.81,11.75,11.75,0,0,1,5.61-1.36,9.48,9.48,0,0,1,5.36,1.41,7.64,7.64,0,0,1,3,3.87,11.32,11.32,0,0,1,.41,5.6,13,13,0,0,1-2.13,5.47,11.85,11.85,0,0,1-4.2,3.76A12,12,0,0,1,587.54,672.86Zm.94-5.64a2.49,2.49,0,0,0,2-.85,5.94,5.94,0,0,0,1.15-2.07,13.89,13.89,0,0,0,.56-2.32,11.61,11.61,0,0,0,.13-2.29,3.93,3.93,0,0,0-.55-2,1.87,1.87,0,0,0-1.72-.79,2.67,2.67,0,0,0-2,.79,5,5,0,0,0-1.14,2,14.28,14.28,0,0,0-.54,2.29,13.42,13.42,0,0,0-.13,2.32,4.28,4.28,0,0,0,.53,2.07A1.86,1.86,0,0,0,588.48,667.22Z" transform="translate(-1.24 -4.74)"/><path class="cls-2" d="M601.2,672.46l3.18-20.68H612l-.36,2.48c.49-.44,1-.85,1.49-1.24a6.47,6.47,0,0,1,1.79-.95,8,8,0,0,1,2.66-.37,6.44,6.44,0,0,1,3.31.89,6.05,6.05,0,0,1,2.33,2.43,5.36,5.36,0,0,1,.5,3.48l-2.12,14h-7.76l2-12.92a1.27,1.27,0,0,0-.54-1.38,2.62,2.62,0,0,0-1.54-.5,3.47,3.47,0,0,0-1.18.23,3.14,3.14,0,0,0-1.07.65,1.62,1.62,0,0,0-.53,1l-2,12.92Z" transform="translate(-1.24 -4.74)"/><path class="cls-2" d="M495.09,720.86a12.15,12.15,0,0,1-4.18-.74,7.46,7.46,0,0,1-3.33-2.36,6.92,6.92,0,0,1-1.39-4.26h6.6a2.15,2.15,0,0,0,.71,1.48,2.86,2.86,0,0,0,1.26.62,5.72,5.72,0,0,0,1,.14,6.17,6.17,0,0,0,2.14-.31c.56-.21.87-.52.92-.93a.83.83,0,0,0-.41-.91,5,5,0,0,0-1.87-.53l-3-.48a8.84,8.84,0,0,1-4.51-2,4.69,4.69,0,0,1-1.25-4.28,6.73,6.73,0,0,1,1.57-3.48,8.91,8.91,0,0,1,3.54-2.48,13.8,13.8,0,0,1,5.25-.92c2.83,0,5,.61,6.47,1.84a5.08,5.08,0,0,1,1.77,5h-6.34a1.66,1.66,0,0,0-.86-1.39,3.61,3.61,0,0,0-1.84-.45,5,5,0,0,0-1.87.32,1.19,1.19,0,0,0-.87.92c-.05.36.14.65.59.87a9.48,9.48,0,0,0,2.29.61l2.6.48a8.69,8.69,0,0,1,3,1.3,5.62,5.62,0,0,1,1.64,1.77,5,5,0,0,1,.63,1.86,5.75,5.75,0,0,1,0,1.55,6.49,6.49,0,0,1-1.76,3.73,9.26,9.26,0,0,1-3.7,2.29A14.73,14.73,0,0,1,495.09,720.86Z" transform="translate(-1.24 -4.74)"/><path class="cls-2" d="M527.21,726.9h-7.78l1.26-9a7.26,7.26,0,0,1-1.82,1.7,7.48,7.48,0,0,1-2,.93,6.87,6.87,0,0,1-1.86.29,7.6,7.6,0,0,1-4-1.06,6.29,6.29,0,0,1-2.64-3.43,13.45,13.45,0,0,1-.3-6.31,17.29,17.29,0,0,1,1.85-6,9.33,9.33,0,0,1,3.21-3.51,7.65,7.65,0,0,1,4-1.14,9.14,9.14,0,0,1,1.52.14,7.41,7.41,0,0,1,1.57.46,5.91,5.91,0,0,1,1.44.86,5,5,0,0,1,1.15,1.34l.34-2.4H531Zm-9.38-11.6a2.77,2.77,0,0,0,2-.78,5.61,5.61,0,0,0,1.33-2,10.44,10.44,0,0,0,.68-2.47,7.84,7.84,0,0,0-.26-3.65,2.17,2.17,0,0,0-2.26-1.55,3.37,3.37,0,0,0-2.47,1.34,7.17,7.17,0,0,0-1.53,3.86c-.25,1.85-.11,3.19.44,4A2.45,2.45,0,0,0,517.83,715.3Z" transform="translate(-1.24 -4.74)"/><path class="cls-2" d="M539.69,720.86a8,8,0,0,1-2.56-.43,7.69,7.69,0,0,1-2.36-1.27,5.6,5.6,0,0,1-1.63-2,4.78,4.78,0,0,1-.35-2.77l2-14.56h7.8l-1.9,13.48a1.76,1.76,0,0,0,.45,1.51,2.27,2.27,0,0,0,1.75.61,3,3,0,0,0,1.94-.61,2.27,2.27,0,0,0,.88-1.51l1.9-13.48h7.72l-2.9,20.68h-5.76l-.32-4.24a6.3,6.3,0,0,1-1.87,3,6.19,6.19,0,0,1-2.52,1.29A10.46,10.46,0,0,1,539.69,720.86Z" transform="translate(-1.24 -4.74)"/><path class="cls-2" d="M562.39,720.86a7.5,7.5,0,0,1-3.46-.76,4.94,4.94,0,0,1-2.24-2.23,6.07,6.07,0,0,1-.44-3.61,7.24,7.24,0,0,1,3.47-5.22q3-1.86,8.55-1.86h1.6l.12-.88a1.54,1.54,0,0,0-.34-1.46,2.19,2.19,0,0,0-1.62-.42,5.92,5.92,0,0,0-1.84.38,3.15,3.15,0,0,0-1.66,1.42h-6.26a7.33,7.33,0,0,1,2.07-4,9.32,9.32,0,0,1,3.86-2.2,17.12,17.12,0,0,1,4.95-.69,14.24,14.24,0,0,1,5.46.82,4.46,4.46,0,0,1,2.52,2.27,6.13,6.13,0,0,1,.34,3.35l-2.24,14.64h-6.4l-.18-3.28a7.65,7.65,0,0,1-2.72,2.89A7.29,7.29,0,0,1,562.39,720.86Zm3.44-4.92a3,3,0,0,0,1.09-.2,3.17,3.17,0,0,0,.92-.55,3.7,3.7,0,0,0,.69-.79,2.74,2.74,0,0,0,.38-.94l.4-2.6h-1.24a7.7,7.7,0,0,0-1.61.23,5.39,5.39,0,0,0-1.82.79,2.26,2.26,0,0,0-1,1.58,2,2,0,0,0,.51,1.82A2.28,2.28,0,0,0,565.83,715.94Z" transform="translate(-1.24 -4.74)"/><path class="cls-2" d="M579.59,720.46l2.9-20.68H590l-.8,5.72a13.28,13.28,0,0,1,1.79-3,8.61,8.61,0,0,1,2.59-2.23,6.88,6.88,0,0,1,3.42-.84h.3l-1,7.36-.1,0-.14,0a10.58,10.58,0,0,0-4.37.23,3.82,3.82,0,0,0-2.12,1.53,5.54,5.54,0,0,0-.77,2.08l-1.4,9.92Z" transform="translate(-1.24 -4.74)"/><path class="cls-2" d="M606.43,720.86a10.55,10.55,0,0,1-5.43-1.31,7.52,7.52,0,0,1-3.22-3.67,10.09,10.09,0,0,1-.51-5.5,13.59,13.59,0,0,1,2.06-5.46,12.49,12.49,0,0,1,4.19-4,11.29,11.29,0,0,1,5.85-1.52,9.39,9.39,0,0,1,5.41,1.4,7.1,7.1,0,0,1,2.79,3.83,12.1,12.1,0,0,1,.3,5.49l-.3,1.8H604.63a4,4,0,0,0,0,2,2,2,0,0,0,.91,1.14,3,3,0,0,0,1.48.36,4.74,4.74,0,0,0,2-.4,3.5,3.5,0,0,0,1.56-1.6h6.84a8.76,8.76,0,0,1-2.4,4,12.67,12.67,0,0,1-8.6,3.47Zm-1.22-13.32h5.9a3,3,0,0,0-.11-1.45,2,2,0,0,0-.83-1.07,2.83,2.83,0,0,0-1.6-.4,3,3,0,0,0-1.51.4,3.69,3.69,0,0,0-1.22,1.07A3.4,3.4,0,0,0,605.21,707.54Z" transform="translate(-1.24 -4.74)"/><path class="cls-2" d="M55.86,508.86c-3.09,0-5.47-.52-7.12-1.56A7.15,7.15,0,0,1,45.52,503a16.13,16.13,0,0,1-.2-6.46l2.56-17h7.86L53.1,496.82a6.45,6.45,0,0,0,.16,3.21,3.29,3.29,0,0,0,1.42,1.76,4.28,4.28,0,0,0,2.18.55,5.33,5.33,0,0,0,3.37-1.26,6.37,6.37,0,0,0,2-4.26l2.6-17.28H72.7l-2.56,17A18.24,18.24,0,0,1,68,503a11.14,11.14,0,0,1-4.55,4.34A16.14,16.14,0,0,1,55.86,508.86Z" transform="translate(-1.24 -4.74)"/><path class="cls-2" d="M72.78,508.46,76,487.78h7.62l-.36,2.48c.49-.44,1-.85,1.49-1.24a6.47,6.47,0,0,1,1.79-.95,8,8,0,0,1,2.66-.37,6.44,6.44,0,0,1,3.31.89A6.05,6.05,0,0,1,94.8,491a5.36,5.36,0,0,1,.5,3.48l-2.12,14H85.42l2-12.92a1.27,1.27,0,0,0-.54-1.38,2.62,2.62,0,0,0-1.54-.5,3.47,3.47,0,0,0-1.18.23,3.14,3.14,0,0,0-1.07.65,1.62,1.62,0,0,0-.53,1l-2,12.92Z" transform="translate(-1.24 -4.74)"/><path class="cls-2" d="M97.34,508.46l2.92-20.68h7.4l-2.92,20.68Zm3.16-22.36.92-6.56h7.4l-.92,6.56Z" transform="translate(-1.24 -4.74)"/><path class="cls-2" d="M114.88,508.46,110,487.78h6.88l2,10.56L124,487.78h7l-11.16,20.68Z" transform="translate(-1.24 -4.74)"/><path class="cls-2" d="M138.9,508.86a10.6,10.6,0,0,1-5.43-1.31,7.52,7.52,0,0,1-3.22-3.67,10.09,10.09,0,0,1-.51-5.5,13.59,13.59,0,0,1,2.06-5.46,12.49,12.49,0,0,1,4.19-4,11.29,11.29,0,0,1,5.85-1.52,9.39,9.39,0,0,1,5.41,1.4,7.1,7.1,0,0,1,2.79,3.83,12.1,12.1,0,0,1,.3,5.49l-.3,1.8H137.1a4,4,0,0,0,.05,2,2,2,0,0,0,.91,1.14,3,3,0,0,0,1.48.36,4.71,4.71,0,0,0,2-.4,3.5,3.5,0,0,0,1.56-1.6h6.84a8.76,8.76,0,0,1-2.4,4,12.67,12.67,0,0,1-8.6,3.47Zm-1.22-13.32h5.9a3,3,0,0,0-.11-1.45,2,2,0,0,0-.83-1.07,2.81,2.81,0,0,0-1.6-.4,3.08,3.08,0,0,0-1.51.4,3.69,3.69,0,0,0-1.22,1.07A3.4,3.4,0,0,0,137.68,495.54Z" transform="translate(-1.24 -4.74)"/><path class="cls-2" d="M152,508.46l2.9-20.68h7.52l-.8,5.72a13.28,13.28,0,0,1,1.79-3.05,8.61,8.61,0,0,1,2.59-2.23,6.88,6.88,0,0,1,3.42-.84h.3l-1,7.36-.1,0-.14,0a10.58,10.58,0,0,0-4.37.23,3.82,3.82,0,0,0-2.12,1.53,5.54,5.54,0,0,0-.77,2.08l-1.4,9.92Z" transform="translate(-1.24 -4.74)"/><path class="cls-2" d="M177.86,508.86a12.15,12.15,0,0,1-4.18-.74,7.46,7.46,0,0,1-3.33-2.36A6.92,6.92,0,0,1,169,501.5h6.6a2.15,2.15,0,0,0,.71,1.48,2.86,2.86,0,0,0,1.26.62,5.72,5.72,0,0,0,1,.14,6.17,6.17,0,0,0,2.14-.31c.56-.21.87-.52.92-.93a.83.83,0,0,0-.41-.91,5,5,0,0,0-1.87-.53l-3-.48a8.84,8.84,0,0,1-4.51-2,4.69,4.69,0,0,1-1.25-4.28,6.73,6.73,0,0,1,1.57-3.48,8.91,8.91,0,0,1,3.54-2.48,13.8,13.8,0,0,1,5.25-.92c2.83,0,5,.61,6.47,1.84a5.08,5.08,0,0,1,1.77,5h-6.34a1.66,1.66,0,0,0-.86-1.39,3.61,3.61,0,0,0-1.84-.45,5,5,0,0,0-1.87.32,1.19,1.19,0,0,0-.87.92c-.05.36.14.65.59.87a9.48,9.48,0,0,0,2.29.61l2.6.48a8.69,8.69,0,0,1,3,1.3,5.62,5.62,0,0,1,1.64,1.77,5,5,0,0,1,.63,1.86,5.75,5.75,0,0,1,0,1.55,6.49,6.49,0,0,1-1.76,3.73,9.26,9.26,0,0,1-3.7,2.29A14.73,14.73,0,0,1,177.86,508.86Z" transform="translate(-1.24 -4.74)"/><path class="cls-2" d="M190.6,508.46l2.92-20.68h7.4L198,508.46Zm3.16-22.36.92-6.56h7.4l-.92,6.56Z" transform="translate(-1.24 -4.74)"/><path class="cls-2" d="M212.06,508.78a11.36,11.36,0,0,1-4.87-.81,3.85,3.85,0,0,1-2.1-2.17,6.52,6.52,0,0,1-.25-3l1.48-9.72H203l.8-5.28h3.6l2.14-6.44h6.26l-1,6.4h4.5l-.8,5.32H214l-1.38,9.36c-.07.45,0,.75.23.9a1.47,1.47,0,0,0,.85.22h3.2l-.68,4.6a9.55,9.55,0,0,1-1.4.42A13,13,0,0,1,212.06,508.78Z" transform="translate(-1.24 -4.74)"/><path class="cls-2" d="M222.86,515.06a10.33,10.33,0,0,1-4.32-.88l.72-4.92,2,.12a6.8,6.8,0,0,0,2.95-.23,2.56,2.56,0,0,0,1.25-.88c.2-.33.32-.53.36-.61l.16-.4-5-19.48h7.6L230.66,499l5.76-11.24H244L233,507.26a24.17,24.17,0,0,1-3.49,4.94,9.06,9.06,0,0,1-3.28,2.27A10.06,10.06,0,0,1,222.86,515.06Z" transform="translate(-1.24 -4.74)"/><path class="cls-2" d="M68.6,556.86a9.61,9.61,0,0,1-5.29-1.36,7.54,7.54,0,0,1-3-3.75,10.73,10.73,0,0,1-.45-5.49A13.32,13.32,0,0,1,62,540.55a12.11,12.11,0,0,1,4.28-3.81,11.75,11.75,0,0,1,5.61-1.36,9.48,9.48,0,0,1,5.36,1.41,7.64,7.64,0,0,1,3,3.87,11.32,11.32,0,0,1,.41,5.6,13,13,0,0,1-2.13,5.47,11.85,11.85,0,0,1-4.2,3.76A12,12,0,0,1,68.6,556.86Zm.94-5.64a2.49,2.49,0,0,0,2-.85,5.94,5.94,0,0,0,1.15-2.07,13.89,13.89,0,0,0,.56-2.32,11.61,11.61,0,0,0,.13-2.29,3.93,3.93,0,0,0-.55-2,1.87,1.87,0,0,0-1.72-.79,2.67,2.67,0,0,0-2,.79,5,5,0,0,0-1.14,2,14.28,14.28,0,0,0-.54,2.29,13.42,13.42,0,0,0-.13,2.32,4.28,4.28,0,0,0,.53,2.07A1.86,1.86,0,0,0,69.54,551.22Z" transform="translate(-1.24 -4.74)"/><path class="cls-2" d="M83.6,556.46l2.34-15.4h-3.3l.8-5.28h3.3l.42-2.76a6.06,6.06,0,0,1,2.27-4,7.46,7.46,0,0,1,4.71-1.46h5.5l-.74,5H96.54a2,2,0,0,0-1.42.43,2.93,2.93,0,0,0-.64,1.57l-.16,1.2h3.9l-.8,5.28H93.68l-2.36,15.4Z" transform="translate(-1.24 -4.74)"/><path class="cls-2" d="M106.28,556.46l4.42-28.92h7.72L115,550.06H126.5l-1,6.4Z" transform="translate(-1.24 -4.74)"/><path class="cls-2" d="M135.8,556.86a7.5,7.5,0,0,1-3.46-.76,4.94,4.94,0,0,1-2.24-2.23,6.07,6.07,0,0,1-.44-3.61,7.24,7.24,0,0,1,3.47-5.22q3-1.86,8.55-1.86h1.6l.12-.88a1.54,1.54,0,0,0-.34-1.46,2.19,2.19,0,0,0-1.62-.42,5.92,5.92,0,0,0-1.84.38,3.15,3.15,0,0,0-1.66,1.42h-6.26a7.33,7.33,0,0,1,2.07-4,9.32,9.32,0,0,1,3.86-2.2,17.12,17.12,0,0,1,4.95-.69,14.24,14.24,0,0,1,5.46.82,4.46,4.46,0,0,1,2.52,2.27,6.13,6.13,0,0,1,.34,3.35l-2.24,14.64h-6.4l-.18-3.28a7.65,7.65,0,0,1-2.72,2.89A7.29,7.29,0,0,1,135.8,556.86Zm3.44-4.92a3,3,0,0,0,1.09-.2,3.17,3.17,0,0,0,.92-.55,3.7,3.7,0,0,0,.69-.79,2.74,2.74,0,0,0,.38-.94l.4-2.6h-1.24a7.7,7.7,0,0,0-1.61.23,5.39,5.39,0,0,0-1.82.79,2.26,2.26,0,0,0-1,1.58,2,2,0,0,0,.51,1.82A2.28,2.28,0,0,0,139.24,551.94Z" transform="translate(-1.24 -4.74)"/><path class="cls-2" d="M162.22,556.78a11.36,11.36,0,0,1-4.87-.81,3.85,3.85,0,0,1-2.1-2.17,6.52,6.52,0,0,1-.25-3l1.48-9.72h-3.32l.8-5.28h3.6l2.14-6.44H166l-1,6.4h4.5l-.8,5.32h-4.5l-1.38,9.36c-.07.45,0,.75.23.9a1.47,1.47,0,0,0,.85.22h3.2l-.68,4.6a9.55,9.55,0,0,1-1.4.42A13,13,0,0,1,162.22,556.78Z" transform="translate(-1.24 -4.74)"/><path class="cls-2" d="M175.9,556.46l-4.84-20.68h6.88l2,10.56L185,535.78h7l-11.16,20.68Z" transform="translate(-1.24 -4.74)"/><path class="cls-2" d="M191.44,556.46l2.92-20.68h7.4l-2.92,20.68Zm3.16-22.36.92-6.56h7.4L202,534.1Z" transform="translate(-1.24 -4.74)"/><path class="cls-2" d="M209.18,556.86a7.5,7.5,0,0,1-3.46-.76,4.94,4.94,0,0,1-2.24-2.23,6.07,6.07,0,0,1-.44-3.61,7.24,7.24,0,0,1,3.47-5.22q3-1.86,8.55-1.86h1.6l.12-.88a1.54,1.54,0,0,0-.34-1.46,2.22,2.22,0,0,0-1.62-.42,5.92,5.92,0,0,0-1.84.38,3.15,3.15,0,0,0-1.66,1.42h-6.26a7.33,7.33,0,0,1,2.07-4,9.32,9.32,0,0,1,3.86-2.2,17.12,17.12,0,0,1,4.95-.69,14.24,14.24,0,0,1,5.46.82,4.49,4.49,0,0,1,2.52,2.27,6.13,6.13,0,0,1,.34,3.35L222,556.46h-6.4l-.18-3.28a7.65,7.65,0,0,1-2.72,2.89A7.32,7.32,0,0,1,209.18,556.86Zm3.44-4.92a3.06,3.06,0,0,0,1.09-.2,3.31,3.31,0,0,0,.92-.55,3.7,3.7,0,0,0,.69-.79,3,3,0,0,0,.38-.94l.4-2.6h-1.24a7.7,7.7,0,0,0-1.61.23,5.39,5.39,0,0,0-1.82.79,2.22,2.22,0,0,0-1,1.58,2,2,0,0,0,.51,1.82A2.28,2.28,0,0,0,212.62,551.94Z" transform="translate(-1.24 -4.74)"/></g></g></g></g></g></svg>