<svg xmlns="http://www.w3.org/2000/svg" viewBox="0 0 1300.54 986.02"><defs><style>.cls-1{fill:none;stroke:#b72538;stroke-miterlimit:10;stroke-width:10px;}.cls-2{fill:#fff;}</style></defs><g id="Layer_2" data-name="Layer 2"><g id="Homepage"><g id="Route"><g id="Layer_28" data-name="Layer 28"><g id="Route-2" data-name="Route"><g id="Layer_30" data-name="Layer 30"><path class="cls-1" d="M171.07,739.27c266,327,776,347,1017-51,77-127,279-644-187-519.07-299,57.34-654.45,89.79-896-104.92" transform="translate(-2.69 -4.74)"/><polyline class="cls-1" points="203.38 818.53 158.99 721.81 256.51 784.39"/></g><path class="cls-2" d="M2.74,34.46,7.12,5.54h11.5l2,17.64L28,5.54H39.38L35,34.46H27.28l3.16-21-8.76,21H16.1l-2.44-21-3.18,21Z" transform="translate(-2.69 -4.74)"/><path class="cls-2" d="M46.12,34.86a7.5,7.5,0,0,1-3.46-.76,4.94,4.94,0,0,1-2.24-2.23A6.07,6.07,0,0,1,40,28.26,7.24,7.24,0,0,1,43.45,23q3-1.86,8.55-1.86h1.6l.12-.88a1.54,1.54,0,0,0-.34-1.46,2.22,2.22,0,0,0-1.62-.42,5.92,5.92,0,0,0-1.84.38,3.15,3.15,0,0,0-1.66,1.42H42a7.33,7.33,0,0,1,2.07-3.95,9.32,9.32,0,0,1,3.86-2.2,17.07,17.07,0,0,1,5-.69,14.24,14.24,0,0,1,5.46.82,4.53,4.53,0,0,1,2.52,2.27,6.13,6.13,0,0,1,.34,3.35L59,34.46h-6.4l-.18-3.28a7.65,7.65,0,0,1-2.72,2.89A7.32,7.32,0,0,1,46.12,34.86Zm-.8-24L46,6.14H62l-.72,4.76Zm4.24,19a3.06,3.06,0,0,0,1.09-.2,3.31,3.31,0,0,0,.92-.55,3.7,3.7,0,0,0,.69-.79,3,3,0,0,0,.38-.94l.4-2.6H51.8a7.7,7.7,0,0,0-1.61.23,5.39,5.39,0,0,0-1.82.79,2.19,2.19,0,0,0-1,1.58,2,2,0,0,0,.51,1.82A2.27,2.27,0,0,0,49.56,29.94Z" transform="translate(-2.69 -4.74)"/><path class="cls-2" d="M62.62,41.1a4.58,4.58,0,0,1-2.56-.68l.74-5.2,1.26-.2a3.47,3.47,0,0,0,1.58-.65,1.7,1.7,0,0,0,.52-1l3-19.56h7.74l-3,19.56A9.05,9.05,0,0,1,69,39.14,9.6,9.6,0,0,1,62.62,41.1Zm4.86-29.8,1-6.56h7.76l-1,6.56Z" transform="translate(-2.69 -4.74)"/><path class="cls-2" d="M82.2,34.86a7.5,7.5,0,0,1-3.46-.76,4.94,4.94,0,0,1-2.24-2.23,6,6,0,0,1-.44-3.61A7.21,7.21,0,0,1,79.53,23q2.94-1.86,8.55-1.86h1.6l.12-.88a1.57,1.57,0,0,0-.34-1.46,2.22,2.22,0,0,0-1.62-.42A5.92,5.92,0,0,0,86,18.8a3.12,3.12,0,0,0-1.66,1.42H78.08a7.33,7.33,0,0,1,2.07-3.95A9.26,9.26,0,0,1,84,14.07,17,17,0,0,1,89,13.38a14.24,14.24,0,0,1,5.46.82,4.53,4.53,0,0,1,2.52,2.27,6.22,6.22,0,0,1,.34,3.35L95,34.46h-6.4l-.18-3.28a7.65,7.65,0,0,1-2.72,2.89A7.35,7.35,0,0,1,82.2,34.86Zm3.44-4.92a3.06,3.06,0,0,0,1.09-.2,3.31,3.31,0,0,0,.92-.55,3.7,3.7,0,0,0,.69-.79,3,3,0,0,0,.38-.94l.4-2.6H87.88a7.61,7.61,0,0,0-1.61.23,5.39,5.39,0,0,0-1.82.79,2.19,2.19,0,0,0-1,1.58A2,2,0,0,0,84,29.28,2.27,2.27,0,0,0,85.64,29.94Z" transform="translate(-2.69 -4.74)"/><path class="cls-2" d="M108.06,34.86a12.11,12.11,0,0,1-4.18-.74,7.46,7.46,0,0,1-3.33-2.36,6.85,6.85,0,0,1-1.39-4.26h6.6a2.11,2.11,0,0,0,.71,1.48,2.86,2.86,0,0,0,1.26.62,5.61,5.61,0,0,0,1,.14,6.21,6.21,0,0,0,2.14-.31c.56-.21.86-.52.92-.93a.85.85,0,0,0-.41-.91,5.1,5.1,0,0,0-1.87-.53l-3-.48a8.8,8.8,0,0,1-4.51-2,4.66,4.66,0,0,1-1.25-4.28,6.65,6.65,0,0,1,1.57-3.48,8.91,8.91,0,0,1,3.54-2.48,13.73,13.73,0,0,1,5.25-.92q4.23,0,6.47,1.84a5.12,5.12,0,0,1,1.77,5H113a1.68,1.68,0,0,0-.86-1.39,3.64,3.64,0,0,0-1.84-.45,5,5,0,0,0-1.87.32,1.19,1.19,0,0,0-.87.92c-.06.36.14.65.59.87a9.34,9.34,0,0,0,2.29.61l2.6.48a8.69,8.69,0,0,1,3,1.3,5.74,5.74,0,0,1,1.64,1.77,5.4,5.4,0,0,1,.63,1.86,6.19,6.19,0,0,1,0,1.55,6.49,6.49,0,0,1-1.76,3.73,9.33,9.33,0,0,1-3.7,2.29A14.77,14.77,0,0,1,108.06,34.86Z" transform="translate(-2.69 -4.74)"/><path class="cls-2" d="M573.09,74.86a18.48,18.48,0,0,1-4.41-.53,11.82,11.82,0,0,1-3.83-1.65,7.86,7.86,0,0,1-2.61-2.86,7.5,7.5,0,0,1-.75-4.16h8a3.14,3.14,0,0,0,.6,1.74,3.44,3.44,0,0,0,1.5,1.11,6.08,6.08,0,0,0,2.3.39,11.19,11.19,0,0,0,2.34-.24,4.86,4.86,0,0,0,1.89-.81,2.37,2.37,0,0,0,.93-1.59,1.32,1.32,0,0,0-.49-1.36,4.56,4.56,0,0,0-1.69-.74c-.71-.17-1.46-.33-2.26-.46l-4.34-.76a7.79,7.79,0,0,1-5-2.69A7.4,7.4,0,0,1,564,54.42a8.94,8.94,0,0,1,2.37-5,12.69,12.69,0,0,1,4.86-3.16,17.48,17.48,0,0,1,6.21-1.09,13.23,13.23,0,0,1,6.07,1.29,9.72,9.72,0,0,1,3.87,3.37,7.55,7.55,0,0,1,1.24,4.46h-7.86a3,3,0,0,0-.39-1.81,2.56,2.56,0,0,0-1.37-1,7.14,7.14,0,0,0-2.28-.31,7,7,0,0,0-2.42.35,3,3,0,0,0-1.35.88,2.14,2.14,0,0,0-.51,1.05,1.81,1.81,0,0,0,.41,1.58,4.48,4.48,0,0,0,2.37.94l4.34.76a11.9,11.9,0,0,1,4.68,1.67A6.21,6.21,0,0,1,586.49,61a7.48,7.48,0,0,1,.64,2.82,16.86,16.86,0,0,1-.14,2.48,7.78,7.78,0,0,1-2.3,4.41,13.53,13.53,0,0,1-5,3.07A18.92,18.92,0,0,1,573.09,74.86Z" transform="translate(-2.69 -4.74)"/><path class="cls-2" d="M589.57,74.46l2.92-20.68h7.4L597,74.46Zm3.16-22.36.92-6.56h7.4l-.92,6.56Z" transform="translate(-2.69 -4.74)"/><path class="cls-2" d="M610.77,81.3q-6.27,0-9.16-1.53c-1.94-1-2.8-2.24-2.6-3.67a2.44,2.44,0,0,1,.78-1.5,4.53,4.53,0,0,1,1.45-.9,12,12,0,0,1,1.48-.48l.85-.22-.85-.52a3.83,3.83,0,0,1-1.18-1.19,2.78,2.78,0,0,1-.35-2,3.17,3.17,0,0,1,1.38-2,8.18,8.18,0,0,1,3.82-1.32,6,6,0,0,1-2.88-2.81,6.19,6.19,0,0,1-.64-3.67,5.2,5.2,0,0,1,1.73-3.15,10,10,0,0,1,3.86-2.1,18.09,18.09,0,0,1,5.43-.75,11,11,0,0,1,3.66.48,15.3,15.3,0,0,1,2.24,1l1.57-.59,1.88-.7,2-.75,1.9-.74-.64,5.6-3.68.7a7.56,7.56,0,0,1,0,1.82,6.38,6.38,0,0,1-1.55,3.18A9.59,9.59,0,0,1,617.7,66a14,14,0,0,1-5.49,1c-.42,0-.91,0-1.49,0l-1.25-.06-.69-.09c-.17,0-.24,0-.21.17.06.32.37.54.91.67a14,14,0,0,0,1.89.29c.45,0,1,.08,1.8.11s1.5.08,2.28.15q4.39.28,6.22,2.16a5.07,5.07,0,0,1,1.46,4.44,6.53,6.53,0,0,1-3.51,4.68Q616.5,81.31,610.77,81.3Zm1.06-4.08a6.09,6.09,0,0,0,3-.49,1.74,1.74,0,0,0,.88-1.23.76.76,0,0,0-.49-.78,4.64,4.64,0,0,0-1.73-.36l-3.74-.24a4.3,4.3,0,0,0-1.75.2,2.15,2.15,0,0,0-1,.68,1.76,1.76,0,0,0-.38.88q-.12.83,1.14,1.08A22.94,22.94,0,0,0,611.83,77.22Zm.48-14.32a3,3,0,0,0,2.17-.91,3.77,3.77,0,0,0,1.11-2.25,2.47,2.47,0,0,0-.31-1.74,1.61,1.61,0,0,0-1.45-.74,2.89,2.89,0,0,0-2.18,1,4.27,4.27,0,0,0-1.14,2.35,2.11,2.11,0,0,0,.34,1.64A1.69,1.69,0,0,0,612.31,62.9Z" transform="translate(-2.69 -4.74)"/><path class="cls-2" d="M633.71,74.86a8,8,0,0,1-2.56-.43,7.69,7.69,0,0,1-2.36-1.27,5.6,5.6,0,0,1-1.63-2,4.78,4.78,0,0,1-.35-2.77l2-14.56h7.8l-1.9,13.48a1.76,1.76,0,0,0,.45,1.51,2.27,2.27,0,0,0,1.75.61,3,3,0,0,0,1.94-.61,2.27,2.27,0,0,0,.88-1.51l1.9-13.48h7.72l-2.9,20.68h-5.76l-.32-4.24a6.37,6.37,0,0,1-1.87,3A6.19,6.19,0,0,1,636,74.56,10.46,10.46,0,0,1,633.71,74.86Z" transform="translate(-2.69 -4.74)"/><path class="cls-2" d="M658,74.9a12,12,0,0,1-4.35-.61,4.05,4.05,0,0,1-2.08-1.59,4.2,4.2,0,0,1-.57-2.16,16.14,16.14,0,0,1,.16-2.32l3.56-23.48h7.6l-3.4,22.44a2.47,2.47,0,0,0,.16,1.4c.18.44.79.73,1.82.88l.8.08L661,74.26c-.48.17-1,.32-1.49.45A6.09,6.09,0,0,1,658,74.9Z" transform="translate(-2.69 -4.74)"/><path class="cls-2" d="M671.81,74.86q-4.29,0-6.16-3T664.47,64a14.36,14.36,0,0,1,3.2-7.75A8.07,8.07,0,0,1,674,53.38a9.35,9.35,0,0,1,1.57.14,6.57,6.57,0,0,1,1.51.45,5,5,0,0,1,1.31.84,4,4,0,0,1,1,1.33l1.6-11.4h7.8l-4.18,29.72h-5.5l-.32-4.24a10.51,10.51,0,0,1-1.17,1.94A7.28,7.28,0,0,1,676,73.62a6.75,6.75,0,0,1-1.91.92A8,8,0,0,1,671.81,74.86Zm2.6-5.44a3.06,3.06,0,0,0,2.37-1.19A8.79,8.79,0,0,0,678.23,64a9.25,9.25,0,0,0,0-3,2.87,2.87,0,0,0-.83-1.64,2.27,2.27,0,0,0-1.52-.51A3.32,3.32,0,0,0,673.49,60a7.05,7.05,0,0,0-1.5,4c-.3,2-.19,3.46.33,4.25A2.38,2.38,0,0,0,674.41,69.42Z" transform="translate(-2.69 -4.74)"/><path class="cls-2" d="M694.67,74.86a7.5,7.5,0,0,1-3.46-.76A4.94,4.94,0,0,1,689,71.87a6,6,0,0,1-.44-3.61A7.21,7.21,0,0,1,692,63q2.94-1.86,8.55-1.86h1.6l.12-.88a1.57,1.57,0,0,0-.34-1.46,2.22,2.22,0,0,0-1.62-.42,5.92,5.92,0,0,0-1.84.38,3.12,3.12,0,0,0-1.66,1.42h-6.26a7.33,7.33,0,0,1,2.07-3.95,9.26,9.26,0,0,1,3.86-2.2,17,17,0,0,1,4.95-.69,14.24,14.24,0,0,1,5.46.82,4.53,4.53,0,0,1,2.52,2.27,6.22,6.22,0,0,1,.34,3.35l-2.24,14.64h-6.4l-.18-3.28a7.65,7.65,0,0,1-2.72,2.89A7.35,7.35,0,0,1,694.67,74.86Zm3.44-4.92a3.06,3.06,0,0,0,1.09-.2,3.31,3.31,0,0,0,.92-.55,3.7,3.7,0,0,0,.69-.79,3,3,0,0,0,.38-.94l.4-2.6h-1.24a7.61,7.61,0,0,0-1.61.23,5.39,5.39,0,0,0-1.82.79,2.19,2.19,0,0,0-1,1.58,2,2,0,0,0,.51,1.82A2.27,2.27,0,0,0,698.11,69.94Z" transform="translate(-2.69 -4.74)"/><path class="cls-2" d="M720.53,74.86a12.11,12.11,0,0,1-4.18-.74A7.46,7.46,0,0,1,713,71.76a6.85,6.85,0,0,1-1.39-4.26h6.6a2.11,2.11,0,0,0,.71,1.48,2.86,2.86,0,0,0,1.26.62,5.61,5.61,0,0,0,1,.14,6.21,6.21,0,0,0,2.14-.31c.56-.21.86-.52.92-.93a.85.85,0,0,0-.41-.91,5.1,5.1,0,0,0-1.87-.53l-3-.48a8.8,8.8,0,0,1-4.51-2,4.66,4.66,0,0,1-1.25-4.28,6.65,6.65,0,0,1,1.57-3.48,8.91,8.91,0,0,1,3.54-2.48,13.73,13.73,0,0,1,5.25-.92q4.23,0,6.47,1.84a5.12,5.12,0,0,1,1.77,5h-6.34a1.68,1.68,0,0,0-.86-1.39,3.64,3.64,0,0,0-1.84-.45,5,5,0,0,0-1.87.32,1.19,1.19,0,0,0-.87.92c-.06.36.14.65.59.87a9.34,9.34,0,0,0,2.29.61l2.6.48a8.69,8.69,0,0,1,3,1.3,5.74,5.74,0,0,1,1.64,1.77,5.4,5.4,0,0,1,.63,1.86,6.19,6.19,0,0,1,0,1.55,6.49,6.49,0,0,1-1.76,3.73,9.33,9.33,0,0,1-3.7,2.29A14.77,14.77,0,0,1,720.53,74.86Z" transform="translate(-2.69 -4.74)"/><path class="cls-2" d="M563,122.86c-2.85,0-4.91-1-6.16-3s-1.65-4.62-1.18-7.91a14.36,14.36,0,0,1,3.2-7.75,8.09,8.09,0,0,1,6.32-2.85,9.35,9.35,0,0,1,1.57.14,6.42,6.42,0,0,1,1.51.45,4.88,4.88,0,0,1,1.31.84,4,4,0,0,1,1,1.33l1.6-11.4h7.8l-4.18,29.72h-5.5l-.32-4.24a9.52,9.52,0,0,1-1.17,1.94,7.28,7.28,0,0,1-1.53,1.46,6.62,6.62,0,0,1-1.91.92A8,8,0,0,1,563,122.86Zm2.6-5.44a3,3,0,0,0,2.37-1.19,8.68,8.68,0,0,0,1.45-4.25,9.25,9.25,0,0,0,0-3,2.81,2.81,0,0,0-.83-1.64,2.27,2.27,0,0,0-1.52-.51,3.32,3.32,0,0,0-2.42,1.12,7.2,7.2,0,0,0-1.5,4c-.29,2-.18,3.46.33,4.25A2.38,2.38,0,0,0,565.57,117.42Z" transform="translate(-2.69 -4.74)"/><path class="cls-2" d="M578.77,122.46l.52-4.12,10.46-11.24h-8.28l.74-5.32h17.84l-.5,4.12-10.48,11.24h8.86l-.76,5.32Z" transform="translate(-2.69 -4.74)"/><path class="cls-2" d="M609.39,122.86a10.6,10.6,0,0,1-5.43-1.31,7.52,7.52,0,0,1-3.22-3.67,10.09,10.09,0,0,1-.51-5.5,13.59,13.59,0,0,1,2.06-5.46,12.49,12.49,0,0,1,4.19-4,11.29,11.29,0,0,1,5.85-1.52,9.39,9.39,0,0,1,5.41,1.4,7.1,7.1,0,0,1,2.79,3.83,12.1,12.1,0,0,1,.3,5.49l-.3,1.8H607.59a4,4,0,0,0,0,2,2,2,0,0,0,.91,1.14,3,3,0,0,0,1.48.36,4.71,4.71,0,0,0,2-.4,3.5,3.5,0,0,0,1.56-1.6h6.84a8.76,8.76,0,0,1-2.4,4,12.67,12.67,0,0,1-8.6,3.47Zm-1.22-13.32h5.9a3,3,0,0,0-.11-1.45,2,2,0,0,0-.83-1.07,2.81,2.81,0,0,0-1.6-.4,3.08,3.08,0,0,0-1.51.4,3.69,3.69,0,0,0-1.22,1.07A3.4,3.4,0,0,0,608.17,109.54Z" transform="translate(-2.69 -4.74)"/><path class="cls-2" d="M630.21,122.9a12,12,0,0,1-4.35-.61,4.05,4.05,0,0,1-2.08-1.59,4.2,4.2,0,0,1-.57-2.16,16.14,16.14,0,0,1,.16-2.32l3.56-23.48h7.6l-3.4,22.44a2.47,2.47,0,0,0,.16,1.4c.18.44.79.73,1.82.88l.8.08-.72,4.72c-.48.17-1,.32-1.49.45A6.09,6.09,0,0,1,630.21,122.9Z" transform="translate(-2.69 -4.74)"/><path class="cls-2" d="M635.85,122.46l.52-4.12,10.46-11.24h-8.28l.74-5.32h17.84l-.5,4.12-10.48,11.24H655l-.76,5.32Z" transform="translate(-2.69 -4.74)"/><path class="cls-2" d="M666,122.86a9.39,9.39,0,0,1-5.08-1.34,7.79,7.79,0,0,1-3.14-3.74,10.22,10.22,0,0,1-.52-5.56,13,13,0,0,1,2.2-5.64,12.29,12.29,0,0,1,4.27-3.82,11.38,11.38,0,0,1,5.51-1.38,8.21,8.21,0,0,1,4.73,1.24,6.64,6.64,0,0,1,2.54,3.26,9.23,9.23,0,0,1,.43,4.34h-6.28a6.22,6.22,0,0,0-.12-1.3,2.59,2.59,0,0,0-.62-1.25,1.92,1.92,0,0,0-1.48-.53,3.34,3.34,0,0,0-2.58,1.25,7.23,7.23,0,0,0-1.5,3.75,6.16,6.16,0,0,0,.41,4A2.45,2.45,0,0,0,667,117.5a2.32,2.32,0,0,0,1.62-.59,4.58,4.58,0,0,0,1-1.31,6.51,6.51,0,0,0,.45-1.14h6.1a9.52,9.52,0,0,1-1.67,4.12,10.12,10.12,0,0,1-8.51,4.28Z" transform="translate(-2.69 -4.74)"/><path class="cls-2" d="M688,122.86a10.55,10.55,0,0,1-5.43-1.31,7.52,7.52,0,0,1-3.22-3.67,10.09,10.09,0,0,1-.51-5.5,13.59,13.59,0,0,1,2.06-5.46,12.4,12.4,0,0,1,4.19-4,11.29,11.29,0,0,1,5.85-1.52,9.41,9.41,0,0,1,5.41,1.4,7.1,7.1,0,0,1,2.79,3.83,12.39,12.39,0,0,1,.3,5.49l-.3,1.8H686.17a4,4,0,0,0,.05,2,2,2,0,0,0,.91,1.14,3,3,0,0,0,1.48.36,4.74,4.74,0,0,0,2-.4,3.5,3.5,0,0,0,1.56-1.6H699a8.76,8.76,0,0,1-2.4,4,12.67,12.67,0,0,1-8.6,3.47Zm-1.22-13.32h5.9a3,3,0,0,0-.11-1.45,2.09,2.09,0,0,0-.83-1.07,2.83,2.83,0,0,0-1.6-.4,3,3,0,0,0-1.51.4,3.59,3.59,0,0,0-1.22,1.07A3.4,3.4,0,0,0,686.75,109.54Z" transform="translate(-2.69 -4.74)"/><path class="cls-2" d="M699.71,132.36l2.48-3.44-1.88-.28.62-4.36H707l-.52,3.6-4.22,4.48Zm9.08-9.46a12,12,0,0,1-4.35-.61,4.05,4.05,0,0,1-2.08-1.59,4.2,4.2,0,0,1-.57-2.16,16.14,16.14,0,0,1,.16-2.32l3.56-23.48h7.6l-3.4,22.44a2.47,2.47,0,0,0,.16,1.4c.18.44.79.73,1.82.88l.8.08-.72,4.72c-.48.17-1,.32-1.49.45A6.09,6.09,0,0,1,708.79,122.9Z" transform="translate(-2.69 -4.74)"/><path class="cls-2" d="M720.89,122.86a7.5,7.5,0,0,1-3.46-.76,4.94,4.94,0,0,1-2.24-2.23,6,6,0,0,1-.44-3.61,7.21,7.21,0,0,1,3.47-5.22q2.94-1.86,8.55-1.86h1.6l.12-.88a1.57,1.57,0,0,0-.34-1.46,2.22,2.22,0,0,0-1.62-.42,5.92,5.92,0,0,0-1.84.38,3.12,3.12,0,0,0-1.66,1.42h-6.26a7.33,7.33,0,0,1,2.07-4,9.26,9.26,0,0,1,3.86-2.2,17,17,0,0,1,4.95-.69,14.24,14.24,0,0,1,5.46.82,4.53,4.53,0,0,1,2.52,2.27,6.22,6.22,0,0,1,.34,3.35l-2.24,14.64h-6.4l-.18-3.28a7.65,7.65,0,0,1-2.72,2.89A7.35,7.35,0,0,1,720.89,122.86Zm3.44-4.92a3.06,3.06,0,0,0,1.09-.2,3.31,3.31,0,0,0,.92-.55,3.7,3.7,0,0,0,.69-.79,3,3,0,0,0,.38-.94l.4-2.6h-1.24a7.61,7.61,0,0,0-1.61.23,5.39,5.39,0,0,0-1.82.79,2.19,2.19,0,0,0-1,1.58,2,2,0,0,0,.51,1.82A2.27,2.27,0,0,0,724.33,117.94Z" transform="translate(-2.69 -4.74)"/><path class="cls-2" d="M589.53,170.86a12.15,12.15,0,0,1-4.18-.74,7.46,7.46,0,0,1-3.33-2.36,6.92,6.92,0,0,1-1.39-4.26h6.6a2.15,2.15,0,0,0,.71,1.48,2.86,2.86,0,0,0,1.26.62,5.72,5.72,0,0,0,1,.14,6.17,6.17,0,0,0,2.14-.31c.56-.21.87-.52.92-.93a.83.83,0,0,0-.41-.91,5,5,0,0,0-1.87-.53l-3-.48a8.84,8.84,0,0,1-4.51-2,4.69,4.69,0,0,1-1.25-4.28,6.73,6.73,0,0,1,1.57-3.48,8.91,8.91,0,0,1,3.54-2.48,13.8,13.8,0,0,1,5.25-.92c2.83,0,5,.61,6.47,1.84a5.08,5.08,0,0,1,1.77,5h-6.34a1.66,1.66,0,0,0-.86-1.39,3.61,3.61,0,0,0-1.84-.45,5,5,0,0,0-1.87.32,1.19,1.19,0,0,0-.87.92c-.05.36.14.65.59.87a9.48,9.48,0,0,0,2.29.61l2.6.48a8.69,8.69,0,0,1,3,1.3,5.62,5.62,0,0,1,1.64,1.77,5,5,0,0,1,.63,1.86,5.75,5.75,0,0,1,0,1.55,6.49,6.49,0,0,1-1.76,3.73,9.26,9.26,0,0,1-3.7,2.29A14.73,14.73,0,0,1,589.53,170.86Z" transform="translate(-2.69 -4.74)"/><path class="cls-2" d="M612.11,170.78a11.36,11.36,0,0,1-4.87-.81,3.85,3.85,0,0,1-2.1-2.17,6.52,6.52,0,0,1-.25-3l1.48-9.72h-3.32l.8-5.28h3.6l2.14-6.44h6.26l-1,6.4h4.5l-.8,5.32h-4.5l-1.38,9.36c-.07.45,0,.75.23.9a1.47,1.47,0,0,0,.85.22H617l-.68,4.6a9.55,9.55,0,0,1-1.4.42A13,13,0,0,1,612.11,170.78Z" transform="translate(-2.69 -4.74)"/><path class="cls-2" d="M626,170.86a7.5,7.5,0,0,1-3.46-.76,4.94,4.94,0,0,1-2.24-2.23,6.07,6.07,0,0,1-.44-3.61,7.24,7.24,0,0,1,3.47-5.22q3-1.86,8.55-1.86h1.6l.12-.88a1.54,1.54,0,0,0-.34-1.46,2.19,2.19,0,0,0-1.62-.42,5.92,5.92,0,0,0-1.84.38,3.15,3.15,0,0,0-1.66,1.42h-6.26a7.33,7.33,0,0,1,2.07-3.95,9.32,9.32,0,0,1,3.86-2.2,17.12,17.12,0,0,1,5-.69,14.24,14.24,0,0,1,5.46.82,4.49,4.49,0,0,1,2.52,2.27,6.13,6.13,0,0,1,.34,3.35l-2.24,14.64h-6.4l-.18-3.28a7.65,7.65,0,0,1-2.72,2.89A7.29,7.29,0,0,1,626,170.86Zm3.44-4.92a3.06,3.06,0,0,0,1.09-.2,3.17,3.17,0,0,0,.92-.55,3.7,3.7,0,0,0,.69-.79,3,3,0,0,0,.38-.94l.4-2.6h-1.24a7.7,7.7,0,0,0-1.61.23,5.39,5.39,0,0,0-1.82.79,2.22,2.22,0,0,0-1,1.58,2,2,0,0,0,.51,1.82A2.28,2.28,0,0,0,629.43,165.94Z" transform="translate(-2.69 -4.74)"/><path class="cls-2" d="M652.35,170.86a9.39,9.39,0,0,1-5.08-1.34,7.79,7.79,0,0,1-3.14-3.74,10.22,10.22,0,0,1-.52-5.56,13,13,0,0,1,2.2-5.64,12.38,12.38,0,0,1,4.27-3.82,11.38,11.38,0,0,1,5.51-1.38,8.19,8.19,0,0,1,4.73,1.24,6.64,6.64,0,0,1,2.54,3.26,9.1,9.1,0,0,1,.43,4.34H657a6.22,6.22,0,0,0-.12-1.3,2.59,2.59,0,0,0-.62-1.25,1.91,1.91,0,0,0-1.48-.53,3.34,3.34,0,0,0-2.58,1.25,7.41,7.41,0,0,0-1.5,3.75,6.23,6.23,0,0,0,.41,4,2.47,2.47,0,0,0,2.25,1.41,2.32,2.32,0,0,0,1.62-.59,4.24,4.24,0,0,0,1-1.31,6.51,6.51,0,0,0,.45-1.14h6.1a9.52,9.52,0,0,1-1.67,4.12,10.12,10.12,0,0,1-8.51,4.28Z" transform="translate(-2.69 -4.74)"/><path class="cls-2" d="M664.87,170.46l2.92-20.68h7.4l-2.92,20.68ZM668,148.1l.92-6.56h7.4l-.92,6.56Z" transform="translate(-2.69 -4.74)"/><path class="cls-2" d="M675.81,177.1a4.58,4.58,0,0,1-2.56-.68l.74-5.2,1.26-.2a3.47,3.47,0,0,0,1.58-.65,1.7,1.7,0,0,0,.52-1l3-19.56h7.74l-3,19.56a9.05,9.05,0,0,1-2.86,5.8A9.6,9.6,0,0,1,675.81,177.1Zm4.86-29.8,1-6.56h7.76l-1,6.56Z" transform="translate(-2.69 -4.74)"/><path class="cls-2" d="M695.39,170.86a7.5,7.5,0,0,1-3.46-.76,4.94,4.94,0,0,1-2.24-2.23,6,6,0,0,1-.44-3.61,7.21,7.21,0,0,1,3.47-5.22q2.94-1.86,8.55-1.86h1.6l.12-.88a1.57,1.57,0,0,0-.34-1.46,2.22,2.22,0,0,0-1.62-.42,5.92,5.92,0,0,0-1.84.38,3.12,3.12,0,0,0-1.66,1.42h-6.26a7.33,7.33,0,0,1,2.07-3.95,9.26,9.26,0,0,1,3.86-2.2,17,17,0,0,1,4.95-.69,14.24,14.24,0,0,1,5.46.82,4.53,4.53,0,0,1,2.52,2.27,6.22,6.22,0,0,1,.34,3.35l-2.24,14.64h-6.4l-.18-3.28a7.65,7.65,0,0,1-2.72,2.89A7.35,7.35,0,0,1,695.39,170.86Zm3.44-4.92a3.06,3.06,0,0,0,1.09-.2,3.31,3.31,0,0,0,.92-.55,3.7,3.7,0,0,0,.69-.79,3,3,0,0,0,.38-.94l.4-2.6h-1.24a7.61,7.61,0,0,0-1.61.23,5.39,5.39,0,0,0-1.82.79,2.19,2.19,0,0,0-1,1.58,2,2,0,0,0,.51,1.82A2.27,2.27,0,0,0,698.83,165.94Z" transform="translate(-2.69 -4.74)"/><path class="cls-2" d="M1073.09,414.46l4.38-28.92h13a11.5,11.5,0,0,1,5.84,1.24,6.11,6.11,0,0,1,2.81,3.35,10.1,10.1,0,0,1,.31,4.73,12.16,12.16,0,0,1-1.17,3.79,10.2,10.2,0,0,1-2,2.68,14.17,14.17,0,0,1-2.65,1.93l3.36,11.2h-7.92l-2.66-10h-4.08l-1.5,10Zm10.14-15.76h4.44a3.35,3.35,0,0,0,1.84-.55,5.09,5.09,0,0,0,1.44-1.41,4.49,4.49,0,0,0,.72-1.8,3.06,3.06,0,0,0-.67-2.57,2.83,2.83,0,0,0-2.21-1.07h-4.44Z" transform="translate(-2.69 -4.74)"/><path class="cls-2" d="M1100.81,390.9l.72-4.76h15.92l-.72,4.76Zm.18,23.56,3.16-20.68h7.76l-3.16,20.68Z" transform="translate(-2.69 -4.74)"/><path class="cls-2" d="M1122.77,421.3q-6.27,0-9.16-1.53t-2.6-3.67a2.44,2.44,0,0,1,.78-1.5,4.64,4.64,0,0,1,1.45-.9,12,12,0,0,1,1.48-.48l.85-.22-.85-.52a3.83,3.83,0,0,1-1.18-1.19,2.78,2.78,0,0,1-.35-2,3.17,3.17,0,0,1,1.38-2,8.18,8.18,0,0,1,3.82-1.32,6,6,0,0,1-2.88-2.81,6.19,6.19,0,0,1-.64-3.67,5.2,5.2,0,0,1,1.73-3.15,10,10,0,0,1,3.86-2.1,18.09,18.09,0,0,1,5.43-.75,11,11,0,0,1,3.66.48,14.83,14.83,0,0,1,2.24,1l1.57-.59,1.88-.7,2-.75c.67-.25,1.3-.5,1.9-.74l-.64,5.6-3.68.7a7.08,7.08,0,0,1,0,1.82,6.38,6.38,0,0,1-1.55,3.18,9.59,9.59,0,0,1-3.6,2.52,14,14,0,0,1-5.49,1c-.42,0-.91,0-1.49,0l-1.25-.06-.69-.09c-.17,0-.24,0-.21.17.06.32.37.54.91.67a14,14,0,0,0,1.89.29c.45,0,1.05.08,1.8.11s1.5.08,2.28.15q4.4.29,6.22,2.16a5.07,5.07,0,0,1,1.46,4.44,6.53,6.53,0,0,1-3.51,4.68Q1128.5,421.31,1122.77,421.3Zm1.06-4.08a6.09,6.09,0,0,0,3-.49,1.74,1.74,0,0,0,.88-1.23.76.76,0,0,0-.49-.78,4.64,4.64,0,0,0-1.73-.36l-3.74-.24a4.3,4.3,0,0,0-1.75.2,2.15,2.15,0,0,0-1,.68,1.76,1.76,0,0,0-.38.88q-.12.83,1.14,1.08A22.94,22.94,0,0,0,1123.83,417.22Zm.48-14.32a3,3,0,0,0,2.17-.91,3.77,3.77,0,0,0,1.11-2.25,2.47,2.47,0,0,0-.31-1.74,1.61,1.61,0,0,0-1.45-.74,2.89,2.89,0,0,0-2.18,1,4.27,4.27,0,0,0-1.14,2.35,2.15,2.15,0,0,0,.34,1.64A1.69,1.69,0,0,0,1124.31,402.9Z" transform="translate(-2.69 -4.74)"/><path class="cls-2" d="M1143.85,414.86a7.5,7.5,0,0,1-3.46-.76,4.94,4.94,0,0,1-2.24-2.23,6,6,0,0,1-.44-3.61,7.21,7.21,0,0,1,3.47-5.22q2.94-1.86,8.55-1.86h1.6l.12-.88a1.57,1.57,0,0,0-.34-1.46,2.22,2.22,0,0,0-1.62-.42,5.92,5.92,0,0,0-1.84.38,3.12,3.12,0,0,0-1.66,1.42h-6.26a7.33,7.33,0,0,1,2.07-4,9.26,9.26,0,0,1,3.86-2.2,17,17,0,0,1,4.95-.69,14.24,14.24,0,0,1,5.46.82,4.53,4.53,0,0,1,2.52,2.27,6.22,6.22,0,0,1,.34,3.35l-2.24,14.64h-6.4l-.18-3.28a7.65,7.65,0,0,1-2.72,2.89A7.35,7.35,0,0,1,1143.85,414.86Zm3.44-4.92a3.06,3.06,0,0,0,1.09-.2,3.31,3.31,0,0,0,.92-.55,3.7,3.7,0,0,0,.69-.79,3,3,0,0,0,.38-.94l.4-2.6h-1.24a7.61,7.61,0,0,0-1.61.23,5.39,5.39,0,0,0-1.82.79,2.19,2.19,0,0,0-1,1.58,2,2,0,0,0,.51,1.82A2.27,2.27,0,0,0,1147.29,409.94Z" transform="translate(-2.69 -4.74)"/><path class="cls-2" d="M1169.71,414.86a12.11,12.11,0,0,1-4.18-.74,7.46,7.46,0,0,1-3.33-2.36,6.85,6.85,0,0,1-1.39-4.26h6.6a2.11,2.11,0,0,0,.71,1.48,2.86,2.86,0,0,0,1.26.62,5.61,5.61,0,0,0,1,.14,6.21,6.21,0,0,0,2.14-.31c.56-.21.86-.52.92-.93a.85.85,0,0,0-.41-.91,5.1,5.1,0,0,0-1.87-.53l-3-.48a8.8,8.8,0,0,1-4.51-2,4.66,4.66,0,0,1-1.25-4.28,6.65,6.65,0,0,1,1.57-3.48,8.91,8.91,0,0,1,3.54-2.48,13.73,13.73,0,0,1,5.25-.92q4.23,0,6.47,1.84a5.12,5.12,0,0,1,1.77,5h-6.34a1.68,1.68,0,0,0-.86-1.39,3.64,3.64,0,0,0-1.84-.45,5,5,0,0,0-1.87.32,1.19,1.19,0,0,0-.87.92c-.06.36.14.65.59.87a9.34,9.34,0,0,0,2.29.61l2.6.48a8.69,8.69,0,0,1,3,1.3,5.74,5.74,0,0,1,1.64,1.77,5.4,5.4,0,0,1,.63,1.86,6.19,6.19,0,0,1,0,1.55,6.49,6.49,0,0,1-1.76,3.73,9.33,9.33,0,0,1-3.7,2.29A14.77,14.77,0,0,1,1169.71,414.86Z" transform="translate(-2.69 -4.74)"/><path class="cls-2" d="M1054.7,462.86a12,12,0,0,1-6.28-1.56,10.41,10.41,0,0,1-4-4.32,14,14,0,0,1-1.39-6.38,20.24,20.24,0,0,1,1-6.35,17.63,17.63,0,0,1,3-5.62,14.79,14.79,0,0,1,5.06-4,15.84,15.84,0,0,1,7-1.49,12.63,12.63,0,0,1,5.8,1.25,8.76,8.76,0,0,1,3.76,3.62,11.61,11.61,0,0,1,1.32,5.73H1062a5.51,5.51,0,0,0-.48-2.32,3.42,3.42,0,0,0-1.35-1.51,4.33,4.33,0,0,0-2.23-.53,4.63,4.63,0,0,0-3.14,1.1,7.72,7.72,0,0,0-2,2.87,16,16,0,0,0-1.07,3.78,24.88,24.88,0,0,0-.32,3.85,6.77,6.77,0,0,0,1.09,4.33,3.56,3.56,0,0,0,2.87,1.31,4.38,4.38,0,0,0,2.39-.68,6.33,6.33,0,0,0,1.84-1.81,9.4,9.4,0,0,0,1.19-2.47h8.08a24.61,24.61,0,0,1-1.66,4.26,13.33,13.33,0,0,1-2.64,3.59,11.22,11.22,0,0,1-4,2.46A17.1,17.1,0,0,1,1054.7,462.86Z" transform="translate(-2.69 -4.74)"/><path class="cls-2" d="M1081,462.86a10.6,10.6,0,0,1-5.43-1.31,7.52,7.52,0,0,1-3.22-3.67,10.09,10.09,0,0,1-.51-5.5,13.59,13.59,0,0,1,2.06-5.46,12.49,12.49,0,0,1,4.19-4,11.29,11.29,0,0,1,5.85-1.52,9.39,9.39,0,0,1,5.41,1.4,7.1,7.1,0,0,1,2.79,3.83,12.1,12.1,0,0,1,.3,5.49l-.3,1.8h-12.94a4,4,0,0,0,0,2,2,2,0,0,0,.91,1.14,3,3,0,0,0,1.48.36,4.71,4.71,0,0,0,2-.4,3.5,3.5,0,0,0,1.56-1.6H1092a8.76,8.76,0,0,1-2.4,4,12.67,12.67,0,0,1-8.6,3.47Zm-1.22-13.32h5.9a3,3,0,0,0-.11-1.45,2,2,0,0,0-.83-1.07,2.81,2.81,0,0,0-1.6-.4,3.08,3.08,0,0,0-1.51.4,3.69,3.69,0,0,0-1.22,1.07A3.4,3.4,0,0,0,1079.82,449.54Z" transform="translate(-2.69 -4.74)"/><path class="cls-2" d="M1094.14,462.46l3.18-20.68h7.62l-.36,2.48c.49-.44,1-.85,1.49-1.24a6.33,6.33,0,0,1,1.79-.95,8,8,0,0,1,2.66-.37,6.44,6.44,0,0,1,3.31.89,6.12,6.12,0,0,1,2.33,2.43,5.43,5.43,0,0,1,.5,3.48l-2.12,14h-7.76l2-12.92a1.3,1.3,0,0,0-.54-1.38,2.62,2.62,0,0,0-1.54-.5,3.43,3.43,0,0,0-1.18.23,3,3,0,0,0-1.07.65,1.62,1.62,0,0,0-.53,1l-2,12.92Z" transform="translate(-2.69 -4.74)"/><path class="cls-2" d="M1127.74,462.78a11.33,11.33,0,0,1-4.87-.81,3.85,3.85,0,0,1-2.1-2.17,6.39,6.39,0,0,1-.25-3l1.48-9.72h-3.32l.8-5.28h3.6l2.14-6.44h6.26l-1,6.4h4.5l-.8,5.32h-4.5l-1.38,9.36c-.07.45,0,.75.23.9a1.47,1.47,0,0,0,.85.22h3.2l-.68,4.6a10,10,0,0,1-1.4.42A13,13,0,0,1,1127.74,462.78Z" transform="translate(-2.69 -4.74)"/><path class="cls-2" d="M1135.52,462.46l2.9-20.68h7.52l-.8,5.72a12.93,12.93,0,0,1,1.79-3.05,8.49,8.49,0,0,1,2.59-2.23,6.88,6.88,0,0,1,3.42-.84h.3l-1,7.36-.1,0-.14,0a10.57,10.57,0,0,0-4.37.23,3.78,3.78,0,0,0-2.12,1.53,5.38,5.38,0,0,0-.77,2.08l-1.4,9.92Z" transform="translate(-2.69 -4.74)"/><path class="cls-2" d="M1158.6,462.86a7.5,7.5,0,0,1-3.46-.76,4.94,4.94,0,0,1-2.24-2.23,6,6,0,0,1-.44-3.61,7.21,7.21,0,0,1,3.47-5.22q2.94-1.86,8.55-1.86h1.6l.12-.88a1.57,1.57,0,0,0-.34-1.46,2.22,2.22,0,0,0-1.62-.42,5.92,5.92,0,0,0-1.84.38,3.12,3.12,0,0,0-1.66,1.42h-6.26a7.33,7.33,0,0,1,2.07-4,9.26,9.26,0,0,1,3.86-2.2,17,17,0,0,1,4.95-.69,14.24,14.24,0,0,1,5.46.82,4.53,4.53,0,0,1,2.52,2.27,6.22,6.22,0,0,1,.34,3.35l-2.24,14.64H1165l-.18-3.28a7.65,7.65,0,0,1-2.72,2.89A7.35,7.35,0,0,1,1158.6,462.86Zm-.8-24,.72-4.76h15.92l-.72,4.76Zm4.24,19a3.06,3.06,0,0,0,1.09-.2,3.31,3.31,0,0,0,.92-.55,3.7,3.7,0,0,0,.69-.79,3,3,0,0,0,.38-.94l.4-2.6h-1.24a7.61,7.61,0,0,0-1.61.23,5.39,5.39,0,0,0-1.82.79,2.19,2.19,0,0,0-1,1.58,2,2,0,0,0,.51,1.82A2.27,2.27,0,0,0,1162,457.94Z" transform="translate(-2.69 -4.74)"/><path class="cls-2" d="M1183.5,462.9a12,12,0,0,1-4.35-.61,4.05,4.05,0,0,1-2.08-1.59,4.2,4.2,0,0,1-.57-2.16,16.14,16.14,0,0,1,.16-2.32l3.56-23.48h7.6l-3.4,22.44a2.47,2.47,0,0,0,.16,1.4c.18.44.79.73,1.82.88l.8.08-.72,4.72c-.48.17-1,.32-1.49.45A6.09,6.09,0,0,1,1183.5,462.9Z" transform="translate(-2.69 -4.74)"/><path class="cls-2" d="M1195.6,462.86a7.5,7.5,0,0,1-3.46-.76,4.94,4.94,0,0,1-2.24-2.23,6,6,0,0,1-.44-3.61,7.21,7.21,0,0,1,3.47-5.22q2.94-1.86,8.55-1.86h1.6l.12-.88a1.57,1.57,0,0,0-.34-1.46,2.22,2.22,0,0,0-1.62-.42,5.92,5.92,0,0,0-1.84.38,3.12,3.12,0,0,0-1.66,1.42h-6.26a7.33,7.33,0,0,1,2.07-4,9.26,9.26,0,0,1,3.86-2.2,17,17,0,0,1,4.95-.69,14.24,14.24,0,0,1,5.46.82,4.53,4.53,0,0,1,2.52,2.27,6.22,6.22,0,0,1,.34,3.35l-2.24,14.64H1202l-.18-3.28a7.65,7.65,0,0,1-2.72,2.89A7.35,7.35,0,0,1,1195.6,462.86Zm-.8-24,.72-4.76h15.92l-.72,4.76Zm4.24,19a3.06,3.06,0,0,0,1.09-.2,3.31,3.31,0,0,0,.92-.55,3.7,3.7,0,0,0,.69-.79,3,3,0,0,0,.38-.94l.4-2.6h-1.24a7.61,7.61,0,0,0-1.61.23,5.39,5.39,0,0,0-1.82.79,2.19,2.19,0,0,0-1,1.58,2,2,0,0,0,.51,1.82A2.27,2.27,0,0,0,1199,457.94Z" transform="translate(-2.69 -4.74)"/><path class="cls-2" d="M1070,510.86a12.15,12.15,0,0,1-4.18-.74,7.46,7.46,0,0,1-3.33-2.36,6.92,6.92,0,0,1-1.39-4.26h6.6a2.15,2.15,0,0,0,.71,1.48,2.86,2.86,0,0,0,1.26.62,5.72,5.72,0,0,0,1,.14,6.17,6.17,0,0,0,2.14-.31c.56-.21.87-.52.92-.93a.83.83,0,0,0-.41-.91,5,5,0,0,0-1.87-.53l-3-.48a8.84,8.84,0,0,1-4.51-2,4.69,4.69,0,0,1-1.25-4.28,6.73,6.73,0,0,1,1.57-3.48,8.91,8.91,0,0,1,3.54-2.48,13.8,13.8,0,0,1,5.25-.92c2.83,0,5,.61,6.47,1.84a5.08,5.08,0,0,1,1.77,5H1075a1.66,1.66,0,0,0-.86-1.39,3.61,3.61,0,0,0-1.84-.45,5,5,0,0,0-1.87.32,1.19,1.19,0,0,0-.87.92c0,.36.14.65.59.87a9.48,9.48,0,0,0,2.29.61l2.6.48a8.69,8.69,0,0,1,3,1.3,5.62,5.62,0,0,1,1.64,1.77,5,5,0,0,1,.63,1.86,5.75,5.75,0,0,1,0,1.55,6.49,6.49,0,0,1-1.76,3.73,9.26,9.26,0,0,1-3.7,2.29A14.73,14.73,0,0,1,1070,510.86Z" transform="translate(-2.69 -4.74)"/><path class="cls-2" d="M1092.62,510.78a11.36,11.36,0,0,1-4.87-.81,3.85,3.85,0,0,1-2.1-2.17,6.52,6.52,0,0,1-.25-3l1.48-9.72h-3.32l.8-5.28h3.6l2.14-6.44h6.26l-1,6.4h4.5l-.8,5.32h-4.5l-1.38,9.36c-.07.45,0,.75.23.9a1.47,1.47,0,0,0,.85.22h3.2l-.68,4.6a9.55,9.55,0,0,1-1.4.42A13,13,0,0,1,1092.62,510.78Z" transform="translate(-2.69 -4.74)"/><path class="cls-2" d="M1106.5,510.86a7.5,7.5,0,0,1-3.46-.76,4.94,4.94,0,0,1-2.24-2.23,6.07,6.07,0,0,1-.44-3.61,7.24,7.24,0,0,1,3.47-5.22q3-1.86,8.55-1.86h1.6l.12-.88a1.54,1.54,0,0,0-.34-1.46,2.19,2.19,0,0,0-1.62-.42,5.92,5.92,0,0,0-1.84.38,3.15,3.15,0,0,0-1.66,1.42h-6.26a7.33,7.33,0,0,1,2.07-4,9.32,9.32,0,0,1,3.86-2.2,17.12,17.12,0,0,1,5-.69,14.24,14.24,0,0,1,5.46.82,4.46,4.46,0,0,1,2.52,2.27,6.13,6.13,0,0,1,.34,3.35l-2.24,14.64h-6.4l-.18-3.28a7.65,7.65,0,0,1-2.72,2.89A7.29,7.29,0,0,1,1106.5,510.86Zm3.44-4.92a3,3,0,0,0,1.09-.2,3.17,3.17,0,0,0,.92-.55,3.7,3.7,0,0,0,.69-.79,2.74,2.74,0,0,0,.38-.94l.4-2.6h-1.24a7.7,7.7,0,0,0-1.61.23,5.39,5.39,0,0,0-1.82.79,2.26,2.26,0,0,0-1,1.58,2,2,0,0,0,.51,1.82A2.28,2.28,0,0,0,1109.94,505.94Z" transform="translate(-2.69 -4.74)"/><path class="cls-2" d="M1132.86,510.86a9.41,9.41,0,0,1-5.08-1.34,7.85,7.85,0,0,1-3.14-3.74,10.22,10.22,0,0,1-.52-5.56,13,13,0,0,1,2.2-5.64,12.38,12.38,0,0,1,4.27-3.82,11.38,11.38,0,0,1,5.51-1.38,8.19,8.19,0,0,1,4.73,1.24,6.58,6.58,0,0,1,2.54,3.26,9.1,9.1,0,0,1,.43,4.34h-6.28a6.22,6.22,0,0,0-.12-1.3,2.51,2.51,0,0,0-.62-1.25,1.91,1.91,0,0,0-1.48-.53,3.34,3.34,0,0,0-2.58,1.25,7.41,7.41,0,0,0-1.5,3.75,6.23,6.23,0,0,0,.41,3.95,2.47,2.47,0,0,0,2.25,1.41,2.32,2.32,0,0,0,1.62-.59,4.24,4.24,0,0,0,1-1.31,6.51,6.51,0,0,0,.45-1.14h6.1a9.4,9.4,0,0,1-1.67,4.12,10.12,10.12,0,0,1-8.51,4.28Z" transform="translate(-2.69 -4.74)"/><path class="cls-2" d="M1145.38,510.46l2.92-20.68h7.4l-2.92,20.68Zm3.16-22.36.92-6.56h7.4l-.92,6.56Z" transform="translate(-2.69 -4.74)"/><path class="cls-2" d="M1156.32,517.1a4.58,4.58,0,0,1-2.56-.68l.74-5.2,1.26-.2a3.47,3.47,0,0,0,1.58-.65,1.7,1.7,0,0,0,.52-1l3-19.56h7.74l-3,19.56a9.05,9.05,0,0,1-2.86,5.8A9.6,9.6,0,0,1,1156.32,517.1Zm4.86-29.8,1-6.56H1170l-1,6.56Z" transform="translate(-2.69 -4.74)"/><path class="cls-2" d="M1175.9,510.86a7.5,7.5,0,0,1-3.46-.76,4.94,4.94,0,0,1-2.24-2.23,6,6,0,0,1-.44-3.61,7.21,7.21,0,0,1,3.47-5.22q2.94-1.86,8.55-1.86h1.6l.12-.88a1.57,1.57,0,0,0-.34-1.46,2.22,2.22,0,0,0-1.62-.42,5.92,5.92,0,0,0-1.84.38,3.12,3.12,0,0,0-1.66,1.42h-6.26a7.33,7.33,0,0,1,2.07-4,9.26,9.26,0,0,1,3.86-2.2,17,17,0,0,1,5-.69,14.24,14.24,0,0,1,5.46.82,4.53,4.53,0,0,1,2.52,2.27,6.22,6.22,0,0,1,.34,3.35l-2.24,14.64h-6.4l-.18-3.28a7.65,7.65,0,0,1-2.72,2.89A7.35,7.35,0,0,1,1175.9,510.86Zm3.44-4.92a3.06,3.06,0,0,0,1.09-.2,3.31,3.31,0,0,0,.92-.55,3.7,3.7,0,0,0,.69-.79,3,3,0,0,0,.38-.94l.4-2.6h-1.24a7.61,7.61,0,0,0-1.61.23,5.39,5.39,0,0,0-1.82.79,2.19,2.19,0,0,0-1,1.58,2,2,0,0,0,.51,1.82A2.27,2.27,0,0,0,1179.34,505.94Z" transform="translate(-2.69 -4.74)"/><path class="cls-2" d="M622.89,891.86a18.48,18.48,0,0,1-4.41-.53,11.92,11.92,0,0,1-3.83-1.65,7.86,7.86,0,0,1-2.61-2.86,7.5,7.5,0,0,1-.75-4.16h8a3.14,3.14,0,0,0,.6,1.74,3.44,3.44,0,0,0,1.5,1.11,6.12,6.12,0,0,0,2.3.39,11.19,11.19,0,0,0,2.34-.24,4.79,4.79,0,0,0,1.89-.81,2.37,2.37,0,0,0,.93-1.59,1.32,1.32,0,0,0-.49-1.36,4.49,4.49,0,0,0-1.69-.74c-.71-.17-1.46-.33-2.26-.46l-4.34-.76a7.81,7.81,0,0,1-5.05-2.69,7.44,7.44,0,0,1-1.25-5.83,8.94,8.94,0,0,1,2.37-5,12.69,12.69,0,0,1,4.86-3.16,17.48,17.48,0,0,1,6.21-1.09,13.23,13.23,0,0,1,6.07,1.29,9.65,9.65,0,0,1,3.87,3.37,7.48,7.48,0,0,1,1.24,4.46h-7.86a3,3,0,0,0-.39-1.81,2.56,2.56,0,0,0-1.37-1,7.09,7.09,0,0,0-2.28-.31,7,7,0,0,0-2.42.35,3.17,3.17,0,0,0-1.35.88,2.14,2.14,0,0,0-.51,1.05,1.84,1.84,0,0,0,.41,1.58A4.52,4.52,0,0,0,625,873l4.34.76a11.9,11.9,0,0,1,4.68,1.67,6.14,6.14,0,0,1,2.24,2.55,7.29,7.29,0,0,1,.64,2.82,15.59,15.59,0,0,1-.14,2.48,7.78,7.78,0,0,1-2.3,4.41,13.53,13.53,0,0,1-5,3.07A18.89,18.89,0,0,1,622.89,891.86Z" transform="translate(-2.69 -4.74)"/><path class="cls-2" d="M648.61,891.78a11.36,11.36,0,0,1-4.87-.81,3.85,3.85,0,0,1-2.1-2.17,6.52,6.52,0,0,1-.25-3l1.48-9.72h-3.32l.8-5.28H644l2.14-6.44h6.26l-1,6.4h4.5l-.8,5.32h-4.5l-1.38,9.36c-.07.45,0,.75.23.9a1.47,1.47,0,0,0,.85.22h3.2l-.68,4.6a9.55,9.55,0,0,1-1.4.42A13,13,0,0,1,648.61,891.78Z" transform="translate(-2.69 -4.74)"/><path class="cls-2" d="M662.49,891.86a7.5,7.5,0,0,1-3.46-.76,4.94,4.94,0,0,1-2.24-2.23,6.07,6.07,0,0,1-.44-3.61,7.24,7.24,0,0,1,3.47-5.22q3-1.86,8.55-1.86H670l.12-.88a1.54,1.54,0,0,0-.34-1.46,2.19,2.19,0,0,0-1.62-.42,5.92,5.92,0,0,0-1.84.38,3.15,3.15,0,0,0-1.66,1.42h-6.26a7.33,7.33,0,0,1,2.07-4,9.32,9.32,0,0,1,3.86-2.2,17.12,17.12,0,0,1,5-.69,14.24,14.24,0,0,1,5.46.82,4.46,4.46,0,0,1,2.52,2.27,6.13,6.13,0,0,1,.34,3.35l-2.24,14.64h-6.4l-.18-3.28a7.65,7.65,0,0,1-2.72,2.89A7.29,7.29,0,0,1,662.49,891.86Zm3.44-4.92a3,3,0,0,0,1.09-.2,3.17,3.17,0,0,0,.92-.55,3.7,3.7,0,0,0,.69-.79,2.74,2.74,0,0,0,.38-.94l.4-2.6h-1.24a7.7,7.7,0,0,0-1.61.23,5.39,5.39,0,0,0-1.82.79,2.26,2.26,0,0,0-1,1.58,2,2,0,0,0,.51,1.82A2.28,2.28,0,0,0,665.93,886.94Z" transform="translate(-2.69 -4.74)"/><path class="cls-2" d="M688.85,891.86a9.39,9.39,0,0,1-5.08-1.34,7.79,7.79,0,0,1-3.14-3.74,10.22,10.22,0,0,1-.52-5.56,13,13,0,0,1,2.2-5.64,12.38,12.38,0,0,1,4.27-3.82,11.38,11.38,0,0,1,5.51-1.38,8.19,8.19,0,0,1,4.73,1.24,6.64,6.64,0,0,1,2.54,3.26,9.1,9.1,0,0,1,.43,4.34h-6.28a6.22,6.22,0,0,0-.12-1.3,2.59,2.59,0,0,0-.62-1.25,1.91,1.91,0,0,0-1.48-.53,3.34,3.34,0,0,0-2.58,1.25,7.41,7.41,0,0,0-1.5,3.75,6.23,6.23,0,0,0,.41,4,2.47,2.47,0,0,0,2.25,1.41,2.32,2.32,0,0,0,1.62-.59,4.24,4.24,0,0,0,1-1.31,6.51,6.51,0,0,0,.45-1.14H699a9.52,9.52,0,0,1-1.67,4.12,10.12,10.12,0,0,1-8.51,4.28Z" transform="translate(-2.69 -4.74)"/><path class="cls-2" d="M701.37,891.46l2.92-20.68h7.4l-2.92,20.68Zm3.16-22.36.92-6.56h7.4l-.92,6.56Z" transform="translate(-2.69 -4.74)"/><path class="cls-2" d="M712.31,898.1a4.58,4.58,0,0,1-2.56-.68l.74-5.2,1.26-.2a3.47,3.47,0,0,0,1.58-.65,1.7,1.7,0,0,0,.52-1l3-19.56h7.74l-3,19.56a9.05,9.05,0,0,1-2.86,5.8A9.6,9.6,0,0,1,712.31,898.1Zm4.86-29.8,1-6.56H726l-1,6.56Z" transform="translate(-2.69 -4.74)"/><path class="cls-2" d="M731.89,891.86a7.5,7.5,0,0,1-3.46-.76,4.94,4.94,0,0,1-2.24-2.23,6,6,0,0,1-.44-3.61,7.21,7.21,0,0,1,3.47-5.22q2.94-1.86,8.55-1.86h1.6l.12-.88a1.57,1.57,0,0,0-.34-1.46,2.22,2.22,0,0,0-1.62-.42,5.92,5.92,0,0,0-1.84.38,3.12,3.12,0,0,0-1.66,1.42h-6.26a7.33,7.33,0,0,1,2.07-4,9.26,9.26,0,0,1,3.86-2.2,17,17,0,0,1,4.95-.69,14.24,14.24,0,0,1,5.46.82,4.53,4.53,0,0,1,2.52,2.27,6.22,6.22,0,0,1,.34,3.35l-2.24,14.64h-6.4l-.18-3.28a7.65,7.65,0,0,1-2.72,2.89A7.35,7.35,0,0,1,731.89,891.86Zm3.44-4.92a3.06,3.06,0,0,0,1.09-.2,3.31,3.31,0,0,0,.92-.55,3.7,3.7,0,0,0,.69-.79,3,3,0,0,0,.38-.94l.4-2.6h-1.24a7.61,7.61,0,0,0-1.61.23,5.39,5.39,0,0,0-1.82.79,2.19,2.19,0,0,0-1,1.58,2,2,0,0,0,.51,1.82A2.27,2.27,0,0,0,735.33,886.94Z" transform="translate(-2.69 -4.74)"/><path class="cls-2" d="M757.75,891.86a12.11,12.11,0,0,1-4.18-.74,7.46,7.46,0,0,1-3.33-2.36,6.85,6.85,0,0,1-1.39-4.26h6.6a2.11,2.11,0,0,0,.71,1.48,2.86,2.86,0,0,0,1.26.62,5.61,5.61,0,0,0,1,.14,6.21,6.21,0,0,0,2.14-.31c.56-.21.86-.52.92-.93a.85.85,0,0,0-.41-.91,5.1,5.1,0,0,0-1.87-.53l-3-.48a8.8,8.8,0,0,1-4.51-2,4.66,4.66,0,0,1-1.25-4.28,6.65,6.65,0,0,1,1.57-3.48,8.91,8.91,0,0,1,3.54-2.48,13.73,13.73,0,0,1,5.25-.92q4.23,0,6.47,1.84a5.12,5.12,0,0,1,1.77,5h-6.34a1.68,1.68,0,0,0-.86-1.39,3.64,3.64,0,0,0-1.84-.45,5,5,0,0,0-1.87.32,1.19,1.19,0,0,0-.87.92c-.06.36.14.65.59.87a9.34,9.34,0,0,0,2.29.61l2.6.48a8.69,8.69,0,0,1,3,1.3,5.74,5.74,0,0,1,1.64,1.77,5.4,5.4,0,0,1,.63,1.86,6.19,6.19,0,0,1,0,1.55,6.49,6.49,0,0,1-1.76,3.73,9.33,9.33,0,0,1-3.7,2.29A14.77,14.77,0,0,1,757.75,891.86Z" transform="translate(-2.69 -4.74)"/><path class="cls-2" d="M614.59,939.9a12,12,0,0,1-4.35-.61,4.05,4.05,0,0,1-2.08-1.59,4.2,4.2,0,0,1-.57-2.16,16.14,16.14,0,0,1,.16-2.32l3.56-23.48h7.6l-3.4,22.44a2.47,2.47,0,0,0,.16,1.4c.18.44.79.73,1.82.88l.8.08-.72,4.72c-.48.17-1,.32-1.49.45A6.09,6.09,0,0,1,614.59,939.9Z" transform="translate(-2.69 -4.74)"/><path class="cls-2" d="M626.69,939.86a7.5,7.5,0,0,1-3.46-.76,4.94,4.94,0,0,1-2.24-2.23,6.07,6.07,0,0,1-.44-3.61A7.24,7.24,0,0,1,624,928q2.94-1.86,8.55-1.86h1.6l.12-.88a1.54,1.54,0,0,0-.34-1.46,2.22,2.22,0,0,0-1.62-.42,5.92,5.92,0,0,0-1.84.38,3.12,3.12,0,0,0-1.66,1.42h-6.26a7.33,7.33,0,0,1,2.07-4,9.32,9.32,0,0,1,3.86-2.2,17,17,0,0,1,5-.69,14.24,14.24,0,0,1,5.46.82,4.53,4.53,0,0,1,2.52,2.27,6.13,6.13,0,0,1,.34,3.35l-2.24,14.64h-6.4l-.18-3.28a7.65,7.65,0,0,1-2.72,2.89A7.35,7.35,0,0,1,626.69,939.86Zm3.44-4.92a3.06,3.06,0,0,0,1.09-.2,3.31,3.31,0,0,0,.92-.55,3.7,3.7,0,0,0,.69-.79,3,3,0,0,0,.38-.94l.4-2.6h-1.24a7.7,7.7,0,0,0-1.61.23,5.39,5.39,0,0,0-1.82.79,2.19,2.19,0,0,0-1,1.58,2,2,0,0,0,.51,1.82A2.27,2.27,0,0,0,630.13,934.94Z" transform="translate(-2.69 -4.74)"/><path class="cls-2" d="M651.25,939.86a8,8,0,0,1-2.56-.43,7.69,7.69,0,0,1-2.36-1.27,5.6,5.6,0,0,1-1.63-2,4.78,4.78,0,0,1-.35-2.77l2-14.56h7.8l-1.9,13.48a1.76,1.76,0,0,0,.45,1.51,2.27,2.27,0,0,0,1.75.61,3,3,0,0,0,1.94-.61,2.27,2.27,0,0,0,.88-1.51l1.9-13.48h7.72L664,939.46h-5.76l-.32-4.24a6.37,6.37,0,0,1-1.87,3,6.19,6.19,0,0,1-2.52,1.29A10.46,10.46,0,0,1,651.25,939.86Z" transform="translate(-2.69 -4.74)"/><path class="cls-2" d="M667.83,939.46l4.48-29.72h7.78l-2.44,16,6.72-7h8.06l-8.84,8.56,5.74,12.12h-7.52l-3.58-7.6-1.76,1.76-.92,5.84Z" transform="translate(-2.69 -4.74)"/><path class="cls-2" d="M699.11,939.86a8,8,0,0,1-2.56-.43,7.69,7.69,0,0,1-2.36-1.27,5.6,5.6,0,0,1-1.63-2,4.78,4.78,0,0,1-.35-2.77l2-14.56h7.8l-1.9,13.48a1.76,1.76,0,0,0,.45,1.51,2.27,2.27,0,0,0,1.75.61,3,3,0,0,0,1.94-.61,2.31,2.31,0,0,0,.88-1.51l1.9-13.48h7.72l-2.9,20.68h-5.76l-.32-4.24a6.37,6.37,0,0,1-1.87,3,6.19,6.19,0,0,1-2.52,1.29A10.61,10.61,0,0,1,699.11,939.86Z" transform="translate(-2.69 -4.74)"/><path class="cls-2" d="M715.69,939.46l3.14-20.68h7.62l-.4,2.48a9.56,9.56,0,0,1,7.12-2.88,7.69,7.69,0,0,1,3,.63,4.25,4.25,0,0,1,2.24,2.25,9.44,9.44,0,0,1,3.17-2.1,9.1,9.1,0,0,1,3.51-.78,6.37,6.37,0,0,1,2.32.44,6,6,0,0,1,2,1.28,5.06,5.06,0,0,1,1.26,2,5.92,5.92,0,0,1,.16,2.75l-2.2,14.56h-7.76l2.1-13.64a1.38,1.38,0,0,0-.2-1,1.88,1.88,0,0,0-.81-.66,2.7,2.7,0,0,0-1.09-.23,3.09,3.09,0,0,0-1.71.39,2.2,2.2,0,0,0-.86,1.1,8.26,8.26,0,0,0-.43,1.67L736,939.46h-7.72l2.08-13.64a1.29,1.29,0,0,0-.18-1,1.88,1.88,0,0,0-.83-.66,2.87,2.87,0,0,0-1.11-.23,3.18,3.18,0,0,0-1.15.23,2.73,2.73,0,0,0-1,.66,1.8,1.8,0,0,0-.53,1l-2.1,13.64Z" transform="translate(-2.69 -4.74)"/><path class="cls-2" d="M761.23,939.86a12.11,12.11,0,0,1-4.18-.74,7.46,7.46,0,0,1-3.33-2.36,6.85,6.85,0,0,1-1.39-4.26h6.6a2.11,2.11,0,0,0,.71,1.48,2.86,2.86,0,0,0,1.26.62,5.61,5.61,0,0,0,1,.14,6.21,6.21,0,0,0,2.14-.31c.56-.21.86-.52.92-.93a.85.85,0,0,0-.41-.91,5.1,5.1,0,0,0-1.87-.53l-3-.48a8.8,8.8,0,0,1-4.51-2,4.66,4.66,0,0,1-1.25-4.28,6.65,6.65,0,0,1,1.57-3.48,8.91,8.91,0,0,1,3.54-2.48,13.73,13.73,0,0,1,5.25-.92q4.23,0,6.47,1.84a5.12,5.12,0,0,1,1.77,5h-6.34a1.68,1.68,0,0,0-.86-1.39,3.64,3.64,0,0,0-1.84-.45,5,5,0,0,0-1.87.32,1.19,1.19,0,0,0-.87.92c-.06.36.14.65.59.87a9.34,9.34,0,0,0,2.29.61l2.6.48a8.69,8.69,0,0,1,3,1.3,5.74,5.74,0,0,1,1.64,1.77,5.4,5.4,0,0,1,.63,1.86,6.19,6.19,0,0,1,0,1.55,6.49,6.49,0,0,1-1.76,3.73,9.33,9.33,0,0,1-3.7,2.29A14.77,14.77,0,0,1,761.23,939.86Z" transform="translate(-2.69 -4.74)"/><path class="cls-2" d="M43.63,633.46l4.42-28.92h7.72l-3.4,22.52H63.85l-1,6.4Z" transform="translate(-2.69 -4.74)"/><path class="cls-2" d="M73.15,633.86a7.5,7.5,0,0,1-3.46-.76,4.94,4.94,0,0,1-2.24-2.23,6.07,6.07,0,0,1-.44-3.61A7.24,7.24,0,0,1,70.48,622q3-1.86,8.55-1.86h1.6l.12-.88a1.54,1.54,0,0,0-.34-1.46,2.19,2.19,0,0,0-1.62-.42,5.92,5.92,0,0,0-1.84.38,3.15,3.15,0,0,0-1.66,1.42H69a7.33,7.33,0,0,1,2.07-4,9.32,9.32,0,0,1,3.86-2.2,17.12,17.12,0,0,1,5-.69,14.24,14.24,0,0,1,5.46.82,4.46,4.46,0,0,1,2.52,2.27,6.13,6.13,0,0,1,.34,3.35L86,633.46h-6.4l-.18-3.28a7.65,7.65,0,0,1-2.72,2.89A7.29,7.29,0,0,1,73.15,633.86Zm3.44-4.92a3,3,0,0,0,1.09-.2,3.17,3.17,0,0,0,.92-.55,3.7,3.7,0,0,0,.69-.79,2.74,2.74,0,0,0,.38-.94l.4-2.6H78.83a7.7,7.7,0,0,0-1.61.23,5.39,5.39,0,0,0-1.82.79,2.26,2.26,0,0,0-1,1.58,2,2,0,0,0,.51,1.82A2.28,2.28,0,0,0,76.59,628.94Z" transform="translate(-2.69 -4.74)"/><path class="cls-2" d="M99.57,633.78A11.36,11.36,0,0,1,94.7,633a3.85,3.85,0,0,1-2.1-2.17,6.52,6.52,0,0,1-.25-3l1.48-9.72H90.51l.8-5.28h3.6l2.14-6.44h6.26l-1,6.4h4.5l-.8,5.32h-4.5l-1.38,9.36c-.07.45,0,.75.23.9a1.47,1.47,0,0,0,.85.22h3.2l-.68,4.6a9.55,9.55,0,0,1-1.4.42A13,13,0,0,1,99.57,633.78Z" transform="translate(-2.69 -4.74)"/><path class="cls-2" d="M113.25,633.46l-4.84-20.68h6.88l2,10.56,5.08-10.56h7l-11.16,20.68Z" transform="translate(-2.69 -4.74)"/><path class="cls-2" d="M128.79,633.46l2.92-20.68h7.4l-2.92,20.68ZM132,611.1l.92-6.56h7.4l-.92,6.56Z" transform="translate(-2.69 -4.74)"/><path class="cls-2" d="M139.73,640.1a4.58,4.58,0,0,1-2.56-.68l.74-5.2,1.26-.2a3.47,3.47,0,0,0,1.58-.65,1.7,1.7,0,0,0,.52-1l3-19.56H152l-3,19.56a9.05,9.05,0,0,1-2.86,5.8A9.6,9.6,0,0,1,139.73,640.1Zm4.86-29.8,1-6.56h7.76l-1,6.56Z" transform="translate(-2.69 -4.74)"/><path class="cls-2" d="M159.31,633.86a7.5,7.5,0,0,1-3.46-.76,4.94,4.94,0,0,1-2.24-2.23,6,6,0,0,1-.44-3.61,7.21,7.21,0,0,1,3.47-5.22q2.94-1.86,8.55-1.86h1.6l.12-.88a1.57,1.57,0,0,0-.34-1.46,2.22,2.22,0,0,0-1.62-.42,5.92,5.92,0,0,0-1.84.38,3.12,3.12,0,0,0-1.66,1.42h-6.26a7.33,7.33,0,0,1,2.07-4,9.26,9.26,0,0,1,3.86-2.2,17,17,0,0,1,4.95-.69,14.24,14.24,0,0,1,5.46.82,4.53,4.53,0,0,1,2.52,2.27,6.22,6.22,0,0,1,.34,3.35l-2.24,14.64h-6.4l-.18-3.28a7.65,7.65,0,0,1-2.72,2.89A7.35,7.35,0,0,1,159.31,633.86Zm3.44-4.92a3.06,3.06,0,0,0,1.09-.2,3.31,3.31,0,0,0,.92-.55,3.7,3.7,0,0,0,.69-.79,3,3,0,0,0,.38-.94l.4-2.6H165a7.61,7.61,0,0,0-1.61.23,5.39,5.39,0,0,0-1.82.79,2.19,2.19,0,0,0-1,1.58,2,2,0,0,0,.51,1.82A2.27,2.27,0,0,0,162.75,628.94Z" transform="translate(-2.69 -4.74)"/><path class="cls-2" d="M185.17,633.86a12.11,12.11,0,0,1-4.18-.74,7.46,7.46,0,0,1-3.33-2.36,6.85,6.85,0,0,1-1.39-4.26h6.6a2.11,2.11,0,0,0,.71,1.48,2.86,2.86,0,0,0,1.26.62,5.61,5.61,0,0,0,1,.14,6.21,6.21,0,0,0,2.14-.31c.56-.21.86-.52.92-.93a.85.85,0,0,0-.41-.91,5.1,5.1,0,0,0-1.87-.53l-3-.48a8.8,8.8,0,0,1-4.51-2,4.66,4.66,0,0,1-1.25-4.28,6.65,6.65,0,0,1,1.57-3.48A8.91,8.91,0,0,1,183,613.3a13.73,13.73,0,0,1,5.25-.92q4.23,0,6.47,1.84a5.12,5.12,0,0,1,1.77,5h-6.34a1.68,1.68,0,0,0-.86-1.39,3.64,3.64,0,0,0-1.84-.45,5,5,0,0,0-1.87.32,1.19,1.19,0,0,0-.87.92c-.06.36.14.65.59.87a9.34,9.34,0,0,0,2.29.61l2.6.48a8.69,8.69,0,0,1,3,1.3,5.74,5.74,0,0,1,1.64,1.77,5.4,5.4,0,0,1,.63,1.86,6.19,6.19,0,0,1,0,1.55,6.49,6.49,0,0,1-1.76,3.73,9.33,9.33,0,0,1-3.7,2.29A14.77,14.77,0,0,1,185.17,633.86Z" transform="translate(-2.69 -4.74)"/><path class="cls-2" d="M13.46,681.86c-3.09,0-5.47-.52-7.12-1.56A7.15,7.15,0,0,1,3.12,676a16.13,16.13,0,0,1-.2-6.46l2.56-17h7.86L10.7,669.82a6.45,6.45,0,0,0,.16,3.21,3.29,3.29,0,0,0,1.42,1.76,4.28,4.28,0,0,0,2.18.55,5.33,5.33,0,0,0,3.37-1.26,6.37,6.37,0,0,0,2-4.26l2.6-17.28H30.3l-2.56,17A18.24,18.24,0,0,1,25.58,676,11.14,11.14,0,0,1,21,680.3,16.14,16.14,0,0,1,13.46,681.86Z" transform="translate(-2.69 -4.74)"/><path class="cls-2" d="M30.38,681.46l3.18-20.68h7.62l-.36,2.48c.49-.44,1-.85,1.49-1.24a6.47,6.47,0,0,1,1.79-.95,8,8,0,0,1,2.66-.37,6.44,6.44,0,0,1,3.31.89A6.05,6.05,0,0,1,52.4,664a5.36,5.36,0,0,1,.5,3.48l-2.12,14H43l2-12.92a1.27,1.27,0,0,0-.54-1.38,2.62,2.62,0,0,0-1.54-.5,3.47,3.47,0,0,0-1.18.23,3.14,3.14,0,0,0-1.07.65,1.62,1.62,0,0,0-.53,1l-2,12.92Z" transform="translate(-2.69 -4.74)"/><path class="cls-2" d="M54.94,681.46l2.92-20.68h7.4l-2.92,20.68ZM58.1,659.1l.92-6.56h7.4l-.92,6.56Z" transform="translate(-2.69 -4.74)"/><path class="cls-2" d="M72.48,681.46l-4.84-20.68h6.88l2,10.56,5.08-10.56h7L77.44,681.46Z" transform="translate(-2.69 -4.74)"/><path class="cls-2" d="M96.5,681.86a10.6,10.6,0,0,1-5.43-1.31,7.52,7.52,0,0,1-3.22-3.67,10.09,10.09,0,0,1-.51-5.5,13.59,13.59,0,0,1,2.06-5.46,12.49,12.49,0,0,1,4.19-4,11.29,11.29,0,0,1,5.85-1.52,9.39,9.39,0,0,1,5.41,1.4,7.1,7.1,0,0,1,2.79,3.83,12.1,12.1,0,0,1,.3,5.49l-.3,1.8H94.7a4,4,0,0,0,0,2,2,2,0,0,0,.91,1.14,3,3,0,0,0,1.48.36,4.71,4.71,0,0,0,2-.4,3.5,3.5,0,0,0,1.56-1.6h6.84a8.76,8.76,0,0,1-2.4,4,12.67,12.67,0,0,1-8.6,3.47Zm-1.22-13.32h5.9a3,3,0,0,0-.11-1.45,2,2,0,0,0-.83-1.07,2.81,2.81,0,0,0-1.6-.4,3.08,3.08,0,0,0-1.51.4,3.69,3.69,0,0,0-1.22,1.07A3.4,3.4,0,0,0,95.28,668.54Z" transform="translate(-2.69 -4.74)"/><path class="cls-2" d="M109.62,681.46l2.9-20.68H120l-.8,5.72a12.93,12.93,0,0,1,1.79-3,8.49,8.49,0,0,1,2.59-2.23,6.88,6.88,0,0,1,3.42-.84h.3l-1,7.36-.1,0-.14,0a10.57,10.57,0,0,0-4.37.23,3.78,3.78,0,0,0-2.12,1.53,5.38,5.38,0,0,0-.77,2.08l-1.4,9.92Z" transform="translate(-2.69 -4.74)"/><path class="cls-2" d="M135.46,681.86a12.11,12.11,0,0,1-4.18-.74,7.46,7.46,0,0,1-3.33-2.36,6.85,6.85,0,0,1-1.39-4.26h6.6a2.11,2.11,0,0,0,.71,1.48,2.86,2.86,0,0,0,1.26.62,5.61,5.61,0,0,0,1,.14,6.21,6.21,0,0,0,2.14-.31c.56-.21.86-.52.92-.93a.85.85,0,0,0-.41-.91,5.1,5.1,0,0,0-1.87-.53l-3-.48a8.8,8.8,0,0,1-4.51-2,4.66,4.66,0,0,1-1.25-4.28,6.65,6.65,0,0,1,1.57-3.48,8.91,8.91,0,0,1,3.54-2.48,13.73,13.73,0,0,1,5.25-.92q4.23,0,6.47,1.84a5.12,5.12,0,0,1,1.77,5h-6.34a1.68,1.68,0,0,0-.86-1.39,3.64,3.64,0,0,0-1.84-.45,5,5,0,0,0-1.87.32,1.19,1.19,0,0,0-.87.92c-.06.36.14.65.59.87a9.34,9.34,0,0,0,2.29.61l2.6.48a8.69,8.69,0,0,1,3,1.3,5.74,5.74,0,0,1,1.64,1.77,5.4,5.4,0,0,1,.63,1.86,6.19,6.19,0,0,1,0,1.55,6.49,6.49,0,0,1-1.76,3.73,9.33,9.33,0,0,1-3.7,2.29A14.77,14.77,0,0,1,135.46,681.86Z" transform="translate(-2.69 -4.74)"/><path class="cls-2" d="M148.2,681.46l2.92-20.68h7.4l-2.92,20.68Zm3.16-22.36.92-6.56h7.4l-.92,6.56Z" transform="translate(-2.69 -4.74)"/><path class="cls-2" d="M169.66,681.78a11.33,11.33,0,0,1-4.87-.81,3.85,3.85,0,0,1-2.1-2.17,6.39,6.39,0,0,1-.25-3l1.48-9.72H160.6l.8-5.28H165l2.14-6.44h6.26l-1,6.4h4.5l-.8,5.32h-4.5l-1.38,9.36c-.07.45,0,.75.23.9a1.47,1.47,0,0,0,.85.22h3.2l-.68,4.6a10,10,0,0,1-1.4.42A13,13,0,0,1,169.66,681.78Z" transform="translate(-2.69 -4.74)"/><path class="cls-2" d="M183.54,681.86a7.5,7.5,0,0,1-3.46-.76,4.94,4.94,0,0,1-2.24-2.23,6,6,0,0,1-.44-3.61,7.21,7.21,0,0,1,3.47-5.22q2.94-1.86,8.55-1.86H191l.12-.88a1.57,1.57,0,0,0-.34-1.46,2.22,2.22,0,0,0-1.62-.42,5.92,5.92,0,0,0-1.84.38,3.12,3.12,0,0,0-1.66,1.42h-6.26a7.33,7.33,0,0,1,2.07-4,9.26,9.26,0,0,1,3.86-2.2,17,17,0,0,1,5-.69,14.24,14.24,0,0,1,5.46.82,4.53,4.53,0,0,1,2.52,2.27,6.22,6.22,0,0,1,.34,3.35l-2.24,14.64H190l-.18-3.28a7.65,7.65,0,0,1-2.72,2.89A7.35,7.35,0,0,1,183.54,681.86Zm-.8-24,.72-4.76h15.92l-.72,4.76Zm4.24,19a3.06,3.06,0,0,0,1.09-.2,3.31,3.31,0,0,0,.92-.55,3.7,3.7,0,0,0,.69-.79,3,3,0,0,0,.38-.94l.4-2.6h-1.24a7.61,7.61,0,0,0-1.61.23,5.39,5.39,0,0,0-1.82.79,2.19,2.19,0,0,0-1,1.58,2,2,0,0,0,.51,1.82A2.27,2.27,0,0,0,187,676.94Z" transform="translate(-2.69 -4.74)"/><path class="cls-2" d="M210,681.78a11.33,11.33,0,0,1-4.87-.81,3.85,3.85,0,0,1-2.1-2.17,6.39,6.39,0,0,1-.25-3l1.48-9.72H200.9l.8-5.28h3.6l2.14-6.44h6.26l-1,6.4h4.5l-.8,5.32h-4.5l-1.38,9.36c-.07.45,0,.75.23.9a1.47,1.47,0,0,0,.85.22h3.2l-.68,4.6a10,10,0,0,1-1.4.42A13,13,0,0,1,210,681.78Z" transform="translate(-2.69 -4.74)"/><path class="cls-2" d="M226.6,681.86a10.55,10.55,0,0,1-5.43-1.31,7.52,7.52,0,0,1-3.22-3.67,10.09,10.09,0,0,1-.51-5.5,13.59,13.59,0,0,1,2.06-5.46,12.4,12.4,0,0,1,4.19-4,11.29,11.29,0,0,1,5.85-1.52,9.41,9.41,0,0,1,5.41,1.4,7.1,7.1,0,0,1,2.79,3.83,12.39,12.39,0,0,1,.3,5.49l-.3,1.8H224.8a4,4,0,0,0,0,2,2,2,0,0,0,.91,1.14,3,3,0,0,0,1.48.36,4.74,4.74,0,0,0,2-.4,3.5,3.5,0,0,0,1.56-1.6h6.84a8.76,8.76,0,0,1-2.4,4,12.67,12.67,0,0,1-8.6,3.47Zm-1.22-13.32h5.9a3,3,0,0,0-.11-1.45,2.09,2.09,0,0,0-.83-1.07,2.83,2.83,0,0,0-1.6-.4,3,3,0,0,0-1.51.4,3.59,3.59,0,0,0-1.22,1.07A3.4,3.4,0,0,0,225.38,668.54Z" transform="translate(-2.69 -4.74)"/></g></g></g></g></g></svg>